<svg height="512pt" viewBox="0 0 512 512" width="512pt" xmlns="http://www.w3.org/2000/svg"><path d="m512 256c0 141.378906-114.621094 256-256 256-85.808594 0-161.761719-42.230469-208.210938-107.03125-11.257812-15.707031-20.789062-32.75-28.300781-50.839844-12.558593-30.21875-19.488281-63.367187-19.488281-98.128906 0-13.621094 1.058594-26.988281 3.121094-40.03125 19.207031-122.367188 125.117187-215.96875 252.878906-215.96875 141.378906 0 256 114.621094 256 256zm0 0" fill="#9e69e2"/><path d="m512 256c0 26.050781-3.890625 51.191406-11.128906 74.871094-32.011719 104.847656-129.542969 181.128906-244.871094 181.128906-65.960938 0-126.101562-24.949219-171.488281-65.949219-26.5625-23.960937-48.070313-53.429687-62.742188-86.601562-14-31.628907-21.769531-66.628907-21.769531-103.449219 0-17.398438 1.730469-34.378906 5.039062-50.808594 5.480469-27.203125 15.28125-52.851562 28.640626-76.191406 44.121093 77.070312 127.160156 129 222.320312 129s178.210938-51.929688 222.320312-129c21.429688 37.429688 33.679688 80.78125 33.679688 127zm0 0" fill="#8e4fd2"/><path d="m30.742188 377.703125c7.15625 13.21875 15.429687 25.738281 24.71875 37.425781 46.898437 59.019532 119.300781 96.871094 200.539062 96.871094s153.640625-37.851562 200.539062-96.871094c9.289063-11.6875 17.5625-24.207031 24.71875-37.425781zm0 0" fill="#7038ba"/><path d="m424.242188 343.757812c0 92.859376-75.242188 168.160157-168.078126 168.242188h-.164062c-92.917969 0-168.242188-75.328125-168.242188-168.242188 0-92.917968 75.324219-168.246093 168.242188-168.246093h.164062c92.835938.082031 168.078126 75.382812 168.078126 168.246093zm0 0" fill="#ffe955"/><path d="m424.242188 343.757812c0 92.859376-75.242188 168.160157-168.078126 168.242188-56.164062-34.933594-93.546874-97.226562-93.546874-168.242188 0-71.019531 37.382812-133.3125 93.546874-168.246093 92.835938.082031 168.078126 75.382812 168.078126 168.246093zm0 0" fill="#ffd112"/><path d="m424.242188 343.757812c0 92.914063-75.324219 168.242188-168.242188 168.242188v-336.488281c92.917969 0 168.242188 75.328125 168.242188 168.246093zm0 0" fill="#ff9f00"/><g fill="#c55835"><path d="m347.644531 256.898438c0 12.464843-10.105469 22.570312-22.570312 22.570312-12.460938 0-22.566407-10.105469-22.566407-22.570312 0-12.464844 10.105469-22.570313 22.566407-22.570313 12.464843 0 22.570312 10.105469 22.570312 22.570313zm0 0"/><path d="m129.160156 324.605469c0 6.800781-5.511718 12.3125-12.308594 12.3125-6.800781 0-12.3125-5.511719-12.3125-12.3125 0-6.796875 5.511719-12.308594 12.3125-12.308594 6.796876 0 12.308594 5.511719 12.308594 12.308594zm0 0"/><path d="m347.960938 421.722656c0 12.640625-10.246094 22.882813-22.886719 22.882813-12.636719 0-22.882813-10.242188-22.882813-22.882813 0-12.636718 10.246094-22.882812 22.882813-22.882812 12.640625 0 22.886719 10.246094 22.886719 22.882812zm0 0"/><path d="m383.03125 343.757812c0 6.730469-5.457031 12.1875-12.1875 12.1875s-12.1875-5.457031-12.1875-12.1875c0-6.734374 5.457031-12.191406 12.1875-12.191406s12.1875 5.457032 12.1875 12.191406zm0 0"/><path d="m243.226562 405.679688c0 6.730468-5.457031 12.1875-12.191406 12.1875-6.730468 0-12.1875-5.457032-12.1875-12.1875 0-6.734376 5.457032-12.191407 12.1875-12.191407 6.734375 0 12.191406 5.457031 12.191406 12.191407zm0 0"/><path d="m172.070312 246.515625c0 6.734375-5.457031 12.1875-12.1875 12.1875-6.730468 0-12.1875-5.453125-12.1875-12.1875 0-6.730469 5.457032-12.1875 12.1875-12.1875 6.730469 0 12.1875 5.457031 12.1875 12.1875zm0 0"/><path d="m232.167969 312.296875c0 11.285156-9.148438 20.433594-20.433594 20.433594-11.289063 0-20.4375-9.148438-20.4375-20.433594 0-11.289063 9.148437-20.4375 20.4375-20.4375 11.285156 0 20.433594 9.148437 20.433594 20.4375zm0 0"/><path d="m159.882812 405.679688c0 12.636718-10.246093 22.882812-22.886718 22.882812-12.636719 0-22.882813-10.246094-22.882813-22.882812 0-12.640626 10.246094-22.886719 22.882813-22.886719 12.640625 0 22.886718 10.246093 22.886718 22.886719zm0 0"/></g><path d="m172.21875 76.972656h-1.523438c-6.753906 0-12.226562-5.472656-12.226562-12.226562v-1.523438h-8.71875v1.523438c0 6.753906-5.472656 12.226562-12.226562 12.226562h-1.523438v8.71875h1.523438c6.753906 0 12.230468 5.472656 12.230468 12.226563v1.523437h8.714844v-1.523437c0-6.753907 5.472656-12.226563 12.226562-12.226563h1.523438zm0 0" fill="#fff"/><path d="m376 76.972656h-1.523438c-6.753906 0-12.226562-5.472656-12.226562-12.226562v-1.523438h-8.71875v1.523438c0 6.753906-5.472656 12.226562-12.226562 12.226562h-1.523438v8.71875h1.523438c6.753906 0 12.226562 5.472656 12.226562 12.226563v1.523437h8.71875v-1.523437c0-6.753907 5.472656-12.226563 12.226562-12.226563h1.523438zm0 0" fill="#fff"/><path d="m274.109375 127.972656h-1.523437c-6.753907 0-12.226563-5.472656-12.226563-12.226562v-1.523438h-8.71875v1.523438c0 6.753906-5.472656 12.226562-12.226563 12.226562h-1.523437v8.71875h1.523437c6.753907 0 12.226563 5.472656 12.226563 12.226563v1.523437h8.71875v-1.523437c0-6.753907 5.472656-12.226563 12.226563-12.226563h1.523437zm0 0" fill="#fff"/><path d="m82.109375 211.859375h-1.523437c-6.753907 0-12.226563-5.472656-12.226563-12.226563v-1.523437h-8.71875v1.523437c0 6.753907-5.472656 12.226563-12.226563 12.226563h-1.523437v8.71875h1.523437c6.753907 0 12.226563 5.472656 12.226563 12.226563v1.523437h8.71875v-1.523437c0-6.753907 5.472656-12.226563 12.226563-12.226563h1.523437zm0 0" fill="#fff"/><path d="m467.109375 211.859375h-1.523437c-6.753907 0-12.226563-5.472656-12.226563-12.226563v-1.523437h-8.71875v1.523437c0 6.753907-5.472656 12.226563-12.226563 12.226563h-1.523437v8.71875h1.523437c6.753907 0 12.226563 5.472656 12.226563 12.226563v1.523437h8.71875v-1.523437c0-6.753907 5.472656-12.226563 12.226563-12.226563h1.523437zm0 0" fill="#fff"/></svg>