<svg height="512pt" viewBox="0 0 512 512" width="512pt" xmlns="http://www.w3.org/2000/svg"><path d="m512 256c0 141.386719-114.613281 256-256 256s-256-114.613281-256-256 114.613281-256 256-256 256 114.613281 256 256zm0 0" fill="#b5e237"/><path d="m512 256c0 26.050781-3.890625 51.191406-11.128906 74.871094-32.011719 104.847656-129.542969 181.128906-244.871094 181.128906-104.558594 0-194.488281-62.699219-234.230469-152.550781-14-31.628907-21.769531-66.628907-21.769531-103.449219 0-46.21875 12.25-89.570312 33.679688-127 44.121093 77.070312 127.160156 129 222.320312 129s178.210938-51.929688 222.320312-129c21.429688 37.429688 33.679688 80.78125 33.679688 127zm0 0" fill="#95d600"/><path d="m481.261719 377.699219c-7.160157 13.222656-15.433594 25.742187-24.722657 37.429687-40.539062 51.019532-100.140624 86.222656-168.027343 94.820313h-.011719c-10.640625 1.351562-21.488281 2.050781-32.5 2.050781-3.28125 0-6.550781-.058594-9.800781-.191406h-.007813c-8.429687-.320313-16.742187-1.039063-24.941406-2.148438-66.96875-9.089844-125.699219-44.070312-165.789062-94.53125-9.289063-11.6875-17.5625-24.207031-24.722657-37.429687zm0 0" fill="#85af12"/><path d="m385.820312 140.648438-30.121093 75.410156-11.890625 29.75-6.109375 15.292968c-5.898438 14.757813-8.910157 30.386719-9 46.046876-.050781 9.621093.992187 19.261718 3.152343 28.722656.707032 3.117187 1.546876 6.230468 2.5 9.308594l3.296876 10.660156c0 .011718 0 .011718.011718.019531 1.449219 4.679687 2.621094 9.421875 3.5 14.179687.480469 2.550782.878906 5.101563 1.191406 7.660157.117188.910156.21875 1.832031.308594 2.742187 1.179688 11.609375.71875 23.25-1.28125 34.617188-1.808594 10.28125-4.910156 20.332031-9.21875 29.902344-3.558594 7.917968-7.980468 15.519531-13.210937 22.648437-1.25 1.71875-2.550781 3.402344-3.890625 5.0625l-11.828125 14.546875c-1.730469 2.132812-3.390625 4.320312-4.980469 6.550781-3.671875 5.171875-6.921875 10.582031-9.738281 16.179688h-.011719c-10.640625 1.351562-21.488281 2.050781-32.5 2.050781-3.28125 0-6.550781-.058594-9.800781-.191406-8.429688-.320313-16.75-1.039063-24.949219-2.148438-.421875-4.160156-.628906-8.339844-.628906-12.539062 0-3.679688.167968-7.382813.480468-11.082032.339844-3.738281.839844-7.480468 1.507813-11.210937.429687-2.40625.789063-4.816406 1.082031-7.21875.597656-4.9375.898438-9.871094.910156-14.789063.019532-5.371093-.320312-10.730468-.980468-16.03125-1.949219-15.4375-6.742188-30.4375-14.191406-44.21875-2.78125-5.148437-5.929688-10.121093-9.441407-14.871093-.359375-.5-.726562-1-1.109375-1.488281l-.199218-.261719-19.109376-25.128907-1.609374-2.121093c-8.039063-10.558594-14.261719-22.210938-18.570313-34.46875-2.019531-5.71875-3.609375-11.582031-4.78125-17.53125-1.578125-8.027344-2.378906-16.21875-2.378906-24.460938.007812-8.777343.941406-17.617187 2.828125-26.367187l3.722656-17.332032 18.910156-87.890624zm0 0" fill="#fff"/><path d="m342.339844 377.699219c4.179687 33.730469-5.441406 68.101562-27.28125 94.972656l-11.828125 14.546875c-5.75 7.082031-10.679688 14.703125-14.71875 22.730469-10.640625 1.351562-21.5 2.050781-32.511719 2.050781-3.28125 0-6.550781-.058594-9.800781-.191406 1.289062-12.707032 4.53125-25.707032 9.730469-38.558594 13.53125-33.429688 13.800781-67.808594.921874-95.550781-.652343-1.390625-1.332031-2.777344-2.050781-4.140625l-14.621093-27.796875c-15.558594-29.613281-15.308594-67.582031.671874-103.953125l44.46875-101.160156h100.5l-48.121093 120.453124c-10.71875 26.820313-11.898438 56.507813-3.347657 84.078126l3.296876 10.660156c2.230468 7.199218 3.792968 14.511718 4.691406 21.859375zm0 0" fill="#d0f6ff"/><path d="m355.695312 216.054688-11.886718 29.753906-109.898438 15.164062-81.675781 11.269532c.007813-8.785157.9375-17.625 2.820313-26.375l3.722656-17.332032 90.425781-5.726562zm0 0" fill="#d0f6ff"/><path d="m385.816406 140.644531c-19.125 38.085938-58.539062 64.234375-104.0625 64.234375-8.089844 0-15.988281-.828125-23.613281-2.410156-35.28125-7.265625-64.722656-30.503906-80.457031-61.824219zm0 0" fill="#8fc9f7"/><path d="m331.847656 335.867188-100.09375-12.554688-72.367187-9.082031c-2.015625-5.722657-3.613281-11.578125-4.777344-17.527344l74.136719 4.449219 99.953125 5.992187c0 1.113281.007812 2.226563.03125 3.332031.007812.402344.015625.800782.03125 1.195313v.136719c0 .074218.007812.152344.007812.226562.007813.128906.007813.25.011719.378906.039062.96875.085938 1.929688.136719 2.898438.007812.113281.015625.21875.023437.332031v.03125c.007813.066407.007813.136719.015625.203125.015625.234375.03125.46875.046875.703125.011719.234375.027344.46875.050782.703125.054687.789063.121093 1.570313.199218 2.355469.019532.257813.050782.515625.074219.773437.023437.257813.054687.507813.082031.761719.007813.113281.015625.222657.03125.335938s.023438.234375.039063.347656c.011719.105469.023437.21875.035156.324219.046875.355468.085937.71875.128906 1.074218.039063.355469.085938.71875.136719 1.074219.082031.675781.183594 1.339844.28125 2.007813.023438.167968.042969.332031.066406.492187.097656.621094.199219 1.238281.304688 1.851563.039062.226562.074218.449218.113281.675781.015625.082031.027344.171875.042969.257813.007812.035156.015625.074218.023437.113281.082031.5.175781.992187.265625 1.484375.023438.089844.039063.1875.054688.277344.132812.726562.277344 1.445312.4375 2.164062.152344.734375.3125 1.476562.476562 2.210938zm0 0" fill="#8fc9f7"/><path d="m343.300781 393.136719c0 .890625-.007812 1.785156-.03125 2.679687v.082032c-.015625.800781-.042969 1.597656-.074219 2.398437-.007812.113281-.007812.234375-.015624.355469-.039063.796875-.078126 1.589844-.128907 2.382812-.007812.121094-.015625.242188-.023437.363282-.046875.667968-.089844 1.324218-.152344 1.992187-.023438.289063-.046875.566406-.066406.855469-.039063.421875-.078125.847656-.121094 1.269531-.046875.453125-.09375.917969-.144531 1.371094-.046875.460937-.097657.914062-.160157 1.371093-.039062.347657-.082031.6875-.128906 1.035157-.066406.566406-.144531 1.128906-.226562 1.6875-.007813.0625-.015625.128906-.03125.191406-.050782.390625-.105469.777344-.171875 1.171875-.015625.121094-.03125.234375-.054688.355469-.015625.113281-.039062.234375-.050781.347656-.0625.355469-.117188.71875-.175781 1.066406-.007813.007813-.007813.023438-.007813.03125-.054687.300781-.105468.613281-.160156.914063l-75.273438 13.890625-42.488281 7.839843c-1.941406-15.4375-6.734375-30.4375-14.1875-44.222656l51.464844-4.683594 81.765625-7.4375c.015625.097657.023438.195313.03125.300782.035156.386718.074219.773437.105469 1.160156.007812.097656.023437.195312.027343.292969.039063.46875.085938.945312.113282 1.414062.023437.289063.046875.570313.0625.851563.039062.480468.066406.960937.089844 1.4375.007812.113281.015624.21875.023437.332031.039063.710937.078125 1.429687.097656 2.140625v.078125c.03125.777344.054688 1.558594.070313 2.34375.015625.78125.023437 1.558594.023437 2.339844zm0 0" fill="#8fc9f7"/><path d="m298.25 493.769531c-.398438.558594-.789062 1.121094-1.171875 1.691407-.316406.460937-.628906.929687-.9375 1.398437-.152344.199219-.28125.410156-.421875.628906-.296875.460938-.609375.921875-.898438 1.390625-.371093.570313-.742187 1.152344-1.089843 1.730469-.359375.582031-.710938 1.171875-1.058594 1.75-.363281.589844-.703125 1.179687-1.03125 1.769531-.269531.460938-.519531.910156-.769531 1.359375-.011719.023438-.019532.03125-.03125.050781-.351563.632813-.699219 1.269532-1.039063 1.910157-.359375.679687-.730469 1.371093-1.070312 2.0625-.070313.148437-.152344.289062-.21875.4375h-.011719c-10.640625 1.351562-21.488281 2.050781-32.5 2.050781-3.28125 0-6.550781-.058594-9.800781-.191406h-.007813c-8.429687-.320313-16.742187-1.039063-24.941406-2.148438-.421875-4.160156-.628906-8.339844-.628906-12.539062 0-3.679688.167968-7.382813.480468-11.082032l29.449219 2.949219zm0 0" fill="#8fc9f7"/><path d="m332.160156 444.964844c-.0625.140625-.128906.277344-.1875.421875-.046875.089843-.085937.1875-.128906.28125-.015625.035156-.039062.082031-.054688.121093-.203124.445313-.417968.875-.621093 1.316407-.039063.089843-.082031.171875-.121094.265625-.089844.179687-.175781.363281-.265625.542968-.316406.667969-.640625 1.324219-.976562 1.976563-.398438.800781-.816407 1.601563-1.234376 2.398437-.375.703126-.753906 1.398438-1.140624 2.097657-.078126.132812-.152344.269531-.226563.40625-.417969.742187-.839844 1.476562-1.273437 2.210937-.382813.667969-.785157 1.332032-1.195313 1.988282-.363281.601562-.742187 1.199218-1.121094 1.796874-.042969.066407-.082031.136719-.128906.203126-.226563.363281-.460937.726562-.703125 1.089843-.316406.492188-.640625.976563-.976562 1.46875-.273438.410157-.550782.816407-.839844 1.226563-.648438.953125-1.316406 1.898437-2.011719 2.828125h-95.261719l.910156-14.785157 38.582032-2.816406zm0 0" fill="#d0f6ff"/><path d="m341.15625 370.039062-86.328125 3.578126-56.148437 2.332031-19.109376-25.125 64.351563 2.050781 93.738281 2.980469c0 .023437.011719.039062.015625.058593zm0 0" fill="#d0f6ff"/><path d="m298.25 493.769531c-.398438.558594-.789062 1.121094-1.171875 1.691407-.316406.460937-.628906.929687-.9375 1.398437-.152344.199219-.28125.410156-.421875.628906-.308594.460938-.609375.921875-.898438 1.390625-.378906.570313-.742187 1.152344-1.089843 1.730469-.359375.582031-.710938 1.171875-1.058594 1.75-.363281.589844-.703125 1.179687-1.03125 1.769531-.269531.460938-.519531.910156-.769531 1.359375-.011719.023438-.019532.03125-.03125.050781-.351563.632813-.699219 1.269532-1.039063 1.910157-.359375.679687-.730469 1.371093-1.070312 2.0625-.070313.148437-.152344.289062-.21875.4375h-.011719c-10.640625 1.351562-21.488281 2.050781-32.5 2.050781-3.28125 0-6.550781-.058594-9.800781-.191406h-.007813c.769532-7.539063 2.230469-15.167969 4.359375-22.820313zm0 0" fill="#0f9be8"/><path d="m263.183594 450.003906 68.976562-5.039062c-.0625.140625-.128906.277344-.191406.421875-.042969.089843-.082031.1875-.128906.28125-.015625.035156-.035156.082031-.050782.121093-.203124.445313-.417968.875-.621093 1.316407-.039063.089843-.082031.171875-.121094.265625-.09375.179687-.175781.363281-.265625.542968-.316406.667969-.644531 1.324219-.976562 1.976563-.402344.800781-.816407 1.601563-1.234376 2.398437-.378906.703126-.757812 1.398438-1.140624 2.097657-.078126.132812-.152344.269531-.230469.40625-.414063.742187-.839844 1.476562-1.269531 2.210937-.386719.667969-.785157 1.332032-1.195313 1.988282-.363281.601562-.742187 1.199218-1.121094 1.796874-.042969.066407-.082031.136719-.128906.203126-.226563.363281-.460937.726562-.703125 1.089843-.316406.492188-.644531.976563-.976562 1.46875-.273438.410157-.550782.816407-.839844 1.226563-.652344.953125-1.316406 1.898437-2.011719 2.828125h-60.878906c2.113281-5.863281 3.816406-11.746094 5.109375-17.601563zm0 0" fill="#8fc9f7"/><path d="m343.277344 390.796875c.015625.78125.023437 1.558594.023437 2.339844 0 .894531-.007812 1.785156-.03125 2.679687v.082032c-.015625.800781-.042969 1.597656-.074219 2.398437-.007812.113281-.007812.234375-.015624.355469-.039063.796875-.078126 1.589844-.128907 2.386718-.007812.121094-.015625.242188-.023437.363282-.046875.664062-.089844 1.324218-.152344 1.988281-.023438.289063-.046875.570313-.066406.855469-.039063.425781-.078125.847656-.121094 1.269531-.046875.457031-.09375.917969-.144531 1.371094-.046875.460937-.097657.917969-.160157 1.371093-.039062.347657-.082031.6875-.128906 1.035157-.066406.570312-.144531 1.128906-.226562 1.6875-.007813.0625-.015625.128906-.03125.191406-.050782.394531-.105469.777344-.171875 1.171875-.015625.121094-.03125.234375-.054688.355469-.015625.113281-.039062.234375-.050781.347656-.0625.355469-.117188.71875-.175781 1.066406-.007813.007813-.007813.023438-.007813.03125-.054687.304688-.105468.613281-.160156.917969l-75.273438 13.886719c.804688-14.363281-.945312-28.265625-5.210937-41.066407l81.765625-7.4375c.015625.097657.023438.195313.03125.300782.035156.386718.074219.773437.105469 1.160156.007812.097656.023437.195312.027343.292969.039063.472656.085938.949219.113282 1.417969.023437.285156.046875.566406.0625.847656.039062.484375.066406.960937.089844 1.4375.007812.113281.015624.21875.023437.332031.039063.710937.078125 1.429687.097656 2.144531v.074219c.03125.777344.054688 1.558594.070313 2.34375zm0 0" fill="#0f9be8"/><path d="m337.675781 355.914062c1.445313 4.671876 2.605469 9.378907 3.480469 14.125l-86.328125 3.578126c-.007813-.023438-.023437-.039063-.03125-.058594l-10.875-20.6875 93.738281 2.984375c0 .023437.007813.039062.015625.058593zm0 0" fill="#8fc9f7"/><path d="m331.371094 333.65625c.152344.734375.3125 1.476562.480468 2.210938l-100.097656-12.554688c-1.742187-7.136719-2.742187-14.5625-3.007812-22.160156l99.953125 5.992187c0 1.113281.011719 2.226563.03125 3.332031.007812.402344.015625.800782.03125 1.195313v.136719c0 .074218.007812.152344.007812.226562.007813.128906.007813.25.015625.378906.035156.96875.082032 1.929688.136719 2.898438.007813.113281.011719.21875.019531.332031v.03125c.007813.066407.007813.136719.015625.203125.015625.234375.03125.46875.046875.703125s.027344.46875.050782.703125c.054687.789063.121093 1.570313.199218 2.355469.023438.257813.050782.515625.074219.773437.023437.257813.054687.507813.082031.761719.011719.113281.015625.222657.03125.335938s.023438.234375.039063.347656c.015625.105469.023437.21875.039062.324219.042969.355468.082031.71875.128907 1.074218.035156.355469.082031.71875.132812 1.074219.085938.675781.183594 1.339844.28125 2.007813.023438.167968.046875.332031.070312.492187.097657.621094.195313 1.238281.300782 1.851563.039062.226562.078125.449218.113281.675781.015625.082031.03125.171875.046875.257813.007812.035156.011719.074218.019531.113281.085938.5.175781.992187.265625 1.484375.023438.089844.039063.1875.054688.277344.136718.726562.28125 1.445312.4375 2.164062zm0 0" fill="#0f9be8"/><path d="m355.695312 216.054688-11.886718 29.753906-109.898438 15.164062c1.828125-6.402344 4.144532-12.804687 6.9375-19.160156l8.355469-19.003906zm0 0" fill="#8fc9f7"/><path d="m385.816406 140.644531c-19.125 38.085938-58.539062 64.234375-104.0625 64.234375-8.089844 0-15.988281-.828125-23.613281-2.410156l27.179687-61.824219zm0 0" fill="#0f9be8"/><path d="m140.246094 278.21875c0-.085938.003906-.167969.003906-.25 0-15.304688-12.40625-27.710938-27.710938-27.710938-3.632812 0-7.101562.707032-10.285156 1.980469-6.144531-11.007812-17.902344-18.457031-31.402344-18.457031-17.535156 0-32.128906 12.558594-35.300781 29.167969-.945312-.136719-1.914062-.210938-2.894531-.210938-9.535156 0-17.523438 6.601563-19.65625 15.480469zm0 0" fill="#fff"/><path d="m113.210938 278.21875c0-.046875.003906-.097656.003906-.144531 0-8.800781-7.136719-15.933594-15.9375-15.933594-2.089844 0-4.082032.40625-5.914063 1.136719-3.53125-6.328125-10.292969-10.613282-18.054687-10.613282-10.085938 0-18.476563 7.222657-20.300782 16.773438-.542968-.078125-1.097656-.121094-1.664062-.121094-5.480469 0-10.074219 3.796875-11.304688 8.902344zm0 0" fill="#d0f6ff"/><path d="m359.394531 394.941406c0-.0625-.007812-.125-.007812-.1875 0-11.601562 9.402343-21.003906 21.003906-21.003906 2.753906 0 5.382813.535156 7.792969 1.503906 4.660156-8.34375 13.570312-13.992187 23.804687-13.992187 13.289063 0 24.351563 9.519531 26.753907 22.109375.71875-.105469 1.449218-.160156 2.191406-.160156 7.226562 0 13.28125 5.003906 14.898437 11.730468zm0 0" fill="#fff"/><path d="m379.882812 394.941406c0-.035156 0-.070312 0-.109375 0-6.667969 5.40625-12.074219 12.074219-12.074219 1.585938 0 3.097657.304688 4.484375.859376 2.675782-4.796876 7.800782-8.042969 13.6875-8.042969 7.640625 0 14 5.472656 15.382813 12.710937.414062-.058594.835937-.089844 1.261719-.089844 4.15625 0 7.636718 2.875 8.566406 6.746094zm0 0" fill="#d0f6ff"/><path d="m295.339844 112.101562c0-.082031-.003906-.167968-.003906-.253906 0-15.585937 12.632812-28.21875 28.222656-28.21875 3.703125 0 7.234375.71875 10.472656 2.015625 6.257812-11.210937 18.234375-18.796875 31.988281-18.796875 17.859375 0 32.722657 12.789063 35.953125 29.707032.960938-.140626 1.945313-.214844 2.945313-.214844 9.710937 0 17.847656 6.722656 20.019531 15.765625h-129.597656zm0 0" fill="#fff"/><path d="m322.875 112.101562c0-.046874-.003906-.09375-.003906-.144531 0-8.964843 7.265625-16.226562 16.230468-16.226562 2.128907 0 4.160157.414062 6.023438 1.160156 3.597656-6.449219 10.484375-10.8125 18.390625-10.8125 10.269531 0 18.816406 7.355469 20.675781 17.082031.550782-.078125 1.117188-.121094 1.695313-.121094 5.582031 0 10.257812 3.863282 11.511719 9.066407h-74.523438zm0 0" fill="#d0f6ff"/><path d="m224.960938 114.132812c.003906-.070312.007812-.136718.007812-.203124 0-12.265626-9.945312-22.207032-22.210938-22.207032-2.914062 0-5.695312.566406-8.242187 1.585938-4.925781-8.824219-14.351563-14.792969-25.171875-14.792969-14.054688 0-25.75 10.0625-28.292969 23.378906-.757812-.109375-1.53125-.167969-2.320312-.167969-7.640625 0-14.042969 5.289063-15.753907 12.402344h101.984376zm0 0" fill="#fff"/><path d="m203.292969 114.132812c0-.039062.003906-.078124.003906-.117187 0-7.050781-5.71875-12.769531-12.773437-12.769531-1.675782 0-3.273438.324218-4.738282.910156-2.832031-5.070312-8.25-8.503906-14.472656-8.503906-8.082031 0-14.808594 5.785156-16.269531 13.441406-.4375-.0625-.882813-.097656-1.332031-.097656-4.394532 0-8.078126 3.042968-9.0625 7.136718zm0 0" fill="#d0f6ff"/><g fill="#fff"><path d="m149.996094 170.417969h-36.730469c-9.183594 0-16.652344-7.472657-16.652344-16.652344 0-9.183594 7.472657-16.652344 16.652344-16.652344 3.867187 0 7 3.132813 7 7 0 3.863281-3.132813 7-7 7-1.460937 0-2.652344 1.1875-2.652344 2.652344 0 1.460937 1.191407 2.652344 2.652344 2.652344h36.730469c3.863281 0 7 3.132812 7 7 0 3.867187-3.136719 7-7 7zm0 0"/><path d="m142 199.378906h-78.3125c-14.503906 0-26.304688-11.800781-26.304688-26.308594 0-14.503906 11.800782-26.304687 26.304688-26.304687 14.507812 0 26.308594 11.800781 26.308594 26.304687 0 3.867188-3.132813 7-7 7-3.867188 0-7-3.132812-7-7 0-6.785156-5.519532-12.304687-12.308594-12.304687-6.785156 0-12.304688 5.519531-12.304688 12.304687 0 6.785157 5.519532 12.308594 12.304688 12.308594h78.3125c3.867188 0 7 3.132813 7 7 0 3.863282-3.132812 7-7 7zm0 0"/><path d="m150.835938 356.648438h-35.023438c-9.183594 0-16.652344-7.472657-16.652344-16.65625 0-9.179688 7.472656-16.652344 16.652344-16.652344 3.867188 0 7 3.132812 7 7 0 3.867187-3.132812 7-7 7-1.460938 0-2.652344 1.191406-2.652344 2.652344 0 1.464843 1.191406 2.65625 2.652344 2.65625h35.023438c3.863281 0 7 3.132812 7 7 0 3.863281-3.136719 7-7 7zm0 0"/><path d="m133.296875 434.878906c-9.183594 0-16.652344-7.472656-16.652344-16.65625 0-9.179687 7.472657-16.652344 16.652344-16.652344h63.585937c3.867188 0 7 3.132813 7 7 0 3.867188-3.132812 7-7 7h-63.585937c-1.460937 0-2.652344 1.191407-2.652344 2.652344 0 1.464844 1.191407 2.65625 2.652344 2.65625 3.867187 0 7 3.132813 7 7 0 3.863282-3.132813 7-7 7zm0 0"/><path d="m167.519531 385.605469h-101.285156c-14.503906 0-26.304687-11.800781-26.304687-26.304688 0-14.503906 11.800781-26.308593 26.304687-26.308593 14.507813 0 26.308594 11.800781 26.308594 26.308593 0 3.863281-3.132813 7-7 7-3.867188 0-7-3.136719-7-7 0-6.785156-5.519531-12.308593-12.308594-12.308593-6.785156 0-12.304687 5.523437-12.304687 12.308593 0 6.785157 5.519531 12.304688 12.304687 12.304688h101.285156c3.867188 0 7 3.136719 7 7 0 3.867187-3.132812 7-7 7zm0 0"/><path d="m462.5 328.175781c-14.507812 0-26.308594-11.800781-26.308594-26.308593 0-3.863282 3.136719-7 7-7 3.867188 0 7 3.136718 7 7 0 6.785156 5.523438 12.308593 12.308594 12.308593s12.308594-5.523437 12.308594-12.308593c0-6.785157-5.523438-12.304688-12.308594-12.304688h-96.535156c-3.867188 0-7-3.136719-7-7 0-3.867188 3.132812-7 7-7h96.535156c14.507812 0 26.308594 11.800781 26.308594 26.304688 0 14.507812-11.800782 26.308593-26.308594 26.308593zm0 0"/><path d="m412.921875 337.792969c-3.863281 0-7-3.132813-7-7 0-3.867188 3.136719-7 7-7 1.464844 0 2.652344-1.191407 2.652344-2.652344 0-1.464844-1.1875-2.65625-2.652344-2.65625h-55.625c-3.863281 0-7-3.132813-7-7 0-3.863281 3.136719-7 7-7h55.625c9.183594 0 16.652344 7.472656 16.652344 16.65625 0 9.179687-7.46875 16.652344-16.652344 16.652344zm0 0"/><path d="m412.921875 226.152344h-26.730469c-3.867187 0-7-3.132813-7-7 0-3.867188 3.132813-7 7-7h26.730469c1.464844 0 2.652344-1.1875 2.652344-2.652344s-1.1875-2.652344-2.652344-2.652344c-3.863281 0-7-3.132812-7-7 0-3.867187 3.136719-7 7-7 9.183594 0 16.652344 7.46875 16.652344 16.652344s-7.46875 16.652344-16.652344 16.652344zm0 0"/><path d="m462.5 255.113281h-87.203125c-3.863281 0-7-3.132812-7-7 0-3.867187 3.136719-7 7-7h87.203125c6.785156 0 12.308594-5.519531 12.308594-12.304687 0-6.789063-5.523438-12.308594-12.308594-12.308594s-12.308594 5.519531-12.308594 12.308594c0 3.863281-3.132812 7-7 7-3.863281 0-7-3.136719-7-7 0-14.507813 11.800782-26.308594 26.308594-26.308594s26.308594 11.800781 26.308594 26.308594c0 14.503906-11.800782 26.304687-26.308594 26.304687zm0 0"/></g></svg>