<svg height="512pt" viewBox="0 0 512 512" width="512pt" xmlns="http://www.w3.org/2000/svg"><path d="m512 256c0 141.378906-114.621094 256-256 256s-256-114.621094-256-256c0-17.140625 1.679688-33.878906 4.898438-50.070312.8125-4.078126 1.710937-8.128907 2.722656-12.140626 27.789062-111.320312 128.457031-193.789062 248.378906-193.789062 141.378906 0 256 114.621094 256 256zm0 0" fill="#b5e237"/><path d="m512 256c0 26.050781-3.890625 51.191406-11.128906 74.871094-32.011719 104.847656-129.542969 181.128906-244.871094 181.128906-104.558594 0-194.488281-62.699219-234.230469-152.550781-14-31.628907-21.769531-66.628907-21.769531-103.449219 0-46.21875 12.25-89.570312 33.679688-127 44.121093 77.070312 127.160156 129 222.320312 129s178.210938-51.929688 222.320312-129c21.429688 37.429688 33.679688 80.78125 33.679688 127zm0 0" fill="#95d600"/><path d="m30.742188 377.703125c7.15625 13.21875 15.429687 25.738281 24.71875 37.425781 46.898437 59.019532 119.300781 96.871094 200.539062 96.871094s153.640625-37.851562 200.539062-96.871094c9.289063-11.6875 17.5625-24.207031 24.71875-37.425781zm0 0" fill="#85af12"/><path d="m385.820312 140.648438-30.121093 75.410156-11.890625 29.75-6.109375 15.292968c-5.898438 14.757813-8.910157 30.386719-9 46.046876-.050781 9.621093.992187 19.261718 3.152343 28.722656.707032 3.117187 1.546876 6.230468 2.5 9.308594l3.296876 10.660156c0 .011718 0 .011718.011718.019531 1.449219 4.679687 2.621094 9.421875 3.5 14.179687.648438 3.460938 1.148438 6.921876 1.5 10.402344 1.179688 11.609375.71875 23.25-1.28125 34.617188-1.808594 10.28125-4.910156 20.332031-9.21875 29.902344-3.558594 7.917968-7.980468 15.519531-13.210937 22.648437-1.25 1.71875-2.550781 3.402344-3.890625 5.0625l-11.828125 14.546875c-1.730469 2.132812-3.390625 4.320312-4.980469 6.550781-3.671875 5.171875-6.921875 10.582031-9.75 16.179688-10.640625 1.351562-21.488281 2.050781-32.5 2.050781-11.789062 0-23.390625-.800781-34.75-2.339844-.421875-4.160156-.628906-8.339844-.628906-12.539062 0-3.679688.167968-7.382813.480468-11.082032.339844-3.738281.839844-7.480468 1.507813-11.210937.429687-2.40625.789063-4.816406 1.082031-7.21875.597656-4.9375.898438-9.871094.910156-14.789063.019532-5.371093-.320312-10.730468-.980468-16.03125-1.949219-15.4375-6.742188-30.4375-14.191406-44.21875-3.070313-5.691406-6.601563-11.160156-10.550782-16.359374l-.199218-.261719-19.109376-25.128907-1.609374-2.121093c-8.039063-10.558594-14.261719-22.210938-18.570313-34.46875-2.019531-5.71875-3.609375-11.582031-4.78125-17.53125-1.578125-8.027344-2.378906-16.21875-2.378906-24.460938.007812-8.777343.941406-17.617187 2.828125-26.367187l3.722656-17.332032 18.910156-87.890624zm0 0" fill="#fff"/><path d="m337.648438 355.839844c12.480468 40.269531 4 84.109375-22.589844 116.832031l-11.828125 14.546875c-5.75 7.082031-10.679688 14.703125-14.71875 22.730469h-.011719c-10.640625 1.351562-21.488281 2.050781-32.5 2.050781-3.28125 0-6.550781-.058594-9.800781-.191406 1.289062-12.707032 4.53125-25.707032 9.730469-38.558594 14.210937-35.121094 13.789062-71.28125-1.128907-99.691406l-14.621093-27.796875c-15.558594-29.613281-15.308594-67.582031.671874-103.953125l44.46875-101.160156h100.5l-48.121093 120.453124c-10.71875 26.820313-11.898438 56.507813-3.347657 84.078126zm0 0" fill="#d0f6ff"/><path d="m355.695312 216.054688-11.886718 29.753906-109.898438 15.164062-81.675781 11.269532c.007813-8.785157.9375-17.625 2.820313-26.375l3.722656-17.332032 90.425781-5.726562zm0 0" fill="#d0f6ff"/><g fill="#8fc9f7"><path d="m385.816406 140.644531c-19.125 38.085938-58.539062 64.234375-104.0625 64.234375-8.089844 0-15.988281-.828125-23.613281-2.410156-35.28125-7.265625-64.722656-30.503906-80.457031-61.824219zm0 0"/><path d="m331.847656 335.867188-100.09375-12.554688-72.367187-9.082031c-2.015625-5.722657-3.613281-11.578125-4.777344-17.527344l74.136719 4.449219 99.953125 5.992187c0 1.113281.007812 2.226563.03125 3.332031.007812.402344.015625.800782.03125 1.195313v.136719c0 .074218.007812.152344.007812.226562.007813.128906.007813.25.011719.378906.039062.96875.085938 1.929688.136719 2.898438.007812.113281.015625.21875.023437.332031v.03125c.007813.066407.007813.136719.015625.203125.015625.234375.03125.46875.046875.703125.011719.234375.027344.46875.050782.703125.054687.789063.121093 1.570313.199218 2.355469.019532.257813.050782.515625.074219.773437.023437.257813.054687.507813.082031.761719.007813.113281.015625.222657.03125.335938s.023438.234375.039063.347656c.011719.105469.023437.21875.035156.324219.046875.355468.085937.71875.128906 1.074218.039063.355469.085938.71875.136719 1.074219.082031.675781.183594 1.339844.28125 2.007813.023438.167968.042969.332031.066406.492187.097656.621094.199219 1.238281.304688 1.851563.039062.226562.074218.449218.113281.675781.015625.082031.027344.171875.042969.257813.007812.035156.015625.074218.023437.113281.082031.5.175781.992187.265625 1.484375.023438.089844.039063.1875.054688.277344.132812.726562.277344 1.445312.4375 2.164062.152344.734375.3125 1.476562.476562 2.210938zm0 0"/><path d="m343.300781 393.136719c0 .890625-.007812 1.785156-.03125 2.679687v.082032c-.015625.800781-.042969 1.597656-.074219 2.398437-.007812.113281-.007812.234375-.015624.355469-.039063.796875-.078126 1.589844-.128907 2.382812-.007812.121094-.015625.242188-.023437.363282-.046875.667968-.089844 1.324218-.152344 1.992187-.023438.289063-.046875.566406-.066406.855469-.039063.421875-.078125.847656-.121094 1.269531-.046875.453125-.09375.917969-.144531 1.371094-.046875.460937-.097657.914062-.160157 1.371093-.039062.347657-.082031.6875-.128906 1.035157-.066406.566406-.144531 1.128906-.226562 1.6875-.007813.0625-.015625.128906-.03125.191406-.050782.390625-.105469.777344-.171875 1.171875-.015625.121094-.03125.234375-.054688.355469-.015625.113281-.039062.234375-.050781.347656-.0625.355469-.117188.71875-.175781 1.066406-.007813.007813-.007813.023438-.007813.03125-.054687.300781-.105468.613281-.160156.914063l-75.273438 13.890625-42.488281 7.839843c-1.941406-15.4375-6.734375-30.4375-14.1875-44.222656l51.464844-4.683594 81.765625-7.4375c.015625.097657.023438.195313.03125.300782.035156.386718.074219.773437.105469 1.160156.007812.097656.023437.195312.027343.292969.039063.46875.085938.945312.113282 1.414062.023437.289063.046875.570313.0625.851563.039062.480468.066406.960937.089844 1.4375.007812.113281.015624.21875.023437.332031.039063.710937.078125 1.429687.097656 2.140625v.078125c.03125.777344.054688 1.558594.070313 2.34375.015625.78125.023437 1.558594.023437 2.339844zm0 0"/><path d="m298.25 493.769531c-.398438.558594-.789062 1.121094-1.171875 1.691407-.316406.460937-.628906.929687-.9375 1.398437-.152344.199219-.28125.410156-.421875.628906-.296875.460938-.609375.921875-.898438 1.390625-.371093.570313-.742187 1.152344-1.089843 1.730469-.359375.582031-.710938 1.171875-1.058594 1.75-.363281.589844-.703125 1.179687-1.03125 1.769531-.269531.460938-.519531.910156-.769531 1.359375-.011719.023438-.019532.03125-.03125.050781-.351563.632813-.699219 1.269532-1.039063 1.910157-.359375.679687-.730469 1.371093-1.070312 2.0625-.070313.148437-.152344.289062-.21875.4375h-.011719c-10.640625 1.351562-21.488281 2.050781-32.5 2.050781-3.28125 0-6.550781-.058594-9.800781-.191406h-.007813c-8.429687-.308594-16.742187-1.039063-24.941406-2.148438-.421875-4.160156-.628906-8.339844-.628906-12.539062 0-3.679688.167968-7.382813.480468-11.082032l29.449219 2.949219zm0 0"/></g><path d="m332.160156 444.964844c-.0625.140625-.128906.277344-.1875.421875-.046875.089843-.085937.1875-.128906.28125-.015625.035156-.039062.082031-.054688.121093-.203124.445313-.417968.875-.621093 1.316407-.039063.089843-.082031.171875-.121094.265625-.089844.179687-.175781.363281-.265625.542968-.316406.667969-.640625 1.324219-.976562 1.976563-.398438.800781-.816407 1.601563-1.234376 2.398437-.375.703126-.753906 1.398438-1.140624 2.097657-.078126.132812-.152344.269531-.226563.40625-.417969.742187-.839844 1.476562-1.273437 2.210937-.382813.667969-.785157 1.332032-1.195313 1.988282-.363281.601562-.742187 1.199218-1.121094 1.796874-.042969.066407-.082031.136719-.128906.203126-.226563.363281-.460937.726562-.703125 1.089843-.316406.492188-.640625.976563-.976562 1.46875-.273438.410157-.550782.816407-.839844 1.226563-.648438.953125-1.316406 1.898437-2.011719 2.828125h-95.261719l.910156-14.785157 38.582032-2.816406zm0 0" fill="#d0f6ff"/><path d="m341.15625 370.039062-86.328125 3.578126-56.148437 2.332031-19.109376-25.125 64.351563 2.050781 93.738281 2.980469c0 .023437.011719.039062.015625.058593zm0 0" fill="#d0f6ff"/><path d="m298.25 493.769531c-.398438.558594-.789062 1.121094-1.171875 1.691407-.316406.460937-.628906.929687-.9375 1.398437-.152344.199219-.28125.410156-.421875.628906-.308594.460938-.609375.921875-.898438 1.390625-.378906.570313-.742187 1.152344-1.089843 1.730469-.359375.582031-.710938 1.171875-1.058594 1.75-.363281.589844-.703125 1.179687-1.03125 1.769531-.269531.460938-.519531.910156-.769531 1.359375-.011719.023438-.019532.03125-.03125.050781-.351563.632813-.699219 1.269532-1.039063 1.910157-.359375.679687-.730469 1.371093-1.070312 2.0625-.070313.148437-.152344.289062-.21875.4375h-.011719c-10.640625 1.351562-21.488281 2.050781-32.5 2.050781-3.28125 0-6.550781-.058594-9.800781-.191406h-.007813c.769532-7.539063 2.230469-15.167969 4.359375-22.820313zm0 0" fill="#0f9be8"/><path d="m263.183594 450.003906 68.976562-5.039062c-.0625.140625-.128906.277344-.191406.421875-.042969.089843-.082031.1875-.128906.28125-.015625.035156-.035156.082031-.050782.121093-.203124.445313-.417968.875-.621093 1.316407-.039063.089843-.082031.171875-.121094.265625-.09375.179687-.175781.363281-.265625.542968-.316406.667969-.644531 1.324219-.976562 1.976563-.402344.800781-.816407 1.601563-1.234376 2.398437-.378906.703126-.757812 1.398438-1.140624 2.097657-.078126.132812-.152344.269531-.230469.40625-.414063.742187-.839844 1.476562-1.269531 2.210937-.386719.667969-.785157 1.332032-1.195313 1.988282-.363281.601562-.742187 1.199218-1.121094 1.796874-.042969.066407-.082031.136719-.128906.203126-.226563.363281-.460937.726562-.703125 1.089843-.316406.492188-.644531.976563-.976562 1.46875-.273438.410157-.550782.816407-.839844 1.226563-.652344.953125-1.316406 1.898437-2.011719 2.828125h-60.878906c2.113281-5.863281 3.816406-11.746094 5.109375-17.601563zm0 0" fill="#8fc9f7"/><path d="m343.277344 390.796875c.015625.78125.023437 1.558594.023437 2.339844 0 .894531-.007812 1.785156-.03125 2.679687v.082032c-.015625.800781-.042969 1.597656-.074219 2.398437-.007812.113281-.007812.234375-.015624.355469-.039063.796875-.078126 1.589844-.128907 2.386718-.007812.121094-.015625.242188-.023437.363282-.046875.664062-.089844 1.324218-.152344 1.988281-.023438.289063-.046875.570313-.066406.855469-.039063.425781-.078125.847656-.121094 1.269531-.046875.457031-.09375.917969-.144531 1.371094-.046875.460937-.097657.917969-.160157 1.371093-.039062.347657-.082031.6875-.128906 1.035157-.066406.570312-.144531 1.128906-.226562 1.6875-.007813.0625-.015625.128906-.03125.191406-.050782.394531-.105469.777344-.171875 1.171875-.015625.121094-.03125.234375-.054688.355469-.015625.113281-.039062.234375-.050781.347656-.0625.355469-.117188.71875-.175781 1.066406-.007813.007813-.007813.023438-.007813.03125-.054687.304688-.105468.613281-.160156.917969l-75.273438 13.886719c.804688-14.363281-.945312-28.265625-5.210937-41.066407l81.765625-7.4375c.015625.097657.023438.195313.03125.300782.035156.386718.074219.773437.105469 1.160156.007812.097656.023437.195312.027343.292969.039063.472656.085938.949219.113282 1.417969.023437.285156.046875.566406.0625.847656.039062.484375.066406.960937.089844 1.4375.007812.113281.015624.21875.023437.332031.039063.710937.078125 1.429687.097656 2.144531v.074219c.03125.777344.054688 1.558594.070313 2.34375zm0 0" fill="#0f9be8"/><path d="m337.675781 355.914062c1.445313 4.671876 2.605469 9.378907 3.480469 14.125l-86.328125 3.578126c-.007813-.023438-.023437-.039063-.03125-.058594l-10.875-20.6875 93.738281 2.984375c0 .023437.007813.039062.015625.058593zm0 0" fill="#8fc9f7"/><path d="m331.371094 333.65625c.152344.734375.3125 1.476562.480468 2.210938l-100.097656-12.554688c-1.742187-7.136719-2.742187-14.5625-3.007812-22.160156l99.953125 5.992187c0 1.113281.011719 2.226563.03125 3.332031.007812.402344.015625.800782.03125 1.195313v.136719c0 .074218.007812.152344.007812.226562.007813.128906.007813.25.015625.378906.035156.96875.082032 1.929688.136719 2.898438.007813.113281.011719.21875.019531.332031v.03125c.007813.066407.007813.136719.015625.203125.015625.234375.03125.46875.046875.703125s.027344.46875.050782.703125c.054687.789063.121093 1.570313.199218 2.355469.023438.257813.050782.515625.074219.773437.023437.257813.054687.507813.082031.761719.011719.113281.015625.222657.03125.335938s.023438.234375.039063.347656c.015625.105469.023437.21875.039062.324219.042969.355468.082031.71875.128907 1.074218.035156.355469.082031.71875.132812 1.074219.085938.675781.183594 1.339844.28125 2.007813.023438.167968.046875.332031.070312.492187.097657.621094.195313 1.238281.300782 1.851563.039062.226562.078125.449218.113281.675781.015625.082031.03125.171875.046875.257813.007812.035156.011719.074218.019531.113281.085938.5.175781.992187.265625 1.484375.023438.089844.039063.1875.054688.277344.136718.726562.28125 1.445312.4375 2.164062zm0 0" fill="#0f9be8"/><path d="m355.695312 216.054688-11.886718 29.753906-109.898438 15.164062c1.828125-6.402344 4.144532-12.804687 6.9375-19.160156l8.355469-19.003906zm0 0" fill="#8fc9f7"/><path d="m385.816406 140.644531c-19.125 38.085938-58.539062 64.234375-104.0625 64.234375-8.089844 0-15.988281-.828125-23.613281-2.410156l27.179687-61.824219zm0 0" fill="#0f9be8"/><path d="m142.28125 205.648438c0 .101562-.011719.191406-.011719.28125h-137.371093c.8125-4.078126 1.710937-8.128907 2.722656-12.140626 3.898437-3.230468 8.898437-5.160156 14.359375-5.160156 1.097656 0 2.179687.082032 3.230469.230469 3.550781-18.570313 19.867187-32.609375 39.46875-32.609375 15.101562 0 28.242187 8.328125 35.109374 20.628906 3.5625-1.417968 7.441407-2.207031 11.5-2.207031 17.109376 0 30.992188 13.867187 30.992188 30.976563zm0 0" fill="#fff"/><path d="m112.039062 205.929688c0-.050782.003907-.105469.003907-.160157 0-9.839843-7.976563-17.816406-17.816407-17.816406-2.335937 0-4.566406.457031-6.613281 1.273437-3.949219-7.074218-11.507812-11.863281-20.1875-11.863281-11.273437 0-20.65625 8.070313-22.695312 18.75-.609375-.085937-1.230469-.132812-1.863281-.132812-6.128907 0-11.261719 4.242187-12.636719 9.949219zm0 0" fill="#d0f6ff"/><path d="m389.394531 204.019531c0-.0625-.007812-.125-.007812-.1875 0-11.601562 9.402343-21.003906 21.003906-21.003906 2.753906 0 5.382813.535156 7.792969 1.5 4.660156-8.339844 13.570312-13.988281 23.804687-13.988281 13.289063 0 24.351563 9.519531 26.753907 22.109375.71875-.105469 1.449218-.160157 2.191406-.160157 7.226562 0 13.28125 5 14.898437 11.730469zm0 0" fill="#fff"/><path d="m409.882812 204.019531c0-.035156 0-.070312 0-.109375 0-6.667968 5.40625-12.074218 12.074219-12.074218 1.585938 0 3.097657.304687 4.484375.859374 2.675782-4.796874 7.800782-8.042968 13.6875-8.042968 7.640625 0 14 5.472656 15.382813 12.710937.414062-.058593.835937-.089843 1.261719-.089843 4.15625 0 7.636718 2.875 8.566406 6.746093zm0 0" fill="#d0f6ff"/><path d="m425.441406 64.101562h-121.792968v-.25c0-15.589843 12.632812-28.222656 28.222656-28.222656 3.699218 0 7.230468.722656 10.46875 2.011719 3.890625-6.96875 10-12.539063 17.371094-15.75 24.097656 10.679687 46.238281 24.988281 65.730468 42.210937zm0 0" fill="#fff"/><path d="m331.1875 64.101562c0-.046874-.003906-.09375-.003906-.144531 0-8.964843 7.265625-16.226562 16.226562-16.226562 2.128906 0 4.164063.414062 6.027344 1.160156 3.597656-6.449219 10.484375-10.8125 18.390625-10.8125 10.269531 0 18.816406 7.355469 20.675781 17.082031.550782-.078125 1.117188-.121094 1.691406-.121094 5.585938 0 10.261719 3.863282 11.515626 9.066407h-74.523438zm0 0" fill="#d0f6ff"/><path d="m224.960938 87.257812c.003906-.066406.007812-.132812.007812-.199218 0-12.265625-9.945312-22.210938-22.210938-22.210938-2.914062 0-5.695312.566406-8.242187 1.589844-4.925781-8.824219-14.351563-14.792969-25.171875-14.792969-14.054688 0-25.75 10.0625-28.292969 23.375-.757812-.109375-1.53125-.167969-2.320312-.167969-7.640625 0-14.042969 5.289063-15.753907 12.40625zm0 0" fill="#fff"/><path d="m203.292969 87.257812c0-.039062.003906-.074218.003906-.113281 0-7.054687-5.71875-12.773437-12.773437-12.773437-1.675782 0-3.273438.328125-4.738282.914062-2.832031-5.074218-8.25-8.507812-14.472656-8.507812-8.082031 0-14.808594 5.789062-16.269531 13.445312-.4375-.0625-.882813-.097656-1.332031-.097656-4.394532 0-8.078126 3.042969-9.0625 7.132812zm0 0" fill="#d0f6ff"/><path d="m47.933594 248.617188c-3.003906-.027344-5.710938-1.277344-7.660156-3.265626-1.976563-2.011718-3.171876-4.792968-3.109376-7.84375.125-6.011718 5.277344-10.710937 11.289063-10.648437l10.5625.105469c.007813 0 .019531.007812.019531.019531l-.109375 10.863281c-.058593 6.007813-4.980469 10.832032-10.992187 10.769532zm0 0" fill="#fff"/><path d="m47.933594 248.617188c-2.996094-.027344-5.699219-1.269532-7.648438-3.25-.007812-.007813-.007812-.023438 0-.03125l18.714844-18.335938c.011719-.011719.035156-.003906.035156.015625l-.109375 10.832031c-.058593 6.007813-4.980469 10.832032-10.992187 10.769532zm0 0" fill="#d0f6ff"/><path d="m34.34375 324.292969c-3.003906-.03125-5.714844-1.277344-7.664062-3.265625-2.105469-2.148438-3.328126-5.167969-3.078126-8.460938.4375-5.777344 5.550782-10.089844 11.34375-10.03125l10.425782.105469c.039062 0 .070312.03125.070312.074219l-.105468 10.808594c-.0625 6.007812-4.984376 10.828124-10.992188 10.769531zm0 0" fill="#fff"/><path d="m34.34375 324.292969c-2.980469-.03125-5.664062-1.253907-7.613281-3.214844-.027344-.027344-.027344-.074219.003906-.105469l18.582031-18.210937c.046875-.042969.125-.011719.125.050781l-.105468 10.707031c-.0625 6.011719-4.984376 10.832031-10.992188 10.773438zm0 0" fill="#d0f6ff"/><path d="m415.863281 282.101562c-3.003906-.027343-5.714843-1.277343-7.664062-3.265624-2.105469-2.148438-3.328125-5.164063-3.078125-8.457032.4375-5.78125 5.550781-10.09375 11.34375-10.035156l10.425781.105469c.039063 0 .070313.035156.070313.074219l-.105469 10.808593c-.0625 6.007813-4.984375 10.832031-10.992188 10.769531zm0 0" fill="#fff"/><path d="m415.863281 282.101562c-2.980469-.027343-5.664062-1.253906-7.609375-3.210937-.03125-.03125-.03125-.078125 0-.105469l18.585938-18.210937c.042968-.046875.121094-.011719.121094.050781l-.105469 10.707031c-.0625 6.007813-4.984375 10.832031-10.992188 10.769531zm0 0" fill="#d0f6ff"/><path d="m478.292969 235.164062-10.421875-.105468c-5.796875-.0625-10.90625 4.253906-11.34375 10.03125-.25 3.292968.96875 6.3125 3.074218 8.460937 1.953126 1.988281 4.660157 3.234375 7.664063 3.265625 6.007813.058594 10.929687-4.761718 10.992187-10.773437l.109376-10.808594c0-.039063-.03125-.070313-.074219-.070313zm0 0" fill="#fff"/><path d="m467.265625 256.816406c-2.976563-.03125-5.664063-1.253906-7.609375-3.210937-.027344-.03125-.027344-.078125 0-.109375l18.585938-18.210938c.046874-.042968.125-.011718.121093.054688l-.105469 10.707031c-.0625 6.007813-4.984374 10.832031-10.992187 10.769531zm0 0" fill="#d0f6ff"/><path d="m403.46875 343.683594c-3.003906-.03125-5.710938-1.277344-7.660156-3.269532-2.105469-2.144531-3.328125-5.164062-3.078125-8.457031.4375-5.777343 5.546875-10.09375 11.34375-10.035156l10.421875.105469c.042968 0 .074218.035156.074218.074218l-.109374 10.808594c-.058594 6.011719-4.980469 10.832032-10.992188 10.773438zm0 0" fill="#fff"/><path d="m403.46875 343.683594c-2.976562-.03125-5.664062-1.253906-7.609375-3.214844-.027344-.027344-.027344-.078125 0-.105469l18.585937-18.210937c.046876-.046875.125-.011719.125.050781l-.109374 10.707031c-.058594 6.011719-4.980469 10.832032-10.992188 10.773438zm0 0" fill="#d0f6ff"/><path d="m467.265625 308.476562c-3.003906-.027343-5.710937-1.277343-7.664063-3.265624-2.105468-2.148438-3.324218-5.164063-3.074218-8.457032.4375-5.78125 5.546875-10.09375 11.34375-10.035156l10.421875.105469c.039062 0 .070312.035156.070312.074219l-.105469 10.808593c-.0625 6.007813-4.984374 10.832031-10.992187 10.769531zm0 0" fill="#fff"/><path d="m467.265625 308.476562c-2.976563-.027343-5.664063-1.253906-7.609375-3.210937-.027344-.03125-.027344-.078125 0-.105469l18.585938-18.210937c.046874-.046875.125-.011719.121093.050781l-.105469 10.707031c-.0625 6.007813-4.984374 10.832031-10.992187 10.769531zm0 0" fill="#d0f6ff"/><path d="m376.078125 250c-3.003906-.027344-5.710937-1.277344-7.664063-3.265625-2.101562-2.148437-3.324218-5.167969-3.074218-8.457031.4375-5.78125 5.546875-10.09375 11.34375-10.035156l10.421875.105468c.042969 0 .074219.035156.074219.074219l-.109376 10.808594c-.058593 6.007812-4.980468 10.832031-10.992187 10.769531zm0 0" fill="#fff"/><path d="m376.078125 250c-2.976563-.027344-5.664063-1.253906-7.609375-3.210938-.027344-.03125-.027344-.078124 0-.105468l18.585938-18.210938c.046874-.046875.125-.011718.125.050782l-.109376 10.707031c-.058593 6.007812-4.980468 10.832031-10.992187 10.769531zm0 0" fill="#d0f6ff"/><path d="m88.71875 284.148438c-3.003906-.03125-5.710938-1.277344-7.660156-3.265626-1.976563-2.015624-3.171875-4.792968-3.109375-7.847656.125-6.011718 5.277343-10.707031 11.289062-10.648437l10.5625.109375c.007813 0 .019531.007812.019531.019531l-.109374 10.863281c-.058594 6.007813-4.980469 10.832032-10.992188 10.769532zm0 0" fill="#fff"/><path d="m88.71875 284.148438c-2.996094-.03125-5.699219-1.269532-7.648438-3.25-.007812-.007813-.007812-.023438 0-.03125l18.714844-18.335938c.011719-.015625.035156-.003906.035156.015625l-.109374 10.832031c-.058594 6.007813-4.980469 10.832032-10.992188 10.769532zm0 0" fill="#d0f6ff"/><path d="m130.390625 334.15625c-3.003906-.027344-5.714844-1.273438-7.664063-3.265625-1.972656-2.011719-3.171874-4.792969-3.109374-7.84375.125-6.011719 5.277343-10.710937 11.292968-10.648437l10.558594.105468c.011719 0 .019531.011719.019531.023438l-.109375 10.859375c-.058594 6.007812-4.980468 10.832031-10.988281 10.769531zm0 0" fill="#fff"/><path d="m130.390625 334.15625c-3-.027344-5.699219-1.269531-7.648437-3.25-.007813-.007812-.007813-.019531 0-.027344l18.710937-18.339844c.015625-.011718.035156-.003906.035156.015626l-.105469 10.832031c-.0625 6.007812-4.984374 10.832031-10.992187 10.769531zm0 0" fill="#d0f6ff"/><path d="m119.65625 245.792969c-3.003906-.027344-5.714844-1.277344-7.664062-3.265625-1.972657-2.011719-3.167969-4.792969-3.105469-7.84375.125-6.011719 5.277343-10.710938 11.289062-10.648438l10.558594.105469c.011719 0 .019531.007813.019531.019531l-.105468 10.863282c-.0625 6.007812-4.984376 10.832031-10.992188 10.769531zm0 0" fill="#fff"/><path d="m119.65625 245.792969c-2.996094-.027344-5.699219-1.269531-7.648438-3.25-.007812-.007813-.007812-.023438 0-.03125l18.714844-18.335938c.011719-.011719.035156-.003906.035156.015625l-.109374 10.832032c-.0625 6.007812-4.984376 10.832031-10.992188 10.769531zm0 0" fill="#d0f6ff"/><path d="m146.675781 139.769531c-3.003906-.027343-5.714843-1.277343-7.664062-3.265625-1.972657-2.011718-3.167969-4.792968-3.105469-7.84375.125-6.011718 5.277344-10.710937 11.289062-10.648437l10.558594.105469c.011719 0 .019532.011718.019532.023437l-.105469 10.859375c-.0625 6.007812-4.984375 10.832031-10.992188 10.769531zm0 0" fill="#fff"/><path d="m146.675781 139.769531c-2.996093-.027343-5.699219-1.269531-7.648437-3.25-.007813-.007812-.007813-.023437 0-.03125l18.710937-18.335937c.015625-.011719.035157-.003906.035157.015625l-.105469 10.832031c-.0625 6.007812-4.984375 10.832031-10.992188 10.769531zm0 0" fill="#d0f6ff"/><path d="m417.136719 131.917969c-3.003907-.027344-5.714844-1.277344-7.664063-3.265625-1.972656-2.011719-3.167968-4.792969-3.105468-7.84375.125-6.011719 5.277343-10.710938 11.289062-10.648438l10.558594.105469c.011718 0 .019531.007813.019531.019531l-.105469 10.863282c-.0625 6.007812-4.984375 10.832031-10.992187 10.769531zm0 0" fill="#fff"/><path d="m417.136719 131.917969c-2.996094-.027344-5.699219-1.269531-7.648438-3.25-.007812-.007813-.007812-.023438 0-.03125l18.710938-18.335938c.015625-.011719.035156-.003906.035156.015625l-.105469 10.832032c-.0625 6.007812-4.984375 10.832031-10.992187 10.769531zm0 0" fill="#d0f6ff"/><path d="m368.28125 105.070312c-3.003906-.03125-5.710938-1.277343-7.660156-3.265624-1.976563-2.015626-3.171875-4.792969-3.109375-7.84375.125-6.015626 5.277343-10.710938 11.292969-10.652344l10.558593.109375c.007813 0 .019531.007812.019531.019531l-.109374 10.863281c-.058594 6.007813-4.980469 10.832031-10.992188 10.769531zm0 0" fill="#fff"/><path d="m368.28125 105.070312c-2.996094-.03125-5.695312-1.269531-7.644531-3.25-.007813-.007812-.007813-.023437 0-.03125l18.710937-18.335937c.011719-.015625.035156-.003906.035156.015625l-.109374 10.832031c-.058594 6.007813-4.980469 10.832031-10.992188 10.769531zm0 0" fill="#d0f6ff"/><path d="m307.089844 120.644531c-3.003906-.027343-5.714844-1.277343-7.664063-3.265625-1.976562-2.011718-3.171875-4.792968-3.109375-7.84375.125-6.011718 5.277344-10.710937 11.292969-10.648437l10.558594.105469c.011719 0 .019531.011718.019531.023437l-.109375 10.859375c-.058594 6.007812-4.980469 10.832031-10.988281 10.769531zm0 0" fill="#fff"/><path d="m307.089844 120.644531c-3-.027343-5.699219-1.269531-7.648438-3.25-.007812-.007812-.007812-.023437 0-.03125l18.710938-18.335937c.011718-.011719.035156-.003906.035156.015625l-.109375 10.832031c-.058594 6.007812-4.980469 10.832031-10.988281 10.769531zm0 0" fill="#d0f6ff"/></svg>