<svg height="512pt" viewBox="0 0 512 512" width="512pt" xmlns="http://www.w3.org/2000/svg"><path d="m512 256c0 141.386719-114.613281 256-256 256s-256-114.613281-256-256 114.613281-256 256-256 256 114.613281 256 256zm0 0" fill="#65b2ff"/><path d="m512 256c0 26.050781-3.890625 51.191406-11.128906 74.871094-32.011719 104.847656-129.542969 181.128906-244.871094 181.128906-104.558594 0-194.488281-62.699219-234.230469-152.550781-14-31.628907-21.769531-66.628907-21.769531-103.449219 0-46.21875 12.25-89.570312 33.679688-127 44.121093 77.070312 127.160156 129 222.320312 129s178.210938-51.929688 222.320312-129c21.429688 37.429688 33.679688 80.78125 33.679688 127zm0 0" fill="#0f9be8"/><path d="m30.742188 377.703125c7.15625 13.21875 15.429687 25.738281 24.71875 37.425781 46.898437 59.019532 119.300781 96.871094 200.539062 96.871094s153.640625-37.851562 200.539062-96.871094c9.289063-11.6875 17.5625-24.207031 24.71875-37.425781zm0 0" fill="#0066e8"/><path d="m51.644531 271.738281c-.003906-.269531-.023437-.535156-.023437-.804687 0-49.15625 39.855468-89.007813 89.011718-89.007813 11.679688 0 22.820313 2.269531 33.039063 6.359375 19.738281-35.359375 57.503906-59.285156 100.878906-59.285156 56.324219 0 103.203125 40.335938 113.390625 93.691406 3.039063-.433594 6.140625-.671875 9.296875-.671875 30.621094 0 56.28125 21.199219 63.136719 49.714844h-408.730469zm0 0" fill="#fff"/><path d="m138.488281 271.738281c0-.15625-.007812-.308593-.007812-.460937 0-28.269532 22.914062-51.183594 51.179687-51.183594 6.71875 0 13.125 1.304688 19 3.65625 11.351563-20.332031 33.066406-34.089844 58.007813-34.089844 32.386719 0 59.34375 23.195313 65.203125 53.875 1.746094-.25 3.527344-.386718 5.34375-.386718 17.609375 0 32.363281 12.191406 36.304687 28.589843zm0 0" fill="#d0f6ff"/><path d="m155.214844 357.832031c-5.296875 5.191407-12.195313 7.742188-19.070313 7.671875-6.957031-.070312-13.890625-2.832031-19.105469-8.269531-10.269531-10.707031-9.480468-27.890625 1.117188-38.273437l18.609375-18.238282c.019531-.019531.054687-.019531.074219.003906l18.757812 19.136719c10.378906 10.589844 10.207032 27.59375-.382812 37.96875zm0 0" fill="#fff"/><path d="m155.214844 357.832031c-5.28125 5.175781-12.160156 7.726563-19.015625 7.671875-.027344 0-.054688-.023437-.050781-.050781l.65625-64.640625c0-.046875.054687-.070312.085937-.035156l18.710937 19.085937c10.375 10.589844 10.203126 27.59375-.386718 37.96875zm0 0" fill="#d0f6ff"/><path d="m234.949219 358.640625c-5.292969 5.191406-12.195313 7.742187-19.066407 7.671875-6.957031-.070312-13.894531-2.832031-19.109374-8.265625-10.269532-10.710937-9.476563-27.894531 1.121093-38.277344l18.609375-18.238281c.019532-.019531.050782-.015625.070313.003906l18.761719 19.136719c10.378906 10.589844 10.203124 27.59375-.386719 37.96875zm0 0" fill="#fff"/><path d="m234.949219 358.640625c-5.28125 5.175781-12.160157 7.726563-19.015625 7.671875-.027344 0-.050782-.023438-.050782-.050781l.65625-64.640625c0-.046875.054688-.066406.085938-.035156l18.710938 19.085937c10.378906 10.589844 10.203124 27.59375-.386719 37.96875zm0 0" fill="#d0f6ff"/><path d="m314.6875 359.449219c-5.296875 5.191406-12.195312 7.742187-19.070312 7.671875-6.957032-.070313-13.894532-2.832032-19.105469-8.269532-10.273438-10.707031-9.480469-27.890624 1.117187-38.277343l18.609375-18.234375c.019531-.019532.050781-.019532.070313.003906l18.761718 19.136719c10.378907 10.589843 10.207032 27.59375-.382812 37.96875zm0 0" fill="#fff"/><path d="m314.6875 359.449219c-5.285156 5.175781-12.160156 7.726562-19.015625 7.671875-.03125 0-.054687-.023438-.054687-.050782l.65625-64.640624c0-.046876.054687-.070313.085937-.035157l18.710937 19.085938c10.378907 10.589843 10.207032 27.59375-.382812 37.96875zm0 0" fill="#d0f6ff"/><path d="m394.421875 360.257812c-5.292969 5.191407-12.195313 7.742188-19.066406 7.671876-6.957031-.070313-13.894531-2.832032-19.109375-8.269532-10.269532-10.707031-9.476563-27.890625 1.121094-38.273437l18.609374-18.238281c.019532-.019532.050782-.015626.070313.003906l18.761719 19.136718c10.375 10.589844 10.203125 27.59375-.386719 37.96875zm0 0" fill="#fff"/><path d="m394.421875 360.257812c-5.28125 5.175782-12.160156 7.726563-19.015625 7.671876-.027344 0-.050781-.023438-.050781-.050782l.65625-64.640625c0-.046875.054687-.066406.085937-.035156l18.710938 19.085937c10.375 10.589844 10.203125 27.59375-.386719 37.96875zm0 0" fill="#d0f6ff"/><path d="m194.164062 448.519531c-5.292968 5.1875-12.191406 7.738281-19.066406 7.667969-6.957031-.070312-13.894531-2.832031-19.105468-8.265625-10.273438-10.710937-9.480469-27.894531 1.117187-38.277344l18.609375-18.234375c.019531-.019531.050781-.019531.070312 0l18.761719 19.136719c10.378907 10.589844 10.207031 27.59375-.386719 37.972656zm0 0" fill="#fff"/><path d="m194.164062 448.519531c-5.28125 5.175781-12.15625 7.726563-19.015624 7.667969-.027344 0-.050782-.023438-.050782-.050781l.65625-64.640625c0-.046875.054688-.066406.085938-.035156l18.710937 19.085937c10.378907 10.589844 10.207031 27.59375-.386719 37.972656zm0 0" fill="#d0f6ff"/><path d="m273.902344 449.328125c-5.296875 5.1875-12.195313 7.738281-19.066406 7.667969-6.957032-.070313-13.894532-2.832032-19.109376-8.265625-10.269531-10.710938-9.480468-27.890625 1.121094-38.277344l18.605469-18.234375c.023437-.019531.054687-.019531.074219 0l18.757812 19.136719c10.378906 10.589843 10.207032 27.59375-.382812 37.972656zm0 0" fill="#fff"/><path d="m273.902344 449.328125c-5.28125 5.175781-12.160156 7.726563-19.015625 7.667969-.027344 0-.050781-.023438-.050781-.050782l.65625-64.640624c0-.042969.054687-.066407.085937-.035157l18.710937 19.085938c10.375 10.589843 10.203126 27.59375-.386718 37.972656zm0 0" fill="#d0f6ff"/><path d="m353.640625 450.136719c-5.296875 5.1875-12.195313 7.738281-19.070313 7.667969-6.957031-.070313-13.894531-2.832032-19.105468-8.265626-10.273438-10.710937-9.480469-27.890624 1.117187-38.277343l18.609375-18.234375c.019532-.019532.050782-.019532.070313 0l18.761719 19.136718c10.378906 10.59375 10.207031 27.59375-.382813 37.972657zm0 0" fill="#fff"/><path d="m353.640625 450.136719c-5.285156 5.175781-12.160156 7.726562-19.019531 7.671875-.027344 0-.050782-.027344-.050782-.054688l.65625-64.640625c0-.042969.054688-.066406.085938-.035156l18.710938 19.085937c10.378906 10.59375 10.207031 27.59375-.382813 37.972657zm0 0" fill="#d0f6ff"/></svg>