<svg height="512pt" viewBox="0 0 512 512" width="512pt" xmlns="http://www.w3.org/2000/svg"><path d="m512 256c0 141.386719-114.613281 256-256 256s-256-114.613281-256-256 114.613281-256 256-256 256 114.613281 256 256zm0 0" fill="#68fcdf"/><path d="m512 256c0 26.050781-3.890625 51.191406-11.128906 74.871094-32.011719 104.847656-129.542969 181.128906-244.871094 181.128906-104.558594 0-194.488281-62.699219-234.230469-152.550781-14-31.628907-21.769531-66.628907-21.769531-103.449219 0-46.21875 12.25-89.570312 33.679688-127 44.121093 77.070312 127.160156 129 222.320312 129s178.210938-51.929688 222.320312-129c21.429688 37.429688 33.679688 80.78125 33.679688 127zm0 0" fill="#10e2c4"/><path d="m30.742188 377.703125c7.15625 13.21875 15.429687 25.738281 24.71875 37.425781 46.898437 59.019532 119.300781 96.871094 200.539062 96.871094s153.640625-37.851562 200.539062-96.871094c9.289063-11.6875 17.5625-24.207031 24.71875-37.425781zm0 0" fill="#1aba9f"/><path d="m503.011719 323.46875c-7.132813 26.179688-18.3125 50.679688-32.839844 72.8125-33.082031-33.820312-92.601563-94.179688-95.0625-93.082031l5.902344 63.78125 1.058593 11.417969 1.738282 18.832031 1.5625 16.789062 3.820312 41.242188.957032 10.429687.730468 7.929688c-39.160156 24.328125-85.378906 38.378906-134.878906 38.378906s-95.71875-14.050781-134.878906-38.378906l.730468-7.929688.957032-10.429687 3.820312-41.242188 1.5625-16.789062 1.738282-18.832031 1.058593-11.417969 5.902344-63.78125-94.742187 93.582031c-14.679688-22.261719-25.976563-46.941406-33.160157-73.3125l120.261719-140.667969c13.371094-15.640625 32.910156-24.640625 53.480469-24.640625h146.539062c20.570313 0 40.109375 9 53.480469 24.640625zm0 0" fill="#ff3445"/><path d="m503.011719 323.46875c-7.132813 26.179688-18.3125 50.679688-32.839844 72.8125-.101563.160156-.210937.328125-.320313.5l-94.742187-93.582031 5.902344 63.78125 1.058593 11.417969 1.738282 18.832031 1.5625 16.789062 3.820312 41.242188.957032 10.429687.730468 7.929688c-39.160156 24.328125-85.378906 38.378906-134.878906 38.378906v-353.839844h73.269531c20.570313 0 40.109375 9 53.480469 24.640625zm0 0" fill="#dd1265"/><path d="m318.429688 158.160156c0 34.480469-27.949219 62.429688-62.429688 62.429688s-62.429688-27.949219-62.429688-62.429688zm0 0" fill="#ffd112"/><path d="m318.429688 158.160156c0 34.480469-27.949219 62.429688-62.429688 62.429688v-62.429688zm0 0" fill="#ff9f00"/><path d="m301.859375 158.160156c0 25.328125-20.53125 45.859375-45.859375 45.859375s-45.859375-20.53125-45.859375-45.859375zm0 0" fill="#474f6f"/><path d="m301.859375 158.160156c0 25.328125-20.53125 45.859375-45.859375 45.859375v-45.859375zm0 0" fill="#323b5a"/><path d="m381.011719 366.980469h-250.023438l5.902344-63.78125h238.21875zm0 0" fill="#ffd112"/><path d="m381.011719 366.980469h-125.011719v-63.78125h119.109375zm0 0" fill="#ff9f00"/><path d="m390.878906 473.621094c-39.160156 24.328125-85.378906 38.378906-134.878906 38.378906s-95.71875-14.050781-134.878906-38.378906l.730468-7.929688h268.296876zm0 0" fill="#ffd112"/><path d="m390.878906 473.621094c-39.160156 24.328125-85.378906 38.378906-134.878906 38.378906v-46.308594h134.148438zm0 0" fill="#ff9f00"/><path d="m149.066406 335.082031 22.113282-22.113281 22.109374 22.113281-22.109374 22.109375zm0 0" fill="#ff3445"/><path d="m160.691406 335.082031 10.488282-10.488281 10.488281 10.488281-10.488281 10.484375zm0 0" fill="#fff"/><path d="m205.613281 335.082031 22.109375-22.113281 22.109375 22.113281-22.109375 22.109375zm0 0" fill="#ff3445"/><path d="m217.238281 335.082031 10.484375-10.488281 10.488282 10.488281-10.488282 10.488281zm0 0" fill="#fff"/><path d="m262.15625 335.082031 22.113281-22.109375 22.109375 22.109375-22.109375 22.109375zm0 0" fill="#dd1265"/><path d="m273.78125 335.082031 10.488281-10.488281 10.484375 10.488281-10.484375 10.488281zm0 0" fill="#fff"/><path d="m318.703125 335.082031 22.109375-22.109375 22.109375 22.109375-22.109375 22.109375zm0 0" fill="#dd1265"/><path d="m330.328125 335.082031 10.484375-10.488281 10.488281 10.488281-10.488281 10.488281zm0 0" fill="#fff"/><path d="m385.371094 414.019531h-258.742188l1.5625-16.789062h255.617188zm0 0" fill="#fff"/><path d="m385.371094 414.019531h-129.371094v-16.789062h127.808594zm0 0" fill="#d0f6ff"/><g fill="#fff"><path d="m413.546875 89.425781-7.070313-7.070312-9.980468 9.976562v-18.984375h-10v18.984375l-9.976563-9.976562-7.070312 7.070312 9.976562 9.976563h-18.984375v10h18.984375l-9.976562 9.980468 7.070312 7.070313 9.976563-9.980469v18.984375h10v-18.984375l9.980468 9.980469 7.070313-7.070313-9.980469-9.980468h18.988282v-10h-18.988282zm0 0"/><path d="m153.46875 93.132812-7.074219-7.074218-9.976562 9.980468v-18.984374h-10v18.984374l-9.976563-9.980468-7.074218 7.074218 9.980468 9.976563h-18.984375v10h18.984375l-9.980468 9.976563 7.074218 7.074218 9.976563-9.980468v18.984374h10v-18.984374l9.976562 9.980468 7.074219-7.074218-9.980469-9.976563h18.984375v-10h-18.984375zm0 0"/><path d="m271.359375 56.765625v-1.527344h-8.71875v1.527344c0 6.75-5.472656 12.226563-12.226563 12.226563h-1.523437v8.714843h1.523437c6.753907 0 12.226563 5.472657 12.226563 12.226563v1.527344h8.71875v-1.527344c0-6.753906 5.472656-12.226563 12.226563-12.226563h1.523437v-8.71875h-1.523437c-6.753907 0-12.226563-5.472656-12.226563-12.222656zm0 0"/><path d="m54.636719 189.691406v-1.527344h-8.714844v1.527344c0 6.75-5.476563 12.226563-12.230469 12.226563h-1.523437v8.714843h1.523437c6.753906 0 12.230469 5.472657 12.230469 12.226563v1.527344h8.714844v-1.527344c0-6.753906 5.472656-12.226563 12.226562-12.226563h1.523438v-8.714843h-1.523438c-6.753906 0-12.226562-5.476563-12.226562-12.226563zm0 0"/><path d="m478.863281 201.917969c-6.753906 0-12.226562-5.476563-12.226562-12.226563v-1.527344h-8.714844v1.527344c0 6.75-5.476563 12.226563-12.230469 12.226563h-1.523437v8.714843h1.523437c6.753906 0 12.230469 5.472657 12.230469 12.226563v1.527344h8.714844v-1.527344c0-6.753906 5.472656-12.226563 12.226562-12.226563h1.523438v-8.714843zm0 0"/></g></svg>