<svg height="512pt" viewBox="0 0 512 512" width="512pt" xmlns="http://www.w3.org/2000/svg"><path d="m512 256c0 141.378906-114.621094 256-256 256-85.808594 0-161.761719-42.230469-208.210938-107.03125-11.257812-15.707031-20.789062-32.75-28.300781-50.839844-12.558593-30.21875-19.488281-63.367187-19.488281-98.128906 0-13.621094 1.058594-26.988281 3.121094-40.03125 19.207031-122.367188 125.117187-215.96875 252.878906-215.96875 141.378906 0 256 114.621094 256 256zm0 0" fill="#9e69e2"/><path d="m512 256c0 26.050781-3.890625 51.191406-11.128906 74.871094-32.011719 104.847656-129.542969 181.128906-244.871094 181.128906-65.960938 0-126.101562-24.949219-171.488281-65.949219-26.5625-23.960937-48.070313-53.429687-62.742188-86.601562-14-31.628907-21.769531-66.628907-21.769531-103.449219 0-17.398438 1.730469-34.378906 5.039062-50.808594 5.480469-27.203125 15.28125-52.851562 28.640626-76.191406 44.121093 77.070312 127.160156 129 222.320312 129s178.210938-51.929688 222.320312-129c21.429688 37.429688 33.679688 80.78125 33.679688 127zm0 0" fill="#8e4fd2"/><path d="m30.742188 377.703125c7.15625 13.21875 15.429687 25.738281 24.71875 37.425781 46.898437 59.019532 119.300781 96.871094 200.539062 96.871094s153.640625-37.851562 200.539062-96.871094c9.289063-11.6875 17.5625-24.207031 24.71875-37.425781zm0 0" fill="#7038ba"/><path d="m90.480469 315.976562c0-.21875-.015625-.429687-.015625-.648437 0-39.816406 32.277344-72.09375 72.09375-72.09375 9.460937 0 18.484375 1.839844 26.761718 5.152344 15.988282-28.640625 46.574219-48.019531 81.703126-48.019531 45.621093 0 83.589843 32.667968 91.84375 75.886718 2.460937-.355468 4.972656-.546875 7.53125-.546875 24.800781 0 45.582031 17.171875 51.136718 40.269531zm0 0" fill="#d0f6ff"/><path d="m160.824219 315.976562c-.003907-.125-.011719-.246093-.011719-.375 0-22.894531 18.5625-41.453124 41.457031-41.453124 5.4375 0 10.628907 1.058593 15.386719 2.960937 9.195312-16.46875 26.78125-27.609375 46.984375-27.609375 26.230469 0 48.0625 18.785156 52.808594 43.636719 1.414062-.203125 2.859375-.316407 4.332031-.316407 14.261719 0 26.210938 9.875 29.40625 23.15625zm0 0" fill="#8fc9f7"/><path d="m120.179688 113.613281c0-.117187-.007813-.226562-.007813-.34375 0-20.929687 16.96875-37.898437 37.898437-37.898437 4.972657 0 9.714844.96875 14.066407 2.710937 8.40625-15.054687 24.484375-25.242187 42.953125-25.242187 23.980468 0 43.941406 17.171875 48.277344 39.890625 1.292968-.183594 2.617187-.285157 3.960937-.285157 13.039063 0 23.960937 9.023438 26.882813 21.167969zm0 0" fill="#d0f6ff"/><path d="m157.160156 113.613281c0-.066406-.007812-.132812-.007812-.199219 0-12.035156 9.757812-21.789062 21.792968-21.789062 2.859376 0 5.585938.554688 8.089844 1.558594 4.832032-8.660156 14.078125-14.515625 24.699219-14.515625 13.789063 0 25.265625 9.875 27.761719 22.9375.742187-.105469 1.5-.164063 2.273437-.164063 7.5 0 13.78125 5.191406 15.460938 12.171875zm0 0" fill="#8fc9f7"/><path d="m460.402344 183.671875c0-.070313.003906-.144531.003906-.214844 0-13.171875-10.675781-23.847656-23.84375-23.847656-3.128906 0-6.117188.609375-8.851562 1.707031-5.289063-9.472656-15.40625-15.882812-27.027344-15.882812-15.085938 0-27.648438 10.804687-30.375 25.097656-.816406-.117188-1.648438-.179688-2.492188-.179688-8.203125 0-15.078125 5.679688-16.914062 13.320313zm0 0" fill="#d0f6ff"/><path d="m437.136719 183.671875c0-.039063 0-.082031 0-.125 0-7.570313-6.136719-13.710937-13.710938-13.710937-1.796875 0-3.515625.351562-5.089843.980468-3.039063-5.449218-8.859376-9.132812-15.539063-9.132812-8.679687 0-15.898437 6.214844-17.46875 14.433594-.46875-.066407-.945313-.105469-1.433594-.105469-4.714843 0-8.667969 3.265625-9.726562 7.660156zm0 0" fill="#8fc9f7"/><path d="m306.378906 401.738281-39.039062 110.011719c-2.429688.109375-4.878906.179688-7.328125.21875-1.332031.019531-2.671875.03125-4.011719.03125-1.679688 0-3.359375-.019531-5.039062-.050781v-66.808594h-55.410157l55.410157-156.171875v112.769531zm0 0" fill="#ffd112"/><path d="m306.378906 401.738281-39.039062 110.011719c-2.429688.109375-4.878906.179688-7.328125.21875l17.097656-86.757812h-53.789063l27.640626-136.242188v112.769531zm0 0" fill="#ff9f00"/><path d="m146.589844 484.199219v-65.429688h-32.152344l32.152344-90.613281v65.433594h32.152344zm0 0" fill="#ffd112"/><path d="m146.589844 484.199219 15.171875-76.992188h-31.207031l16.035156-79.050781v65.433594h32.152344zm0 0" fill="#ff9f00"/><path d="m365.410156 484.199219v-65.429688h-32.152344l32.152344-90.613281v65.433594h32.152344zm0 0" fill="#ffd112"/><path d="m365.410156 484.199219 15.171875-76.992188h-31.210937l16.039062-79.050781v65.433594h32.152344zm0 0" fill="#ff9f00"/></svg>