<svg height="512pt" viewBox="0 0 512 512" width="512pt" xmlns="http://www.w3.org/2000/svg"><path d="m512 256c0 141.386719-114.613281 256-256 256s-256-114.613281-256-256 114.613281-256 256-256 256 114.613281 256 256zm0 0" fill="#ffe955"/><path d="m512 256c0 26.050781-3.890625 51.191406-11.128906 74.871094-32.011719 104.847656-129.542969 181.128906-244.871094 181.128906-104.558594 0-194.488281-62.699219-234.230469-152.550781-14-31.628907-21.769531-66.628907-21.769531-103.449219 0-46.21875 12.25-89.570312 33.679688-127 44.121093 77.070312 127.160156 129 222.320312 129s178.210938-51.929688 222.320312-129c21.429688 37.429688 33.679688 80.78125 33.679688 127zm0 0" fill="#ffd112"/><path d="m30.742188 377.703125c7.15625 13.21875 15.429687 25.738281 24.71875 37.425781 46.898437 59.019532 119.300781 96.871094 200.539062 96.871094s153.640625-37.851562 200.539062-96.871094c9.289063-11.6875 17.5625-24.207031 24.71875-37.425781zm0 0" fill="#ff9f00"/><path d="m27.828125 228.449219c0-.105469-.007813-.214844-.007813-.320313 0-19.722656 15.988282-35.714844 35.710938-35.714844 4.6875 0 9.15625.914063 13.257812 2.554688 7.917969-14.1875 23.070313-23.789062 40.472657-23.789062 22.597656 0 41.410156 16.183593 45.496093 37.59375 1.21875-.175782 2.464844-.269532 3.730469-.269532 12.285157 0 22.582031 8.503906 25.332031 19.945313zm0 0" fill="#fff"/><path d="m62.671875 228.449219c0-.0625-.003906-.121094-.003906-.183594 0-11.34375 9.195312-20.535156 20.535156-20.535156 2.695313 0 5.265625.523437 7.625 1.464843 4.554687-8.15625 13.265625-13.675781 23.273437-13.675781 12.992188 0 23.808594 9.304688 26.160157 21.617188.699219-.101563 1.414062-.15625 2.144531-.15625 7.066406 0 12.984375 4.890625 14.566406 11.46875zm0 0" fill="#d0f6ff"/><path d="m147.058594 105.070312c0-.105468-.007813-.214843-.007813-.320312 0-19.722656 15.988281-35.714844 35.714844-35.714844 4.683594 0 9.15625.914063 13.253906 2.554688 7.921875-14.1875 23.074219-23.789063 40.476563-23.789063 22.597656 0 41.40625 16.183594 45.492187 37.59375 1.222657-.175781 2.464844-.273437 3.730469-.273437 12.289062 0 22.582031 8.507812 25.332031 19.949218zm0 0" fill="#fff"/><path d="m181.90625 105.070312c0-.0625-.007812-.121093-.007812-.183593 0-11.34375 9.195312-20.535157 20.539062-20.535157 2.691406 0 5.261719.523438 7.621094 1.464844 4.554687-8.15625 13.265625-13.675781 23.273437-13.675781 12.996094 0 23.808594 9.304687 26.160157 21.617187.703124-.101562 1.417968-.15625 2.144531-.15625 7.066406 0 12.984375 4.890626 14.566406 11.46875zm0 0" fill="#d0f6ff"/><path d="m332.871094 168.90625c0-.074219-.003906-.144531-.003906-.21875 0-13.246094 10.738281-23.984375 23.984374-23.984375 3.148438 0 6.148438.613281 8.902344 1.714844 5.320313-9.527344 15.496094-15.976563 27.183594-15.976563 15.179688 0 27.808594 10.871094 30.554688 25.246094.820312-.117188 1.65625-.179688 2.507812-.179688 8.25 0 15.164062 5.710938 17.011719 13.398438zm0 0" fill="#fff"/><path d="m356.273438 168.90625c0-.042969 0-.085938 0-.125 0-7.617188 6.171874-13.792969 13.789062-13.792969 1.8125 0 3.539062.351563 5.121094.988281 3.058594-5.480468 8.910156-9.1875 15.628906-9.1875 8.726562 0 15.992188 6.25 17.570312 14.519532.472657-.070313.953126-.105469 1.441407-.105469 4.746093 0 8.722656 3.285156 9.78125 7.703125zm0 0" fill="#d0f6ff"/><path d="m327.269531 383.789062h-51.570312c-5.300781 0-10.097657-2.148437-13.578125-5.617187-2.871094-2.871094-4.839844-6.660156-5.429688-10.890625-.132812-.882812-.191406-1.78125-.191406-2.691406s.058594-1.808594.191406-2.679688c1.296875-9.332031 9.320313-16.511718 19.007813-16.511718h58.230469c15.429687 0 27.929687-12.507813 27.929687-27.929688 0-15.417969-12.5-27.929688-27.929687-27.929688h-114.238282c-20.332031 0-36.8125 16.480469-36.8125 36.8125v175.058594c23.171875 6.890625 47.710938 10.589844 73.121094 10.589844h.5v-53.160156c0-.910156.058594-1.808594.191406-2.679688 1.296875-9.332031 9.320313-16.511718 19.007813-16.511718h51.570312c7.710938 0 14.691407-3.128907 19.742188-8.179688 5.046875-5.058594 8.179687-12.039062 8.179687-19.75 0-15.417969-12.5-27.929688-27.921875-27.929688zm0 0" fill="#ff3445"/><path d="m355.191406 411.71875c0 7.710938-3.132812 14.691406-8.179687 19.75-5.050781 5.050781-12.03125 8.179688-19.742188 8.179688h-51.570312c-9.6875 0-17.710938 7.179687-19.007813 16.511718v-88.878906c.589844 4.230469 2.558594 8.019531 5.429688 10.890625 3.480468 3.46875 8.277344 5.617187 13.578125 5.617187h51.570312c15.421875 0 27.921875 12.511719 27.921875 27.929688zm0 0" fill="#dd1265"/><path d="m256.691406 361.910156v-72.371094h77.238282c15.429687 0 27.929687 12.511719 27.929687 27.929688 0 15.421875-12.5 27.929688-27.929687 27.929688h-58.230469c-9.6875 0-17.710938 7.179687-19.007813 16.511718zm0 0" fill="#dd1265"/><path d="m437.351562 206.488281c-24.371093 0-44.210937 19.832031-44.210937 44.210938 0 24.378906 19.839844 44.210937 44.210937 44.210937 24.378907 0 44.207032-19.832031 44.207032-44.210937 0-24.378907-19.828125-44.210938-44.207032-44.210938zm0 57.511719c-7.332031 0-13.300781-5.96875-13.300781-13.300781 0-7.339844 5.96875-13.300781 13.300781-13.300781 7.339844 0 13.308594 5.960937 13.308594 13.300781 0 7.332031-5.96875 13.300781-13.308594 13.300781zm0 0" fill="#0f9be8"/><path d="m481.558594 250.699219c0 24.378906-19.828125 44.210937-44.207032 44.210937v-30.910156c7.339844 0 13.308594-5.96875 13.308594-13.300781 0-7.339844-5.96875-13.300781-13.308594-13.300781v-30.910157c24.378907 0 44.207032 19.832031 44.207032 44.210938zm0 0" fill="#0066e8"/></svg>