<svg height="512pt" viewBox="0 0 512 512" width="512pt" xmlns="http://www.w3.org/2000/svg"><path d="m512 256c0 141.386719-114.613281 256-256 256s-256-114.613281-256-256 114.613281-256 256-256 256 114.613281 256 256zm0 0" fill="#65b2ff"/><path d="m512 256c0 26.050781-3.890625 51.191406-11.128906 74.871094-32.011719 104.847656-129.542969 181.128906-244.871094 181.128906-104.558594 0-194.488281-62.699219-234.230469-152.550781-14-31.628907-21.769531-66.628907-21.769531-103.449219 0-46.21875 12.25-89.570312 33.679688-127 44.121093 77.070312 127.160156 129 222.320312 129s178.210938-51.929688 222.320312-129c21.429688 37.429688 33.679688 80.78125 33.679688 127zm0 0" fill="#0f9be8"/><path d="m30.742188 377.703125c7.15625 13.21875 15.429687 25.738281 24.71875 37.425781 46.898437 59.019532 119.300781 96.871094 200.539062 96.871094s153.640625-37.851562 200.539062-96.871094c9.289063-11.6875 17.5625-24.207031 24.71875-37.425781zm0 0" fill="#0066e8"/><path d="m462.945312 315.230469h-92.65625c0-63.117188-51.167968-114.285157-114.289062-114.285157-63.117188 0-114.285156 51.167969-114.285156 114.285157h-92.660156c0-114.289063 92.65625-206.941407 206.945312-206.941407s206.945312 92.652344 206.945312 206.941407zm0 0" fill="#ff3445"/><path d="m442.554688 315.230469h-72.265626c0-63.117188-51.167968-114.285157-114.289062-114.285157-63.117188 0-114.285156 51.167969-114.285156 114.285157h-72.269532c0-103.027344 83.523438-186.550781 186.554688-186.550781s186.554688 83.523437 186.554688 186.550781zm0 0" fill="#ff9f00"/><path d="m442.554688 315.230469h-72.265626c0-63.117188-51.167968-114.285157-114.289062-114.285157-63.117188 0-114.285156 51.167969-114.285156 114.285157h-72.269532c0-103.027344 83.523438-186.550781 186.554688-186.550781s186.554688 83.523437 186.554688 186.550781zm0 0" fill="#ffd112"/><path d="m423.96875 315.230469h-53.683594c0-63.117188-51.167968-114.285157-114.285156-114.285157s-114.285156 51.167969-114.285156 114.285157h-53.6875c0-92.765625 75.207031-167.96875 167.972656-167.96875s167.96875 75.203125 167.96875 167.96875zm0 0" fill="#95d600"/><path d="m405.652344 315.230469h-35.363282c0-63.117188-51.167968-114.285157-114.289062-114.285157-63.117188 0-114.285156 51.167969-114.285156 114.285157h-35.363282c0-82.648438 67-149.652344 149.648438-149.652344 82.652344 0 149.652344 67.003906 149.652344 149.652344zm0 0" fill="#0f9be8"/><path d="m387.863281 315.230469h-17.578125c0-63.117188-51.167968-114.285157-114.285156-114.285157s-114.285156 51.167969-114.285156 114.285157h-17.578125c0-72.824219 59.035156-131.859375 131.863281-131.859375 72.824219 0 131.863281 59.035156 131.863281 131.859375zm0 0" fill="#7038ba"/><path d="m17.132812 317.339844c-.003906-.125-.011718-.25-.011718-.375 0-23.035156 18.675781-41.710938 41.710937-41.710938 5.472657 0 10.695313 1.0625 15.484375 2.980469 9.246094-16.570313 26.945313-27.78125 47.269532-27.78125 26.394531 0 48.363281 18.902344 53.136718 43.902344 1.425782-.203125 2.878906-.3125 4.355469-.3125 14.351563 0 26.375 9.933593 29.589844 23.296875zm0 0" fill="#fff"/><path d="m57.828125 317.339844c0-.070313-.003906-.144532-.003906-.214844 0-13.246094 10.738281-23.984375 23.984375-23.984375 3.144531 0 6.148437.609375 8.902344 1.710937 5.320312-9.527343 15.496093-15.972656 27.183593-15.972656 15.175781 0 27.808594 10.867188 30.554688 25.246094.816406-.117188 1.652343-.183594 2.503906-.183594 8.25 0 15.164063 5.714844 17.011719 13.398438zm0 0" fill="#d0f6ff"/><path d="m498.945312 317.339844c0-.121094.007813-.242188.007813-.363282 0-22.328124-18.097656-40.425781-40.425781-40.425781-5.304688 0-10.367188 1.03125-15.007813 2.886719-8.960937-16.058594-26.117187-26.925781-45.816406-26.925781-25.578125 0-46.871094 18.320312-51.5 42.554687-1.378906-.199218-2.785156-.308594-4.21875-.308594-13.910156 0-25.5625 9.628907-28.675781 22.582032zm0 0" fill="#fff"/><path d="m459.5 317.339844c0-.070313.007812-.140625.007812-.210938 0-12.839844-10.410156-23.246094-23.246093-23.246094-3.050781 0-5.960938.59375-8.628907 1.664063-5.15625-9.238281-15.019531-15.484375-26.347656-15.484375-14.710937 0-26.953125 10.535156-29.613281 24.46875-.792969-.113281-1.601563-.175781-2.429687-.175781-7.996094 0-14.695313 5.535156-16.488282 12.984375zm0 0" fill="#d0f6ff"/><path d="m313.089844 423.269531c0-.085937.003906-.167969.003906-.253906 0-15.695313-12.722656-28.417969-28.414062-28.417969-3.730469 0-7.285157.726563-10.546876 2.03125-6.300781-11.285156-18.359374-18.925781-32.203124-18.925781-17.980469 0-32.945313 12.878906-36.199219 29.910156-.96875-.140625-1.960938-.214843-2.96875-.214843-9.773438 0-17.964844 6.765624-20.15625 15.871093zm0 0" fill="#fff"/><path d="m285.363281 423.269531c0-.046875.003907-.097656.003907-.148437 0-9.023438-7.3125-16.335938-16.339844-16.335938-2.140625 0-4.1875.414063-6.0625 1.167969-3.625-6.492187-10.558594-10.882813-18.519532-10.882813-10.339843 0-18.945312 7.402344-20.8125 17.199219-.558593-.082031-1.128906-.125-1.707031-.125-5.621093 0-10.332031 3.890625-11.589843 9.125zm0 0" fill="#d0f6ff"/></svg>