<svg height="512pt" viewBox="0 0 512 512" width="512pt" xmlns="http://www.w3.org/2000/svg"><path d="m512 256c0 141.386719-114.613281 256-256 256s-256-114.613281-256-256 114.613281-256 256-256 256 114.613281 256 256zm0 0" fill="#68fcdf"/><path d="m512 256c0 26.050781-3.890625 51.191406-11.128906 74.871094-32.011719 104.847656-129.542969 181.128906-244.871094 181.128906-104.558594 0-194.488281-62.699219-234.230469-152.550781-14-31.628907-21.769531-66.628907-21.769531-103.449219 0-46.21875 12.25-89.570312 33.679688-127 44.121093 77.070312 127.160156 129 222.320312 129s178.210938-51.929688 222.320312-129c21.429688 37.429688 33.679688 80.78125 33.679688 127zm0 0" fill="#10e2c4"/><path d="m30.742188 377.703125c7.15625 13.21875 15.429687 25.738281 24.71875 37.425781 46.898437 59.019532 119.300781 96.871094 200.539062 96.871094s153.640625-37.851562 200.539062-96.871094c9.289063-11.6875 17.5625-24.207031 24.71875-37.425781zm0 0" fill="#1aba9f"/><g fill="#fff"><path d="m482.265625 317.128906c-10.503906 0-19.046875-8.546875-19.046875-19.046875 0-2.761719 2.238281-5 5-5s5 2.238281 5 5c0 4.988281 4.058594 9.046875 9.046875 9.046875s9.042969-4.058594 9.042969-9.046875-4.054688-9.046875-9.042969-9.046875h-65.765625c-2.761719 0-5-2.238281-5-5 0-2.761718 2.238281-5 5-5h65.765625c10.5 0 19.042969 8.542969 19.042969 19.046875 0 10.5-8.542969 19.046875-19.042969 19.046875zm0 0"/><path d="m446.195312 324.125c-2.761718 0-5-2.238281-5-5s2.238282-5 5-5c1.117188 0 2.023438-.90625 2.023438-2.023438 0-1.113281-.90625-2.023437-2.023438-2.023437h-29.695312c-2.761719 0-5-2.238281-5-5 0-2.757813 2.238281-5 5-5h29.695312c6.632813 0 12.023438 5.394531 12.023438 12.023437 0 6.628907-5.390625 12.023438-12.023438 12.023438zm0 0"/><path d="m446.195312 242.90625h-29.695312c-2.761719 0-5-2.238281-5-5 0-2.757812 2.238281-5 5-5h29.695312c1.117188 0 2.023438-.90625 2.023438-2.019531 0-1.117188-.90625-2.023438-2.023438-2.023438-2.761718 0-5-2.238281-5-5s2.238282-5 5-5c6.632813 0 12.023438 5.394531 12.023438 12.023438 0 6.628906-5.390625 12.019531-12.023438 12.019531zm0 0"/><path d="m482.265625 263.976562h-65.765625c-2.761719 0-5-2.238281-5-5 0-2.761718 2.238281-5 5-5h65.765625c4.988281 0 9.042969-4.058593 9.042969-9.042968 0-4.988282-4.054688-9.046875-9.042969-9.046875s-9.046875 4.058593-9.046875 9.046875c0 2.757812-2.238281 5-5 5s-5-2.242188-5-5c0-10.503906 8.542969-19.046875 19.046875-19.046875 10.5 0 19.042969 8.542969 19.042969 19.046875 0 10.5-8.542969 19.042968-19.042969 19.042968zm0 0"/><path d="m404 360.589844c-10.503906 0-19.046875-8.542969-19.046875-19.042969 0-2.761719 2.238281-5 5-5s5 2.238281 5 5c0 4.988281 4.058594 9.042969 9.046875 9.042969s9.046875-4.058594 9.046875-9.042969c0-4.988281-4.058594-9.046875-9.046875-9.046875h-68.457031c-2.761719 0-5-2.238281-5-5s2.238281-5 5-5h68.457031c10.503906 0 19.046875 8.542969 19.046875 19.046875 0 10.5-8.542969 19.042969-19.046875 19.042969zm0 0"/><path d="m363.597656 367.613281c-2.761718 0-5-2.238281-5-5s2.238282-5 5-5c1.113282 0 2.023438-.90625 2.023438-2.023437 0-1.113282-.910156-2.023438-2.023438-2.023438h-62.597656c-2.761719 0-5-2.238281-5-5 0-2.757812 2.238281-5 5-5h62.597656c6.628906 0 12.023438 5.394532 12.023438 12.023438s-5.394532 12.023437-12.023438 12.023437zm0 0"/><path d="m421.457031 204.789062h-125.71875c-2.761719 0-5-2.238281-5-5 0-2.761718 2.238281-5 5-5h125.71875c4.988281 0 9.046875-4.058593 9.046875-9.046874 0-4.984376-4.058594-9.042969-9.046875-9.042969-4.984375 0-9.042969 4.058593-9.042969 9.042969 0 2.761718-2.238281 5-5 5-2.761718 0-5-2.238282-5-5 0-10.5 8.542969-19.042969 19.042969-19.042969 10.503907 0 19.046875 8.542969 19.046875 19.042969 0 10.503906-8.542968 19.046874-19.046875 19.046874zm0 0"/><path d="m360.027344 183.722656h-109.601563c-2.761719 0-5-2.238281-5-5 0-2.761718 2.238281-5 5-5h109.601563c1.117187 0 2.023437-.910156 2.023437-2.023437s-.90625-2.023438-2.023437-2.023438c-2.761719 0-5-2.238281-5-5s2.238281-5 5-5c6.628906 0 12.023437 5.394531 12.023437 12.023438 0 6.628906-5.394531 12.023437-12.023437 12.023437zm0 0"/></g><path d="m141.625 338.859375-70.445312-92.007813 70.609374-82.820312 7.609376 6.488281-65.367188 76.671875 65.535156 85.589844zm0 0" fill="#20273a"/><path d="m87.738281 157.910156v291.019532c-3.457031-3.007813-6.839843-6.121094-10.128906-9.320313-3.46875-3.378906-6.859375-6.859375-10.140625-10.429687v-271.269532zm0 0" fill="#474f6f"/><path d="m87.738281 157.910156v291.019532c-3.457031-3.007813-6.839843-6.121094-10.128906-9.320313v-281.699219zm0 0" fill="#20273a"/><path d="m404.835938 244.136719v51.339843c-14.90625 4.488282-14.90625-9.019531-34.332032-5.210937-26.375 5.160156-26.375 23.5-64.238281 34.910156-12.789063 3.859375-22.734375 5.53125-31.523437 6-31.71875 1.671875-48.488282-12.359375-130.230469 3.648438v-170.148438c81.742187 21.070313 98.511719 43.148438 130.230469 56.050781 8.789062 3.578126 18.734374 6.449219 31.523437 8.390626 37.863281 5.769531 37.863281-12.570313 64.238281-5.769532 19.425782 5.007813 19.425782 18.519532 34.332032 20.789063zm0 0" fill="#0f9be8"/><path d="m404.835938 244.136719v51.339843c-14.90625 4.488282-14.90625-9.019531-34.332032-5.210937-26.375 5.160156-26.375 23.5-64.238281 34.910156-12.789063 3.859375-22.734375 5.53125-31.523437 6v-110.449219c8.789062 3.578126 18.734374 6.449219 31.523437 8.390626 37.863281 5.769531 37.863281-12.570313 64.238281-5.769532 19.425782 5.007813 19.425782 18.519532 34.332032 20.789063zm0 0" fill="#0066e8"/><path d="m404.835938 265.984375v7.089844c-7.816407.800781-12.347657-2.566407-16.640626-5.769531-4.355468-3.238282-8.363281-6.230469-17.691406-6.25-10.679687-.019532-16.277344 3.601562-23.277344 8.121093-8.042968 5.199219-18.125 11.71875-40.960937 14.082031-12.035156 1.238282-22.289063.949219-31.523437-.273437-13.089844-1.71875-24.128907-5.277344-35.292969-8.878906-20.867188-6.730469-40.007813-13.417969-94.9375-13.53125v-23.488281c66.140625 4.28125 90.640625 14.628906 110.257812 22.410156 6.984375 2.769531 13.277344 5.269531 19.972657 7.140625 8.914062 2.488281 18.550781 3.890625 31.523437 3.359375 18.695313-.761719 26.4375-5.179688 34.644531-9.878906 7.894532-4.519532 16.03125-9.171876 29.59375-8.292969 11.453125.742187 16.761719 5.089843 21.117188 8.652343 3.878906 3.167969 7.035156 5.757813 13.214844 5.507813zm0 0" fill="#fff"/><path d="m404.984375 251.367188v7.078124c-.054687 0-.105469 0-.148437-.007812-7.714844-.242188-12.199219-4.171875-16.449219-7.902344-4.347657-3.800781-8.339844-7.289062-17.640625-8.507812-10.636719-1.402344-16.214844 1.488281-23.191406 5.097656-8.007813 4.152344-18.054688 9.359375-40.785157 8.769531-12.269531-.320312-22.671875-2.007812-32.027343-4.507812-12.726563-3.390625-23.511719-8.28125-34.417969-13.222657-20.734375-9.398437-41.308594-18.707031-95.8125-25.878906v-23.390625c65.636719 12.742188 91.542969 26.402344 111.039062 36.679688 6.707031 3.53125 12.773438 6.730469 19.191407 9.402343 9.050781 3.78125 18.804687 6.519532 32.027343 7.6875 18.617188 1.652344 26.3125-1.769531 34.496094-5.398437 7.859375-3.488281 15.972656-7.089844 29.480469-4.46875 11.417968 2.21875 16.71875 7.238281 21.058594 11.359375 3.824218 3.640625 6.957031 6.609375 13.03125 7.191406.050781.007813.09375.019532.148437.019532zm0 0" fill="#ffd112"/><path d="m404.984375 281.144531v7.082031c-.054687.007813-.097656.019532-.148437.03125-7.714844 1.777344-12.199219-.960937-16.449219-3.5625-4.347657-2.660156-8.339844-5.097656-17.640625-3.871093-10.636719 1.402343-16.214844 5.761719-23.191406 11.222656-8.007813 6.257813-18.054688 14.109375-40.785157 19.507813-12.269531 2.921874-22.671875 3.960937-32.027343 3.929687-12.726563-.039063-23.511719-2.078125-34.417969-4.148437-20.734375-3.929688-41.308594-7.828126-95.8125-.640626v-23.390624c65.636719-4.546876 91.542969 2.28125 111.039062 7.421874 6.707031 1.769532 12.773438 3.371094 19.191407 4.359376 9.050781 1.390624 18.804687 1.550781 32.027343-.761719 18.617188-3.257813 26.3125-8.699219 34.496094-14.488281 7.859375-5.558594 15.972656-11.300782 29.480469-12.230469 11.417968-.800781 16.71875 2.832031 21.058594 5.808593 3.824218 2.632813 6.957031 4.773438 13.03125 3.75.042968 0 .09375-.007812.148437-.019531zm0 0" fill="#ffd112"/><path d="m404.835938 251.347656v7.089844c-7.714844-.242188-12.199219-4.171875-16.449219-7.902344-4.347657-3.800781-8.339844-7.289062-17.640625-8.507812-10.636719-1.402344-16.214844 1.488281-23.191406 5.097656-8.007813 4.152344-18.054688 9.359375-40.785157 8.769531-12.269531-.320312-22.671875-2.007812-32.027343-4.507812v-16.410157c9.050781 3.78125 18.804687 6.519532 32.027343 7.6875 18.617188 1.652344 26.3125-1.769531 34.496094-5.398437 7.859375-3.488281 15.972656-7.089844 29.480469-4.46875 11.417968 2.21875 16.71875 7.238281 21.058594 11.359375 3.824218 3.640625 6.957031 6.609375 13.03125 7.191406zm0 0" fill="#ff9f00"/><path d="m404.835938 281.164062v7.09375c-7.714844 1.777344-12.199219-.960937-16.449219-3.5625-4.347657-2.660156-8.339844-5.097656-17.640625-3.871093-10.636719 1.402343-16.214844 5.761719-23.191406 11.222656-8.007813 6.257813-18.054688 14.109375-40.785157 19.507813-12.269531 2.921874-22.671875 3.960937-32.027343 3.929687v-16.398437c9.050781 1.390624 18.804687 1.550781 32.027343-.761719 18.617188-3.257813 26.3125-8.699219 34.496094-14.488281 7.859375-5.558594 15.972656-11.300782 29.480469-12.230469 11.417968-.800781 16.71875 2.832031 21.058594 5.808593 3.824218 2.632813 6.957031 4.773438 13.03125 3.75zm0 0" fill="#ff9f00"/><path d="m404.835938 265.984375v7.089844c-7.816407.800781-12.347657-2.566407-16.640626-5.769531-4.355468-3.238282-8.363281-6.230469-17.691406-6.25-10.679687-.019532-16.277344 3.601562-23.277344 8.121093-8.042968 5.199219-18.125 11.71875-40.960937 14.082031-12.035156 1.238282-22.289063.949219-31.523437-.273437v-16.347656c8.914062 2.488281 18.550781 3.890625 31.523437 3.359375 18.695313-.761719 26.4375-5.179688 34.644531-9.878906 7.894532-4.519532 16.03125-9.171876 29.59375-8.292969 11.453125.742187 16.761719 5.089843 21.117188 8.652343 3.878906 3.167969 7.035156 5.757813 13.214844 5.507813zm0 0" fill="#d0f6ff"/><path d="m161 161.523438v180.039062l-15.40625 3.496094-15.402344 3.484375v-193.996094l15.402344 3.492187zm0 0" fill="#474f6f"/><path d="m161 161.523438v180.039062l-15.40625 3.496094v-187.019532zm0 0" fill="#20273a"/><path d="m126.007812 117.003906c0-.109375-.007812-.214844-.007812-.324218 0-19.722657 15.988281-35.710938 35.714844-35.710938 4.683594 0 9.152344.914062 13.253906 2.550781 7.917969-14.183593 23.070312-23.785156 40.472656-23.785156 22.597656 0 41.410156 16.183594 45.496094 37.589844 1.21875-.175781 2.464844-.269531 3.730469-.269531 12.285156 0 22.582031 8.503906 25.332031 19.949218zm0 0" fill="#fff"/><path d="m160.851562 117.003906c0-.0625-.003906-.125-.003906-.1875 0-11.339844 9.195313-20.535156 20.535156-20.535156 2.695313 0 5.265626.523438 7.625 1.46875 4.550782-8.15625 13.265626-13.679688 23.269532-13.679688 12.996094 0 23.8125 9.308594 26.164062 21.617188.699219-.097656 1.414063-.15625 2.144532-.15625 7.0625 0 12.984374 4.894531 14.566406 11.472656zm0 0" fill="#d0f6ff"/><path d="m331.632812 111.519531c0-.054687-.003906-.109375-.003906-.160156 0-9.949219 8.0625-18.011719 18.011719-18.011719 2.363281 0 4.617187.457032 6.683594 1.285156 3.996093-7.15625 11.636719-11.996093 20.414062-11.996093 11.398438 0 20.882813 8.160156 22.945313 18.957031.617187-.085938 1.242187-.132812 1.882812-.132812 6.195313 0 11.386719 4.289062 12.773438 10.058593zm0 0" fill="#fff"/><path d="m349.203125 111.519531c0-.03125 0-.0625 0-.09375 0-5.71875 4.636719-10.355469 10.355469-10.355469 1.359375 0 2.65625.265626 3.84375.738282 2.296875-4.113282 6.691406-6.898438 11.738281-6.898438 6.554687 0 12.011719 4.695313 13.195313 10.902344.351562-.050781.714843-.078125 1.082031-.078125 3.5625 0 6.550781 2.46875 7.347656 5.785156zm0 0" fill="#d0f6ff"/><path d="m160.851562 414.929688c0-.054688-.003906-.109376-.003906-.164063 0-9.945313 8.0625-18.011719 18.011719-18.011719 2.363281 0 4.617187.460938 6.6875 1.289063 3.992187-7.15625 11.636719-11.996094 20.414063-11.996094 11.394531 0 20.882812 8.160156 22.945312 18.957031.613281-.089844 1.242188-.136718 1.878906-.136718 6.199219 0 11.390625 4.289062 12.777344 10.0625zm0 0" fill="#fff"/><path d="m178.425781 414.929688c0-.03125 0-.0625 0-.09375 0-5.71875 4.636719-10.355469 10.355469-10.355469 1.359375 0 2.65625.261719 3.84375.738281 2.296875-4.113281 6.691406-6.898438 11.738281-6.898438 6.554688 0 12.007813 4.695313 13.195313 10.902344.351562-.050781.710937-.078125 1.082031-.078125 3.5625 0 6.546875 2.464844 7.34375 5.785157zm0 0" fill="#d0f6ff"/><path d="m273.574219 444.957031c-.003907-.070312-.007813-.144531-.007813-.21875 0-13.445312 10.902344-24.34375 24.347656-24.34375 3.191407 0 6.242188.621094 9.035157 1.738281 5.398437-9.671874 15.730469-16.214843 27.59375-16.214843 15.40625 0 28.226562 11.03125 31.015625 25.625.828125-.117188 1.675781-.183594 2.542968-.183594 8.375 0 15.390626 5.796875 17.269532 13.601563h-111.796875zm0 0" fill="#fff"/><path d="m297.328125 444.957031c0-.042969-.003906-.082031-.003906-.125 0-7.730469 6.269531-14 14-14 1.835937 0 3.589843.359375 5.195312 1.003907 3.105469-5.5625 9.042969-9.328126 15.867188-9.328126 8.859375 0 16.230469 6.34375 17.832031 14.738282.480469-.070313.964844-.105469 1.464844-.105469 4.8125 0 8.851562 3.332031 9.929687 7.820313h-64.285156zm0 0" fill="#d0f6ff"/></svg>