<svg height="512pt" viewBox="0 0 512 512" width="512pt" xmlns="http://www.w3.org/2000/svg"><path d="m512 256c0 141.378906-114.621094 256-256 256-28.601562 0-56.109375-4.691406-81.789062-13.351562-3.410157-1.148438-6.789063-2.359376-10.132813-3.660157-3.417969-1.308593-6.796875-2.6875-10.136719-4.148437-90.589844-39.417969-153.941406-129.738282-153.941406-234.839844 0-141.378906 114.621094-256 256-256s256 114.621094 256 256zm0 0" fill="#ffe955"/><path d="m512 256c0 26.050781-3.890625 51.191406-11.128906 74.871094-32.011719 104.847656-129.542969 181.128906-244.871094 181.128906-104.558594 0-194.488281-62.699219-234.230469-152.550781-14-31.628907-21.769531-66.628907-21.769531-103.449219 0-46.21875 12.25-89.570312 33.679688-127 44.121093 77.070312 127.160156 129 222.320312 129s178.210938-51.929688 222.320312-129c21.429688 37.429688 33.679688 80.78125 33.679688 127zm0 0" fill="#ffd112"/><path d="m30.742188 377.703125c7.15625 13.21875 15.429687 25.738281 24.71875 37.425781 46.898437 59.019532 119.300781 96.871094 200.539062 96.871094s153.640625-37.851562 200.539062-96.871094c9.289063-11.6875 17.5625-24.207031 24.71875-37.425781zm0 0" fill="#ff9f00"/><path d="m110.726562 112.003906c0-.109375-.007812-.214844-.007812-.324218 0-19.722657 15.992188-35.710938 35.714844-35.710938 4.683594 0 9.15625.914062 13.253906 2.550781 7.921875-14.183593 23.074219-23.785156 40.476562-23.785156 22.597657 0 41.40625 16.183594 45.492188 37.589844 1.222656-.175781 2.464844-.269531 3.730469-.269531 12.289062 0 22.582031 8.503906 25.332031 19.949218zm0 0" fill="#fff"/><path d="m145.574219 112.003906c0-.0625-.007813-.125-.007813-.1875 0-11.339844 9.195313-20.535156 20.539063-20.535156 2.691406 0 5.261719.523438 7.621093 1.46875 4.554688-8.15625 13.265626-13.679688 23.273438-13.679688 12.992188 0 23.808594 9.308594 26.160156 21.617188.699219-.097656 1.414063-.15625 2.144532-.15625 7.066406 0 12.984374 4.894531 14.566406 11.472656zm0 0" fill="#d0f6ff"/><path d="m312.8125 111.519531c0-.054687-.003906-.109375-.003906-.160156 0-9.949219 8.066406-18.011719 18.011718-18.011719 2.363282 0 4.621094.457032 6.6875 1.285156 3.996094-7.15625 11.636719-11.996093 20.414063-11.996093 11.394531 0 20.882813 8.160156 22.945313 18.957031.613281-.085938 1.242187-.132812 1.878906-.132812 6.199218 0 11.390625 4.289062 12.777344 10.058593zm0 0" fill="#fff"/><path d="m330.386719 111.519531c0-.03125 0-.0625 0-.09375 0-5.71875 4.636719-10.355469 10.355469-10.355469 1.359374 0 2.65625.265626 3.84375.738282 2.296874-4.113282 6.691406-6.898438 11.738281-6.898438 6.554687 0 12.007812 4.695313 13.195312 10.902344.351563-.050781.710938-.078125 1.082031-.078125 3.5625 0 6.546876 2.46875 7.34375 5.785156zm0 0" fill="#d0f6ff"/><path d="m373.414062 184.132812c0-.046874-.003906-.09375-.003906-.144531 0-8.867187 7.191406-16.054687 16.058594-16.054687 2.105469 0 4.117188.410156 5.960938 1.144531 3.558593-6.378906 10.371093-10.691406 18.195312-10.691406 10.160156 0 18.617188 7.273437 20.457031 16.898437.546875-.078125 1.105469-.121094 1.675781-.121094 5.523438 0 10.152344 3.824219 11.390626 8.972657h-73.734376zm0 0" fill="#fff"/><path d="m389.082031 184.132812c0-.027343-.003906-.054687-.003906-.082031 0-5.097656 4.136719-9.234375 9.234375-9.234375 1.210938 0 2.367188.238282 3.425781.660156 2.050781-3.667968 5.964844-6.148437 10.464844-6.148437 5.84375 0 10.707031 4.183594 11.765625 9.71875.3125-.042969.636719-.070313.960938-.070313 3.179687 0 5.839843 2.199219 6.550781 5.15625zm0 0" fill="#d0f6ff"/><path d="m52.789062 197.007812c0-.046874-.003906-.09375-.003906-.144531 0-8.867187 7.1875-16.054687 16.054688-16.054687 2.109375 0 4.117187.410156 5.960937 1.144531 3.5625-6.378906 10.375-10.691406 18.199219-10.691406 10.160156 0 18.617188 7.273437 20.453125 16.898437.550781-.078125 1.109375-.121094 1.679687-.121094 5.523438 0 10.152344 3.824219 11.390626 8.972657h-73.734376zm0 0" fill="#fff"/><path d="m68.453125 197.007812c0-.027343 0-.054687 0-.082031 0-5.097656 4.132813-9.234375 9.234375-9.234375 1.210938 0 2.367188.238282 3.425781.660156 2.046875-3.667968 5.964844-6.148437 10.464844-6.148437 5.84375 0 10.703125 4.183594 11.761719 9.71875.316406-.042969.636718-.070313.964844-.070313 3.175781 0 5.835937 2.199219 6.550781 5.15625zm0 0" fill="#d0f6ff"/><path d="m162.414062 164.710938 3.316407-9.4375 180.589843 63.433593-3.3125 9.433594zm0 0" fill="#20273a"/><path d="m264.734375 481.613281-51.332031-.699219c-4.289063-14.964843 9.21875-14.78125 5.675781-34.257812-4.800781-26.445312-23.140625-26.691406-34.03125-64.707031-3.6875-12.839844-5.222656-22.804688-5.570313-31.601563-1.238281-31.738281 13.019532-48.320312-1.878906-130.269531l170.136719 2.320313c-22.183594 81.445312-44.488281 97.914062-57.820313 129.453124-3.699218 8.742188-6.703124 18.644532-8.816406 31.40625-6.285156 37.777344 12.050782 38.027344 4.894532 64.308594-5.273438 19.355469-18.78125 19.171875-21.257813 34.046875zm0 0" fill="#0f9be8"/><path d="m264.734375 481.613281-51.332031-.699219c-4.289063-14.964843 9.21875-14.78125 5.675781-34.257812-4.800781-26.445312-23.140625-26.691406-34.03125-64.707031-3.6875-12.839844-5.222656-22.804688-5.570313-31.601563l110.4375 1.503906c-3.695312 8.742188-6.703124 18.644532-8.816406 31.40625-6.285156 37.777344 12.054688 38.027344 4.894532 64.308594-5.273438 19.355469-18.78125 19.171875-21.257813 34.046875zm0 0" fill="#0066e8"/><path d="m242.886719 481.316406-7.085938-.097656c-.695312-7.828125 2.734375-12.308594 5.996094-16.5625 3.296875-4.308594 6.339844-8.277344 6.488281-17.601562.164063-10.679688-3.378906-16.324219-7.800781-23.386719-5.089844-8.113281-11.472656-18.285157-13.523437-41.148438-1.074219-12.050781-.644532-22.300781.699218-31.515625 1.898438-13.066406 5.609375-24.054687 9.359375-35.167968 7.015625-20.773438 13.964844-39.820313 14.824219-94.746094l23.484375.320312c-5.179687 66.074219-15.859375 90.433594-23.90625 109.945313-2.867187 6.945312-5.449219 13.199219-7.410156 19.871093-2.613281 8.878907-4.144531 18.496094-3.789063 31.472657.503906 18.707031 4.816406 26.503906 9.40625 34.777343 4.410156 7.957032 8.949219 16.15625 7.886719 29.703126-.898437 11.441406-5.320313 16.691406-8.9375 21-3.222656 3.832031-5.855469 6.957031-5.691406 13.136718zm0 0" fill="#fff"/><path d="m257.503906 481.660156-7.078125-.09375c0-.050781 0-.105468.011719-.148437.34375-7.707031 4.335938-12.140625 8.125-16.339844 3.859375-4.296875 7.402344-8.238281 8.746094-17.519531 1.546875-10.617188-1.269532-16.238282-4.78125-23.261719-4.042969-8.0625-9.113282-18.179687-8.214844-40.902344.488281-12.261719 2.316406-22.640625 4.945312-31.960937 3.5625-12.679688 8.597657-23.398438 13.6875-34.234375 9.679688-20.605469 19.269532-41.046875 27.183594-95.449219l23.386719.316406c-13.632813 65.457032-27.644531 91.175782-38.1875 110.53125-3.621094 6.65625-6.902344 12.675782-9.660156 19.058594-3.902344 9-6.777344 18.710938-8.125 31.917969-1.902344 18.597656 1.410156 26.335937 4.929687 34.566406 3.382813 7.910156 6.871094 16.070313 4.066406 29.542969-2.375 11.386718-7.464843 16.617187-11.644531 20.898437-3.691406 3.777344-6.703125 6.867188-7.367187 12.933594-.011719.050781-.019532.09375-.023438.144531zm0 0" fill="#ffd112"/><path d="m227.726562 481.257812-7.078124-.097656c-.007813-.050781-.019532-.09375-.027344-.148437-1.675782-7.734375 1.125-12.183594 3.785156-16.398438 2.71875-4.308593 5.210938-8.269531 4.109375-17.585937-1.253906-10.65625-5.539063-16.292969-10.902344-23.339844-6.152343-8.09375-13.863281-18.246094-18.953125-41.050781-2.753906-12.308594-3.652344-22.722657-3.496094-32.074219.214844-12.726562 2.402344-23.484375 4.617188-34.359375 4.214844-20.679687 8.394531-41.195313 1.945312-95.792969l23.386719.316406c3.65625 65.691407-3.523437 91.503907-8.929687 110.925782-1.859375 6.683594-3.542969 12.726562-4.621094 19.132812-1.511719 9.03125-1.804688 18.777344.324219 32.03125 3.007812 18.664063 8.339843 26.429688 14.019531 34.691406 5.453125 7.9375 11.082031 16.125 11.828125 29.644532.644531 11.429687-3.058594 16.679687-6.097656 20.976562-2.683594 3.792969-4.863281 6.894532-3.925781 12.980469 0 .042969.007812.09375.015624.148437zm0 0" fill="#ffd112"/><path d="m257.527344 481.515625-7.089844-.097656c.34375-7.707031 4.335938-12.140625 8.125-16.339844 3.859375-4.296875 7.402344-8.238281 8.746094-17.523437 1.546875-10.617188-1.269532-16.234376-4.78125-23.257813-4.042969-8.0625-9.113282-18.179687-8.214844-40.902344.488281-12.261719 2.316406-22.640625 4.945312-31.960937l16.410157.222656c-3.902344 8.996094-6.777344 18.710938-8.125 31.917969-1.902344 18.59375 1.410156 26.335937 4.929687 34.566406 3.382813 7.910156 6.871094 16.070313 4.066406 29.539063-2.375 11.386718-7.464843 16.621093-11.644531 20.902343-3.691406 3.777344-6.703125 6.867188-7.367187 12.933594zm0 0" fill="#ff9f00"/><path d="m227.710938 481.109375-7.089844-.097656c-1.675782-7.738281 1.125-12.183594 3.785156-16.398438 2.71875-4.3125 5.210938-8.269531 4.109375-17.585937-1.253906-10.65625-5.539063-16.292969-10.902344-23.34375-6.152343-8.089844-13.863281-18.246094-18.953125-41.046875-2.753906-12.308594-3.652344-22.722657-3.496094-32.074219l16.398438.222656c-1.511719 9.027344-1.804688 18.777344.324219 32.03125 3.007812 18.660156 8.34375 26.429688 14.019531 34.691406 5.453125 7.933594 11.082031 16.125 11.828125 29.644532.644531 11.429687-3.058594 16.679687-6.097656 20.976562-2.683594 3.789063-4.863281 6.894532-3.925781 12.980469zm0 0" fill="#ff9f00"/><path d="m242.886719 481.316406-7.085938-.097656c-.695312-7.828125 2.734375-12.308594 5.996094-16.5625 3.296875-4.308594 6.339844-8.277344 6.488281-17.601562.164063-10.679688-3.378906-16.324219-7.800781-23.386719-5.089844-8.113281-11.472656-18.285157-13.523437-41.148438-1.074219-12.050781-.644532-22.300781.699218-31.515625l16.347656.222656c-2.609374 8.878907-4.140624 18.496094-3.789062 31.472657.507812 18.707031 4.820312 26.503906 9.410156 34.777343 4.410156 7.957032 8.949219 16.15625 7.882813 29.703126-.894531 11.441406-5.316407 16.691406-8.9375 21-3.21875 3.832031-5.851563 6.957031-5.6875 13.136718zm0 0" fill="#d0f6ff"/><path d="m350.660156 238.925781-180.023437-2.453125-3.28125-15.449218-3.277344-15.453126 193.980469 2.644532-3.703125 15.355468zm0 0" fill="#474f6f"/><path d="m350.660156 238.925781-180.023437-2.453125-3.28125-15.449218 187 2.546874zm0 0" fill="#20273a"/><path d="m174.210938 140.488281v358.160157c-3.410157-1.148438-6.789063-2.359376-10.132813-3.660157-3.417969-1.308593-6.796875-2.6875-10.136719-4.148437v-350.351563zm0 0" fill="#474f6f"/><path d="m174.210938 140.488281v358.160157c-3.410157-1.148438-6.789063-2.359376-10.132813-3.660157v-354.5zm0 0" fill="#20273a"/><g fill="#fff"><path d="m410.550781 319.339844c-2.761719 0-5-2.238282-5-5 0-2.761719 2.238281-5 5-5 1.113281 0 2.023438-.90625 2.023438-2.019532 0-1.117187-.910157-2.023437-2.023438-2.023437h-75.550781c-2.761719 0-5-2.238281-5-5s2.238281-5 5-5h75.550781c6.628907 0 12.023438 5.394531 12.023438 12.023437 0 6.628907-5.394531 12.019532-12.023438 12.019532zm0 0"/><path d="m384.746094 263.703125h-29.695313c-2.761719 0-5-2.238281-5-5s2.238281-5 5-5h29.695313c1.117187 0 2.023437-.90625 2.023437-2.023437 0-1.113282-.90625-2.019532-2.023437-2.019532-2.761719 0-5-2.238281-5-5 0-2.761718 2.238281-5 5-5 6.632812 0 12.023437 5.390625 12.023437 12.019532 0 6.628906-5.390625 12.023437-12.023437 12.023437zm0 0"/><path d="m420.816406 284.773438h-74.484375c-2.761719 0-5-2.242188-5-5 0-2.761719 2.238281-5 5-5h74.484375c4.984375 0 9.042969-4.058594 9.042969-9.046876 0-4.988281-4.058594-9.046874-9.042969-9.046874-4.988281 0-9.046875 4.058593-9.046875 9.046874 0 2.761719-2.238281 5-5 5s-5-2.238281-5-5c0-10.5 8.542969-19.046874 19.046875-19.046874 10.5 0 19.042969 8.546874 19.042969 19.046874 0 10.503907-8.542969 19.046876-19.042969 19.046876zm0 0"/></g></svg>