<svg height="512pt" viewBox="0 0 512 512" width="512pt" xmlns="http://www.w3.org/2000/svg"><path d="m512 256c0 141.386719-114.613281 256-256 256s-256-114.613281-256-256 114.613281-256 256-256 256 114.613281 256 256zm0 0" fill="#65b2ff"/><path d="m512 256c0 26.050781-3.890625 51.191406-11.128906 74.871094-32.011719 104.847656-129.542969 181.128906-244.871094 181.128906-104.558594 0-194.488281-62.699219-234.230469-152.550781-14-31.628907-21.769531-66.628907-21.769531-103.449219 0-46.21875 12.25-89.570312 33.679688-127 44.121093 77.070312 127.160156 129 222.320312 129s178.210938-51.929688 222.320312-129c21.429688 37.429688 33.679688 80.78125 33.679688 127zm0 0" fill="#0f9be8"/><path d="m30.742188 377.703125c7.15625 13.21875 15.429687 25.738281 24.71875 37.425781 46.898437 59.019532 119.300781 96.871094 200.539062 96.871094s153.640625-37.851562 200.539062-96.871094c9.289063-11.6875 17.5625-24.207031 24.71875-37.425781zm0 0" fill="#0066e8"/><path d="m188.800781 168.34375h-18.222656c0-9.648438-7.84375-17.496094-17.492187-17.496094-2.609376 0-5.078126.574219-7.300782 1.59375 2.398438 4.792969 3.746094 10.1875 3.746094 15.902344v9.109375h-32.164062v-9.109375c0-5.714844 1.347656-11.109375 3.738281-15.902344-2.214844-1.019531-4.695313-1.59375-7.289063-1.59375-9.652344 0-17.496094 7.847656-17.496094 17.496094h-18.222656c0-19.699219 16.027344-35.714844 35.71875-35.714844 7.242188 0 13.992188 2.167969 19.632813 5.894532 5.640625-3.726563 12.390625-5.894532 19.636719-5.894532 19.6875 0 35.714843 16.015625 35.714843 35.714844zm0 0" fill="#474f6f"/><path d="m188.800781 168.34375h-18.222656c0-9.648438-7.84375-17.496094-17.492187-17.496094-2.609376 0-5.078126.574219-7.300782 1.59375 2.398438 4.792969 3.746094 10.1875 3.746094 15.902344v9.109375h-16.082031v-38.933594c5.640625-3.726562 12.390625-5.894531 19.636719-5.894531 19.6875.003906 35.714843 16.019531 35.714843 35.71875zm0 0" fill="#323b5a"/><path d="m430.75 337.765625h-20c0-10.589844-8.609375-19.199219-19.199219-19.199219-2.859375 0-5.570312.628906-8.011719 1.75 2.632813 5.261719 4.109376 11.179688 4.109376 17.449219v10h-35.296876v-10c0-6.269531 1.476563-12.1875 4.097657-17.449219-2.429688-1.121094-5.148438-1.75-8-1.75-10.589844 0-19.199219 8.609375-19.199219 19.199219h-20c0-21.617187 17.589844-39.199219 39.199219-39.199219 7.949219 0 15.359375 2.378906 21.550781 6.46875 6.191406-4.089844 13.601562-6.46875 21.550781-6.46875 21.609375 0 39.199219 17.582032 39.199219 39.199219zm0 0" fill="#474f6f"/><path d="m430.75 337.765625h-20c0-10.589844-8.609375-19.199219-19.199219-19.199219-2.859375 0-5.570312.628906-8.011719 1.75 2.632813 5.261719 4.109376 11.179688 4.109376 17.449219v10h-17.648438v-42.730469c6.191406-4.089844 13.601562-6.46875 21.550781-6.46875 21.609375 0 39.199219 17.582032 39.199219 39.199219zm0 0" fill="#323b5a"/><path d="m400.375 104.035156h-16.253906c0-8.609375-7-15.605468-15.605469-15.605468-2.324219 0-4.527344.511718-6.511719 1.421874 2.140625 4.273438 3.339844 9.085938 3.339844 14.183594v8.125h-28.6875v-8.125c0-5.097656 1.203125-9.90625 3.332031-14.183594-1.976562-.910156-4.1875-1.421874-6.503906-1.421874-8.605469 0-15.605469 6.996093-15.605469 15.605468h-16.253906c0-17.574218 14.296875-31.859375 31.859375-31.859375 6.460937 0 12.484375 1.933594 17.515625 5.257813 5.03125-3.324219 11.054688-5.257813 17.515625-5.257813 17.5625 0 31.859375 14.285157 31.859375 31.859375zm0 0" fill="#474f6f"/><path d="m400.375 104.035156h-16.253906c0-8.609375-7-15.605468-15.605469-15.605468-2.324219 0-4.527344.511718-6.511719 1.421874 2.140625 4.273438 3.339844 9.085938 3.339844 14.183594v8.125h-14.34375v-34.726562c5.03125-3.324219 11.054688-5.261719 17.515625-5.261719 17.5625.003906 31.859375 14.289063 31.859375 31.863281zm0 0" fill="#323b5a"/><path d="m231.9375 345.304688c0-.132813.007812-.265626.007812-.398438 0-24.421875-19.792968-44.214844-44.214843-44.214844-5.800781 0-11.335938 1.128906-16.410157 3.160156-9.804687-17.566406-28.566406-29.453124-50.113281-29.453124-27.976562 0-51.265625 20.039062-56.328125 46.542968-1.507812-.214844-3.046875-.335937-4.617187-.335937-15.210938 0-27.957031 10.53125-31.363281 24.699219zm0 0" fill="#fff"/><path d="m188.796875 345.304688c0-.078126.003906-.152344.003906-.230469 0-14.042969-11.382812-25.425781-25.421875-25.425781-3.339844 0-6.519531.652343-9.4375 1.820312-5.640625-10.101562-16.425781-16.9375-28.816406-16.9375-16.089844 0-29.480469 11.523438-32.390625 26.765625-.867187-.125-1.753906-.195313-2.65625-.195313-8.746094 0-16.074219 6.058594-18.03125 14.203126zm0 0" fill="#d0f6ff"/><path d="m213.167969 256.019531c-.003907-.171875-.015625-.347656-.015625-.523437 0-32.070313 26.003906-58.074219 58.078125-58.074219 7.617187 0 14.886719 1.484375 21.554687 4.152344 12.878906-23.070313 37.519532-38.683594 65.820313-38.683594 36.746093 0 67.335937 26.320313 73.984375 61.128906 1.980468-.28125 4.003906-.4375 6.0625-.4375 19.980468 0 36.722656 13.832031 41.195312 32.4375zm0 0" fill="#fff"/><path d="m269.832031 256.019531c-.003906-.097656-.007812-.199219-.007812-.300781 0-18.441406 14.949219-33.394531 33.394531-33.394531 4.382812 0 8.5625.855469 12.394531 2.386719 7.40625-13.265626 21.574219-22.242188 37.847657-22.242188 21.132812 0 38.722656 15.132812 42.542968 35.152344 1.140625-.164063 2.304688-.253906 3.488282-.253906 11.488281 0 21.113281 7.953124 23.6875 18.652343zm0 0" fill="#d0f6ff"/><path d="m419.039062 453.371094c-12.128906 10.039062-25.210937 18.96875-39.070312 26.660156-28.6875 15.910156-60.757812 26.46875-94.859375 30.328125h-109.6875c.847656-3.550781 2.128906-6.929687 3.777344-10.089844 7.429687-14.320312 22.390625-24.097656 39.640625-24.097656 2.179687 0 4.308594.167969 6.398437.457031 7-36.6875 39.242188-64.429687 77.980469-64.429687 29.820312 0 55.800781 16.460937 69.371094 40.769531 7.03125-2.808594 14.691406-4.367188 22.71875-4.367188 8.421875 0 16.429687 1.699219 23.730468 4.769532zm0 0" fill="#fff"/><path d="m379.96875 480.03125c-28.6875 15.910156-60.757812 26.46875-94.859375 30.328125h-49.960937c2.722656-11.28125 12.863281-19.660156 24.972656-19.660156 1.25 0 2.480468.101562 3.679687.269531 4.027344-21.097656 22.570313-37.046875 44.839844-37.046875 17.148437 0 32.078125 9.457031 39.890625 23.4375 4.039062-1.609375 8.449219-2.507813 13.058594-2.507813 6.738281 0 13.03125 1.886719 18.378906 5.179688zm0 0" fill="#d0f6ff"/></svg>