<svg height="512pt" viewBox="0 0 512 512" width="512pt" xmlns="http://www.w3.org/2000/svg"><path d="m512 256c0 141.378906-114.621094 256-256 256-64.410156 0-123.261719-23.789062-168.261719-63.070312-3.457031-3.007813-6.839843-6.121094-10.128906-9.320313-3.46875-3.378906-6.859375-6.859375-10.140625-10.429687-41.890625-45.578126-67.46875-106.390626-67.46875-173.179688 0-141.378906 114.621094-256 256-256s256 114.621094 256 256zm0 0" fill="#b5e237"/><path d="m512 256c0 26.050781-3.890625 51.191406-11.128906 74.871094-32.011719 104.847656-129.542969 181.128906-244.871094 181.128906-104.558594 0-194.488281-62.699219-234.230469-152.550781-14-31.628907-21.769531-66.628907-21.769531-103.449219 0-46.21875 12.25-89.570312 33.679688-127 44.121093 77.070312 127.160156 129 222.320312 129s178.210938-51.929688 222.320312-129c21.429688 37.429688 33.679688 80.78125 33.679688 127zm0 0" fill="#95d600"/><path d="m30.742188 377.703125c7.15625 13.21875 15.429687 25.738281 24.71875 37.425781 46.898437 59.019532 119.300781 96.871094 200.539062 96.871094s153.640625-37.851562 200.539062-96.871094c9.289063-11.6875 17.5625-24.207031 24.71875-37.425781zm0 0" fill="#85af12"/><path d="m82.007812 117.003906c0-.109375-.007812-.214844-.007812-.324218 0-19.722657 15.988281-35.710938 35.714844-35.710938 4.683594 0 9.152344.914062 13.253906 2.550781 7.917969-14.183593 23.070312-23.785156 40.472656-23.785156 22.597656 0 41.410156 16.183594 45.496094 37.589844 1.21875-.175781 2.464844-.269531 3.730469-.269531 12.285156 0 22.582031 8.503906 25.332031 19.949218zm0 0" fill="#fff"/><path d="m116.851562 117.003906c0-.0625-.003906-.125-.003906-.1875 0-11.339844 9.195313-20.535156 20.535156-20.535156 2.695313 0 5.265626.523438 7.625 1.46875 4.550782-8.15625 13.265626-13.679688 23.269532-13.679688 12.996094 0 23.8125 9.308594 26.164062 21.617188.699219-.097656 1.414063-.15625 2.144532-.15625 7.0625 0 12.984374 4.894531 14.566406 11.472656zm0 0" fill="#d0f6ff"/><path d="m331.632812 111.519531c0-.054687-.003906-.109375-.003906-.160156 0-9.949219 8.0625-18.011719 18.011719-18.011719 2.363281 0 4.617187.457032 6.683594 1.285156 3.996093-7.15625 11.636719-11.996093 20.414062-11.996093 11.398438 0 20.882813 8.160156 22.945313 18.957031.617187-.085938 1.242187-.132812 1.882812-.132812 6.195313 0 11.386719 4.289062 12.773438 10.058593zm0 0" fill="#fff"/><path d="m349.203125 111.519531c0-.03125 0-.0625 0-.09375 0-5.71875 4.636719-10.355469 10.355469-10.355469 1.359375 0 2.65625.265626 3.84375.738282 2.296875-4.113282 6.691406-6.898438 11.738281-6.898438 6.554687 0 12.011719 4.695313 13.195313 10.902344.351562-.050781.714843-.078125 1.082031-.078125 3.5625 0 6.550781 2.46875 7.347656 5.785156zm0 0" fill="#d0f6ff"/><path d="m403.265625 177.550781c0-.046875-.003906-.097656-.003906-.144531 0-8.867188 7.1875-16.058594 16.054687-16.058594 2.109375 0 4.117188.410156 5.960938 1.148438 3.5625-6.378906 10.375-10.695313 18.199218-10.695313 10.160157 0 18.617188 7.277344 20.457032 16.902344.546875-.078125 1.105468-.121094 1.675781-.121094 5.523437 0 10.152344 3.824219 11.390625 8.96875zm0 0" fill="#fff"/><path d="m418.933594 177.550781c0-.027343-.003906-.054687-.003906-.082031 0-5.101562 4.132812-9.234375 9.234374-9.234375 1.210938 0 2.367188.238281 3.425782.660156 2.046875-3.667969 5.964844-6.148437 10.464844-6.148437 5.84375 0 10.707031 4.183594 11.761718 9.71875.316406-.046875.636719-.070313.964844-.070313 3.175781 0 5.835938 2.199219 6.550781 5.15625zm0 0" fill="#d0f6ff"/><path d="m244.878906 177.550781c0-.046875-.007812-.097656-.007812-.144531 0-8.867188 7.191406-16.058594 16.058594-16.058594 2.105468 0 4.117187.410156 5.960937 1.148438 3.558594-6.378906 10.375-10.695313 18.199219-10.695313 10.160156 0 18.617187 7.277344 20.453125 16.902344.550781-.078125 1.109375-.121094 1.679687-.121094 5.523438 0 10.152344 3.824219 11.386719 8.96875zm0 0" fill="#fff"/><path d="m260.542969 177.550781c0-.027343 0-.054687 0-.082031 0-5.101562 4.132812-9.234375 9.230469-9.234375 1.210937 0 2.367187.238281 3.429687.660156 2.046875-3.667969 5.964844-6.148437 10.460937-6.148437 5.84375 0 10.707032 4.183594 11.765626 9.71875.3125-.046875.636718-.070313.964843-.070313 3.175781 0 5.835938 2.199219 6.546875 5.15625zm0 0" fill="#d0f6ff"/><path d="m108.875 334.738281-37.609375-156.839843h121.515625v10h-108.835938l34.65625 144.507812zm0 0" fill="#20273a"/><path d="m87.738281 157.910156v291.019532c-3.457031-3.007813-6.839843-6.121094-10.128906-9.320313-3.46875-3.378906-6.859375-6.859375-10.140625-10.429687v-271.269532zm0 0" fill="#474f6f"/><path d="m87.738281 157.910156v291.019532c-3.457031-3.007813-6.839843-6.121094-10.128906-9.320313v-281.699219zm0 0" fill="#20273a"/><path d="m386.394531 374.199219-23.851562 45.464843c-15.285157-2.949218-9.007813-14.910156-27.980469-20.5625-25.753906-7.683593-34.277344 8.558594-73.105469 1.070313-13.117187-2.523437-22.699219-5.660156-30.699219-9.328125-28.867187-13.257812-37.199218-33.472656-117.019531-57.269531l79.042969-150.675781c62.597656 56.632812 67.191406 83.976562 89.285156 110.136718 6.121094 7.253906 13.59375 14.414063 24.015625 22.074219 30.851563 22.699219 39.371094 6.457031 59.566407 24.734375 14.875 13.457031 8.601562 25.421875 20.746093 34.355469zm0 0" fill="#0f9be8"/><path d="m386.394531 374.199219-23.851562 45.464843c-15.285157-2.949218-9.007813-14.910156-27.980469-20.5625-25.753906-7.683593-34.277344 8.558594-73.105469 1.070313-13.117187-2.523437-22.699219-5.660156-30.699219-9.328125l51.308594-97.808594c6.121094 7.253906 13.59375 14.414063 24.015625 22.074219 30.851563 22.699219 39.371094 6.457031 59.566407 24.734375 14.875 13.457031 8.601562 25.421875 20.746093 34.355469zm0 0" fill="#0066e8"/><path d="m376.242188 393.550781-3.292969 6.277344c-7.292969-2.921875-9.738281-8.011719-12.054688-12.839844-2.351562-4.890625-4.511719-9.402343-12.761719-13.753906-9.449218-4.976563-16.085937-4.371094-24.386718-3.621094-9.539063.867188-21.496094 1.957031-42.8125-6.5625-11.234375-4.492187-20.179688-9.511719-27.789063-14.882812-10.792969-7.605469-18.914062-15.882813-27.128906-24.257813-15.351563-15.652344-29.195313-30.46875-77.785156-56.085937l10.914062-20.800781c56.578125 34.515624 73.46875 55.0625 87.226563 71.066406 4.898437 5.699218 9.308594 10.835937 14.371094 15.601562 6.734374 6.34375 14.617187 12.0625 26.351562 17.617188 16.910156 8.015625 25.816406 7.695312 35.269531 7.347656 9.089844-.335938 18.457031-.671875 30.058594 6.40625 9.796875 5.976562 12.476563 12.296875 14.679687 17.472656 1.960938 4.605469 3.554688 8.367188 9.140626 11.015625zm0 0" fill="#fff"/><path d="m383.164062 380.671875-3.285156 6.269531c-.046875-.023437-.09375-.046875-.128906-.078125-6.71875-3.792969-8.863281-9.359375-10.894531-14.636719-2.085938-5.382812-4-10.328124-11.667969-15.730468-8.769531-6.179688-15.050781-6.214844-22.90625-6.257813-9.019531-.042969-20.335938-.097656-40.191406-11.179687-10.71875-5.984375-19.144532-12.3125-26.265625-18.871094-9.695313-8.917969-16.976563-18.257812-24.339844-27.699219-13.996094-17.957031-27.886719-35.757812-72.820313-67.429687l10.867188-20.710938c52.203125 41.773438 68.800781 65.90625 81.289062 84.066406 4.296876 6.242188 8.183594 11.890626 12.625 17.238282 6.257813 7.550781 13.621094 14.507812 24.789063 21.6875 15.71875 10.109375 24.125 10.65625 33.054687 11.246094 8.582032.558593 17.4375 1.140624 28.183594 9.734374 9.082032 7.273438 11.441406 14.179688 13.371094 19.84375 1.695312 5 3.089844 9.085938 8.199219 12.421876.042969.03125.078125.0625.121093.085937zm0 0" fill="#ffd112"/><path d="m369.332031 407.042969-3.289062 6.269531c-.050781-.015625-.09375-.027344-.144531-.042969-7.65625-2.003906-10.359376-6.515625-12.914063-10.792969-2.613281-4.375-5.011719-8.390624-13.820313-11.621093-10.070312-3.703125-17.035156-2.433594-25.75-.839844-10 1.824219-22.546874 4.109375-45.183593-1.667969-12.21875-3.117187-21.914063-7.027344-30.183594-11.398437-11.253906-5.949219-19.855469-12.765625-28.550781-19.664063-16.535156-13.113281-32.941406-26.125-84.546875-45.078125l10.863281-20.714843c60.238281 26.464843 80.007812 44.546874 94.882812 58.15625 5.117188 4.683593 9.746094 8.917968 14.96875 12.777343 7.371094 5.433594 15.929688 10.105469 28.714844 14.203125 18.003906 5.765625 27.34375 4.523438 37.277344 3.195313 9.546875-1.273438 19.394531-2.585938 31.789062 2.867187 10.484376 4.59375 13.492188 10.273438 15.949219 14.925782 2.167969 4.105468 3.945313 7.457031 9.796875 9.375.039063.019531.089844.035156.140625.050781zm0 0" fill="#ffd112"/><path d="m383.046875 380.585938-3.296875 6.277343c-6.71875-3.792969-8.863281-9.359375-10.894531-14.636719-2.085938-5.382812-4-10.328124-11.667969-15.730468-8.769531-6.179688-15.050781-6.214844-22.90625-6.257813-9.019531-.042969-20.335938-.097656-40.191406-11.179687-10.71875-5.984375-19.144532-12.3125-26.265625-18.871094l7.625-14.535156c6.257812 7.550781 13.621093 14.507812 24.785156 21.6875 15.722656 10.113281 24.125 10.660156 33.054687 11.246094 8.582032.558593 17.441407 1.140624 28.1875 9.738281 9.078126 7.269531 11.441407 14.175781 13.367188 19.839843 1.699219 5 3.09375 9.085938 8.203125 12.421876zm0 0" fill="#ff9f00"/><path d="m369.191406 406.992188-3.292968 6.277343c-7.65625-2.003906-10.359376-6.515625-12.914063-10.792969-2.613281-4.375-5.011719-8.390624-13.820313-11.621093-10.070312-3.703125-17.035156-2.433594-25.75-.839844-10 1.824219-22.546874 4.109375-45.183593-1.667969-12.21875-3.117187-21.914063-7.027344-30.183594-11.398437l7.617187-14.523438c7.371094 5.433594 15.929688 10.105469 28.714844 14.203125 18.003906 5.765625 27.34375 4.523438 37.277344 3.195313 9.546875-1.273438 19.394531-2.585938 31.789062 2.867187 10.484376 4.59375 13.492188 10.273438 15.949219 14.925782 2.164063 4.105468 3.945313 7.457031 9.796875 9.375zm0 0" fill="#ff9f00"/><path d="m376.242188 393.550781-3.292969 6.277344c-7.292969-2.921875-9.738281-8.011719-12.054688-12.839844-2.351562-4.890625-4.511719-9.402343-12.761719-13.753906-9.449218-4.976563-16.085937-4.371094-24.386718-3.621094-9.539063.867188-21.496094 1.957031-42.8125-6.5625-11.234375-4.492187-20.179688-9.511719-27.789063-14.882812l7.597657-14.476563c6.734374 6.34375 14.617187 12.0625 26.351562 17.617188 16.910156 8.011718 25.816406 7.695312 35.269531 7.34375 9.089844-.332032 18.457031-.671875 30.058594 6.410156 9.796875 5.976562 12.476563 12.292969 14.679687 17.46875 1.960938 4.609375 3.554688 8.371094 9.140626 11.019531zm0 0" fill="#d0f6ff"/><path d="m208.847656 187.769531-83.640625 159.429688-15.265625-4.0625-15.257812-4.070313 90.121094-171.792968 12.019531 10.25zm0 0" fill="#474f6f"/><path d="m208.847656 187.769531-83.640625 159.429688-15.265625-4.0625 86.882813-165.613281zm0 0" fill="#20273a"/><g fill="#fff"><path d="m432.953125 311.730469c-10.5 0-19.042969-8.546875-19.042969-19.046875 0-2.761719 2.238282-5 5-5 2.761719 0 5 2.238281 5 5 0 4.988281 4.058594 9.046875 9.042969 9.046875 4.988281 0 9.046875-4.058594 9.046875-9.046875 0-4.988282-4.058594-9.046875-9.046875-9.046875h-148.46875c-2.761719 0-5-2.238281-5-5 0-2.757813 2.238281-5 5-5h148.46875c10.503906 0 19.046875 8.546875 19.046875 19.046875s-8.542969 19.046875-19.046875 19.046875zm0 0"/><path d="m339.285156 237.511719h-79.195312c-2.761719 0-5-2.242188-5-5 0-2.761719 2.238281-5 5-5h79.195312c1.113282 0 2.019532-.910157 2.019532-2.023438 0-1.117187-.90625-2.023437-2.019532-2.023437-2.761718 0-5-2.238282-5-5 0-2.761719 2.238282-5 5-5 6.628906 0 12.019532 5.394531 12.019532 12.023437 0 6.628907-5.390626 12.023438-12.019532 12.023438zm0 0"/><path d="m375.351562 258.578125h-98.878906c-2.761718 0-5-2.238281-5-5s2.238282-5 5-5h98.878906c4.988282 0 9.046876-4.058594 9.046876-9.046875 0-4.984375-4.058594-9.042969-9.046876-9.042969-4.988281 0-9.046874 4.058594-9.046874 9.042969 0 2.761719-2.238282 5-5 5-2.761719 0-5-2.238281-5-5 0-10.5 8.542968-19.042969 19.046874-19.042969 10.5 0 19.046876 8.542969 19.046876 19.042969-.003907 10.503906-8.546876 19.046875-19.046876 19.046875zm0 0"/><path d="m339.285156 320.488281c-2.761718 0-5-2.242187-5-5 0-2.761719 2.238282-5 5-5 1.113282 0 2.019532-.910156 2.019532-2.023437 0-1.117188-.90625-2.023438-2.019532-2.023438h-29.699218c-2.761719 0-5-2.238281-5-5 0-2.761718 2.238281-5 5-5h29.699218c6.628906 0 12.019532 5.394532 12.019532 12.023438s-5.390626 12.023437-12.019532 12.023437zm0 0"/></g></svg>