<svg height="512pt" viewBox="0 0 512 512" width="512pt" xmlns="http://www.w3.org/2000/svg"><path d="m512 256c0 141.386719-114.613281 256-256 256s-256-114.613281-256-256 114.613281-256 256-256 256 114.613281 256 256zm0 0" fill="#b5e237"/><path d="m512 256c0 26.050781-3.890625 51.191406-11.128906 74.871094-32.011719 104.847656-129.542969 181.128906-244.871094 181.128906-104.558594 0-194.488281-62.699219-234.230469-152.550781-14-31.628907-21.769531-66.628907-21.769531-103.449219 0-46.21875 12.25-89.570312 33.679688-127 44.121093 77.070312 127.160156 129 222.320312 129s178.210938-51.929688 222.320312-129c21.429688 37.429688 33.679688 80.78125 33.679688 127zm0 0" fill="#95d600"/><path d="m30.742188 377.703125c7.15625 13.21875 15.429687 25.738281 24.71875 37.425781 46.898437 59.019532 119.300781 96.871094 200.539062 96.871094s153.640625-37.851562 200.539062-96.871094c9.289063-11.6875 17.5625-24.207031 24.71875-37.425781zm0 0" fill="#85af12"/><path d="m330.886719 228.648438c-2.4375 5.050781-10.992188 6.285156-14.464844 10.628906-3.484375 4.367187-2.800781 12.976562-7.164063 16.460937-4.347656 3.472657-12.582031.902344-17.628906 3.339844-4.3125 2.082031-7.222656 8.402344-11.511718 10.882813-.664063.375-1.355469.671874-2.09375.835937-5.335938 1.214844-11.621094-4.675781-17.332032-4.675781-.785156 0-1.585937.113281-2.390625.3125-5.039062 1.179687-10.34375 5.410156-14.941406 4.363281-5.511719-1.257813-8.632813-9.316406-13.605469-11.71875-5.046875-2.433594-13.292968.132813-17.628906-3.339844-4.363281-3.484375-3.679688-12.09375-7.164062-16.460937-3.472657-4.34375-12.027344-5.578125-14.464844-10.625-2.402344-4.984375 1.941406-12.425782.683594-17.9375-1.214844-5.347656-8.378907-10.164063-8.378907-15.875 0-5.703125 7.164063-10.53125 8.378907-15.867188 1.257812-5.511718-3.085938-12.964844-.683594-17.9375 2.4375-5.058594 10.992187-6.292968 14.464844-10.636718 3.484374-4.355469 2.800781-12.976563 7.164062-16.460938 4.34375-3.460938 12.578125-.894531 17.628906-3.332031 4.984375-2.402344 8.09375-10.472657 13.605469-11.71875 3.992187-.902344 8.511719 2.164062 12.933594 3.761719 1.488281.539062 2.953125.914062 4.398437.914062 3.59375 0 7.410156-2.328125 11.078125-3.75 1.667969-.648438 3.285157-1.113281 4.851563-1.078125.476562 0 .949218.054687 1.402344.152344 5.511718 1.246093 8.621093 9.316406 13.605468 11.71875 5.046875 2.4375 13.292969-.128907 17.628906 3.332031 4.363282 3.484375 3.679688 12.105469 7.164063 16.460938 3.472656 4.34375 12.027344 5.578124 14.464844 10.636718 2.402343 4.972656-1.941407 12.425782-.683594 17.9375 1.210937 5.335938 8.378906 10.164063 8.378906 15.867188 0 5.710937-7.167969 10.527344-8.378906 15.875-1.257813 5.511718 3.085937 12.964844.683594 17.933594zm0 0" fill="#65b2ff"/><path d="m330.886719 228.648438c-2.4375 5.050781-10.992188 6.285156-14.464844 10.628906-3.484375 4.367187-2.800781 12.976562-7.164063 16.460937-4.347656 3.472657-12.582031.902344-17.628906 3.339844-4.3125 2.082031-7.222656 8.402344-11.511718 10.882813-.664063.375-1.355469.671874-2.09375.835937-5.335938 1.214844-11.621094-4.675781-17.332032-4.675781-.785156 0-1.585937.113281-2.390625.3125-.488281-1.117188-1.058593-1.996094-1.742187-2.546875-5.074219-4.046875-4.28125-14.046875-8.324219-19.117188-4.035156-5.039062-13.96875-6.484375-16.804687-12.347656-2.789063-5.789063 2.261718-14.433594.796874-20.828125-1.414062-6.21875-9.738281-11.808594-9.738281-18.445312 0-6.613282 8.324219-12.226563 9.738281-18.421876 1.464844-6.40625-3.585937-15.058593-.796874-20.835937 2.835937-5.875 12.769531-7.308594 16.804687-12.359375 3.96875-4.972656 3.273437-14.71875 8.058594-18.886719 1.488281.539063 2.953125.914063 4.398437.914063 3.59375 0 7.410156-2.324219 11.078125-3.746094 1.742188-.164062 3.410157-.464844 4.851563-1.082031.476562 0 .949218.054687 1.402344.15625 5.511718 1.246093 8.621093 9.316406 13.605468 11.71875 5.046875 2.4375 13.292969-.132813 17.628906 3.328125 4.363282 3.484375 3.679688 12.105468 7.164063 16.460937 3.472656 4.34375 12.027344 5.578125 14.464844 10.640625 2.402343 4.972656-1.941407 12.425782-.683594 17.9375 1.210937 5.335938 8.378906 10.164063 8.378906 15.863282 0 5.710937-7.167969 10.527343-8.378906 15.875-1.257813 5.515624 3.085937 12.96875.683594 17.9375zm0 0" fill="#0f9be8"/><path d="m330.886719 228.648438c-2.4375 5.050781-10.992188 6.285156-14.464844 10.628906-3.484375 4.367187-2.800781 12.976562-7.164063 16.460937-4.347656 3.472657-12.582031.902344-17.628906 3.339844-4.984375 2.402344-8.09375 10.460937-13.605468 11.71875-5.335938 1.214844-11.621094-4.675781-17.332032-4.675781v-142.558594c5.710938 0 11.996094-5.886719 17.332032-4.675781 5.511718 1.246093 8.621093 9.316406 13.605468 11.71875 5.046875 2.4375 13.292969-.132813 17.628906 3.328125 4.363282 3.484375 3.679688 12.105468 7.164063 16.460937 3.472656 4.34375 12.027344 5.578125 14.464844 10.640625 2.402343 4.972656-1.941407 12.425782-.683594 17.9375 1.210937 5.335938 8.378906 10.164063 8.378906 15.863282 0 5.710937-7.167969 10.527343-8.378906 15.875-1.257813 5.515624 3.085937 12.96875.683594 17.9375zm0 0" fill="#0066e8"/><path d="m439.289062 373.441406v61.257813c-.058593.0625-.117187.121093-.167968.179687-.871094.890625-1.75 1.769532-2.632813 2.640625-.75.761719-1.507812 1.5-2.277343 2.242188-.242188.238281-.492188.476562-.730469.707031-.890625.859375-1.78125 1.703125-2.679688 2.542969-.011719.019531-.019531.027343-.039062.039062-.960938.898438-1.933594 1.800781-2.910157 2.679688-.703124.640625-1.410156 1.269531-2.121093 1.898437-.140625.109375-.269531.230469-.410157.351563-.429687.378906-.851562.757812-1.28125 1.128906-.828124.730469-1.667968 1.449219-2.507812 2.171875-.902344.75-1.800781 1.507812-2.703125 2.25-1.019531.847656-2.046875 1.679688-3.089844 2.507812-1.238281.992188-2.476562 1.972657-3.738281 2.941407-.089844.070312-.179688.148437-.28125.21875-1 .769531-2 1.53125-3.019531 2.28125-.078125.058593-.148438.109375-.230469.167969-.089844.070312-.167969.140624-.257812.203124h-304.421876c-2.550781-1.890624-5.058593-3.832031-7.527343-5.8125-4.871094-3.890624-9.601563-7.960937-14.171875-12.199218v-70.398438c0-98.640625 79.960937-178.601562 178.601562-178.601562h1.019532c98.167968.550781 177.578124 80.300781 177.578124 178.601562zm0 0" fill="#ff3445"/><path d="m439.289062 373.441406v61.257813c-7.398437 7.589843-15.257812 14.722656-23.550781 21.339843-2.46875 1.980469-4.976562 3.921876-7.527343 5.8125h-239.761719v-98.453124c0-71.039063 37.242187-133.367188 93.261719-168.558594 98.167968.550781 177.578124 80.300781 177.578124 178.601562zm0 0" fill="#dd1265"/><path d="m439.289062 373.441406v61.257813c-7.398437 7.589843-15.257812 14.722656-23.550781 21.339843-2.46875 1.980469-4.976562 3.921876-7.527343 5.8125h-147.519532v-267.011718c98.636719 0 178.597656 79.960937 178.597656 178.601562zm0 0" fill="#ba0d5c"/><path d="m458.648438 412.441406c-1.699219 2.1875-3.429688 4.359375-5.1875 6.488282-.679688.820312-1.359376 1.640624-2.050782 2.449218-.710937.839844-1.421875 1.671875-2.148437 2.5-.792969.921875-1.601563 1.832032-2.421875 2.742188-.429688.480468-.859375.957031-1.308594 1.4375-.570312.640625-1.152344 1.28125-1.75 1.921875-.800781.871093-1.609375 1.730469-2.429688 2.578125-.679687.722656-1.371093 1.429687-2.0625 2.140625-.058593.0625-.117187.121093-.167968.179687-.871094.890625-1.75 1.78125-2.632813 2.640625-.75.761719-1.507812 1.5-2.277343 2.242188-.242188.238281-.492188.476562-.730469.707031-.890625.859375-1.78125 1.703125-2.679688 2.542969-.011719.019531-.019531.027343-.039062.039062-.960938.898438-1.933594 1.800781-2.910157 2.679688-.839843.757812-1.679687 1.519531-2.53125 2.25-2.128906 1.898437-4.300781 3.738281-6.492187 5.550781-1.019531.847656-2.046875 1.679688-3.089844 2.507812-1.238281.992188-2.476562 1.972657-3.738281 2.941407-.089844.070312-.179688.148437-.28125.21875-1.078125.832031-2.160156 1.652343-3.25 2.449219-.089844.070312-.167969.140624-.257812.203124-2.25 1.667969-4.53125 3.296876-6.839844 4.886719-.929688.640625-1.871094 1.28125-2.8125 1.910157-1.027344.691406-2.058594 1.382812-3.097656 2.050781-4.460938 2.910156-9.019532 5.671875-13.671876 8.300781-35.878906 20.289062-77.140624 32.160156-121.097656 32.949219-1.5625.039062-3.121094.050781-4.691406.050781-42.398438 0-82.390625-10.308594-117.609375-28.570312-2.761719-1.429688-5.480469-2.898438-8.179687-4.429688-9.171876-5.179688-17.992188-10.910156-26.421876-17.148438-2.550781-1.890624-5.058593-3.832031-7.527343-5.8125-4.871094-3.890624-9.601563-7.960937-14.171875-12.199218-10.417969-9.648438-20.039063-20.160156-28.730469-31.410156 4.480469-2.578126 9.679687-4.058594 15.230469-4.058594h374.820312c5.550782 0 10.75 1.480468 15.238282 4.070312zm0 0" fill="#65b2ff"/><path d="m415.738281 456.039062c-1.238281.992188-2.476562 1.972657-3.738281 2.941407-.089844.070312-.179688.148437-.28125.21875-.679688.519531-1.359375 1.03125-2.039062 1.550781-.398438.300781-.808594.601562-1.210938.898438-.089844.070312-.167969.140624-.257812.203124-.050782.027344-.089844.070313-.140626.109376-1.082031.789062-2.160156 1.578124-3.261718 2.359374-1.136719.820313-2.289063 1.621094-3.4375 2.417969-.929688.652344-1.871094 1.28125-2.8125 1.910157-1.027344.691406-2.058594 1.382812-3.097656 2.050781-1.742188 1.140625-3.5 2.25-5.269532 3.339843-1.222656.75-2.453125 1.492188-3.679687 2.222657-1.5625.929687-3.140625 1.839843-4.722657 2.738281h-251.578124c-9.171876-5.179688-17.992188-10.910156-26.421876-17.148438-2.550781-1.890624-5.058593-3.832031-7.527343-5.8125zm0 0" fill="#fff"/><path d="m458.648438 412.441406c-.96875 1.25-1.949219 2.5-2.949219 3.730469-.648438.808594-1.300781 1.617187-1.960938 2.417969-.089843.109375-.1875.230468-.277343.339844-.480469.582031-.949219 1.148437-1.441407 1.71875-.550781.671874-1.121093 1.332031-1.679687 1.980468-.359375.421875-.71875.832032-1.078125 1.25-.792969.921875-1.601563 1.832032-2.421875 2.742188-.21875.238281-.429688.480468-.648438.71875-.5.558594-1.011718 1.121094-1.519531 1.679687-.292969.320313-.59375.640625-.890625.960938-.800781.871093-1.609375 1.730469-2.429688 2.578125-.671874.710937-1.363281 1.421875-2.042968 2.121094-.007813.011718-.007813.011718-.019532.019531-.058593.0625-.117187.121093-.167968.179687-.140625.140625-.269532.28125-.410156.410156-.730469.75-1.480469 1.5-2.222657 2.230469-.75.761719-1.507812 1.5-2.277343 2.242188-.242188.238281-.492188.476562-.730469.707031-.441407.429688-.890625.851562-1.339844 1.28125-.460937.441406-.921875.878906-1.378906 1.300781-.460938.429688-.921875.859375-1.382813 1.277344-.507812.472656-1.019531.941406-1.527344 1.402344-.703124.640625-1.410156 1.269531-2.121093 1.898437-.03125.019532-.050781.042969-.082031.070313-.527344.480469-1.070313.949219-1.609376 1.410156-.828124.730469-1.667968 1.449219-2.507812 2.171875-.453125.378906-.902344.75-1.351562 1.128906-.449219.371094-.898438.75-1.351563 1.121094-1.019531.847656-2.046875 1.679688-3.089844 2.507812-1.238281.992188-2.476562 1.972657-3.738281 2.941407-.089844.070312-.179688.148437-.28125.21875-.679688.519531-1.359375 1.03125-2.039062 1.550781-.320313.238281-.648438.488281-.980469.730469-.078125.058593-.148438.109375-.230469.167969-.089844.070312-.167969.140624-.257812.203124-.8125.597657-1.632813 1.1875-2.449219 1.777344-.882813.640625-1.773438 1.28125-2.671875 1.910156-.078125.0625-.167969.121094-.261719.179688-.9375.660156-1.878906 1.320312-2.839844 1.960938-.476562.332031-.949219.648437-1.429687.96875-.167969.121093-.347656.230468-.519532.339843-.839843.582031-1.6875 1.132813-2.539062 1.683594-.011719.007813-.03125.019531-.039062.027344-.011719.011719-.019532.011719-.03125.019531-.628907.410156-1.257813.820312-1.890626 1.222656-.800781.507813-1.609374 1.019532-2.417968 1.519532-.910156.578124-1.832032 1.140624-2.761719 1.699218-.621094.371094-1.230469.738282-1.847656 1.101563-.78125.457031-1.570313.917969-2.351563 1.378906-.789062.460937-1.582031.910156-2.371094 1.359375-1.109374.628906-2.21875 1.238281-3.339843 1.859375-.070313.03125-.128907.070313-.199219.109375-1.078125.582031-2.160156 1.160156-3.25 1.730469-1.140625.609375-2.28125 1.199219-3.441406 1.78125-1 .5-2 1-3 1.488281-1.457032.730469-2.929688 1.429688-4.410156 2.109375-.988282.472656-1.96875.921875-2.957032 1.363281-.082031.039063-.160156.078125-.230468.109375-.871094.390625-1.75.777344-2.621094 1.160157-.390625.167968-.78125.339843-1.167969.507812-2.230469.960938-4.480469 1.902344-6.75 2.792969-2.460937.976562-4.933594 1.917969-7.433594 2.816406-1.226562.441406-2.457031.882813-3.699219 1.300781-1.179687.410156-2.367187.8125-3.558593 1.199219-.160157.050781-.308594.101563-.46875.152344-1.121094.371093-2.242188.730469-3.371094 1.070312-.980469.308594-1.96875.609375-2.960937.898438-.558594.171875-1.121094.332031-1.679688.492187-.738281.21875-1.480469.429688-2.21875.628906-.511719.148438-1.03125.289063-1.542969.429688-.777343.21875-1.558593.429688-2.347656.628906-.339844.089844-.691406.179688-1.039063.269532-.679687.179687-1.371093.351562-2.0625.523437-.800781.199219-1.609374.398437-2.417968.589844-1.152344.277343-2.300782.539062-3.460938.796875-.148437.042968-.308594.070312-.460937.101562-1.058594.238282-2.121094.46875-3.1875.691406-1.191407.25-2.382813.488282-3.582031.71875-1.199219.230469-2.398438.460938-3.601563.667969-1.199219.222657-2.398437.421875-3.609375.621094-.75.121094-1.5.242187-2.25.351563-.769531.128906-1.539062.25-2.320312.347656-.039063.011718-.078126.019531-.117188.019531-1.179688.183594-2.359375.34375-3.550781.492187-.992188.128907-1.96875.25-2.960938.371094-.859375.097656-1.71875.199219-2.578125.289063-.691406.078125-1.382812.148437-2.070312.21875-.472656.050781-.949219.089843-1.421875.140625-.910157.089844-1.820313.171875-2.730469.238281-.347656.03125-.699219.0625-1.058594.09375-.78125.066406-1.570312.117187-2.359375.167969-.722656.058594-1.441406.109375-2.171875.148437-1.070312.070313-2.148437.132813-3.230468.183594-2.71875.136719-5.457032.226563-8.207032.277344-1.5625.039062-3.121094.050781-4.691406.050781-42.398438 0-82.390625-10.308594-117.609375-28.570312-.050781-.667969-.070313-1.351563-.070313-2.039063v-42.421875c0-16.898438 13.699219-30.597656 30.601563-30.597656h274.488281c5.550782 0 10.75 1.480468 15.238282 4.070312zm0 0" fill="#0f9be8"/><path d="m415.738281 456.039062c-10.648437 8.53125-22 16.210938-33.949219 22.960938h-243.46875v-22.960938zm0 0" fill="#d0f6ff"/><path d="m458.648438 412.441406c-45.929688 59.410156-117.410157 98.070313-197.957032 99.507813v-103.578125h182.71875c5.550782 0 10.75 1.480468 15.238282 4.070312zm0 0" fill="#0066e8"/><path d="m415.738281 456.039062c-10.648437 8.53125-22 16.210938-33.949219 22.960938h-121.097656v-22.960938zm0 0" fill="#8fc9f7"/><g fill="#fff"><path d="m106.089844 356.445312 25.816406-25.820312 25.820312 25.820312-25.820312 25.816407zm0 0"/><path d="m157.726562 356.445312 25.816407-25.820312 25.816406 25.820312-25.816406 25.816407zm0 0"/><path d="m209.359375 356.445312 25.820313-25.820312 25.816406 25.820312-25.816406 25.816407zm0 0"/></g><path d="m260.996094 356.445312 25.816406-25.816406 25.820312 25.816406-25.820312 25.816407zm0 0" fill="#d0f6ff"/><path d="m312.632812 356.445312 25.816407-25.816406 25.816406 25.816406-25.816406 25.816407zm0 0" fill="#d0f6ff"/><path d="m364.265625 356.445312 25.820313-25.816406 25.816406 25.816406-25.816406 25.816407zm0 0" fill="#d0f6ff"/></svg>