<svg height="512pt" viewBox="0 0 512 512" width="512pt" xmlns="http://www.w3.org/2000/svg"><path d="m512 256c0 141.386719-114.613281 256-256 256s-256-114.613281-256-256 114.613281-256 256-256 256 114.613281 256 256zm0 0" fill="#65b2ff"/><path d="m512 256c0 26.050781-3.890625 51.191406-11.128906 74.871094-32.011719 104.847656-129.542969 181.128906-244.871094 181.128906-104.558594 0-194.488281-62.699219-234.230469-152.550781-14-31.628907-21.769531-66.628907-21.769531-103.449219 0-46.21875 12.25-89.570312 33.679688-127 44.121093 77.070312 127.160156 129 222.320312 129s178.210938-51.929688 222.320312-129c21.429688 37.429688 33.679688 80.78125 33.679688 127zm0 0" fill="#0f9be8"/><path d="m30.742188 377.703125c7.15625 13.21875 15.429687 25.738281 24.71875 37.425781 46.898437 59.019532 119.300781 96.871094 200.539062 96.871094s153.640625-37.851562 200.539062-96.871094c9.289063-11.6875 17.5625-24.207031 24.71875-37.425781zm0 0" fill="#0066e8"/><path d="m313.335938 375.90625c-5.296876 5.1875-12.195313 7.738281-19.070313 7.667969-6.957031-.070313-13.894531-2.832031-19.105469-8.265625-10.273437-10.707032-9.480468-27.890625 1.117188-38.277344l18.609375-18.234375c.019531-.019531.050781-.019531.070312 0l18.761719 19.140625c10.378906 10.589844 10.207031 27.589844-.382812 37.96875zm0 0" fill="#fff"/><path d="m313.335938 375.90625c-5.285157 5.175781-12.160157 7.726562-19.019532 7.671875-.027344 0-.050781-.023437-.050781-.054687l.65625-64.640626c0-.042968.054687-.066406.085937-.035156l18.710938 19.089844c10.378906 10.589844 10.207031 27.589844-.382812 37.96875zm0 0" fill="#d0f6ff"/><path d="m190.082031 282.296875c-5.296875 5.191406-12.195312 7.742187-19.066406 7.671875-6.957031-.070312-13.894531-2.832031-19.109375-8.269531-10.269531-10.707031-9.476562-27.890625 1.121094-38.273438l18.609375-18.238281c.019531-.015625.050781-.015625.070312.003906l18.761719 19.136719c10.375 10.589844 10.203125 27.59375-.386719 37.96875zm0 0" fill="#fff"/><path d="m190.082031 282.296875c-5.28125 5.175781-12.160156 7.726563-19.015625 7.671875-.027344 0-.050781-.023438-.050781-.050781l.65625-64.640625c0-.046875.054687-.066406.085937-.035156l18.710938 19.085937c10.375 10.589844 10.203125 27.59375-.386719 37.96875zm0 0" fill="#d0f6ff"/><path d="m331.144531 243.527344c-7.4375 7.285156-17.128906 10.871094-26.78125 10.773437-9.84375-.101562-19.65625-4.035156-26.996093-11.78125-14.253907-15.046875-13.15625-38.992187 1.648437-53.5l26.21875-25.695312c.03125-.027344.074219-.027344.101563 0l26.347656 26.878906c14.574218 14.871094 14.332031 38.75-.539063 53.324219zm0 0" fill="#fff"/><path d="m331.144531 243.527344c-7.417969 7.269531-17.078125 10.851562-26.707031 10.773437-.039062 0-.074219-.035156-.074219-.074219l.921875-90.777343c0-.0625.078125-.09375.121094-.050781l26.277344 26.804687c14.574218 14.871094 14.332031 38.75-.539063 53.324219zm0 0" fill="#d0f6ff"/><path d="m103.503906 369.421875c-5.296875 5.1875-12.195312 7.738281-19.070312 7.667969-7.007813-.070313-13.996094-2.871094-19.21875-8.386719-10.152344-10.714844-9.371094-27.765625 1.171875-38.09375l18.671875-18.296875c.019531-.019531.050781-.019531.070312 0l18.761719 19.136719c10.375 10.59375 10.203125 27.59375-.386719 37.972656zm0 0" fill="#fff"/><path d="m103.503906 369.421875c-5.28125 5.175781-12.160156 7.726563-19.015625 7.671875-.027343 0-.054687-.027344-.050781-.054688l.65625-64.640624c0-.042969.054688-.066407.085938-.035157l18.710937 19.085938c10.375 10.59375 10.203125 27.59375-.386719 37.972656zm0 0" fill="#d0f6ff"/><path d="m363.84375 485.265625c-5.296875 5.1875-12.195312 7.742187-19.070312 7.671875-7.007813-.074219-13.996094-2.875-19.21875-8.390625-10.152344-10.710937-9.371094-27.761719 1.171874-38.09375l18.671876-18.296875c.019531-.019531.050781-.019531.070312 0l18.761719 19.140625c10.375 10.589844 10.203125 27.589844-.386719 37.96875zm0 0" fill="#fff"/><path d="m363.84375 485.265625c-5.28125 5.175781-12.160156 7.726563-19.015625 7.671875-.027344 0-.054687-.023438-.050781-.050781l.65625-64.644531c0-.042969.054687-.066407.085937-.03125l18.710938 19.085937c10.375 10.589844 10.203125 27.589844-.386719 37.96875zm0 0" fill="#d0f6ff"/><path d="m218.804688 484.320312c-9.683594 9.492188-22.304688 14.160157-34.878907 14.03125-12.820312-.128906-25.605469-5.253906-35.160156-15.34375-18.570313-19.597656-17.140625-50.789062 2.140625-69.683593l34.15625-33.46875c.035156-.035157.09375-.035157.128906 0l34.320313 35.007812c18.980469 19.375 18.667969 50.476563-.707031 69.457031zm0 0" fill="#fff"/><path d="m218.804688 484.320312c-9.660157 9.46875-22.242188 14.136719-34.785157 14.03125-.050781 0-.09375-.042968-.09375-.09375l1.199219-118.246093c.003906-.082031.101562-.121094.160156-.0625l34.226563 34.914062c18.980469 19.375 18.667969 50.476563-.707031 69.457031zm0 0" fill="#d0f6ff"/><path d="m450.4375 400.308594c-9.402344 9.214844-21.65625 13.746094-33.863281 13.621094-12.445313-.125-24.855469-5.101563-34.132813-14.894532-18.027344-19.027344-16.640625-49.304687 2.078125-67.652344l33.160157-32.492187c.035156-.035156.09375-.035156.128906 0l33.3125 33.988281c18.429687 18.808594 18.125 49-.683594 67.429688zm0 0" fill="#fff"/><path d="m450.4375 400.308594c-9.378906 9.191406-21.59375 13.722656-33.769531 13.621094-.050781 0-.09375-.039063-.089844-.089844l1.164063-114.792969c0-.082031.097656-.121094.152343-.0625l33.226563 33.894531c18.429687 18.808594 18.125 49-.683594 67.429688zm0 0" fill="#d0f6ff"/><path d="m222.40625 165.695312c.003906-.09375.007812-.1875.007812-.28125 0-17.214843-13.953124-31.171874-31.167968-31.171874-4.089844 0-7.992188.796874-11.570313 2.230468-6.914062-12.382812-20.140625-20.761718-35.328125-20.761718-19.722656 0-36.140625 14.125-39.707031 32.808593-1.066406-.152343-2.152344-.234375-3.253906-.234375-10.726563 0-19.710938 7.425782-22.113281 17.410156zm0 0" fill="#fff"/><path d="m191.996094 165.695312c0-.054687.003906-.105468.003906-.164062 0-9.898438-8.027344-17.921875-17.925781-17.921875-2.351563 0-4.59375.457031-6.652344 1.28125-3.976563-7.121094-11.578125-11.9375-20.3125-11.9375-11.34375 0-20.78125 8.121094-22.832031 18.867187-.613282-.089843-1.238282-.136718-1.875-.136718-6.164063 0-11.332032 4.269531-12.710938 10.011718zm0 0" fill="#d0f6ff"/><path d="m394.976562 83.882812c0-.09375.003907-.1875.003907-.28125 0-17.214843-13.953125-31.167968-31.167969-31.167968-4.089844 0-7.992188.792968-11.570312 2.226562-6.914063-12.382812-20.136719-20.761718-35.328126-20.761718-19.722656 0-36.140624 14.125-39.707031 32.8125-1.0625-.152344-2.148437-.238282-3.253906-.238282-10.726563 0-19.710937 7.425782-22.109375 17.410156zm0 0" fill="#fff"/><path d="m364.5625 83.882812c0-.054687.003906-.105468.003906-.160156 0-9.902344-8.027344-17.925781-17.925781-17.925781-2.351563 0-4.59375.457031-6.652344 1.28125-3.972656-7.121094-11.578125-11.9375-20.3125-11.9375-11.339843 0-20.78125 8.121094-22.832031 18.867187-.613281-.089843-1.238281-.136718-1.871094-.136718-6.167968 0-11.335937 4.269531-12.714844 10.011718zm0 0" fill="#d0f6ff"/></svg>