<svg height="512pt" viewBox="0 0 512 512" width="512pt" xmlns="http://www.w3.org/2000/svg"><path d="m512 256c0 141.378906-114.621094 256-256 256-85.808594 0-161.761719-42.230469-208.210938-107.03125-11.257812-15.707031-20.789062-32.75-28.300781-50.839844-12.558593-30.21875-19.488281-63.367187-19.488281-98.128906 0-13.621094 1.058594-26.988281 3.121094-40.03125 19.207031-122.367188 125.117187-215.96875 252.878906-215.96875 141.378906 0 256 114.621094 256 256zm0 0" fill="#9e69e2"/><path d="m512 256c0 26.050781-3.890625 51.191406-11.128906 74.871094-32.011719 104.847656-129.542969 181.128906-244.871094 181.128906-65.960938 0-126.101562-24.949219-171.488281-65.949219-26.5625-23.960937-48.070313-53.429687-62.742188-86.601562-14-31.628907-21.769531-66.628907-21.769531-103.449219 0-17.398438 1.730469-34.378906 5.039062-50.808594 5.480469-27.203125 15.28125-52.851562 28.640626-76.191406 44.121093 77.070312 127.160156 129 222.320312 129s178.210938-51.929688 222.320312-129c21.429688 37.429688 33.679688 80.78125 33.679688 127zm0 0" fill="#8e4fd2"/><path d="m30.742188 377.703125c7.15625 13.21875 15.429687 25.738281 24.71875 37.425781 46.898437 59.019532 119.300781 96.871094 200.539062 96.871094s153.640625-37.851562 200.539062-96.871094c9.289063-11.6875 17.5625-24.207031 24.71875-37.425781zm0 0" fill="#7038ba"/><path d="m395.890625 256c0 52.300781-28.714844 97.917969-71.234375 121.910156-.898438.511719-1.804688 1.011719-2.726562 1.496094-19.605469 10.496094-42.007813 16.460938-65.792969 16.484375h-.136719c-77.253906 0-139.890625-62.636719-139.890625-139.890625 0-77.257812 62.636719-139.890625 139.890625-139.890625h.136719c23.773437.011719 46.175781 5.976563 65.769531 16.46875.910156.488281 1.816406.988281 2.714844 1.5 42.542968 23.980469 71.269531 69.601563 71.269531 121.921875zm0 0" fill="#ffd112"/><path d="m395.890625 256c0 52.300781-28.714844 97.917969-71.234375 121.910156-.898438.511719-1.804688 1.011719-2.726562 1.496094-14.050782 5.136719-29.203126 7.953125-45.015626 7.964844h-.125c-72.554687 0-131.371093-58.820313-131.371093-131.371094s58.816406-131.371094 131.371093-131.371094h.125c15.800782.023438 30.964844 2.816406 44.992188 7.953125.910156.488281 1.820312.988281 2.714844 1.496094 42.542968 23.980469 71.269531 69.601563 71.269531 121.921875zm0 0" fill="#ff9f00"/><path d="m395.890625 256c0 51.777344-28.136719 96.996094-69.949219 121.171875-.433594.25-.851562.5-1.285156.738281-7.054688 1.25-14.3125 1.90625-21.71875 1.917969h-.113281c-68.394531 0-123.839844-55.433594-123.839844-123.828125s55.445313-123.839844 123.839844-123.839844h.113281c7.394531.011719 14.640625.660156 21.683594 1.917969.433594.25.875.5 1.308594.75 41.824218 24.175781 69.960937 69.386719 69.960937 121.171875zm0 0" fill="#474f6f"/><path d="m395.890625 256c0 51.777344-28.136719 96.996094-69.949219 121.171875-37.292968-27.296875-61.511718-71.40625-61.511718-121.171875 0-49.753906 24.207031-93.863281 61.5-121.171875 41.824218 24.175781 69.960937 69.386719 69.960937 121.171875zm0 0" fill="#20273a"/><path d="m475.742188 305.96875h-1.523438c-6.75 0-12.226562-5.472656-12.226562-12.226562v-1.523438h-8.714844v1.523438c0 6.753906-5.472656 12.226562-12.226563 12.226562h-1.527343v8.714844h1.527343c6.753907 0 12.226563 5.476562 12.226563 12.226562v1.527344h8.714844v-1.527344c0-6.75 5.476562-12.226562 12.226562-12.226562h1.523438zm0 0" fill="#fff"/><path d="m391.378906 413.160156h-1.523437c-6.753907 0-12.226563-5.472656-12.226563-12.226562v-1.523438h-8.714844v1.523438c0 6.753906-5.476562 12.226562-12.226562 12.226562h-1.527344v8.71875h1.527344c6.75 0 12.226562 5.472656 12.226562 12.226563v1.523437h8.714844v-1.523437c0-6.753907 5.472656-12.226563 12.226563-12.226563h1.523437zm0 0" fill="#ffd112"/><path d="m274.109375 458.601562h-1.523437c-6.753907 0-12.226563-5.472656-12.226563-12.226562v-1.523438h-8.71875v1.523438c0 6.753906-5.472656 12.226562-12.226563 12.226562h-1.523437v8.71875h1.523437c6.753907 0 12.226563 5.472657 12.226563 12.226563v1.523437h8.71875v-1.523437c0-6.753906 5.472656-12.226563 12.226563-12.226563h1.523437zm0 0" fill="#fff"/><path d="m73.378906 269.75h-1.523437c-6.753907 0-12.226563-5.472656-12.226563-12.226562v-1.523438h-8.714844v1.523438c0 6.753906-5.476562 12.226562-12.226562 12.226562h-1.527344v8.71875h1.527344c6.75 0 12.226562 5.472656 12.226562 12.226562v1.523438h8.714844v-1.523438c0-6.753906 5.472656-12.226562 12.226563-12.226562h1.523437zm0 0" fill="#fff"/><path d="m291.96875 57.75h-1.523438c-6.753906 0-12.226562-5.472656-12.226562-12.226562v-1.523438h-8.714844v1.523438c0 6.753906-5.476562 12.226562-12.230468 12.226562h-1.523438v8.71875h1.523438c6.753906 0 12.230468 5.472656 12.230468 12.226562v1.523438h8.714844v-1.523438c0-6.753906 5.472656-12.226562 12.226562-12.226562h1.523438zm0 0" fill="#fff"/><g fill="#ffd112"><path d="m149.96875 111.75h-1.523438c-6.753906 0-12.226562-5.472656-12.226562-12.226562v-1.523438h-8.714844v1.523438c0 6.753906-5.476562 12.226562-12.230468 12.226562h-1.523438v8.71875h1.523438c6.753906 0 12.230468 5.472656 12.230468 12.226562v1.523438h8.714844v-1.523438c0-6.753906 5.472656-12.226562 12.226562-12.226562h1.523438zm0 0"/><path d="m448.96875 163.753906h-1.523438c-6.753906 0-12.226562-5.476562-12.226562-12.230468v-1.523438h-8.714844v1.523438c0 6.753906-5.476562 12.230468-12.230468 12.230468h-1.523438v8.714844h1.523438c6.753906 0 12.230468 5.472656 12.230468 12.226562v1.523438h8.714844v-1.523438c0-6.753906 5.472656-12.226562 12.226562-12.226562h1.523438zm0 0"/><path d="m137.808594 386.070312h-1.523438c-6.753906 0-12.226562-5.472656-12.226562-12.226562v-1.523438h-8.714844v1.523438c0 6.753906-5.476562 12.226562-12.226562 12.226562h-1.527344v8.71875h1.527344c6.75 0 12.226562 5.472657 12.226562 12.226563v1.523437h8.714844v-1.523437c0-6.753906 5.472656-12.226563 12.226562-12.226563h1.523438zm0 0"/></g></svg>