<svg height="512pt" viewBox="0 0 512 512" width="512pt" xmlns="http://www.w3.org/2000/svg"><path d="m512 256c0 141.386719-114.613281 256-256 256s-256-114.613281-256-256 114.613281-256 256-256 256 114.613281 256 256zm0 0" fill="#ffe955"/><path d="m512 256c0 26.050781-3.890625 51.191406-11.128906 74.871094-32.011719 104.847656-129.542969 181.128906-244.871094 181.128906-104.558594 0-194.488281-62.699219-234.230469-152.550781-14-31.628907-21.769531-66.628907-21.769531-103.449219 0-46.21875 12.25-89.570312 33.679688-127 44.121093 77.070312 127.160156 129 222.320312 129s178.210938-51.929688 222.320312-129c21.429688 37.429688 33.679688 80.78125 33.679688 127zm0 0" fill="#ffd112"/><path d="m30.742188 377.703125c7.15625 13.21875 15.429687 25.738281 24.71875 37.425781 46.898437 59.019532 119.300781 96.871094 200.539062 96.871094s153.640625-37.851562 200.539062-96.871094c9.289063-11.6875 17.5625-24.207031 24.71875-37.425781zm0 0" fill="#ff9f00"/><path d="m478.269531 383.089844c-11.140625 19.441406-24.75 37.28125-40.410156 53.089844-13.519531 13.640624-28.558594 25.769531-44.847656 36.101562-39.613281 25.148438-86.613281 39.71875-137.011719 39.71875s-97.398438-14.570312-137.019531-39.71875c-16.28125-10.339844-31.320313-22.460938-44.839844-36.101562-15.660156-15.808594-29.269531-33.648438-40.410156-53.089844 14.578125 5.289062 24.460937 12.550781 51.597656 12.550781 42.671875 0 42.671875-17.941406 85.332031-17.941406 42.667969 0 42.667969 17.941406 85.339844 17.941406 42.660156 0 42.660156-17.941406 85.328125-17.941406 42.671875 0 42.671875 17.941406 85.332031 17.941406 27.148438 0 37.019532-7.261719 51.609375-12.550781zm0 0" fill="#65b2ff"/><path d="m478.269531 383.089844c-11.140625 19.441406-24.75 37.28125-40.410156 53.089844-13.519531 13.640624-28.558594 25.769531-44.847656 36.101562-39.613281 25.148438-86.613281 39.71875-137.011719 39.71875v-116.359375c42.660156 0 42.660156-17.941406 85.328125-17.941406 42.671875 0 42.671875 17.941406 85.332031 17.941406 27.148438 0 37.019532-7.261719 51.609375-12.550781zm0 0" fill="#0f9be8"/><path d="m437.859375 436.179688c-13.519531 13.640624-28.558594 25.769531-44.847656 36.101562-39.613281 25.148438-86.613281 39.71875-137.011719 39.71875s-97.398438-14.570312-137.019531-39.71875c-16.28125-10.339844-31.320313-22.460938-44.839844-36.101562 3.390625.289062 7.089844.460937 11.1875.460937 42.671875 0 42.671875-17.941406 85.332031-17.941406 42.667969 0 42.667969 17.941406 85.339844 17.941406 42.660156 0 42.660156-17.941406 85.328125-17.941406 42.671875 0 42.671875 17.941406 85.332031 17.941406 4.101563 0 7.808594-.171875 11.199219-.460937zm0 0" fill="#fff"/><path d="m437.859375 436.179688c-13.519531 13.640624-28.558594 25.769531-44.847656 36.101562-39.613281 25.148438-86.613281 39.71875-137.011719 39.71875v-75.359375c42.660156 0 42.660156-17.941406 85.328125-17.941406 42.671875 0 42.671875 17.941406 85.332031 17.941406 4.101563 0 7.808594-.171875 11.199219-.460937zm0 0" fill="#d0f6ff"/><path d="m393.011719 472.28125c-39.613281 25.148438-86.613281 39.71875-137.011719 39.71875s-97.398438-14.570312-137.019531-39.71875c14.628906-5.292969 24.488281-12.570312 51.679687-12.570312 42.667969 0 42.667969 17.929687 85.339844 17.929687 42.660156 0 42.660156-17.929687 85.328125-17.929687 27.203125 0 37.0625 7.277343 51.683594 12.570312zm0 0" fill="#0f9be8"/><path d="m393.011719 472.28125c-39.613281 25.148438-86.613281 39.71875-137.011719 39.71875v-34.359375c42.660156 0 42.660156-17.929687 85.328125-17.929687 27.203125 0 37.0625 7.277343 51.683594 12.570312zm0 0" fill="#0066e8"/><path d="m46.484375 202.425781c-.003906-.113281-.011719-.226562-.011719-.339843 0-20.925782 16.964844-37.890626 37.890625-37.890626 4.972657 0 9.714844.96875 14.066407 2.707032 8.398437-15.050782 24.476562-25.234375 42.941406-25.234375 23.976562 0 43.929687 17.167969 48.269531 39.882812 1.292969-.1875 2.613281-.285156 3.957031-.285156 13.035156 0 23.957032 9.023437 26.875 21.164063h-173.988281zm0 0" fill="#fff"/><path d="m83.453125 202.425781c0-.066406-.007813-.128906-.007813-.195312 0-12.03125 9.757813-21.789063 21.789063-21.789063 2.859375 0 5.585937.558594 8.085937 1.558594 4.832032-8.65625 14.078126-14.511719 24.695313-14.511719 13.785156 0 25.261719 9.875 27.753906 22.933594.746094-.105469 1.503907-.164063 2.277344-.164063 7.496094 0 13.773437 5.1875 15.453125 12.167969zm0 0" fill="#d0f6ff"/><path d="m291.535156 202.425781c-.003906-.113281-.011718-.226562-.011718-.339843 0-20.925782 16.964843-37.890626 37.890624-37.890626 4.972657 0 9.714844.96875 14.066407 2.707032 8.402343-15.050782 24.476562-25.234375 42.941406-25.234375 23.976563 0 43.929687 17.167969 48.269531 39.882812 1.292969-.1875 2.613282-.285156 3.957032-.285156 13.035156 0 23.957031 9.023437 26.875 21.164063h-173.988282zm0 0" fill="#fff"/><path d="m328.503906 202.425781c0-.066406-.003906-.128906-.003906-.195312 0-12.03125 9.753906-21.789063 21.785156-21.789063 2.859375 0 5.585938.558594 8.089844 1.558594 4.828125-8.65625 14.074219-14.511719 24.691406-14.511719 13.789063 0 25.261719 9.875 27.757813 22.933594.742187-.105469 1.5-.164063 2.273437-.164063 7.496094 0 13.777344 5.1875 15.457032 12.167969zm0 0" fill="#d0f6ff"/><path d="m202.859375 91.117188c0-.070313-.003906-.140626-.003906-.210938 0-12.78125 10.363281-23.144531 23.144531-23.144531 3.035156 0 5.933594.589843 8.589844 1.652343 5.132812-9.191406 14.957031-15.414062 26.234375-15.414062 14.644531 0 26.835937 10.488281 29.484375 24.363281.792968-.113281 1.597656-.175781 2.417968-.175781 7.964844 0 14.636719 5.511719 16.417969 12.929688zm0 0" fill="#fff"/><path d="m225.441406 91.117188c0-.039063 0-.082032 0-.121094 0-7.351563 5.957032-13.308594 13.308594-13.308594 1.746094 0 3.410156.339844 4.941406.949219 2.949219-5.285157 8.597656-8.863281 15.082032-8.863281 8.421874 0 15.433593 6.03125 16.957031 14.007812.453125-.0625.917969-.097656 1.386719-.097656 4.582031 0 8.417968 3.167968 9.441406 7.433594zm0 0" fill="#d0f6ff"/><path d="m122.417969 219.96875c-7.0625-.074219-13.328125 4.964844-14.320313 11.953125-.65625 4.605469.941406 8.875 3.855469 11.847656 2.507813 2.5625 5.996094 4.167969 9.863281 4.207031 7.734375.078126 14.070313-6.132812 14.148438-13.867187l.136718-14.003906zm0 0" fill="#fff"/><path d="m121.8125 247.976562c-3.867188-.039062-7.351562-1.644531-9.863281-4.203124l24.152343-23.667969-.140624 14.007812c-.078126 7.734375-6.410157 13.941407-14.148438 13.863281zm0 0" fill="#d0f6ff"/><path d="m121.8125 312.140625c-3.867188-.039063-7.351562-1.644531-9.863281-4.203125-2.910157-2.972656-4.507813-7.242188-3.855469-11.847656.996094-6.992188 7.261719-12.03125 14.324219-11.957032l13.683593.136719-.140624 14.007813c-.078126 7.734375-6.410157 13.941406-14.148438 13.863281zm0 0" fill="#fff"/><path d="m121.8125 312.140625c-3.867188-.039063-7.351562-1.644531-9.863281-4.203125l24.152343-23.667969-.140624 14.007813c-.078126 7.734375-6.410157 13.941406-14.148438 13.863281zm0 0" fill="#d0f6ff"/><path d="m60.941406 241.996094c-7.058594-.070313-13.324218 4.964844-14.320312 11.957031-.65625 4.605469.941406 8.875 3.855468 11.847656 2.507813 2.558594 5.996094 4.164063 9.863282 4.203125 7.734375.078125 14.070312-6.128906 14.148437-13.863281l.140625-14.007813zm0 0" fill="#fff"/><path d="m60.339844 270.003906c-3.867188-.039062-7.355469-1.644531-9.863282-4.203125l24.152344-23.667969-.140625 14.007813c-.082031 7.734375-6.414062 13.941406-14.148437 13.863281zm0 0" fill="#d0f6ff"/><path d="m60.339844 348.507812c-3.867188-.039062-7.355469-1.640624-9.863282-4.203124-2.914062-2.972657-4.511718-7.242188-3.855468-11.847657.992187-6.992187 7.261718-12.027343 14.320312-11.957031l13.683594.140625-.140625 14.003906c-.078125 7.734375-6.410156 13.945313-14.144531 13.863281zm0 0" fill="#fff"/><path d="m60.339844 348.507812c-3.867188-.039062-7.355469-1.640624-9.863282-4.203124l24.152344-23.664063-.140625 14.003906c-.082031 7.734375-6.414062 13.945313-14.148437 13.863281zm0 0" fill="#d0f6ff"/><path d="m183.894531 241.996094c-7.0625-.070313-13.328125 4.964844-14.324219 11.957031-.65625 4.605469.945313 8.875 3.855469 11.847656 2.511719 2.558594 5.996094 4.164063 9.863281 4.203125 7.734376.078125 14.070313-6.128906 14.148438-13.863281l.140625-14.007813zm0 0" fill="#fff"/><path d="m183.289062 270.003906c-3.867187-.039062-7.351562-1.644531-9.863281-4.203125l24.152344-23.667969-.140625 14.007813c-.078125 7.734375-6.414062 13.941406-14.148438 13.863281zm0 0" fill="#d0f6ff"/><path d="m183.289062 348.507812c-3.867187-.039062-7.351562-1.640624-9.863281-4.203124-2.910156-2.972657-4.511719-7.242188-3.855469-11.847657.996094-6.992187 7.261719-12.027343 14.324219-11.957031l13.683594.140625-.140625 14.003906c-.078125 7.734375-6.414062 13.945313-14.148438 13.863281zm0 0" fill="#fff"/><path d="m183.289062 348.507812c-3.867187-.039062-7.351562-1.640624-9.863281-4.203124l24.152344-23.664063-.140625 14.003906c-.078125 7.734375-6.414062 13.945313-14.148438 13.863281zm0 0" fill="#d0f6ff"/><path d="m385.089844 219.96875c-7.0625-.074219-13.328125 4.964844-14.324219 11.953125-.65625 4.605469.945313 8.875 3.855469 11.847656 2.511718 2.5625 5.996094 4.167969 9.863281 4.207031 7.734375.078126 14.070313-6.132812 14.148437-13.867187l.140626-14.003906zm0 0" fill="#fff"/><path d="m384.484375 247.976562c-3.867187-.039062-7.351563-1.644531-9.863281-4.203124l24.152344-23.667969-.140626 14.007812c-.078124 7.734375-6.410156 13.941407-14.148437 13.863281zm0 0" fill="#d0f6ff"/><path d="m384.484375 312.140625c-3.867187-.039063-7.351563-1.644531-9.863281-4.203125-2.910156-2.972656-4.507813-7.242188-3.855469-11.847656.996094-6.992188 7.261719-12.03125 14.324219-11.957032l13.683594.136719-.140626 14.007813c-.078124 7.734375-6.410156 13.941406-14.148437 13.863281zm0 0" fill="#fff"/><path d="m384.484375 312.140625c-3.867187-.039063-7.351563-1.644531-9.863281-4.203125l24.152344-23.667969-.140626 14.007813c-.078124 7.734375-6.410156 13.941406-14.148437 13.863281zm0 0" fill="#d0f6ff"/><path d="m323.613281 241.996094c-7.058593-.070313-13.324219 4.964844-14.320312 11.957031-.65625 4.605469.941406 8.875 3.855469 11.847656 2.507812 2.558594 5.996093 4.164063 9.863281 4.203125 7.734375.078125 14.070312-6.128906 14.148437-13.863281l.140625-14.007813zm0 0" fill="#fff"/><path d="m323.011719 270.003906c-3.867188-.039062-7.355469-1.644531-9.863281-4.203125l24.152343-23.667969-.140625 14.007813c-.082031 7.734375-6.414062 13.941406-14.148437 13.863281zm0 0" fill="#d0f6ff"/><path d="m323.011719 348.507812c-3.867188-.039062-7.355469-1.640624-9.863281-4.203124-2.914063-2.972657-4.511719-7.242188-3.855469-11.847657.992187-6.992187 7.261719-12.027343 14.320312-11.957031l13.683594.140625-.140625 14.003906c-.078125 7.734375-6.410156 13.945313-14.144531 13.863281zm0 0" fill="#fff"/><path d="m323.011719 348.507812c-3.867188-.039062-7.355469-1.640624-9.863281-4.203124l24.152343-23.664063-.140625 14.003906c-.082031 7.734375-6.414062 13.945313-14.148437 13.863281zm0 0" fill="#d0f6ff"/><path d="m446.566406 241.996094c-7.0625-.070313-13.328125 4.964844-14.324218 11.957031-.65625 4.605469.941406 8.875 3.855468 11.847656 2.511719 2.558594 5.996094 4.164063 9.863282 4.203125 7.734374.078125 14.070312-6.128906 14.148437-13.863281l.136719-14.007813zm0 0" fill="#fff"/><path d="m445.960938 270.003906c-3.867188-.039062-7.351563-1.644531-9.863282-4.203125l24.152344-23.667969-.140625 14.007813c-.078125 7.734375-6.414063 13.941406-14.148437 13.863281zm0 0" fill="#d0f6ff"/><path d="m445.960938 348.507812c-3.867188-.039062-7.351563-1.640624-9.863282-4.203124-2.910156-2.972657-4.507812-7.242188-3.855468-11.847657.996093-6.992187 7.261718-12.027343 14.324218-11.957031l13.683594.140625-.140625 14.003906c-.078125 7.734375-6.414063 13.945313-14.148437 13.863281zm0 0" fill="#fff"/><path d="m445.960938 348.507812c-3.867188-.039062-7.351563-1.640624-9.863282-4.203124l24.152344-23.664063-.140625 14.003906c-.078125 7.734375-6.414063 13.945313-14.148437 13.863281zm0 0" fill="#d0f6ff"/></svg>