<svg height="512pt" viewBox="0 0 512 512" width="512pt" xmlns="http://www.w3.org/2000/svg"><path d="m512 256c0 141.386719-114.613281 256-256 256s-256-114.613281-256-256 114.613281-256 256-256 256 114.613281 256 256zm0 0" fill="#68fcdf"/><path d="m512 256c0 26.050781-3.890625 51.191406-11.128906 74.871094-32.011719 104.847656-129.542969 181.128906-244.871094 181.128906-104.558594 0-194.488281-62.699219-234.230469-152.550781-14-31.628907-21.769531-66.628907-21.769531-103.449219 0-46.21875 12.25-89.570312 33.679688-127 44.121093 77.070312 127.160156 129 222.320312 129s178.210938-51.929688 222.320312-129c21.429688 37.429688 33.679688 80.78125 33.679688 127zm0 0" fill="#10e2c4"/><path d="m416.421875 292.585938v85.507812h-320.84375v-85.507812c0-8.28125.628906-16.410157 1.839844-24.351563 3.332031-21.902344 11.097656-42.351563 22.351562-60.40625 5.519531-8.855469 11.882813-17.132813 18.972657-24.722656 29.226562-31.292969 70.839843-50.878907 117.023437-50.945313h.234375c46.277344 0 87.980469 19.597656 117.257812 50.945313 7.09375 7.589843 13.453126 15.867187 18.972657 24.722656 11.253906 18.054687 19.023437 38.503906 22.355469 60.40625 1.207031 7.941406 1.835937 16.070313 1.835937 24.351563zm0 0" fill="#fff"/><path d="m189.988281 183.109375c-3.777343 4.800781-7.289062 9.800781-10.519531 14.992187-1.980469 3.167969-3.859375 6.417969-5.617188 9.726563h-54.082031c5.519531-8.859375 11.878907-17.128906 18.96875-24.71875zm0 0" fill="#d0f6ff"/><path d="m155.011719 268.238281c-.742188 6.382813-1.121094 12.871094-1.121094 19.460938v5.261719h-58.3125v-.382813c0-8.269531.632813-16.398437 1.84375-24.339844zm0 0" fill="#d0f6ff"/><path d="m416.421875 292.578125v85.511719h-262.53125v-90.390625c0-6.589844.378906-13.078125 1.121094-19.460938.226562-2.109375.507812-4.207031.828125-6.289062 2.929687-19.300781 9.128906-37.527344 18.011718-54.121094 1.757813-3.308594 3.636719-6.558594 5.617188-9.726563 3.230469-5.191406 6.742188-10.191406 10.519531-14.992187 3.011719-3.859375 6.203125-7.578125 9.53125-11.148437 15.71875-16.832032 34.832031-30.460938 56.25-39.800782h.230469c46.28125 0 87.980469 19.601563 117.261719 50.949219 7.089843 7.589844 13.449219 15.859375 18.96875 24.71875 11.257812 18.050781 19.019531 38.5 22.347656 60.410156 1.210937 7.941407 1.84375 16.070313 1.84375 24.339844zm0 0" fill="#d0f6ff"/><path d="m416.421875 292.578125v.382813h-262.53125v-5.261719c0-6.589844.378906-13.078125 1.121094-19.460938h88.628906v-60.410156h-69.789063c1.757813-3.308594 3.636719-6.558594 5.617188-9.726563 3.230469-5.191406 6.742188-10.191406 10.519531-14.992187h183.273438c7.089843 7.589844 13.449219 15.859375 18.96875 24.71875h-123.871094v60.410156h146.21875c1.210937 7.941407 1.84375 16.070313 1.84375 24.339844zm0 0" fill="#8fc9f7"/><path d="m416.421875 292.585938v85.507812h-160.421875v-245.933594c46.277344 0 87.980469 19.597656 117.257812 50.945313 7.09375 7.589843 13.453126 15.867187 18.972657 24.722656 11.253906 18.054687 19.023437 38.503906 22.355469 60.40625 1.207031 7.941406 1.835937 16.070313 1.835937 24.351563zm0 0" fill="#8fc9f7"/><path d="m416.421875 292.585938v.375h-160.421875v-109.855469h117.257812c7.09375 7.589843 13.453126 15.867187 18.972657 24.722656h-123.867188v60.40625h146.222657c1.207031 7.941406 1.835937 16.070313 1.835937 24.351563zm0 0" fill="#0f9be8"/><path d="m95.578125 353.371094h58.3125v24.71875h-58.3125zm0 0" fill="#d0f6ff"/><path d="m153.890625 353.371094h262.53125v24.71875h-262.53125zm0 0" fill="#8fc9f7"/><path d="m256 353.367188h160.421875v24.726562h-160.421875zm0 0" fill="#0f9be8"/><path d="m323.484375 335.722656v42.371094h-134.96875v-42.371094c0-37.269531 30.214844-67.488281 67.484375-67.488281 18.636719 0 35.503906 7.554687 47.71875 19.769531s19.765625 29.082032 19.765625 47.71875zm0 0" fill="#d0f6ff"/><path d="m323.484375 335.722656v42.371094h-67.484375v-109.859375c18.636719 0 35.503906 7.554687 47.71875 19.769531s19.765625 29.082032 19.765625 47.71875zm0 0" fill="#8fc9f7"/><path d="m297.503906 334.855469v43.238281h-83.007812v-43.238281c0-22.921875 18.582031-41.503907 41.503906-41.503907 11.460938 0 21.835938 4.644532 29.347656 12.15625 7.511719 7.511719 12.15625 17.886719 12.15625 29.347657zm0 0" fill="#8fc9f7"/><path d="m297.503906 334.855469v43.238281h-41.503906v-84.742188c11.460938 0 21.835938 4.644532 29.347656 12.15625 7.511719 7.511719 12.15625 17.886719 12.15625 29.347657zm0 0" fill="#0f9be8"/><path d="m481.261719 377.699219c-7.160157 13.222656-15.433594 25.742187-24.722657 37.429687-8.4375 10.632813-17.71875 20.570313-27.71875 29.722656-45.539062 41.699219-106.210937 67.148438-172.820312 67.148438s-127.28125-25.449219-172.820312-67.148438c-10-9.152343-19.28125-19.089843-27.71875-29.722656-9.289063-11.6875-17.5625-24.207031-24.722657-37.429687zm0 0" fill="#65b2ff"/><path d="m481.261719 377.699219c-7.160157 13.222656-15.433594 25.742187-24.722657 37.429687-8.4375 10.632813-17.71875 20.570313-27.71875 29.722656-45.539062 41.699219-106.210937 67.148438-172.820312 67.148438v-134.300781zm0 0" fill="#0f9be8"/><path d="m428.820312 444.851562c-45.539062 41.699219-106.210937 67.148438-172.820312 67.148438s-127.28125-25.449219-172.820312-67.148438zm0 0" fill="#8fc9f7"/><path d="m428.820312 444.851562c-45.539062 41.699219-106.210937 67.148438-172.820312 67.148438v-67.148438zm0 0" fill="#65b2ff"/><g fill="#fff"><path d="m404.847656 111.75h-1.523437c-6.753907 0-12.226563-5.472656-12.226563-12.226562v-1.523438h-8.714844v1.523438c0 6.753906-5.476562 12.226562-12.230468 12.226562h-1.523438v8.71875h1.523438c6.753906 0 12.230468 5.472656 12.230468 12.226562v1.523438h8.714844v-1.523438c0-6.753906 5.472656-12.226562 12.226563-12.226562h1.523437zm0 0"/><path d="m274.109375 50.882812h-1.523437c-6.753907 0-12.226563-5.476562-12.226563-12.230468v-1.523438h-8.71875v1.523438c0 6.753906-5.472656 12.230468-12.226563 12.230468h-1.523437v8.714844h1.523437c6.753907 0 12.226563 5.472656 12.226563 12.226563v1.523437h8.71875v-1.523437c0-6.753907 5.472656-12.226563 12.226563-12.226563h1.523437zm0 0"/><path d="m119.398438 111.75h-1.523438c-6.753906 0-12.226562-5.472656-12.226562-12.226562v-1.523438h-8.71875v1.523438c0 6.753906-5.472657 12.226562-12.226563 12.226562h-1.523437v8.71875h1.523437c6.753906 0 12.230469 5.472656 12.230469 12.226562v1.523438h8.714844v-1.523438c0-6.753906 5.472656-12.226562 12.226562-12.226562h1.523438zm0 0"/><path d="m66.957031 268.878906h-1.523437c-6.753906 0-12.226563-5.476562-12.226563-12.226562v-1.523438h-8.714843v1.523438c0 6.75-5.476563 12.226562-12.226563 12.226562h-1.527344v8.714844h1.527344c6.753906 0 12.226563 5.472656 12.226563 12.226562v1.527344h8.714843v-1.527344c0-6.753906 5.476563-12.226562 12.226563-12.226562h1.527344v-8.714844zm0 0"/><path d="m487.957031 268.878906h-1.523437c-6.753906 0-12.226563-5.476562-12.226563-12.226562v-1.523438h-8.714843v1.523438c0 6.75-5.476563 12.226562-12.226563 12.226562h-1.527344v8.714844h1.527344c6.75 0 12.226563 5.472656 12.226563 12.226562v1.527344h8.714843v-1.527344c0-6.753906 5.472657-12.226562 12.226563-12.226562h1.523437zm0 0"/></g></svg>