<svg height="512pt" viewBox="0 0 512 512" width="512pt" xmlns="http://www.w3.org/2000/svg"><path d="m512 256c0 141.386719-114.613281 256-256 256s-256-114.613281-256-256 114.613281-256 256-256 256 114.613281 256 256zm0 0" fill="#ffe955"/><path d="m512 256c0 26.050781-3.890625 51.191406-11.128906 74.871094-32.011719 104.847656-129.542969 181.128906-244.871094 181.128906-104.558594 0-194.488281-62.699219-234.230469-152.550781-14-31.628907-21.769531-66.628907-21.769531-103.449219 0-46.21875 12.25-89.570312 33.679688-127 44.121093 77.070312 127.160156 129 222.320312 129s178.210938-51.929688 222.320312-129c21.429688 37.429688 33.679688 80.78125 33.679688 127zm0 0" fill="#ffd112"/><path d="m30.742188 377.703125c7.15625 13.21875 15.429687 25.738281 24.71875 37.425781 46.898437 59.019532 119.300781 96.871094 200.539062 96.871094s153.640625-37.851562 200.539062-96.871094c9.289063-11.6875 17.5625-24.207031 24.71875-37.425781zm0 0" fill="#ff9f00"/><path d="m369.019531 418.039062 22.320313 48.921876-120.339844-20.359376-15-2.542968-15 2.542968-120.191406 20.359376 22.320312-48.921876-111.089844-90.578124 35.039063-12.210938-31.566406-86.761719 86.769531 31.5625 12.207031-35.039062 59.140625 72.546875-10.070312-138.578125 33.410156 16.148437 24.03125-51.507812 15-32.160156 15 32.160156 24.03125 51.507812 33.410156-16.148437-10.070312 138.578125 59.140625-72.546875 12.207031 35.039062 86.769531-31.5625-31.566406 86.761719 35.039063 12.210938-110.929688 90.449218zm0 0" fill="#ed771b"/><path d="m369.019531 418.035156 22.324219 48.921875-135.339844-22.894531h-.003906v-352.605469l39.03125 83.671875 33.410156-16.148437-10.074218 138.582031 59.148437-72.550781 12.207031 35.042969 86.765625-31.566407-31.566406 86.765625 35.042969 12.203125-110.9375 90.449219zm0 0" fill="#c55835"/><path d="m314.820312 213.109375c0 2.171875-.832031 4.351563-2.492187 6.011719l-48.628906 48.628906c-2.089844 2.089844-5.007813 2.871094-7.699219 2.308594-1.578125-.308594-3.089844-1.078125-4.320312-2.308594l-50.507813-50.511719c-3.320313-3.316406-3.320313-8.699219 0-12.019531 1.65625-1.660156 3.828125-2.488281 6.007813-2.488281 2.179687 0 4.351562.828125 6.011718 2.488281l38.488282 38.492188c1.230468 1.230468 2.742187 2 4.320312 2.308593 2.691406.558594 5.609375-.21875 7.699219-2.308593l36.609375-36.609376c3.320312-3.320312 8.703125-3.320312 12.019531 0 1.660156 1.660157 2.492187 3.839844 2.492187 6.007813zm0 0" fill="#c55835"/><path d="m314.820312 213.109375c0 2.171875-.832031 4.351563-2.492187 6.011719l-48.628906 48.628906c-2.089844 2.089844-5.007813 2.871094-7.699219 2.308594v-24.039063c2.691406.558594 5.609375-.21875 7.699219-2.308593l36.609375-36.609376c3.320312-3.320312 8.703125-3.320312 12.019531 0 1.660156 1.660157 2.492187 3.839844 2.492187 6.007813zm0 0" fill="#a63914"/><path d="m314.820312 293.777344c0 2.167968-.832031 4.351562-2.492187 6.007812l-48.628906 48.632813c-2.089844 2.089843-5.007813 2.867187-7.699219 2.308593-1.578125-.308593-3.089844-1.078124-4.320312-2.308593l-50.507813-50.511719c-3.320313-3.320312-3.320313-8.699219 0-12.019531 1.65625-1.660157 3.828125-2.488281 6.007813-2.488281 2.179687 0 4.351562.828124 6.011718 2.488281l38.488282 38.492187c1.230468 1.226563 2.742187 2 4.320312 2.308594 2.691406.558594 5.609375-.21875 7.699219-2.308594l36.609375-36.613281c3.320312-3.320313 8.703125-3.320313 12.019531 0 1.660156 1.660156 2.492187 3.839844 2.492187 6.011719zm0 0" fill="#c55835"/><path d="m314.820312 293.777344c0 2.167968-.832031 4.351562-2.492187 6.007812l-48.628906 48.632813c-2.089844 2.089843-5.007813 2.867187-7.699219 2.308593v-24.039062c2.691406.558594 5.609375-.21875 7.699219-2.308594l36.609375-36.613281c3.320312-3.320313 8.703125-3.320313 12.019531 0 1.660156 1.660156 2.492187 3.839844 2.492187 6.011719zm0 0" fill="#a63914"/><path d="m156.535156 260.8125c1.535156 1.53125 2.488282 3.660156 2.488282 6.007812v68.773438c0 2.957031-1.511719 5.570312-3.808594 7.078125-1.335938.898437-2.949219 1.421875-4.691406 1.421875h-71.429688c-4.695312 0-8.5-3.804688-8.5-8.5 0-2.347656.945312-4.46875 2.488281-6.007812 1.542969-1.542969 3.664063-2.492188 6.011719-2.492188h54.429688c1.742187 0 3.355468-.523438 4.691406-1.417969 2.296875-1.507812 3.808594-4.125 3.808594-7.078125v-51.777344c0-4.691406 3.804687-8.496093 8.5-8.496093 2.347656-.003907 4.476562.953125 6.011718 2.488281zm0 0" fill="#c55835"/><path d="m156.535156 260.8125c1.535156 1.53125 2.488282 3.660156 2.488282 6.007812v68.773438c0 2.957031-1.511719 5.570312-3.808594 7.078125l-17-17c2.296875-1.503906 3.808594-4.121094 3.808594-7.078125v-51.773438c0-4.695312 3.804687-8.5 8.5-8.5 2.347656 0 4.476562.957032 6.011718 2.492188zm0 0" fill="#a63914"/><path d="m359.082031 260.8125c-1.535156 1.53125-2.488281 3.660156-2.488281 6.007812v68.773438c0 2.957031 1.511719 5.570312 3.808594 7.078125 1.335937.898437 2.949218 1.421875 4.691406 1.421875h71.429688c4.695312 0 8.5-3.804688 8.5-8.5 0-2.347656-.949219-4.46875-2.488282-6.007812-1.542968-1.542969-3.664062-2.492188-6.011718-2.492188h-54.433594c-1.738282 0-3.351563-.523438-4.6875-1.417969-2.296875-1.507812-3.808594-4.125-3.808594-7.078125v-51.777344c0-4.691406-3.804688-8.496093-8.5-8.496093-2.347656-.003907-4.476562.953125-6.011719 2.488281zm0 0" fill="#a63914"/><path d="m359.082031 260.8125c-1.535156 1.53125-2.488281 3.660156-2.488281 6.007812v68.773438c0 2.957031 1.511719 5.570312 3.808594 7.078125l17-17c-2.296875-1.503906-3.808594-4.121094-3.808594-7.078125v-51.773438c0-4.695312-3.804688-8.5-8.5-8.5-2.347656 0-4.476562.957032-6.011719 2.492188zm0 0" fill="#7a2d1a"/><path d="m201.535156 305.8125c1.535156 1.53125 2.488282 3.660156 2.488282 6.007812v68.773438c0 2.957031-1.511719 5.570312-3.808594 7.078125-1.335938.898437-2.949219 1.421875-4.691406 1.421875h-71.429688c-4.695312 0-8.5-3.804688-8.5-8.5 0-2.347656.949219-4.46875 2.488281-6.007812 1.542969-1.542969 3.664063-2.492188 6.011719-2.492188h54.433594c1.738281 0 3.351562-.523438 4.6875-1.417969 2.296875-1.507812 3.808594-4.125 3.808594-7.078125v-51.777344c0-4.691406 3.804687-8.496093 8.5-8.496093 2.347656-.003907 4.476562.953125 6.011718 2.488281zm0 0" fill="#c55835"/><path d="m201.535156 305.8125c1.535156 1.53125 2.488282 3.660156 2.488282 6.007812v68.773438c0 2.957031-1.511719 5.570312-3.808594 7.078125l-17-17c2.296875-1.503906 3.808594-4.121094 3.808594-7.078125v-51.773438c0-4.695312 3.804687-8.5 8.5-8.5 2.347656 0 4.476562.957032 6.011718 2.492188zm0 0" fill="#a63914"/><path d="m310.746094 305.8125c-1.53125 1.53125-2.488282 3.660156-2.488282 6.007812v68.773438c0 2.957031 1.515626 5.570312 3.8125 7.078125 1.335938.898437 2.949219 1.421875 4.6875 1.421875h71.433594c4.695313 0 8.496094-3.804688 8.496094-8.5 0-2.347656-.945312-4.46875-2.488281-6.007812-1.542969-1.542969-3.664063-2.492188-6.007813-2.492188h-54.433594c-1.742187 0-3.351562-.523438-4.6875-1.417969-2.300781-1.507812-3.8125-4.125-3.8125-7.078125v-51.777344c0-4.691406-3.804687-8.496093-8.5-8.496093-2.347656-.003907-4.476562.953125-6.011718 2.488281zm0 0" fill="#a63914"/><path d="m310.746094 305.8125c-1.53125 1.53125-2.488282 3.660156-2.488282 6.007812v68.773438c0 2.957031 1.515626 5.570312 3.8125 7.078125l17-17c-2.300781-1.503906-3.8125-4.121094-3.8125-7.078125v-51.773438c0-4.695312-3.804687-8.5-8.5-8.5-2.347656 0-4.476562.957032-6.011718 2.492188zm0 0" fill="#7a2d1a"/><path d="m427.230469 294.039062-156.230469 156.230469v61.289063c-4.609375.269531-9.25.421875-13.929688.429687-.359374.011719-.710937.011719-1.070312.011719-5.039062 0-10.039062-.148438-15-.441406v-60.25l-154.101562-154.097656c-5.820313-5.820313-5.859376-15.230469-.117188-21.101563.039062-.039063.078125-.078125.117188-.121094 5.863281-5.847656 15.363281-5.847656 21.210937 0l132.890625 132.890625v-225.769531c3.148438-6.75 9.710938-9.917969 16.070312-9.507813 5.648438.347657 11.140626 3.519532 13.929688 9.507813v224.742187l135.019531-135.023437c3.480469-3.476563 8.230469-4.886719 12.75-4.238281.460938.070312.921875.160156 1.371094.269531 1.160156.269531 2.289063.691406 3.371094 1.25.207031.109375.429687.230469.636719.351563.839843.488281 1.652343 1.070312 2.402343 1.738281.1875.171875.378907.339843.558594.519531.039063.03125.082031.070312.121094.109375 5.859375 5.863281 5.859375 15.363281 0 21.210937zm0 0" fill="#c55835"/><path d="m241 408.878906v21.449219l-154.21875-154.21875c.039062-.039063.078125-.078125.117188-.121094 5.863281-5.847656 15.363281-5.847656 21.210937 0zm0 0" fill="#a63914"/><path d="m427.230469 294.039062-156.230469 156.230469v61.289063c-4.609375.269531-9.25.421875-13.929688.429687v-338.386719c5.648438.347657 11.140626 3.519532 13.929688 9.507813v224.742187l135.019531-135.023437c3.480469-3.476563 8.230469-4.886719 12.75-4.238281.460938.070312.921875.160156 1.371094.269531 1.160156.269531 2.289063.691406 3.371094 1.25.207031.109375.429687.230469.636719.351563.839843.488281 1.652343 1.070312 2.402343 1.738281.1875.171875.378907.339843.558594.519531.039063.03125.082031.070312.121094.109375 5.859375 5.863281 5.859375 15.363281 0 21.210937zm0 0" fill="#a63914"/><path d="m427.109375 272.71875-156.109375 156.109375v-20.976563l135.019531-135.023437c5.820313-5.816406 15.21875-5.859375 21.089844-.109375zm0 0" fill="#7a2d1a"/></svg>