<svg height="512pt" viewBox="0 0 512 512" width="512pt" xmlns="http://www.w3.org/2000/svg"><path d="m512 256c0 141.386719-114.613281 256-256 256s-256-114.613281-256-256 114.613281-256 256-256 256 114.613281 256 256zm0 0" fill="#b5e237"/><path d="m512 256c0 26.050781-3.890625 51.191406-11.128906 74.871094-32.011719 104.847656-129.542969 181.128906-244.871094 181.128906-104.558594 0-194.488281-62.699219-234.230469-152.550781-14-31.628907-21.769531-66.628907-21.769531-103.449219 0-46.21875 12.25-89.570312 33.679688-127 44.121093 77.070312 127.160156 129 222.320312 129s178.210938-51.929688 222.320312-129c21.429688 37.429688 33.679688 80.78125 33.679688 127zm0 0" fill="#95d600"/><path d="m30.742188 377.703125c7.15625 13.21875 15.429687 25.738281 24.71875 37.425781 46.898437 59.019532 119.300781 96.871094 200.539062 96.871094s153.640625-37.851562 200.539062-96.871094c9.289063-11.6875 17.5625-24.207031 24.71875-37.425781zm0 0" fill="#85af12"/><path d="m271 126.109375v349.5c0 14.601563-6.75 27.820313-17.351562 36.378906-6.738282-.058593-13.410157-.378906-20.007813-.949219-8.660156-.75-17.191406-1.929687-25.582031-3.519531-6.679688-1.269531-13.269532-2.789062-19.75-4.570312-5.386719-7.488281-8.558594-16.667969-8.558594-26.570313v-16.25c0-4.1875 2.5-7.957031 6.148438-9.527344.25-.113281.5-.203124.75-.28125.152343-.050781.3125-.101562.460937-.140624.152344-.050782.3125-.089844.46875-.121094.152344-.027344.3125-.070313.472656-.089844.160157-.027344.320313-.058594.488281-.070312.160157-.019532.320313-.039063.492188-.046876.238281-.023437.480469-.03125.71875-.03125.089844 0 .171875 0 .269531.007813.128907.011719.269531.023437.441407.042969.738281.078125 1.558593.328125 4.878906 1.660156.269531.179688.519531.367188.769531.570312.25.207032.480469.417969.710937.648438.109376.109375.21875.230469.328126.351562.210937.238282.421874.476563.613281.738282.148437.199218.289062.398437.417969.609375.300781.472656.558593.960937.78125 1.480469.097656.21875.179687.449218.257812.691406.070312.199218.140625.417968.191406.628906.03125.078125.050782.171875.058594.25.0625.21875.109375.449219.140625.679688.011719.039062.019531.082031.019531.121093.03125.199219.0625.398438.082032.597657 0 .070312.007812.140624.007812.210937.019531.230469.03125.46875.03125.710937v16.558594c0 13.972656 11.261719 25.382813 25.191406 25.621094 14.328125.238281 26.058594-11.871094 26.058594-26.199219v-349.691406c0-5.519531 4.480469-10 10-10s10 4.480469 10 10zm0 0" fill="#d0f6ff"/><path d="m261 116.109375v360.261719c0 9.839844-3.988281 18.75-10.441406 25.1875-4.578125 4.582031-10.398438 7.929687-16.917969 9.480468-8.660156-.75-17.191406-1.929687-25.582031-3.519531-10.917969-6.089843-18.308594-17.757812-18.308594-31.148437v-26.550782c.089844 0 .171875 0 .269531.007813.128907.011719.269531.023437.441407.042969.738281.078125 1.558593.328125 4.878906 1.660156.269531.179688.519531.367188.769531.570312.25.207032.480469.417969.710937.648438.109376.109375.21875.230469.328126.351562.222656.226563.421874.476563.613281.738282.148437.199218.289062.398437.417969.609375.300781.472656.558593.960937.78125 1.480469.097656.21875.179687.449218.257812.691406.070312.199218.140625.417968.191406.628906.03125.078125.050782.171875.058594.25.0625.21875.109375.449219.140625.679688.011719.039062.019531.082031.019531.121093.03125.199219.0625.398438.082032.597657 0 .070312.007812.140624.007812.210937.019531.230469.03125.46875.03125.710937v16.558594c0 13.972656 11.261719 25.382813 25.191406 25.621094 14.328125.238281 26.058594-11.871094 26.058594-26.199219v-349.691406c0-5.519531 4.480469-10 10-10zm0 0" fill="#fff"/><path d="m423.03125 280.050781h-334.0625c17.28125-76.3125 85.5-133.28125 167.03125-133.28125 1.570312 0 3.128906.019531 4.691406.058594.097656 0 .207032.011719.308594.011719 79.308594 2.28125 145.101562 58.46875 162.03125 133.210937zm0 0" fill="#ff3445"/><path d="m423.03125 280.050781h-254.050781c12.53125-55.3125 46.03125-102.652343 91.710937-133.222656.097656 0 .207032.011719.308594.011719 79.308594 2.28125 145.101562 58.46875 162.03125 133.210937zm0 0" fill="#dd1265"/><path d="m423.03125 280.050781h-162.03125v-133.210937c79.308594 2.28125 145.101562 58.46875 162.03125 133.210937zm0 0" fill="#ba0d5c"/><path d="m261 146.839844v133.210937h-92.019531c12.53125-55.3125 46.03125-102.652343 91.710937-133.222656.097656 0 .207032.011719.308594.011719zm0 0" fill="#dd1265"/><path d="m271 414.328125v61.28125c0 14.601563-6.75 27.820313-17.351562 36.378906-6.738282-.058593-13.410157-.378906-20.007813-.949219-8.660156-.75-17.191406-1.929687-25.582031-3.519531-6.679688-1.269531-13.269532-2.789062-19.75-4.570312-5.386719-7.488281-8.558594-16.667969-8.558594-26.570313v-16.558594c0-4.160156 2.539062-7.71875 6.148438-9.21875.25-.113281.5-.203124.75-.28125.152343-.050781.3125-.101562.460937-.140624.152344-.050782.3125-.089844.46875-.121094.152344-.027344.3125-.070313.472656-.089844.160157-.027344.320313-.058594.488281-.070312.160157-.019532.320313-.039063.492188-.046876.238281-.023437.480469-.03125.71875-.03125.089844 0 .171875 0 .269531.007813.128907.011719.269531.023437.441407.042969.699218.128906 1.910156.507812 4.878906 1.660156.269531.179688.519531.367188.769531.570312.25.207032.480469.417969.710937.648438.109376.109375.21875.230469.328126.351562.210937.238282.421874.476563.613281.738282.148437.199218.289062.398437.417969.609375.300781.472656.558593.960937.78125 1.480469.097656.21875.179687.449218.257812.691406.070312.199218.140625.417968.191406.628906.03125.078125.050782.171875.058594.25.0625.21875.109375.449219.140625.679688.011719.039062.019531.082031.019531.121093.03125.199219.0625.398438.082032.597657 0 .070312.007812.140624.007812.210937.019531.230469.03125.46875.03125.710937v16.558594c0 13.972656 11.261719 25.382813 25.191406 25.621094 14.328125.238281 26.058594-11.871094 26.058594-26.199219v-61.472656zm0 0" fill="#20273a"/><path d="m261 414.328125v62.042969c0 9.839844-3.988281 18.75-10.441406 25.1875-4.578125 4.582031-10.398438 7.929687-16.917969 9.480468-8.660156-.75-17.191406-1.929687-25.582031-3.519531-10.917969-6.089843-18.308594-17.757812-18.308594-31.148437v-26.550782c.089844 0 .171875 0 .269531.007813.128907.011719.269531.023437.441407.042969.699218.128906 1.910156.507812 4.878906 1.660156.269531.179688.519531.367188.769531.570312.25.207032.480469.417969.710937.648438.109376.109375.21875.230469.328126.351562.222656.226563.421874.476563.613281.738282.148437.199218.289062.398437.417969.609375.300781.472656.558593.960937.78125 1.480469.097656.21875.179687.449218.257812.691406.070312.199218.140625.417968.191406.628906.03125.078125.050782.171875.058594.25.0625.21875.109375.449219.140625.679688.011719.039062.019531.082031.019531.121093.03125.199219.0625.398438.082032.597657 0 .070312.007812.140624.007812.210937.019531.230469.03125.46875.03125.710937v16.558594c0 13.972656 11.261719 25.382813 25.191406 25.621094 14.328125.238281 26.058594-11.871094 26.058594-26.199219v-61.472656zm0 0" fill="#474f6f"/><path d="m385.398438 122.859375c-4.058594 3.976563-9.34375 5.933594-14.613282 5.878906-5.328125-.054687-10.644531-2.171875-14.636718-6.335937-7.871094-8.203125-7.265626-21.371094.855468-29.328125l14.261719-13.972657c.011719-.011718.039063-.011718.054687.003907l14.375 14.664062c7.949219 8.113281 7.816407 21.140625-.296874 29.089844zm0 0" fill="#fff"/><path d="m385.398438 122.859375c-4.046876 3.96875-9.320313 5.921875-14.570313 5.878906-.023437 0-.042969-.015625-.039063-.039062l.5-49.53125c0-.03125.042969-.050781.066407-.027344l14.335937 14.625c7.953125 8.117187 7.820313 21.144531-.292968 29.09375zm0 0" fill="#d0f6ff"/><path d="m155.261719 122.859375c-4.058594 3.976563-9.347657 5.933594-14.613281 5.878906-5.332032-.054687-10.644532-2.171875-14.640626-6.335937-7.867187-8.203125-7.261718-21.371094.859376-29.328125l14.257812-13.972657c.015625-.011718.039062-.011718.054688.003907l14.375 14.664062c7.953124 8.113281 7.820312 21.140625-.292969 29.089844zm0 0" fill="#fff"/><path d="m155.261719 122.859375c-4.046875 3.96875-9.320313 5.921875-14.574219 5.878906-.019531 0-.039062-.015625-.039062-.039062l.503906-49.53125c0-.03125.042968-.050781.066406-.027344l14.335938 14.625c7.953124 8.117187 7.820312 21.144531-.292969 29.09375zm0 0" fill="#d0f6ff"/><path d="m278.609375 72.191406c-4.992187 4.894532-11.5 7.296875-17.980469 7.234375-6.558594-.070312-13.101562-2.671875-18.015625-7.796875-9.683593-10.097656-8.9375-26.300781 1.054688-36.09375l17.546875-17.191406c.019531-.019531.050781-.019531.066406 0l17.691406 18.046875c9.785156 9.984375 9.621094 26.015625-.363281 35.800781zm0 0" fill="#fff"/><path d="m278.609375 72.191406c-4.980469 4.878906-11.464844 7.285156-17.929687 7.234375-.027344 0-.050782-.023437-.050782-.050781l.617188-60.949219c0-.042969.054687-.0625.082031-.035156l17.644531 18c9.785156 9.984375 9.621094 26.015625-.363281 35.800781zm0 0" fill="#d0f6ff"/><path d="m65.265625 236.273438c-3.519531 3.449218-8.109375 5.148437-12.683594 5.101562-4.628906-.046875-9.242187-1.886719-12.707031-5.5-6.832031-7.121094-6.304688-18.554688.742188-25.460938l12.378906-12.128906c.011718-.015625.035156-.015625.046875 0l12.480469 12.730469c6.902343 7.042969 6.789062 18.351563-.257813 25.257813zm0 0" fill="#fff"/><path d="m65.265625 236.273438c-3.511719 3.441406-8.085937 5.136718-12.648437 5.101562-.019532 0-.03125-.015625-.03125-.035156l.433593-42.996094c0-.03125.039063-.046875.058594-.023438l12.445313 12.695313c6.902343 7.042969 6.789062 18.351563-.257813 25.257813zm0 0" fill="#d0f6ff"/><path d="m471.609375 236.273438c-3.519531 3.449218-8.109375 5.148437-12.683594 5.101562-4.625-.046875-9.242187-1.886719-12.707031-5.5-6.832031-7.121094-6.304688-18.554688.742188-25.460938l12.378906-12.128906c.011718-.015625.035156-.015625.046875 0l12.480469 12.730469c6.902343 7.042969 6.789062 18.351563-.257813 25.257813zm0 0" fill="#fff"/><path d="m471.609375 236.273438c-3.511719 3.441406-8.085937 5.136718-12.648437 5.101562-.019532 0-.03125-.015625-.03125-.035156l.433593-42.996094c0-.03125.039063-.046875.058594-.023438l12.445313 12.695313c6.902343 7.042969 6.789062 18.351563-.257813 25.257813zm0 0" fill="#d0f6ff"/><path d="m153.371094 352.667969c-3.519532 3.449219-8.109375 5.148437-12.683594 5.101562-4.628906-.046875-9.242188-1.882812-12.707031-5.5-6.832031-7.121093-6.304688-18.550781.742187-25.460937l12.378906-12.128906c.011719-.011719.035157-.011719.046876 0l12.480468 12.730468c6.902344 7.042969 6.785156 18.355469-.257812 25.257813zm0 0" fill="#fff"/><path d="m153.371094 352.667969c-3.511719 3.441406-8.089844 5.140625-12.648438 5.101562-.019531 0-.035156-.015625-.035156-.035156l.4375-42.996094c0-.03125.035156-.042969.058594-.023437l12.445312 12.695312c6.902344 7.042969 6.785156 18.355469-.257812 25.257813zm0 0" fill="#d0f6ff"/><path d="m383.507812 352.667969c-3.523437 3.449219-8.113281 5.148437-12.683593 5.101562-4.585938-.046875-9.15625-1.847656-12.609375-5.394531-6.9375-7.117188-6.402344-18.660156.695312-25.617188l12.269532-12.023437c.042968-.042969.117187-.042969.160156.003906l12.421875 12.671875c6.902343 7.042969 6.789062 18.355469-.253907 25.257813zm0 0" fill="#fff"/><path d="m383.507812 352.667969c-3.492187 3.421875-8.035156 5.121093-12.570312 5.101562-.0625 0-.113281-.050781-.113281-.113281l.433593-42.730469c0-.097656.121094-.148437.191407-.074219l12.316406 12.558594c6.898437 7.042969 6.785156 18.355469-.257813 25.257813zm0 0" fill="#d0f6ff"/></svg>