<svg height="512pt" viewBox="0 0 512 512" width="512pt" xmlns="http://www.w3.org/2000/svg"><path d="m512 256c0 92.269531-48.820312 173.140625-122.03125 218.179688-7.109375 4.378906-14.449219 8.421874-22 12.089843-10.910156 5.320313-22.257812 9.890625-33.980469 13.628907-7.199219 2.300781-14.539062 4.292968-22 5.953124-11.066406 2.476563-22.417969 4.226563-33.988281 5.21875-7.25.609376-14.589844.929688-22 .929688-141.378906 0-256-114.621094-256-256s114.621094-256 256-256 256 114.621094 256 256zm0 0" fill="#65b2ff"/><path d="m512 256c0 26.050781-3.890625 51.191406-11.128906 74.871094-32.011719 104.847656-129.542969 181.128906-244.871094 181.128906-104.558594 0-194.488281-62.699219-234.230469-152.550781-14-31.628907-21.769531-66.628907-21.769531-103.449219 0-46.21875 12.25-89.570312 33.679688-127 44.121093 77.070312 127.160156 129 222.320312 129s178.210938-51.929688 222.320312-129c21.429688 37.429688 33.679688 80.78125 33.679688 127zm0 0" fill="#0f9be8"/><path d="m30.742188 377.703125c7.15625 13.21875 15.429687 25.738281 24.71875 37.425781 46.898437 59.019532 119.300781 96.871094 200.539062 96.871094s153.640625-37.851562 200.539062-96.871094c9.289063-11.6875 17.5625-24.207031 24.71875-37.425781zm0 0" fill="#0066e8"/><path d="m79.71875 244.371094h352.5625v133.96875h-352.5625zm0 0" fill="#ffd112"/><path d="m256 244.371094h133.96875v226.800781h-133.96875zm0 0" fill="#ff9f00"/><path d="m256 244.371094h133.96875v175.800781h-133.96875zm0 0" fill="#ed771b"/><path d="m256 244.371094h176.28125v133.96875h-176.28125zm0 0" fill="#ff9f00"/><path d="m122 244.371094h34v133.96875h-34zm0 0" fill="#ff3445"/><path d="m200 244.371094h34v133.96875h-34zm0 0" fill="#ff3445"/><path d="m278 244.371094h34v133.96875h-34zm0 0" fill="#dd1265"/><path d="m356 244.371094h34v133.96875h-34zm0 0" fill="#dd1265"/><path d="m256 403.171875h133.96875v34h-133.96875zm0 0" fill="#dd1265"/><path d="m278 471.171875v39.898437c-7.25.609376-14.589844.929688-22 .929688v-40.828125zm0 0" fill="#ffd112"/><path d="m333.988281 471.171875v28.726563c-7.199219 2.300781-14.539062 4.292968-22 5.953124v-34.679687zm0 0" fill="#ffd112"/><path d="m389.96875 471.171875v3.007813c-7.109375 4.378906-14.449219 8.421874-22 12.089843v-15.097656zm0 0" fill="#ffd112"/><path d="m256 403.171875h133.96875v17h-133.96875zm0 0" fill="#ba0d5c"/><g fill="#fff"><path d="m171.363281 420.585938v-1.523438h-8.71875v1.523438c0 6.753906-5.472656 12.226562-12.226562 12.226562h-1.523438v8.714844h1.523438c6.753906 0 12.226562 5.476562 12.226562 12.226562v1.527344h8.71875v-1.527344c0-6.75 5.472657-12.226562 12.226563-12.226562h1.523437v-8.714844h-1.523437c-6.753906 0-12.226563-5.472656-12.226563-12.226562zm0 0"/><path d="m174.6875 79.277344-7.070312-7.070313-13.722657 13.722657v-25.265626h-10v25.265626l-13.722656-13.722657-7.070313 7.070313 13.722657 13.722656h-25.265625v10h25.265625l-13.722657 13.722656 7.070313 7.070313 13.722656-13.722657v25.265626h10v-25.265626l13.722657 13.722657 7.070312-7.070313-13.722656-13.722656h25.265625v-10h-25.265625zm0 0"/><path d="m288.402344 166.96875-7.070313-7.074219-11.289062 11.292969v-21.1875h-10v21.1875l-11.292969-11.292969-7.070312 7.074219 11.292968 11.289062h-21.191406v10h21.191406l-11.292968 11.292969 7.070312 7.070313 11.292969-11.292969v21.191406h10v-21.191406l11.289062 11.292969 7.070313-7.070313-11.289063-11.292969h21.1875v-10h-21.1875zm0 0"/><path d="m413.546875 89.425781-7.070313-7.070312-9.980468 9.976562v-18.984375h-10v18.984375l-9.976563-9.976562-7.070312 7.070312 9.976562 9.976563h-18.984375v10h18.984375l-9.976562 9.980468 7.070312 7.070313 9.976563-9.980469v18.984375h10v-18.984375l9.980468 9.980469 7.070313-7.070313-9.980469-9.980468h18.984375v-10h-18.984375zm0 0"/><path d="m84.078125 176.851562v-1.523437h-8.714844v1.523437c0 6.753907-5.476562 12.226563-12.226562 12.226563h-1.527344v8.71875h1.527344c6.75 0 12.226562 5.472656 12.226562 12.226563v1.523437h8.714844v-1.523437c0-6.753907 5.472656-12.226563 12.226563-12.226563h1.523437v-8.71875h-1.523437c-6.753907 0-12.226563-5.472656-12.226563-12.226563zm0 0"/><path d="m463.222656 198.726562c-6.753906 0-12.226562-5.472656-12.226562-12.226562v-1.523438h-8.71875v1.523438c0 6.753906-5.472656 12.226562-12.226563 12.226562h-1.523437v8.71875h1.523437c6.753907 0 12.226563 5.472657 12.226563 12.226563v1.523437h8.71875v-1.523437c0-6.753906 5.472656-12.226563 12.226562-12.226563h1.523438v-8.71875zm0 0"/><path d="m262.640625 89.933594v1.523437h8.71875v-1.523437c0-6.753906 5.472656-12.226563 12.226563-12.226563h1.523437v-8.71875h-1.523437c-6.753907 0-12.226563-5.472656-12.226563-12.226562v-1.523438h-8.71875v1.523438c0 6.753906-5.472656 12.226562-12.226563 12.226562h-1.523437v8.71875h1.523437c6.753907 0 12.226563 5.472657 12.226563 12.226563zm0 0"/></g></svg>