<svg height="512pt" viewBox="0 0 512 512" width="512pt" xmlns="http://www.w3.org/2000/svg"><path d="m512 256c0 141.386719-114.613281 256-256 256s-256-114.613281-256-256 114.613281-256 256-256 256 114.613281 256 256zm0 0" fill="#65b2ff"/><path d="m512 256c0 26.050781-3.890625 51.191406-11.128906 74.871094-32.011719 104.847656-129.542969 181.128906-244.871094 181.128906-104.558594 0-194.488281-62.699219-234.230469-152.550781-14-31.628907-21.769531-66.628907-21.769531-103.449219 0-46.21875 12.25-89.570312 33.679688-127 44.121093 77.070312 127.160156 129 222.320312 129s178.210938-51.929688 222.320312-129c21.429688 37.429688 33.679688 80.78125 33.679688 127zm0 0" fill="#0f9be8"/><path d="m30.742188 377.703125c7.15625 13.21875 15.429687 25.738281 24.71875 37.425781 46.898437 59.019532 119.300781 96.871094 200.539062 96.871094s153.640625-37.851562 200.539062-96.871094c9.289063-11.6875 17.5625-24.207031 24.71875-37.425781zm0 0" fill="#0066e8"/><path d="m429.996094 177.839844-16.214844 9.164062c-8.652344 4.890625-11.605469 15.929688-6.554688 24.488282l9.472657 16.042968-18.609375-.179687c-9.949219-.097657-18.039063 8-17.929688 17.949219l.199219 18.605468-16.054687-9.457031c-8.5625-5.042969-19.597657-2.078125-24.480469 6.578125l-9.152344 16.226562-9.257813-16.289062c-4.902343-8.621094-15.917968-11.558594-24.460937-6.519531l-16.101563 9.492187.1875-18.628906c.097657-9.945312-7.988281-18.03125-17.933593-17.933594l-18.628907.1875 9.472657-16.070312c5.042969-8.554688 2.089843-19.585938-6.554688-24.476563l-16.234375-9.179687 16.234375-9.183594c8.644531-4.890625 11.597657-15.921875 6.554688-24.476562l-9.476563-16.070313 18.632813.183594c9.945312.097656 18.03125-7.988281 17.929687-17.933594l-.183594-18.628906 16.367188 9.648437c8.441406 4.976563 19.316406 2.175782 24.304688-6.261718l9.875-16.695313 8.929687 16.164063c4.824219 8.730468 15.894531 11.777343 24.507813 6.742187l15.945312-9.320313-.320312 18.441407c-.171876 9.988281 7.925781 18.15625 17.917968 18.066406l18.441406-.167969-9.453124 15.867188c-5.105469 8.570312-2.152344 19.667968 6.542968 24.5625zm0 0" fill="#c55835"/><path d="m401.746094 177.835938c0 39.28125-31.828125 71.132812-71.097656 71.167968h-.070313c-39.304687 0-71.164063-31.867187-71.164063-71.167968 0-39.304688 31.859376-71.167969 71.164063-71.167969h.070313c.171874 0 .347656 0 .519531.003906 39.03125.3125 70.578125 32.054687 70.578125 71.164063zm0 0" fill="#ffe955"/><path d="m401.746094 177.835938c0 39.28125-31.828125 71.132812-71.097656 71.167968h-.019532c-23.417968-14.945312-38.945312-41.160156-38.945312-70.992187 0-30.066407 15.761718-56.453125 39.484375-71.339844 39.03125.3125 70.578125 32.054687 70.578125 71.164063zm0 0" fill="#ffd112"/><path d="m401.746094 177.835938c0 39.28125-31.828125 71.132812-71.097656 71.167968v-142.335937c39.269531.035156 71.097656 31.886719 71.097656 71.167969zm0 0" fill="#ff9f00"/><path d="m102.472656 286.496094c0-.207032-.015625-.40625-.015625-.609375 0-37.480469 30.382813-67.863281 67.863281-67.863281 8.902344 0 17.398438 1.734374 25.1875 4.851562 15.050782-26.960938 43.84375-45.199219 76.910157-45.199219 42.941406 0 78.683593 30.75 86.449219 71.429688 2.316406-.332031 4.683593-.511719 7.089843-.511719 23.347657 0 42.90625 16.160156 48.136719 37.902344zm0 0" fill="#fff"/><path d="m168.683594 286.496094c0-.117188-.007813-.234375-.007813-.351563 0-21.550781 17.472657-39.023437 39.023438-39.023437 5.117187 0 10.003906.996094 14.484375 2.789062 8.652344-15.5 25.207031-25.988281 44.222656-25.988281 24.691406 0 45.242188 17.683594 49.710938 41.074219 1.332031-.191406 2.691406-.296875 4.074218-.296875 13.425782 0 24.671875 9.292969 27.679688 21.796875zm0 0" fill="#d0f6ff"/><path d="m137.203125 356.550781c-3.738281 3.664063-8.609375 5.464844-13.460937 5.417969-4.914063-.050781-9.8125-2-13.492188-5.835938-7.253906-7.5625-6.691406-19.695312.789062-27.03125l13.140626-12.875c.015624-.011718.039062-.011718.050781 0l13.246093 13.515626c7.328126 7.476562 7.207032 19.484374-.273437 26.808593zm0 0" fill="#fff"/><path d="m137.203125 356.550781c-3.726563 3.65625-8.585937 5.457031-13.425781 5.417969-.019532 0-.035156-.019531-.035156-.039062l.460937-45.644532c0-.03125.039063-.046875.0625-.023437l13.210937 13.476562c7.328126 7.480469 7.207032 19.488281-.273437 26.8125zm0 0" fill="#d0f6ff"/><path d="m401.203125 356.550781c-3.738281 3.664063-8.609375 5.464844-13.460937 5.417969-4.914063-.050781-9.8125-2-13.492188-5.835938-7.253906-7.5625-6.691406-19.695312.789062-27.03125l13.140626-12.875c.015624-.011718.039062-.011718.050781 0l13.246093 13.515626c7.328126 7.476562 7.207032 19.484374-.273437 26.808593zm0 0" fill="#fff"/><path d="m401.203125 356.550781c-3.726563 3.65625-8.585937 5.457031-13.425781 5.417969-.019532 0-.035156-.019531-.035156-.039062l.460937-45.644532c0-.03125.039063-.046875.0625-.023437l13.210937 13.476562c7.328126 7.480469 7.207032 19.488281-.273437 26.8125zm0 0" fill="#d0f6ff"/><path d="m274.699219 386.695312c-5.292969 5.1875-12.195313 7.738282-19.066407 7.667969-6.957031-.070312-13.894531-2.832031-19.109374-8.265625-10.269532-10.707031-9.476563-27.890625 1.121093-38.277344l18.609375-18.234374c.019532-.019532.050782-.019532.070313 0l18.761719 19.140624c10.378906 10.589844 10.203124 27.589844-.386719 37.96875zm0 0" fill="#fff"/><path d="m274.699219 386.695312c-5.28125 5.175782-12.160157 7.726563-19.015625 7.671876-.027344 0-.050782-.023438-.050782-.054688l.65625-64.640625c0-.042969.054688-.066406.085938-.035156l18.710938 19.089843c10.378906 10.589844 10.203124 27.589844-.386719 37.96875zm0 0" fill="#d0f6ff"/><path d="m349.746094 441.558594c-3.738282 3.664062-8.609375 5.464844-13.460938 5.414062-4.914062-.046875-9.8125-2-13.492187-5.835937-7.253907-7.5625-6.691407-19.695313.789062-27.027344l13.140625-12.875c.015625-.015625.039063-.015625.050782 0l13.246093 13.511719c7.328125 7.480468 7.207031 19.484375-.273437 26.8125zm0 0" fill="#fff"/><path d="m349.746094 441.558594c-3.726563 3.65625-8.585938 5.457031-13.425782 5.414062-.019531 0-.035156-.015625-.035156-.035156l.460938-45.644531c0-.03125.039062-.046875.0625-.023438l13.210937 13.476563c7.328125 7.480468 7.207031 19.484375-.273437 26.8125zm0 0" fill="#d0f6ff"/><path d="m188.683594 441.558594c-3.738282 3.664062-8.613282 5.464844-13.464844 5.414062-4.953125-.046875-9.886719-2.027344-13.578125-5.921875-7.167969-7.566406-6.617187-19.609375.828125-26.90625l13.1875-12.921875c.011719-.011718.035156-.011718.046875.003906l13.25 13.515626c7.332031 7.476562 7.210937 19.484374-.269531 26.816406zm0 0" fill="#fff"/><path d="m188.683594 441.558594c-3.730469 3.652344-8.585938 5.457031-13.429688 5.414062-.019531 0-.035156-.015625-.035156-.035156l.460938-45.652344c0-.03125.039062-.046875.0625-.023437l13.214843 13.476562c7.328125 7.480469 7.207031 19.488281-.273437 26.820313zm0 0" fill="#d0f6ff"/></svg>