<svg height="512pt" viewBox="0 0 512 512" width="512pt" xmlns="http://www.w3.org/2000/svg"><path d="m512 256c0 46.25-12.269531 89.640625-33.730469 127.089844-11.140625 19.441406-24.75 37.28125-40.410156 53.089844-13.519531 13.640624-28.558594 25.769531-44.847656 36.101562-39.613281 25.148438-86.613281 39.71875-137.011719 39.71875s-97.398438-14.570312-137.019531-39.71875c-16.28125-10.339844-31.320313-22.460938-44.839844-36.101562-15.660156-15.808594-29.269531-33.648438-40.410156-53.089844-21.460938-37.449219-33.730469-80.839844-33.730469-127.089844 0-141.378906 114.621094-256 256-256s256 114.621094 256 256zm0 0" fill="#68fcdf"/><path d="m512 256c0 26.050781-3.890625 51.191406-11.128906 74.871094-32.011719 104.847656-129.542969 181.128906-244.871094 181.128906-104.558594 0-194.488281-62.699219-234.230469-152.550781-14-31.628907-21.769531-66.628907-21.769531-103.449219 0-46.21875 12.25-89.570312 33.679688-127 44.121093 77.070312 127.160156 129 222.320312 129s178.210938-51.929688 222.320312-129c21.429688 37.429688 33.679688 80.78125 33.679688 127zm0 0" fill="#10e2c4"/><path d="m30.742188 377.703125c7.15625 13.21875 15.429687 25.738281 24.71875 37.425781 46.898437 59.019532 119.300781 96.871094 200.539062 96.871094s153.640625-37.851562 200.539062-96.871094c9.289063-11.6875 17.5625-24.207031 24.71875-37.425781zm0 0" fill="#0066e8"/><path d="m256 395.640625h-214.589844c-8.730468-13.378906-16.230468-27.628906-22.371094-42.582031 5.582032-6.347656 10.550782-13.328125 14.800782-20.847656l30.410156-53.78125c4.289062-7.578126 9.519531-14.441407 15.5-20.449219 17.808594-17.910157 42.25-28.359375 68.191406-28.359375h78.738282l-15.398438 10.519531c-7.351562 5.019531-13.800781 11.050781-19.203125 17.839844-12.207031 15.339843-19.089844 34.539062-19.089844 54.648437 0 45.839844 37.160157 83.011719 83.011719 83.011719zm0 0" fill="#65b2ff"/><path d="m256 395.640625h-214.589844c-2.039062-3.121094-4-6.28125-5.898437-9.492187 25.367187-10.488282 47.019531-29.25 60.988281-53.9375l30.421875-53.78125c17.058594-30.160157 49.027344-48.808594 83.6875-48.808594h16.070313l-15.398438 10.519531c-23.960938 16.347656-38.292969 43.480469-38.292969 72.488281 0 45.839844 37.160157 83.011719 83.011719 83.011719zm0 0" fill="#0f9be8"/><path d="m478.269531 383.089844c-11.140625 19.441406-24.75 37.28125-40.410156 53.089844-13.519531 13.640624-28.558594 25.769531-44.847656 36.101562-39.613281 25.148438-86.613281 39.71875-137.011719 39.71875s-97.398438-14.570312-137.019531-39.71875c-16.28125-10.339844-31.320313-22.460938-44.839844-36.101562-15.660156-15.808594-29.269531-33.648438-40.410156-53.089844 14.578125 5.289062 24.460937 12.550781 51.597656 12.550781 42.671875 0 42.671875-17.941406 85.332031-17.941406 42.667969 0 42.667969 17.941406 85.339844 17.941406 42.660156 0 42.660156-17.941406 85.328125-17.941406 42.671875 0 42.671875 17.941406 85.332031 17.941406 27.148438 0 37.019532-7.261719 51.609375-12.550781zm0 0" fill="#65b2ff"/><path d="m478.269531 383.089844c-11.140625 19.441406-24.75 37.28125-40.410156 53.089844-13.519531 13.640624-28.558594 25.769531-44.847656 36.101562-39.613281 25.148438-86.613281 39.71875-137.011719 39.71875v-116.359375c42.660156 0 42.660156-17.941406 85.328125-17.941406 42.671875 0 42.671875 17.941406 85.332031 17.941406 27.148438 0 37.019532-7.261719 51.609375-12.550781zm0 0" fill="#0f9be8"/><path d="m437.859375 436.179688c-13.519531 13.640624-28.558594 25.769531-44.847656 36.101562-39.613281 25.148438-86.613281 39.71875-137.011719 39.71875s-97.398438-14.570312-137.019531-39.71875c-16.28125-10.339844-31.320313-22.460938-44.839844-36.101562 3.390625.289062 7.089844.460937 11.1875.460937 42.671875 0 42.671875-17.941406 85.332031-17.941406 42.667969 0 42.667969 17.941406 85.339844 17.941406 42.660156 0 42.660156-17.941406 85.328125-17.941406 42.671875 0 42.671875 17.941406 85.332031 17.941406 4.101563 0 7.808594-.171875 11.199219-.460937zm0 0" fill="#fff"/><path d="m437.859375 436.179688c-13.519531 13.640624-28.558594 25.769531-44.847656 36.101562-39.613281 25.148438-86.613281 39.71875-137.011719 39.71875v-75.359375c42.660156 0 42.660156-17.941406 85.328125-17.941406 42.671875 0 42.671875 17.941406 85.332031 17.941406 4.101563 0 7.808594-.171875 11.199219-.460937zm0 0" fill="#d0f6ff"/><path d="m393.011719 472.28125c-39.613281 25.148438-86.613281 39.71875-137.011719 39.71875s-97.398438-14.570312-137.019531-39.71875c14.628906-5.292969 24.488281-12.570312 51.679687-12.570312 42.667969 0 42.667969 17.929687 85.339844 17.929687 42.660156 0 42.660156-17.929687 85.328125-17.929687 27.203125 0 37.0625 7.277343 51.683594 12.570312zm0 0" fill="#0f9be8"/><path d="m393.011719 472.28125c-39.613281 25.148438-86.613281 39.71875-137.011719 39.71875v-34.359375c42.660156 0 42.660156-17.929687 85.328125-17.929687 27.203125 0 37.0625 7.277343 51.683594 12.570312zm0 0" fill="#0066e8"/><path d="m49.785156 191.34375c0-.121094-.007812-.234375-.007812-.355469 0-21.550781 17.46875-39.019531 39.019531-39.019531 5.121094 0 10.007813.996094 14.484375 2.789062 8.652344-15.503906 25.210938-25.992187 44.226562-25.992187 24.691407 0 45.242188 17.683594 49.710938 41.074219 1.332031-.191406 2.691406-.292969 4.074219-.292969 13.425781 0 24.675781 9.292969 27.679687 21.796875zm0 0" fill="#fff"/><path d="m87.859375 191.34375c0-.070312-.003906-.136719-.003906-.203125 0-12.394531 10.042969-22.441406 22.4375-22.441406 2.945312 0 5.753906.574219 8.328125 1.605469 4.976562-8.914063 14.496094-14.945313 25.429687-14.945313 14.199219 0 26.019531 10.167969 28.585938 23.617187.765625-.109374 1.546875-.167968 2.34375-.167968 7.71875 0 14.1875 5.34375 15.917969 12.53125h-103.039063zm0 0" fill="#d0f6ff"/><path d="m207.808594 95.558594c-.003906-.082032-.007813-.164063-.007813-.246094 0-15.140625 12.273438-27.417969 27.417969-27.417969 3.597656 0 7.027344.703125 10.175781 1.960938 6.078125-10.890625 17.710938-18.261719 31.070313-18.261719 17.351562 0 31.789062 12.425781 34.929687 28.859375.933594-.132813 1.890625-.207031 2.863281-.207031 9.429688 0 17.332032 6.527344 19.445313 15.3125zm0 0" fill="#fff"/><path d="m234.558594 95.558594c0-.046875-.003906-.09375-.003906-.140625 0-8.707031 7.058593-15.765625 15.765624-15.765625 2.066407 0 4.039063.402344 5.851563 1.125 3.496094-6.261719 10.183594-10.5 17.867187-10.5 9.976563 0 18.277344 7.144531 20.082032 16.59375.539062-.074219 1.089844-.117188 1.648437-.117188 5.421875 0 9.964844 3.753906 11.179688 8.804688zm0 0" fill="#d0f6ff"/><path d="m323.792969 192.199219c0-.085938-.003907-.164063-.003907-.25 0-15.140625 12.273438-27.414063 27.414063-27.414063 3.597656 0 7.03125.699219 10.179687 1.957032 6.078126-10.890626 17.710938-18.257813 31.070313-18.257813 17.347656 0 31.789063 12.421875 34.925781 28.859375.9375-.136719 1.890625-.207031 2.863282-.207031 9.433593 0 17.335937 6.527343 19.449218 15.3125zm0 0" fill="#fff"/><path d="m350.542969 192.199219c0-.050781-.003907-.09375-.003907-.144531 0-8.707032 7.058594-15.765626 15.765626-15.765626 2.070312 0 4.042968.402344 5.851562 1.128907 3.496094-6.261719 10.1875-10.5 17.867188-10.5 9.976562 0 18.28125 7.144531 20.085937 16.59375.539063-.078125 1.085937-.121094 1.644531-.121094 5.425782 0 9.96875 3.757813 11.183594 8.808594zm0 0" fill="#d0f6ff"/></svg>