<svg height="512pt" viewBox="0 0 512 512" width="512pt" xmlns="http://www.w3.org/2000/svg"><path d="m512 256c0 141.386719-114.613281 256-256 256s-256-114.613281-256-256 114.613281-256 256-256 256 114.613281 256 256zm0 0" fill="#b5e237"/><path d="m512 256c0 26.050781-3.890625 51.191406-11.128906 74.871094-32.011719 104.847656-129.542969 181.128906-244.871094 181.128906-104.558594 0-194.488281-62.699219-234.230469-152.550781-14-31.628907-21.769531-66.628907-21.769531-103.449219 0-46.21875 12.25-89.570312 33.679688-127 44.121093 77.070312 127.160156 129 222.320312 129s178.210938-51.929688 222.320312-129c21.429688 37.429688 33.679688 80.78125 33.679688 127zm0 0" fill="#95d600"/><path d="m30.742188 377.703125c7.15625 13.21875 15.429687 25.738281 24.71875 37.425781 46.898437 59.019532 119.300781 96.871094 200.539062 96.871094s153.640625-37.851562 200.539062-96.871094c9.289063-11.6875 17.5625-24.207031 24.71875-37.425781zm0 0" fill="#85af12"/><path d="m410.488281 436.289062 9.582031 16.230469c-6.71875 5.609375-13.730468 10.890625-21.011718 15.808594l-6.980469-.066406c-15.179687-.152344-28.199219 9.148437-33.546875 22.378906-31.390625 13.738281-66.070312 21.359375-102.53125 21.359375-36.429688 0-71.089844-7.609375-102.46875-21.328125-5.351562-13.222656-18.371094-22.511719-33.53125-22.363281l-6.980469.070312c-7.300781-4.917968-14.328125-10.207031-21.058593-15.839844l9.578124-16.25c10.171876-17.238281 4.222657-39.480468-13.210937-49.328124l-32.71875-18.511719 32.71875-18.5c17.433594-9.859375 23.382813-32.097657 13.210937-49.339844l-19.089843-32.390625 37.550781.371094c20.039062.199218 36.339844-16.101563 36.140625-36.148438l-.371094-37.550781 32.992188 19.449219c17.007812 10.03125 38.929687 4.378906 48.988281-12.621094l19.898438-33.648438 18 32.578126c9.722656 17.601562 32.03125 23.742187 49.402343 13.589843l32.140625-18.789062-.652344 37.171875c-.347656 20.140625 15.980469 36.597656 36.109376 36.410156l37.179687-.332031-19.046875 31.980469c-10.300781 17.269531-4.339844 39.640624 13.179688 49.511718l32.429687 18.257813-32.691406 18.480469c-17.4375 9.859374-23.390625 32.109374-13.210938 49.359374zm0 0" fill="#c55835"/><path d="m399.441406 368.449219c0 79.171875-64.152344 143.375-143.304687 143.441406h-.136719c-79.222656 0-143.441406-64.226563-143.441406-143.441406 0-79.222657 64.21875-143.445313 143.441406-143.445313h.136719c.347656 0 .699219 0 1.046875.007813 78.671875.628906 142.257812 64.609375 142.257812 143.4375zm0 0" fill="#ffe955"/><path d="m399.441406 368.449219c0 79.171875-64.152344 143.375-143.304687 143.441406h-.042969c-47.199219-30.121094-78.496094-82.957031-78.496094-143.089844 0-60.601562 31.773438-113.785156 79.585938-143.789062 78.671875.628906 142.257812 64.609375 142.257812 143.4375zm0 0" fill="#ffd112"/><path d="m399.441406 368.449219c0 79.171875-64.152344 143.375-143.304687 143.441406v-286.886719c79.152343.066406 143.304687 64.265625 143.304687 143.445313zm0 0" fill="#ff9f00"/><path d="m256 476.078125v-79.367187h-39l39-109.910157v79.367188h39zm0 0" fill="#65b2ff"/><path d="m256 476.078125 18.402344-93.390625h-37.855469l19.453125-95.886719v79.367188h39zm0 0" fill="#0f9be8"/></svg>