<svg height="512pt" viewBox="0 0 512 512" width="512pt" xmlns="http://www.w3.org/2000/svg"><path d="m512 256c0 141.378906-114.621094 256-256 256-85.808594 0-161.761719-42.230469-208.210938-107.03125-11.257812-15.707031-20.789062-32.75-28.300781-50.839844-12.558593-30.21875-19.488281-63.367187-19.488281-98.128906 0-13.621094 1.058594-26.988281 3.121094-40.03125 19.207031-122.367188 125.117187-215.96875 252.878906-215.96875 141.378906 0 256 114.621094 256 256zm0 0" fill="#9e69e2"/><path d="m512 256c0 26.050781-3.890625 51.191406-11.128906 74.871094-32.011719 104.847656-129.542969 181.128906-244.871094 181.128906-65.960938 0-126.101562-24.949219-171.488281-65.949219-26.5625-23.960937-48.070313-53.429687-62.742188-86.601562-14-31.628907-21.769531-66.628907-21.769531-103.449219 0-17.398438 1.730469-34.378906 5.039062-50.808594 5.480469-27.203125 15.28125-52.851562 28.640626-76.191406 44.121093 77.070312 127.160156 129 222.320312 129s178.210938-51.929688 222.320312-129c21.429688 37.429688 33.679688 80.78125 33.679688 127zm0 0" fill="#8e4fd2"/><path d="m30.742188 377.703125c7.15625 13.21875 15.429687 25.738281 24.71875 37.425781 46.898437 59.019532 119.300781 96.871094 200.539062 96.871094s153.640625-37.851562 200.539062-96.871094c9.289063-11.6875 17.5625-24.207031 24.71875-37.425781zm0 0" fill="#7038ba"/><path d="m475.742188 305.96875h-1.523438c-6.75 0-12.226562-5.472656-12.226562-12.226562v-1.523438h-8.714844v1.523438c0 6.753906-5.472656 12.226562-12.226563 12.226562h-1.527343v8.714844h1.527343c6.753907 0 12.226563 5.476562 12.226563 12.226562v1.527344h8.714844v-1.527344c0-6.75 5.476562-12.226562 12.226562-12.226562h1.523438zm0 0" fill="#fff"/><path d="m391.378906 413.160156h-1.523437c-6.753907 0-12.226563-5.472656-12.226563-12.226562v-1.523438h-8.714844v1.523438c0 6.753906-5.476562 12.226562-12.226562 12.226562h-1.527344v8.71875h1.527344c6.75 0 12.226562 5.472656 12.226562 12.226563v1.523437h8.714844v-1.523437c0-6.753907 5.472656-12.226563 12.226563-12.226563h1.523437zm0 0" fill="#ffd112"/><g fill="#fff"><path d="m274.109375 458.601562h-1.523437c-6.753907 0-12.226563-5.472656-12.226563-12.226562v-1.523438h-8.71875v1.523438c0 6.753906-5.472656 12.226562-12.226563 12.226562h-1.523437v8.71875h1.523437c6.753907 0 12.226563 5.472657 12.226563 12.226563v1.523437h8.71875v-1.523437c0-6.753906 5.472656-12.226563 12.226563-12.226563h1.523437zm0 0"/><path d="m73.378906 269.75h-1.523437c-6.753907 0-12.226563-5.472656-12.226563-12.226562v-1.523438h-8.714844v1.523438c0 6.753906-5.476562 12.226562-12.226562 12.226562h-1.527344v8.71875h1.527344c6.75 0 12.226562 5.472656 12.226562 12.226562v1.523438h8.714844v-1.523438c0-6.753906 5.472656-12.226562 12.226563-12.226562h1.523437zm0 0"/><path d="m291.96875 57.75h-1.523438c-6.753906 0-12.226562-5.472656-12.226562-12.226562v-1.523438h-8.714844v1.523438c0 6.753906-5.476562 12.226562-12.230468 12.226562h-1.523438v8.71875h1.523438c6.753906 0 12.230468 5.472656 12.230468 12.226562v1.523438h8.714844v-1.523438c0-6.753906 5.472656-12.226562 12.226562-12.226562h1.523438zm0 0"/></g><path d="m149.96875 111.75h-1.523438c-6.753906 0-12.226562-5.472656-12.226562-12.226562v-1.523438h-8.714844v1.523438c0 6.753906-5.476562 12.226562-12.230468 12.226562h-1.523438v8.71875h1.523438c6.753906 0 12.230468 5.472656 12.230468 12.226562v1.523438h8.714844v-1.523438c0-6.753906 5.472656-12.226562 12.226562-12.226562h1.523438zm0 0" fill="#ffd112"/><path d="m448.96875 163.753906h-1.523438c-6.753906 0-12.226562-5.476562-12.226562-12.230468v-1.523438h-8.714844v1.523438c0 6.753906-5.476562 12.230468-12.230468 12.230468h-1.523438v8.714844h1.523438c6.753906 0 12.230468 5.472656 12.230468 12.226562v1.523438h8.714844v-1.523438c0-6.753906 5.472656-12.226562 12.226562-12.226562h1.523438zm0 0" fill="#ffd112"/><path d="m137.808594 386.070312h-1.523438c-6.753906 0-12.226562-5.472656-12.226562-12.226562v-1.523438h-8.714844v1.523438c0 6.753906-5.476562 12.226562-12.226562 12.226562h-1.527344v8.71875h1.527344c6.75 0 12.226562 5.472657 12.226562 12.226563v1.523437h8.714844v-1.523437c0-6.753906 5.472656-12.226563 12.226562-12.226563h1.523438zm0 0" fill="#ffd112"/><path d="m395.890625 256c0 52.300781-28.71875 97.921875-71.230469 121.910156-.898437.511719-1.808594 1.011719-2.730468 1.5-.269532.140625-.53125.28125-.800782.417969-.007812.011719-.019531.011719-.027344.011719-.363281.191406-.722656.378906-1.082031.558594-19.121093 9.871093-40.800781 15.453124-63.78125 15.492187h-.488281c-77.148438-.140625-139.640625-62.710937-139.640625-139.890625s62.492187-139.75 139.640625-139.890625h.488281c22.972657.03125 44.652344 5.589844 63.75 15.46875.371094.191406.742188.390625 1.113281.582031.007813 0 .019532 0 .027344.011719.261719.128906.519532.269531.78125.40625.910156.492187 1.808594.992187 2.710938 1.5 42.539062 23.980469 71.269531 69.601563 71.269531 121.921875zm0 0" fill="#ffe955"/><path d="m395.890625 256c0 52.300781-28.71875 97.921875-71.230469 121.910156-.898437.511719-1.808594 1.011719-2.730468 1.5-.269532.140625-.53125.28125-.800782.417969-.007812.011719-.019531.011719-.027344.011719-.363281.191406-.722656.378906-1.082031.558594-19.121093 9.871093-40.800781 15.453124-63.78125 15.492187-45.609375-29.8125-75.75-81.332031-75.75-139.890625s30.140625-110.078125 75.75-139.890625c22.972657.03125 44.652344 5.589844 63.75 15.46875.371094.191406.742188.390625 1.113281.582031.007813 0 .019532 0 .027344.011719.261719.128906.519532.269531.78125.40625.910156.492187 1.808594.992187 2.710938 1.5 42.539062 23.980469 71.269531 69.601563 71.269531 121.921875zm0 0" fill="#ffd112"/><path d="m395.890625 256c0 52.300781-28.71875 97.921875-71.230469 121.910156-.898437.511719-1.808594 1.011719-2.730468 1.5-.269532.140625-.53125.28125-.800782.417969-.007812.011719-.019531.011719-.027344.011719-.363281.191406-.722656.378906-1.082031.558594-19.148437 9.882812-40.859375 15.472656-63.878906 15.492187h-.390625v-279.78125h.390625c23.007813.011719 44.71875 5.582031 63.847656 15.46875.371094.191406.742188.390625 1.113281.582031.007813 0 .019532 0 .027344.011719.261719.128906.519532.269531.78125.40625.910156.492187 1.808594.992187 2.710938 1.5 42.539062 23.980469 71.269531 69.601563 71.269531 121.921875zm0 0" fill="#ff9f00"/><path d="m362 256c0 39.628906-21.761719 74.199219-53.96875 92.378906-.691406.382813-1.382812.761719-2.070312 1.132813-.210938.109375-.402344.207031-.609376.316406-.011718.011719-.011718.011719-.023437.011719-.269531.140625-.546875.289062-.816406.421875-14.511719 7.488281-30.960938 11.71875-48.402344 11.738281h-.359375c-16.101562-.039062-31.359375-3.671875-45.019531-10.140625-35.902344-16.96875-60.730469-53.507813-60.730469-95.859375s24.828125-78.890625 60.730469-95.859375c13.660156-6.46875 28.917969-10.101563 45.019531-10.140625h.359375c17.429687.011719 33.878906 4.230469 48.378906 11.71875.28125.152344.5625.300781.839844.441406.011719 0 .011719 0 .023437.011719.199219.097656.398438.199219.589844.308594.6875.371093 1.367188.75 2.058594 1.140625 32.230469 18.167968 54 52.738281 54 92.378906zm0 0" fill="#747e9e"/><path d="m362 256c0 39.628906-21.761719 74.199219-53.96875 92.378906-.691406.382813-1.382812.761719-2.070312 1.132813-.210938.109375-.402344.207031-.609376.316406-.011718.011719-.011718.011719-.023437.011719-.269531.140625-.546875.289062-.816406.421875-14.511719 7.488281-30.960938 11.71875-48.402344 11.738281h-.359375c-16.101562-.039062-31.359375-3.671875-45.019531-10.140625-19.058594-27.128906-30.242188-60.1875-30.242188-95.859375s11.183594-68.730469 30.242188-95.859375c13.660156-6.46875 28.917969-10.101563 45.019531-10.140625h.359375c17.429687.011719 33.878906 4.230469 48.378906 11.71875.28125.152344.5625.300781.839844.441406.011719 0 .011719 0 .023437.011719.199219.097656.398438.199219.589844.308594.6875.371093 1.367188.75 2.058594 1.140625 32.230469 18.167968 54 52.738281 54 92.378906zm0 0" fill="#474f6f"/><path d="m362 256c0 39.628906-21.761719 74.199219-53.96875 92.378906-.691406.382813-1.382812.761719-2.070312 1.132813-.210938.109375-.402344.207031-.609376.316406-.011718.011719-.011718.011719-.023437.011719-.269531.140625-.546875.289062-.816406.421875-14.511719 7.488281-30.960938 11.71875-48.402344 11.738281h-.359375v-212h.359375c17.429687.011719 33.878906 4.230469 48.378906 11.71875.28125.152344.5625.300781.839844.441406.011719 0 .011719 0 .023437.011719.199219.097656.398438.199219.589844.308594.6875.371093 1.367188.75 2.058594 1.140625 32.230469 18.167968 54 52.738281 54 92.378906zm0 0" fill="#20273a"/></svg>