<svg height="512pt" viewBox="0 0 512 512" width="512pt" xmlns="http://www.w3.org/2000/svg"><path d="m512 256c0 141.386719-114.613281 256-256 256s-256-114.613281-256-256 114.613281-256 256-256 256 114.613281 256 256zm0 0" fill="#ffe955"/><path d="m512 256c0 26.050781-3.890625 51.191406-11.128906 74.871094-32.011719 104.847656-129.542969 181.128906-244.871094 181.128906-104.558594 0-194.488281-62.699219-234.230469-152.550781-14-31.628907-21.769531-66.628907-21.769531-103.449219 0-46.21875 12.25-89.570312 33.679688-127 44.121093 77.070312 127.160156 129 222.320312 129s178.210938-51.929688 222.320312-129c21.429688 37.429688 33.679688 80.78125 33.679688 127zm0 0" fill="#ffd112"/><path d="m30.742188 377.703125c7.15625 13.21875 15.429687 25.738281 24.71875 37.425781 46.898437 59.019532 119.300781 96.871094 200.539062 96.871094s153.640625-37.851562 200.539062-96.871094c9.289063-11.6875 17.5625-24.207031 24.71875-37.425781zm0 0" fill="#ff9f00"/><path d="m437.851562 328.4375-29.105468 16.453125c-15.527344 8.777344-20.828125 28.589844-11.761719 43.949219l17 28.796875-33.398437-.328125c-17.859376-.175782-32.375 14.355468-32.183594 32.214844l.359375 33.398437-28.8125-16.972656c-15.371094-9.054688-35.175781-3.730469-43.9375 11.804687l-16.429688 29.117188-16.617187-29.230469c-8.796875-15.472656-28.566406-20.742187-43.898438-11.703125l-28.902344 17.039062.332032-33.433593c.179687-17.851563-14.335938-32.367188-32.1875-32.191407l-33.433594.332032 17.003906-28.835938c9.054688-15.359375 3.75-35.15625-11.765625-43.933594l-29.136719-16.476562 29.136719-16.480469c15.515625-8.777343 20.816407-28.574219 11.761719-43.929687l-17.003906-28.839844 33.4375.328125c17.847656.175781 32.363281-14.339844 32.183594-32.1875l-.332032-33.4375 29.375 17.320313c15.152344 8.929687 34.671875 3.902343 43.625-11.234376l17.722656-29.972656 16.023438 29.011719c8.660156 15.675781 28.53125 21.140625 43.988281 12.101563l28.617188-16.730469-.570313 33.101562c-.3125 17.929688 14.222656 32.585938 32.15625 32.421875l33.101563-.296875-16.96875 28.476563c-9.167969 15.382812-3.863281 35.300781 11.742187 44.085937zm0 0" fill="#c55835"/><path d="m387.140625 328.433594c0 70.5-57.121094 127.667968-127.605469 127.726562h-.121094c-70.542968 0-127.726562-57.1875-127.726562-127.726562 0-70.542969 57.183594-127.734375 127.726562-127.734375h.121094c.3125 0 .625 0 .9375.011719 70.046875.558593 126.667969 57.527343 126.667969 127.722656zm0 0" fill="#ffe955"/><path d="m387.140625 328.433594c0 70.5-57.121094 127.667968-127.605469 127.726562h-.035156c-42.03125-26.820312-69.898438-73.867187-69.898438-127.414062 0-53.964844 28.292969-101.320313 70.871094-128.039063 70.046875.5625 126.667969 57.53125 126.667969 127.726563zm0 0" fill="#ffd112"/><path d="m387.140625 328.433594c0 70.5-57.121094 127.667968-127.605469 127.726562v-255.460937c70.484375.0625 127.605469 57.230469 127.605469 127.734375zm0 0" fill="#ff9f00"/><path d="m478.269531 383.089844c-11.140625 19.441406-24.75 37.28125-40.410156 53.089844-13.519531 13.640624-28.558594 25.769531-44.847656 36.101562-39.613281 25.148438-86.613281 39.71875-137.011719 39.71875s-97.398438-14.570312-137.019531-39.71875c-16.28125-10.339844-31.320313-22.460938-44.839844-36.101562-15.660156-15.808594-29.269531-33.648438-40.410156-53.089844 14.578125 5.289062 24.460937 12.550781 51.597656 12.550781 42.671875 0 42.671875-17.941406 85.332031-17.941406 42.667969 0 42.667969 17.941406 85.339844 17.941406 42.660156 0 42.660156-17.941406 85.328125-17.941406 42.671875 0 42.671875 17.941406 85.332031 17.941406 27.148438 0 37.019532-7.261719 51.609375-12.550781zm0 0" fill="#65b2ff"/><path d="m478.269531 383.089844c-11.140625 19.441406-24.75 37.28125-40.410156 53.089844-13.519531 13.640624-28.558594 25.769531-44.847656 36.101562-39.613281 25.148438-86.613281 39.71875-137.011719 39.71875v-116.359375c42.660156 0 42.660156-17.941406 85.328125-17.941406 42.671875 0 42.671875 17.941406 85.332031 17.941406 27.148438 0 37.019532-7.261719 51.609375-12.550781zm0 0" fill="#0f9be8"/><path d="m437.859375 436.179688c-13.519531 13.640624-28.558594 25.769531-44.847656 36.101562-39.613281 25.148438-86.613281 39.71875-137.011719 39.71875s-97.398438-14.570312-137.019531-39.71875c-16.28125-10.339844-31.320313-22.460938-44.839844-36.101562 3.390625.289062 7.089844.460937 11.1875.460937 42.671875 0 42.671875-17.941406 85.332031-17.941406 42.667969 0 42.667969 17.941406 85.339844 17.941406 42.660156 0 42.660156-17.941406 85.328125-17.941406 42.671875 0 42.671875 17.941406 85.332031 17.941406 4.101563 0 7.808594-.171875 11.199219-.460937zm0 0" fill="#fff"/><path d="m437.859375 436.179688c-13.519531 13.640624-28.558594 25.769531-44.847656 36.101562-39.613281 25.148438-86.613281 39.71875-137.011719 39.71875v-75.359375c42.660156 0 42.660156-17.941406 85.328125-17.941406 42.671875 0 42.671875 17.941406 85.332031 17.941406 4.101563 0 7.808594-.171875 11.199219-.460937zm0 0" fill="#d0f6ff"/><path d="m393.011719 472.28125c-39.613281 25.148438-86.613281 39.71875-137.011719 39.71875s-97.398438-14.570312-137.019531-39.71875c14.628906-5.292969 24.488281-12.570312 51.679687-12.570312 42.667969 0 42.667969 17.929687 85.339844 17.929687 42.660156 0 42.660156-17.929687 85.328125-17.929687 27.203125 0 37.0625 7.277343 51.683594 12.570312zm0 0" fill="#0f9be8"/><path d="m393.011719 472.28125c-39.613281 25.148438-86.613281 39.71875-137.011719 39.71875v-34.359375c42.660156 0 42.660156-17.929687 85.328125-17.929687 27.203125 0 37.0625 7.277343 51.683594 12.570312zm0 0" fill="#0066e8"/><g fill="#ff9f00"><path d="m274.109375 57.75h-1.523437c-6.753907 0-12.226563-5.472656-12.226563-12.226562v-1.523438h-8.71875v1.523438c0 6.753906-5.472656 12.226562-12.226563 12.226562h-1.523437v8.71875h1.523437c6.753907 0 12.226563 5.472656 12.226563 12.226562v1.523438h8.71875v-1.523438c0-6.753906 5.472656-12.226562 12.226563-12.226562h1.523437zm0 0"/><path d="m148.609375 111.75h-1.523437c-6.753907 0-12.226563-5.472656-12.226563-12.226562v-1.523438h-8.71875v1.523438c0 6.753906-5.472656 12.226562-12.226563 12.226562h-1.523437v8.71875h1.523437c6.753907 0 12.226563 5.472656 12.226563 12.226562v1.523438h8.71875v-1.523438c0-6.753906 5.472656-12.226562 12.226563-12.226562h1.523437zm0 0"/><path d="m399.609375 111.75h-1.523437c-6.753907 0-12.226563-5.472656-12.226563-12.226562v-1.523438h-8.71875v1.523438c0 6.753906-5.472656 12.226562-12.226563 12.226562h-1.523437v8.71875h1.523437c6.753907 0 12.226563 5.472656 12.226563 12.226562v1.523438h8.71875v-1.523438c0-6.753906 5.472656-12.226562 12.226563-12.226562h1.523437zm0 0"/><path d="m114.609375 194.058594h-1.523437c-6.753907 0-12.226563-5.472656-12.226563-12.226563v-1.523437h-8.71875v1.523437c0 6.753907-5.472656 12.226563-12.226563 12.226563h-1.523437v8.714844h1.523437c6.753907 0 12.226563 5.472656 12.226563 12.226562v1.527344h8.71875v-1.527344c0-6.753906 5.472656-12.226562 12.226563-12.226562h1.523437zm0 0"/><path d="m433.609375 194.058594h-1.523437c-6.753907 0-12.226563-5.472656-12.226563-12.226563v-1.523437h-8.71875v1.523437c0 6.753907-5.472656 12.226563-12.226563 12.226563h-1.523437v8.714844h1.523437c6.753907 0 12.226563 5.472656 12.226563 12.226562v1.527344h8.71875v-1.527344c0-6.753906 5.472656-12.226562 12.226563-12.226562h1.523437zm0 0"/></g></svg>