<svg height="512pt" viewBox="0 0 512 512" width="512pt" xmlns="http://www.w3.org/2000/svg"><path d="m512 256c0 141.386719-114.613281 256-256 256s-256-114.613281-256-256 114.613281-256 256-256 256 114.613281 256 256zm0 0" fill="#ffe955"/><path d="m512 256c0 26.050781-3.890625 51.191406-11.128906 74.871094-32.011719 104.847656-129.542969 181.128906-244.871094 181.128906-104.558594 0-194.488281-62.699219-234.230469-152.550781-14-31.628907-21.769531-66.628907-21.769531-103.449219 0-46.21875 12.25-89.570312 33.679688-127 44.121093 77.070312 127.160156 129 222.320312 129s178.210938-51.929688 222.320312-129c21.429688 37.429688 33.679688 80.78125 33.679688 127zm0 0" fill="#ffd112"/><path d="m30.742188 377.703125c7.15625 13.21875 15.429687 25.738281 24.71875 37.425781 46.898437 59.019532 119.300781 96.871094 200.539062 96.871094s153.640625-37.851562 200.539062-96.871094c9.289063-11.6875 17.5625-24.207031 24.71875-37.425781zm0 0" fill="#ff9f00"/><path d="m382 199.820312v279.070313c-4.898438 2.78125-9.898438 5.398437-15 7.847656-2.128906 1.03125-4.269531 2.023438-6.429688 2.992188-.582031.257812-1.171874.519531-1.761718.78125-.039063.019531-.089844.039062-.128906.058593-.628907.28125-1.257813.550782-1.890626.808594-.347656.160156-.699218.3125-1.050781.449219-1.089843.460937-2.179687.921875-3.269531 1.363281-.820312.328125-1.648438.660156-2.46875.988282-.820312.320312-1.648438.640624-2.480469.960937-1.660156.640625-3.320312 1.257813-5 1.859375-26.878906 9.660156-55.828125 14.941406-86.019531 15h-.5c-30.371094 0-59.5-5.289062-86.519531-15h-5v-1.859375c-6.289063-2.390625-12.449219-5.039063-18.480469-7.921875-5.101562-2.429688-10.101562-5.019531-15-7.757812v-279.640626zm0 0" fill="#fff"/><path d="m382 199.820312v279.070313c-4.898438 2.78125-9.898438 5.398437-15 7.847656-2.128906 1.03125-4.269531 2.023438-6.429688 2.992188-.582031.257812-1.171874.519531-1.761718.78125-.039063.019531-.089844.039062-.128906.058593-.628907.28125-1.257813.550782-1.890626.808594-.347656.160156-.699218.3125-1.050781.449219-1.089843.460937-2.179687.921875-3.269531 1.363281-.820312.328125-1.648438.660156-2.46875.988282-.820312.320312-1.648438.640624-2.480469.960937-1.660156.640625-3.320312 1.257813-5 1.859375-26.878906 9.660156-55.828125 14.941406-86.019531 15v-312.179688zm0 0" fill="#d0f6ff"/><g fill="#474f6f"><path d="m146 199.820312v287.398438c-5.101562-2.429688-10.101562-5.019531-15-7.757812-5.109375-2.871094-10.109375-5.902344-15-9.101563v-270.539063zm0 0"/><path d="m342.519531 497c-26.878906 9.660156-55.828125 14.941406-86.019531 15h-.5c-30.371094 0-59.5-5.289062-86.519531-15zm0 0"/><path d="m397 199.820312v269.878907c-4.890625 3.230469-9.890625 6.300781-15 9.191406-4.898438 2.78125-9.898438 5.398437-15 7.847656v-286.917969zm0 0"/></g><path d="m342.519531 497c-26.878906 9.660156-55.828125 14.941406-86.019531 15h-.5v-15zm0 0" fill="#20273a"/><path d="m397 199.820312v269.878907c-4.890625 3.230469-9.890625 6.300781-15 9.191406-4.898438 2.78125-9.898438 5.398437-15 7.847656v-286.917969zm0 0" fill="#20273a"/><path d="m347.519531 232.480469v262.660156c-1.660156.640625-3.320312 1.257813-5 1.859375-26.878906 9.660156-55.828125 14.941406-86.019531 15h-.5c-30.371094 0-59.5-5.289062-86.519531-15h-5v-264.519531c15.257812 0 15.257812 6.417969 30.507812 6.417969s15.25-6.417969 30.5-6.417969c15.261719 0 15.261719 6.417969 30.511719 6.417969.171875 0 .339844 0 .5-.007813 14.75-.128906 14.921875-6.410156 30-6.410156 15.261719 0 15.261719 6.417969 30.511719 6.417969s15.25-6.417969 30.507812-6.417969zm0 0" fill="#65b2ff"/><path d="m347.519531 232.480469v262.660156c-1.660156.640625-3.320312 1.257813-5 1.859375-26.878906 9.660156-55.828125 14.941406-86.019531 15h-.5v-273.101562c15.25 0 15.25-6.417969 30.5-6.417969 15.261719 0 15.261719 6.417969 30.511719 6.417969s15.25-6.417969 30.507812-6.417969zm0 0" fill="#0f9be8"/><path d="m347.519531 346.21875v148.921875c-1.660156.640625-3.320312 1.257813-5 1.859375-26.878906 9.660156-55.828125 14.941406-86.019531 15h-.5c-30.371094 0-59.5-5.289062-86.519531-15h-5v-150.78125c15.257812 0 15.257812 6.421875 30.507812 6.421875s15.25-6.421875 30.5-6.421875c15.261719 0 15.261719 6.421875 30.511719 6.421875.171875 0 .339844 0 .5-.011719 14.75-.128906 14.921875-6.410156 30-6.410156 15.261719 0 15.261719 6.421875 30.511719 6.421875s15.25-6.421875 30.507812-6.421875zm0 0" fill="#0f9be8"/><path d="m347.519531 346.21875v148.921875c-1.660156.640625-3.320312 1.257813-5 1.859375-26.878906 9.660156-55.828125 14.941406-86.019531 15h-.5v-159.359375c15.25 0 15.25-6.421875 30.5-6.421875 15.261719 0 15.261719 6.421875 30.511719 6.421875s15.25-6.421875 30.507812-6.421875zm0 0" fill="#0066e8"/><path d="m347.519531 429.109375v66.03125c-1.660156.640625-3.320312 1.257813-5 1.859375-26.878906 9.660156-55.828125 14.941406-86.019531 15h-.5c-30.371094 0-59.5-5.289062-86.519531-15h-5v-67.890625c15.257812 0 15.257812 6.410156 30.507812 6.410156s15.25-6.410156 30.5-6.410156c15.261719 0 15.261719 6.410156 30.511719 6.410156.171875 0 .339844 0 .5-.007812.230469.007812.460938 0 .679688-.011719.339843-.011719.660156-.019531.980468-.03125.320313-.007812.628906-.027344.941406-.046875.609376-.050781 1.199219-.101563 1.757813-.160156.199219-.011719.378906-.042969.5625-.0625.117187-.019531.238281-.039063.359375-.050781.46875-.070313.917969-.136719 1.359375-.21875h.03125c.5-.089844.96875-.191407 1.429687-.300782.148438-.039062.308594-.070312.449219-.109375.378907-.097656.738281-.199219 1.089844-.300781.070313-.019531.140625-.039062.210937-.058594.238282-.070312.46875-.140625.707032-.21875.230468-.082031.460937-.160156.679687-.242187.511719-.179688 1.011719-.371094 1.5-.558594.191407-.070313.382813-.152344.570313-.21875.242187-.113281.480468-.210937.722656-.300781.71875-.300782 1.429688-.609375 2.160156-.902344.238282-.097656.480469-.199219.730469-.289062.25-.101563.5-.199219.75-.289063 1.039063-.390625 2.136719-.75 3.378906-1.050781.179688-.050782.359375-.089844.550781-.128906.089844-.03125.1875-.050782.277344-.0625.152344-.039063.3125-.070313.460938-.097657.582031-.121093 1.199218-.230469 1.851562-.320312.078125-.011719.167969-.019531.25-.03125.699219-.097657 1.449219-.167969 2.25-.230469.308594-.019531.617188-.039062.9375-.046875.261719-.023437.519532-.03125.78125-.03125.511719-.019531 1.039063-.03125 1.589844-.03125 15.261719 0 15.261719 6.410156 30.511719 6.410156s15.25-6.410156 30.507812-6.410156zm0 0" fill="#65b2ff"/><path d="m347.519531 429.109375v66.03125c-1.660156.640625-3.320312 1.257813-5 1.859375-26.878906 9.660156-55.828125 14.941406-86.019531 15h-.5v-76.480469c.171875 0 .339844 0 .5-.007812.230469.007812.460938 0 .679688-.011719.332031 0 .660156-.011719.980468-.03125.320313-.007812.628906-.027344.941406-.046875.617188-.042969 1.199219-.09375 1.757813-.160156.199219-.011719.378906-.042969.5625-.0625.117187-.007813.238281-.027344.359375-.050781.46875-.058594.917969-.136719 1.359375-.21875h.03125c.5-.089844.96875-.191407 1.429687-.300782.148438-.039062.308594-.070312.449219-.109375.378907-.089843.738281-.191406 1.089844-.300781.070313-.019531.140625-.039062.210937-.058594.238282-.070312.476563-.148437.707032-.21875.230468-.082031.460937-.160156.679687-.242187.523438-.167969 1.011719-.359375 1.5-.558594.191407-.070313.382813-.152344.570313-.21875.25-.101563.492187-.203125.722656-.300781.71875-.300782 1.429688-.609375 2.160156-.902344.238282-.097656.480469-.199219.730469-.289062.25-.101563.5-.199219.75-.289063 1.039063-.390625 2.136719-.75 3.378906-1.050781.179688-.050782.359375-.089844.550781-.128906.089844-.03125.1875-.050782.277344-.0625.152344-.039063.3125-.070313.460938-.097657.582031-.121093 1.199218-.230469 1.851562-.320312.078125-.011719.167969-.019531.25-.03125.699219-.097657 1.449219-.167969 2.25-.230469.308594-.019531.617188-.039062.9375-.046875.261719-.023437.519532-.03125.78125-.03125.511719-.019531 1.039063-.03125 1.589844-.03125 15.261719 0 15.261719 6.410156 30.511719 6.410156s15.25-6.410156 30.507812-6.410156zm0 0" fill="#0f9be8"/><path d="m304.988281 371.289062-48.488281-48.488281-48.488281 48.488281h24.058593l-7.96875 65.25h64.796876l-7.96875-65.25zm0 0" fill="#474f6f"/><path d="m304.988281 371.289062-48.488281-48.488281v113.738281h32.398438l-7.96875-65.25zm0 0" fill="#20273a"/></svg>