<svg height="512pt" viewBox="0 0 512 512" width="512pt" xmlns="http://www.w3.org/2000/svg"><path d="m512 256c0 89.28125-45.710938 167.890625-115 213.699219-4.890625 3.230469-9.890625 6.300781-15 9.191406-4.898438 2.78125-9.898438 5.398437-15 7.847656-4.761719 2.300781-9.609375 4.453125-14.53125 6.453125-.820312.328125-1.648438.660156-2.46875.988282-.820312.320312-1.648438.640624-2.480469.960937-1.660156.640625-3.320312 1.257813-5 1.859375-26.878906 9.660156-55.828125 14.941406-86.019531 15h-.5c-30.371094 0-59.5-5.289062-86.519531-15-1.679688-.601562-3.339844-1.21875-5-1.859375-6.289063-2.390625-12.449219-5.039063-18.480469-7.921875-5.101562-2.429688-10.101562-5.019531-15-7.757812-5.109375-2.871094-10.109375-5.902344-15-9.101563-69.851562-45.710937-116-124.648437-116-214.359375 0-141.378906 114.621094-256 256-256s256 114.621094 256 256zm0 0" fill="#b5e237"/><path d="m512 256c0 26.050781-3.890625 51.191406-11.128906 74.871094-32.011719 104.847656-129.542969 181.128906-244.871094 181.128906-104.558594 0-194.488281-62.699219-234.230469-152.550781-14-31.628907-21.769531-66.628907-21.769531-103.449219 0-46.21875 12.25-89.570312 33.679688-127 44.121093 77.070312 127.160156 129 222.320312 129s178.210938-51.929688 222.320312-129c21.429688 37.429688 33.679688 80.78125 33.679688 127zm0 0" fill="#95d600"/><path d="m30.742188 377.703125c7.15625 13.21875 15.429687 25.738281 24.71875 37.425781 46.898437 59.019532 119.300781 96.871094 200.539062 96.871094s153.640625-37.851562 200.539062-96.871094c9.289063-11.6875 17.5625-24.207031 24.71875-37.425781zm0 0" fill="#85af12"/><path d="m382 199.820312v279.070313c-4.898438 2.78125-9.898438 5.398437-15 7.847656-4.761719 2.300781-9.609375 4.453125-14.53125 6.453125-.820312.328125-1.648438.660156-2.46875.988282-.820312.320312-1.648438.640624-2.480469.960937-1.660156.640625-3.320312 1.257813-5 1.859375-26.878906 9.660156-55.828125 14.941406-86.019531 15h-.5c-30.371094 0-59.5-5.289062-86.519531-15-1.679688-.601562-3.339844-1.21875-5-1.859375-6.289063-2.390625-12.449219-5.039063-18.480469-7.921875-5.101562-2.429688-10.101562-5.019531-15-7.757812v-279.640626zm0 0" fill="#fff"/><path d="m382 199.820312v279.070313c-4.898438 2.78125-9.898438 5.398437-15 7.847656-7.941406 3.832031-16.109375 7.261719-24.480469 10.261719-26.878906 9.660156-55.828125 14.941406-86.019531 15v-312.179688zm0 0" fill="#d0f6ff"/><g fill="#474f6f"><path d="m116 199.820312h30v287.398438c-5.101562-2.429688-10.101562-5.019531-15-7.757812-5.109375-2.871094-10.109375-5.902344-15-9.101563zm0 0"/><path d="m342.519531 497c-26.878906 9.660156-55.828125 14.941406-86.019531 15h-.5c-30.371094 0-59.5-5.289062-86.519531-15zm0 0"/><path d="m397 199.820312v269.878907c-4.890625 3.230469-9.890625 6.300781-15 9.191406-4.898438 2.78125-9.898438 5.398437-15 7.847656v-286.917969zm0 0"/></g><path d="m342.519531 497c-26.878906 9.660156-55.828125 14.941406-86.019531 15h-.5v-15zm0 0" fill="#20273a"/><path d="m397 199.820312v269.878907c-4.890625 3.230469-9.890625 6.300781-15 9.191406-4.898438 2.78125-9.898438 5.398437-15 7.847656v-286.917969zm0 0" fill="#20273a"/><path d="m347.519531 385.929688v109.210937c-1.660156.640625-3.320312 1.257813-5 1.859375-26.878906 9.660156-55.828125 14.941406-86.019531 15h-.5c-30.371094 0-59.5-5.289062-86.519531-15-1.679688-.601562-3.339844-1.21875-5-1.859375v-109.210937c15.257812 0 15.257812 6.410156 30.507812 6.410156s15.25-6.410156 30.5-6.410156c15.261719 0 15.261719 6.410156 30.511719 6.410156s15.25-6.410156 30.5-6.410156c15.261719 0 15.261719 6.410156 30.511719 6.410156s15.25-6.410156 30.507812-6.410156zm0 0" fill="#65b2ff"/><path d="m347.519531 385.929688v109.210937c-1.660156.640625-3.320312 1.257813-5 1.859375-26.878906 9.660156-55.828125 14.941406-86.019531 15h-.5v-119.660156c15.25 0 15.25-6.410156 30.5-6.410156 15.261719 0 15.261719 6.410156 30.511719 6.410156s15.25-6.410156 30.507812-6.410156zm0 0" fill="#0f9be8"/><path d="m347.519531 428.859375v66.28125c-1.660156.640625-3.320312 1.257813-5 1.859375-26.878906 9.660156-55.828125 14.941406-86.019531 15h-.5c-30.371094 0-59.5-5.289062-86.519531-15-1.679688-.601562-3.339844-1.21875-5-1.859375v-66.28125c15.257812 0 15.257812 6.410156 30.507812 6.410156s15.25-6.410156 30.5-6.410156c15.261719 0 15.261719 6.410156 30.511719 6.410156s15.25-6.410156 30.5-6.410156c15.261719 0 15.261719 6.410156 30.511719 6.410156s15.25-6.410156 30.507812-6.410156zm0 0" fill="#0f9be8"/><path d="m347.519531 428.859375v66.28125c-1.660156.640625-3.320312 1.257813-5 1.859375-26.878906 9.660156-55.828125 14.941406-86.019531 15h-.5v-76.730469c15.25 0 15.25-6.410156 30.5-6.410156 15.261719 0 15.261719 6.410156 30.511719 6.410156s15.25-6.410156 30.507812-6.410156zm0 0" fill="#0066e8"/><path d="m347.519531 467.21875v27.921875c-1.660156.640625-3.320312 1.257813-5 1.859375-26.878906 9.660156-55.828125 14.941406-86.019531 15h-.5c-30.371094 0-59.5-5.289062-86.519531-15-1.679688-.601562-3.339844-1.21875-5-1.859375v-27.921875c15.257812 0 15.257812 6.410156 30.507812 6.410156s15.25-6.410156 30.5-6.410156c15.261719 0 15.261719 6.410156 30.511719 6.410156s15.25-6.410156 30.5-6.410156c15.261719 0 15.261719 6.410156 30.511719 6.410156s15.25-6.410156 30.507812-6.410156zm0 0" fill="#65b2ff"/><path d="m347.519531 467.21875v27.921875c-1.660156.640625-3.320312 1.257813-5 1.859375-26.878906 9.660156-55.828125 14.941406-86.019531 15h-.5v-38.371094c15.25 0 15.25-6.410156 30.5-6.410156 15.261719 0 15.261719 6.410156 30.511719 6.410156s15.25-6.410156 30.507812-6.410156zm0 0" fill="#0f9be8"/><path d="m304.988281 300.941406-48.488281 48.488282-48.488281-48.488282h24.058593l-7.96875-65.25h64.796876l-7.96875 65.25zm0 0" fill="#474f6f"/><path d="m304.988281 300.941406-48.488281 48.488282v-113.738282h32.398438l-7.96875 65.25zm0 0" fill="#20273a"/></svg>