<svg height="512pt" viewBox="0 0 512 512" width="512pt" xmlns="http://www.w3.org/2000/svg"><path d="m512 256c0 131.089844-98.539062 239.171875-225.589844 254.210938h-.011718c-.199219.027343-.410157.050781-.609376.070312-.019531.007812-.027343.007812-.050781.007812-8.699219 1.011719-17.519531 1.582032-26.457031 1.691407-1.089844.007812-2.191406.019531-3.28125.019531-7.828125 0-15.570312-.351562-23.21875-1.039062-.011719 0-.011719 0-.019531 0-.132813-.011719-.25-.019532-.371094-.03125-130.3125-11.917969-232.390625-121.507813-232.390625-254.929688 0-141.378906 114.621094-256 256-256s256 114.621094 256 256zm0 0" fill="#68fcdf"/><path d="m512 256c0 26.050781-3.890625 51.191406-11.128906 74.871094-32.011719 104.847656-129.542969 181.128906-244.871094 181.128906-104.558594 0-194.488281-62.699219-234.230469-152.550781-14-31.628907-21.769531-66.628907-21.769531-103.449219 0-46.21875 12.25-89.570312 33.679688-127 44.121093 77.070312 127.160156 129 222.320312 129s178.210938-51.929688 222.320312-129c21.429688 37.429688 33.679688 80.78125 33.679688 127zm0 0" fill="#10e2c4"/><path d="m481.261719 377.699219c-7.160157 13.222656-15.433594 25.742187-24.722657 37.429687-41.089843 51.710938-101.757812 87.171875-170.800781 95.160156-8.109375.941407-16.339843 1.5-24.667969 1.652344-1.679687.039063-3.378906.058594-5.070312.058594-81.238281 0-153.640625-37.851562-200.539062-96.871094-9.289063-11.6875-17.5625-24.207031-24.722657-37.429687zm0 0" fill="#1aba9f"/><path d="m412.191406 307.03125c-.140625.058594-.28125.117188-.421875.1875-10.769531 4.601562-21.941406 6.980469-32.988281 7.332031.507812.648438 1.019531 1.300781 1.519531 1.960938.121094.160156.25.316406.359375.476562.21875.28125.429688.5625.640625.839844.089844.113281.179688.230469.257813.351563.621094.832031 1.230468 1.660156 1.832031 2.5.371094.519531.75 1.058593 1.121094 1.589843.378906.53125.75 1.058594 1.097656 1.601563.289063.429687.582031.859375.871094 1.289062.21875.328125.441406.660156.648437 1 .222656.320313.421875.640625.632813.960938.347656.550781.699219 1.097656 1.039062 1.648437.339844.539063.667969 1.082031.988281 1.621094.761719 1.238281 1.492188 2.488281 2.199219 3.75.230469.390625.441407.769531.660157 1.160156.042968.070313.082031.140625.113281.210938.078125.136719.167969.289062.238281.4375.128906.222656.261719.449219.371094.679687.308594.550782.609375 1.109375.898437 1.671875.019531.039063.039063.078125.058594.121094.140625.257813.28125.527344.421875.796875.261719.492188.511719.980469.761719 1.480469.007812.019531.019531.050781.027343.070312.109376.21875.222657.449219.332032.671875.238281.480469.480468.957032.707031 1.449219.09375.160156.171875.320313.242187.480469.089844.167968.167969.339844.238282.507812.101562.222656.210937.441406.3125.660156.027344.0625.070312.132813.089844.199219.027343.042969.050781.089844.070312.132813.019531.050781.046875.097656.070312.148437.089844.199219.1875.410157.277344.609375.050782.101563.089844.199219.132813.300782.207031.449218.410156.910156.609375 1.359374.070312.109376.117187.230469.160156.339844.257812.570313.507812 1.140625.75 1.710938l.179688.421875c.148437.347656.289062.6875.4375 1.039062l.542968 1.320313c.019532.050781.039063.089844.058594.140625.351562.867187.699219 1.75 1.03125 2.636719.160156.410156.308594.820312.457031 1.230468.152344.402344.300781.800782.441407 1.199219.019531.042969.039062.082031.050781.132813.039062.117187.078125.238281.128906.359374.082031.230469.160156.449219.242187.679688.136719.398438.277344.789062.417969 1.191406.089844.25.171875.5.25.75.019531.046875.039063.109375.050781.160156.109376.296876.210938.597657.300782.898438.027344.078125.058594.148438.078125.230469.089843.25.171875.507812.25.757812.0625.191407.121093.390625.179687.589844l.0625.183594c.238282.726562.46875 1.46875.679688 2.199219.089844.289062.179687.578124.257812.878906.230469.78125.449219 1.558594.660156 2.339844.019532.050781.039063.109374.050782.160156.140625.5.269531.988281.398437 1.480468l.023438.070313c.136719.519531.269531 1.039063.398437 1.558594.050782.210937.109375.429687.160156.640625.078126.308594.160157.628906.230469.941406.027344.128906.058594.25.089844.378906.078125.339844.160156.691406.238281 1.03125.03125.117188.0625.25.082032.367188.050781.179687.089843.363281.128906.550781.058594.261719.109375.53125.171875.789063.117187.53125.226562 1.050781.339843 1.582031.058594.269531.109376.53125.160157.789062.058593.261719.109375.53125.160156.800781.097656.53125.199219 1.050782.296875 1.589844.101562.53125.203125 1.058594.292969 1.601563.136719.839843.277343 1.6875.417969 2.539062.089843.578125.179687 1.160157.261718 1.738281.007813.050782.007813.101563.019532.152344.070312.449219.128906.886719.1875 1.339844.023437.148438.042968.308594.0625.46875.007812.070312.019531.128906.027343.199219.070313.539062.132813 1.089843.203125 1.628906.019532.160156.039063.3125.046875.472656.050781.378907.089844.769531.132813 1.160157.058594.539062.117187 1.078124.167968 1.628906v.011718c.0625.539063.109376 1.089844.152344 1.628907.019532.167969.027344.347656.039063.519531.070312.769531.128906 1.53125.179687 2.300781 0 .039063.011719.089844.011719.128907.019531.269531.039063.539062.046875.808593.03125.402344.050781.800781.070312 1.191407.011719.242187.03125.492187.039063.730468.011719.308594.03125.621094.042969.929688.019531.449218.039062.890625.050781 1.332031.007813.277344.019531.546875.027344.816406.011719.402344.019531.792969.03125 1.191407 0 .261718.007812.519531.007812.78125.023438.550781.023438 1.089843.023438 1.640624 0 .070313.007812.136719.007812.207032v.722656h-26.808593c-4.800782 0-9.53125.378906-14.160157 1.117188-1.160156.179687-2.3125.390624-3.449219.621093-.992187.199219-1.980468.410157-2.960937.652344-.71875.15625-1.429687.339844-2.152344.527344-.558593.140625-1.109375.300781-1.667969.460937 0 0 0-.011718-.011718 0-.878906.25-1.757813.511719-2.628906.789063-.070313.019531-.140626.039062-.210938.070312-.609375.199219-1.207031.390625-1.808594.601563-.039062 0-.070312.007812-.101562.027344-.128906.03125-.257813.082031-.386719.132812-.09375.027344-.171875.058594-.261719.089844-.089844.027344-.179687.070312-.269531.097656-.179687.0625-.359375.121094-.539063.203125-.042968.007813-.089843.019531-.132812.039063-.007812 0-.019531.007812-.019531.007812-.621094.222656-1.230469.453125-1.839844.691406-.539063.210938-1.070313.417969-1.597656.648438-.132813.042968-.25.101562-.382813.160156-.257812.101562-.527344.210938-.789062.332031-.050782.007813-.089844.027344-.140625.058594-.621094.269531-1.238281.539063-1.847657.820313-.390624.179687-.773437.359374-1.152343.539062-.347657.160156-.6875.332031-1.027344.5-.722656.351562-1.433594.710938-2.140625 1.089844-.359375.179687-.710938.363281-1.0625.5625-.140625.070312-.289062.148437-.429688.238281-.109374.050781-.21875.109375-.328124.179687-.109376.0625-.222657.121094-.332032.191407-.019531 0-.039062.007812-.050781.03125-.046875.019531-.097656.046875-.148437.089843-.410157.207032-.820313.449219-1.21875.6875-.410157.230469-.8125.472657-1.222657.722657-.476562.296875-.96875.597656-1.449219.910156-.238281.136719-.480468.296875-.71875.449219-.058593.039062-.128906.078125-.191406.117187-.179687.121094-.347656.242188-.527344.363281-.480468.308594-.960937.628907-1.429687.949219-.941406.648438-1.871094 1.308594-2.792969 2-.339844.25-.679687.507813-1.019531.769531-.121094.089844-.230469.179688-.339844.269532-.230469.171875-.449219.339844-.667969.53125-.339843.25-.671874.519531-1 .800781-.050781.027344-.101562.058594-.140624.109375-.289063.230469-.582032.46875-.859376.707031-.082031.0625-.152343.121094-.230468.191407-.269532.230468-.550782.460937-.820313.710937-.179687.140625-.351562.289063-.519531.449219-.351562.300781-.691406.601562-1.019531.910156-.089844.058594-.171875.140625-.25.230469-.300781.257812-.601563.539062-.890625.808593-.152344.132813-.292969.269532-.441406.410157-.078126.082031-.167969.160156-.25.242187-.078126.078125-.160157.148438-.238282.238282-.160156.148437-.332031.308593-.492187.480468-.210938.191406-.417969.398438-.628907.621094-.140624.128906-.28125.269531-.429687.417969-.03125.03125-.070313.070312-.101563.109375-.410156.410156-.808593.832031-1.199218 1.242187-1.578125 1.667969-3.101563 3.398438-4.550782 5.1875-.398437.5-.800781 1-1.1875 1.511719-.101562.121094-.191406.230469-.28125.351562-.101562.128907-.191406.257813-.289062.386719-.109375.140625-.210938.273438-.3125.410157-.367188.492187-.730469.980468-1.078125 1.472656-.339844.46875-.671875.9375-1 1.417968l-1.140625 1.679688c-.011719.019531-.019531.042969-.03125.050781-.007812.03125-.027344.050781-.039062.082031-.140626.207032-.269532.417969-.410157.628907-.199219.300781-.398437.609375-.589843.917969-.03125.042968-.050782.082031-.070313.121093-.078125.128907-.160156.261719-.238281.390625-.339844.539063-.671875 1.089844-.992188 1.640625-.277344.46875-.550781.9375-.808594 1.417969-.101562.160156-.191406.320312-.28125.480469v.011719c-.277343.507812-.558593 1.019531-.839843 1.539062-.21875.429688-.449219.859375-.667969 1.289062-.042969.089844-.089844.179688-.132812.269532v.011718c-.160157.308594-.308594.628907-.46875.941407-.070313.148437-.140626.296875-.210938.4375h-.007812c-.03125.070312-.0625.140625-.089844.199219-.191406.402343-.382813.800781-.5625 1.203124-.070313.128907-.128906.269532-.1875.398438-.160156.339844-.3125.679688-.449219 1.019531h-.011719c-.058594.152344-.128906.300781-.191406.449219-.097656.222656-.199219.453125-.289062.679688-.039063.101562-.078126.191406-.121094.292968h-.007813c-.0625.136719-.121093.277344-.171875.417969-.109375.242187-.207031.492187-.300781.730469-.109375.261718-.21875.519531-.308594.78125-.097656.25-.199219.488281-.289062.738281-.03125.070313-.058594.152344-.082031.230469h-.007813c-.128906.320312-.25.648437-.359375.980468-.03125.078126-.0625.160157-.089844.238282-.210937.570312-.410156 1.152344-.613281 1.730468l-13.667969 40.171876h-.011718c-.199219.027343-.410157.050781-.609376.070312-.019531.007812-.027343.007812-.050781.007812-8.699219 1.011719-17.519531 1.582032-26.457031 1.691407v.019531h-3.28125c-7.828125 0-15.570312-.351562-23.21875-1.039062-.011719 0-.011719 0-.019531 0-.132813-.011719-.25-.019532-.371094-.03125l-13.910156-40.890626c-12.371094-36.328124-46.5-60.757812-84.878907-60.757812h-26.8125c0-35.839844 12.371094-68.78125 33.0625-94.8125-10.570312-.570312-21.222656-2.980469-31.492187-7.4375-.53125-.222656-1.050781-.460938-1.570313-.691406-45.199218-20.609375-65.75-73.710938-45.890624-119.480469l45.890624 19.910156 121.742188 52.800781c-.0625.121094-.109375.238282-.171875.359376 9.992187-2.058594 20.320313-3.140626 30.921875-3.140626.488281 0 .96875 0 1.457031.011719.472657 0 .941407 0 1.402344.019531l5.507813.199219 4.203124.28125 4.25.410157c4.808594.527343 9.546876 1.277343 14.207032 2.25.703125.140624 1.390625.289062 2.082031.4375-.121094-.269532-.25-.546876-.371094-.828126l119.75-51.941406 47.878907-20.769531c20.070312 46.289063-1.167969 100.089844-47.457032 120.171875zm0 0" fill="#ff9f00"/><path d="m412.191406 307.03125c-.140625.058594-.28125.117188-.421875.1875-10.769531 4.601562-21.941406 6.980469-32.988281 7.332031.507812.648438 1.019531 1.300781 1.519531 1.960938.128907.160156.257813.316406.378907.488281.210937.269531.410156.550781.621093.828125.089844.113281.179688.230469.257813.351563.621094.832031 1.230468 1.660156 1.832031 2.5.371094.519531.75 1.058593 1.121094 1.589843.378906.53125.75 1.058594 1.097656 1.601563.289063.429687.582031.859375.871094 1.289062.21875.328125.441406.660156.648437 1 .222656.320313.421875.640625.632813.960938.347656.550781.699219 1.097656 1.039062 1.648437.339844.539063.667969 1.082031.988281 1.621094.761719 1.238281 1.492188 2.488281 2.199219 3.75.230469.390625.441407.769531.660157 1.160156.121093.21875.242187.429688.351562.648438.128906.222656.261719.449219.371094.679687.308594.550782.609375 1.109375.898437 1.671875.019531.039063.039063.078125.058594.121094.152344.269531.292969.527344.421875.796875.261719.492188.511719.980469.761719 1.480469.007812.019531.019531.050781.027343.070312.109376.21875.222657.449219.332032.671875.238281.480469.480468.957032.707031 1.449219.09375.160156.171875.320313.242187.480469.089844.167968.167969.339844.238282.507812.101562.222656.210937.441406.3125.660156.027344.0625.070312.132813.089844.199219.148437.300781.289062.589844.417968.890625.050782.101563.089844.199219.132813.300782.199219.410156.378906.832031.566406 1.242187.023437.039063.042969.078125.042969.117187.070312.109376.117187.230469.160156.339844.257812.570313.507812 1.140625.75 1.710938l.179688.421875c.328124.777343.660156 1.566406.980468 2.359375.019532.050781.039063.089844.058594.140625.351562.867187.699219 1.75 1.03125 2.636719.160156.410156.308594.820312.457031 1.230468.152344.402344.300781.800782.441407 1.199219.019531.042969.039062.082031.050781.132813.050781.117187.089843.238281.128906.359374.082031.230469.160156.449219.242187.679688.226563.640625.449219 1.289062.667969 1.941406.019531.046875.039063.109375.050781.160156.109376.296876.210938.597657.300782.898438.027344.078125.058594.148438.078125.230469.152343.449219.300781.898437.429687 1.347656l.0625.183594c.238282.726562.46875 1.46875.679688 2.199219.089844.289062.179687.578124.257812.878906.230469.78125.449219 1.558594.660156 2.339844.019532.050781.039063.109374.050782.160156.140625.5.269531.988281.398437 1.480468l.023438.070313c.136719.519531.269531 1.039063.398437 1.558594.050782.210937.109375.429687.160156.640625.078126.308594.160157.628906.230469.941406.027344.128906.058594.25.089844.378906.078125.339844.160156.691406.238281 1.03125.03125.117188.0625.25.082032.367188.050781.179687.089843.363281.128906.550781.058594.261719.109375.53125.171875.789063.117187.53125.226562 1.050781.339843 1.582031.058594.269531.109376.53125.160157.789062.058593.261719.109375.53125.160156.800781.097656.53125.199219 1.050782.296875 1.589844.101562.53125.203125 1.058594.292969 1.601563.136719.839843.277343 1.6875.417969 2.539062.089843.578125.179687 1.160157.261718 1.738281.007813.050782.007813.101563.019532.152344.070312.449219.128906.886719.1875 1.339844.023437.148438.042968.308594.0625.46875.007812.070312.019531.128906.027343.199219.070313.539062.132813 1.089843.203125 1.628906.019532.160156.039063.3125.046875.472656.050781.378907.089844.769531.132813 1.160157.058594.539062.117187 1.078124.167968 1.628906v.011718c.0625.539063.109376 1.089844.152344 1.628907.019532.167969.027344.347656.039063.519531.070312.769531.128906 1.53125.179687 2.300781 0 .039063.011719.089844.011719.128907.058594.910156.117187 1.820312.15625 2.730468.011719.308594.03125.621094.042969.929688.019531.449218.039062.890625.050781 1.332031.007813.277344.019531.546875.027344.816406.011719.402344.019531.792969.03125 1.191407 0 .261718.007812.519531.007812.78125.023438.550781.023438 1.089843.023438 1.640624 0 .070313.007812.136719.007812.207032v.722656h-26.808593c-4.800782 0-9.53125.378906-14.160157 1.117188-1.160156.179687-2.3125.390624-3.449219.621093-.992187.199219-1.980468.410157-2.960937.652344-.71875.15625-1.429687.339844-2.152344.527344-.558593.152343-1.109375.300781-1.667969.460937 0 0 0-.011718-.011718 0-.878906.25-1.757813.511719-2.628906.789063-.070313.019531-.140626.039062-.210938.070312-.597656.191407-1.207031.390625-1.808594.601563-.039062 0-.070312.007812-.101562.027344-.128906.042968-.257813.082031-.386719.132812-.09375.027344-.171875.058594-.261719.089844-.089844.027344-.179687.070312-.269531.097656-.179687.0625-.359375.121094-.539063.203125-.042968.007813-.089843.019531-.132812.039063-.007812 0-.019531.007812-.019531.007812-.621094.222656-1.230469.453125-1.839844.691406-.539063.210938-1.070313.417969-1.597656.648438-.132813.042968-.25.101562-.382813.160156-.269531.109375-.527344.222656-.789062.332031-.050782.007813-.089844.027344-.140625.058594-.621094.269531-1.238281.539063-1.847657.820313-.390624.179687-.773437.359374-1.152343.539062-.347657.160156-.6875.332031-1.027344.5-.722656.351562-1.433594.710938-2.140625 1.089844-.359375.179687-.710938.363281-1.0625.5625-.140625.078125-.277344.160156-.429688.238281-.109374.050781-.21875.109375-.328124.179687-.109376.0625-.222657.121094-.332032.191407-.019531 0-.039062.007812-.050781.03125-.046875.019531-.097656.046875-.148437.089843-.410157.207032-.820313.449219-1.21875.6875-.410157.242188-.8125.480469-1.222657.722657-.476562.296875-.96875.597656-1.449219.910156-.488281.296875-.96875.609375-1.4375.929687-.480468.308594-.960937.628907-1.429687.949219-.941406.648438-1.871094 1.308594-2.792969 2-.449218.339844-.910156.6875-1.359375 1.039063-.230469.171875-.449219.339844-.667969.53125-.339843.257812-.671874.519531-1 .800781-.050781.027344-.101562.058594-.140624.109375-.289063.230469-.582032.46875-.859376.707031-.082031.0625-.152343.121094-.230468.191407-.28125.230468-.550782.460937-.820313.710937-.179687.140625-.351562.289063-.519531.449219-.351562.300781-.691406.601562-1.019531.910156-.089844.058594-.171875.140625-.25.230469-.300781.257812-.601563.539062-.890625.808593-.152344.132813-.292969.269532-.441406.410157-.078126.082031-.167969.160156-.25.242187-.078126.078125-.160157.148438-.238282.238282-.160156.148437-.320312.308593-.492187.480468-.210938.191406-.417969.398438-.628907.621094-.179687.179688-.359374.347656-.53125.527344-.410156.410156-.808593.832031-1.199218 1.242187-1.578125 1.667969-3.101563 3.398438-4.550782 5.1875-.5.613281-.988281 1.230469-1.46875 1.863281-.101562.128907-.191406.257813-.289062.386719-.109375.140625-.210938.273438-.3125.410157-.367188.492187-.730469.972656-1.078125 1.472656-.339844.46875-.671875.9375-1 1.417968l-1.140625 1.679688c-.011719.019531-.019531.03125-.03125.050781-.007812.03125-.027344.050781-.039062.082031-.140626.207032-.269532.417969-.410157.628907-.199219.300781-.398437.609375-.589843.917969-.03125.042968-.050782.082031-.070313.121093-.078125.128907-.160156.261719-.238281.390625-.339844.539063-.671875 1.089844-.992188 1.640625-.277344.46875-.550781.9375-.808594 1.417969-.101562.160156-.191406.320312-.28125.480469v.011719c-.277343.507812-.558593 1.019531-.839843 1.539062-.21875.429688-.449219.859375-.667969 1.289062-.203125.410157-.402344.8125-.601562 1.222657-.070313.148437-.140626.296875-.210938.4375h-.007812c-.03125.070312-.0625.140625-.089844.199219-.191406.402343-.382813.800781-.5625 1.203124-.070313.128907-.128906.269532-.1875.398438-.160156.339844-.3125.679688-.449219 1.019531h-.011719c-.058594.152344-.128906.300781-.191406.449219-.097656.222656-.199219.453125-.289062.679688-.039063.101562-.078126.191406-.121094.292968h-.007813c-.0625.136719-.121093.277344-.171875.417969-.109375.242187-.207031.492187-.300781.730469-.109375.261718-.21875.519531-.308594.78125-.097656.25-.199219.488281-.289062.738281-.03125.070313-.058594.152344-.082031.230469h-.007813c-.128906.320312-.25.648437-.359375.980468-.03125.078126-.0625.160157-.089844.238282-.210937.570312-.410156 1.152344-.613281 1.730468l-13.667969 40.171876h-.011718c-.199219.027343-.410157.050781-.609376.070312-.019531.007812-.027343.007812-.050781.007812-8.699219 1.011719-17.519531 1.582032-26.457031 1.691407v-255.191407c.488281 0 .96875 0 1.457031.011719.472657 0 .941407 0 1.402344.019531l5.507813.199219 4.203124.28125 4.25.410157c4.808594.527343 9.546876 1.277343 14.207032 2.25.703125.140624 1.390625.289062 2.082031.4375-.121094-.269532-.25-.546876-.371094-.828126l119.75-51.941406 47.878907-20.769531c20.070312 46.289063-1.167969 100.089844-47.457032 120.171875zm0 0" fill="#ed771b"/><path d="m232.761719 430.480469v80.480469c-.132813-.011719-.25-.019532-.371094-.03125l-13.910156-40.890626c-12.371094-36.328124-46.5-60.757812-84.878907-60.757812h-26.8125c0-35.839844 12.371094-68.78125 33.0625-94.8125l42.4375 25.972656c13.519532 8.269532 24.769532 19.308594 33.179688 32.148438 2.769531 4.21875 5.230469 8.640625 7.359375 13.21875.03125.0625.070313.132812.101563.203125.109374.238281.230468.488281.339843.738281 6.171875 13.519531 9.492188 28.390625 9.492188 43.730469zm0 0" fill="#fff"/><path d="m411.769531 408.558594v.722656h-26.808593c-4.800782 0-9.53125.378906-14.160157 1.117188-1.160156.179687-2.3125.390624-3.449219.621093-.992187.199219-1.980468.410157-2.960937.652344-.71875.15625-1.429687.339844-2.152344.527344-.558593.152343-1.109375.300781-1.667969.460937 0 0 0-.011718-.011718 0-.878906.238282-1.757813.511719-2.628906.789063-.230469.0625-.460938.140625-.691407.210937-.449219.148438-.886719.300782-1.328125.460938-.039062 0-.070312.007812-.101562.027344-.128906.042968-.257813.082031-.386719.132812-.09375.027344-.171875.058594-.261719.089844-.089844.027344-.179687.070312-.269531.097656-.039063.011719-.070313.019531-.101563.03125 0 0 0 0-.007812 0-.152344.058594-.292969.109375-.429688.171875-.042968.007813-.089843.019531-.132812.039063-.007812 0-.019531.007812-.019531.007812-.621094.222656-1.230469.453125-1.839844.691406-.539063.210938-1.070313.417969-1.597656.648438-.132813.042968-.25.101562-.382813.160156-.257812.101562-.527344.210938-.789062.332031-.050782.007813-.089844.027344-.140625.058594-.621094.261719-1.238281.539063-1.847657.820313-.390624.179687-.773437.359374-1.152343.539062-.347657.160156-.6875.332031-1.027344.5-.3125.140625-.621094.300781-.933594.453125-.410156.207031-.808593.417969-1.207031.636719-.359375.179687-.710938.363281-1.0625.5625-.140625.070312-.289062.148437-.429688.238281-.109374.050781-.21875.109375-.328124.179687-.109376.0625-.222657.121094-.332032.191407-.019531 0-.039062.007812-.050781.03125-.046875.019531-.097656.046875-.148437.089843-.320313.160157-.640626.347657-.960938.527344-.089844.050782-.167969.101563-.257812.160156-.410157.230469-.8125.472657-1.222657.722657-.726562.4375-1.449219.886719-2.167969 1.359375-.058593.039062-.128906.078125-.191406.117187-.660156.433594-1.308594.863281-1.957031 1.3125-.941406.648438-1.871094 1.308594-2.792969 2-.339844.25-.679687.507813-1.019531.769531-.339844.257813-.679687.519532-1.007813.800782-.339843.25-.671874.519531-1 .800781-.050781.027344-.101562.058594-.140624.109375-.289063.230469-.582032.457031-.859376.707031-.082031.0625-.152343.121094-.230468.191407-.28125.230468-.550782.460937-.820313.710937-.179687.140625-.351562.289063-.519531.449219-.339844.289062-.691406.601562-1.019531.910156-.089844.058594-.171875.140625-.25.230469-.300781.257812-.601563.53125-.890625.808593-.152344.132813-.292969.269532-.441406.410157-.089844.082031-.167969.160156-.25.242187-.078126.078125-.160157.148438-.238282.238282-.160156.148437-.332031.308593-.492187.480468-.210938.191406-.417969.398438-.628907.621094-.140624.128906-.289062.277344-.429687.417969-.03125.03125-.070313.070312-.101563.109375h-.007812c-.402344.410156-.800781.820312-1.191406 1.242187-1.578125 1.667969-3.101563 3.398438-4.550782 5.1875-.398437.5-.800781 1-1.1875 1.511719-.203124.25-.382812.488281-.570312.738281-.109375.140625-.210938.273438-.3125.410157-.367188.492187-.730469.980468-1.078125 1.472656-.339844.457031-.679687.9375-1 1.417968-.410156.601563-.8125 1.199219-1.210937 1.8125-.140626.207032-.269532.417969-.410157.628907-.21875.339843-.441406.691406-.660156 1.039062-.078125.128907-.160156.261719-.238281.390625-.339844.539063-.671875 1.089844-.992188 1.640625-.277344.46875-.550781.9375-.808594 1.417969-.101562.160156-.191406.320312-.28125.480469v.011719c-.558593 1.019531-1.109374 2.050781-1.640624 3.097656v.011718c-.160157.308594-.308594.628907-.46875.941407-.070313.148437-.140626.296875-.210938.4375-.027344.070312-.070312.140625-.097656.199219-.191406.402343-.382813.800781-.5625 1.203124-.21875.46875-.429688.9375-.636719 1.417969-.070313.152344-.132813.300781-.203125.449219-.097656.222656-.1875.453125-.289062.679688-.039063.101562-.078126.191406-.121094.292968-.058594.136719-.117188.277344-.179688.417969-.097656.242187-.199218.492187-.300781.730469-.109375.261718-.21875.519531-.308594.78125-.128906.320312-.25.648437-.371093.96875-.128907.320312-.25.648437-.367188.980468-.03125.078126-.0625.160157-.089844.238282-.210937.570312-.410156 1.152344-.613281 1.730468l-13.667969 40.171876h-.011718c-.199219.027343-.410157.050781-.609376.070312v-79.800781c0-15.339844 3.332032-30.210938 9.492188-43.730469.019531-.050781.046875-.101562.070312-.148438 2.207032-4.863281 4.796876-9.550781 7.726563-14.011718 8.421875-12.839844 19.660156-23.878906 33.183594-32.148438l42.449219-25.972656c.019531.03125.039062.050781.070312.082031.507812.648438 1.019531 1.300781 1.519531 1.960938.121094.160156.25.316406.359375.476562 0 0 .011719 0 .019532.011719.210937.269531.410156.550781.621093.828125.089844.113281.179688.230469.257813.351563.621094.832031 1.230468 1.660156 1.832031 2.5.75 1.050781 1.488281 2.121093 2.21875 3.191406.519531.757812 1.03125 1.519531 1.519531 2.289062.222656.320313.421875.640625.632813.960938.347656.550781.699219 1.097656 1.039062 1.648437.339844.539063.667969 1.082031.988281 1.621094.761719 1.238281 1.492188 2.488281 2.199219 3.75.261719.449219.523438.910156.773438 1.371094.078125.136719.167969.289062.238281.4375.128906.222656.261719.449219.371094.679687.308594.550782.609375 1.109375.898437 1.671875.019531.039063.039063.078125.058594.121094.140625.257813.28125.527344.421875.796875.261719.492188.511719.980469.761719 1.480469.007812.019531.019531.050781.027343.070312.109376.21875.222657.449219.332032.671875.328125.636719.640625 1.277344.949218 1.929688.089844.167968.167969.339844.238282.507812.101562.222656.210937.441406.3125.660156.058594.109376.109375.222657.160156.332032.019531.050781.046875.097656.070312.148437.089844.199219.1875.410157.277344.609375.050782.101563.089844.199219.132813.300782.199219.410156.378906.832031.566406 1.242187.070313.15625.140625.308594.203125.457031.257812.570313.507812 1.140625.75 1.710938l.179688.421875c.148437.347656.289062.6875.4375 1.039062l.542968 1.320313c.019532.050781.039063.089844.058594.140625.351562.867187.699219 1.75 1.03125 2.636719.160156.410156.308594.820312.457031 1.230468.152344.402344.300781.800782.441407 1.199219.019531.042969.039062.082031.050781.132813.050781.117187.089843.238281.128906.359374.082031.230469.160156.449219.242187.679688.136719.398438.277344.789062.417969 1.191406.089844.25.171875.5.25.75.019531.046875.039063.109375.050781.160156.109376.296876.210938.597657.300782.898438.027344.078125.058594.148438.078125.230469.089843.25.171875.507812.25.757812.03125.101563.0625.203125.101562.300781.050781.160157.097657.3125.140625.472657.238282.726562.46875 1.46875.679688 2.199219.089844.289062.179687.578124.257812.878906.230469.78125.449219 1.558594.660156 2.339844.019532.050781.039063.109374.050782.160156.140625.5.269531.988281.398437 1.480468l.023438.070313c.136719.519531.269531 1.039063.398437 1.558594.050782.210937.109375.429687.160156.640625.078126.308594.160157.628906.230469.941406.027344.128906.058594.25.089844.378906.078125.339844.160156.691406.238281 1.03125.03125.117188.0625.25.082032.367188.050781.179687.089843.363281.128906.550781.058594.261719.109375.53125.171875.789063.117187.53125.226562 1.050781.339843 1.582031.058594.269531.109376.53125.160157.789062.058593.261719.109375.53125.160156.800781.097656.53125.199219 1.050782.296875 1.589844.101562.53125.203125 1.058594.292969 1.601563.136719.839843.277343 1.6875.417969 2.539062.089843.578125.179687 1.160157.261718 1.738281.007813.050782.007813.101563.019532.152344.070312.449219.128906.886719.1875 1.339844.023437.160156.042968.308594.0625.46875.007812.070312.019531.128906.027343.199219.070313.539062.132813 1.089843.203125 1.628906.019532.160156.039063.3125.046875.472656.050781.378907.089844.769531.132813 1.160157.058594.539062.117187 1.078124.167968 1.628906v.011718c.0625.539063.109376 1.089844.152344 1.628907.019532.167969.027344.347656.039063.519531.039062.378906.070312.75.097656 1.128906.03125.390625.050781.78125.082031 1.171875 0 .039063.011719.089844.011719.128907.019531.269531.039063.539062.046875.808593.03125.402344.050781.800781.070312 1.191407.011719.242187.03125.492187.039063.730468.011719.308594.03125.621094.042969.929688.019531.449218.039062.890625.050781 1.332031.007813.277344.019531.546875.027344.816406.011719.402344.019531.792969.03125 1.191407 0 .261718.007812.519531.007812.78125.011719.289062.011719.578124.023438.859374v.089844c0 .300782.007812.609375.007812.898438zm0 0" fill="#ff9f00"/><path d="m411.769531 408.558594v.722656h-26.808593c-4.800782 0-9.53125.378906-14.160157 1.117188-1.160156.179687-2.3125.390624-3.449219.621093-.992187.199219-1.980468.410157-2.960937.652344-.71875.15625-1.429687.339844-2.152344.527344-.558593.152343-1.109375.300781-1.667969.460937 0 0 0-.011718-.011718 0-.878906.238282-1.757813.511719-2.628906.789063-.230469.0625-.460938.140625-.691407.210937-.449219.148438-.886719.300782-1.328125.460938-.039062 0-.070312.007812-.101562.027344-.128906.042968-.257813.082031-.386719.132812-.09375.027344-.171875.058594-.261719.089844-.121094.039062-.25.078125-.371094.128906 0 0 0 0-.007812 0-.191406.070312-.371094.140625-.5625.210938-.007812 0-.019531.007812-.019531.007812-.621094.222656-1.230469.453125-1.839844.691406-.539063.210938-1.070313.417969-1.597656.648438-.132813.042968-.25.101562-.382813.160156-.257812.101562-.527344.210938-.789062.332031-.050782.007813-.089844.027344-.140625.058594-.621094.261719-1.238281.539063-1.847657.820313-.390624.179687-.773437.359374-1.152343.539062-.347657.160156-.6875.332031-1.027344.5-.3125.140625-.621094.300781-.933594.453125-.410156.207031-.808593.417969-1.207031.636719-.359375.179687-.710938.363281-1.0625.5625-.140625.070312-.289062.148437-.429688.238281-.109374.050781-.21875.109375-.328124.179687-.109376.0625-.222657.121094-.332032.191407-.019531 0-.039062.007812-.050781.03125-.367187.199219-.738281.410156-1.109375.617187-.089844.050782-.167969.101563-.257812.160156-.410157.230469-.8125.472657-1.222657.722657-.726562.4375-1.449219.886719-2.167969 1.359375-.058593.039062-.128906.078125-.191406.117187-.660156.433594-1.308594.863281-1.957031 1.3125-.941406.648438-1.871094 1.308594-2.792969 2-.339844.25-.679687.507813-1.019531.769531-.339844.257813-.679687.519532-1.007813.800782-.339843.25-.671874.519531-1 .800781-.050781.027344-.101562.058594-.140624.109375-.289063.230469-.582032.457031-.859376.707031-.082031.0625-.152343.121094-.230468.191407-.28125.230468-.550782.460937-.820313.710937-.179687.140625-.351562.289063-.519531.449219-.339844.289062-.691406.601562-1.019531.910156-.089844.058594-.171875.140625-.25.230469-.300781.257812-.601563.53125-.890625.808593-.152344.132813-.292969.269532-.441406.410157-.089844.082031-.167969.160156-.25.242187-.078126.078125-.160157.148438-.238282.238282-.160156.148437-.332031.308593-.492187.480468-.210938.191406-.417969.398438-.628907.621094-.140624.128906-.289062.277344-.429687.417969-.03125.03125-.070313.070312-.101563.109375h-.007812c-.402344.410156-.800781.820312-1.191406 1.242187-1.578125 1.667969-3.101563 3.398438-4.550782 5.1875-.398437.5-.800781 1-1.1875 1.511719-.203124.25-.382812.488281-.570312.738281-.109375.140625-.210938.273438-.3125.410157-.367188.492187-.730469.980468-1.078125 1.472656-.339844.457031-.679687.9375-1 1.417968l-1.140625 1.679688c-.011719.019531-.019531.042969-.03125.050781-.148438.242188-.308594.46875-.449219.710938-.199219.300781-.398437.609375-.589843.917969-.109376.171874-.210938.339843-.308594.511718-.339844.539063-.671875 1.089844-.992188 1.640625-.277344.46875-.550781.9375-.808594 1.417969-.101562.160156-.191406.320312-.28125.480469v.011719c-.277343.507812-.558593 1.019531-.839843 1.539062-.269531.519531-.539063 1.039062-.800781 1.558594v.011718c-.160157.308594-.308594.628907-.46875.941407-.070313.148437-.140626.296875-.21875.4375-.03125.070312-.0625.140625-.089844.199219-.261719.53125-.511719 1.0625-.75 1.601562-.152344.339844-.3125.679688-.460938 1.019531-.058594.152344-.128906.300781-.191406.449219-.097656.222656-.199219.453125-.289062.679688-.050782.101562-.089844.191406-.128907.292968-.0625.136719-.121093.277344-.171875.417969-.109375.242187-.207031.492187-.300781.730469-.109375.261718-.21875.519531-.308594.78125-.097656.25-.199219.488281-.289062.738281-.03125.082031-.058594.152344-.089844.230469-.128906.320312-.25.648437-.359375.980468-.042969.078126-.070312.160157-.089844.238282-.222656.570312-.421875 1.152344-.621094 1.730468l-13.671874 40.171876c-.199219.027343-.410157.050781-.609376.070312v-79.800781c0-15.339844 3.332032-30.210938 9.492188-43.730469.019531-.050781.046875-.101562.070312-.148438 2.207032-4.863281 4.796876-9.550781 7.726563-14.011718 8.421875-12.839844 19.660156-23.878906 33.183594-32.148438l42.449219-25.972656c.019531.03125.039062.050781.070312.082031.507812.648438 1.019531 1.300781 1.519531 1.960938.121094.160156.25.316406.359375.476562 0 0 .011719 0 .019532.011719.210937.269531.410156.550781.621093.828125.089844.113281.179688.230469.257813.351563.621094.832031 1.230468 1.660156 1.832031 2.5.75 1.050781 1.488281 2.121093 2.21875 3.191406.519531.757812 1.03125 1.519531 1.519531 2.289062.222656.320313.421875.640625.632813.960938.347656.550781.699219 1.097656 1.039062 1.648437.339844.539063.667969 1.082031.988281 1.621094.761719 1.238281 1.492188 2.488281 2.199219 3.75.261719.449219.523438.910156.773438 1.371094.078125.136719.167969.289062.238281.4375.128906.222656.261719.449219.371094.679687.308594.550782.609375 1.109375.898437 1.671875.019531.039063.039063.078125.058594.121094.140625.257813.28125.527344.421875.796875.261719.492188.511719.980469.761719 1.480469.007812.019531.019531.050781.027343.070312.109376.21875.222657.449219.332032.671875.238281.480469.480468.957032.707031 1.449219.160156.328125.320313.660156.480469.988281.101562.222656.210937.441406.3125.660156.027344.0625.070312.132813.089844.199219.027343.042969.050781.089844.070312.132813.019531.050781.046875.097656.070312.148437.089844.199219.1875.410157.277344.609375.050782.101563.089844.199219.132813.300782.199219.410156.378906.832031.566406 1.242187.070313.15625.140625.308594.203125.457031.257812.570313.507812 1.140625.75 1.710938l.179688.421875c.148437.347656.289062.6875.4375 1.039062l.542968 1.320313c.019532.050781.039063.089844.058594.140625.351562.867187.699219 1.75 1.03125 2.636719.160156.410156.308594.820312.457031 1.230468.152344.402344.300781.800782.441407 1.199219.019531.042969.039062.082031.050781.132813.050781.117187.089843.238281.128906.359374.082031.230469.160156.449219.242187.679688.136719.398438.277344.789062.417969 1.191406.089844.25.171875.5.25.75.019531.046875.039063.109375.050781.160156.109376.296876.210938.597657.300782.898438.027344.078125.058594.148438.078125.230469.089843.25.171875.507812.25.757812.03125.101563.0625.203125.101562.300781l.078125.289063.0625.183594 2.046875 7.058593.023438.070313c.136719.519531.269531 1.039063.398437 1.558594.050782.210937.109375.429687.160156.640625.078126.308594.148438.628906.230469.941406.027344.128906.058594.25.089844.378906.078125.339844.160156.691406.238281 1.03125.03125.117188.0625.25.082032.367188.097656.441406.199218.890625.300781 1.339844.117187.53125.226562 1.050781.339843 1.582031.058594.269531.109376.53125.160157.789062.058593.261719.109375.53125.160156.800781.097656.53125.199219 1.050782.296875 1.589844.101562.53125.203125 1.058594.292969 1.601563.136719.839843.277343 1.6875.417969 2.539062.089843.578125.179687 1.160157.261718 1.738281.007813.050782.007813.101563.019532.152344.070312.449219.128906.886719.1875 1.339844.023437.160156.042968.308594.0625.46875.007812.070312.019531.128906.027343.199219.070313.539062.132813 1.089843.203125 1.628906.019532.160156.039063.3125.046875.472656.050781.378907.089844.769531.132813 1.160157.058594.539062.117187 1.078124.167968 1.628906v.011718c.0625.539063.109376 1.089844.152344 1.628907.019532.167969.027344.347656.039063.519531.039062.378906.070312.75.097656 1.128906.03125.390625.050781.78125.082031 1.171875 0 .039063.011719.089844.011719.128907.019531.269531.039063.539062.046875.808593.03125.402344.050781.800781.070312 1.191407.011719.242187.03125.492187.039063.730468.011719.308594.03125.621094.042969.929688.019531.449218.039062.890625.050781 1.332031.007813.277344.019531.546875.027344.816406.011719.402344.019531.792969.03125 1.191407 0 .261718.007812.519531.007812.78125.011719.289062.011719.578124.023438.859374v.78125c0 .070313.007812.136719.007812.207032zm0 0" fill="#d0f6ff"/><path d="m285.738281 510.289062c-8.699219 1.011719-17.519531 1.582032-26.457031 1.691407v.019531h-3.28125c-7.828125 0-15.570312-.351562-23.21875-1.039062.546875-14.160157 12.199219-25.480469 26.5-25.480469.597656 0 1.199219.019531 1.789062.070312 13.238282.871094 23.828126 11.488281 24.667969 24.738281zm0 0" fill="#3a3a42"/><path d="m285.738281 510.289062c-8.699219 1.011719-17.519531 1.582032-26.457031 1.691407v-26.5c.597656 0 1.199219.019531 1.789062.070312 13.238282.871094 23.828126 11.488281 24.667969 24.738281zm0 0" fill="#20273a"/><path d="m223.207031 386.601562c.023438.046876.046875.097657.066407.144532h-46.230469c-7.816407 0-14.152344-6.335938-14.152344-14.152344h38.363281c9.417969 0 18.042969 5.4375 21.953125 14.007812zm0 0" fill="#474f6f"/><g fill="#3a3a42"><path d="m357.652344 372.59375c0 7.816406-6.335938 14.152344-14.152344 14.152344h-48.21875c.023438-.046875.046875-.097656.066406-.144532 3.910156-8.570312 12.539063-14.007812 21.957032-14.007812zm0 0"/><path d="m106.792969 206.773438v99.566406c-45.203125-20.609375-65.746094-73.710938-45.890625-119.476563zm0 0"/><path d="m411.765625 408.730469c.003906.183593.003906.363281.003906.546875h-.003906zm0 0"/></g><path d="m412.191406 307.03125c-.144531.0625-.285156.125-.425781.183594v-99.578125l47.882813-20.773438c20.078124 46.289063-1.171876 100.089844-47.457032 120.167969zm0 0" fill="#20273a"/><path d="m309.570312 173.910156v12.40625l-21.597656 23.492188h22.546875v15.914062h-49.445312v-12.410156l21.597656-23.492188h-20.652344v-15.910156zm0 0" fill="#3a3a42"/><path d="m381.425781 94.976562v12.40625l-21.597656 23.492188h22.546875v15.914062h-49.445312v-12.410156l21.597656-23.492187h-20.652344v-15.910157zm0 0" fill="#3a3a42"/><path d="m309.570312 36.792969v12.40625l-21.597656 23.492187h22.546875v15.914063h-49.445312v-12.410157l21.597656-23.488281h-20.652344v-15.914062zm0 0" fill="#3a3a42"/></svg>