<svg height="512pt" viewBox="0 0 512 512" width="512pt" xmlns="http://www.w3.org/2000/svg"><path d="m512 256c0 141.386719-114.613281 256-256 256s-256-114.613281-256-256 114.613281-256 256-256 256 114.613281 256 256zm0 0" fill="#b5e237"/><path d="m512 256c0 26.050781-3.890625 51.191406-11.128906 74.871094-32.011719 104.847656-129.542969 181.128906-244.871094 181.128906-104.558594 0-194.488281-62.699219-234.230469-152.550781-14-31.628907-21.769531-66.628907-21.769531-103.449219 0-46.21875 12.25-89.570312 33.679688-127 44.121093 77.070312 127.160156 129 222.320312 129s178.210938-51.929688 222.320312-129c21.429688 37.429688 33.679688 80.78125 33.679688 127zm0 0" fill="#95d600"/><path d="m30.742188 377.703125c7.15625 13.21875 15.429687 25.738281 24.71875 37.425781 46.898437 59.019532 119.300781 96.871094 200.539062 96.871094s153.640625-37.851562 200.539062-96.871094c9.289063-11.6875 17.5625-24.207031 24.71875-37.425781zm0 0" fill="#85af12"/><path d="m348.367188 419.640625c0 51.007813-41.367188 92.367187-92.371094 92.359375-.433594 0-.875 0-1.308594-.007812-50.511719-.699219-91.402344-42.5-91.050781-93.007813.167969-25.699219 10.851562-48.902344 27.941406-65.542969 6.503906-6.324218 10.285156-14.9375 10.285156-24.011718v-167.304688c0-14.945312 6.058594-28.480469 15.855469-38.269531 9.796875-9.796875 23.332031-15.855469 38.277344-15.855469 29.894531 0 54.136718 24.234375 54.136718 54.125v167.308594c0 9.003906 3.667969 17.609375 10.136719 23.875 17.320313 16.785156 28.097657 40.300781 28.097657 66.332031zm0 0" fill="#fff"/><path d="m348.367188 419.640625c0 51.007813-41.367188 92.367187-92.371094 92.359375v-404c29.894531 0 54.136718 24.234375 54.136718 54.125v167.308594c0 9.003906 3.667969 17.609375 10.136719 23.875 17.320313 16.785156 28.097657 40.300781 28.097657 66.332031zm0 0" fill="#d0f6ff"/><path d="m315.171875 419.640625c0 32.625-26.550781 59.164063-59.175781 59.164063s-59.171875-26.539063-59.171875-59.164063c0-9.664063 2.246093-18.847656 6.664062-27.316406 4.238281-8.121094 10.410157-15.253907 17.851563-20.648438h.007812c8.613282-6.246093 13.710938-16.238281 13.710938-26.878906v-67.386719h41.878906v67.386719c0 10.640625 5.097656 20.632813 13.71875 26.878906 7.441406 5.398438 13.609375 12.527344 17.851562 20.648438 4.414063 8.46875 6.664063 17.652343 6.664063 27.316406zm0 0" fill="#b5e237"/><path d="m315.171875 419.640625c0 32.625-26.550781 59.164063-59.175781 59.164063v-201.394532h20.941406v67.386719c0 10.640625 5.097656 20.632813 13.71875 26.878906 7.441406 5.398438 13.609375 12.527344 17.851562 20.648438 4.414063 8.46875 6.664063 17.652343 6.664063 27.316406zm0 0" fill="#95d600"/><path d="m281.246094 425.25c0 13.945312-11.304688 25.246094-25.25 25.246094-13.945313 0-25.25-11.300782-25.25-25.246094s11.304687-25.25 25.25-25.25c13.945312 0 25.25 11.304688 25.25 25.25zm0 0" fill="#fff"/><g fill="#474f6f"><path d="m329 310.5h67v20h-67zm0 0"/><path d="m329 159h67v20h-67zm0 0"/><path d="m329 236h67v20h-67zm0 0"/><path d="m329 197.5h33.5v20h-33.5zm0 0"/><path d="m329 272h33.5v20h-33.5zm0 0"/></g></svg>