<svg height="512pt" viewBox="0 0 512 512" width="512pt" xmlns="http://www.w3.org/2000/svg"><path d="m512 256c0 141.378906-114.621094 256-256 256-85.808594 0-161.761719-42.230469-208.210938-107.03125-11.257812-15.707031-20.789062-32.75-28.300781-50.839844-12.558593-30.21875-19.488281-63.367187-19.488281-98.128906 0-13.621094 1.058594-26.988281 3.121094-40.03125 19.207031-122.367188 125.117187-215.96875 252.878906-215.96875 141.378906 0 256 114.621094 256 256zm0 0" fill="#9e69e2"/><path d="m512 256c0 26.050781-3.890625 51.191406-11.128906 74.871094-32.011719 104.847656-129.542969 181.128906-244.871094 181.128906-65.960938 0-126.101562-24.949219-171.488281-65.949219-26.5625-23.960937-48.070313-53.429687-62.742188-86.601562-14-31.628907-21.769531-66.628907-21.769531-103.449219 0-17.398438 1.730469-34.378906 5.039062-50.808594 5.480469-27.203125 15.28125-52.851562 28.640626-76.191406 44.121093 77.070312 127.160156 129 222.320312 129s178.210938-51.929688 222.320312-129c21.429688 37.429688 33.679688 80.78125 33.679688 127zm0 0" fill="#8e4fd2"/><path d="m30.742188 377.703125c7.15625 13.21875 15.429687 25.738281 24.71875 37.425781 46.898437 59.019532 119.300781 96.871094 200.539062 96.871094s153.640625-37.851562 200.539062-96.871094c9.289063-11.6875 17.5625-24.207031 24.71875-37.425781zm0 0" fill="#7038ba"/><path d="m406.894531 256c0 83.289062-67.480469 150.820312-150.746093 150.898438h-.144532c-16.96875 0-33.28125-2.800782-48.503906-7.964844-52.71875-17.886719-92.347656-64.117188-100.738281-120.539063-1.085938-7.308593-1.65625-14.78125-1.65625-22.394531 0-23.644531 5.4375-46.011719 15.128906-65.929688 24.46875-50.300781 76.070313-84.96875 135.769531-84.96875h.136719c33.398437.027344 64.253906 10.910157 89.234375 29.304688 6.707031 4.933594 12.984375 10.410156 18.777344 16.367188 9.085937 9.339843 16.976562 19.855468 23.410156 31.289062 8.972656 15.933594 15.136719 33.660156 17.816406 52.503906 1 6.996094 1.515625 14.152344 1.515625 21.433594zm0 0" fill="#65b2ff"/><path d="m406.894531 256c0 83.289062-67.480469 150.820312-150.746093 150.898438-45.894532-34.355469-75.59375-89.164063-75.59375-150.898438 0-61.742188 29.699218-116.535156 75.585937-150.898438 83.269531.074219 150.753906 67.601563 150.753906 150.898438zm0 0" fill="#0f9be8"/><path d="m406.894531 256c0 83.335938-67.554687 150.898438-150.890625 150.898438v-301.796876c83.332032 0 150.890625 67.558594 150.890625 150.898438zm0 0" fill="#0066e8"/><path d="m406.894531 256c0 83.289062-67.480469 150.820312-150.746093 150.898438h-.144532v-55.308594c0-18.003906 14.59375-32.597656 32.589844-32.597656h17.605469c10.84375 0 19.632812-8.789063 19.632812-19.632813v-1.75c0-10.84375 8.789063-19.632813 19.632813-19.632813 5.285156 0 10.457031-1.046874 15.25-3.035156 4.785156-1.984375 9.1875-4.902344 12.925781-8.632812l31.734375-31.742188c1.003906 6.996094 1.519531 14.152344 1.519531 21.433594zm0 0" fill="#95d600"/><path d="m345.371094 134.40625h-77.066406c-3.402344 0-6.472657 1.378906-8.699219 3.601562-2.226563 2.226563-3.601563 5.304688-3.601563 8.695313 0 6.800781-5.515625 12.308594-12.308594 12.308594h-15.125c-3.261718 0-6.394531 1.296875-8.699218 3.605469l-17.195313 17.191406c-6.570312 6.570312-15.484375 10.261718-24.777343 10.261718h-57.667969c24.472656-50.300781 76.074219-84.96875 135.773437-84.96875h.136719c.605469 0 1.210937.007813 1.816406.015626.644531.003906 1.296875.019531 1.941407.039062.703124.011719 1.398437.039062 2.09375.0625.59375.019531 1.1875.054688 1.773437.078125.710937.039063 1.414063.078125 2.117187.125.578126.039063 1.152344.078125 1.730469.125.636719.046875 1.277344.097656 1.914063.15625.632812.050781 1.269531.117187 1.902344.179687.5625.054688 1.125.117188 1.683593.175782.546875.066406 1.085938.132812 1.628907.195312.382812.046875.769531.097656 1.144531.152344 2.417969.3125 4.820312.6875 7.195312 1.125.496094.085938.992188.175781 1.484375.273438.613282.117187 1.234375.242187 1.84375.363281.613282.125 1.226563.253906 1.835938.386719.613281.136718 1.226562.269531 1.832031.410156.609375.140625 1.21875.285156 1.820313.433594 1.648437.398437 3.285156.828124 4.90625 1.285156.765624.214844 1.527343.433594 2.289062.664062.59375.175782 1.1875.355469 1.777344.539063.59375.179687 1.179687.371093 1.765625.558593 1.160156.371094 2.3125.761719 3.460937 1.167969.597656.214844 1.191406.429688 1.789063.644531.535156.191407 1.074219.394532 1.609375.597657 1.191406.457031 2.367187.917969 3.539062 1.398437.570313.230469 1.136719.464844 1.703125.703125l.234375.097657c1.046875.449218 2.089844.90625 3.125 1.375.558594.253906 1.113282.507812 1.664063.769531 1.109375.511719 2.207031 1.039062 3.300781 1.585937.546875.269532 1.089844.550782 1.628906.820313.546875.28125 1.085938.5625 1.621094.847656.507812.261719 1.007812.535156 1.511719.808594 2.167969 1.171875 4.3125 2.402343 6.417969 3.683593.355468.214844.703124.433594 1.050781.640626.316406.199218.636719.394531.949219.597656.367187.226562.730468.457031 1.085937.691406.511719.324219 1.019531.65625 1.527344.988281.507812.332031 1.007812.671875 1.507812 1.007813.894531.601562 1.773438 1.214844 2.652344 1.832031.257813.183594.527344.371094.789063.558594.527343.382812 1.046874.757812 1.566406 1.144531zm0 0" fill="#b5e237"/><path d="m207.5 354.265625v44.667969c-52.71875-17.886719-92.347656-64.117188-100.738281-120.539063h24.867187c11.691406 0 21.167969 9.472657 21.167969 21.167969 0 5.847656 2.367187 11.136719 6.203125 14.96875 3.828125 3.832031 9.125 6.199219 14.972656 6.199219 9.257813 0 17.636719 3.757812 23.707032 9.828125 6.070312 6.066406 9.820312 14.445312 9.820312 23.707031zm0 0" fill="#b5e237"/><path d="m387.5625 182.0625-13.871094 13.867188c-8.757812 8.757812-20.632812 13.675781-33.011718 13.675781h-59.292969c-7.074219 0-11.753907-5.78125-11.753907-11.8125 0-2.878907 1.066407-5.816407 3.457032-8.203125 8.757812-8.757813 20.636718-13.683594 33.015625-13.683594h13.574219c12.386718 0 24.253906-4.914062 33.011718-13.671875l11.460938-11.460937c9.082031 9.339843 16.976562 19.855468 23.410156 31.289062zm0 0" fill="#95d600"/><path d="m233.632812 240.824219c0 8.382812-6.792968 15.175781-15.171874 15.175781-8.382813 0-15.175782-6.792969-15.175782-15.175781 0-8.378907 6.792969-15.175781 15.175782-15.175781 8.378906 0 15.171874 6.796874 15.171874 15.175781zm0 0" fill="#b5e237"/><path d="m345.371094 134.40625h-77.066406c-3.402344 0-6.472657 1.378906-8.699219 3.601562-2.226563 2.226563-3.601563 5.304688-3.601563 8.695313v-41.601563h.136719c.605469 0 1.210937.007813 1.816406.015626.644531.003906 1.296875.019531 1.941407.039062.703124.011719 1.398437.039062 2.09375.0625.59375.019531 1.1875.054688 1.773437.078125.710937.039063 1.414063.078125 2.117187.125.578126.039063 1.152344.078125 1.730469.125.636719.046875 1.277344.097656 1.914063.15625.632812.050781 1.269531.117187 1.902344.179687.5625.054688 1.125.117188 1.683593.175782.546875.066406 1.085938.132812 1.628907.195312.382812.046875.769531.097656 1.144531.152344 2.417969.3125 4.820312.6875 7.195312 1.125.496094.085938.992188.175781 1.484375.273438.613282.117187 1.234375.242187 1.84375.363281.613282.125 1.226563.253906 1.835938.386719.613281.136718 1.226562.269531 1.832031.410156.609375.140625 1.21875.285156 1.820313.433594 1.648437.40625 3.285156.828124 4.90625 1.285156.765624.214844 1.527343.433594 2.289062.664062.59375.175782 1.1875.355469 1.777344.539063.59375.179687 1.179687.371093 1.765625.558593 1.160156.378907 2.3125.769532 3.460937 1.167969.597656.214844 1.191406.429688 1.789063.644531.535156.191407 1.074219.394532 1.609375.597657 1.191406.457031 2.367187.917969 3.539062 1.398437.570313.230469 1.136719.464844 1.703125.703125l.234375.097657c1.046875.449218 2.089844.90625 3.125 1.375.558594.253906 1.113282.507812 1.664063.769531 1.109375.511719 2.207031 1.039062 3.300781 1.585937.546875.269532 1.089844.550782 1.628906.820313.546875.28125 1.085938.5625 1.621094.847656.507812.261719 1.007812.535156 1.511719.808594 2.167969 1.171875 4.3125 2.402343 6.417969 3.683593.355468.214844.703124.433594 1.050781.640626.316406.199218.636719.394531.949219.597656.367187.226562.730468.457031 1.085937.691406.511719.324219 1.019531.65625 1.527344.988281.507812.332031 1.007812.671875 1.507812 1.007813.894531.601562 1.773438 1.214844 2.652344 1.832031.257813.183594.527344.371094.789063.558594.527343.382812 1.046874.757812 1.566406 1.144531zm0 0" fill="#95d600"/><g fill="#fff"><path d="m400.628906 413.160156h-1.523437c-6.753907 0-12.226563-5.472656-12.226563-12.226562v-1.523438h-8.71875v1.523438c0 6.753906-5.472656 12.226562-12.226562 12.226562h-1.523438v8.71875h1.523438c6.753906 0 12.226562 5.472656 12.226562 12.226563v1.523437h8.71875v-1.523437c0-6.753907 5.472656-12.226563 12.226563-12.226563h1.523437zm0 0"/><path d="m147.589844 413.160156h-1.523438c-6.753906 0-12.226562-5.472656-12.226562-12.226562v-1.523438h-8.71875v1.523438c0 6.753906-5.472656 12.226562-12.226563 12.226562h-1.523437v8.71875h1.523437c6.753907 0 12.226563 5.472656 12.226563 12.226563v1.523437h8.71875v-1.523437c0-6.753907 5.472656-12.226563 12.226562-12.226563h1.523438zm0 0"/><path d="m400.628906 89.285156h-1.523437c-6.753907 0-12.226563-5.476562-12.226563-12.226562v-1.527344h-8.71875v1.527344c0 6.75-5.472656 12.226562-12.226562 12.226562h-1.523438v8.714844h1.523438c6.753906 0 12.226562 5.472656 12.226562 12.226562v1.527344h8.71875v-1.527344c0-6.753906 5.472656-12.226562 12.226563-12.226562h1.523437zm0 0"/><path d="m481.257812 248.316406h-1.523437c-6.753906 0-12.226563-5.476562-12.226563-12.226562v-1.527344h-8.714843v1.527344c0 6.75-5.476563 12.226562-12.226563 12.226562h-1.527344v8.714844h1.527344c6.75 0 12.226563 5.472656 12.226563 12.226562v1.523438h8.714843v-1.523438c0-6.753906 5.472657-12.226562 12.226563-12.226562h1.523437zm0 0"/><path d="m72.257812 248.316406h-1.523437c-6.753906 0-12.226563-5.476562-12.226563-12.226562v-1.527344h-8.714843v1.527344c0 6.75-5.476563 12.226562-12.226563 12.226562h-1.527344v8.714844h1.527344c6.75 0 12.226563 5.472656 12.226563 12.226562v1.523438h8.714843v-1.523438c0-6.753906 5.472657-12.226562 12.226563-12.226562h1.523437zm0 0"/><path d="m147.589844 89.285156h-1.523438c-6.753906 0-12.226562-5.476562-12.226562-12.226562v-1.527344h-8.71875v1.527344c0 6.75-5.472656 12.226562-12.226563 12.226562h-1.523437v8.714844h1.523437c6.753907 0 12.226563 5.472656 12.226563 12.226562v1.527344h8.71875v-1.527344c0-6.753906 5.472656-12.226562 12.226562-12.226562h1.523438zm0 0"/></g></svg>