<svg height="512pt" viewBox="0 0 512 512" width="512pt" xmlns="http://www.w3.org/2000/svg"><path d="m512 256c0 141.386719-114.613281 256-256 256s-256-114.613281-256-256 114.613281-256 256-256 256 114.613281 256 256zm0 0" fill="#65b2ff"/><path d="m512 256c0 26.050781-3.890625 51.191406-11.128906 74.871094-32.011719 104.847656-129.542969 181.128906-244.871094 181.128906-104.558594 0-194.488281-62.699219-234.230469-152.550781-14-31.628907-21.769531-66.628907-21.769531-103.449219 0-46.21875 12.25-89.570312 33.679688-127 44.121093 77.070312 127.160156 129 222.320312 129s178.210938-51.929688 222.320312-129c21.429688 37.429688 33.679688 80.78125 33.679688 127zm0 0" fill="#0f9be8"/><path d="m481.261719 377.699219c-7.160157 13.222656-15.433594 25.742187-24.722657 37.429687-44.96875 56.589844-113.367187 93.710938-190.539062 96.671875-3.308594.140625-6.648438.199219-10 .199219s-6.691406-.058594-10-.199219c-77.171875-2.960937-145.570312-40.082031-190.539062-96.671875-9.289063-11.6875-17.5625-24.207031-24.722657-37.429687zm0 0" fill="#0066e8"/><path d="m367.40625 435.519531c-5.109375 5.109375-10.671875 9.5625-16.617188 13.367188-23.929687 15.332031-54.027343 20.214843-85.242187 15.3125-3.171875-.496094-6.355469-1.097657-9.546875-1.792969-.695312-3.1875-1.296875-6.375-1.789062-9.542969-4.902344-31.21875-.023438-61.308593 15.308593-85.246093 3.804688-5.941407 8.257813-11.503907 13.367188-16.613282.878906-.878906 1.769531-1.738281 2.671875-2.574218 5.871094-5.445313 12.292968-10.078126 19.15625-13.910157 5.113281-2.859375 10.46875-5.273437 16.027344-7.246093 6.160156-2.183594 12.570312-3.839844 19.160156-4.964844 5.238281-.894532 10.589844-1.453125 16.035156-1.683594 9.386719-.402344 19.039062.175781 28.800781 1.707031 3.171875.496094 6.359375 1.097657 9.546875 1.792969.695313 3.1875 1.296875 6.375 1.792969 9.546875 1.53125 9.757813 2.109375 19.414063 1.707031 28.800781-.230468 5.445313-.792968 10.800782-1.683594 16.039063-1.128906 6.589843-2.777343 12.996093-4.964843 19.148437-1.976563 5.566406-4.390625 10.925782-7.25 16.039063-4.070313 7.289062-9.039063 14.082031-14.929688 20.238281-.511719.53125-1.027343 1.058594-1.550781 1.582031zm0 0" fill="#b5e237"/><path d="m367.40625 435.523438c-27.761719 27.761718-69.019531 36.167968-111.402344 26.882812l138.28125-138.28125c9.285156 42.382812.878906 83.640625-26.878906 111.398438zm0 0" fill="#85af12"/><path d="m367.40625 435.519531c-5.109375 5.109375-10.671875 9.5625-16.617188 13.367188l-69.925781-.003907-15.316406 15.316407c-3.171875-.496094-6.355469-1.097657-9.546875-1.792969-.695312-3.1875-1.296875-6.375-1.789062-9.542969l15.3125-15.316406-.003907-69.929687c3.804688-5.941407 8.257813-11.503907 13.367188-16.613282.878906-.878906 1.769531-1.738281 2.671875-2.574218l-.003906 73.089843 19.160156-19.160156v-67.839844c5.113281-2.859375 10.46875-5.273437 16.027344-7.246093v59.054687l19.160156-19.15625v-44.863281c5.238281-.894532 10.589844-1.453125 16.035156-1.683594l-.003906 30.515625 28.804687-28.808594c3.171875.496094 6.359375 1.097657 9.546875 1.792969.695313 3.1875 1.296875 6.375 1.792969 9.546875l-28.808594 28.804687 30.515625-.003906c-.230468 5.445313-.792968 10.800782-1.683594 16.039063l-44.859374-.003907-19.160157 19.15625 59.054688-.003906c-1.976563 5.566406-4.390625 10.925782-7.25 16.039063l-67.835938-.003907-19.15625 19.160157 68.046875-.003907c1.464844 0 2.835938.394532 4.015625 1.085938-.511719.53125-1.027343 1.058594-1.550781 1.582031zm0 0" fill="#85af12"/><path d="m367.40625 435.519531c-5.109375 5.109375-10.671875 9.5625-16.617188 13.367188l-69.925781-.003907-15.316406 15.316407c-3.171875-.496094-6.355469-1.097657-9.546875-1.792969l138.285156-138.285156c.695313 3.191406 1.296875 6.375 1.789063 9.546875l-28.804688 28.808593 30.515625-.003906c-.230468 5.445313-.796875 10.800782-1.6875 16.039063l-44.859375-.003907-19.15625 19.15625 59.050781-.003906c-1.976562 5.566406-4.386718 10.925782-7.246093 16.039063l-67.835938-.003907-19.160156 19.160157 68.046875-.003907c1.46875 0 2.839844.394532 4.019531 1.082032-.511719.535156-1.027343 1.0625-1.550781 1.585937zm0 0" fill="#6c8902"/><path d="m144.59375 435.519531c5.109375 5.109375 10.671875 9.5625 16.617188 13.367188 23.929687 15.332031 54.027343 20.214843 85.242187 15.3125 3.171875-.496094 6.355469-1.097657 9.546875-1.792969.695312-3.1875 1.296875-6.375 1.789062-9.542969 4.902344-31.21875.023438-61.308593-15.308593-85.246093-3.804688-5.941407-8.257813-11.503907-13.367188-16.613282-.878906-.878906-1.769531-1.738281-2.671875-2.574218-5.871094-5.445313-12.292968-10.078126-19.15625-13.910157-5.113281-2.859375-10.46875-5.273437-16.027344-7.246093-6.160156-2.183594-12.570312-3.839844-19.160156-4.964844-5.238281-.894532-10.589844-1.453125-16.035156-1.683594-9.386719-.402344-19.039062.175781-28.800781 1.707031-3.171875.496094-6.359375 1.097657-9.546875 1.792969-.695313 3.1875-1.296875 6.375-1.789063 9.546875-1.53125 9.757813-2.109375 19.414063-1.710937 28.800781.230468 5.445313.796875 10.800782 1.6875 16.039063 1.125 6.589843 2.777344 12.996093 4.964844 19.148437 1.976562 5.566406 4.386718 10.925782 7.246093 16.039063 4.070313 7.289062 9.039063 14.082031 14.929688 20.238281.511719.53125 1.027343 1.058594 1.550781 1.582031zm0 0" fill="#b5e237"/><path d="m144.59375 435.523438c27.761719 27.761718 69.019531 36.167968 111.402344 26.882812l-138.28125-138.28125c-9.285156 42.382812-.878906 83.640625 26.878906 111.398438zm0 0" fill="#85af12"/><path d="m144.59375 435.519531c5.109375 5.109375 10.671875 9.5625 16.617188 13.367188l69.929687-.003907 15.3125 15.316407c3.171875-.496094 6.359375-1.097657 9.546875-1.792969.695312-3.1875 1.296875-6.375 1.792969-9.542969l-15.316407-15.316406.003907-69.929687c-3.804688-5.941407-8.257813-11.503907-13.367188-16.613282-.875-.878906-1.765625-1.738281-2.671875-2.574218l.003906 73.089843-19.160156-19.160156v-67.839844c-5.109375-2.859375-10.46875-5.273437-16.027344-7.246093v59.054687l-19.160156-19.15625v-44.863281c-5.238281-.894532-10.585937-1.453125-16.035156-1.683594l.003906 30.515625-28.804687-28.808594c-3.171875.496094-6.355469 1.097657-9.546875 1.792969-.695313 3.1875-1.292969 6.375-1.789063 9.546875l28.804688 28.804687-30.511719-.003906c.230469 5.445313.792969 10.800782 1.683594 16.039063l44.859375-.003907 19.160156 19.15625-59.054687-.003906c1.976562 5.566406 4.386718 10.925782 7.246093 16.039063l67.835938-.003907 19.160156 19.160157-68.046875-.003907c-1.464844 0-2.839844.394532-4.015625 1.085938.507813.53125 1.023437 1.058594 1.546875 1.582031zm0 0" fill="#85af12"/><path d="m144.59375 435.519531c5.109375 5.109375 10.671875 9.5625 16.617188 13.367188l69.929687-.003907 15.3125 15.316407c3.171875-.496094 6.359375-1.097657 9.546875-1.792969l-138.285156-138.285156c-.695313 3.191406-1.296875 6.375-1.789063 9.546875l28.804688 28.808593-30.515625-.003906c.230468 5.445313.796875 10.800782 1.6875 16.039063l44.859375-.003907 19.15625 19.15625-59.050781-.003906c1.976562 5.566406 4.386718 10.925782 7.246093 16.039063l67.835938-.003907 19.160156 19.160157-68.046875-.003907c-1.46875 0-2.839844.394532-4.019531 1.082032.511719.535156 1.027343 1.0625 1.550781 1.585937zm0 0" fill="#6c8902"/><path d="m266 258v253.800781c-3.308594.140625-6.648438.199219-10 .199219s-6.691406-.058594-10-.199219v-253.800781zm0 0" fill="#6c8902"/><path d="m339 260.191406c7.058594 13.582032 4.890625 30.710938-6.511719 42.113282-11.398437 11.398437-28.527343 13.566406-42.109375 6.507812-4.617187 14.601562-18.257812 25.171875-34.378906 25.171875s-29.769531-10.570313-34.378906-25.171875c-13.589844 7.058594-30.722656 4.890625-42.109375-6.507812-11.402344-11.402344-13.570313-28.53125-6.523438-42.113282-14.589843-4.617187-25.167969-18.257812-25.167969-34.378906s10.578126-29.769531 25.167969-34.390625c-7.046875-13.578125-4.878906-30.707031 6.523438-42.109375 11.386719-11.390625 28.519531-13.558594 42.109375-6.507812 4.609375-14.589844 18.257812-25.171876 34.378906-25.171876s29.761719 10.582032 34.378906 25.171876c13.582032-7.050782 30.710938-4.882813 42.109375 6.507812 11.402344 11.402344 13.570313 28.53125 6.511719 42.109375 14.601562 4.621094 25.179688 18.269531 25.179688 34.390625s-10.578126 29.761719-25.179688 34.378906zm0 0" fill="#ffd112"/><path d="m339 260.191406c7.058594 13.582032 4.890625 30.710938-6.511719 42.113282-11.398437 11.398437-28.527343 13.566406-42.109375 6.507812-4.617187 14.601562-18.257812 25.171875-34.378906 25.171875v-216.351563c16.121094 0 29.761719 10.582032 34.378906 25.171876 13.582032-7.050782 30.710938-4.882813 42.109375 6.507812 11.402344 11.402344 13.570313 28.53125 6.511719 42.109375 14.601562 4.621094 25.179688 18.269531 25.179688 34.390625s-10.578126 29.761719-25.179688 34.378906zm0 0" fill="#ff9f00"/><path d="m301.671875 225.808594c0 25.222656-20.449219 45.667968-45.671875 45.667968s-45.671875-20.445312-45.671875-45.667968 20.449219-45.671875 45.671875-45.671875 45.671875 20.449219 45.671875 45.671875zm0 0" fill="#c55835"/><path d="m301.671875 225.808594c0 25.21875-20.453125 45.667968-45.671875 45.667968v-91.339843c25.21875 0 45.671875 20.453125 45.671875 45.671875zm0 0" fill="#a63914"/></svg>