<svg height="512pt" viewBox="0 0 512 512" width="512pt" xmlns="http://www.w3.org/2000/svg"><path d="m512 256c0 141.386719-114.613281 256-256 256s-256-114.613281-256-256 114.613281-256 256-256 256 114.613281 256 256zm0 0" fill="#b5e237"/><path d="m512 256c0 26.050781-3.890625 51.191406-11.128906 74.871094-32.011719 104.847656-129.542969 181.128906-244.871094 181.128906-104.558594 0-194.488281-62.699219-234.230469-152.550781-14-31.628907-21.769531-66.628907-21.769531-103.449219 0-46.21875 12.25-89.570312 33.679688-127 44.121093 77.070312 127.160156 129 222.320312 129s178.210938-51.929688 222.320312-129c21.429688 37.429688 33.679688 80.78125 33.679688 127zm0 0" fill="#95d600"/><path d="m30.742188 377.703125c7.15625 13.21875 15.429687 25.738281 24.71875 37.425781 46.898437 59.019532 119.300781 96.871094 200.539062 96.871094s153.640625-37.851562 200.539062-96.871094c9.289063-11.6875 17.5625-24.207031 24.71875-37.425781zm0 0" fill="#85af12"/><path d="m430.371094 443.441406c-5.960938 5.539063-12.179688 10.796875-18.640625 15.75-43.152344 33.117188-97.140625 52.808594-155.730469 52.808594-61.089844 0-117.191406-21.410156-161.199219-57.121094-7.511719-6.089844-14.660156-12.597656-21.429687-19.488281 9.757812-15.929687 27.179687-26.550781 47.039062-26.550781 20.929688 0 39.128906 11.78125 48.53125 29.160156 5.128906-2.210938 10.769532-3.441406 16.699219-3.441406 5.589844 0 10.9375 1.113281 15.828125 3.089844 9.460938-17.179688 27.570312-28.808594 48.359375-28.808594 20.933594 0 39.132813 11.78125 48.542969 29.160156 5.117187-2.210938 10.757812-3.441406 16.6875-3.441406 5.601562 0 10.941406 1.113281 15.832031 3.089844 9.46875-17.179688 27.570313-28.808594 48.359375-28.808594 23.050781 0 42.800781 14.289062 51.121094 34.601562zm0 0" fill="#fff"/><path d="m411.730469 459.191406c-43.152344 33.117188-97.140625 52.808594-155.730469 52.808594-61.089844 0-117.191406-21.410156-161.199219-57.121094 7.660157-4.070312 16.371094-6.367187 25.609375-6.367187 20.929688 0 39.128906 11.777343 48.53125 29.148437 5.128906-2.210937 10.769532-3.441406 16.699219-3.441406 5.589844 0 10.9375 1.109375 15.828125 3.101562 9.460938-17.179687 27.570312-28.808593 48.359375-28.808593 20.933594 0 39.132813 11.777343 48.542969 29.148437 5.117187-2.210937 10.757812-3.441406 16.6875-3.441406 5.601562 0 10.941406 1.109375 15.832031 3.101562 9.46875-17.179687 27.570313-28.808593 48.359375-28.808593 12.140625 0 23.359375 3.957031 32.480469 10.679687zm0 0" fill="#8fc9f7"/><path d="m68.054688 155.648438c0-.082032-.003907-.164063-.003907-.246094 0-15.140625 12.273438-27.417969 27.414063-27.417969 3.597656 0 7.03125.703125 10.175781 1.960937 6.082031-10.890624 17.714844-18.261718 31.074219-18.261718 17.347656 0 31.789062 12.425781 34.925781 28.859375.933594-.132813 1.890625-.207031 2.863281-.207031 9.433594 0 17.335938 6.53125 19.449219 15.3125zm0 0" fill="#fff"/><path d="m94.804688 155.648438c0-.046876-.003907-.09375-.003907-.140626 0-8.707031 7.058594-15.765624 15.765625-15.765624 2.070313 0 4.042969.402343 5.851563 1.125 3.496093-6.261719 10.1875-10.5 17.867187-10.5 9.976563 0 18.28125 7.144531 20.085938 16.59375.535156-.074219 1.085937-.117188 1.644531-.117188 5.425781 0 9.96875 3.753906 11.183594 8.804688zm0 0" fill="#d0f6ff"/><path d="m334.054688 155.648438c0-.082032-.003907-.164063-.003907-.246094 0-15.140625 12.273438-27.417969 27.414063-27.417969 3.597656 0 7.03125.703125 10.175781 1.960937 6.082031-10.890624 17.714844-18.261718 31.074219-18.261718 17.347656 0 31.789062 12.425781 34.925781 28.859375.933594-.132813 1.890625-.207031 2.863281-.207031 9.433594 0 17.335938 6.53125 19.449219 15.3125zm0 0" fill="#fff"/><path d="m360.804688 155.648438c0-.046876-.003907-.09375-.003907-.140626 0-8.707031 7.058594-15.765624 15.765625-15.765624 2.070313 0 4.042969.402343 5.851563 1.125 3.496093-6.261719 10.1875-10.5 17.867187-10.5 9.976563 0 18.28125 7.144531 20.085938 16.59375.535156-.074219 1.085937-.117188 1.644531-.117188 5.425781 0 9.96875 3.753906 11.183594 8.804688zm0 0" fill="#d0f6ff"/><path d="m198.433594 85.964844c-.003906-.082032-.007813-.164063-.007813-.246094 0-15.144531 12.273438-27.417969 27.417969-27.417969 3.597656 0 7.027344.703125 10.175781 1.960938 6.078125-10.890625 17.710938-18.261719 31.070313-18.261719 17.347656 0 31.789062 12.425781 34.925781 28.859375.9375-.132813 1.890625-.207031 2.863281-.207031 9.433594 0 17.335938 6.527344 19.449219 15.3125zm0 0" fill="#fff"/><path d="m225.183594 85.964844c0-.046875-.003906-.09375-.003906-.140625 0-8.707031 7.058593-15.765625 15.765624-15.765625 2.066407 0 4.039063.402344 5.851563 1.125 3.496094-6.261719 10.183594-10.5 17.867187-10.5 9.976563 0 18.277344 7.144531 20.082032 16.59375.539062-.078125 1.089844-.117188 1.648437-.117188 5.421875 0 9.964844 3.753906 11.179688 8.804688zm0 0" fill="#d0f6ff"/><g fill="#fff"><path d="m452.253906 322.109375c-10.5 0-19.042968-8.546875-19.042968-19.046875 0-2.761719 2.234374-5 5-5 2.761718 0 5 2.238281 5 5 0 4.988281 4.054687 9.046875 9.042968 9.046875 4.988282 0 9.046875-4.058594 9.046875-9.046875s-4.058593-9.046875-9.046875-9.046875h-80.019531c-2.761719 0-5-2.238281-5-5s2.238281-5 5-5h80.019531c10.503906 0 19.046875 8.546875 19.046875 19.046875s-8.542969 19.046875-19.046875 19.046875zm0 0"/><path d="m452.253906 268.957031h-65.761718c-2.761719 0-5-2.238281-5-5s2.238281-5 5-5h65.761718c4.988282 0 9.046875-4.058593 9.046875-9.046875 0-4.984375-4.058593-9.042968-9.046875-9.042968-4.988281 0-9.042968 4.058593-9.042968 9.042968 0 2.765625-2.238282 5-5 5-2.765626 0-5-2.234375-5-5 0-10.5 8.542968-19.042968 19.042968-19.042968 10.503906 0 19.046875 8.542968 19.046875 19.042968 0 10.503906-8.542969 19.046875-19.046875 19.046875zm0 0"/><path d="m162.359375 217.105469h-29.699219c-2.761718 0-5-2.238281-5-5s2.238282-5 5-5h29.699219c1.113281 0 2.023437-.90625 2.023437-2.023438 0-1.113281-.910156-2.023437-2.023437-2.023437-2.761719 0-5-2.238282-5-5 0-2.761719 2.238281-5 5-5 6.628906 0 12.023437 5.394531 12.023437 12.023437 0 6.628907-5.394531 12.023438-12.023437 12.023438zm0 0"/><path d="m198.425781 238.175781h-65.765625c-2.761718 0-5-2.238281-5-5 0-2.765625 2.238282-5 5-5h65.765625c4.988281 0 9.046875-4.058593 9.046875-9.046875 0-4.988281-4.058594-9.046875-9.046875-9.046875s-9.046875 4.058594-9.046875 9.046875c0 2.761719-2.238281 5-5 5-2.761718 0-5-2.238281-5-5 0-10.503906 8.546875-19.046875 19.046875-19.046875s19.046875 8.542969 19.046875 19.046875c0 10.5-8.546875 19.046875-19.046875 19.046875zm0 0"/><path d="m162.359375 378.972656c-2.761719 0-5-2.238281-5-5 0-2.761718 2.238281-5 5-5 1.113281 0 2.023437-.90625 2.023437-2.023437 0-1.113281-.910156-2.023438-2.023437-2.023438h-29.699219c-2.761718 0-5-2.238281-5-5s2.238282-5 5-5h29.699219c6.628906 0 12.023437 5.394531 12.023437 12.023438 0 6.628906-5.394531 12.023437-12.023437 12.023437zm0 0"/><path d="m198.425781 371.949219c-10.5 0-19.046875-8.542969-19.046875-19.046875 0-2.761719 2.238282-5 5-5 2.761719 0 5 2.238281 5 5 0 4.988281 4.058594 9.046875 9.046875 9.046875s9.046875-4.058594 9.046875-9.046875c0-4.988282-4.058594-9.046875-9.046875-9.046875h-65.765625c-2.761718 0-5-2.238281-5-5s2.238282-5 5-5h65.765625c10.5 0 19.046875 8.546875 19.046875 19.046875 0 10.503906-8.546875 19.046875-19.046875 19.046875zm0 0"/><path d="m362.027344 368.398438c-2.761719 0-5-2.238282-5-5 0-2.761719 2.238281-5 5-5 1.117187 0 2.023437-.90625 2.023437-2.019532 0-1.117187-.90625-2.023437-2.023437-2.023437h-29.695313c-2.761719 0-5-2.238281-5-5s2.238281-5 5-5h29.695313c6.628906 0 12.023437 5.394531 12.023437 12.023437s-5.394531 12.019532-12.023437 12.019532zm0 0"/><path d="m398.09375 361.378906c-10.5 0-19.042969-8.542968-19.042969-19.046875 0-2.761719 2.234375-5 5-5 2.761719 0 5 2.238281 5 5 0 4.988281 4.054688 9.046875 9.042969 9.046875s9.046875-4.058594 9.046875-9.046875-4.058594-9.046875-9.046875-9.046875h-65.761719c-2.761719 0-5-2.234375-5-5 0-2.761718 2.238281-5 5-5h65.761719c10.503906 0 19.046875 8.546875 19.046875 19.046875 0 10.503907-8.542969 19.046875-19.046875 19.046875zm0 0"/></g><path d="m323.515625 190.808594-42.109375 72.191406h-73.820312l58.753906-71.648438c4.875-5.945312 12.160156-9.390624 19.847656-9.390624h32.246094c4.542968 0 7.375 4.921874 5.082031 8.847656zm0 0" fill="#65b2ff"/><path d="m323.515625 190.808594-42.109375 72.191406h-44.382812l58.757812-71.648438c4.875-5.945312 12.160156-9.390624 19.847656-9.390624h2.804688c4.542968 0 7.375 4.921874 5.082031 8.847656zm0 0" fill="#0f9be8"/><path d="m391.589844 225.617188-31.085938 55.9375-3.589844 6.457031c-9.175781 16.507812-26.578124 26.75-45.46875 26.75h-177.210937c-11.425781 0-20.6875-9.265625-20.6875-20.691407v-9.132812c0-1.140625.066406-2.273438.1875-3.382812.558594-4.929688 2.320313-9.496094 4.980469-13.398438 5.363281-7.871094 14.402344-13.039062 24.652344-13.039062h186.832031l21.441406-35.371094c1.0625-1.746094 2.953125-2.8125 5-2.8125h29.839844c4.457031 0 7.273437 4.785156 5.109375 8.683594zm0 0" fill="#fff"/><path d="m360.503906 281.554688-3.589844 6.457031c-9.175781 16.507812-26.578124 26.75-45.46875 26.75h-177.210937c-11.425781 0-20.6875-9.265625-20.6875-20.691407v-9.132812c0-1.140625.066406-2.273438.1875-3.382812zm0 0" fill="#d0f6ff"/><path d="m167.433594 280.65625c0 6.90625-5.59375 12.503906-12.5 12.503906h-41.386719v-8.222656c0-6.222656 1.90625-12 5.167969-16.78125h36.21875c6.90625 0 12.5 5.597656 12.5 12.5zm0 0" fill="#20273a"/><path d="m192.558594 294.246094c-7.007813 0-12.691406-5.683594-12.691406-12.691406 0-7.011719 5.683593-12.691407 12.691406-12.691407 7.011718 0 12.695312 5.683594 12.695312 12.691407 0 7.007812-5.683594 12.691406-12.695312 12.691406zm0 0" fill="#20273a"/><path d="m227.789062 294.246094c-7.011718 0-12.691406-5.683594-12.691406-12.691406 0-7.011719 5.679688-12.691407 12.691406-12.691407 7.007813 0 12.691407 5.683594 12.691407 12.691407 0 7.007812-5.683594 12.691406-12.691407 12.691406zm0 0" fill="#20273a"/><path d="m318.554688 386.0625c-.039063 0-.078126 0-.121094 0h-32.246094c-7.6875 0-14.972656-3.445312-19.84375-9.390625l-58.757812-71.648437h73.820312l42.109375 72.191406c2.269531 3.890625-.488281 8.761718-4.960937 8.847656zm0 0" fill="#65b2ff"/><path d="m318.554688 386.0625c-7.625-.054688-14.832032-3.488281-19.671876-9.390625l-58.753906-71.648437h41.277344l42.109375 72.191406c2.269531 3.890625-.488281 8.761718-4.960937 8.847656zm0 0" fill="#0f9be8"/><path d="m391.589844 225.617188-31.085938 55.9375-3.589844 6.457031c-9.175781 16.507812-26.578124 26.75-45.46875 26.75h-12.945312l17.648438-33.207031 14.050781-26.4375 21.441406-35.371094c1.058594-1.746094 2.953125-2.8125 5-2.8125h29.839844c4.457031 0 7.273437 4.785156 5.109375 8.683594zm0 0" fill="#65b2ff"/><path d="m360.503906 281.554688-3.589844 6.457031c-9.175781 16.507812-26.578124 26.75-45.46875 26.75h-12.945312l17.648438-33.207031zm0 0" fill="#0f9be8"/></svg>