<svg height="512pt" viewBox="0 0 512 512" width="512pt" xmlns="http://www.w3.org/2000/svg"><path d="m512 256c0 141.386719-114.613281 256-256 256s-256-114.613281-256-256 114.613281-256 256-256 256 114.613281 256 256zm0 0" fill="#68fcdf"/><path d="m512 256c0 26.050781-3.890625 51.191406-11.128906 74.871094-32.011719 104.847656-129.542969 181.128906-244.871094 181.128906-104.558594 0-194.488281-62.699219-234.230469-152.550781-14-31.628907-21.769531-66.628907-21.769531-103.449219 0-46.21875 12.25-89.570312 33.679688-127 44.121093 77.070312 127.160156 129 222.320312 129s178.210938-51.929688 222.320312-129c21.429688 37.429688 33.679688 80.78125 33.679688 127zm0 0" fill="#10e2c4"/><path d="m30.742188 377.703125c7.15625 13.21875 15.429687 25.738281 24.71875 37.425781 46.898437 59.019532 119.300781 96.871094 200.539062 96.871094s153.640625-37.851562 200.539062-96.871094c9.289063-11.6875 17.5625-24.207031 24.71875-37.425781zm0 0" fill="#1aba9f"/><path d="m323.515625 190.808594-42.109375 72.191406h-73.820312l58.753906-71.648438c4.875-5.945312 12.160156-9.390624 19.847656-9.390624h32.246094c4.542968 0 7.375 4.921874 5.082031 8.847656zm0 0" fill="#65b2ff"/><path d="m323.515625 190.808594-42.109375 72.191406h-44.382812l58.757812-71.648438c4.875-5.945312 12.160156-9.390624 19.847656-9.390624h2.804688c4.542968 0 7.375 4.921874 5.082031 8.847656zm0 0" fill="#0f9be8"/><path d="m391.589844 225.617188-31.085938 55.9375-3.589844 6.457031c-9.175781 16.507812-26.578124 26.75-45.46875 26.75h-177.210937c-11.425781 0-20.6875-9.265625-20.6875-20.691407v-9.132812c0-1.140625.066406-2.273438.1875-3.382812.558594-4.929688 2.320313-9.496094 4.980469-13.398438 5.363281-7.871094 14.402344-13.039062 24.652344-13.039062h186.832031l21.441406-35.371094c1.0625-1.746094 2.953125-2.8125 5-2.8125h29.839844c4.457031 0 7.273437 4.785156 5.109375 8.683594zm0 0" fill="#fff"/><path d="m360.503906 281.554688-3.589844 6.457031c-9.175781 16.507812-26.578124 26.75-45.46875 26.75h-177.210937c-11.425781 0-20.6875-9.265625-20.6875-20.691407v-9.132812c0-1.140625.066406-2.273438.1875-3.382812zm0 0" fill="#d0f6ff"/><g fill="#20273a"><path d="m167.433594 280.65625c0 6.90625-5.59375 12.503906-12.5 12.503906h-41.386719v-8.222656c0-6.222656 1.90625-12 5.167969-16.78125h36.21875c6.90625 0 12.5 5.597656 12.5 12.5zm0 0"/><path d="m192.558594 294.246094c-7.007813 0-12.691406-5.683594-12.691406-12.691406 0-7.011719 5.683593-12.691407 12.691406-12.691407 7.011718 0 12.695312 5.683594 12.695312 12.691407 0 7.007812-5.683594 12.691406-12.695312 12.691406zm0 0"/><path d="m227.789062 294.246094c-7.011718 0-12.691406-5.683594-12.691406-12.691406 0-7.011719 5.679688-12.691407 12.691406-12.691407 7.007813 0 12.691407 5.683594 12.691407 12.691407 0 7.007812-5.683594 12.691406-12.691407 12.691406zm0 0"/></g><path d="m318.554688 386.0625c-.039063 0-.078126 0-.121094 0h-32.246094c-7.6875 0-14.972656-3.445312-19.84375-9.390625l-58.757812-71.648437h73.820312l42.109375 72.191406c2.269531 3.890625-.488281 8.761718-4.960937 8.847656zm0 0" fill="#65b2ff"/><path d="m318.554688 386.0625c-7.625-.054688-14.832032-3.488281-19.671876-9.390625l-58.753906-71.648437h41.277344l42.109375 72.191406c2.269531 3.890625-.488281 8.761718-4.960937 8.847656zm0 0" fill="#0f9be8"/><path d="m391.589844 225.617188-31.085938 55.9375-3.589844 6.457031c-9.175781 16.507812-26.578124 26.75-45.46875 26.75h-12.945312l17.648438-33.207031 14.050781-26.4375 21.441406-35.371094c1.058594-1.746094 2.953125-2.8125 5-2.8125h29.839844c4.457031 0 7.273437 4.785156 5.109375 8.683594zm0 0" fill="#65b2ff"/><path d="m360.503906 281.554688-3.589844 6.457031c-9.175781 16.507812-26.578124 26.75-45.46875 26.75h-12.945312l17.648438-33.207031zm0 0" fill="#0f9be8"/><path d="m122.621094 176.675781v-40.515625h-19.90625l19.90625-56.109375v40.515625h19.910156zm0 0" fill="#ffd112"/><path d="m122.621094 176.675781 9.394531-47.675781h-19.324219l9.929688-48.949219v40.515625h19.910156zm0 0" fill="#ff9f00"/><path d="m258.039062 176.675781v-40.515625h-19.910156l19.910156-56.109375v40.515625h19.90625zm0 0" fill="#ffd112"/><path d="m258.039062 176.675781 9.394532-47.675781h-19.324219l9.929687-48.949219v40.515625h19.90625zm0 0" fill="#ff9f00"/><path d="m389.378906 176.675781v-40.515625h-19.910156l19.910156-56.109375v40.515625h19.90625zm0 0" fill="#ffd112"/><path d="m389.378906 176.675781 9.394532-47.675781h-19.324219l9.929687-48.949219v40.515625h19.90625zm0 0" fill="#ff9f00"/><path d="m376.191406 29.921875v4.347656c-1.960937 8.25-9.269531 14.371094-18 14.371094-.902344 0-1.792968-.0625-2.652344-.191406-2.910156 15.429687-16.269531 27.082031-32.328124 27.082031-12.371094 0-23.140626-6.910156-28.769532-17.132812-2.910156 1.171874-6.082031 1.839843-9.410156 1.839843-3.53125 0-6.890625-.738281-9.929688-2.046875-5.601562 10.339844-16.421874 17.339844-28.871093 17.339844-12.371094 0-23.140625-6.910156-28.769531-17.132812-2.910157 1.171874-6.089844 1.839843-9.410157 1.839843-3.53125 0-6.878906-.738281-9.941406-2.046875-5.589844 10.339844-16.410156 17.339844-28.859375 17.339844-12.371094 0-23.140625-6.910156-28.769531-17.132812-2.910157 1.171874-6.089844 1.839843-9.410157 1.839843-9.699218 0-18.121093-5.519531-22.390624-13.617187 11.140624-7.859375 22.941406-14.839844 35.289062-20.859375 33.839844-16.5 71.851562-25.761719 112.03125-25.761719 34.269531 0 66.960938 6.730469 96.828125 18.949219 8 3.269531 15.792969 6.929687 23.363281 10.972656zm0 0" fill="#fff"/><path d="m352.828125 18.949219c-5.328125 11.140625-16.589844 18.8125-29.617187 18.8125-12.371094 0-23.140626-6.910157-28.769532-17.132813-2.910156 1.179688-6.082031 1.839844-9.410156 1.839844-3.53125 0-6.890625-.730469-9.929688-2.039062-5.601562 10.332031-16.421874 17.332031-28.871093 17.332031-12.371094 0-23.140625-6.910157-28.769531-17.132813-2.910157 1.179688-6.089844 1.839844-9.410157 1.839844-3.53125 0-6.878906-.730469-9.941406-2.039062-5.589844 10.332031-16.410156 17.332031-28.859375 17.332031-10.160156 0-19.25-4.671875-25.28125-12 33.839844-16.5 71.851562-25.761719 112.03125-25.761719 34.269531 0 66.960938 6.730469 96.828125 18.949219zm0 0" fill="#8fc9f7"/><path d="m430.371094 443.441406c-5.960938 5.539063-12.179688 10.796875-18.640625 15.75-43.152344 33.117188-97.140625 52.808594-155.730469 52.808594-61.089844 0-117.191406-21.410156-161.199219-57.121094-7.511719-6.089844-14.660156-12.597656-21.429687-19.488281 9.757812-15.929687 27.179687-26.550781 47.039062-26.550781 20.929688 0 39.128906 11.78125 48.53125 29.160156 5.128906-2.210938 10.769532-3.441406 16.699219-3.441406 5.589844 0 10.9375 1.113281 15.828125 3.089844 9.460938-17.179688 27.570312-28.808594 48.359375-28.808594 20.933594 0 39.132813 11.78125 48.542969 29.160156 5.117187-2.210938 10.757812-3.441406 16.6875-3.441406 5.601562 0 10.941406 1.113281 15.832031 3.089844 9.46875-17.179688 27.570313-28.808594 48.359375-28.808594 23.050781 0 42.800781 14.289062 51.121094 34.601562zm0 0" fill="#fff"/><path d="m411.730469 459.191406c-43.152344 33.117188-97.140625 52.808594-155.730469 52.808594-61.089844 0-117.191406-21.410156-161.199219-57.121094 7.660157-4.070312 16.371094-6.367187 25.609375-6.367187 20.929688 0 39.128906 11.777343 48.53125 29.148437 5.128906-2.210937 10.769532-3.441406 16.699219-3.441406 5.589844 0 10.9375 1.109375 15.828125 3.101562 9.460938-17.179687 27.570312-28.808593 48.359375-28.808593 20.933594 0 39.132813 11.777343 48.542969 29.148437 5.117187-2.210937 10.757812-3.441406 16.6875-3.441406 5.601562 0 10.941406 1.109375 15.832031 3.101562 9.46875-17.179687 27.570313-28.808593 48.359375-28.808593 12.140625 0 23.359375 3.957031 32.480469 10.679687zm0 0" fill="#8fc9f7"/><path d="m196.554688 115.328125c-1.835938 1.800781-4.226563 2.683594-6.609376 2.660156-2.410156-.023437-4.816406-.980469-6.621093-2.867187-3.558594-3.710938-3.285157-9.664063.386719-13.261719l6.449218-6.320313c.007813-.007812.019532-.007812.027344 0l6.5 6.632813c3.59375 3.667969 3.535156 9.558594-.132812 13.15625zm0 0" fill="#fff"/><path d="m196.554688 115.328125c-1.832032 1.792969-4.214844 2.679687-6.589844 2.660156-.011719 0-.019532-.007812-.019532-.019531l.226563-22.398438c0-.015624.019531-.023437.03125-.011718l6.484375 6.613281c3.59375 3.667969 3.535156 9.558594-.132812 13.15625zm0 0" fill="#d0f6ff"/><path d="m196.554688 156.265625c-1.835938 1.796875-4.226563 2.679687-6.609376 2.65625-2.410156-.023437-4.816406-.980469-6.621093-2.863281-3.558594-3.710938-3.285157-9.667969.386719-13.265625l6.449218-6.316407c.007813-.007812.019532-.007812.027344 0l6.5 6.628907c3.59375 3.671875 3.535156 9.5625-.132812 13.160156zm0 0" fill="#fff"/><path d="m196.554688 156.265625c-1.832032 1.792969-4.214844 2.675781-6.589844 2.65625-.011719 0-.019532-.007813-.019532-.015625l.226563-22.402344c0-.015625.019531-.023437.03125-.011718l6.484375 6.613281c3.59375 3.671875 3.535156 9.5625-.132812 13.160156zm0 0" fill="#d0f6ff"/><path d="m71.269531 197.199219c-1.835937 1.800781-4.226562 2.683593-6.609375 2.660156-2.410156-.023437-4.8125-.980469-6.621094-2.867187-3.558593-3.710938-3.28125-9.664063.390626-13.261719l6.449218-6.320313c.007813-.007812.015625-.007812.023438 0l6.5 6.632813c3.597656 3.671875 3.535156 9.5625-.132813 13.15625zm0 0" fill="#fff"/><path d="m71.269531 197.199219c-1.828125 1.796875-4.214843 2.679687-6.589843 2.660156-.007813 0-.019532-.007813-.019532-.019531l.230469-22.398438c0-.015625.015625-.023437.027344-.011718l6.484375 6.613281c3.597656 3.671875 3.535156 9.5625-.132813 13.15625zm0 0" fill="#d0f6ff"/><path d="m453.691406 197.199219c-1.835937 1.800781-4.226562 2.683593-6.609375 2.660156-2.410156-.023437-4.8125-.980469-6.621093-2.867187-3.558594-3.710938-3.285157-9.664063.390624-13.261719l6.449219-6.320313c.003907-.007812.015625-.007812.023438 0l6.5 6.632813c3.597656 3.671875 3.535156 9.5625-.132813 13.15625zm0 0" fill="#fff"/><path d="m453.691406 197.199219c-1.832031 1.796875-4.214844 2.679687-6.589844 2.660156-.011718 0-.019531-.007813-.019531-.019531l.226563-22.398438c0-.015625.019531-.023437.03125-.011718l6.484375 6.613281c3.597656 3.671875 3.535156 9.5625-.132813 13.15625zm0 0" fill="#d0f6ff"/><path d="m453.691406 156.558594c-1.835937 1.796875-4.226562 2.679687-6.609375 2.65625-2.410156-.023438-4.8125-.980469-6.621093-2.863282-3.558594-3.710937-3.285157-9.667968.390624-13.265624l6.449219-6.316407c.003907-.007812.015625-.007812.023438 0l6.5 6.628907c3.597656 3.671874 3.535156 9.5625-.132813 13.160156zm0 0" fill="#fff"/><path d="m453.691406 156.558594c-1.832031 1.792968-4.214844 2.675781-6.589844 2.65625-.011718 0-.019531-.007813-.019531-.015625l.226563-22.402344c0-.015625.019531-.023437.03125-.011719l6.484375 6.613282c3.597656 3.671874 3.535156 9.5625-.132813 13.160156zm0 0" fill="#d0f6ff"/><path d="m71.269531 156.558594c-1.835937 1.796875-4.226562 2.679687-6.609375 2.65625-2.410156-.023438-4.8125-.980469-6.621094-2.863282-3.558593-3.710937-3.28125-9.667968.390626-13.265624l6.449218-6.316407c.007813-.007812.015625-.007812.023438 0l6.5 6.628907c3.597656 3.671874 3.535156 9.5625-.132813 13.160156zm0 0" fill="#fff"/><path d="m71.269531 156.558594c-1.828125 1.792968-4.214843 2.675781-6.589843 2.65625-.007813 0-.019532-.007813-.019532-.015625l.230469-22.402344c0-.015625.015625-.023437.027344-.011719l6.484375 6.613282c3.597656 3.671874 3.535156 9.5625-.132813 13.160156zm0 0" fill="#d0f6ff"/><path d="m331.839844 115.328125c-1.832032 1.800781-4.226563 2.683594-6.605469 2.660156-2.414063-.023437-4.816406-.980469-6.621094-2.867187-3.558593-3.710938-3.285156-9.664063.386719-13.261719l6.449219-6.320313c.007812-.007812.019531-.007812.023437 0l6.503906 6.632813c3.59375 3.667969 3.535157 9.558594-.136718 13.15625zm0 0" fill="#fff"/><path d="m331.839844 115.328125c-1.828125 1.792969-4.210938 2.679687-6.589844 2.660156-.007812 0-.015625-.007812-.015625-.019531l.226563-22.398438c0-.015624.019531-.023437.027343-.011718l6.484375 6.613281c3.597656 3.667969 3.539063 9.558594-.132812 13.15625zm0 0" fill="#d0f6ff"/><path d="m331.839844 156.265625c-1.832032 1.796875-4.226563 2.679687-6.605469 2.65625-2.414063-.023437-4.816406-.980469-6.621094-2.863281-3.558593-3.710938-3.285156-9.667969.386719-13.265625l6.449219-6.316407c.007812-.007812.019531-.007812.023437 0l6.503906 6.628907c3.59375 3.671875 3.535157 9.5625-.136718 13.160156zm0 0" fill="#fff"/><path d="m331.839844 156.265625c-1.828125 1.792969-4.210938 2.675781-6.589844 2.65625-.007812 0-.015625-.007813-.015625-.015625l.226563-22.402344c0-.015625.019531-.023437.027343-.011718l6.484375 6.613281c3.597656 3.671875 3.539063 9.5625-.132812 13.160156zm0 0" fill="#d0f6ff"/></svg>