<svg height="512pt" viewBox="0 0 512 512" width="512pt" xmlns="http://www.w3.org/2000/svg"><path d="m512 256c0 141.386719-114.613281 256-256 256s-256-114.613281-256-256 114.613281-256 256-256 256 114.613281 256 256zm0 0" fill="#65b2ff"/><path d="m512 256c0 26.050781-3.890625 51.191406-11.128906 74.871094-32.011719 104.847656-129.542969 181.128906-244.871094 181.128906-104.558594 0-194.488281-62.699219-234.230469-152.550781-14-31.628907-21.769531-66.628907-21.769531-103.449219 0-46.21875 12.25-89.570312 33.679688-127 44.121093 77.070312 127.160156 129 222.320312 129s178.210938-51.929688 222.320312-129c21.429688 37.429688 33.679688 80.78125 33.679688 127zm0 0" fill="#0f9be8"/><path d="m30.742188 377.703125c7.15625 13.21875 15.429687 25.738281 24.71875 37.425781 46.898437 59.019532 119.300781 96.871094 200.539062 96.871094s153.640625-37.851562 200.539062-96.871094c9.289063-11.6875 17.5625-24.207031 24.71875-37.425781zm0 0" fill="#0066e8"/><path d="m129.246094 131.542969c-.003906-.15625-.011719-.308594-.011719-.460938 0-28.257812 22.90625-51.164062 51.160156-51.164062 6.710938 0 13.117188 1.308593 18.992188 3.65625 11.34375-20.324219 33.050781-34.078125 57.980469-34.078125 32.375 0 59.320312 23.1875 65.179687 53.855468 1.742187-.25 3.527344-.386718 5.339844-.386718 17.601562 0 32.351562 12.183594 36.292969 28.574218h-234.933594zm0 0" fill="#fff"/><path d="m179.164062 131.542969c-.003906-.089844-.007812-.175781-.007812-.265625 0-16.25 13.171875-29.417969 29.417969-29.417969 3.863281 0 7.542969.75 10.921875 2.101563 6.523437-11.6875 19.007812-19.59375 33.34375-19.59375 18.613281 0 34.109375 13.332031 37.476562 30.964843 1.003906-.144531 2.027344-.222656 3.074219-.222656 10.121094 0 18.597656 7.007813 20.867187 16.433594zm0 0" fill="#d0f6ff"/><path d="m46.75 237.652344c-.003906-.101563-.007812-.207032-.007812-.308594 0-19.144531 15.515624-34.660156 34.65625-34.660156 4.546874 0 8.886718.886718 12.867187 2.476562 7.683594-13.769531 22.390625-23.085937 39.277344-23.085937 21.929687 0 40.183593 15.707031 44.152343 36.484375 1.183594-.171875 2.390626-.261719 3.621094-.261719 11.921875 0 21.914063 8.253906 24.582032 19.355469zm0 0" fill="#fff"/><path d="m80.566406 237.652344c0-.058594-.003906-.117188-.003906-.179688 0-11.003906 8.921875-19.925781 19.925781-19.925781 2.617188 0 5.113281.507813 7.398438 1.421875 4.417969-7.917969 12.875-13.273438 22.585937-13.273438 12.613282 0 23.105469 9.03125 25.390625 20.976563.679688-.097656 1.371094-.148437 2.078125-.148437 6.859375 0 12.601563 4.746093 14.136719 11.128906zm0 0" fill="#d0f6ff"/><path d="m465.25 237.652344c.003906-.101563.007812-.207032.007812-.308594 0-19.144531-15.515624-34.660156-34.65625-34.660156-4.546874 0-8.886718.886718-12.867187 2.476562-7.683594-13.769531-22.390625-23.085937-39.277344-23.085937-21.929687 0-40.183593 15.707031-44.152343 36.484375-1.183594-.171875-2.390626-.261719-3.621094-.261719-11.921875 0-21.914063 8.253906-24.582032 19.355469zm0 0" fill="#fff"/><path d="m431.433594 237.652344c0-.058594.003906-.117188.003906-.179688 0-11.003906-8.921875-19.925781-19.925781-19.925781-2.617188 0-5.113281.507813-7.398438 1.421875-4.417969-7.917969-12.875-13.273438-22.585937-13.273438-12.613282 0-23.105469 9.03125-25.390625 20.976563-.679688-.097656-1.371094-.148437-2.078125-.148437-6.859375 0-12.601563 4.746093-14.136719 11.128906zm0 0" fill="#d0f6ff"/><g fill="#fff"><path d="m406.671875 318.4375c0 5.519531-4.480469 10-10 10h-285.5c-5.523437 0-10-4.480469-10-10 0-5.53125 4.476563-10 10-10h285.5c5.519531 0 10 4.46875 10 10zm0 0"/><path d="m358.078125 399.089844c0 5.519531-4.476563 10-10 10h-187.078125c-5.519531 0-10-4.480469-10-10 0-5.519532 4.480469-10 10-10h187.078125c5.523437 0 10 4.480468 10 10zm0 0"/><path d="m210.828125 369.644531h-99.65625c-5.523437 0-10-4.480469-10-10 0-5.523437 4.476563-10 10-10h99.65625c5.523437 0 10 4.476563 10 10 0 5.519531-4.476563 10-10 10zm0 0"/><path d="m422 369.644531h-162.378906c-5.519532 0-10-4.480469-10-10 0-5.523437 4.480468-10 10-10h162.378906c5.523438 0 10 4.476563 10 10 0 5.519531-4.476562 10-10 10zm0 0"/><path d="m87 318.441406c0 5.519532-4.480469 10-10 10h-66.601562c-.976563-3.300781-1.886719-6.640625-2.71875-10-.839844-3.3125-1.601563-6.640625-2.300782-10h71.621094c5.519531 0 10 4.46875 10 10zm0 0"/><path d="m506.621094 308.441406c-.699219 3.359375-1.460938 6.6875-2.292969 10-.839844 3.359375-1.75 6.699219-2.726563 10h-71.601562c-5.519531 0-10-4.480468-10-10 0-5.53125 4.480469-10 10-10zm0 0"/><path d="m378.890625 480.621094c-6.601563 3.617187-13.378906 6.957031-20.3125 10-8.71875 3.820312-17.699219 7.160156-26.886719 10h-151.382812c-9.1875-2.839844-18.167969-6.179688-26.886719-10-6.933594-3.042969-13.710937-6.382813-20.3125-10zm0 0"/><path d="m494.328125 349.640625c-1.316406 3.371094-2.71875 6.699219-4.1875 10-1.492187 3.371094-3.050781 6.710937-4.691406 10h-30.449219c-5.519531 0-10-4.46875-10-10 0-5.519531 4.480469-10 10-10zm0 0"/><path d="m81.128906 359.640625c0 5.53125-4.480468 10-10 10h-44.578125c-1.640625-3.289063-3.199219-6.628906-4.691406-10-1.46875-3.300781-2.871094-6.628906-4.1875-10h53.457031c5.519532 0 10 4.480469 10 10zm0 0"/><path d="m474.71875 389.089844c-2.058594 3.390625-4.199219 6.71875-6.410156 10-2.296875 3.390625-4.667969 6.730468-7.109375 10h-72.910157c-5.519531 0-10-4.480469-10-10 0-5.519532 4.480469-10 10-10zm0 0"/><path d="m125.558594 399.089844c0 5.519531-4.46875 10-10 10h-64.757813c-2.441406-3.269532-4.8125-6.609375-7.109375-10-2.210937-3.28125-4.351562-6.609375-6.410156-10h78.277344c5.53125 0 10 4.480468 10 10zm0 0"/><path d="m220.828125 359.640625c0 5.53125-4.476563 10-10 10h-99.65625c-5.523437 0-10-4.46875-10-10 0-5.519531 4.476563-10 10-10h99.65625c5.523437 0 10 4.480469 10 10zm0 0"/></g><path d="m432 359.640625c0 5.53125-4.480469 10-10 10h-162.378906c-5.519532 0-10-4.46875-10-10 0-5.519531 4.480468-10 10-10h162.378906c5.519531 0 10 4.480469 10 10zm0 0" fill="#d0f6ff"/><path d="m494.328125 349.640625c-1.316406 3.371094-2.71875 6.699219-4.1875 10-1.492187 3.371094-3.050781 6.710937-4.691406 10h-30.449219c-5.519531 0-10-4.46875-10-10 0-5.519531 4.480469-10 10-10zm0 0" fill="#fff"/><path d="m81.128906 359.640625c0 5.53125-4.480468 10-10 10h-44.578125c-1.640625-3.289063-3.199219-6.628906-4.691406-10-1.46875-3.300781-2.871094-6.628906-4.1875-10h53.457031c5.519532 0 10 4.480469 10 10zm0 0" fill="#fff"/><path d="m220.828125 444.851562c0 5.519532-4.476563 10-10 10h-99.65625c-5.523437 0-10-4.480468-10-10 0-5.523437 4.476563-10 10-10h99.65625c5.523437 0 10 4.476563 10 10zm0 0" fill="#fff"/><path d="m431.648438 442.230469c-.929688.878906-1.867188 1.75-2.808594 2.621093-3.769532 3.449219-7.640625 6.777344-11.609375 10h-157.609375c-5.519532 0-10-4.480468-10-10 0-5.523437 4.480468-10 10-10h162.378906c4.609375 0 8.5 3.128907 9.648438 7.378907zm0 0" fill="#fff"/><path d="m406.671875 318.4375c0 5.519531-4.480469 10-10 10h-285.5c-5.523437 0-10-4.480469-10-10zm0 0" fill="#d0f6ff"/><path d="m348.082031 409.089844h-187.085937c-5.519532 0-10-4.480469-10-10 0-5.523438 4.480468-10 10-10h187.085937c5.523438 0 10 4.476562 10 10 0 5.519531-4.476562 10-10 10zm0 0" fill="#fff"/><path d="m210.828125 369.644531h-99.65625c-5.523437 0-10-4.480469-10-10 0-5.523437 4.476563-10 10-10h99.65625c5.523437 0 10 4.476563 10 10 0 5.519531-4.476563 10-10 10zm0 0" fill="#fff"/><path d="m422 369.644531h-162.378906c-5.519532 0-10-4.480469-10-10 0-5.523437 4.480468-10 10-10h162.378906c5.523438 0 10 4.476563 10 10 0 5.519531-4.476562 10-10 10zm0 0" fill="#fff"/><path d="m87 318.441406c0 5.519532-4.480469 10-10 10h-66.601562c-.976563-3.300781-1.886719-6.640625-2.71875-10zm0 0" fill="#d0f6ff"/><path d="m504.328125 318.441406c-.839844 3.359375-1.75 6.699219-2.726563 10h-71.601562c-5.519531 0-10-4.480468-10-10zm0 0" fill="#d0f6ff"/><path d="m358.578125 490.621094c-8.71875 3.820312-17.699219 7.160156-26.886719 10h-151.382812c-9.1875-2.839844-18.167969-6.179688-26.886719-10zm0 0" fill="#d0f6ff"/><path d="m494.328125 349.640625c-1.316406 3.371094-2.71875 6.699219-4.1875 10-1.492187 3.371094-3.050781 6.710937-4.691406 10h-30.449219c-5.519531 0-10-4.46875-10-10 0-5.519531 4.480469-10 10-10zm0 0" fill="#fff"/><path d="m81.128906 359.640625c0 5.53125-4.480468 10-10 10h-44.578125c-1.640625-3.289063-3.199219-6.628906-4.691406-10-1.46875-3.300781-2.871094-6.628906-4.1875-10h53.457031c5.519532 0 10 4.480469 10 10zm0 0" fill="#fff"/><path d="m468.308594 399.089844c-2.296875 3.390625-4.667969 6.730468-7.109375 10h-72.910157c-5.519531 0-10-4.480469-10-10zm0 0" fill="#d0f6ff"/><path d="m125.558594 399.089844c0 5.519531-4.46875 10-10 10h-64.757813c-2.441406-3.269532-4.8125-6.609375-7.109375-10zm0 0" fill="#d0f6ff"/><path d="m220.828125 359.640625c0 5.53125-4.476563 10-10 10h-99.65625c-5.523437 0-10-4.46875-10-10zm0 0" fill="#d0f6ff"/><path d="m432 359.640625c0 5.53125-4.480469 10-10 10h-162.378906c-5.519532 0-10-4.46875-10-10zm0 0" fill="#d0f6ff"/><path d="m494.328125 349.640625c-1.316406 3.371094-2.71875 6.699219-4.1875 10-1.492187 3.371094-3.050781 6.710937-4.691406 10h-30.449219c-5.519531 0-10-4.46875-10-10 0-5.519531 4.480469-10 10-10zm0 0" fill="#fff"/><path d="m81.128906 359.640625c0 5.53125-4.480468 10-10 10h-44.578125c-1.640625-3.289063-3.199219-6.628906-4.691406-10zm0 0" fill="#d0f6ff"/><path d="m490.140625 359.640625c-1.492187 3.371094-3.050781 6.710937-4.691406 10h-30.449219c-5.519531 0-10-4.46875-10-10zm0 0" fill="#d0f6ff"/><path d="m358.078125 399.089844c0 5.519531-4.476563 10-10 10h-187.078125c-5.519531 0-10-4.480469-10-10zm0 0" fill="#d0f6ff"/><path d="m101.171875 444.851562h119.65625c0 5.519532-4.476563 10-10 10h-99.65625c-5.523437 0-10-4.480468-10-10zm0 0" fill="#d0f6ff"/><path d="m428.839844 444.851562c-3.769532 3.449219-7.640625 6.777344-11.609375 10h-157.609375c-5.519532 0-10-4.480468-10-10zm0 0" fill="#d0f6ff"/></svg>