<svg height="512pt" viewBox="0 0 512 512" width="512pt" xmlns="http://www.w3.org/2000/svg"><path d="m512 256c0 141.378906-114.621094 256-256 256-85.808594 0-161.761719-42.230469-208.210938-107.03125-11.257812-15.707031-20.789062-32.75-28.300781-50.839844-12.558593-30.21875-19.488281-63.367187-19.488281-98.128906 0-13.621094 1.058594-26.988281 3.121094-40.03125 19.207031-122.367188 125.117187-215.96875 252.878906-215.96875 141.378906 0 256 114.621094 256 256zm0 0" fill="#9e69e2"/><path d="m512 256c0 26.050781-3.890625 51.191406-11.128906 74.871094-32.011719 104.847656-129.542969 181.128906-244.871094 181.128906-65.960938 0-126.101562-24.949219-171.488281-65.949219-26.5625-23.960937-48.070313-53.429687-62.742188-86.601562-14-31.628907-21.769531-66.628907-21.769531-103.449219 0-17.398438 1.730469-34.378906 5.039062-50.808594 5.480469-27.203125 15.28125-52.851562 28.640626-76.191406 44.121093 77.070312 127.160156 129 222.320312 129s178.210938-51.929688 222.320312-129c21.429688 37.429688 33.679688 80.78125 33.679688 127zm0 0" fill="#8e4fd2"/><path d="m30.742188 377.703125c7.15625 13.21875 15.429687 25.738281 24.71875 37.425781 46.898437 59.019532 119.300781 96.871094 200.539062 96.871094s153.640625-37.851562 200.539062-96.871094c9.289063-11.6875 17.5625-24.207031 24.71875-37.425781zm0 0" fill="#7038ba"/><path d="m235.90625 336.207031-17.402344 16.957031c-4.015625 3.910157-5.847656 9.554688-4.898437 15.078126l4.109375 23.945312c2.382812 13.914062-12.21875 24.523438-24.71875 17.957031l-21.503906-11.304687c-2.476563-1.308594-5.207032-1.960938-7.925782-1.960938-2.726562 0-5.445312.648438-7.929687 1.960938l-21.503907 11.304687c-12.496093 6.566407-27.101562-4.042969-24.71875-17.957031l4.109376-23.945312c.949218-5.527344-.882813-11.167969-4.898438-15.078126l-17.394531-16.957031c-10.113281-9.855469-4.535157-27.027343 9.4375-29.054687l24.042969-3.496094c5.550781-.804688 10.34375-4.289062 12.828124-9.316406l10.746094-21.789063c3.121094-6.332031 9.199219-9.492187 15.28125-9.492187 6.074219 0 12.144532 3.160156 15.273438 9.492187l10.753906 21.789063c2.476562 5.027344 7.269531 8.511718 12.820312 9.316406l24.042969 3.496094c13.976563 2.027344 19.554688 19.199218 9.449219 29.054687zm0 0" fill="#ffd112"/><path d="m235.90625 336.207031-17.402344 16.957031c-4.015625 3.910157-5.847656 9.554688-4.898437 15.078126l4.109375 23.945312c2.382812 13.914062-12.21875 24.523438-24.71875 17.957031l-21.503906-11.304687c-2.476563-1.308594-5.207032-1.960938-7.925782-1.960938v-133.820312c6.074219 0 12.148438 3.160156 15.273438 9.492187l10.753906 21.785157c2.480469 5.027343 7.273438 8.515624 12.824219 9.320312l24.042969 3.496094c13.972656 2.027344 19.550781 19.199218 9.445312 29.054687zm0 0" fill="#ff9f00"/><g fill="#fff"><path d="m252.179688 269.785156c-1.28125 0-2.558594-.484375-3.535157-1.464844-1.953125-1.949218-1.953125-5.117187 0-7.066406l119.199219-119.203125c8.636719-8.632812 22.683594-8.628906 31.316406 0 8.632813 8.632813 8.632813 22.679688 0 31.3125-4.183594 4.183594-9.746094 6.484375-15.65625 6.484375-5.914062 0-11.476562-2.300781-15.660156-6.484375-1.953125-1.953125-1.953125-5.117187 0-7.070312s5.121094-1.949219 7.070312 0c2.296876 2.292969 5.34375 3.558593 8.589844 3.558593 3.242188 0 6.289063-1.265624 8.585938-3.558593 4.730468-4.734375 4.730468-12.4375 0-17.171875-4.734375-4.734375-12.441406-4.734375-17.175782 0l-119.199218 119.199218c-.976563.980469-2.253906 1.464844-3.535156 1.464844zm0 0"/><path d="m270.339844 287.945312c-1.28125 0-2.558594-.484374-3.535156-1.464843-1.953126-1.949219-1.953126-5.117188 0-7.070313l88.074218-88.074218c5.292969-5.289063 13.902344-5.289063 19.191406 0 5.292969 5.292968 5.292969 13.902343 0 19.191406-1.949218 1.953125-5.117187 1.953125-7.070312 0s-1.953125-5.117188 0-7.070313c1.394531-1.390625 1.394531-3.65625 0-5.050781-1.390625-1.390625-3.65625-1.390625-5.050781 0l-88.074219 88.074219c-.976562.980469-2.253906 1.464843-3.535156 1.464843zm0 0"/><path d="m212.371094 229.980469c-1.28125 0-2.558594-.488281-3.535156-1.464844-1.953126-1.953125-1.953126-5.121094 0-7.070313l88.074218-88.078124c.675782-.675782 1.046875-1.570313 1.046875-2.523438s-.371093-1.851562-1.046875-2.523438c-1.347656-1.355468-3.699218-1.351562-5.050781-.003906-1.949219 1.953125-5.117187 1.953125-7.070313.003906-1.953124-1.953124-1.953124-5.121093 0-7.074218 2.5625-2.5625 5.972657-3.972656 9.597657-3.972656s7.035156 1.410156 9.597656 3.972656c2.5625 2.566406 3.972656 5.972656 3.972656 9.597656s-1.410156 7.035156-3.972656 9.597656l-88.078125 88.074219c-.976562.972656-2.253906 1.464844-3.535156 1.464844zm0 0"/><path d="m230.554688 248.160156c-1.28125 0-2.5625-.488281-3.539063-1.464844-1.953125-1.953124-1.953125-5.117187 0-7.070312l119.203125-119.199219c4.734375-4.734375 4.734375-12.441406 0-17.175781-4.734375-4.730469-12.4375-4.734375-17.171875.003906-4.734375 4.730469-4.734375 12.4375 0 17.171875 1.953125 1.949219 1.953125 5.117188 0 7.066407-1.953125 1.953124-5.117187 1.953124-7.070313 0-8.632812-8.632813-8.632812-22.679688 0-31.3125 8.632813-8.628907 22.679688-8.628907 31.3125 0 8.632813 8.632812 8.632813 22.683593 0 31.3125l-119.199218 119.203124c-.976563.976563-2.257813 1.464844-3.535156 1.464844zm0 0"/><path d="m346.871094 394.730469h-1.523438c-6.753906 0-12.230468-5.472657-12.230468-12.226563v-1.523437h-8.714844v1.523437c0 6.753906-5.472656 12.226563-12.226563 12.226563h-1.523437v8.714843h1.523437c6.753907 0 12.226563 5.476563 12.226563 12.226563v1.527344h8.714844v-1.527344c0-6.75 5.476562-12.226563 12.230468-12.226563h1.523438zm0 0"/><path d="m417.214844 274.230469h-1.527344c-6.75 0-12.226562-5.472657-12.226562-12.226563v-1.523437h-8.714844v1.523437c0 6.753906-5.472656 12.226563-12.226563 12.226563h-1.527343v8.714843h1.527343c6.753907 0 12.226563 5.476563 12.226563 12.230469v1.523438h8.714844v-1.523438c0-6.753906 5.476562-12.230469 12.226562-12.230469h1.527344zm0 0"/><path d="m465.695312 355.285156h-1.523437c-6.753906 0-12.230469-5.476562-12.230469-12.226562v-1.527344h-8.714844v1.527344c0 6.75-5.472656 12.226562-12.226562 12.226562h-1.523438v8.714844h1.523438c6.753906 0 12.226562 5.472656 12.226562 12.226562v1.527344h8.714844v-1.527344c0-6.753906 5.476563-12.226562 12.230469-12.226562h1.523437zm0 0"/><path d="m87.695312 221.261719h-1.523437c-6.753906 0-12.230469-5.472657-12.230469-12.226563v-1.523437h-8.714844v1.523437c0 6.753906-5.472656 12.226563-12.226562 12.226563h-1.523438v8.71875h1.523438c6.753906 0 12.226562 5.472656 12.226562 12.226562v1.523438h8.714844v-1.523438c0-6.753906 5.476563-12.226562 12.230469-12.226562h1.523437zm0 0"/><path d="m183.261719 183.261719h-1.527344c-6.75 0-12.226563-5.472657-12.226563-12.226563v-1.523437h-8.714843v1.523437c0 6.753906-5.472657 12.226563-12.226563 12.226563h-1.527344v8.71875h1.527344c6.753906 0 12.226563 5.472656 12.226563 12.226562v1.523438h8.714843v-1.523438c0-6.753906 5.476563-12.226562 12.226563-12.226562h1.527344zm0 0"/><path d="m142.261719 82.261719h-1.527344c-6.75 0-12.226563-5.472657-12.226563-12.226563v-1.523437h-8.714843v1.523437c0 6.753906-5.472657 12.226563-12.226563 12.226563h-1.527344v8.71875h1.527344c6.753906 0 12.226563 5.472656 12.226563 12.226562v1.523438h8.714843v-1.523438c0-6.753906 5.476563-12.226562 12.226563-12.226562h1.527344zm0 0"/><path d="m277.925781 73.261719h-1.527343c-6.75 0-12.226563-5.472657-12.226563-12.226563v-1.523437h-8.714844v1.523437c0 6.753906-5.472656 12.226563-12.226562 12.226563h-1.527344v8.71875h1.527344c6.753906 0 12.226562 5.472656 12.226562 12.226562v1.523438h8.714844v-1.523438c0-6.753906 5.476563-12.226562 12.226563-12.226562h1.527343zm0 0"/></g></svg>