<svg height="512pt" viewBox="0 0 512 512" width="512pt" xmlns="http://www.w3.org/2000/svg"><path d="m512 256c0 141.386719-114.613281 256-256 256s-256-114.613281-256-256 114.613281-256 256-256 256 114.613281 256 256zm0 0" fill="#68fcdf"/><path d="m512 256c0 26.050781-3.890625 51.191406-11.128906 74.871094-32.011719 104.847656-129.542969 181.128906-244.871094 181.128906-104.558594 0-194.488281-62.699219-234.230469-152.550781-14-31.628907-21.769531-66.628907-21.769531-103.449219 0-46.21875 12.25-89.570312 33.679688-127 44.121093 77.070312 127.160156 129 222.320312 129s178.210938-51.929688 222.320312-129c21.429688 37.429688 33.679688 80.78125 33.679688 127zm0 0" fill="#10e2c4"/><path d="m30.742188 377.703125c7.15625 13.21875 15.429687 25.738281 24.71875 37.425781 46.898437 59.019532 119.300781 96.871094 200.539062 96.871094s153.640625-37.851562 200.539062-96.871094c9.289063-11.6875 17.5625-24.207031 24.71875-37.425781zm0 0" fill="#1aba9f"/><path d="m421.289062 159.160156v292.328125c-5.277343 4.472657-10.730468 8.722657-16.359374 12.75-12.839844 9.203125-26.558594 17.242188-41.007813 23.960938-32.800781 15.269531-69.363281 23.800781-107.921875 23.800781s-75.121094-8.53125-107.921875-23.800781c-14.449219-6.71875-28.167969-14.757813-41.007813-23.960938-5.628906-4.027343-11.082031-8.277343-16.359374-12.75v-292.316406c0-20.441406 16.578124-37.023437 37.027343-37.023437h256.542969c20.4375 0 37.007812 16.570312 37.007812 37.011718zm0 0" fill="#474f6f"/><path d="m404.929688 181.808594v282.429687c-12.839844 9.203125-26.558594 17.242188-41.007813 23.960938-32.800781 15.269531-69.363281 23.800781-107.921875 23.800781s-75.121094-8.53125-107.921875-23.800781c-14.449219-6.71875-28.167969-14.757813-41.007813-23.960938v-282.417969c0-18.421874 14.929688-33.359374 33.359376-33.359374h231.148437c18.421875 0 33.351563 14.929687 33.351563 33.347656zm0 0" fill="#fff"/><path d="m404.929688 181.808594v282.429687c-12.839844 9.203125-26.558594 17.242188-41.007813 23.960938-32.800781 15.269531-69.363281 23.800781-107.921875 23.800781v-363.539062h115.578125c18.421875 0 33.351563 14.929687 33.351563 33.347656zm0 0" fill="#d0f6ff"/><path d="m363.921875 186.480469v301.71875c-32.800781 15.269531-69.363281 23.800781-107.921875 23.800781s-75.121094-8.53125-107.921875-23.800781v-301.71875zm0 0" fill="#474f6f"/><path d="m363.921875 186.480469v301.71875c-32.800781 15.269531-69.363281 23.800781-107.921875 23.800781v-325.519531zm0 0" fill="#20273a"/><path d="m180.558594 403.929688s-.003906-.003907-.003906-.003907c-.152344-17.570312 14.042968-31.863281 31.578124-31.863281 4.144532 0 8.097657.804688 11.722657 2.257812 7.003906-12.546874 20.40625-21.035156 35.792969-21.035156 19.988281 0 36.621093 14.3125 40.234374 33.242188 1.078126-.152344 2.179688-.238282 3.300782-.238282 10.863281 0 19.96875 7.523438 22.402344 17.640626zm0 0" fill="#fff"/><path d="m211.375 403.929688c-.003906 0-.003906 0-.003906-.003907-.085938-10.101562 8.078125-18.320312 18.160156-18.320312 2.382812 0 4.65625.464843 6.742188 1.296875 4.027343-7.214844 11.730468-12.09375 20.582031-12.09375 11.492187 0 21.054687 8.230468 23.132812 19.117187.621094-.089843 1.253907-.140625 1.898438-.140625 6.246093 0 11.480469 4.328125 12.882812 10.144532zm0 0" fill="#d0f6ff"/><path d="m300.332031 293.597656-7.160156 4.046875c-3.820313 2.160157-5.125 7.035157-2.894531 10.8125l4.183594 7.085938-8.21875-.082031c-4.390626-.042969-7.964844 3.53125-7.917969 7.925781l.089843 8.214843-7.089843-4.175781c-3.777344-2.226562-8.652344-.917969-10.808594 2.90625l-4.042969 7.164063-4.085937-7.191406c-2.164063-3.808594-7.027344-5.105469-10.800781-2.878907l-7.109376 4.191407.082032-8.226563c.042968-4.394531-3.53125-7.964844-7.921875-7.917969l-8.226563.082032 4.183594-7.097657c2.230469-3.777343.925781-8.648437-2.894531-10.808593l-7.167969-4.050782 7.167969-4.054687c3.820312-2.160157 5.125-7.03125 2.894531-10.808594l-4.183594-7.09375 8.226563.078125c4.390625.042969 7.960937-3.527344 7.917969-7.917969l-.082032-8.226562 7.226563 4.261719c3.730469 2.199218 8.53125.960937 10.734375-2.765626l4.359375-7.371093 3.945312 7.136719c2.128907 3.855468 7.019531 5.199218 10.820313 2.976562l7.042968-4.117188-.140624 8.144532c-.078126 4.414062 3.5 8.019531 7.910156 7.976562l8.144531-.070312-4.175781 7.003906c-2.253906 3.785156-.949219 8.683594 2.890625 10.847656zm0 0" fill="#c55835"/><path d="m287.855469 293.597656c0 17.34375-14.050781 31.40625-31.390625 31.421875h-.03125c-17.355469 0-31.425782-14.070312-31.425782-31.421875 0-17.359375 14.070313-31.425781 31.425782-31.425781h.03125.226562c17.234375.136719 31.164063 14.152344 31.164063 31.425781zm0 0" fill="#ffe955"/><path d="m287.855469 293.597656c0 17.34375-14.050781 31.40625-31.390625 31.421875h-.011719c-10.339844-6.597656-17.195313-18.171875-17.195313-31.347656 0-13.273437 6.960938-24.925781 17.433594-31.5 17.234375.136719 31.164063 14.152344 31.164063 31.425781zm0 0" fill="#ffd112"/><path d="m287.855469 293.597656c0 17.34375-14.050781 31.40625-31.390625 31.421875v-62.847656c17.339844.011719 31.390625 14.078125 31.390625 31.425781zm0 0" fill="#ff9f00"/><path d="m314.25 167.007812c0 2.023438-.820312 3.875-2.148438 5.203126-1.328124 1.324218-3.160156 2.144531-5.1875 2.144531h-101.484374c-4.066407 0-7.351563-3.28125-7.351563-7.347657 0-2.027343.824219-3.859374 2.148437-5.1875 1.328126-1.328124 3.160157-2.148437 5.203126-2.148437h101.484374c4.054688 0 7.335938 3.28125 7.335938 7.335937zm0 0" fill="#65b2ff"/><path d="m314.25 167.007812c0 2.023438-.820312 3.875-2.148438 5.203126-1.328124 1.324218-3.160156 2.144531-5.1875 2.144531h-51.035156v-14.683594h51.035156c4.054688 0 7.335938 3.28125 7.335938 7.335937zm0 0" fill="#0f9be8"/></svg>