<svg height="512pt" viewBox="0 0 512 512" width="512pt" xmlns="http://www.w3.org/2000/svg"><path d="m512 256c0 141.386719-114.613281 256-256 256s-256-114.613281-256-256 114.613281-256 256-256 256 114.613281 256 256zm0 0" fill="#ffe955"/><path d="m512 256c0 26.050781-3.890625 51.191406-11.128906 74.871094-32.011719 104.847656-129.542969 181.128906-244.871094 181.128906-104.558594 0-194.488281-62.699219-234.230469-152.550781-14-31.628907-21.769531-66.628907-21.769531-103.449219 0-46.21875 12.25-89.570312 33.679688-127 44.121093 77.070312 127.160156 129 222.320312 129s178.210938-51.929688 222.320312-129c21.429688 37.429688 33.679688 80.78125 33.679688 127zm0 0" fill="#ffd112"/><path d="m30.742188 377.703125c7.15625 13.21875 15.429687 25.738281 24.71875 37.425781 46.898437 59.019532 119.300781 96.871094 200.539062 96.871094s153.640625-37.851562 200.539062-96.871094c9.289063-11.6875 17.5625-24.207031 24.71875-37.425781zm0 0" fill="#ff9f00"/><path d="m394.230469 339.921875-80.492188 38.367187v-128.378906c0-6.871094-5.566406-12.441406-12.429687-12.441406h-81.136719c-9.152344 0-15.160156 9.542969-11.230469 17.792969l38.367188 80.488281h-128.378906c-6.871094 0-12.441407 5.558594-12.441407 12.429688v81.140624c0 9.140626 9.53125 15.160157 17.78125 11.230469l80.492188-38.371093v104.691406c16.546875 3.359375 33.6875 5.128906 51.238281 5.128906 1.078125 0 2.171875-.011719 3.25-.019531 14.351562-.179688 28.410156-1.539063 42.101562-3.992188l-30.152343-63.269531h128.378906c6.871094 0 12.441406-5.558594 12.441406-12.429688v-81.140624c0-9.136719-9.539062-15.160157-17.789062-11.226563zm0 0" fill="#65b2ff"/><path d="m204.765625 402.179688v28.109374l54.488281-27.597656v-28.105468zm0 0" fill="#0f9be8"/><path d="m412.019531 351.148438v81.140624c0 6.871094-5.570312 12.429688-12.441406 12.429688h-128.378906l30.152343 63.269531c-13.691406 2.453125-27.75 3.8125-42.101562 3.992188v-274.511719h42.058594c6.863281 0 12.429687 5.570312 12.429687 12.441406v128.378906l80.492188-38.367187c8.25-3.933594 17.789062 2.089844 17.789062 11.226563zm0 0" fill="#0f9be8"/><path d="m259.253906 377.777344v28.109375l54.488282-27.597657v-28.105468zm0 0" fill="#0066e8"/><path d="m247.308594 335.746094h-28.109375l27.597656 54.488281h28.105469zm0 0" fill="#0f9be8"/><path d="m271.710938 390.234375h-28.109376l27.59375 54.488281h28.109376zm0 0" fill="#0066e8"/><path d="m299.460938 390.234375c0 22.207031-18.003907 40.207031-40.207032 40.207031-22.207031 0-40.207031-18-40.207031-40.207031s18-40.207031 40.207031-40.207031c22.203125 0 40.207032 18 40.207032 40.207031zm0 0" fill="#fff"/><path d="m299.460938 390.234375c0 22.207031-18 40.207031-40.207032 40.207031v-80.414062c22.207032 0 40.207032 18.003906 40.207032 40.207031zm0 0" fill="#d0f6ff"/><path d="m274.902344 390.234375c0 8.644531-7.007813 15.652344-15.648438 15.652344-8.644531 0-15.652344-7.007813-15.652344-15.652344s7.007813-15.648437 15.652344-15.648437c8.640625 0 15.648438 7.003906 15.648438 15.648437zm0 0" fill="#474f6f"/><path d="m274.902344 390.234375c0 8.644531-7.003906 15.652344-15.648438 15.652344v-31.300781c8.644532 0 15.648438 7.007812 15.648438 15.648437zm0 0" fill="#20273a"/><path d="m331.3125 129-11.917969 6.738281c-6.359375 3.59375-8.527343 11.703125-4.816406 17.992188l6.960937 11.792969-13.675781-.132813c-7.308593-.074219-13.253906 5.875-13.175781 13.1875l.148438 13.675781-11.800782-6.949218c-6.292968-3.707032-14.402344-1.527344-17.988281 4.832031l-6.726563 11.925781-6.804687-11.96875c-3.601563-6.335938-11.695313-8.496094-17.972656-4.792969l-11.832031 6.976563.132812-13.691406c.074219-7.308594-5.871094-13.25-13.179688-13.179688l-13.6875.136719 6.960938-11.808594c3.707031-6.285156 1.539062-14.390625-4.816406-17.988281l-11.929688-6.746094 11.929688-6.746094c6.355468-3.59375 8.523437-11.699218 4.816406-17.988281l-6.960938-11.808594 13.691407.136719c7.308593.070312 13.25-5.871094 13.179687-13.183594l-.136718-13.6875 12.027343 7.089844c6.203125 3.65625 14.195313 1.597656 17.859375-4.597656l7.257813-12.273438 6.5625 11.878906c3.546875 6.417969 11.679687 8.65625 18.011719 4.953126l11.714843-6.847657-.234375 13.550781c-.125 7.339844 5.824219 13.34375 13.167969 13.277344l13.554687-.121094-6.949218 11.65625c-3.753906 6.300782-1.582032 14.453126 4.808594 18.054688zm0 0" fill="#c55835"/><path d="m310.550781 129c0 28.863281-23.390625 52.273438-52.25 52.296875h-.046875c-28.886718 0-52.300781-23.414063-52.300781-52.296875s23.414063-52.300781 52.300781-52.300781h.046875c.128907 0 .257813 0 .382813.003906 28.683594.230469 51.867187 23.554687 51.867187 52.296875zm0 0" fill="#ffe955"/><path d="m310.550781 129c0 28.863281-23.390625 52.273438-52.25 52.296875h-.015625c-17.207031-10.980469-28.621094-30.246094-28.621094-52.167969 0-22.097656 11.585938-41.488281 29.019532-52.425781 28.683594.230469 51.867187 23.554687 51.867187 52.296875zm0 0" fill="#ffd112"/><path d="m310.550781 129c0 28.863281-23.390625 52.273438-52.25 52.296875v-104.597656c28.859375.023437 52.25 23.433593 52.25 52.300781zm0 0" fill="#ff9f00"/><path d="m28.1875 218.039062c0-.113281-.007812-.226562-.007812-.339843 0-20.75 16.824218-37.574219 37.574218-37.574219 4.929688 0 9.632813.960938 13.945313 2.6875 8.332031-14.929688 24.277343-25.027344 42.585937-25.027344 23.773438 0 43.566406 17.027344 47.867188 39.550782 1.28125-.183594 2.589844-.285157 3.921875-.285157 12.929687 0 23.757812 8.949219 26.652343 20.988281zm0 0" fill="#fff"/><path d="m64.847656 218.039062c0-.066406-.003906-.128906-.003906-.195312 0-11.933594 9.671875-21.605469 21.605469-21.605469 2.835937 0 5.539062.550781 8.019531 1.542969 4.792969-8.582031 13.960938-14.390625 24.488281-14.390625 13.671875 0 25.050781 9.792969 27.523438 22.742187.738281-.105468 1.492187-.160156 2.257812-.160156 7.433594 0 13.660157 5.144532 15.324219 12.066406zm0 0" fill="#d0f6ff"/><path d="m493.867188 218.039062c0-.113281.007812-.226562.007812-.339843 0-20.75-16.824219-37.574219-37.574219-37.574219-4.929687 0-9.632812.960938-13.945312 2.6875-8.332031-14.929688-24.277344-25.027344-42.585938-25.027344-23.777343 0-43.566406 17.027344-47.867187 39.550782-1.28125-.183594-2.589844-.285157-3.921875-.285157-12.929688 0-23.757813 8.949219-26.65625 20.988281zm0 0" fill="#fff"/><path d="m457.207031 218.039062c0-.066406.003907-.128906.003907-.195312 0-11.933594-9.671876-21.605469-21.605469-21.605469-2.835938 0-5.539063.550781-8.019531 1.542969-4.792969-8.582031-13.960938-14.390625-24.488282-14.390625-13.671875 0-25.050781 9.792969-27.523437 22.742187-.738281-.105468-1.492188-.160156-2.257813-.160156-7.433594 0-13.660156 5.144532-15.328125 12.066406zm0 0" fill="#d0f6ff"/></svg>