<svg height="512pt" viewBox="0 0 512 512" width="512pt" xmlns="http://www.w3.org/2000/svg"><path d="m512 256c0 141.386719-114.613281 256-256 256s-256-114.613281-256-256 114.613281-256 256-256 256 114.613281 256 256zm0 0" fill="#b5e237"/><path d="m512 256c0 26.050781-3.890625 51.191406-11.128906 74.871094-32.011719 104.847656-129.542969 181.128906-244.871094 181.128906-104.558594 0-194.488281-62.699219-234.230469-152.550781-14-31.628907-21.769531-66.628907-21.769531-103.449219 0-46.21875 12.25-89.570312 33.679688-127 44.121093 77.070312 127.160156 129 222.320312 129s178.210938-51.929688 222.320312-129c21.429688 37.429688 33.679688 80.78125 33.679688 127zm0 0" fill="#95d600"/><path d="m30.742188 377.703125c7.15625 13.21875 15.429687 25.738281 24.71875 37.425781 46.898437 59.019532 119.300781 96.871094 200.539062 96.871094s153.640625-37.851562 200.539062-96.871094c9.289063-11.6875 17.5625-24.207031 24.71875-37.425781zm0 0" fill="#85af12"/><path d="m49.785156 148.34375c0-.121094-.007812-.234375-.007812-.355469 0-21.550781 17.46875-39.019531 39.019531-39.019531 5.121094 0 10.007813.996094 14.484375 2.789062 8.652344-15.503906 25.210938-25.992187 44.226562-25.992187 24.691407 0 45.242188 17.683594 49.710938 41.074219 1.332031-.191406 2.691406-.292969 4.074219-.292969 13.425781 0 24.675781 9.292969 27.679687 21.796875zm0 0" fill="#fff"/><path d="m87.859375 148.34375c0-.070312-.003906-.136719-.003906-.203125 0-12.394531 10.042969-22.441406 22.4375-22.441406 2.945312 0 5.753906.574219 8.328125 1.605469 4.976562-8.914063 14.496094-14.945313 25.429687-14.945313 14.199219 0 26.019531 10.167969 28.585938 23.617187.765625-.109374 1.546875-.167968 2.34375-.167968 7.71875 0 14.1875 5.34375 15.917969 12.53125h-103.039063zm0 0" fill="#d0f6ff"/><path d="m460.242188 143.550781c0-.101562.007812-.199219.007812-.300781 0-18.25-14.796875-33.042969-33.046875-33.042969-4.335937 0-8.472656.84375-12.265625 2.363281-7.328125-13.128906-21.347656-22.011718-37.449219-22.011718-20.910156 0-38.3125 14.976562-42.097656 34.785156-1.125-.164062-2.277344-.25-3.449219-.25-11.371094 0-20.894531 7.867188-23.441406 18.457031zm0 0" fill="#fff"/><path d="m428 143.550781c0-.058593.003906-.117187.003906-.171875 0-10.496094-8.507812-19-19-19-2.492187 0-4.871094.484375-7.054687 1.355469-4.214844-7.546875-12.273438-12.65625-21.535157-12.65625-12.023437 0-22.03125 8.613281-24.203124 20-.648438-.089844-1.3125-.140625-1.984376-.140625-6.539062 0-12.015624 4.523438-13.480468 10.613281zm0 0" fill="#d0f6ff"/><path d="m434.4375 328.4375-29.105469 16.453125c-15.527343 8.777344-20.828125 28.589844-11.761719 43.949219l17 28.796875-33.398437-.328125c-17.859375-.175782-32.375 14.355468-32.183594 32.214844l.359375 33.398437-28.816406-16.972656c-15.367188-9.054688-35.171875-3.730469-43.9375 11.804687l-16.425781 29.117188-16.617188-29.230469c-8.796875-15.472656-28.566406-20.742187-43.898437-11.703125l-28.902344 17.039062.332031-33.433593c.175781-17.851563-14.339843-32.367188-32.1875-32.191407l-33.433593.332032 17-28.835938c9.054687-15.359375 3.753906-35.15625-11.765626-43.933594l-29.132812-16.476562 29.132812-16.480469c15.519532-8.777343 20.820313-28.574219 11.765626-43.929687l-17.003907-28.839844 33.4375.328125c17.847657.175781 32.363281-14.339844 32.183594-32.1875l-.332031-33.4375 29.375 17.320313c15.148437 8.929687 34.671875 3.902343 43.625-11.234376l17.722656-29.972656 16.023438 29.011719c8.660156 15.675781 28.527343 21.140625 43.988281 12.101563l28.617187-16.730469-.574218 33.101562c-.308594 17.929688 14.226562 32.585938 32.15625 32.421875l33.105468-.296875-16.96875 28.476563c-9.167968 15.382812-3.863281 35.300781 11.742188 44.085937zm0 0" fill="#c55835"/><path d="m383.726562 328.433594c0 70.5-57.121093 127.667968-127.605468 127.726562h-.121094c-70.542969 0-127.726562-57.1875-127.726562-127.726562 0-70.542969 57.183593-127.734375 127.726562-127.734375h.121094c.3125 0 .621094 0 .933594.011719 70.050781.558593 126.671874 57.527343 126.671874 127.722656zm0 0" fill="#ffe955"/><path d="m383.726562 328.433594c0 70.5-57.121093 127.667968-127.605468 127.726562h-.035156c-42.03125-26.820312-69.902344-73.867187-69.902344-127.414062 0-53.964844 28.296875-101.320313 70.871094-128.039063 70.050781.5625 126.671874 57.53125 126.671874 127.726563zm0 0" fill="#ffd112"/><path d="m383.726562 328.433594c0 70.5-57.121093 127.667968-127.605468 127.726562v-255.460937c70.484375.0625 127.605468 57.230469 127.605468 127.734375zm0 0" fill="#ff9f00"/><path d="m478.269531 383.089844c-11.140625 19.441406-24.75 37.28125-40.410156 53.089844-13.519531 13.640624-28.558594 25.769531-44.847656 36.101562-39.613281 25.148438-86.613281 39.71875-137.011719 39.71875s-97.398438-14.570312-137.019531-39.71875c-16.28125-10.339844-31.320313-22.460938-44.839844-36.101562-15.660156-15.808594-29.269531-33.648438-40.410156-53.089844 14.578125 5.289062 24.460937 12.550781 51.597656 12.550781 42.671875 0 42.671875-17.941406 85.332031-17.941406 42.667969 0 42.667969 17.941406 85.339844 17.941406 42.660156 0 42.660156-17.941406 85.328125-17.941406 42.671875 0 42.671875 17.941406 85.332031 17.941406 27.148438 0 37.019532-7.261719 51.609375-12.550781zm0 0" fill="#65b2ff"/><path d="m478.269531 383.089844c-11.140625 19.441406-24.75 37.28125-40.410156 53.089844-13.519531 13.640624-28.558594 25.769531-44.847656 36.101562-39.613281 25.148438-86.613281 39.71875-137.011719 39.71875v-116.359375c42.660156 0 42.660156-17.941406 85.328125-17.941406 42.671875 0 42.671875 17.941406 85.332031 17.941406 27.148438 0 37.019532-7.261719 51.609375-12.550781zm0 0" fill="#0f9be8"/><path d="m437.859375 436.179688c-13.519531 13.640624-28.558594 25.769531-44.847656 36.101562-39.613281 25.148438-86.613281 39.71875-137.011719 39.71875s-97.398438-14.570312-137.019531-39.71875c-16.28125-10.339844-31.320313-22.460938-44.839844-36.101562 3.390625.289062 7.089844.460937 11.1875.460937 42.671875 0 42.671875-17.941406 85.332031-17.941406 42.667969 0 42.667969 17.941406 85.339844 17.941406 42.660156 0 42.660156-17.941406 85.328125-17.941406 42.671875 0 42.671875 17.941406 85.332031 17.941406 4.101563 0 7.808594-.171875 11.199219-.460937zm0 0" fill="#fff"/><path d="m437.859375 436.179688c-13.519531 13.640624-28.558594 25.769531-44.847656 36.101562-39.613281 25.148438-86.613281 39.71875-137.011719 39.71875v-75.359375c42.660156 0 42.660156-17.941406 85.328125-17.941406 42.671875 0 42.671875 17.941406 85.332031 17.941406 4.101563 0 7.808594-.171875 11.199219-.460937zm0 0" fill="#d0f6ff"/><path d="m393.011719 472.28125c-39.613281 25.148438-86.613281 39.71875-137.011719 39.71875s-97.398438-14.570312-137.019531-39.71875c14.628906-5.292969 24.488281-12.570312 51.679687-12.570312 42.667969 0 42.667969 17.929687 85.339844 17.929687 42.660156 0 42.660156-17.929687 85.328125-17.929687 27.203125 0 37.0625 7.277343 51.683594 12.570312zm0 0" fill="#0f9be8"/><path d="m393.011719 472.28125c-39.613281 25.148438-86.613281 39.71875-137.011719 39.71875v-34.359375c42.660156 0 42.660156-17.929687 85.328125-17.929687 27.203125 0 37.0625 7.277343 51.683594 12.570312zm0 0" fill="#0066e8"/><path d="m305.109375 66.851562c0-.058593.003906-.113281.003906-.167968 0-10.28125-8.332031-18.617188-18.613281-18.617188-2.441406 0-4.769531.476563-6.90625 1.332032-4.128906-7.394532-12.027344-12.398438-21.097656-12.398438-11.777344 0-21.582032 8.433594-23.714844 19.59375-.632812-.089844-1.28125-.140625-1.941406-.140625-6.40625 0-11.769532 4.433594-13.203125 10.394531h85.472656zm0 0" fill="#fff"/><path d="m286.949219 66.851562c0-.035156.003906-.066406.003906-.097656 0-5.910156-4.792969-10.703125-10.707031-10.703125-1.402344 0-2.742188.273438-3.972656.765625-2.371094-4.253906-6.914063-7.128906-12.128907-7.128906-6.773437 0-12.410156 4.847656-13.636719 11.265625-.363281-.050781-.738281-.082031-1.117187-.082031-3.683594 0-6.769531 2.550781-7.59375 5.980468zm0 0" fill="#d0f6ff"/></svg>