<svg height="512pt" viewBox="0 0 512 512" width="512pt" xmlns="http://www.w3.org/2000/svg"><path d="m512 256c0 141.386719-114.613281 256-256 256s-256-114.613281-256-256 114.613281-256 256-256 256 114.613281 256 256zm0 0" fill="#65b2ff"/><path d="m512 256c0 26.050781-3.890625 51.191406-11.128906 74.871094-32.011719 104.847656-129.542969 181.128906-244.871094 181.128906-104.558594 0-194.488281-62.699219-234.230469-152.550781-14-31.628907-21.769531-66.628907-21.769531-103.449219 0-46.21875 12.25-89.570312 33.679688-127 44.121093 77.070312 127.160156 129 222.320312 129s178.210938-51.929688 222.320312-129c21.429688 37.429688 33.679688 80.78125 33.679688 127zm0 0" fill="#0f9be8"/><path d="m30.742188 377.703125c7.15625 13.21875 15.429687 25.738281 24.71875 37.425781 46.898437 59.019532 119.300781 96.871094 200.539062 96.871094s153.640625-37.851562 200.539062-96.871094c9.289063-11.6875 17.5625-24.207031 24.71875-37.425781zm0 0" fill="#0066e8"/><path d="m238.148438 371.320312c0 5.519532-4.476563 10-10 10h-195.417969c-3.660157-6.5-7.039063-13.171874-10.121094-20h205.539063c5.523437 0 10 4.480469 10 10zm0 0" fill="#68fcdf"/><path d="m372.390625 454c-25.550781 0-46.339844-20.789062-46.339844-46.339844 0-5.523437 4.476563-10 10-10 5.523438 0 10 4.476563 10 10 0 14.523438 11.816407 26.339844 26.339844 26.339844s26.339844-11.816406 26.339844-26.339844c0-14.523437-11.816407-26.339844-26.339844-26.339844h-91.925781c-5.523438 0-10-4.476562-10-10 0-5.523437 4.476562-10 10-10h91.925781c25.550781 0 46.339844 20.789063 46.339844 46.339844 0 25.550782-20.789063 46.339844-46.339844 46.339844zm0 0" fill="#68fcdf"/><path d="m153.621094 425.761719c0 5.527343-4.472656 10-10 10h-69.890625c-6.261719-6.351563-12.199219-13.03125-17.769531-20h87.660156c5.527344 0 10 4.476562 10 10zm0 0" fill="#fff"/><path d="m279.074219 472.101562c-5.523438 0-10-4.476562-10-10 0-5.523437 4.476562-10 10-10 4.503906 0 8.167969-3.664062 8.167969-8.167968s-3.664063-8.171875-8.167969-8.171875h-97.578125c-5.523438 0-10-4.476563-10-10 0-5.523438 4.476562-10 10-10h97.578125c15.53125 0 28.167969 12.636719 28.167969 28.171875 0 15.53125-12.636719 28.167968-28.167969 28.167968zm0 0" fill="#fff"/><path d="m.378906 241.96875h133.070313c5.519531 0 10 4.480469 10 10s-4.480469 10-10 10h-133.3789065zm0 0" fill="#68fcdf"/><path d="m279.074219 261.96875h-103.652344c-5.523437 0-10-4.476562-10-10s4.476563-10 10-10h103.652344c4.503906 0 8.167969-3.664062 8.167969-8.167969 0-4.503906-3.664063-8.171875-8.167969-8.171875-5.523438 0-10-4.476562-10-10 0-5.523437 4.476562-10 10-10 15.53125 0 28.167969 12.636719 28.167969 28.171875 0 15.53125-12.636719 28.167969-28.167969 28.167969zm0 0" fill="#68fcdf"/><g fill="#fff"><path d="m88.101562 306.480469c0 5.519531-4.480468 10-10 10h-70.910156c-1.589844-6.570313-2.929687-13.242188-4-20h74.910156c5.519532 0 10 4.480469 10 10zm0 0"/><path d="m164.128906 316.480469h-46.257812c-5.519532 0-10-4.476563-10-10 0-5.523438 4.480468-10 10-10h46.257812c5.519532 0 10 4.476562 10 10 0 5.523437-4.480468 10-10 10zm0 0"/><path d="m372.390625 316.480469h-165.445313c-5.523437 0-10-4.476563-10-10 0-5.523438 4.476563-10 10-10h165.445313c14.523437 0 26.339844-11.816407 26.339844-26.339844 0-14.527344-11.816407-26.339844-26.339844-26.339844s-26.339844 11.8125-26.339844 26.339844c0 5.519531-4.476562 10-10 10-5.523437 0-10-4.480469-10-10 0-25.554687 20.789063-46.339844 46.339844-46.339844s46.339844 20.785157 46.339844 46.339844c0 25.550781-20.789063 46.339844-46.339844 46.339844zm0 0"/><path d="m213.144531 162.652344c.003907-.113282.007813-.222656.007813-.335938 0-20.574218-16.675782-37.25-37.246094-37.25-4.886719 0-9.550781.953125-13.828125 2.664063-8.257813-14.800781-24.0625-24.8125-42.214844-24.8125-23.570312 0-43.1875 16.882812-47.453125 39.210937-1.269531-.183594-2.570312-.28125-3.890625-.28125-12.816406 0-23.550781 8.871094-26.421875 20.804688zm0 0"/></g><path d="m176.800781 162.652344c0-.066406.007813-.128906.007813-.191406 0-11.832032-9.589844-21.421876-21.421875-21.421876-2.808594 0-5.492188.546876-7.949219 1.53125-4.75-8.507812-13.839844-14.265624-24.277344-14.265624-13.550781 0-24.832031 9.707031-27.285156 22.546874-.730469-.105468-1.476562-.164062-2.238281-.164062-7.367188 0-13.542969 5.101562-15.191407 11.964844zm0 0" fill="#d0f6ff"/><path d="m350.574219 79.449219c0-.0625.003906-.125.003906-.191407 0-11.773437-9.546875-21.320312-21.320313-21.320312-2.796874 0-5.464843.546875-7.914062 1.527344-4.726562-8.472656-13.773438-14.203125-24.160156-14.203125-13.492188 0-24.722656 9.664062-27.164063 22.441406-.726562-.101563-1.46875-.160156-2.226562-.160156-7.332031 0-13.480469 5.078125-15.121094 11.910156h97.902344zm0 0" fill="#fff"/><path d="m329.773438 79.449219c0-.035157 0-.070313 0-.109375 0-6.769532-5.488282-12.261719-12.257813-12.261719-1.609375 0-3.144531.316406-4.550781.878906-2.71875-4.871093-7.921875-8.167969-13.894532-8.167969-7.757812 0-14.214843 5.558594-15.617187 12.90625-.417969-.058593-.847656-.09375-1.28125-.09375-4.21875 0-7.75 2.921876-8.695313 6.847657zm0 0" fill="#d0f6ff"/><path d="m460.234375 170.113281c0-.085937.003906-.167969.003906-.253906 0-15.480469-12.550781-28.03125-28.03125-28.03125-3.679687 0-7.1875.714844-10.40625 2.003906-6.214843-11.136719-18.109375-18.671875-31.769531-18.671875-17.742188 0-32.503906 12.703125-35.714844 29.507813-.953125-.136719-1.929687-.214844-2.925781-.214844-9.644531 0-17.726563 6.679687-19.886719 15.660156zm0 0" fill="#fff"/><path d="m432.882812 170.113281c0-.046875.003907-.097656.003907-.144531 0-8.902344-7.21875-16.121094-16.121094-16.121094-2.117187 0-4.132813.414063-5.984375 1.152344-3.574219-6.402344-10.414062-10.734375-18.269531-10.734375-10.199219 0-18.6875 7.304687-20.535157 16.964844-.546874-.078125-1.109374-.121094-1.683593-.121094-5.546875 0-10.191407 3.839844-11.433594 9.003906zm0 0" fill="#d0f6ff"/></svg>