<svg height="512pt" viewBox="0 0 512 512" width="512pt" xmlns="http://www.w3.org/2000/svg"><path d="m512 256c0 44.050781-11.128906 85.5-30.730469 121.699219-15.847656 29.28125-37.238281 55.121093-62.757812 76.109375-44.210938 36.363281-100.8125 58.191406-162.511719 58.191406-97.328125 0-181.96875-54.320312-225.269531-134.300781-19.601563-36.1875-30.730469-77.648438-30.730469-121.699219 0-141.378906 114.621094-256 256-256s256 114.621094 256 256zm0 0" fill="#ffe955"/><path d="m512 256c0 26.050781-3.890625 51.191406-11.128906 74.871094-32.011719 104.847656-129.542969 181.128906-244.871094 181.128906-104.558594 0-194.488281-62.699219-234.230469-152.550781-14-31.628907-21.769531-66.628907-21.769531-103.449219 0-46.21875 12.25-89.570312 33.679688-127 44.121093 77.070312 127.160156 129 222.320312 129s178.210938-51.929688 222.320312-129c21.429688 37.429688 33.679688 80.78125 33.679688 127zm0 0" fill="#ffd112"/><path d="m158 258.871094v37.230468l37.96875-29.070312 5.453125 5.449219-43.421875 43.417969v81.773437h-50l12-138.800781-45-61.75-.5-63.121094h12.5l9.25 53.800781 42.75 47.199219 42.949219-53.820312v-1.230469l-41.769531-41.769531 5.5-5.5 40.46875 31.671874 4.351562-66.351562h17.5l-.5 93zm0 0" fill="#c55835"/><path d="m158 258.871094v37.230468l37.96875-29.070312 5.453125 5.449219-43.421875 43.417969v81.773437h-19l2.25-142.671875 54.75-71.671875 1.761719-85.328125h10.238281l-.5 93zm0 0" fill="#a63914"/><path d="m139 235-10.671875 12.828125-44-55.15625-3.6875-58.671875h6.359375l9.25 53.800781zm0 0" fill="#a63914"/><path d="m186.148438 164.351562v9.570313l-43.410157-38.300781 2.941407-2.941406zm0 0" fill="#a63914"/><g fill="#fff"><path d="m317.222656 311.792969c-6.292968-6.292969-7.53125-15.722657-3.71875-23.246094-1.851562.933594-3.582031 2.171875-5.128906 3.714844-7.835938 7.835937-7.835938 20.542969 0 28.375 6.292969 6.292969 7.53125 15.722656 3.71875 23.246093 1.851562-.933593 3.585938-2.171874 5.128906-3.714843 7.835938-7.835938 7.835938-20.539063 0-28.375zm0 0"/><path d="m377.179688 311.792969c-6.292969-6.292969-7.53125-15.722657-3.71875-23.246094-1.851563.933594-3.582032 2.171875-5.128907 3.714844-7.835937 7.835937-7.835937 20.542969 0 28.375 6.292969 6.292969 7.53125 15.722656 3.71875 23.246093 1.851563-.933593 3.585938-2.171874 5.128907-3.714843 7.835937-7.835938 7.835937-20.539063 0-28.375zm0 0"/><path d="m437.136719 311.792969c-6.292969-6.292969-7.53125-15.722657-3.71875-23.246094-1.851563.933594-3.585938 2.171875-5.128907 3.714844-7.835937 7.835937-7.835937 20.542969 0 28.375 6.292969 6.292969 7.53125 15.722656 3.71875 23.246093 1.851563-.933593 3.585938-2.171874 5.128907-3.714843 7.835937-7.835938 7.835937-20.539063 0-28.375zm0 0"/><path d="m345.757812 165.886719c-.003906-.085938-.007812-.167969-.007812-.253907 0-15.585937 12.636719-28.222656 28.222656-28.222656 3.703125 0 7.238282.71875 10.476563 2.015625 6.257812-11.210937 18.234375-18.796875 31.984375-18.796875 17.859375 0 32.722656 12.789063 35.953125 29.707032.964843-.136719 1.945312-.214844 2.949219-.214844 9.710937 0 17.84375 6.722656 20.019531 15.765625zm0 0"/></g><path d="m373.292969 165.886719c0-.050781-.003907-.097657-.003907-.148438 0-8.960937 7.265626-16.226562 16.226563-16.226562 2.128906 0 4.164063.414062 6.023437 1.160156 3.601563-6.445313 10.484376-10.808594 18.394532-10.808594 10.269531 0 18.816406 7.355469 20.671875 17.082031.554687-.078124 1.121093-.125 1.695312-.125 5.585938 0 10.261719 3.867188 11.511719 9.066407zm0 0" fill="#d0f6ff"/><path d="m229.054688 240.480469c0-.054688-.003907-.109375-.003907-.167969 0-10.15625 8.234375-18.386719 18.390625-18.386719 2.414063 0 4.714844.46875 6.824219 1.3125 4.078125-7.304687 11.878906-12.246093 20.839844-12.246093 11.636719 0 21.320312 8.332031 23.425781 19.355468.628906-.089844 1.269531-.136718 1.921875-.136718 6.324219 0 11.625 4.378906 13.042969 10.269531zm0 0" fill="#fff"/><path d="m246.996094 240.480469c0-.03125 0-.0625 0-.09375 0-5.839844 4.734375-10.574219 10.574218-10.574219 1.386719 0 2.710938.269531 3.925782.753906 2.34375-4.199218 6.828125-7.042968 11.984375-7.042968 6.691406 0 12.257812 4.792968 13.46875 11.128906.359375-.050782.730469-.078125 1.105469-.078125 3.636718 0 6.683593 2.519531 7.5 5.90625zm0 0" fill="#d0f6ff"/><path d="m481.269531 377.699219c-15.847656 29.28125-37.238281 55.121093-62.757812 76.109375-44.210938 36.363281-100.8125 58.191406-162.511719 58.191406-97.328125 0-181.96875-54.320312-225.269531-134.300781h200.769531v42.332031h24.5v33.777344l-.269531 2.152344.269531-.601563.691406-1.550781 23.808594-53.238282h-24.5v-22.871093zm0 0" fill="#ff9f00"/><path d="m481.269531 377.699219c-15.847656 29.28125-37.238281 55.121093-62.757812 76.109375-44.210938 36.363281-100.8125 58.191406-162.511719 58.191406v-56.640625l.691406-1.550781 23.808594-53.238282h-24.5v-22.871093zm0 0" fill="#ed771b"/><path d="m418.511719 453.808594c-44.210938 36.363281-100.8125 58.191406-162.511719 58.191406v-56.238281l.871094-1.953125zm0 0" fill="#a63914"/><path d="m256.691406 453.808594-.691406 1.550781v56.640625c-61.699219 0-118.300781-21.828125-162.5-58.191406zm0 0" fill="#ed771b"/><path d="m350.113281 72.761719-10.523437 5.949219c-5.617188 3.175781-7.535156 10.339843-4.253906 15.894531l6.144531 10.414062-12.078125-.117187c-6.457032-.0625-11.707032 5.191406-11.636719 11.652344l.128906 12.078124-10.417969-6.140624c-5.558593-3.273438-12.722656-1.347657-15.890624 4.269531l-5.941407 10.53125-6.011719-10.570313c-3.179687-5.597656-10.328124-7.503906-15.875-4.234375l-10.449218 6.160157.117187-12.089844c.066407-6.453125-5.183593-11.703125-11.640625-11.640625l-12.089844.121093 6.148438-10.429687c3.273438-5.554687 1.355469-12.714844-4.253906-15.886719l-10.535156-5.960937 10.535156-5.960938c5.609375-3.171875 7.527344-10.332031 4.253906-15.886719l-6.152344-10.429687 12.09375.121094c6.453125.0625 11.703125-5.1875 11.640625-11.640625l-.121093-12.09375 10.625 6.261718c5.476562 3.230469 12.539062 1.414063 15.773437-4.0625l6.410156-10.835937 5.792969 10.488281c3.132812 5.671875 10.320312 7.648438 15.910156 4.378906l10.347656-6.050781-.203124 11.96875c-.113282 6.484375 5.140624 11.785157 11.628906 11.726563l11.96875-.109375-6.132813 10.296875c-3.316406 5.566406-1.398437 12.765625 4.246094 15.945312zm0 0" fill="#ff9f00"/><path d="m331.773438 72.761719c0 25.496093-20.65625 46.167969-46.144532 46.191406h-.042968c-25.515626 0-46.191407-20.683594-46.191407-46.191406 0-25.511719 20.675781-46.195313 46.191407-46.195313h.042968c.113282 0 .222656 0 .335938.003906 25.332031.203126 45.808594 20.808594 45.808594 46.191407zm0 0" fill="#ffe955"/><path d="m331.773438 72.761719c0 25.496093-20.65625 46.167969-46.144532 46.191406h-.015625c-15.199219-9.699219-25.277343-26.714844-25.277343-46.078125 0-19.515625 10.234374-36.640625 25.628906-46.304688 25.332031.203126 45.808594 20.808594 45.808594 46.191407zm0 0" fill="#ffd112"/><path d="m331.773438 72.761719c0 25.496093-20.65625 46.167969-46.144532 46.191406v-92.386719c25.488282.023438 46.144532 20.699219 46.144532 46.195313zm0 0" fill="#ff9f00"/></svg>