<svg height="512pt" viewBox="0 0 512 512" width="512pt" xmlns="http://www.w3.org/2000/svg"><path d="m512 256c0 141.386719-114.613281 256-256 256s-256-114.613281-256-256 114.613281-256 256-256 256 114.613281 256 256zm0 0" fill="#68fcdf"/><path d="m512 256c0 26.050781-3.890625 51.191406-11.128906 74.871094-32.011719 104.847656-129.542969 181.128906-244.871094 181.128906-104.558594 0-194.488281-62.699219-234.230469-152.550781-14-31.628907-21.769531-66.628907-21.769531-103.449219 0-46.21875 12.25-89.570312 33.679688-127 44.121093 77.070312 127.160156 129 222.320312 129s178.210938-51.929688 222.320312-129c21.429688 37.429688 33.679688 80.78125 33.679688 127zm0 0" fill="#10e2c4"/><path d="m30.742188 377.703125c7.15625 13.21875 15.429687 25.738281 24.71875 37.425781 46.898437 59.019532 119.300781 96.871094 200.539062 96.871094s153.640625-37.851562 200.539062-96.871094c9.289063-11.6875 17.5625-24.207031 24.71875-37.425781zm0 0" fill="#1aba9f"/><path d="m325.003906 416.800781 18.058594-9.890625-8.257812-15.070312-15.875 8.699218v-34.683593l18.800781 10.308593 8.257812-15.070312-19.289062-10.570312 39.433593-22.609376-8.542968-14.898437-41.867188 23.996094-.597656-26.734375-17.175781.382812.492187 22.296875-28.070312-16.210937 18.957031-10.9375-8.589844-14.878906-21.140625 12.199218v-47.128906h-17.183594v47.128906l-21.132812-12.199218-8.589844 14.882812 18.953125 10.9375-31.039062 17.921875.535156-24.011719-17.175781-.382812-.550782 24.777344-38.964843-22.492188-8.589844 14.878906 38.300781 22.109375-21.058594 11.546875 8.257813 15.066406 21.730469-11.910156v37.890625l-18.804688-10.300781-8.257812 15.066406 19.28125 10.566406-39.425782 22.601563 8.546876 14.902344 41.871093-23.996094.589844 26.738281 17.179687-.375-.496093-22.304687 28.070312 16.203125-18.953125 10.945312 8.589844 14.878906 21.136719-12.199218v47.128906h17.179687v-47.128906l21.140625 12.199218 8.589844-14.882812-18.957031-10.945312 25.105468-14.488282-.457031 20.589844 17.179688.378906.625-28.117187 44.742187 25.832031 8.589844-14.878906zm-124.734375-13.625v-38.550781l33.511719 19.347656zm42.148438 34.449219-33.730469-19.472656 33.730469-19.332032zm0-68.503906-33.558594-19.378906 33.558594-19.367188zm17.179687-38.746094 33.730469 19.46875-33.730469 19.328125zm0 107.25v-38.746094l33.558594 19.378906zm42.148438-34.25-33.511719-19.347656 33.511719-19.203125zm0 0" fill="#fff"/><path d="m325.003906 416.800781 18.058594-9.890625-8.257812-15.070312-15.875 8.699218v-34.683593l18.800781 10.308593 8.257812-15.070312-19.289062-10.570312 39.433593-22.609376-8.542968-14.898437-41.867188 23.996094-.597656-26.734375-17.175781.382812.492187 22.296875-28.070312-16.210937 18.957031-10.9375-8.589844-14.878906-21.140625 12.199218v-47.128906h-8.589844v256h8.589844v-47.128906l21.140625 12.199218 8.589844-14.882812-18.957031-10.945312 25.105468-14.488282-.460937 20.589844 17.183594.378906.625-28.117187 44.742187 25.832031 8.589844-14.878906zm-65.40625-86.425781 33.730469 19.46875-33.730469 19.328125zm0 107.25v-38.746094l33.558594 19.378906zm42.148438-34.25-33.511719-19.347656 33.511719-19.203125zm0 0" fill="#d0f6ff"/><path d="m186.066406 195.144531 13.746094-7.53125-6.285156-11.464843-12.085938 6.621093v-26.398437l14.3125 7.847656 6.285156-11.46875-14.679687-8.046875 30.007813-17.207031-6.503907-11.339844-31.863281 18.261719-.453125-20.347657-13.070313.292969.375 16.96875-21.363281-12.335937 14.425781-8.324219-6.535156-11.324219-16.089844 9.285156v-35.871093h-13.078124v35.871093l-16.082032-9.285156-6.539062 11.324219 14.425781 8.324219-23.621094 13.640625.402344-18.273438-13.070313-.292969-.417968 18.859376-29.65625-17.117188-6.535156 11.324219 29.148437 16.824219-16.03125 8.785156 6.289063 11.46875 16.535156-9.066406v28.839843l-14.308594-7.84375-6.285156 11.46875 14.675781 8.042969-30.007813 17.199219 6.503907 11.339843 31.867187-18.261718.449219 20.351562 13.078125-.285156-.378906-16.972656 21.363281 12.328125-14.425781 8.332031 6.539062 11.324219 16.082032-9.285157v35.871094h13.078124v-35.871094l16.089844 9.285157 6.535156-11.324219-14.425781-8.332031 19.105469-11.027344-.347656 15.671875 13.074218.289062.476563-21.398437 34.050781 19.660156 6.539063-11.324219zm-94.929687-10.371093v-29.339844l25.503906 14.722656zm32.078125 26.21875-25.671875-14.820313 25.671875-14.710937zm0-52.136719-25.539063-14.746094 25.539063-14.742187zm13.074218-29.488281 25.671876 14.816406-25.671876 14.710937zm0 81.625v-29.488282l25.539063 14.746094zm32.078126-26.066407-25.503907-14.722656 25.503907-14.617187zm0 0" fill="#fff"/><path d="m186.066406 195.144531 13.746094-7.53125-6.285156-11.464843-12.085938 6.621093v-26.398437l14.3125 7.847656 6.285156-11.46875-14.679687-8.046875 30.007813-17.207031-6.503907-11.339844-31.863281 18.261719-.453125-20.347657-13.070313.292969.375 16.96875-21.363281-12.335937 14.425781-8.324219-6.535156-11.324219-16.089844 9.285156v-35.871093h-6.539062v194.835937h6.539062v-35.871094l16.089844 9.285157 6.535156-11.324219-14.425781-8.332031 19.105469-11.027344-.347656 15.671875 13.074218.289062.476563-21.398437 34.050781 19.660156 6.539063-11.324219zm-49.777344-65.777343 25.671876 14.816406-25.671876 14.710937zm0 81.625v-29.488282l25.539063 14.746094zm32.078126-26.066407-25.503907-14.722656 25.503907-14.617187zm0 0" fill="#d0f6ff"/><path d="m438.566406 195.144531 13.742188-7.53125-6.285156-11.464843-12.082032 6.621093v-26.398437l14.308594 7.847656 6.285156-11.46875-14.679687-8.046875 30.011719-17.207031-6.503907-11.339844-31.863281 18.261719-.453125-20.347657-13.070313.292969.375 16.96875-21.363281-12.335937 14.425781-8.324219-6.535156-11.324219-16.089844 9.285156v-35.871093h-13.078124v35.871093l-16.085938-9.285156-6.535156 11.324219 14.421875 8.324219-23.621094 13.640625.40625-18.273438-13.074219-.292969-.417968 18.859376-29.652344-17.117188-6.539063 11.324219 29.148438 16.824219-16.027344 8.785156 6.285156 11.46875 16.539063-9.066406v28.839843l-14.3125-7.84375-6.285156 11.46875 14.675781 8.042969-30.003907 17.199219 6.5 11.339843 31.871094-18.261718.445313 20.351562 13.078125-.285156-.378906-16.972656 21.363281 12.328125-14.421875 8.332031 6.535156 11.324219 16.085938-9.285157v35.871094h13.074218v-35.871094l16.089844 9.285157 6.539062-11.324219-14.429687-8.332031 19.105469-11.027344-.347656 15.671875 13.078124.289062.476563-21.398437 34.050781 19.660156 6.539063-11.324219zm-94.933594-10.371093v-29.339844l25.503907 14.722656zm32.078126 26.21875-25.671876-14.820313 25.671876-14.710937zm0-52.136719-25.539063-14.746094 25.539063-14.742187zm13.074218-29.488281 25.671875 14.816406-25.671875 14.710937zm0 81.625v-29.488282l25.539063 14.746094zm32.078125-26.066407-25.503906-14.722656 25.503906-14.617187zm0 0" fill="#fff"/><path d="m438.566406 195.144531 13.742188-7.53125-6.285156-11.464843-12.082032 6.621093v-26.398437l14.308594 7.847656 6.285156-11.46875-14.679687-8.046875 30.011719-17.207031-6.503907-11.339844-31.863281 18.261719-.453125-20.347657-13.070313.292969.375 16.96875-21.363281-12.335937 14.425781-8.324219-6.535156-11.324219-16.089844 9.285156v-35.871093h-6.539062v194.835937h6.539062v-35.871094l16.089844 9.285157 6.535156-11.324219-14.425781-8.332031 19.105469-11.027344-.351562 15.671875 13.078124.289062.476563-21.398437 34.050781 19.660156 6.539063-11.324219zm-49.78125-65.777343 25.671875 14.816406-25.671875 14.710937zm0 81.625v-29.488282l25.539063 14.746094zm32.078125-26.066407-25.503906-14.722656 25.503906-14.617187zm0 0" fill="#d0f6ff"/><g fill="#fff"><path d="m78.335938 295.664062h-1.527344c-6.75 0-12.226563-5.472656-12.226563-12.226562v-1.523438h-8.714843v1.523438c0 6.753906-5.472657 12.226562-12.226563 12.226562h-1.527344v8.71875h1.527344c6.753906 0 12.226563 5.472657 12.226563 12.226563v1.523437h8.714843v-1.523437c0-6.753906 5.476563-12.226563 12.226563-12.226563h1.527344zm0 0"/><path d="m469.886719 295.664062h-1.527344c-6.75 0-12.226563-5.472656-12.226563-12.226562v-1.523438h-8.714843v1.523438c0 6.753906-5.472657 12.226562-12.226563 12.226562h-1.527344v8.71875h1.527344c6.753906 0 12.226563 5.472657 12.226563 12.226563v1.523437h8.714843v-1.523437c0-6.753906 5.476563-12.226563 12.226563-12.226563h1.527344zm0 0"/><path d="m274.109375 50.296875h-1.523437c-6.753907 0-12.226563-5.476563-12.226563-12.230469v-1.523437h-8.71875v1.523437c0 6.753906-5.472656 12.230469-12.226563 12.230469h-1.523437v8.714844h1.523437c6.753907 0 12.226563 5.472656 12.226563 12.226562v1.523438h8.71875v-1.523438c0-6.753906 5.472656-12.226562 12.226563-12.226562h1.523437zm0 0"/><path d="m115.652344 373.347656h-1.523438c-6.753906 0-12.226562-5.476562-12.226562-12.230468v-1.523438h-8.71875v1.523438c0 6.753906-5.472656 12.230468-12.226563 12.230468h-1.523437v8.714844h1.523437c6.753907 0 12.226563 5.472656 12.226563 12.226562v1.523438h8.71875v-1.523438c0-6.753906 5.472656-12.226562 12.226562-12.226562h1.523438zm0 0"/><path d="m419.730469 373.347656h-1.523438c-6.753906 0-12.226562-5.476562-12.226562-12.230468v-1.523438h-8.714844v1.523438c0 6.753906-5.476563 12.230468-12.230469 12.230468h-1.523437v8.714844h1.523437c6.753906 0 12.230469 5.472656 12.230469 12.226562v1.523438h8.714844v-1.523438c0-6.753906 5.472656-12.226562 12.226562-12.226562h1.523438zm0 0"/></g></svg>