<?xml version="1.0" encoding="iso-8859-1"?>
<!-- Generator: Adobe Illustrator 19.0.0, SVG Export Plug-In . SVG Version: 6.00 Build 0)  -->
<svg xmlns="http://www.w3.org/2000/svg" xmlns:xlink="http://www.w3.org/1999/xlink" version="1.1" id="Capa_1" x="0px" y="0px" viewBox="0 0 511.999 511.999" style="enable-background:new 0 0 511.999 511.999;" xml:space="preserve">
<circle style="fill:#5C5E70;" cx="255.999" cy="256" r="255.999"/>
<path style="fill:#FF5662;" d="M507.279,169.691l-6.813,10.104l-60.374,89.621c-5.329,7.91-14.043,12.184-22.925,12.184  c-5.308,0-10.668-1.526-15.402-4.723l-99.725-67.187c-12.643-8.526-15.987-25.684-7.471-38.327  c8.526-12.643,25.684-15.987,38.327-7.461l49.81,33.552c-22.444-81.878-97.468-142.242-186.368-142.242  c-106.558,0-193.243,86.695-193.243,193.253s86.685,193.243,193.243,193.243c56.278,0,109.641-24.471,146.432-67.135  c9.958-11.557,27.387-12.831,38.933-2.884c11.546,9.958,12.842,27.387,2.884,38.943c-47.282,54.836-115.889,86.298-188.248,86.298  c-11.139,0-22.12-0.742-32.872-2.163C67.817,457.664,0.003,364.752,0.003,256c0-131.208,98.711-239.354,225.917-254.244  c99.579,11.87,181.216,82.892,208.802,176.807l26.77-39.727c3.918-5.82,9.686-9.676,15.987-11.295  c7.387-1.912,15.517-0.763,22.34,3.824C512.462,139.891,515.805,157.048,507.279,169.691z"/>
<path style="fill:#FFD662;" d="M463.991,0L268.086,229.741h63.717l27.02-8.818l-214.453,213.68  c-17.732-4.953-34.44-12.382-49.727-21.88l84.114-147.268H82.992L205.83,55.442l30.542-52.213L238.263,0L463.991,0L463.991,0z"/>
<path style="fill:#FF5662;" d="M507.279,169.691l-6.813,10.104l-75.253,112.682L302.041,209.69  c-12.643-8.526-15.987-25.684-7.471-38.327c8.526-12.643,25.684-15.987,38.327-7.461l49.81,33.552  c-2.685-9.801-6.134-19.278-10.261-28.39l45.077-33.562c7.011,13.678,12.8,28.076,17.199,43.06l26.77-39.727  c3.918-5.82,9.686-9.676,15.987-11.295c7.387-1.912,15.517-0.763,22.34,3.824C512.462,139.891,515.805,157.048,507.279,169.691z"/>
<polygon style="fill:#FFD662;" points="349.97,229.741 316.304,263.293 268.082,229.741 "/>
<g>
</g>
<g>
</g>
<g>
</g>
<g>
</g>
<g>
</g>
<g>
</g>
<g>
</g>
<g>
</g>
<g>
</g>
<g>
</g>
<g>
</g>
<g>
</g>
<g>
</g>
<g>
</g>
<g>
</g>
</svg>
