<?xml version="1.0" encoding="iso-8859-1"?>
<!-- Generator: Adobe Illustrator 19.0.0, SVG Export Plug-In . SVG Version: 6.00 Build 0)  -->
<svg xmlns="http://www.w3.org/2000/svg" xmlns:xlink="http://www.w3.org/1999/xlink" version="1.1" id="Capa_1" x="0px" y="0px" viewBox="0 0 512 512" style="enable-background:new 0 0 512 512;" xml:space="preserve">
<path style="fill:#FFD662;" d="M511.619,256.381c0,23.35-3.13,45.97-9.004,67.463c-12.864,47.18-38.917,88.924-73.952,121.028  c-42.433,38.896-98.043,63.644-159.371,66.784C264.889,511.885,260.455,512,256,512c-11.758,0-23.329-0.793-34.66-2.327  c-44.791-6.072-85.878-23.746-120.162-49.882c-12.812-9.766-24.665-20.7-35.411-32.667C37.586,395.751,17.053,357.366,7.11,314.902  c-4.403-18.791-6.73-38.385-6.73-58.521c0-44.593,11.425-86.524,31.499-123.021c22.056-40.106,54.577-73.65,93.88-96.968  c25.124-14.92,53.023-25.645,82.737-31.227c15.389-2.89,31.269-4.403,47.503-4.403c32.26,0,63.122,5.978,91.543,16.881  c70.238,26.95,125.566,84.01,150.168,155.375C506.726,199.143,511.619,227.198,511.619,256.381z"/>
<g>
	<path style="fill:#FCE39D;" d="M502.615,323.843c-12.864,47.18-38.917,88.924-73.952,121.028h-82.351   c-8.347,0-15.921-3.391-21.389-8.858c-5.478-5.478-8.868-13.042-8.868-21.399c0-16.714,13.553-30.257,30.257-30.257h18.78   c16.714,0,30.257-13.543,30.257-30.257s13.553-30.257,30.257-30.257H502.615z"/>
	<path style="fill:#FCE39D;" d="M142.578,284.645c0,16.714-13.543,30.257-30.257,30.257H7.11c-4.403-18.791-6.73-38.385-6.73-58.521   c0-44.593,11.425-86.524,31.499-123.021h39.282c8.357,0,15.921,3.391,21.399,8.868c5.478,5.467,8.858,13.042,8.858,21.389   c0,16.714-13.543,30.257-30.257,30.257h-18.78c-16.704,0-30.257,13.553-30.257,30.257c0,16.714,13.553,30.257,30.257,30.257h59.94   c8.357,0,15.921,3.391,21.399,8.868C139.187,268.724,142.578,276.298,142.578,284.645z"/>
	<path style="fill:#FCE39D;" d="M497.711,173.018H336.348c-16.704,0-30.257-13.543-30.257-30.257c0-8.357,3.391-15.921,8.868-21.399   c5.478-5.467,13.031-8.858,21.389-8.858h59.951c16.704,0,30.257-13.543,30.257-30.257S413.002,51.99,396.298,51.99h-18.78   c-16.714,0-30.257-13.543-30.257-30.257c0-1.388,0.094-2.754,0.282-4.09C417.781,44.593,473.109,101.653,497.711,173.018z"/>
</g>
<path style="fill:#74D9EF;" d="M300.979,431.35c0,31.05-12.03,59.283-31.686,80.306C264.889,511.885,260.455,512,256,512  c-75.549,0-143.439-32.771-190.233-84.876c1.409-39.72,22.515-74.443,53.847-94.673V63.727c0-9.787,2.201-19.051,6.145-27.336  c3.151-6.615,7.397-12.604,12.52-17.726C149.809,7.136,165.73,0,183.331,0c8.941,0,17.445,1.847,25.165,5.165  c22.682,9.755,38.562,32.302,38.562,58.563v268.724C279.496,353.401,300.979,389.866,300.979,431.35z"/>
<path style="fill:#3FCDE0;" d="M150.249,218.391V63.722c0-18.244,14.843-33.087,33.087-33.087s33.087,14.843,33.087,33.087v154.668"/>
<g>
	<path style="fill:#FF5662;" d="M270.346,431.35c0,23.246-9.056,45.093-25.489,61.526c-6.97,6.97-14.909,12.604-23.517,16.798   c-44.791-6.072-85.878-23.746-120.162-49.882c-2.994-8.503-4.695-17.601-4.841-27.023c-0.47-30.267,14.44-58.146,39.897-74.578   l14.012-9.056V122.541c0-18.238,14.847-33.084,33.084-33.084c18.248,0,33.095,14.847,33.095,33.084v226.593l14.012,9.056   C255.426,374.32,270.346,401.666,270.346,431.35z"/>
	<path style="fill:#FF5662;" d="M399.725,133.356H309.66c-11.167,0-20.219-9.052-20.219-20.219l0,0   c0-11.167,9.052-20.219,20.219-20.219h90.065c11.167,0,20.219,9.052,20.219,20.219l0,0   C419.943,124.304,410.891,133.356,399.725,133.356z"/>
	<path style="fill:#FF5662;" d="M399.725,219.745H309.66c-11.167,0-20.219-9.052-20.219-20.219l0,0   c0-11.167,9.052-20.219,20.219-20.219h90.065c11.167,0,20.219,9.052,20.219,20.219l0,0   C419.943,210.693,410.891,219.745,399.725,219.745z"/>
	<path style="fill:#FF5662;" d="M399.725,306.134H309.66c-11.167,0-20.219-9.052-20.219-20.219l0,0   c0-11.167,9.052-20.219,20.219-20.219h90.065c11.167,0,20.219,9.052,20.219,20.219l0,0   C419.943,297.081,410.891,306.134,399.725,306.134z"/>
</g>
<g>
</g>
<g>
</g>
<g>
</g>
<g>
</g>
<g>
</g>
<g>
</g>
<g>
</g>
<g>
</g>
<g>
</g>
<g>
</g>
<g>
</g>
<g>
</g>
<g>
</g>
<g>
</g>
<g>
</g>
</svg>
