<?xml version="1.0" encoding="iso-8859-1"?>
<!-- Generator: Adobe Illustrator 19.0.0, SVG Export Plug-In . SVG Version: 6.00 Build 0)  -->
<svg xmlns="http://www.w3.org/2000/svg" xmlns:xlink="http://www.w3.org/1999/xlink" version="1.1" id="Capa_1" x="0px" y="0px" viewBox="0 0 512 512" style="enable-background:new 0 0 512 512;" xml:space="preserve">
<circle style="fill:#CAF5FC;" cx="255.998" cy="256" r="255.998"/>
<g>
	<path style="fill:#5C5E70;" d="M510.631,229.388c-22.632-22.34-53.707-36.143-87.938-36.143c-9.028,0-17.857,0.961-26.352,2.8   c-6.248,1.327-12.309,3.135-18.171,5.371c-47.166,17.993-80.77,63.717-80.77,117.122c0,69.088,56.215,125.293,125.293,125.293   c2.518,0,5.015-0.073,7.492-0.23c9.655-8.955,18.61-18.662,26.791-29.006c-10.721,3.835-22.256,5.925-34.283,5.925   c-56.236,0-101.981-45.745-101.981-101.981c0-42.841,26.572-79.621,64.104-94.678c5.799-2.33,11.88-4.159,18.15-5.381   c6.384-1.264,12.988-1.923,19.728-1.923c38.17,0,71.512,21.086,88.993,52.213c0.209-4.232,0.313-8.484,0.313-12.769   C512,247.015,511.54,238.133,510.631,229.388z"/>
	<path style="fill:#5C5E70;" d="M89.3,193.245c-9.028,0-17.857,0.961-26.352,2.8c-6.248,1.327-12.309,3.135-18.171,5.371   c-16.384,6.248-31.138,15.841-43.405,27.961c-0.909,8.756-1.369,17.638-1.369,26.624c0,4.274,0.104,8.526,0.313,12.748   c11.358-20.208,29.403-36.185,51.106-44.889c5.799-2.33,11.87-4.159,18.15-5.381c6.384-1.264,12.978-1.923,19.728-1.923   c56.236,0,101.981,45.766,101.981,101.981c0,56.236-45.745,101.981-101.981,101.981c-12.016,0-23.552-2.09-34.272-5.925   c8.181,10.344,17.136,20.051,26.791,29.006c2.476,0.157,4.974,0.23,7.481,0.23c69.088,0,125.293-56.205,125.293-125.293   S158.388,193.245,89.3,193.245z"/>
</g>
<path style="fill:#3FBD77;" d="M461.406,121.946c-3.905-15.108-18.036-25.321-33.611-24.257l-37.821,2.564l-29.109,1.966  c-2.87,0.189-5.492,1.675-7.124,4.035c-1.647,2.36-2.127,5.347-1.311,8.1l9.354,31.629c-0.379-0.044-0.758-0.088-1.151-0.088  H178.492l-5.376-10.198l-8.072-15.326l-16.755,8.815l3.307,6.279l10.359,19.683l-26.341,46.825l-11.553,20.557l-44.756,79.576  l-6.643,11.801c-1.661,2.928-1.632,6.513,0.073,9.426c1.704,2.9,4.808,4.677,8.173,4.677h176.723v-0.044  c0.218,0.015,0.451,0.029,0.67,0.044h0.35c3.263,0,6.294-1.675,8.028-4.444l100.206-160.332l11.291,38.186l6.643,22.436  l23.995,81.12l4.808,16.259c1.209,4.123,4.983,6.789,9.077,6.789c0.889,0,1.792-0.132,2.695-0.393  c5.012-1.486,7.867-6.76,6.381-11.772l-4.808-16.259l-23.995-81.12l-6.629-22.436l-22.393-75.73l21.722-1.471l33.406-2.258  c6.469-0.466,12.369,3.802,13.986,10.097c1.005,3.89,0.233,7.999-2.113,11.262c-2.346,3.263-5.988,5.288-9.994,5.58l-13.301,0.947  c-5.216,0.379-9.149,4.91-8.771,10.125c0.365,5.216,4.925,9.134,10.111,8.771l13.301-0.947c9.631-0.699,18.386-5.58,24.024-13.419  C461.96,141.148,463.811,131.298,461.406,121.946z M97.094,309.07l3.642-6.469l40.487-72l11.436-20.324l19.785-35.17l70.513,133.962  H97.094V309.07z M259.349,299.556l-70.893-134.72h155.087L259.349,299.556z"/>
<g>
	<circle style="fill:#5C5E70;" cx="89.641" cy="318.547" r="19.425"/>
	<circle style="fill:#5C5E70;" cx="422.69" cy="318.547" r="19.425"/>
</g>
<g>
	<path style="fill:#494B5B;" d="M193.084,135.705h-37.105c-22.518,0-40.839-18.32-40.839-40.839c0-5.23,4.24-9.47,9.47-9.47   s9.47,4.24,9.47,9.47c0,12.075,9.824,21.899,21.899,21.899h37.105c5.23,0,9.47,4.24,9.47,9.47S198.315,135.705,193.084,135.705z"/>
	<path style="fill:#494B5B;" d="M456.316,149c-5.638,7.838-14.394,12.718-24.024,13.418l-13.301,0.948   c-5.187,0.365-9.747-3.555-10.111-8.771c-0.378-5.216,3.555-9.747,8.771-10.126l13.301-0.947c4.006-0.292,7.649-2.317,9.994-5.58   c2.346-3.263,3.118-7.372,2.113-11.262c-1.617-6.293-7.518-10.563-13.986-10.097l-33.407,2.258l-5.697-18.59l37.821-2.564   c15.574-1.064,29.706,9.149,33.611,24.257C463.804,131.298,461.954,141.147,456.316,149z"/>
</g>
<g>
</g>
<g>
</g>
<g>
</g>
<g>
</g>
<g>
</g>
<g>
</g>
<g>
</g>
<g>
</g>
<g>
</g>
<g>
</g>
<g>
</g>
<g>
</g>
<g>
</g>
<g>
</g>
<g>
</g>
</svg>
