<?xml version="1.0" encoding="iso-8859-1"?>
<!-- Generator: Adobe Illustrator 19.0.0, SVG Export Plug-In . SVG Version: 6.00 Build 0)  -->
<svg xmlns="http://www.w3.org/2000/svg" xmlns:xlink="http://www.w3.org/1999/xlink" version="1.1" id="Capa_1" x="0px" y="0px" viewBox="0 0 512 512" style="enable-background:new 0 0 512 512;" xml:space="preserve">
<circle style="fill:#FFD662;" cx="256" cy="256" r="256"/>
<g>
	<path style="fill:#FCE39D;" d="M303.027,285.538L303.027,285.538c0,16.735-13.567,30.302-30.302,30.302h-18.808   c-16.735,0-30.302,13.567-30.302,30.302l0,0c0,16.735,13.567,30.302,30.302,30.302h135.837c16.735,0,30.302-13.567,30.302-30.302   l0,0c0-16.735,13.567-30.302,30.302-30.302h18.808c16.735,0,30.302-13.567,30.302-30.302l0,0c0-16.735-13.567-30.302-30.302-30.302   H333.329C316.594,255.236,303.027,268.803,303.027,285.538z"/>
	<path style="fill:#FCE39D;" d="M44.934,131.938c-5.496,0-10.658,1.463-15.099,4.023C42.06,112.984,57.681,92.086,76.03,73.936   c3.427,1.515,6.52,3.647,9.143,6.269c5.486,5.486,8.871,13.061,8.871,21.431c0,16.739-13.563,30.302-30.302,30.302   C63.742,131.938,44.934,131.938,44.934,131.938z"/>
	<path style="fill:#FCE39D;" d="M135.265,222.844c0,16.739-13.563,30.302-30.302,30.302H0.014   c0.324-29.665,5.695-58.107,15.297-84.532c2.915,13.678,15.067,23.928,29.623,23.928h60.029c8.37,0,15.945,3.385,21.431,8.871   C131.869,206.899,135.265,214.475,135.265,222.844z"/>
	<path style="fill:#FCE39D;" d="M501.178,182.093h-35.15c-8.37,0-15.945-3.385-21.431-8.871c-5.486-5.486-8.871-13.061-8.871-21.431   c0-16.739-13.563-30.302-30.302-30.302h-18.808c-8.37,0-15.945-3.385-21.431-8.871c-5.486-5.486-8.871-13.061-8.871-21.431   c0-16.739,13.563-30.302,30.302-30.302h18.808c4.608,0,8.976-1.024,12.884-2.873C457.083,89.839,486.351,132.837,501.178,182.093z"/>
	<path style="fill:#FCE39D;" d="M243.464,363.906L243.464,363.906c0-16.735,13.567-30.302,30.302-30.302h18.808   c16.735,0,30.302-13.567,30.302-30.302l0,0c0-16.735-13.567-30.302-30.302-30.302H156.738c-16.735,0-30.302,13.567-30.302,30.302   l0,0c0,16.735-13.567,30.302-30.302,30.302H77.326c-16.735,0-30.302,13.567-30.302,30.302l0,0   c0,16.735,13.567,30.302,30.302,30.302h18.808c16.735,0,30.302,13.567,30.302,30.302l0,0c0,16.735,13.567,30.302,30.302,30.302   h177.061c16.735,0,30.302-13.567,30.302-30.302l0,0c0-16.735-13.567-30.302-30.302-30.302h-60.033   C257.031,394.208,243.464,380.641,243.464,363.906z"/>
</g>
<rect x="158.229" y="171.562" style="fill:#25B6C9;" width="195.553" height="315.047"/>
<g>
	<path style="fill:#3FCDE0;" d="M353.776,122.128L353.776,122.128c-23.89,0-43.255-19.366-43.255-43.255V63.245H201.479v15.629   c0,23.889-19.366,43.255-43.255,43.255l0,0c-15.077,0-27.299,12.222-27.299,27.299v23.912c0,15.077,12.222,27.299,27.299,27.299   h195.553c15.077,0,27.299-12.222,27.299-27.299v-23.912C381.075,134.35,368.853,122.128,353.776,122.128z"/>
	<path style="fill:#3FCDE0;" d="M353.776,311.134H158.224c-15.077,0-27.299-12.222-27.299-27.299v-23.912   c0-15.077,12.222-27.299,27.299-27.299h195.553c15.077,0,27.299,12.222,27.299,27.299v23.912   C381.075,298.912,368.853,311.134,353.776,311.134z"/>
	<path style="fill:#3FCDE0;" d="M353.776,421.631H158.224c-15.077,0-27.299-12.222-27.299-27.299v-23.913   c0-15.077,12.222-27.299,27.299-27.299h195.553c15.077,0,27.299,12.222,27.299,27.299v23.913   C381.075,409.409,368.853,421.631,353.776,421.631z"/>
	<path style="fill:#3FCDE0;" d="M381.036,479.429c-36.969,20.752-79.621,32.569-125.033,32.569c-20.543,0-40.511-2.414-59.653-6.99   c-23.176-5.527-45.129-14.211-65.379-25.579c0.763-14.378,12.675-25.799,27.251-25.809h195.553   C368.361,453.62,380.273,465.041,381.036,479.429z"/>
</g>
<g>
	<path style="fill:#25B6C9;" d="M266.915,63.242v15.631c0,23.888-19.367,43.256-43.256,43.256c-7.532,0-14.365,3.053-19.309,7.997   c-4.943,4.943-7.997,11.762-7.997,19.294v23.918c0,15.078,12.227,27.305,27.305,27.305h-65.428   c-15.078,0-27.305-12.228-27.305-27.305v-23.918c0-7.532,3.053-14.351,7.997-19.294c4.943-4.943,11.777-7.997,19.309-7.997   c23.888,0,43.256-19.367,43.256-43.256V63.242H266.915z"/>
	<path style="fill:#25B6C9;" d="M223.659,311.131h-65.428c-15.078,0-27.305-12.214-27.305-27.291v-23.918   c0-15.078,12.227-27.291,27.305-27.291h65.428c-15.078,0-27.305,12.214-27.305,27.291v23.918   C196.354,298.917,208.581,311.131,223.659,311.131z"/>
	<path style="fill:#25B6C9;" d="M223.659,421.632h-65.428c-15.078,0-27.305-12.228-27.305-27.305v-23.903   c0-15.078,12.227-27.305,27.305-27.305h65.428c-15.078,0-27.305,12.227-27.305,27.305v23.903   C196.354,409.405,208.581,421.632,223.659,421.632z"/>
	<path style="fill:#25B6C9;" d="M196.35,505.009c-23.176-5.527-45.129-14.211-65.379-25.579   c0.763-14.378,12.675-25.799,27.251-25.809h65.442c-15.078,0-27.314,12.215-27.314,27.293V505.009z"/>
</g>
<path style="fill:#FF5662;" d="M308.485,78.51h-104.97c-10.76,0-19.483-8.723-19.483-19.483V19.483  C184.032,8.723,192.754,0,203.515,0h104.97c10.76,0,19.483,8.723,19.483,19.483v39.545C327.968,69.788,319.246,78.51,308.485,78.51z  "/>
<path style="fill:#F23B52;" d="M232.013,59.028V19.483C232.013,8.723,240.736,0,251.495,0h-47.981  c-10.76,0-19.483,8.723-19.483,19.483v39.545c0,10.76,8.723,19.483,19.483,19.483h47.981  C240.736,78.51,232.013,69.788,232.013,59.028z"/>
<g>
</g>
<g>
</g>
<g>
</g>
<g>
</g>
<g>
</g>
<g>
</g>
<g>
</g>
<g>
</g>
<g>
</g>
<g>
</g>
<g>
</g>
<g>
</g>
<g>
</g>
<g>
</g>
<g>
</g>
</svg>
