<?xml version="1.0" encoding="iso-8859-1"?>
<!-- Generator: Adobe Illustrator 19.0.0, SVG Export Plug-In . SVG Version: 6.00 Build 0)  -->
<svg xmlns="http://www.w3.org/2000/svg" xmlns:xlink="http://www.w3.org/1999/xlink" version="1.1" id="Capa_1" x="0px" y="0px" viewBox="0 0 512 512" style="enable-background:new 0 0 512 512;" xml:space="preserve">
<circle style="fill:#E5E5E5;" cx="255.998" cy="256" r="255.998"/>
<g>
	<path style="fill:#F7F7F7;" d="M192.263,81.483c0,16.729-13.563,30.302-30.302,30.302h-18.808c-8.37,0-15.945,3.396-21.431,8.871   c-5.486,5.486-8.871,13.061-8.871,21.431c0,16.729-13.563,30.302-30.302,30.302H13.973c16.833-48.755,47.981-90.832,88.429-121.207   h59.559c8.37,0,15.945,3.396,21.431,8.871C188.878,65.538,192.263,73.114,192.263,81.483z"/>
	<path style="fill:#F7F7F7;" d="M482.127,376.111c-29.832,56.058-79.913,99.714-140.475,121.207h-50.123   c-8.37,0-15.945-3.385-21.431-8.871s-8.871-13.061-8.871-21.431c0-16.739,13.563-30.302,30.302-30.302h18.808   c16.739,0,30.302-13.563,30.302-30.302c0-16.739,13.563-30.302,30.302-30.302H482.127z"/>
	<path style="fill:#F7F7F7;" d="M512,256.001c0,0.345,0,0.679-0.01,1.024H351.682c-8.37,0-15.945-3.396-21.431-8.882   c-5.475-5.486-8.871-13.051-8.871-21.42c0-16.739-13.563-30.302-30.302-30.302h-18.808c-8.37,0-15.945-3.396-21.431-8.882   c-5.475-5.486-8.871-13.051-8.871-21.42c0-16.739,13.563-30.302,30.302-30.302h18.808c8.37,0,15.945-3.396,21.431-8.882   c5.475-5.486,8.871-13.051,8.871-21.42c0-16.739,13.563-30.302,30.302-30.302h85.566c17.763,17.805,32.914,38.212,44.836,60.604   H468.71c-16.739,0-30.302,13.563-30.302,30.302c0,16.729,13.563,30.302,30.302,30.302h36.31   C509.586,215.543,512,235.49,512,256.001z"/>
</g>
<path style="fill:#25B6C9;" d="M404.175,159.185c0,0.777-0.005,1.554-0.021,2.331c-0.303,14.04-4.157,25.69-10.357,34.945  c-30.156,44.994-115.694,33.344-117.157-34.945c-0.021-0.777-0.026-1.554-0.026-2.331c0-36.819,18.713-69.263,47.143-88.359  c5.232-3.513,10.799-6.579,16.637-9.133C377.936,78.117,404.175,115.585,404.175,159.185z"/>
<path style="fill:#3FCDE0;" d="M404.175,159.185c0,0.777-0.005,1.554-0.021,2.331c-0.303,14.04-4.157,25.69-10.357,34.945  c-37.383,19.585-94.41,1.549-95.608-54.106c-0.016-0.772-0.021-1.549-0.021-2.331c0-26.424,9.638-50.598,25.589-69.199  c5.232-3.513,10.799-6.579,16.637-9.133C377.936,78.117,404.175,115.585,404.175,159.185z"/>
<g>
	<circle style="fill:#74D9EF;" cx="369.453" cy="134.134" r="15.567"/>
	<circle style="fill:#74D9EF;" cx="357.113" cy="104.647" r="9.664"/>
</g>
<path style="fill:#E5B691;" d="M497.601,340.867v0.01c-3.145,8.944-6.781,17.669-10.856,26.133  c-1.912,1.609-4.054,3.009-6.405,4.148l-158.824,77.029c-15.966,7.743-34.189,9.477-51.325,4.88L98.024,406.904  c-8.861-2.372-18.275-1.39-26.457,2.759l-14.566,7.387C28.393,381.754,8.989,338.683,2.448,291.507l77.677-58.326  c23.238-17.46,53.321-23.834,81.303-15.956c1.128,0.324,2.257,0.658,3.385,1.024l152.397,48.796  c7.973,2.549,13.813,8.599,16.415,15.882c1.003,2.759,1.526,5.695,1.526,8.693c0,2.978-0.522,6.008-1.62,8.965  c-4.671,12.591-18.223,19.487-31.148,15.872l-96.475-27.021c-2.163-0.606-4.347-0.899-6.478-0.899  c-10.982,0-20.94,7.628-23.353,18.892c-0.021,0.073-0.042,0.146-0.052,0.219c-2.508,12.236,4.817,24.346,16.823,27.794  l110.612,31.786c9.832,2.821,20.334,2.236,29.779-1.682l121.876-50.531c3.845-1.599,7.847-2.351,11.776-2.351  c11.421,0,22.34,6.384,27.658,17.23c0.721,1.463,1.306,2.957,1.776,4.462C496.995,336.51,497.413,338.683,497.601,340.867z"/>
<path style="fill:#F7CEA6;" d="M496.327,334.357c-1.442,9.728-7.513,18.599-17.032,23.217l-158.824,77.029  c-15.966,7.743-34.189,9.477-51.325,4.88L96.98,393.321c-8.861-2.372-18.275-1.39-26.457,2.759l-21.337,10.836  c-24.325-33.28-40.813-72.662-46.738-115.408l77.677-58.326c23.238-17.46,53.321-23.834,81.303-15.956  c1.128,0.324,2.257,0.658,3.385,1.024l152.397,48.796c7.973,2.549,13.813,8.599,16.415,15.882c-0.261,1.369-0.637,2.727-1.139,4.075  c-4.671,12.591-18.223,19.487-31.148,15.872l-96.475-27.021c-2.163-0.606-4.347-0.899-6.478-0.899  c-11.055,0-21.065,7.732-23.406,19.111c-0.951,4.629-0.491,9.237,1.097,13.364c-0.021,0.073-0.042,0.146-0.052,0.219  c-2.508,12.236,4.817,24.346,16.823,27.794l110.612,31.786c9.832,2.821,20.334,2.236,29.779-1.682l121.876-50.531  c3.845-1.599,7.847-2.351,11.776-2.351c11.421,0,22.34,6.384,27.658,17.23C495.271,331.359,495.856,332.853,496.327,334.357z"/>
<g>
</g>
<g>
</g>
<g>
</g>
<g>
</g>
<g>
</g>
<g>
</g>
<g>
</g>
<g>
</g>
<g>
</g>
<g>
</g>
<g>
</g>
<g>
</g>
<g>
</g>
<g>
</g>
<g>
</g>
</svg>
