<?xml version="1.0" encoding="iso-8859-1"?>
<!-- Generator: Adobe Illustrator 19.0.0, SVG Export Plug-In . SVG Version: 6.00 Build 0)  -->
<svg xmlns="http://www.w3.org/2000/svg" xmlns:xlink="http://www.w3.org/1999/xlink" version="1.1" id="Capa_1" x="0px" y="0px" viewBox="0 0 512 512" style="enable-background:new 0 0 512 512;" xml:space="preserve">
<circle style="fill:#3FCDE0;" cx="255.998" cy="255.999" r="255.998"/>
<g>
	<path style="fill:#74D9EF;" d="M495.7,165.91H364.158c-8.37,0-15.935-3.396-21.42-8.882c-5.486-5.486-8.882-13.051-8.882-21.42   c0-16.739,13.573-30.302,30.302-30.302h18.808c16.739,0,30.302-13.573,30.302-30.302c0-6.248,1.891-12.058,5.141-16.885   C452.828,86.383,479.744,123.466,495.7,165.91z"/>
	<path style="fill:#74D9EF;" d="M293.492,107.72c0,16.739-13.573,30.302-30.302,30.302H86.134c-8.37,0-15.945-3.385-21.431-8.871   c-5.475-5.486-8.871-13.061-8.871-21.431c0-3.291-0.522-6.447-1.505-9.414c3.365-4.305,6.865-8.495,10.501-12.57   C110.281,34.745,175.837,2.05,249.053,0.096c-4.974,9.916-15.235,16.718-27.084,16.718h-18.808   c-16.739,0-30.302,13.563-30.302,30.302s13.563,30.302,30.302,30.302h60.029c8.359,0,15.945,3.385,21.42,8.871   C290.096,91.775,293.492,99.35,293.492,107.72z"/>
</g>
<g>
	<path style="fill:#5C5E70;" d="M512,256.857c-0.094,28.776-4.932,56.435-13.793,82.243c-0.209,0.616-0.418,1.223-0.637,1.839   c-2.811,7.993-6.008,15.809-9.561,23.416c-40.813,87.217-129.358,147.643-232.008,147.643S64.807,451.573,23.994,364.356   c-7.21-15.423-12.925-31.681-16.979-48.587c-4.524-18.913-6.949-38.64-7.001-58.911L512,256.857L512,256.857z"/>
	<polygon style="fill:#5C5E70;" points="487.235,265.202 334.261,265.202 334.261,150.651 452.435,150.651  "/>
</g>
<path style="fill:#EAB257;" d="M496.515,232.668l-32.632-80.551c-3.218-7.952-10.94-13.155-19.529-13.155H316.658v225.394h171.352  c3.553-7.607,6.75-15.423,9.561-23.416c0.219-0.616,0.428-1.223,0.637-1.839V241.32  C498.207,238.352,497.633,235.416,496.515,232.668z M450.456,241.487h-93.842c-8.861,0-16.05-7.189-16.05-16.05v-45.724  c0-9.3,7.534-16.833,16.833-16.833h73.696c6.854,0,13.03,4.159,15.6,10.522l18.63,46.007  C469.609,229.962,461.845,241.487,450.456,241.487z"/>
<path style="fill:#FFD662;" d="M316.647,114.909v249.447H23.994C8.603,331.452,0.003,294.724,0.003,256V106.213  c0-11.31,9.168-20.478,20.478-20.478h271.663C305.676,85.735,316.647,98.797,316.647,114.909z"/>
<path style="fill:#797B89;" d="M497.57,340.94c-2.811,7.993-6.008,15.809-9.561,23.416h-62.087c-56.236,0-6.478-16.938-9.007-23.416  H497.57z"/>
<circle style="fill:#494B5B;" cx="407.999" cy="364.48" r="52.151"/>
<circle style="fill:#E5E5E5;" cx="407.999" cy="364.48" r="30.185"/>
<path style="fill:#D3D3D3;" d="M414.824,383.134c-14.067,0-25.476-11.408-25.476-25.476c0-10.218,6.012-19.031,14.684-23.086  c-14.803,1.935-26.222,14.587-26.222,29.909c0,16.674,13.517,30.19,30.191,30.19c15.322,0,27.974-11.419,29.909-26.222  C433.855,377.121,425.042,383.134,414.824,383.134z"/>
<circle style="fill:#FFD662;" cx="474.496" cy="304.963" r="18.757"/>
<path style="fill:#EFC549;" d="M478.74,316.548c-8.742,0-15.831-7.089-15.831-15.831c0-6.35,3.736-11.826,9.125-14.345  c-9.199,1.203-16.294,9.064-16.294,18.585c0,10.361,8.399,18.76,18.761,18.76c9.521,0,17.383-7.096,18.585-16.294  C490.566,312.811,485.09,316.548,478.74,316.548z"/>
<rect x="455.74" y="278.809" style="fill:#EAB257;" width="18.486" height="62.129"/>
<g>
	<path style="fill:#797B89;" d="M448.643,203.94c1.749,5.585-4.711,10.117-9.367,6.571l-17.233-13.124l-18.079-13.767   c-4.572-3.483-2.111-10.781,3.637-10.781h26.891c2.625,0,4.945,1.705,5.73,4.21L448.643,203.94z"/>
	<path style="fill:#797B89;" d="M316.658,315.768v48.587H23.994c-7.21-15.423-12.925-31.681-16.979-48.587H316.658z"/>
	<path style="fill:#797B89;" d="M167.837,298.774H85.865c-5.289,0-9.907,3.58-11.224,8.702l-4.252,16.525   c-1.887,7.334,3.652,14.478,11.224,14.478h90.476c7.573,0,13.112-7.144,11.224-14.478l-4.252-16.525   C177.743,302.355,173.126,298.774,167.837,298.774z"/>
</g>
<circle style="fill:#494B5B;" cx="126.85" cy="364.48" r="52.151"/>
<circle style="fill:#E5E5E5;" cx="126.85" cy="364.48" r="30.185"/>
<path style="fill:#D3D3D3;" d="M133.68,383.134c-14.067,0-25.476-11.408-25.476-25.476c0-10.218,6.012-19.031,14.684-23.086  c-14.803,1.935-26.222,14.587-26.222,29.909c0,16.674,13.517,30.19,30.191,30.19c15.322,0,27.974-11.419,29.909-26.222  C152.711,377.121,143.898,383.134,133.68,383.134z"/>
<path style="fill:#797B89;" d="M350.746,273.762h23.481c3.271,0,5.921-2.651,5.921-5.921v-0.413c0-3.271-2.651-5.921-5.921-5.921  h-23.481c-3.271,0-5.921,2.651-5.921,5.921v0.413C344.826,271.111,347.477,273.762,350.746,273.762z"/>
<path style="fill:#F7F7F7;" d="M168.601,106.979l-11.908,9.972l-17.698,44.46l-34.492-13.73l11.835-29.729  c2.794-7.017,9.63-11.583,17.182-11.475L168.601,106.979z"/>
<path style="fill:#FCF8F2;" d="M162.132,163.514l15.305-9.437l-42.223-47.574l33.387,0.478c6.49,0.093,12.605,3.099,16.646,8.171  l16.975,21.261l13.919-10.442l-10.877,41.847L162.132,163.514z"/>
<path style="fill:#F7F7F7;" d="M68.281,223.804l13.669,7.375h47.853v37.124l-31.999-0.002c-7.554,0-14.322-4.663-17.016-11.721  L68.281,223.804z"/>
<path style="fill:#FCF8F2;" d="M123.199,208.905l-14.429-10.729l-28.585,56.824l-11.904-31.196  c-2.314-6.063-1.782-12.857,1.436-18.487l13.476-23.635l-14.85-9.071l42.902-5.371L123.199,208.905z"/>
<path style="fill:#F7F7F7;" d="M224.528,254.299l-0.828-15.51l-24.934-40.844l31.685-19.344l16.672,27.312  c3.935,6.447,3.484,14.655-1.137,20.63L224.528,254.299z"/>
<path style="fill:#FCF8F2;" d="M183.196,215.188l-1.638,17.905l63.395-5.211l-20.423,26.416c-3.97,5.135-10.046,8.22-16.527,8.408  l-27.195,0.814l-0.004,17.401l-26.939-33.82L183.196,215.188z"/>
<g>
</g>
<g>
</g>
<g>
</g>
<g>
</g>
<g>
</g>
<g>
</g>
<g>
</g>
<g>
</g>
<g>
</g>
<g>
</g>
<g>
</g>
<g>
</g>
<g>
</g>
<g>
</g>
<g>
</g>
</svg>
