<?xml version="1.0" encoding="iso-8859-1"?>
<!-- Generator: Adobe Illustrator 19.0.0, SVG Export Plug-In . SVG Version: 6.00 Build 0)  -->
<svg xmlns="http://www.w3.org/2000/svg" xmlns:xlink="http://www.w3.org/1999/xlink" version="1.1" id="Capa_1" x="0px" y="0px" viewBox="0 0 512 512" style="enable-background:new 0 0 512 512;" xml:space="preserve">
<circle style="fill:#EAB257;" cx="255.999" cy="256" r="255.999"/>
<g>
	<path style="fill:#F2C179;" d="M496.453,344.053c-18.045,49.267-50.803,91.449-92.954,121.208h-20.02   c-8.37,0-15.945-3.385-21.431-8.871s-8.871-13.061-8.871-21.431c0-16.739,13.563-30.302,30.302-30.302h18.808   c16.739,0,30.302-13.563,30.302-30.302c0-16.739,13.563-30.302,30.302-30.302H496.453z"/>
	<path style="fill:#F2C179;" d="M225.125,164.029c0,16.729-13.563,30.302-30.302,30.302H17.766c-3.459,0-6.781-0.585-9.874-1.651   C28.727,110.823,88.997,44.712,167.291,15.79c2.873,1.452,5.486,3.354,7.732,5.601c5.486,5.486,8.882,13.061,8.882,21.431   c0,16.729-13.573,30.302-30.302,30.302h-18.808c-16.739,0-30.302,13.563-30.302,30.302c0,16.729,13.563,30.302,30.302,30.302   h60.029c8.37,0,15.945,3.396,21.431,8.871C221.73,148.085,225.125,155.66,225.125,164.029z"/>
</g>
<path style="fill:#3FBD77;" d="M443.053,119.19c-13.874,13.874-36.367,13.874-50.242,0c-13.874-13.874-13.874-36.368,0-50.242  s36.368-13.874,50.242,0C456.927,82.823,456.927,105.316,443.053,119.19z M511.823,232.772L494.969,53.709  c-1.829-19.456-17.23-34.847-36.676-36.676L279.22,0.179c-3.135-0.293-6.259-0.219-9.32,0.199  c-8.714,1.191-16.896,5.193-23.238,11.536L0.024,258.561c1.358,139.357,114.061,252.06,253.418,253.418l246.647-246.637  c6.342-6.342,10.344-14.524,11.536-23.238C512.043,239.042,512.116,235.907,511.823,232.772z"/>
<g>
	<path style="fill:#FFD662;" d="M124.452,369.628l22.215-22.215c4.443-4.443,11.255-2.666,15.994,2.074   c3.999,3.999,6.664,10.81,1.777,15.697L142.224,387.4l25.177,25.177l39.69-39.69c4.443-4.443,11.701-2.221,17.18,3.258   c4.74,4.74,7.849,11.996,2.961,16.883l-52.723,52.723c-5.035,5.035-12.441,7.701-17.179,2.962l-94.043-94.042   c-4.74-4.74-2.073-12.144,2.962-17.179l52.723-52.723c4.887-4.887,12.145-1.777,16.883,2.961c5.479,5.479,7.7,12.736,3.257,17.179   l-39.69,39.69L124.452,369.628z"/>
	<path style="fill:#FFD662;" d="M190.947,252.187c-8.442,8.442-8.589,18.068,1.482,28.139l39.246,39.246   c10.071,10.071,19.697,9.922,28.286,1.333c11.847-11.847,3.554-21.622-1.777-27.842c-5.035-5.923-1.481-12.44,4.443-18.365   c7.997-7.997,13.773-9.626,22.659-0.74c19.696,19.696,14.959,46.947-6.22,68.125c-19.401,19.401-45.021,26.065-70.495,0.591   l-39.246-39.246c-25.472-25.472-18.809-51.093,0.592-70.494c21.179-21.179,47.835-26.51,66.644-7.701   c8.886,8.886,7.258,14.662-0.591,22.511c-6.22,6.22-12.886,9.627-18.512,4.591C213.457,248.634,203.535,239.599,190.947,252.187z"/>
	<path style="fill:#FFD662;" d="M291.801,259.444l-39.246-39.246c-25.472-25.472-19.105-50.796,1.332-71.235   s45.911-26.954,71.383-1.481l39.246,39.246c25.473,25.473,18.957,50.946-1.481,71.384S317.275,284.918,291.801,259.444z    M302.168,170.586c-10.219-10.219-19.846-9.775-28.139-1.482c-8.293,8.293-8.589,17.772,1.629,27.991l39.246,39.246   c10.219,10.219,19.697,9.922,27.991,1.629c8.293-8.293,8.737-17.92-1.482-28.139L302.168,170.586z"/>
</g>
<g>
</g>
<g>
</g>
<g>
</g>
<g>
</g>
<g>
</g>
<g>
</g>
<g>
</g>
<g>
</g>
<g>
</g>
<g>
</g>
<g>
</g>
<g>
</g>
<g>
</g>
<g>
</g>
<g>
</g>
</svg>
