<?xml version="1.0" encoding="iso-8859-1"?>
<!-- Generator: Adobe Illustrator 19.0.0, SVG Export Plug-In . SVG Version: 6.00 Build 0)  -->
<svg xmlns="http://www.w3.org/2000/svg" xmlns:xlink="http://www.w3.org/1999/xlink" version="1.1" id="Capa_1" x="0px" y="0px" viewBox="0 0 512 512" style="enable-background:new 0 0 512 512;" xml:space="preserve">
<circle style="fill:#494B5B;" cx="256.915" cy="256" r="255.083"/>
<g>
	<path style="fill:#3FBD77;" d="M168.596,469.125c0,8.735-3.061,16.773-8.163,23.082c-33.369-13.65-63.198-34.15-87.728-59.773h59.2   c10.13,0,19.303,4.113,25.946,10.745C164.484,449.822,168.596,458.995,168.596,469.125z"/>
	<path style="fill:#3FBD77;" d="M499.444,176.747h-66.301c-19.365,0-35.066-15.701-35.066-35.066v-3.269   c0-9.683-3.925-18.449-10.266-24.79c-6.351-6.351-15.118-10.276-24.8-10.276c-19.365,0-35.066-15.701-35.066-35.066v-3.259   c0-19.365,15.701-35.066,35.066-35.066h12.202C433.611,60.575,478.683,113.164,499.444,176.747z"/>
	<path style="fill:#3FBD77;" d="M76.872,316.085c0,20.271-16.429,36.701-36.701,36.701H20.837   c-9.433-22.978-15.596-47.633-17.939-73.401h37.273c10.141,0,19.313,4.113,25.956,10.745   C72.758,296.773,76.872,305.945,76.872,316.085z"/>
	<path style="fill:#3FBD77;" d="M384.844,323.54h118.109C508.856,302.029,512,279.384,512,256c0-1.957-0.021-3.915-0.073-5.862   H325.592c-18.567,0-33.619-15.052-33.619-33.619v-6.153c0-18.567-15.052-33.619-33.619-33.619h-9.552   c-20.268,0-36.699-16.43-36.699-36.699l0,0c0-20.268,16.43-36.699,36.699-36.699h4.826c20.268,0,36.699-16.43,36.699-36.699l0,0   c0-20.268-16.43-36.699-36.699-36.699H36.699C16.43,29.952,0,46.382,0,66.651l0,0c0,20.268,16.43,36.699,36.699,36.699h32.655   c20.268,0,36.699,16.43,36.699,36.699l0,0c0,20.268-16.43,36.699-36.699,36.699H14.392c-7.569,23.176-11.911,47.82-12.483,73.391   h211.073c18.567,0,33.619,15.052,33.619,33.619v6.164c0,18.567-15.052,33.619-33.619,33.619h-77.993   c-18.567,0-33.619,15.052-33.619,33.619v6.164c0,18.567,15.052,33.619,33.619,33.619H175.5c18.567,0,33.619,15.052,33.619,33.619   v6.164c0,18.55,15.028,33.63,33.578,33.608c9.303-0.01,17.72,3.75,23.81,9.849c6.091,6.08,9.849,14.482,9.849,23.77v6.403   c72.381-5.456,136.339-41.115,179.287-94.422c-5.435-11.244-16.95-18.991-30.277-18.991h-40.522   c-18.562,0-33.608-15.047-33.608-33.608v-6.184C351.236,338.587,366.283,323.54,384.844,323.54z"/>
</g>
<g>
</g>
<g>
</g>
<g>
</g>
<g>
</g>
<g>
</g>
<g>
</g>
<g>
</g>
<g>
</g>
<g>
</g>
<g>
</g>
<g>
</g>
<g>
</g>
<g>
</g>
<g>
</g>
<g>
</g>
</svg>
