<?xml version="1.0" encoding="iso-8859-1"?>
<!-- Generator: Adobe Illustrator 19.0.0, SVG Export Plug-In . SVG Version: 6.00 Build 0)  -->
<svg xmlns="http://www.w3.org/2000/svg" xmlns:xlink="http://www.w3.org/1999/xlink" version="1.1" id="Capa_1" x="0px" y="0px" viewBox="0 0 512.003 512.003" style="enable-background:new 0 0 512.003 512.003;" xml:space="preserve">
<circle style="fill:#E5E5E5;" cx="256.007" cy="256" r="255.996"/>
<polygon style="fill:#74D9EF;" points="473.919,215.645 38.082,215.645 144.493,125.519 181.784,131.729 192.606,111.159   243.942,13.635 309.199,41.603 355.824,150.387 421.083,150.387 "/>
<g>
	<polygon style="fill:#3FCDE0;" points="219.072,137.953 181.784,131.729 192.606,111.159  "/>
	<polygon style="fill:#3FCDE0;" points="328.764,215.645 308.563,172.137 279.038,172.137 322.454,157.203 367.042,215.645  "/>
	<polygon style="fill:#3FCDE0;" points="267.014,88.957 291.582,59.838 316.151,104.426 292.492,80.767  "/>
</g>
<polyline style="fill:#83DEEE;" points="126.115,171.061 72.886,121.926 38.082,215.645 "/>
<path style="fill:#5C5E70;" d="M511.993,256.003c0,141.383-114.613,255.996-255.996,255.996S0,397.386,0,256.003  c0-22.11,2.8-43.561,8.066-64.02c20.542,5.527,27.157,18.442,58.085,18.442c39.34,0,39.34-20.898,78.68-20.898  s39.34,20.898,78.669,20.898c39.34,0,39.34-20.898,78.68-20.898s39.34,20.898,78.68,20.898c39.35,0,39.35-20.898,78.69-20.898  c24.753,0,33.927,8.275,47.135,14.409C510.164,220.749,511.993,238.155,511.993,256.003z"/>
<polyline style="fill:#3FCDE0;" points="72.886,121.926 85.299,189.002 126.115,171.061 "/>
<path style="fill:#25B6C9;" d="M341.326,385.504c0,1.04-0.007,2.079-0.028,3.119c-0.405,18.783-5.561,34.369-13.856,46.751  c-40.343,60.195-154.78,44.608-156.738-46.751c-0.028-1.04-0.036-2.079-0.036-3.119c0-49.258,25.034-92.662,63.071-118.21  c7-4.7,14.447-8.801,22.258-12.218C306.223,277.049,341.326,327.175,341.326,385.504z"/>
<path style="fill:#3FCDE0;" d="M341.326,385.504c0,1.04-0.007,2.079-0.028,3.119c-0.405,18.783-5.561,34.369-13.856,46.751  c-50.012,26.203-126.305,2.072-127.908-72.384c-0.021-1.032-0.028-2.072-0.028-3.119c0-35.352,12.895-67.692,34.235-92.578  c7-4.7,14.447-8.801,22.258-12.218C306.223,277.049,341.326,327.175,341.326,385.504z"/>
<g>
	<circle style="fill:#74D9EF;" cx="294.866" cy="351.993" r="20.826"/>
	<circle style="fill:#74D9EF;" cx="278.357" cy="312.549" r="12.929"/>
</g>
<g>
</g>
<g>
</g>
<g>
</g>
<g>
</g>
<g>
</g>
<g>
</g>
<g>
</g>
<g>
</g>
<g>
</g>
<g>
</g>
<g>
</g>
<g>
</g>
<g>
</g>
<g>
</g>
<g>
</g>
</svg>
