<?xml version="1.0" encoding="iso-8859-1"?>
<!-- Generator: Adobe Illustrator 19.0.0, SVG Export Plug-In . SVG Version: 6.00 Build 0)  -->
<svg xmlns="http://www.w3.org/2000/svg" xmlns:xlink="http://www.w3.org/1999/xlink" version="1.1" id="Capa_1" x="0px" y="0px" viewBox="0 0 512 512" style="enable-background:new 0 0 512 512;" xml:space="preserve">
<circle style="fill:#5C5E70;" cx="255.998" cy="255.999" r="255.998"/>
<g>
	<path style="fill:#797B89;" d="M512,256.001c0,12.403-0.878,24.597-2.591,36.529h-62.714c-8.359,0-15.945-3.396-21.42-8.871   c-5.486-5.486-8.882-13.061-8.882-21.431c0-16.739,13.573-30.302,30.302-30.302h18.808c16.739,0,30.302-13.563,30.302-30.302   c0-6.687,2.163-12.863,5.851-17.878C508.395,206.661,512,230.912,512,256.001z"/>
	<path style="fill:#797B89;" d="M273.733,159.85c0,16.729-13.563,30.302-30.302,30.302H66.375c-8.37,0-15.945-3.396-21.431-8.882   c-5.486-5.486-8.871-13.051-8.871-21.42c0-7.91-3.041-15.12-8.004-20.511C60.899,75.318,119.904,26.939,190.968,8.34h11.243   c8.359,0,15.945,3.396,21.42,8.871c5.486,5.486,8.882,13.061,8.882,21.431c0,16.729-13.573,30.302-30.302,30.302h-18.808   c-16.739,0-30.302,13.563-30.302,30.302c0,16.729,13.563,30.302,30.302,30.302h60.029c8.37,0,15.945,3.396,21.431,8.871   C270.337,143.905,273.733,151.48,273.733,159.85z"/>
</g>
<path style="fill:#25B6C9;" d="M355.308,461.332c-17.45,17.45-37.303,31.023-58.493,40.699c-8.171,3.741-16.53,6.896-25.036,9.488  c-0.01,0-0.01,0-0.01,0c-5.214,0.324-10.47,0.481-15.767,0.481c-41.963,0-81.564-10.094-116.516-27.982  C95.6,461.531,59.06,426.767,34.401,384.24c-0.01,0-0.01-0.01-0.01-0.01c-8.756-15.099-16.008-31.159-21.546-48.002l-0.01-0.021  C8.017,279.228,27.4,220.61,70.993,177.017c21.264-21.253,46.101-36.77,72.568-46.519c70.729-26.018,153.15-10.992,210.347,45.118  c-43.551-42.454-106.14-53.801-159.858-34.032c-20.166,7.429-39.079,19.236-55.275,35.432  c-43.269,43.269-55.223,105.994-35.871,160.025c7.398,20.626,19.351,39.988,35.871,56.508c12.058,12.058,25.621,21.682,40.092,28.87  c41.336,20.553,90.049,21.274,131.886,2.132c16.144-7.377,31.263-17.711,44.554-31.002c38.922-38.922,52.516-93.58,40.761-143.485  c-6.092-25.945-19.038-50.594-38.818-71.084c26.321,27.031,43.509,59.632,51.576,93.946  C424.26,338.463,406.403,410.227,355.308,461.332z"/>
<path style="fill:#3FCDE0;" d="M355.308,461.332c-17.45,17.45-37.303,31.023-58.493,40.699c-8.171,3.741-16.53,6.896-25.036,9.488  c-0.01,0-0.01,0-0.01,0c-5.214,0.324-10.47,0.481-15.767,0.481c-41.963,0-81.564-10.094-116.516-27.982  C95.6,461.531,59.06,426.767,34.401,384.24c-0.01,0-0.01-0.01-0.01-0.01c-8.756-15.099-16.008-31.159-21.546-48.002  c-0.01-0.01-0.01-0.021-0.01-0.021C8.017,279.228,27.4,220.61,70.993,177.017c21.264-21.253,46.101-36.77,72.568-46.519  c71.314-26.237,154.508-10.741,211.758,46.508c27.408,27.408,45.244,60.771,53.509,95.921  C424.26,338.463,406.403,410.227,355.308,461.332z"/>
<path style="fill:#25B6C9;" d="M355.308,461.332c-17.45,17.45-37.303,31.023-58.493,40.699c-8.171,3.741-16.53,6.896-25.036,9.488  c-5.214,0.324-10.48,0.481-15.778,0.481c-41.963,0-81.564-10.094-116.516-27.982C95.6,461.531,59.06,426.767,34.401,384.24  c-0.01,0-0.01-0.01-0.01-0.01c-8.756-15.099-16.008-31.159-21.546-48.002C8.007,279.249,27.39,220.62,70.993,177.017  c21.264-21.253,46.101-36.77,72.568-46.519c70.729-26.018,153.15-10.992,210.347,45.118  c-43.551-42.454-106.14-53.801-159.858-34.032c-20.166,7.429-39.079,19.236-55.275,35.432  c-43.269,43.269-55.223,105.994-35.871,160.025c7.398,20.626,19.351,39.988,35.871,56.508c12.058,12.058,25.621,21.682,40.092,28.87  c41.336,20.553,90.049,21.274,131.886,2.132c16.144-7.377,31.263-17.711,44.554-31.002c38.922-38.922,52.516-93.58,40.761-143.485  c-6.092-25.945-19.038-50.594-38.818-71.084c26.321,27.031,43.509,59.632,51.576,93.946  C424.26,338.463,406.403,410.227,355.308,461.332z"/>
<g>
	<path style="fill:#FFD662;" d="M219.629,249.846c-23.938,46.926-71.826,54.596-69.903,90.979   c1.912,36.394,52.673,41.179,28.724,90.028c-9.968,20.344-24.921,38.682-38.964,53.164C95.6,461.531,59.06,426.767,34.401,384.24   c33.614-9.613,79.203-26.613,93.298-63.519c20.104-52.673-91.386-81.522-56.706-143.704c21.264-21.253,46.101-36.77,72.568-46.519   c19.414,0.888,37,10.083,47.344,23.583C190.905,154.082,243.578,202.92,219.629,249.846z"/>
	<path style="fill:#FFD662;" d="M355.305,461.331c-17.449,17.449-37.302,31.019-58.494,40.701   c-4.932-23.453-9.606-54.443-3.438-67.353c10.535-22.026,60.333-16.28,68.952-53.629c8.619-37.349-33.518-48.841-29.687-71.825   c3.831-22.983,76.191-36.295,76.191-36.295C424.256,338.463,406.405,410.231,355.305,461.331z"/>
</g>
<g>
	<path style="fill:#EFC549;" d="M143.57,130.494c15.239,0.7,29.35,6.521,39.719,15.53c-16.123,7.386-31.235,17.716-44.51,30.993   c-22.275,22.275-36.249,49.7-41.935,78.437c-22.109-22.479-43.995-45.891-25.851-78.437   C92.257,155.762,117.097,140.241,143.57,130.494z"/>
	<path style="fill:#EFC549;" d="M181.543,423.716c-0.836,2.267-1.87,4.65-3.082,7.137c-9.968,20.344-24.921,38.682-38.974,53.164   C95.6,461.531,59.05,426.757,34.391,384.23c23.531-6.729,52.966-17.074,73.32-35.359c7.398,16.185,17.742,31.357,31.065,44.68   c12.058,12.058,25.621,21.682,40.092,28.87C179.756,422.859,180.644,423.298,181.543,423.716z"/>
	<path style="fill:#EFC549;" d="M355.305,461.328c-17.444,17.454-37.299,31.021-58.495,40.701   c-4.928-23.45-9.602-54.443-3.441-67.348c0.768-1.604,1.74-3.062,2.906-4.393c4.898-1.652,9.737-3.577,14.48-5.744   c8.085-3.693,15.919-8.125,23.383-13.305c7.454-5.161,14.539-11.06,21.166-17.688c1.448-1.448,2.867-2.915,4.237-4.413   c29.602-32.022,43.033-73.607,40.253-114.308c5.52-1.254,9.038-1.905,9.038-1.905C424.257,338.468,406.404,410.229,355.305,461.328   z"/>
</g>
<path style="fill:#F7F7F7;" d="M498.448,338.401c-4.587,13.5-10.261,26.488-16.938,38.87c-18.568,34.45-44.784,64.156-76.392,86.831  c-11.442,8.223-23.594,15.517-36.331,21.776c-31.409-16.812-53.049-49.779-53.624-87.51c-0.512-33.301,15.12-62.955,39.549-81.7  V66.321c0-15.224,5.548-29.152,14.723-39.884c1.045-1.212,2.132-2.393,3.26-3.521c11.118-11.118,26.457-17.983,43.415-17.983  c33.907,0,61.387,27.481,61.387,61.387v250.346C485.522,322.821,492.596,330.156,498.448,338.401z"/>
<path style="fill:#FF5662;" d="M481.51,377.271c-18.568,34.45-44.784,64.156-76.392,86.831  c-31.817-5.287-56.717-33.238-57.218-66.236c-0.334-21.796,9.414-41.932,26.749-55.223l12.81-9.832V66.321  c0-9.3,4.462-17.586,11.358-22.81c4.806-3.668,10.804-5.83,17.293-5.83c15.788,0,28.64,12.852,28.64,28.64v266.489l12.81,9.832  C469.222,351.587,477.477,363.666,481.51,377.271z"/>
<path style="fill:#E5E5E5;" d="M398.817,73.289c4.806-3.668,10.804-5.83,17.293-5.83c15.788,0,28.64,12.852,28.64,28.64V66.321  c0-15.788-12.852-28.64-28.64-28.64c-6.489,0-12.486,2.163-17.293,5.83c-6.896,5.224-11.358,13.51-11.358,22.81V96.1  C387.459,86.799,391.921,78.513,398.817,73.289z"/>
<g>
	<path style="fill:#FF5662;" d="M325.372,80.858h-47.018c-6.492,0-11.754-5.263-11.754-11.754l0,0   c0-6.492,5.263-11.754,11.754-11.754h47.018c6.492,0,11.754,5.263,11.754,11.754l0,0C337.127,75.595,331.864,80.858,325.372,80.858   z"/>
	<path style="fill:#FF5662;" d="M325.372,151.385h-47.018c-6.492,0-11.754-5.263-11.754-11.754l0,0   c0-6.492,5.263-11.754,11.754-11.754h47.018c6.492,0,11.754,5.263,11.754,11.754l0,0   C337.127,146.122,331.864,151.385,325.372,151.385z"/>
	<path style="fill:#FF5662;" d="M325.372,221.911h-47.018c-6.492,0-11.754-5.263-11.754-11.754l0,0   c0-6.492,5.263-11.754,11.754-11.754h47.018c6.492,0,11.754,5.263,11.754,11.754l0,0   C337.127,216.649,331.864,221.911,325.372,221.911z"/>
	<path style="fill:#FF5662;" d="M325.372,292.438h-47.018c-6.492,0-11.754-5.263-11.754-11.754l0,0   c0-6.492,5.263-11.754,11.754-11.754h47.018c6.492,0,11.754,5.263,11.754,11.754l0,0   C337.127,287.175,331.864,292.438,325.372,292.438z"/>
</g>
<g>
</g>
<g>
</g>
<g>
</g>
<g>
</g>
<g>
</g>
<g>
</g>
<g>
</g>
<g>
</g>
<g>
</g>
<g>
</g>
<g>
</g>
<g>
</g>
<g>
</g>
<g>
</g>
<g>
</g>
</svg>
