<?xml version="1.0" encoding="iso-8859-1"?>
<!-- Generator: Adobe Illustrator 19.0.0, SVG Export Plug-In . SVG Version: 6.00 Build 0)  -->
<svg xmlns="http://www.w3.org/2000/svg" xmlns:xlink="http://www.w3.org/1999/xlink" version="1.1" id="Capa_1" x="0px" y="0px" viewBox="0 0 512 512" style="enable-background:new 0 0 512 512;" xml:space="preserve">
<circle style="fill:#5C5E70;" cx="255.998" cy="255.999" r="255.998"/>
<g>
	<path style="fill:#797B89;" d="M149.961,96.626L149.961,96.626c0,16.735-13.567,30.302-30.302,30.302h-18.808   c-16.735,0-30.302,13.567-30.302,30.302l0,0c0,16.735,13.567,30.302,30.302,30.302h135.836c16.735,0,30.302-13.567,30.302-30.302   l0,0c0-16.735,13.567-30.302,30.302-30.302h18.808c16.735,0,30.302-13.567,30.302-30.302l0,0c0-16.735-13.567-30.302-30.302-30.302   H180.263C163.527,66.324,149.961,79.89,149.961,96.626z"/>
	<path style="fill:#797B89;" d="M283.66,503.086c0,2.602-0.324,5.13-0.94,7.534c-8.777,0.909-17.69,1.379-26.718,1.379   c-80.363,0-152.074-37.031-199-94.949c-5.287-6.52-10.261-13.312-14.89-20.344c2.466-4.389,3.877-9.446,3.877-14.827   c0-16.739,13.573-30.302,30.302-30.302h135.836c8.37,0,15.945,3.385,21.431,8.871c5.475,5.486,8.871,13.061,8.871,21.431   c0,16.729-13.563,30.302-30.302,30.302h-18.808c-16.729,0-30.302,13.563-30.302,30.302c0,16.729,13.573,30.302,30.302,30.302   h60.039c8.37,0,15.935,3.385,21.42,8.871C280.264,487.141,283.66,494.716,283.66,503.086z"/>
	<path style="fill:#797B89;" d="M512,256.001c0,29.748-5.068,58.305-14.399,84.866v0.01c-3.145,8.944-6.781,17.669-10.856,26.133   c-0.899,1.86-1.818,3.72-2.769,5.548c-5.298-1.379-10.021-4.148-13.782-7.91c-5.486-5.486-8.882-13.051-8.882-21.42   c0-16.739-13.563-30.302-30.302-30.302h-18.808c-8.37,0-15.935-3.396-21.42-8.882c-5.486-5.486-8.882-13.051-8.882-21.42   c0-16.739,13.573-30.302,30.302-30.302h18.808c8.37,0,15.945-3.396,21.431-8.882c5.475-5.486,8.871-13.051,8.871-21.42   c0-16.739,13.573-30.302,30.302-30.302h12.246C509.179,212.261,512,233.797,512,256.001z"/>
</g>
<path id="SVGCleanerId_0" style="fill:#25B6C9;" d="M498.825,130.022c-6.67-28.371-21.067-55.288-43.185-77.406  c16.845,16.845,27.811,37.345,32.89,58.953c9.482,40.276-1.489,84.384-32.895,115.792c-10.724,10.724-22.925,19.064-35.951,25.015  c-33.767,15.45-73.072,14.874-106.433-1.713c-11.678-5.803-22.625-13.572-32.354-23.302c-13.332-13.332-22.978-28.958-28.947-45.603  c-15.621-43.602-5.974-94.214,28.947-129.135c13.066-13.066,28.334-22.601,44.602-28.593c43.826-16.127,94.956-6.597,130.141,28.587  c-46.2-46.2-113.335-58.711-170.88-37.537c-21.361,7.867-41.408,20.387-58.564,37.544c-45.852,45.852-58.518,112.306-38.007,169.557  c7.837,21.856,20.503,42.374,38.007,59.879c12.775,12.775,27.149,22.976,42.482,30.595c43.804,21.779,95.412,22.535,139.749,2.249  c17.103-7.813,33.123-18.764,47.204-32.845C496.87,240.821,511.276,182.906,498.825,130.022z"/>
<path style="fill:#3FCDE0;" d="M455.632,282.059c-14.081,14.081-30.101,25.031-47.204,32.845  c-44.337,20.287-95.946,19.529-139.749-2.249c-15.333-7.62-29.707-17.822-42.482-30.595c-17.504-17.505-30.171-38.023-38.008-59.879  c-20.511-57.251-7.844-123.706,38.008-169.557c17.157-17.157,37.203-29.676,58.564-37.544  c57.544-21.176,124.68-8.664,170.879,37.536c22.118,22.118,36.516,49.036,43.185,77.406  C511.276,182.906,496.87,240.821,455.632,282.059z"/>
<g>
	<path id="SVGCleanerId_0_1_" style="fill:#25B6C9;" d="M498.825,130.022c-6.67-28.371-21.067-55.288-43.185-77.406   c16.845,16.845,27.811,37.345,32.89,58.953c9.482,40.276-1.489,84.384-32.895,115.792c-10.724,10.724-22.925,19.064-35.951,25.015   c-33.767,15.45-73.072,14.874-106.433-1.713c-11.678-5.803-22.625-13.572-32.354-23.302   c-13.332-13.332-22.978-28.958-28.947-45.603c-15.621-43.602-5.974-94.214,28.947-129.135   c13.066-13.066,28.334-22.601,44.602-28.593c43.826-16.127,94.956-6.597,130.141,28.587c-46.2-46.2-113.335-58.711-170.88-37.537   c-21.361,7.867-41.408,20.387-58.564,37.544c-45.852,45.852-58.518,112.306-38.007,169.557   c7.837,21.856,20.503,42.374,38.007,59.879c12.775,12.775,27.149,22.976,42.482,30.595c43.804,21.779,95.412,22.535,139.749,2.249   c17.103-7.813,33.123-18.764,47.204-32.845C496.87,240.821,511.276,182.906,498.825,130.022z"/>
</g>
<g>
	<path style="fill:#FFD662;" d="M268.679,312.656c-15.333-7.62-29.707-17.822-42.482-30.595   c-17.504-17.505-30.171-38.023-38.008-59.879c27.281-7.295,71.154-20.564,83.766-53.596   c16.229-42.505-73.742-65.783-45.759-115.962c17.157-17.157,37.203-29.676,58.564-37.544c15.665,0.719,29.855,8.138,38.2,19.035   c0,0,42.505,39.414,23.185,77.282c-19.321,37.868-57.961,44.051-56.416,73.418s42.505,33.232,23.185,72.645   C301.702,280.343,282.667,300.104,268.679,312.656z"/>
	<path style="fill:#FFD662;" d="M455.632,282.059c-14.081,14.081-30.101,25.031-47.204,32.845   c-3.98-18.926-7.751-43.935-2.774-54.352c8.501-17.775,48.688-13.138,55.644-43.278c6.956-30.14-27.049-39.414-23.957-57.961   c3.091-18.548,61.486-29.29,61.486-29.29C511.276,182.906,496.87,240.821,455.632,282.059z"/>
</g>
<g>
	<path style="fill:#EFC549;" d="M284.765,15.078c12.297,0.565,23.685,5.262,32.053,12.532c-13.011,5.96-25.206,14.297-35.919,25.011   c-17.975,17.975-29.253,40.107-33.841,63.297c-17.842-18.14-35.503-37.033-20.861-63.297   C243.356,35.469,263.403,22.944,284.765,15.078z"/>
	<path style="fill:#EFC549;" d="M313.25,250.662c0.714,0.353,1.436,0.705,2.157,1.043c-0.674,1.828-1.506,3.749-2.486,5.756   c-11.215,22.885-30.249,42.64-44.241,55.196c-15.332-7.622-29.707-17.827-42.483-30.602c-17.505-17.505-30.17-38.021-38.005-59.879   c19.904-5.325,48.655-13.826,67.635-30.877c5.968,13.065,14.32,25.308,25.073,36.06   C290.624,237.087,301.572,244.859,313.25,250.662z"/>
	<path style="fill:#EFC549;" d="M455.633,282.057c-14.078,14.085-30.1,25.034-47.205,32.845   c-3.976-18.924-7.749-43.935-2.776-54.349c0.62-1.294,1.404-2.47,2.345-3.545c3.953-1.333,7.859-2.886,11.685-4.635   c6.525-2.98,12.846-6.557,18.87-10.736c6.015-4.165,11.732-8.925,17.081-14.273c1.168-1.168,2.313-2.353,3.42-3.561   c23.888-25.841,34.727-59.4,32.484-92.245c4.454-1.011,7.293-1.537,7.293-1.537C511.276,182.91,496.869,240.82,455.633,282.057z"/>
</g>
<path style="fill:#E5B691;" d="M497.601,340.867v0.01c-3.145,8.944-6.781,17.669-10.856,26.133  c-1.912,1.609-4.054,3.009-6.405,4.148l-158.824,77.029c-15.966,7.743-34.189,9.477-51.325,4.88L98.024,406.904  c-8.861-2.372-18.275-1.39-26.457,2.759l-14.566,7.387C28.393,381.753,8.989,338.683,2.448,291.506l77.677-58.326  c23.238-17.46,53.321-23.834,81.303-15.955c1.128,0.324,2.257,0.658,3.385,1.024l152.397,48.796  c7.973,2.55,13.813,8.599,16.415,15.882c1.003,2.759,1.526,5.695,1.526,8.694c0,2.978-0.522,6.008-1.62,8.965  c-4.671,12.591-18.223,19.487-31.148,15.872l-96.475-27.021c-2.163-0.606-4.347-0.899-6.478-0.899  c-10.982,0-20.94,7.628-23.353,18.892c-0.021,0.073-0.042,0.146-0.052,0.219c-2.508,12.236,4.817,24.346,16.823,27.794  l110.612,31.786c9.832,2.821,20.334,2.236,29.779-1.682l121.876-50.531c3.845-1.599,7.847-2.351,11.776-2.351  c11.421,0,22.34,6.384,27.658,17.23c0.721,1.463,1.306,2.957,1.776,4.462C496.995,336.509,497.413,338.683,497.601,340.867z"/>
<path style="fill:#F7CEA6;" d="M496.327,334.357c-1.442,9.728-7.513,18.599-17.032,23.217l-158.824,77.029  c-15.966,7.743-34.189,9.477-51.325,4.88L96.98,393.32c-8.861-2.372-18.275-1.39-26.457,2.759l-21.337,10.836  c-24.325-33.28-40.813-72.662-46.738-115.408l77.677-58.326c23.238-17.46,53.321-23.834,81.303-15.955  c1.128,0.324,2.257,0.658,3.385,1.024l152.397,48.796c7.973,2.55,13.813,8.599,16.415,15.882c-0.261,1.369-0.637,2.727-1.139,4.075  c-4.671,12.591-18.223,19.487-31.148,15.872l-96.475-27.021c-2.163-0.606-4.347-0.899-6.478-0.899  c-11.055,0-21.065,7.732-23.406,19.111c-0.951,4.629-0.491,9.237,1.097,13.364c-0.021,0.073-0.042,0.146-0.052,0.219  c-2.508,12.236,4.817,24.346,16.823,27.794l110.612,31.786c9.832,2.821,20.334,2.236,29.779-1.682l121.876-50.531  c3.845-1.599,7.847-2.351,11.776-2.351c11.421,0,22.34,6.384,27.658,17.23C495.271,331.358,495.856,332.852,496.327,334.357z"/>
<g>
</g>
<g>
</g>
<g>
</g>
<g>
</g>
<g>
</g>
<g>
</g>
<g>
</g>
<g>
</g>
<g>
</g>
<g>
</g>
<g>
</g>
<g>
</g>
<g>
</g>
<g>
</g>
<g>
</g>
</svg>
