<?xml version="1.0" encoding="iso-8859-1"?>
<!-- Generator: Adobe Illustrator 19.0.0, SVG Export Plug-In . SVG Version: 6.00 Build 0)  -->
<svg xmlns="http://www.w3.org/2000/svg" xmlns:xlink="http://www.w3.org/1999/xlink" version="1.1" id="Capa_1" x="0px" y="0px" viewBox="0 0 512 512" style="enable-background:new 0 0 512 512;" xml:space="preserve">
<circle style="fill:#3FCDE0;" cx="255.998" cy="255.999" r="255.998"/>
<g>
	<path style="fill:#74D9EF;" d="M512,256.001c0,23.144-3.072,45.578-8.829,66.904h-91.501c-8.37,0-15.945-3.396-21.431-8.882   c-5.486-5.475-8.871-13.061-8.871-21.42c0-16.739,13.563-30.302,30.302-30.302h18.808c16.729,0,30.302-13.573,30.302-30.302   c0-16.739,13.563-30.302,30.302-30.302h15.14C510.004,219.199,512,237.37,512,256.001z"/>
	<path style="fill:#74D9EF;" d="M141.461,321.839c0,16.729-13.563,30.302-30.302,30.302H18.675   C6.628,322.456,0.003,290.001,0.003,256c0-30.041,5.172-58.88,14.691-85.671h55.243c8.37,0,15.935,3.385,21.42,8.871   c5.486,5.486,8.882,13.061,8.882,21.431c0,16.729-13.573,30.302-30.302,30.302H51.13c-16.739,0-30.302,13.562-30.302,30.302   c0,16.729,13.563,30.302,30.302,30.302h60.029c8.37,0,15.945,3.385,21.431,8.871C138.075,305.894,141.461,313.47,141.461,321.839z"/>
</g>
<path style="fill:#F7F7F7;" d="M430.801,99.173v343.842c-45.756,42.799-107.216,68.984-174.8,68.984  c-67.594,0-129.065-26.195-174.821-68.994V99.173l174.821-81.136L430.801,99.173z"/>
<polygon style="fill:#E5E5E5;" points="430.801,108.702 430.801,135.41 256.002,48.851 81.181,135.41 81.181,108.702   256.002,22.143 316.94,52.32 396.487,91.712 "/>
<polygon style="fill:#FF5662;" points="81.185,115.04 8.781,150.89 8.781,124.181 256.003,1.772 316.941,31.944 396.49,71.333   503.224,124.181 503.224,150.89 430.806,115.04 256.003,28.482 "/>
<path style="fill:#3FBD77;" d="M165.768,420.958h-29.625v-29.625c0-69.192,33.433-130.526,85.026-168.81  c6.514-4.831,13.33-9.301,20.405-13.389c30.808-17.739,66.546-27.881,104.669-27.881h29.605v29.605  c0,21.869-3.347,42.935-9.541,62.777c-2.244,7.176-4.87,14.192-7.838,21.005c-10.884,25.015-26.498,47.504-45.7,66.326  c-6.976,6.854-14.452,13.208-22.349,19.021C255.545,405.744,212.45,420.958,165.768,420.958z"/>
<path style="fill:#34A375;" d="M151.396,420.958h-15.253v-15.253l93.605-93.606l-8.579-89.576  c6.514-4.831,13.33-9.301,20.405-13.389l7.958,83.182l111.043-111.064h15.273v15.253l-72.239,72.239l62.698,4.89  c-2.244,7.176-4.87,14.192-7.838,21.005l-74.924-5.833l-61.314,61.314l90.538,10.844c-6.976,6.854-14.452,13.208-22.349,19.021  l-87.612-10.443L151.396,420.958z"/>
<g>
</g>
<g>
</g>
<g>
</g>
<g>
</g>
<g>
</g>
<g>
</g>
<g>
</g>
<g>
</g>
<g>
</g>
<g>
</g>
<g>
</g>
<g>
</g>
<g>
</g>
<g>
</g>
<g>
</g>
</svg>
