<?xml version="1.0" encoding="iso-8859-1"?>
<!-- Generator: Adobe Illustrator 19.0.0, SVG Export Plug-In . SVG Version: 6.00 Build 0)  -->
<svg xmlns="http://www.w3.org/2000/svg" xmlns:xlink="http://www.w3.org/1999/xlink" version="1.1" id="Capa_1" x="0px" y="0px" viewBox="0 0 511.999 511.999" style="enable-background:new 0 0 511.999 511.999;" xml:space="preserve">
<circle style="fill:#FF5662;" cx="255.999" cy="255.999" r="255.999"/>
<path style="fill:#FC757B;" d="M481.691,183.39c0,137.853-101.041,249.605-225.687,249.605S30.317,321.243,30.317,183.39  c0-20.584,2.257-40.584,6.499-59.716c0.073-0.115,0.136-0.23,0.209-0.345c0-0.01,0-0.01,0-0.01  c12.925-21.285,28.86-40.521,47.219-57.145C129.665,25.046,189.904,0,256.004,0c66.382,0,126.85,25.255,172.335,66.696  c17.074,15.548,32.036,33.384,44.408,53.018c0.825,1.317,1.64,2.633,2.445,3.96C479.434,142.806,481.691,162.805,481.691,183.39z"/>
<g>
	<path style="fill:#FFD662;" d="M222.129,342.38v63.756h-50.307c-1.659,0-3.289,0.161-4.86,0.469v-51.98   c8.076,1.836,16.754,1.468,25.123-1.528L222.129,342.38z"/>
	<path style="fill:#FFD662;" d="M349.335,247.162v160.692c-2.848-1.116-5.932-1.718-9.163-1.718h-46.005V266.854L349.335,247.162z"/>
</g>
<path style="fill:#EFC549;" d="M349.335,284.656v49.016c0,0-30.639-4.837-55.167,19.691v-49.016L349.335,284.656z"/>
<g>
	<path style="fill:#FFD662;" d="M255.975,29.145L195.4,106.512c-8.869,3.171-52.121-8.359-57.261-26.988   c-4.993-7.768-7.753-16.887-7.753-26.299c0-5.418,0.91-10.924,2.848-16.329c9.015-25.271,36.812-38.442,62.082-29.412   L255.975,29.145z"/>
	<path style="fill:#FFD662;" d="M379.936,137.101l-2.32-6.491c-6.671-18.681-24.385-30.236-43.179-29.963l18.158-6.481   c23.479-8.384,35.725-34.213,27.341-57.693l-2.32-6.49c-8.384-23.48-34.213-35.726-57.707-27.342l-63.933,22.834l-96.56,34.477   c-8.869,3.171-16.137,8.825-21.277,15.902c-8.517,11.659-11.278,27.18-6.065,41.791l2.305,6.475   c6.676,18.706,24.42,30.259,43.226,29.964l-18.191,6.496c-23.479,8.384-35.725,34.213-27.341,57.693l2.305,6.475   c6.804,19.065,25.105,30.713,44.31,29.946l-19.274,6.881c-23.479,8.384-35.725,34.228-27.341,57.708l2.305,6.475   c5.389,15.109,18.017,25.564,32.583,28.868c8.076,1.836,16.754,1.468,25.123-1.528l30.043-10.719v-0.015l72.038-25.711   l55.167-19.691l3.26-1.16c23.479-8.384,35.725-34.213,27.341-57.706l-2.32-6.476c-6.803-19.052-25.093-30.706-44.3-29.945   l19.279-6.883C376.074,186.408,388.32,160.58,379.936,137.101z"/>
</g>
<path style="fill:#EFC549;" d="M204.226,247.757l17.903-6.387v-0.015l12.748-4.549c-5.104,0.586-10.19,0.298-15.056-0.809  c-14.566-3.304-27.194-13.759-32.583-28.868l-2.306-6.475c-7.172-20.084,0.761-41.888,17.898-53.025l19.299-6.886v-0.015  l12.748-4.549c-5.104,0.587-10.19,0.298-15.056-0.809c-14.566-3.304-27.194-13.758-32.583-28.868l-2.306-6.475  c-8.384-23.479,3.862-49.322,27.342-57.708l-52.859,17.619c-23.479,8.384-35.726,34.228-27.341,57.708l2.305,6.475  c5.389,15.109,18.017,25.564,32.583,28.868c3.897,0.886,7.936,1.244,12.011,1.057l-19.558,6.519  c-23.479,8.384-35.726,34.228-27.341,57.707l2.305,6.475c5.389,15.109,18.017,25.564,32.583,28.868  c4.359,0.991,8.895,1.314,13.462,0.955l-21.01,7.004c-23.479,8.384-35.726,34.228-27.341,57.708l2.305,6.475  c5.389,15.109,18.017,25.564,32.583,28.868v36.709c22.864-18.024,55.167-12.246,55.167-12.246V342.38v-0.015l12.748-4.549  c-5.104,0.586-10.19,0.298-15.056-0.809c-14.566-3.304-27.194-13.759-32.583-28.868l-2.306-6.475  C177.568,281.038,186.124,258.595,204.226,247.757z"/>
<path style="fill:#F7F7F7;" d="M365.498,429.254v3.856c0,13.991-11.337,25.328-25.328,25.328h-9.958  c14.002,0,25.339,11.337,25.339,25.328v3.866c0,1.526-0.136,3.02-0.397,4.462c-30.49,12.821-63.989,19.905-99.15,19.905  s-68.66-7.084-99.161-19.916c-0.261-1.442-0.397-2.936-0.397-4.451v-3.866c0-13.991,11.337-25.328,25.328-25.328h-9.947  c-13.981,0-25.328-11.337-25.328-25.328v-3.856c0-12.33,8.808-22.591,20.459-24.848c1.578-0.313,3.208-0.47,4.869-0.47H340.17  c3.229,0,6.311,0.596,9.164,1.714C358.79,409.307,365.498,418.502,365.498,429.254z"/>
<path style="fill:#E5E5E5;" d="M217.666,509.146c-21.243-3.187-41.629-8.986-60.823-17.063c-0.261-1.442-0.397-2.936-0.397-4.451  v-3.866c0-13.991,11.337-25.328,25.328-25.328h-9.947c-13.981,0-25.328-11.337-25.328-25.328v-3.856  c0-12.33,8.808-22.591,20.469-24.848c1.567-0.313,3.197-0.47,4.859-0.47h49.246c-1.661,0-3.291,0.157-4.859,0.47  c-11.661,2.257-20.469,12.518-20.469,24.848v3.856c0,13.991,11.348,25.328,25.328,25.328h9.958  c-13.991,0-25.328,11.337-25.328,25.328v3.866C205.702,496.712,210.478,504.674,217.666,509.146z"/>
<g>
	<circle style="fill:#FCE39D;" cx="338.118" cy="44.314" r="22.173"/>
	<circle style="fill:#FCE39D;" cx="338.118" cy="152.461" r="22.173"/>
	<circle style="fill:#FCE39D;" cx="338.118" cy="251.193" r="22.173"/>
</g>
<g>
</g>
<g>
</g>
<g>
</g>
<g>
</g>
<g>
</g>
<g>
</g>
<g>
</g>
<g>
</g>
<g>
</g>
<g>
</g>
<g>
</g>
<g>
</g>
<g>
</g>
<g>
</g>
<g>
</g>
</svg>
