<?xml version="1.0" encoding="iso-8859-1"?>
<!-- Generator: Adobe Illustrator 19.0.0, SVG Export Plug-In . SVG Version: 6.00 Build 0)  -->
<svg xmlns="http://www.w3.org/2000/svg" xmlns:xlink="http://www.w3.org/1999/xlink" version="1.1" id="Capa_1" x="0px" y="0px" viewBox="0 0 511.999 511.999" style="enable-background:new 0 0 511.999 511.999;" xml:space="preserve">
<circle style="fill:#5C5E70;" cx="255.999" cy="255.999" r="255.999"/>
<path style="fill:#FF5662;" d="M507.276,169.691l-6.813,10.104l-76.34,112.483L302.038,209.69  c-12.643-8.526-15.987-25.684-7.471-38.327c8.526-12.643,25.684-15.987,38.327-7.461l49.81,33.552  c-22.444-81.878-97.468-142.242-186.368-142.242c-106.558,0-193.243,86.695-193.243,193.253s86.685,193.243,193.243,193.243  c56.278,0,109.641-24.471,146.432-67.135c9.958-11.557,27.387-12.831,38.933-2.884c11.546,9.958,12.842,27.387,2.884,38.943  c-47.282,54.836-115.889,86.298-188.248,86.298c-11.139,0-22.12-0.742-32.872-2.163C67.814,457.664,0,364.752,0,255.999  C0,124.792,98.711,16.645,225.917,1.755c99.579,11.87,181.216,82.892,208.802,176.807l26.77-39.727  c3.918-5.82,9.686-9.676,15.987-11.295c7.387-1.912,15.517-0.763,22.34,3.824C512.459,139.891,515.803,157.048,507.276,169.691z"/>
<path style="fill:#F7F7F7;" d="M341.685,37.428v459.075c0,0.272,0,0.543-0.021,0.815c-9.3,3.302-18.85,6.081-28.609,8.296  c-18.348,4.18-37.439,6.384-57.051,6.384c-60.144,0-115.451-20.741-159.138-55.474c-28.933-26.676-51.869-59.747-66.56-96.977  V37.428C30.306,16.76,47.066,0,67.734,0h236.523c6.071,0,11.818,1.452,16.896,4.023c3.615,1.839,6.896,4.242,9.718,7.105  C337.558,17.878,341.685,27.178,341.685,37.428z"/>
<path style="fill:#3FCDE0;" d="M325.583,73.696v386.538H101.004c-21.682-19.132-40.187-41.806-54.596-67.114V73.696H325.583z"/>
<polygon style="fill:#74D9EF;" points="325.583,73.696 325.583,460.235 127.105,460.235 323.274,73.696 "/>
<path style="fill:#494B5B;" d="M217.363,46.46h-62.737c-4.616,0-8.359-3.743-8.359-8.359V37.64c0-4.616,3.743-8.359,8.359-8.359  h62.737c4.616,0,8.359,3.743,8.359,8.359v0.461C225.723,42.717,221.981,46.46,217.363,46.46z"/>
<g>
	<path style="fill:#FF5662;" d="M3.093,248.466c0,106.558,86.685,193.243,193.243,193.243c56.278,0,109.641-24.471,146.432-67.135   c9.958-11.557,27.387-12.831,38.933-2.884c11.546,9.958,12.842,27.387,2.884,38.943c-47.282,54.836-115.889,86.298-188.248,86.298   c-11.139,0-22.12-0.742-32.872-2.163C67.814,457.664,0,364.752,0,255.999"/>
	<path style="fill:#FF5662;" d="M434.718,178.562l26.77-39.727c3.918-5.82,9.686-9.676,15.987-11.295   c7.387-1.912,15.517-0.763,22.34,3.824c12.643,8.526,15.987,25.684,7.461,38.327l-6.813,10.104l-76.34,112.483L302.038,209.69   c-12.643-8.526-15.987-25.684-7.471-38.327c8.526-12.643,25.684-15.987,38.327-7.461l49.81,33.552"/>
</g>
<g>
</g>
<g>
</g>
<g>
</g>
<g>
</g>
<g>
</g>
<g>
</g>
<g>
</g>
<g>
</g>
<g>
</g>
<g>
</g>
<g>
</g>
<g>
</g>
<g>
</g>
<g>
</g>
<g>
</g>
</svg>
