<?xml version="1.0" encoding="iso-8859-1"?>
<!-- Generator: Adobe Illustrator 19.0.0, SVG Export Plug-In . SVG Version: 6.00 Build 0)  -->
<svg xmlns="http://www.w3.org/2000/svg" xmlns:xlink="http://www.w3.org/1999/xlink" version="1.1" id="Capa_1" x="0px" y="0px" viewBox="0 0 512 512" style="enable-background:new 0 0 512 512;" xml:space="preserve">
<circle style="fill:#34A375;" cx="256" cy="256" r="256"/>
<path style="fill:#E5E5E5;" d="M491.617,66.36v289.917c-8.547,20.062-19.581,38.808-32.726,55.86  c-21.013,27.261-47.386,50.166-77.563,67.135c-37.042,20.846-79.788,32.726-125.325,32.726s-88.283-11.88-125.325-32.726  c-30.177-16.969-56.56-39.884-77.573-67.145c-13.134-17.053-24.179-35.809-32.726-55.871V66.36c0-14.137,11.463-25.6,25.6-25.6  h420.038C480.155,40.76,491.617,52.223,491.617,66.36z"/>
<path style="fill:#F7F7F7;" d="M458.891,73.487v338.651c-21.013,27.261-47.386,50.166-77.563,67.135h-250.65  c-30.177-16.969-56.56-39.884-77.573-67.145V73.487H458.891z"/>
<path style="fill:#D3D3D3;" d="M370.31,276.381c0-13.946,10.656-25.394,24.269-26.67C382.11,184.533,324.812,135.274,256,135.274  s-126.11,49.26-138.579,114.437c13.613,1.275,24.269,12.723,24.269,26.67c0,13.946-10.656,25.394-24.269,26.669  C129.89,368.227,187.188,417.487,256,417.487s126.109-49.261,138.579-114.438C380.966,301.775,370.31,290.327,370.31,276.381z"/>
<g>
	<circle style="fill:#5C5E70;" cx="198.687" cy="276.375" r="24.311"/>
	<circle style="fill:#5C5E70;" cx="313.313" cy="276.375" r="24.311"/>
</g>
<path style="fill:#E5E5E5;" d="M370.305,276.385c0-13.949,10.658-25.401,24.273-26.676  c-12.466-65.17-69.768-114.437-138.574-114.437c-68.817,0-126.109,49.267-138.585,114.437c13.615,1.275,24.273,12.727,24.273,26.676  c0,13.939-10.658,25.391-24.273,26.666c12.476,65.181,69.768,114.437,138.585,114.437c68.807,0,126.109-49.256,138.574-114.437  C380.962,301.776,370.305,290.324,370.305,276.385z M256.003,401.783c-55.526,0-103.978-36.53-119.902-88.566  c3.741-2.152,7.168-4.89,10.146-8.14c7.189-7.847,11.149-18.045,11.149-28.693c0-10.658-3.96-20.856-11.149-28.703  c-2.978-3.25-6.405-5.987-10.146-8.14c15.924-52.036,64.376-88.555,119.902-88.555s103.967,36.519,119.892,88.555  c-3.741,2.152-7.158,4.89-10.136,8.14c-7.199,7.847-11.159,18.045-11.159,28.703c0,10.647,3.96,20.846,11.159,28.693  c2.978,3.25,6.395,5.987,10.136,8.14C359.97,365.253,311.529,401.783,256.003,401.783z"/>
<path style="fill:#FCF8F2;" d="M429.91,191.497h-15.534c-6.675,0-12.085-5.41-12.085-12.085v-71.959  c0-6.675,5.41-12.085,12.085-12.085h15.534c6.675,0,12.085,5.41,12.085,12.085v71.959  C441.995,186.087,436.584,191.497,429.91,191.497z"/>
<g>
</g>
<g>
</g>
<g>
</g>
<g>
</g>
<g>
</g>
<g>
</g>
<g>
</g>
<g>
</g>
<g>
</g>
<g>
</g>
<g>
</g>
<g>
</g>
<g>
</g>
<g>
</g>
<g>
</g>
</svg>
