<?xml version="1.0" encoding="iso-8859-1"?>
<!-- Generator: Adobe Illustrator 19.0.0, SVG Export Plug-In . SVG Version: 6.00 Build 0)  -->
<svg xmlns="http://www.w3.org/2000/svg" xmlns:xlink="http://www.w3.org/1999/xlink" version="1.1" id="Capa_1" x="0px" y="0px" viewBox="0 0 512 512" style="enable-background:new 0 0 512 512;" xml:space="preserve">
<circle style="fill:#3FCDE0;" cx="256" cy="256" r="256"/>
<g>
	<path style="fill:#74D9EF;" d="M275.856,257.587c0,16.729-13.563,30.302-30.302,30.302h-18.808c-8.359,0-15.945,3.396-21.42,8.871   c-5.486,5.486-8.882,13.061-8.882,21.431c0,16.729-13.563,30.302-30.302,30.302H30.305c-5.235,0-10.167-1.327-14.461-3.668   c-5.016-13.531-8.913-27.606-11.588-42.109c5.277-8.882,14.973-14.827,26.049-14.827h18.808c16.739,0,30.302-13.573,30.302-30.302   c0-16.739,13.573-30.302,30.302-30.302h135.837c8.37,0,15.945,3.396,21.431,8.871C272.471,241.642,275.856,249.218,275.856,257.587   z"/>
	<path style="fill:#74D9EF;" d="M479.465,380.99c-12.1,21.588-27.241,41.253-44.847,58.399H332.27   c-16.729,0-30.302-13.563-30.302-30.302c0-8.37-3.396-15.945-8.871-21.431c-5.486-5.486-13.061-8.871-21.431-8.871h-18.808   c-16.729,0-30.302-13.563-30.302-30.302c0-8.37,3.396-15.945,8.882-21.431c5.486-5.486,13.051-8.871,21.42-8.871h135.837   c16.739,0,30.302,13.563,30.302,30.302c0,16.739,13.573,30.302,30.302,30.302h18.808   C472.13,378.785,475.965,379.569,479.465,380.99z"/>
	<path style="fill:#74D9EF;" d="M360.99,178.058L360.99,178.058c0-16.735,13.567-30.302,30.302-30.302H410.1   c16.735,0,30.302-13.567,30.302-30.302l0,0c0-16.735-13.567-30.302-30.302-30.302H274.264c-16.735,0-30.302,13.567-30.302,30.302   l0,0c0,16.735-13.567,30.302-30.302,30.302h-18.808c-16.735,0-30.302,13.567-30.302,30.302l0,0   c0,16.735,13.567,30.302,30.302,30.302h18.808c16.735,0,30.302,13.567,30.302,30.302l0,0c0,16.735,13.567,30.302,30.302,30.302   h177.061c16.735,0,30.302-13.567,30.302-30.302l0,0c0-16.735-13.567-30.302-30.302-30.302h-60.033   C374.557,208.36,360.99,194.793,360.99,178.058z"/>
</g>
<path style="fill:#5C5E70;" d="M271.374,445.042v66.497c-5.089,0.303-10.209,0.46-15.37,0.46c-5.162,0-10.292-0.157-15.381-0.46  v-66.497H271.374z"/>
<path style="fill:#3FBD77;" d="M212.052,390.754v50.482c0,17.886,14.499,32.383,32.383,32.383h23.111  c17.885,0,32.383-14.499,32.383-32.383v-50.482H212.052z"/>
<path style="fill:#34A375;" d="M243.504,441.236v-50.482h-31.452v50.482c0,17.884,14.499,32.383,32.383,32.383h23.111  c1.415,0,2.804-0.1,4.171-0.277C255.804,471.296,243.504,457.707,243.504,441.236z"/>
<path style="fill:#D3D3D3;" d="M160.457,15.784l-0.011,149.212c0,8.719,7.061,15.78,15.78,15.78c2.092,0,4.066-0.4,5.875-1.127  c5.804-2.327,9.906-8.002,9.906-14.653l0.011-149.212c0-6.651-4.101-12.326-9.917-14.641c-1.81-0.728-3.795-1.139-5.863-1.14  C167.519,0.003,160.457,7.066,160.457,15.784z"/>
<path style="fill:#E5E5E5;" d="M172.206,15.784l-0.011,149.212c0,6.651,4.101,12.326,9.906,14.653  c5.804-2.327,9.906-8.002,9.906-14.653l0.011-149.212c0-6.651-4.101-12.326-9.917-14.641C176.296,3.47,172.208,9.157,172.206,15.784  z"/>
<path style="fill:#D3D3D3;" d="M335.771,180.781c8.717,0,15.781-7.066,15.781-15.781V15.781C351.552,7.066,344.487,0,335.771,0  c-8.717,0-15.781,7.066-15.781,15.781V165C319.99,173.715,327.054,180.781,335.771,180.781z"/>
<path style="fill:#E5E5E5;" d="M331.74,15.781l-0.011,149.212c0,6.651,4.1,12.326,9.906,14.653  c5.804-2.327,9.906-8.002,9.906-14.653l0.011-149.212c0-6.651-4.101-12.326-9.917-14.641C335.83,3.467,331.742,9.154,331.74,15.781z  "/>
<path style="fill:#D3D3D3;" d="M132.481,164.997l0.012,134.595c0,34.098,13.818,64.977,36.177,87.338  c22.348,22.348,53.239,36.178,87.338,36.178c50.642,0,94.176-30.491,113.235-74.107c6.604-15.134,10.281-31.854,10.282-49.409  l-0.011-134.595L132.481,164.997z"/>
<path style="fill:#E5E5E5;" d="M153.63,164.997l0.011,101.696c0,34.098,13.818,64.977,36.178,87.338  c22.348,22.348,53.239,36.177,87.338,36.177c36.589,0,69.454-15.921,92.085-41.207c6.604-15.134,10.281-31.854,10.282-49.409  l-0.011-134.595L153.63,164.997z"/>
<path style="fill:#3FBD77;" d="M108.387,180.781h295.227c8.717,0,15.781-7.066,15.781-15.781s-7.065-15.781-15.781-15.781H108.387  c-8.717,0-15.781,7.066-15.781,15.781C92.605,173.715,99.67,180.781,108.387,180.781z"/>
<path style="fill:#5CD68B;" d="M214.46,327.495h-13.639v-13.639c0-31.856,15.392-60.094,39.146-77.72  c2.999-2.224,6.137-4.282,9.395-6.164c14.183-8.167,30.637-12.837,48.19-12.837h13.63v13.63c0,10.068-1.541,19.766-4.393,28.903  c-1.033,3.304-2.242,6.534-3.608,9.672c-5.011,11.517-12.199,21.871-21.04,30.536c-3.211,3.156-6.654,6.081-10.289,8.757  C255.792,320.49,235.952,327.495,214.46,327.495z"/>
<path style="fill:#34A375;" d="M207.843,327.495h-7.023v-7.023l43.096-43.096l-3.95-41.241c2.999-2.224,6.137-4.282,9.395-6.164  l3.663,38.297l51.124-51.133h7.032v7.023l-33.258,33.258l28.865,2.252c-1.033,3.304-2.242,6.534-3.608,9.672l-34.495-2.685  l-28.229,28.229l41.683,4.993c-3.211,3.156-6.654,6.081-10.289,8.757l-40.336-4.808L207.843,327.495z"/>
<g>
</g>
<g>
</g>
<g>
</g>
<g>
</g>
<g>
</g>
<g>
</g>
<g>
</g>
<g>
</g>
<g>
</g>
<g>
</g>
<g>
</g>
<g>
</g>
<g>
</g>
<g>
</g>
<g>
</g>
</svg>
