<?xml version="1.0" encoding="iso-8859-1"?>
<!-- Generator: Adobe Illustrator 19.0.0, SVG Export Plug-In . SVG Version: 6.00 Build 0)  -->
<svg xmlns="http://www.w3.org/2000/svg" xmlns:xlink="http://www.w3.org/1999/xlink" version="1.1" id="Capa_1" x="0px" y="0px" viewBox="0 0 512 512" style="enable-background:new 0 0 512 512;" xml:space="preserve">
<circle style="fill:#FFD662;" cx="255.998" cy="255.999" r="255.998"/>
<g>
	<path style="fill:#FCE39D;" d="M503.839,191.635c-1.86,0.366-3.793,0.554-5.757,0.554H362.246c-8.37,0-15.945-3.396-21.431-8.882   c-5.486-5.475-8.871-13.061-8.871-21.42c0-16.739,13.563-30.302,30.302-30.302h18.808c16.729,0,30.302-13.573,30.302-30.302   c0-14.075,9.592-25.913,22.601-29.32C467.268,104.188,491.865,145.367,503.839,191.635z"/>
	<path style="fill:#FCE39D;" d="M168.272,234.34c0,16.739-13.563,30.302-30.302,30.302H0.149c-0.094-2.873-0.146-5.747-0.146-8.641   c0-7.199,0.293-14.325,0.878-21.368c4.827-58.336,29.205-111.135,66.591-151.802H96.75c8.37,0,15.935,3.396,21.42,8.882   c5.486,5.475,8.882,13.061,8.882,21.42c0,16.739-13.573,30.302-30.302,30.302H77.942c-16.739,0-30.302,13.573-30.302,30.302   c0,16.739,13.563,30.302,30.302,30.302h60.029c8.37,0,15.945,3.396,21.431,8.882C164.887,218.395,168.272,225.981,168.272,234.34z"/>
	<path style="fill:#FCE39D;" d="M437.656,436.37c-6.865,6.917-14.127,13.437-21.744,19.539   c-15.778,12.654-33.092,23.468-51.618,32.13c-0.522,0.24-1.045,0.481-1.567,0.721H239.879c-8.37,0-15.935-3.396-21.42-8.871   c-5.486-5.486-8.882-13.061-8.882-21.431c0-16.729-13.563-30.302-30.302-30.302h-18.808c-8.37,0-15.935-3.396-21.42-8.871   c-5.486-5.486-8.882-13.061-8.882-21.431c0-16.729,13.573-30.302,30.302-30.302h18.808c8.37,0,15.945-3.396,21.431-8.871   c5.475-5.486,8.871-13.061,8.871-21.431c0-16.729,13.573-30.302,30.302-30.302h135.836c8.37,0,15.945,3.396,21.431,8.882   c5.475,5.486,8.871,13.051,8.871,21.42c0,16.739-13.563,30.302-30.302,30.302h-18.808c-16.729,0-30.302,13.573-30.302,30.302   c0,16.739,13.573,30.302,30.302,30.302h60.039C424.961,428.157,432.233,431.271,437.656,436.37z"/>
</g>
<path style="fill:#3FBD77;" d="M512,256.001c0,17.669-1.787,34.931-5.204,51.586c0,0,0,0,0,0.01  c-17.889,21.567-34.293,36.853-48.608,47.689c-27.825,21.075-43.154,54.554-42.412,89.474c0.073,3.271,0.157,7.095,0.136,11.149  c-15.778,12.654-33.092,23.468-51.618,32.13c-58.859-15.987-85.483-46.581-97.488-69.757c-8.913-17.22-9.759-30.344-9.759-30.344  s-0.857,13.228-9.759,30.542c-12.068,23.468-38.933,54.428-98.544,70.029c-18.098-8.359-35.056-18.777-50.573-30.929  c-0.042-4.671,0.052-9.101,0.136-12.821c0.742-34.92-14.576-68.399-42.412-89.474c-15.036-11.389-32.402-27.7-51.356-51.053  c-2.978-15.621-4.535-31.744-4.535-48.232c0-7.199,0.293-14.325,0.878-21.368c22.81-19.989,58.18-43.938,98.554-46.226  c18.16-1.024,33.677-13.333,38.713-30.803C154.375,101.315,180.372,38.35,257.036,0.013c0.01,0,0.01,0,0.01,0s0,0,0.01,0  c76.674,38.337,102.65,101.302,118.877,157.591c5.036,17.471,20.553,29.779,38.713,30.803c39.079,2.215,73.466,24.712,96.308,44.272  C511.645,240.359,512,248.132,512,256.001z"/>
<path style="fill:#34A375;" d="M257.046,0.013v387.926c0,0-0.857,13.228-9.759,30.542c-12.068,23.468-38.933,54.428-98.544,70.029  c-18.098-8.359-35.056-18.777-50.573-30.929c-0.042-4.671,0.052-9.101,0.136-12.821c0.742-34.92-14.576-68.399-42.412-89.474  c-15.036-11.389-32.402-27.7-51.356-51.053c-2.978-15.621-4.535-31.744-4.535-48.232c0-7.199,0.293-14.325,0.878-21.368  c22.81-19.989,58.18-43.938,98.554-46.226c18.16-1.024,33.677-13.333,38.713-30.803C154.375,101.315,180.372,38.35,257.036,0.013  C257.036,0.002,257.046,0.013,257.046,0.013z"/>
<path style="fill:#2B8F6C;" d="M456.433,284.474c-120.528,32.454-174.455,78.127-189.627,93.11v134.185  c-3.584,0.157-7.189,0.23-10.804,0.23c-2.915,0-5.82-0.052-8.714-0.146V377.584c-15.172-14.984-69.109-60.656-189.637-93.11  c-3.469-0.94-5.517-4.503-4.587-7.973c0.94-3.469,4.503-5.527,7.973-4.598c106.683,28.735,162.293,67.155,186.252,87.865v-131.51  l-63.498-58.744c-2.633-2.435-2.8-6.551-0.355-9.185c2.435-2.644,6.551-2.8,9.195-0.366l54.658,50.562V41.944  c0-5.392,4.368-9.759,9.759-9.759c5.392,0,9.759,4.368,9.759,9.759v168.583l54.658-50.562c2.633-2.435,6.75-2.278,9.195,0.366  c2.435,2.633,2.278,6.75-0.366,9.185l-63.488,58.733v131.52c23.949-20.71,79.558-59.13,186.241-87.865  c3.469-0.93,7.043,1.128,7.973,4.598C461.96,279.97,459.902,283.533,456.433,284.474z"/>
<g>
</g>
<g>
</g>
<g>
</g>
<g>
</g>
<g>
</g>
<g>
</g>
<g>
</g>
<g>
</g>
<g>
</g>
<g>
</g>
<g>
</g>
<g>
</g>
<g>
</g>
<g>
</g>
<g>
</g>
</svg>
