<?xml version="1.0" encoding="iso-8859-1"?>
<!-- Generator: Adobe Illustrator 19.0.0, SVG Export Plug-In . SVG Version: 6.00 Build 0)  -->
<svg xmlns="http://www.w3.org/2000/svg" xmlns:xlink="http://www.w3.org/1999/xlink" version="1.1" id="Capa_1" x="0px" y="0px" viewBox="0 0 512 512" style="enable-background:new 0 0 512 512;" xml:space="preserve">
<circle style="fill:#FFD662;" cx="256" cy="256" r="256"/>
<g>
	<path style="fill:#FCE39D;" d="M417.68,68.408c0,16.739-13.563,30.302-30.302,30.302H368.57c-8.37,0-15.945,3.396-21.431,8.882   c-5.475,5.475-8.871,13.061-8.871,21.42c0,16.739-13.563,30.302-30.302,30.302H172.129c-8.37,0-15.945-3.385-21.431-8.871   c-5.475-5.486-8.871-13.061-8.871-21.431c0-16.729,13.563-30.302,30.302-30.302h18.808c16.739,0,30.302-13.563,30.302-30.302   c0-16.729,13.563-30.302,30.302-30.302h135.837c1.139,0,2.267,0.063,3.375,0.188c8.255,5.12,16.196,10.7,23.792,16.697   C416.552,59.036,417.68,63.591,417.68,68.408z"/>
	<path style="fill:#FCE39D;" d="M201.522,258.998c0,8.37-3.385,15.945-8.871,21.431c-5.486,5.486-13.061,8.871-21.431,8.871H35.383   c-16.729,0-30.302-13.563-30.302-30.302c0-5.987-1.735-11.567-4.733-16.269c1.327-26.102,6.572-51.169,15.151-74.637h76.309   c16.739,0,30.302,13.563,30.302,30.302s13.573,30.302,30.302,30.302h18.808C187.959,228.696,201.522,242.259,201.522,258.998z"/>
	<path style="fill:#FCE39D;" d="M475.432,337.783c0,16.739-13.563,30.302-30.302,30.302h-18.808   c-16.739,0-30.302,13.563-30.302,30.302c0,16.739,13.563,30.302,30.302,30.302h18.651c-23.259,25.454-51.597,46.185-83.404,60.604   h-52.276c-8.37,0-15.945-3.385-21.431-8.871s-8.871-13.061-8.871-21.431c0-16.739-13.563-30.302-30.302-30.302h-18.808   c-8.37,0-15.945-3.385-21.431-8.871s-8.871-13.061-8.871-21.431c0-16.739,13.563-30.302,30.302-30.302h18.808   c8.37,0,15.945-3.385,21.431-8.871s8.871-13.061,8.871-21.431c0-16.739,13.563-30.302,30.302-30.302H445.13   c8.37,0,15.945,3.385,21.431,8.871C472.046,321.838,475.432,329.413,475.432,337.783z"/>
</g>
<g>
	<path style="fill:#5CD68B;" d="M97.741,393.918l13.828,13.828l13.828-13.828c32.297-32.297,45.32-76.531,39.107-118.484   c-0.786-5.296-1.881-10.563-3.275-15.774c-6.1-22.661-18.047-44.077-35.842-61.872l-13.819-13.819L97.75,197.789   c-10.208,10.208-18.478,21.603-24.85,33.756c-2.302,4.397-4.351,8.897-6.147,13.464c-6.596,16.756-9.805,34.542-9.628,52.291   c0.056,6.455,0.58,12.911,1.553,19.311C62.936,344.911,75.95,372.128,97.741,393.918z"/>
	<path style="fill:#5CD68B;" d="M185.481,368.956l-13.828-13.828l13.828-13.828c32.297-32.297,76.531-45.32,118.484-39.107   c5.296,0.786,10.563,1.881,15.774,3.275c22.661,6.1,44.076,18.047,61.872,35.842l13.819,13.819l-13.819,13.819   c-10.208,10.208-21.603,18.478-33.756,24.85c-4.397,2.302-8.897,4.351-13.464,6.147c-16.756,6.596-34.542,9.805-52.291,9.628   c-6.455-0.056-12.911-0.58-19.311-1.553C234.488,403.76,207.27,390.746,185.481,368.956z"/>
</g>
<g>
	<path style="fill:#34A375;" d="M315.343,223.168L88.725,449.786c-5.016-4.326-9.853-8.85-14.514-13.552L301.31,209.135   L315.343,223.168z"/>
	<path style="fill:#34A375;" d="M178.773,362.247l-7.12-7.12l7.12-7.12h87.385l37.808-45.816c5.296,0.786,10.563,1.881,15.774,3.275   l-35.113,42.542l103.674-0.009l7.129,7.129l-7.12,7.12h-67.438l26.982,31.549c-4.397,2.302-8.897,4.351-13.464,6.147l-32.25-37.695   h-57.239l37.199,47.322c-6.455-0.056-12.911-0.58-19.311-1.553l-36.021-45.77h-47.996V362.247z"/>
	<path style="fill:#34A375;" d="M104.449,400.625l7.12,7.12l7.12-7.12v-87.385l45.816-37.808   c-0.786-5.296-1.881-10.563-3.275-15.774l-42.542,35.113l0.009-103.674l-7.129-7.129l-7.12,7.12v67.438l-31.549-26.982   c-2.302,4.397-4.351,8.897-6.147,13.464l37.695,32.25v57.24l-47.322-37.199c0.056,6.455,0.58,12.911,1.553,19.311l45.77,36.021   v47.996H104.449z"/>
	<path style="fill:#34A375;" d="M318.199,245.526l-22.446,22.447c-7.953,7.953-20.846,7.953-28.798,0l-10.276-10.276   c-7.953-7.953-7.953-20.846,0-28.798l22.447-22.446L318.199,245.526z"/>
</g>
<path style="fill:#D3D3D3;" d="M507.865,101.741l-66.341,66.351c-3.877,3.877-10.156,3.877-14.033,0  c-0.93-0.93-1.63-1.985-2.111-3.114c-1.546-3.615-0.846-7.962,2.111-10.919l66.341-66.351c2.957-2.957,7.304-3.657,10.919-2.1  c1.128,0.481,2.194,1.181,3.114,2.1C511.742,91.584,511.742,97.864,507.865,101.741z"/>
<path style="fill:#E5E5E5;" d="M502.641,96.516L436.3,162.867c-2.957,2.957-7.304,3.657-10.919,2.111  c-1.546-3.615-0.846-7.962,2.111-10.919l66.341-66.351c2.957-2.957,7.304-3.657,10.919-2.1  C506.298,89.223,505.587,93.57,502.641,96.516z"/>
<path style="fill:#D3D3D3;" d="M356.551,97.154c-3.876-3.876-3.876-10.158,0-14.034l66.348-66.348  c3.876-3.876,10.159-3.876,14.034,0c3.876,3.876,3.876,10.158,0,14.034l-66.348,66.348  C366.709,101.029,360.426,101.029,356.551,97.154z"/>
<path style="fill:#E5E5E5;" d="M431.707,25.58l-66.341,66.351c-2.957,2.957-7.304,3.657-10.919,2.111  c-1.546-3.615-0.846-7.962,2.111-10.919l66.341-66.351c2.957-2.957,7.304-3.657,10.919-2.1  C435.364,18.287,434.654,22.634,431.707,25.58z"/>
<path style="fill:#F23B52;" d="M453.959,180.526l-59.852,59.841c-15.161,15.161-35.035,22.747-54.92,22.747  c-19.874,0-39.758-7.586-54.92-22.747c-22.518-22.518-28.317-55.432-17.398-83.299c3.793-9.665,9.592-18.735,17.398-26.54  l59.852-59.841L453.959,180.526z"/>
<path style="fill:#FF5662;" d="M444.555,171.122l-45.223,45.213c-15.161,15.161-35.035,22.747-54.92,22.747  c-19.874,0-39.758-7.586-54.92-22.747c-16.269-16.269-23.803-37.961-22.622-59.267c3.793-9.665,9.592-18.735,17.398-26.54  l59.852-59.841L444.555,171.122z"/>
<path style="fill:#F23B52;" d="M457.654,198.257L326.384,66.988c-3.876-3.876-3.876-10.158,0-14.034  c3.876-3.876,10.158-3.876,14.034,0l131.27,131.268c3.876,3.876,3.876,10.158,0,14.034  C467.812,202.132,461.529,202.133,457.654,198.257z"/>
<g>
	<circle style="fill:#5C5E70;" cx="327.659" cy="158.699" r="9.923"/>
	<circle style="fill:#5C5E70;" cx="365.944" cy="196.984" r="9.923"/>
</g>
<g>
</g>
<g>
</g>
<g>
</g>
<g>
</g>
<g>
</g>
<g>
</g>
<g>
</g>
<g>
</g>
<g>
</g>
<g>
</g>
<g>
</g>
<g>
</g>
<g>
</g>
<g>
</g>
<g>
</g>
</svg>
