<?xml version="1.0" encoding="iso-8859-1"?>
<!-- Generator: Adobe Illustrator 19.0.0, SVG Export Plug-In . SVG Version: 6.00 Build 0)  -->
<svg xmlns="http://www.w3.org/2000/svg" xmlns:xlink="http://www.w3.org/1999/xlink" version="1.1" id="Capa_1" x="0px" y="0px" viewBox="0 0 512 512" style="enable-background:new 0 0 512 512;" xml:space="preserve">
<circle style="fill:#5C5E70;" cx="256" cy="256" r="256"/>
<path style="fill:#FF5662;" d="M507.277,169.69l-6.813,10.104l-76.34,112.483l-122.086-82.589  c-12.643-8.526-15.987-25.684-7.471-38.327c8.526-12.643,25.684-15.987,38.327-7.461l49.81,33.552  C360.26,115.575,285.236,55.211,196.336,55.211c-106.559,0-193.243,86.695-193.243,193.254s86.685,193.243,193.243,193.243  c56.278,0,109.641-24.472,146.432-67.135c9.958-11.557,27.387-12.831,38.933-2.884c11.546,9.958,12.842,27.387,2.884,38.943  c-47.282,54.836-115.89,86.298-188.249,86.298c-11.139,0-22.12-0.742-32.872-2.163C67.814,457.664,0,364.752,0,255.999  C0,124.791,98.712,16.644,225.917,1.754c99.579,11.87,181.217,82.892,208.802,176.807l26.77-39.727  c3.918-5.82,9.686-9.676,15.987-11.295c7.387-1.912,15.517-0.763,22.34,3.824C512.46,139.89,515.803,157.047,507.277,169.69z"/>
<path style="fill:#F7F7F7;" d="M389.405,188.143v252.52c0,9.592-7.785,17.366-17.377,17.366H98.767  c-37.825-29.477-67.156-69.339-83.696-115.305V188.143L389.405,188.143L389.405,188.143z"/>
<g>
	<rect x="327.461" y="64.628" style="fill:#FCF8F2;" width="31.493" height="49.02"/>
	<rect x="45.521" y="64.628" style="fill:#FCF8F2;" width="31.493" height="49.02"/>
</g>
<g>
	<rect x="45.521" y="64.628" style="fill:#F7F7F7;" width="10.646" height="49.02"/>
	<rect x="327.461" y="64.628" style="fill:#F7F7F7;" width="10.646" height="49.02"/>
</g>
<path style="fill:#3FCDE0;" d="M367.69,110.875h-48.974c-4.853,0-8.787,3.934-8.787,8.787v20.153h66.547v-20.153  C376.477,114.809,372.543,110.875,367.69,110.875z"/>
<g>
	<path style="fill:#25B6C9;" d="M332.822,110.875h-14.106c-4.853,0-8.787,3.934-8.787,8.787v20.153h14.106v-20.153   C324.035,114.809,327.969,110.875,332.822,110.875z"/>
	<path style="fill:#25B6C9;" d="M50.887,110.875H36.78c-4.853,0-8.787,3.934-8.787,8.787v20.153H42.1v-20.153   C42.1,114.809,46.033,110.875,50.887,110.875z"/>
</g>
<rect x="15.066" y="188.144" style="fill:#E5E5E5;" width="374.335" height="24.21"/>
<path style="fill:#3FCDE0;" d="M85.755,110.875H36.78c-4.853,0-8.787,3.934-8.787,8.787v20.153h66.547v-20.153  C94.54,114.809,90.607,110.875,85.755,110.875z"/>
<path style="fill:#F8D877;" d="M404.471,196.833H0v-45.056c0-7.832,6.349-14.18,14.18-14.18h376.11c7.832,0,14.18,6.349,14.18,14.18  V196.833z"/>
<g>
	<polygon style="fill:#5C5E70;" points="78.291,220.123 61.653,220.123 61.653,238.424 43.353,238.424 43.353,255.062    61.653,255.062 61.653,273.362 78.291,273.362 78.291,255.062 96.591,255.062 96.591,238.424 78.291,238.424  "/>
	<rect x="306.218" y="238.425" style="fill:#5C5E70;" width="53.239" height="16.638"/>
</g>
<g>
	<path style="fill:#FF5662;" d="M3.093,248.465c0,106.559,86.685,193.243,193.243,193.243c56.278,0,109.641-24.472,146.432-67.135   c9.958-11.557,27.387-12.831,38.933-2.884c11.546,9.958,12.842,27.387,2.884,38.943c-47.282,54.836-115.89,86.298-188.249,86.298   c-11.139,0-22.12-0.742-32.872-2.163C67.814,457.664,0,364.752,0,255.999"/>
	<path style="fill:#FF5662;" d="M434.719,178.562l26.77-39.727c3.918-5.82,9.686-9.676,15.987-11.295   c7.387-1.912,15.517-0.763,22.34,3.824c12.643,8.526,15.987,25.684,7.461,38.327l-6.813,10.104l-76.34,112.483l-122.086-82.589   c-12.643-8.526-15.987-25.684-7.471-38.327c8.526-12.643,25.684-15.987,38.327-7.461l74.619,48.494"/>
</g>
<g>
</g>
<g>
</g>
<g>
</g>
<g>
</g>
<g>
</g>
<g>
</g>
<g>
</g>
<g>
</g>
<g>
</g>
<g>
</g>
<g>
</g>
<g>
</g>
<g>
</g>
<g>
</g>
<g>
</g>
</svg>
