<?xml version="1.0" encoding="iso-8859-1"?>
<!-- Generator: Adobe Illustrator 19.0.0, SVG Export Plug-In . SVG Version: 6.00 Build 0)  -->
<svg xmlns="http://www.w3.org/2000/svg" xmlns:xlink="http://www.w3.org/1999/xlink" version="1.1" id="Capa_1" x="0px" y="0px" viewBox="0 0 512 512" style="enable-background:new 0 0 512 512;" xml:space="preserve">
<circle style="fill:#5C5E70;" cx="256" cy="256" r="256"/>
<path style="fill:#FF5662;" d="M507.277,169.69l-6.813,10.104l-76.34,112.483l-122.086-82.589  c-12.643-8.526-15.987-25.684-7.471-38.327c8.526-12.643,25.684-15.987,38.327-7.461l49.81,33.552  C360.26,115.575,285.236,55.211,196.336,55.211c-106.559,0-193.243,86.695-193.243,193.254s86.685,193.243,193.243,193.243  c56.278,0,109.641-24.472,146.432-67.135c9.958-11.557,27.387-12.831,38.933-2.884c11.546,9.958,12.842,27.387,2.884,38.943  c-47.282,54.836-115.89,86.298-188.249,86.298c-11.139,0-22.12-0.742-32.872-2.163C67.814,457.664,0,364.752,0,255.999  C0,124.791,98.712,16.644,225.917,1.754c99.579,11.87,181.217,82.892,208.802,176.807l26.77-39.727  c3.918-5.82,9.686-9.676,15.987-11.295c7.387-1.912,15.517-0.763,22.34,3.824C512.46,139.89,515.803,157.047,507.277,169.69z"/>
<path style="fill:#D3D3D3;" d="M150.788,60.982c-2.805,0-5.586-1.214-7.496-3.559l-28.34-34.782  c-3.37-4.137-2.749-10.222,1.388-13.593c4.135-3.371,10.221-2.75,13.593,1.388l28.34,34.782c3.37,4.137,2.749,10.222-1.388,13.593  C155.093,60.271,152.932,60.982,150.788,60.982z"/>
<path style="fill:#F7F7F7;" d="M313.755,505.447c-3.114,0.731-6.249,1.39-9.404,1.996c-15.663,2.988-31.817,4.556-48.347,4.556  c-16.52,0-32.674-1.567-48.327-4.556c-15.433-2.957-30.386-7.283-44.711-12.873h-0.01c-11.557-4.514-22.685-9.832-33.353-15.914  c-0.376-0.209-0.752-0.428-1.118-0.648c-0.125-0.063-0.24-0.136-0.355-0.209c-4.148-2.393-8.223-4.901-12.225-7.523  c-3.709-2.424-7.356-4.942-10.93-7.555c-6.04-4.42-11.87-9.091-17.492-14.023L94.807,81.01v-0.01l12.069-31.608h186.358  l12.069,31.608v0.01L313.755,505.447z"/>
<path style="fill:#E5E5E5;" d="M148.097,49.391l-3.553,9.31l-8.516,22.298v0.01l-7.544,378.702l-0.355,18.087  c-4.148-2.393-8.223-4.901-12.225-7.523c-3.709-2.424-7.356-4.942-10.93-7.555c-6.04-4.42-11.87-9.091-17.492-14.023L94.807,81.01  v-0.01l12.069-31.608L148.097,49.391L148.097,49.391z"/>
<path style="fill:#3FCDE0;" d="M336.387,104.834V483.62c0,7.241-3.239,13.74-8.349,18.108c-4.702,1.379-9.467,2.623-14.284,3.72  c-3.114,0.731-6.249,1.39-9.404,1.996h-96.674c-15.433-2.957-30.386-7.283-44.711-12.873h-0.01  c-11.557-4.514-22.685-9.832-33.353-15.914c-0.376-0.209-0.752-0.428-1.118-0.648c-0.125-0.063-0.24-0.136-0.355-0.209  c-4.148-2.393-8.223-4.901-12.225-7.523c-3.709-2.424-7.356-4.942-10.93-7.555c-6.04-4.42-11.87-9.091-17.492-14.023  c-8.432-7.367-16.374-15.287-23.761-23.698V104.834c0-13.155,10.668-23.824,23.824-23.824h225.019  C325.719,81.01,336.387,91.678,336.387,104.834z"/>
<path style="fill:#25B6C9;" d="M128.484,81.01v396.999c-0.125-0.063-0.24-0.136-0.355-0.209c-4.148-2.393-8.223-4.901-12.225-7.523  c-3.709-2.424-7.356-4.942-10.93-7.555c-6.04-4.42-11.87-9.091-17.492-14.023c-8.432-7.367-16.374-15.287-23.761-23.698V104.834  c0-13.155,10.668-23.824,23.824-23.824L128.484,81.01L128.484,81.01z"/>
<path style="fill:#FF5662;" d="M3.093,248.465c0,106.559,86.685,193.243,193.243,193.243c56.278,0,109.641-24.472,146.432-67.135  c9.958-11.557,27.387-12.831,38.933-2.884c11.546,9.958,12.842,27.387,2.884,38.943c-47.282,54.836-115.89,86.298-188.249,86.298  c-11.139,0-22.12-0.742-32.872-2.163C67.814,457.664,0,364.752,0,255.999"/>
<path style="fill:#3FCDE0;" d="M312.428,502.177v3.574c-2.675,0.616-5.371,1.17-8.077,1.693  c-15.663,2.988-31.817,4.556-48.347,4.556c-16.52,0-32.674-1.567-48.327-4.556c-7.502-1.431-14.879-3.197-22.131-5.266H312.428z"/>
<path style="fill:#FF5662;" d="M434.719,178.562l26.77-39.727c3.918-5.82,9.686-9.676,15.987-11.295  c7.387-1.912,15.517-0.763,22.34,3.824c12.643,8.526,15.987,25.684,7.461,38.327l-6.813,10.104l-76.34,112.483l-122.086-82.589  c-12.643-8.526-15.987-25.684-7.471-38.327c8.526-12.643,25.684-15.987,38.327-7.461l49.81,33.552"/>
<g>
</g>
<g>
</g>
<g>
</g>
<g>
</g>
<g>
</g>
<g>
</g>
<g>
</g>
<g>
</g>
<g>
</g>
<g>
</g>
<g>
</g>
<g>
</g>
<g>
</g>
<g>
</g>
<g>
</g>
</svg>
