<?xml version="1.0" encoding="iso-8859-1"?>
<!-- Generator: Adobe Illustrator 19.0.0, SVG Export Plug-In . SVG Version: 6.00 Build 0)  -->
<svg xmlns="http://www.w3.org/2000/svg" xmlns:xlink="http://www.w3.org/1999/xlink" version="1.1" id="Capa_1" x="0px" y="0px" viewBox="0 0 512 512" style="enable-background:new 0 0 512 512;" xml:space="preserve">
<path style="fill:#5C5E70;" d="M512,256c0,111.897-71.794,207.035-171.832,241.84c-26.363,9.174-54.679,14.158-84.166,14.158  c-32.82,0-64.198-6.175-93.037-17.429h-0.01c-11.557-4.514-22.685-9.832-33.353-15.914c-4.66-2.654-9.226-5.444-13.699-8.38  c-3.709-2.424-7.356-4.942-10.93-7.555C41.329,416.151,0.003,340.897,0.003,256c0-141.384,114.614-255.998,255.998-255.998  S512,114.616,512,256z"/>
<path style="fill:#FF5662;" d="M507.274,169.691l-6.813,10.104l-76.34,112.483l-122.085-82.588  c-12.643-8.526-15.987-25.683-7.471-38.327c8.526-12.643,25.683-15.987,38.327-7.461l49.81,33.551  c-22.444-81.878-97.467-142.241-186.367-142.241c-106.558,0-193.242,86.695-193.242,193.253s86.684,193.242,193.242,193.242  c56.278,0,109.64-24.471,146.431-67.134c9.958-11.557,27.387-12.831,38.933-2.884c11.546,9.958,12.842,27.387,2.884,38.943  c-47.281,54.836-115.889,86.298-188.248,86.298c-11.139,0-22.12-0.742-32.872-2.163C67.813,457.664,0,364.752,0,256  C0,124.793,98.711,16.647,225.916,1.757c99.578,11.87,181.216,82.891,208.801,176.806l26.77-39.727  c3.918-5.82,9.686-9.676,15.987-11.295c7.387-1.912,15.517-0.763,22.34,3.824C512.457,139.891,515.8,157.049,507.274,169.691z"/>
<path style="fill:#E5E5E5;" d="M280.153,17.327V64.88H164.985V17.327c0-9.571,7.764-17.324,17.335-17.324h80.509  C272.4,0.002,280.153,7.755,280.153,17.327z"/>
<g>
	<path style="fill:#F7F7F7;" d="M280.153,17.327V64.88h-78.952V17.327c0-9.571,7.753-17.324,17.324-17.324h44.303   C272.4,0.002,280.153,7.755,280.153,17.327z"/>
	<path style="fill:#F7F7F7;" d="M340.168,84.481V497.84c-26.363,9.174-54.679,14.158-84.166,14.158   c-32.82,0-64.198-6.175-93.037-17.429h-0.01c-11.556-4.514-22.685-9.832-33.353-15.914c-4.66-2.654-9.226-5.444-13.699-8.38   c-4.065-57.365-7.711-114.353-10.93-122.754V84.481c0-12.016,9.738-21.755,21.755-21.755h191.685   C330.419,62.726,340.168,72.465,340.168,84.481z"/>
</g>
<path style="fill:#E5E5E5;" d="M184.709,62.726c-12.006,0-21.755,9.738-21.755,21.755V494.57  c-11.557-4.514-22.685-9.832-33.353-15.914c-8.526-4.848-16.75-10.177-24.628-15.935V84.481c0-12.016,9.738-21.755,21.755-21.755  C126.728,62.726,184.709,62.726,184.709,62.726z"/>
<path style="fill:#FFD662;" d="M315.534,129.715v310.622c-77.844-8.641-145.156,82.838-185.928,20.374V129.715  c0-8.882,7.199-16.081,16.081-16.081h153.766C308.334,113.634,315.534,120.834,315.534,129.715z"/>
<polygon style="fill:#5C5E70;" points="280.648,243.754 206.525,243.754 164.494,315.612 198.479,315.612 169.445,380.153   258.764,302.938 230.181,302.938 "/>
<path style="fill:#EFC549;" d="M162.964,113.634V494.57c-11.557-4.514-22.695-9.832-33.363-15.914V129.714  c0-8.882,7.199-16.081,16.081-16.081H162.964z"/>
<path style="fill:#FF5662;" d="M3.093,248.466c0,106.558,86.684,193.242,193.242,193.242c56.278,0,109.64-24.471,146.431-67.134  c9.958-11.556,27.387-12.831,38.933-2.884c11.546,9.958,12.842,27.387,2.884,38.943c-47.281,54.836-115.889,86.298-188.248,86.298  c-11.139,0-22.12-0.742-32.872-2.163C67.813,457.664,0,364.752,0,256"/>
<path style="fill:#FCF8F2;" d="M254.062,43.821L254.062,43.821c-7.79,0-14.105-6.315-14.105-14.105l0,0  c0-7.79,6.315-14.105,14.105-14.105l0,0c7.79,0,14.105,6.315,14.105,14.105l0,0C268.167,37.506,261.852,43.821,254.062,43.821z"/>
<path style="fill:#FF5662;" d="M434.717,178.563l26.77-39.727c3.918-5.82,9.686-9.676,15.987-11.295  c7.387-1.912,15.517-0.763,22.34,3.824c12.643,8.526,15.987,25.683,7.461,38.327l-6.813,10.104l-76.34,112.483L302.036,209.69  c-12.643-8.526-15.987-25.683-7.471-38.327c8.526-12.643,25.683-15.987,38.327-7.461l49.81,33.551"/>
<g>
</g>
<g>
</g>
<g>
</g>
<g>
</g>
<g>
</g>
<g>
</g>
<g>
</g>
<g>
</g>
<g>
</g>
<g>
</g>
<g>
</g>
<g>
</g>
<g>
</g>
<g>
</g>
<g>
</g>
</svg>
