<?xml version="1.0" encoding="iso-8859-1"?>
<!-- Generator: Adobe Illustrator 19.0.0, SVG Export Plug-In . SVG Version: 6.00 Build 0)  -->
<svg xmlns="http://www.w3.org/2000/svg" xmlns:xlink="http://www.w3.org/1999/xlink" version="1.1" id="Capa_1" x="0px" y="0px" viewBox="0 0 512 512" style="enable-background:new 0 0 512 512;" xml:space="preserve">
<circle style="fill:#5C5E70;" cx="256" cy="256" r="256"/>
<path style="fill:#FF5662;" d="M507.277,169.691l-6.813,10.104l-76.34,112.483l-122.086-82.589  c-12.643-8.526-15.987-25.684-7.471-38.327c8.526-12.643,25.684-15.987,38.327-7.461l49.81,33.552  C360.26,115.575,285.236,55.211,196.336,55.211c-106.559,0-193.243,86.695-193.243,193.254s86.685,193.243,193.243,193.243  c56.278,0,109.641-24.472,146.432-67.135c9.958-11.557,27.387-12.831,38.933-2.884c11.546,9.958,12.842,27.387,2.884,38.943  c-47.282,54.836-115.89,86.298-188.249,86.298c-11.139,0-22.12-0.742-32.872-2.163C67.814,457.664,0,364.752,0,255.999  C0,124.791,98.712,16.644,225.917,1.755c99.579,11.87,181.217,82.892,208.802,176.807l26.77-39.727  c3.918-5.82,9.686-9.676,15.987-11.295c7.387-1.912,15.517-0.763,22.34,3.824C512.46,139.89,515.803,157.047,507.277,169.691z"/>
<path style="fill:#FFD662;" d="M354.337,159.546c0,36.121-12.009,69.443-32.255,96.191c-19.882,26.268-31.189,58.019-31.189,90.966  v1.663h-7.557H106.244h-7.557v-0.856c0-32.689-10.31-64.721-30.275-90.591C47.007,229.187,34.529,194.214,35.279,156.3  C36.978,70.76,106.959,1.2,192.524,0.016C281.673-1.226,354.337,70.677,354.337,159.546z"/>
<path style="fill:#EFC549;" d="M192.524,0.016c0.293,0,0.586-0.011,0.879,0C140.936,1.2,98.043,70.76,97,156.3  c-0.457,37.914,7.183,72.887,20.316,100.619c12.232,25.87,18.558,57.902,18.558,90.591v0.856H98.687v-0.856  c0-32.689-10.31-64.721-30.275-90.591C47.006,229.187,34.528,194.214,35.278,156.3C36.978,70.76,106.959,1.2,192.524,0.016z"/>
<g>
	<path style="fill:#F7F7F7;" d="M185.361,298.408c-2.52,0-4.914-1.489-5.948-3.96l-60.126-143.857   c-1.373-3.284,0.177-7.058,3.46-8.431c3.284-1.371,7.059,0.178,8.43,3.461l60.126,143.857c1.373,3.284-0.177,7.058-3.46,8.431   C187.031,298.249,186.188,298.408,185.361,298.408z"/>
	<path style="fill:#F7F7F7;" d="M205.864,293.438c-0.829,0-1.671-0.161-2.483-0.501c-3.284-1.372-4.833-5.147-3.46-8.431   l58.048-138.887c1.371-3.283,5.147-4.832,8.43-3.461c3.284,1.372,4.833,5.147,3.46,8.431l-58.048,138.888   C210.779,291.949,208.384,293.438,205.864,293.438z"/>
</g>
<path style="fill:#5C5E70;" d="M217.294,267.612h-45.008c-6.077,0-11.004,4.927-11.004,11.004v80.294h67.015v-80.294  C228.298,272.539,223.371,267.612,217.294,267.612z"/>
<path style="fill:#F7F7F7;" d="M283.337,387.217c5.366,0,10.229-2.179,13.744-5.694c3.515-3.515,5.682-8.365,5.682-13.731  c0-10.732-8.694-19.426-19.426-19.426H106.244c-5.366,0-10.217,2.18-13.731,5.694c-3.515,3.515-5.694,8.365-5.694,13.732  c0,10.732,8.705,19.426,19.426,19.426c-5.366,0-10.217,2.18-13.731,5.695c-3.515,3.515-5.694,8.365-5.694,13.731  c0,10.721,8.705,19.426,19.426,19.426h9.713c-5.354,0-10.217,2.179-13.731,5.694c-3.515,3.515-5.695,8.365-5.695,13.732  c0,10.721,8.705,19.426,19.426,19.426h25.413h106.829h25.424c5.367,0,10.217-2.18,13.731-5.694  c3.515-3.515,5.695-8.365,5.695-13.731c0-10.732-8.694-19.426-19.426-19.426h9.713c5.366,0,10.229-2.18,13.744-5.695  c3.515-3.515,5.682-8.365,5.682-13.731C302.762,395.911,294.069,387.217,283.337,387.217z"/>
<path style="fill:#E5E5E5;" d="M151.01,445.494c0-5.366,2.18-10.217,5.694-13.732c3.515-3.515,8.377-5.694,13.732-5.694h-9.713  c-10.721,0-19.426-8.705-19.426-19.426c0-5.367,2.18-10.217,5.695-13.731c3.515-3.515,8.365-5.695,13.731-5.695  c-10.721,0-19.426-8.694-19.426-19.426c0-5.367,2.18-10.217,5.695-13.732c3.515-3.515,8.365-5.694,13.731-5.694h-54.478  c-5.367,0-10.217,2.18-13.731,5.694s-5.695,8.365-5.695,13.732c0,10.732,8.705,19.426,19.426,19.426  c-5.367,0-10.217,2.18-13.731,5.695c-3.514,3.515-5.695,8.365-5.695,13.731c0,10.721,8.705,19.426,19.426,19.426h9.713  c-5.354,0-10.217,2.179-13.732,5.694c-3.515,3.515-5.694,8.365-5.694,13.732c0,10.721,8.705,19.426,19.426,19.426h25.413h29.066  C159.715,464.92,151.01,456.215,151.01,445.494z"/>
<g>
	<circle style="fill:#FCE39D;" cx="270.503" cy="99.527" r="31.629"/>
	<circle style="fill:#FCE39D;" cx="226.45" cy="60.751" r="19.211"/>
</g>
<g>
	<path style="fill:#FF5662;" d="M3.093,248.465c0,106.559,86.685,193.243,193.243,193.243c56.278,0,109.641-24.472,146.432-67.135   c9.958-11.557,27.387-12.831,38.933-2.884c11.546,9.958,12.842,27.387,2.884,38.943c-47.282,54.836-115.89,86.298-188.249,86.298   c-11.139,0-22.12-0.742-32.872-2.163C67.814,457.664,0,364.752,0,255.999"/>
	<path style="fill:#FF5662;" d="M434.719,178.562l26.77-39.727c3.918-5.82,9.686-9.676,15.987-11.295   c7.387-1.912,15.517-0.763,22.34,3.824c12.643,8.526,15.987,25.684,7.461,38.327l-6.813,10.104l-76.34,112.483l-122.086-82.589   c-12.643-8.526-15.987-25.684-7.471-38.327c8.526-12.643,25.684-15.987,38.327-7.461l49.81,33.552"/>
</g>
<g>
</g>
<g>
</g>
<g>
</g>
<g>
</g>
<g>
</g>
<g>
</g>
<g>
</g>
<g>
</g>
<g>
</g>
<g>
</g>
<g>
</g>
<g>
</g>
<g>
</g>
<g>
</g>
<g>
</g>
</svg>
