<?xml version="1.0" encoding="iso-8859-1"?>
<!-- Generator: Adobe Illustrator 19.0.0, SVG Export Plug-In . SVG Version: 6.00 Build 0)  -->
<svg xmlns="http://www.w3.org/2000/svg" xmlns:xlink="http://www.w3.org/1999/xlink" version="1.1" id="Capa_1" x="0px" y="0px" viewBox="0 0 511.999 511.999" style="enable-background:new 0 0 511.999 511.999;" xml:space="preserve">
<circle style="fill:#5C5E70;" cx="255.999" cy="256" r="255.999"/>
<path style="fill:#FF5662;" d="M507.279,169.691l-6.813,10.104l-76.34,112.483L302.041,209.69  c-12.643-8.526-15.987-25.684-7.471-38.327c8.526-12.643,25.684-15.987,38.327-7.461l49.81,33.552  c-22.444-81.878-97.468-142.242-186.368-142.242c-106.558,0-193.243,86.695-193.243,193.253s86.685,193.243,193.243,193.243  c56.278,0,109.641-24.471,146.432-67.135c9.958-11.557,27.387-12.831,38.933-2.884c11.546,9.958,12.842,27.387,2.884,38.943  c-47.282,54.836-115.889,86.298-188.248,86.298c-11.139,0-22.12-0.742-32.872-2.163C67.817,457.664,0.003,364.752,0.003,256  c0-131.208,98.711-239.354,225.917-254.244c99.579,11.87,181.216,82.892,208.802,176.807l26.77-39.727  c3.918-5.82,9.686-9.676,15.987-11.295c7.387-1.912,15.517-0.763,22.34,3.824C512.462,139.891,515.805,157.048,507.279,169.691z"/>
<path style="fill:#25B6C9;" d="M277.966,231.027v280.043c-7.241,0.616-14.566,0.93-21.964,0.93c-37.115,0-72.38-7.899-104.207-22.1  c-14.9-6.646-29.038-14.67-42.266-23.928V231.027c0-21.128,7.795-40.437,20.668-55.223c9.519-10.93,14.451-25.13,14.451-39.622  V49.089c0-10.219,3.124-19.717,8.474-27.575C161.962,8.526,176.852,0,193.737,0c6.614,0,12.936,1.317,18.704,3.699  c0.825,0.334,1.64,0.7,2.435,1.076c5.057,2.414,9.644,5.684,13.563,9.613c8.892,8.871,14.388,21.149,14.388,34.701v87.092  c0,14.493,4.942,28.693,14.472,39.622C270.171,190.589,277.966,209.899,277.966,231.027z"/>
<path style="fill:#3FCDE0;" d="M277.966,231.027v280.043c-7.241,0.616-14.566,0.93-21.964,0.93c-37.115,0-72.38-7.899-104.207-22.1  V231.027c0-21.128,7.805-40.437,20.668-55.223c9.519-10.93,14.461-25.13,14.461-39.622V49.089c0-19.54,11.421-36.425,27.951-44.314  c5.057,2.414,9.644,5.684,13.563,9.613c8.892,8.871,14.388,21.149,14.388,34.701v87.092c0,14.493,4.942,28.693,14.472,39.622  C270.171,190.589,277.966,209.899,277.966,231.027z"/>
<path style="fill:#797B89;" d="M208.739,49.526v200.308h-29.998V49.089c0-8.741,7.526-15.763,16.445-14.931  C202.957,34.894,208.739,41.726,208.739,49.526z"/>
<path style="fill:#FFD662;" d="M208.742,250.891v256.751c-10.23-1.902-20.24-4.42-29.999-7.513V250.891H208.742z"/>
<rect x="178.74" y="244.61" style="fill:#EFC549;" width="29.998" height="14.999"/>
<g>
	<path style="fill:#FCF8F2;" d="M178.744,235.218h-34.611c-5.649,0-10.226-4.579-10.226-10.226s4.578-10.226,10.226-10.226h34.611   c5.649,0,10.226,4.579,10.226,10.226C188.97,230.639,184.393,235.218,178.744,235.218z"/>
	<path style="fill:#FCF8F2;" d="M178.744,359.302h-34.611c-5.649,0-10.226-4.579-10.226-10.226c0-5.648,4.578-10.226,10.226-10.226   h34.611c5.649,0,10.226,4.579,10.226,10.226C188.97,354.723,184.393,359.302,178.744,359.302z"/>
	<path style="fill:#FCF8F2;" d="M178.744,297.259h-34.611c-5.649,0-10.226-4.579-10.226-10.226c0-5.648,4.578-10.226,10.226-10.226   h34.611c5.649,0,10.226,4.579,10.226,10.226C188.97,292.681,184.393,297.259,178.744,297.259z"/>
	<path style="fill:#FCF8F2;" d="M178.744,483.387h-34.611c-5.649,0-10.226-4.579-10.226-10.226c0-5.648,4.578-10.226,10.226-10.226   h34.611c5.649,0,10.226,4.579,10.226,10.226S184.393,483.387,178.744,483.387z"/>
	<path style="fill:#FCF8F2;" d="M178.744,421.344h-34.611c-5.649,0-10.226-4.579-10.226-10.226c0-5.648,4.578-10.226,10.226-10.226   h34.611c5.649,0,10.226,4.579,10.226,10.226C188.97,416.765,184.393,421.344,178.744,421.344z"/>
</g>
<path style="fill:#FF5662;" d="M3.096,248.466c0,106.558,86.685,193.243,193.243,193.243c56.278,0,109.641-24.471,146.432-67.135  c9.958-11.557,27.387-12.831,38.933-2.884c11.546,9.958,12.842,27.387,2.884,38.943c-47.282,54.836-115.889,86.298-188.248,86.298  c-11.139,0-22.12-0.742-32.872-2.163C67.817,457.664,0.003,364.752,0.003,256"/>
<g>
</g>
<g>
</g>
<g>
</g>
<g>
</g>
<g>
</g>
<g>
</g>
<g>
</g>
<g>
</g>
<g>
</g>
<g>
</g>
<g>
</g>
<g>
</g>
<g>
</g>
<g>
</g>
<g>
</g>
</svg>
