<?xml version="1.0" encoding="iso-8859-1"?>
<!-- Generator: Adobe Illustrator 19.0.0, SVG Export Plug-In . SVG Version: 6.00 Build 0)  -->
<svg xmlns="http://www.w3.org/2000/svg" xmlns:xlink="http://www.w3.org/1999/xlink" version="1.1" id="Capa_1" x="0px" y="0px" viewBox="0 0 511.999 511.999" style="enable-background:new 0 0 511.999 511.999;" xml:space="preserve">
<circle style="fill:#5CD68B;" cx="255.999" cy="255.999" r="255.999"/>
<path style="fill:#E5E5E5;" d="M192.024,17.324v47.553H76.855V17.324C76.855,7.753,84.619,0,94.19,0h80.509  C184.27,0,192.024,7.753,192.024,17.324z"/>
<path style="fill:#F7F7F7;" d="M192.024,17.324v47.553h-78.952V17.324C113.071,7.753,120.824,0,130.396,0h44.304  C184.27,0,192.024,7.753,192.024,17.324z"/>
<path style="fill:#5C5E70;" d="M252.043,84.48v427.488c-8.317-0.125-16.541-0.648-24.639-1.557  c-77.845-8.641-145.157-52.203-185.929-114.667c-9.822-15.046-18.108-31.201-24.628-48.222V84.48  c0-12.016,9.738-21.755,21.755-21.755h191.686C242.295,62.725,252.043,72.464,252.043,84.48z"/>
<path style="fill:#494B5B;" d="M96.584,62.725c-12.006,0-21.755,9.738-21.755,21.755V436.86  c-12.476-12.497-23.667-26.269-33.353-41.117c-9.822-15.046-18.108-31.201-24.628-48.222V84.48c0-12.016,9.738-21.755,21.755-21.755  H96.584z"/>
<path style="fill:#FFD662;" d="M227.405,129.713v380.697c-77.845-8.641-145.157-52.203-185.929-114.667v-266.03  c0-8.882,7.199-16.081,16.081-16.081h153.767C220.206,113.632,227.405,120.832,227.405,129.713z"/>
<polygon style="fill:#5C5E70;" points="192.519,243.753 118.395,243.753 76.364,315.611 110.35,315.611 81.315,380.153   170.635,302.936 142.051,302.936 "/>
<path style="fill:#EFC549;" d="M74.84,113.632v323.239c0,0-0.01,0-0.01-0.01c-12.476-12.497-23.667-26.269-33.353-41.117v-266.03  c0-8.882,7.199-16.081,16.081-16.081L74.84,113.632L74.84,113.632z"/>
<path style="fill:#E5E5E5;" d="M435.142,56.315v47.553H319.973V56.315c0-9.571,7.764-17.324,17.335-17.324h80.509  C427.388,38.99,435.142,46.743,435.142,56.315z"/>
<path style="fill:#F7F7F7;" d="M435.142,56.315v47.553h-78.952V56.315c0-9.571,7.753-17.324,17.324-17.324h44.304  C427.388,38.99,435.142,46.743,435.142,56.315z"/>
<path style="fill:#5C5E70;" d="M495.159,123.465v224.057c-6.52,17.032-14.806,33.186-24.639,48.243  c-34.816,53.342-89.004,92.891-152.565,108.68c-10.867,2.706-22.005,4.712-33.363,5.977c-8.098,0.899-16.311,1.421-24.628,1.546  V123.465c0-12.016,9.738-21.755,21.755-21.755h191.686C485.421,101.71,495.159,111.449,495.159,123.465z"/>
<path style="fill:#494B5B;" d="M339.7,101.71c-12.006,0-21.744,9.738-21.744,21.755v380.979  c-10.867,2.706-22.005,4.712-33.363,5.977c-8.098,0.899-16.311,1.421-24.628,1.546V123.465c0-12.016,9.738-21.755,21.755-21.755  C281.719,101.71,339.7,101.71,339.7,101.71z"/>
<path style="fill:#FFD662;" d="M470.521,209.449v186.315c-40.772,62.453-108.084,106.005-185.929,114.656V209.449  c0-8.882,7.199-16.081,16.081-16.081H454.44C463.321,193.368,470.521,200.568,470.521,209.449z"/>
<polygon style="fill:#5C5E70;" points="435.636,282.744 361.512,282.744 319.481,354.601 353.467,354.601 324.432,419.143   413.752,341.926 385.168,341.926 "/>
<path style="fill:#EFC549;" d="M317.956,193.368v311.076c-10.867,2.706-22.005,4.712-33.363,5.977V209.449  c0-8.882,7.199-16.081,16.081-16.081H317.956z"/>
<g>
</g>
<g>
</g>
<g>
</g>
<g>
</g>
<g>
</g>
<g>
</g>
<g>
</g>
<g>
</g>
<g>
</g>
<g>
</g>
<g>
</g>
<g>
</g>
<g>
</g>
<g>
</g>
<g>
</g>
</svg>
