<?xml version="1.0" encoding="iso-8859-1"?>
<!-- Generator: Adobe Illustrator 19.0.0, SVG Export Plug-In . SVG Version: 6.00 Build 0)  -->
<svg xmlns="http://www.w3.org/2000/svg" xmlns:xlink="http://www.w3.org/1999/xlink" version="1.1" id="Capa_1" x="0px" y="0px" viewBox="0 0 512 512" style="enable-background:new 0 0 512 512;" xml:space="preserve">
<path style="fill:#FFD662;" d="M512,256c0,71.346-29.184,135.878-76.278,182.303c-5.663,5.59-11.588,10.909-17.763,15.956  c-4.075,3.333-8.255,6.541-12.528,9.624c-9.624,6.928-19.749,13.208-30.302,18.766C339.55,501.394,299.018,512,256,512  c-61.45,0-117.844-21.65-161.959-57.741c-6.175-5.047-12.1-10.365-17.763-15.956c-26.655-26.269-47.564-58.347-60.698-94.166  C5.496,316.656,0,286.971,0,256c0-33.071,6.269-64.669,17.69-93.675c13.228-33.646,33.374-63.801,58.692-88.733  c20.637-20.323,44.711-37.177,71.262-49.601C180.548,8.6,217.266,0,256,0s75.452,8.6,108.356,23.991  c26.551,12.424,50.615,29.268,71.252,49.601c15.36,15.12,28.808,32.152,39.957,50.719c21.264,35.359,34.21,76.267,36.174,120.038  C511.916,248.205,512,252.092,512,256z"/>
<g>
	<path style="fill:#FCE39D;" d="M511.739,244.349H404.501c-8.37,0-15.945-3.396-21.431-8.882c-5.486-5.475-8.871-13.061-8.871-21.42   c0-16.739,13.563-30.302,30.302-30.302h18.808c16.729,0,30.302-13.573,30.302-30.302c0-13.845,9.279-25.516,21.953-29.132   C496.828,159.671,509.774,200.579,511.739,244.349z"/>
	<path style="fill:#FCE39D;" d="M270.239,335.244L270.239,335.244c0,16.735-13.567,30.302-30.302,30.302h-18.808   c-16.735,0-30.302,13.567-30.302,30.302l0,0c0,16.735,13.567,30.302,30.302,30.302h135.837c16.735,0,30.302-13.567,30.302-30.302   l0,0c0-16.735,13.567-30.302,30.302-30.302h18.808c16.735,0,30.302-13.567,30.302-30.302l0,0c0-16.735-13.567-30.302-30.302-30.302   H300.541C283.806,304.943,270.239,318.509,270.239,335.244z"/>
	<path style="fill:#FCE39D;" d="M153.172,313.835c0,16.739-13.563,30.302-30.302,30.302H15.579C5.496,316.656,0,286.971,0,256   c0-33.071,6.269-64.669,17.69-93.675h63.958c8.359,0,15.945,3.396,21.42,8.882c5.486,5.475,8.882,13.061,8.882,21.42   c0,16.739-13.573,30.302-30.302,30.302H62.84c-16.739,0-30.302,13.573-30.302,30.302c0,16.739,13.563,30.302,30.302,30.302h60.029   c8.37,0,15.945,3.396,21.431,8.882C149.776,297.89,153.172,305.476,153.172,313.835z"/>
</g>
<path style="fill:#34A375;" d="M435.722,76.915v361.388c-5.663,5.59-11.588,10.909-17.763,15.956  c-4.075,3.333-8.255,6.541-12.528,9.624c-9.624,6.928-19.749,13.208-30.302,18.766C339.55,501.394,299.018,512,256,512  c-61.45,0-117.844-21.65-161.959-57.741c-6.175-5.047-12.1-10.365-17.763-15.956V76.915c0-1.118,0.031-2.226,0.104-3.323  c0.982-15.778,8.871-29.675,20.679-38.713c7.555-5.799,16.729-9.592,26.718-10.616c0.01,0,0.01,0,0.01,0  c1.787-0.178,3.584-0.272,5.413-0.272h253.597c28.118,0,51.106,21.922,52.809,49.601C435.691,74.689,435.722,75.797,435.722,76.915z  "/>
<path style="fill:#3FBD77;" d="M417.959,76.915v377.344c-4.075,3.333-8.255,6.541-12.528,9.624  c-9.624,6.928-19.749,13.208-30.302,18.766C339.55,501.394,299.018,512,256,512c-61.45,0-117.844-21.65-161.959-57.741V76.915  c0-19.383,15.778-35.161,35.161-35.161h253.597C402.192,41.754,417.959,57.532,417.959,76.915z"/>
<path style="fill:#D3D3D3;" d="M149.947,227.743c-21.03,0-38.139-17.109-38.139-38.139v-85.682c0-21.03,17.109-38.139,38.139-38.139  h212.114c21.03,0,38.139,17.109,38.139,38.139v85.682c0,21.03-17.109,38.139-38.139,38.139H149.947z"/>
<path style="fill:#F7F7F7;" d="M388.706,103.922v85.682c0,14.712-11.933,26.645-26.645,26.645H149.947  c-14.712,0-26.645-11.933-26.645-26.645v-85.682c0-14.712,11.933-26.645,26.645-26.645h212.114  C376.773,77.278,388.706,89.21,388.706,103.922z"/>
<polygon style="fill:#5C5E70;" points="330.246,161.864 320.181,111.873 271.024,125.439 288.62,136.262 261.797,179.871   285.827,194.651 312.649,151.041 "/>
<path style="fill:#FFD662;" d="M315.302,216.249H196.706c0-32.75,26.548-59.298,59.298-59.298  C288.754,156.951,315.302,183.499,315.302,216.249z"/>
<path style="fill:#FCF8F2;" d="M359.971,97.131L359.971,97.131c-7.214,0-13.061,5.847-13.061,13.061v77.322  c0,7.214,5.847,13.061,13.061,13.061l0,0c7.214,0,13.061-5.847,13.061-13.061v-77.322  C373.033,102.978,367.184,97.131,359.971,97.131z"/>
<polygon style="fill:#FFD662;" points="325.405,290.754 236.823,290.754 186.595,376.628 227.21,376.628 192.511,453.758   299.253,361.481 265.095,361.481 "/>
<g>
</g>
<g>
</g>
<g>
</g>
<g>
</g>
<g>
</g>
<g>
</g>
<g>
</g>
<g>
</g>
<g>
</g>
<g>
</g>
<g>
</g>
<g>
</g>
<g>
</g>
<g>
</g>
<g>
</g>
</svg>
