<?xml version="1.0" encoding="iso-8859-1"?>
<!-- Generator: Adobe Illustrator 19.0.0, SVG Export Plug-In . SVG Version: 6.00 Build 0)  -->
<svg xmlns="http://www.w3.org/2000/svg" xmlns:xlink="http://www.w3.org/1999/xlink" version="1.1" id="Capa_1" x="0px" y="0px" viewBox="0 0 512 512" style="enable-background:new 0 0 512 512;" xml:space="preserve">
<circle style="fill:#FFD662;" cx="255.998" cy="256" r="255.998"/>
<g>
	<path style="fill:#FCE39D;" d="M512,256.001c0,6.792-0.261,13.521-0.784,20.177H425.41c-8.37,0-15.945-3.396-21.431-8.882   c-5.475-5.475-8.871-13.061-8.871-21.42c0-16.739,13.563-30.302,30.302-30.302h18.808c16.729,0,30.302-13.573,30.302-30.302   c0-12.319,7.346-22.914,17.889-27.637C505.041,187.916,512,221.143,512,256.001z"/>
	<path style="fill:#FCE39D;" d="M441.773,79.873h-93.361c-8.359,0-15.945-3.396-21.42-8.882c-5.486-5.486-8.882-13.051-8.882-21.42   c0-16.739,13.573-30.302,30.302-30.302h5.172c1.536,0.627,3.062,1.275,4.587,1.933c4.838,2.111,9.603,4.357,14.284,6.75   c15.861,8.129,30.783,17.857,44.512,28.985c3.866,3.124,7.638,6.363,11.316,9.707C432.944,70.888,437.447,75.297,441.773,79.873z"/>
	<path style="fill:#FCE39D;" d="M200.232,390.5L200.232,390.5c0,16.735-13.567,30.302-30.302,30.302h-18.808   c-16.735,0-30.302,13.567-30.302,30.302l0,0c0,16.735,13.567,30.302,30.302,30.302h135.836c16.735,0,30.302-13.567,30.302-30.302   l0,0c0-16.735,13.567-30.302,30.302-30.302h18.808c16.735,0,30.302-13.567,30.302-30.302l0,0c0-16.735-13.567-30.302-30.302-30.302   H230.533C213.798,360.198,200.232,373.764,200.232,390.5z"/>
	<path style="fill:#FCE39D;" d="M270.588,179.066c0,16.729-13.563,30.302-30.302,30.302H63.23c-8.37,0-15.945-3.396-21.431-8.882   c-5.475-5.475-8.871-13.061-8.871-21.42c0-9.926-4.765-18.735-12.142-24.262C44.526,99.685,87.074,54.577,140.343,27.556h58.723   c8.37,0,15.945,3.385,21.431,8.871c5.475,5.486,8.871,13.061,8.871,21.431c0,16.729-13.563,30.302-30.302,30.302h-18.808   c-16.739,0-30.302,13.563-30.302,30.302c0,16.729,13.563,30.302,30.302,30.302h60.029c8.37,0,15.945,3.385,21.431,8.871   C267.203,163.121,270.588,170.695,270.588,179.066z"/>
</g>
<path style="fill:#5C5E70;" d="M424.281,448.918c-3.636,3.176-7.366,6.259-11.191,9.226c-1.296,1.014-2.602,2.006-3.918,2.999  l-1.212-2.999l-17.418-42.987l-2.121-5.245H115.516l-2.121,5.245l-16.708,41.231c-5.13-4.075-10.094-8.349-14.879-12.81  l11.515-28.421l7.304-18.035c1.432-3.511,4.838-5.799,8.62-5.799H394.69c3.793,0,7.189,2.288,8.61,5.799l7.304,18.035  L424.281,448.918z"/>
<path style="fill:#25B6C9;" d="M472.19,393.164c-4.838,7.617-10.073,14.963-15.673,21.995c-5.475,6.896-11.306,13.51-17.46,19.801  H72.957c-6.154-6.29-11.985-12.894-17.471-19.801c-5.601-7.043-10.836-14.378-15.663-21.995H472.19z"/>
<path style="fill:#3FCDE0;" d="M472.19,393.164c-4.838,7.617-10.073,14.963-15.673,21.995H55.487  c-8.046-10.115-15.339-20.856-21.796-32.141l14.597-76.946l2.811-14.879l20.71-109.097h360.331l20.699,109.097l2.821,14.879  L472.19,393.164z"/>
<g>
	<path style="fill:#F7F7F7;" d="M147.831,154.966c-1.904,0-3.807-0.726-5.26-2.179c-2.905-2.905-2.905-7.614,0-10.519L282.66,2.182   c2.905-2.905,7.616-2.905,10.518,0c2.906,2.905,2.906,7.614,0,10.519L153.091,152.788   C151.639,154.24,149.735,154.966,147.831,154.966z"/>
	<path style="fill:#F7F7F7;" d="M242.359,154.966c-1.904,0-3.807-0.726-5.26-2.179c-2.905-2.905-2.905-7.614,0-10.519L377.187,2.182   c2.905-2.905,7.616-2.905,10.518,0c2.906,2.905,2.906,7.614,0,10.519L247.619,152.788   C246.167,154.24,244.262,154.966,242.359,154.966z"/>
	<path style="fill:#F7F7F7;" d="M336.888,154.966c-1.903,0-3.808-0.726-5.259-2.179c-2.906-2.905-2.906-7.614,0-10.519   L471.715,2.182c2.903-2.905,7.615-2.905,10.518,0c2.906,2.905,2.906,7.614,0,10.519L342.147,152.788   C340.695,154.24,338.79,154.966,336.888,154.966z"/>
</g>
<polygon style="fill:#25B6C9;" points="366.124,306.067 376.971,415.161 362.019,415.161 351.172,306.067 259.409,306.067   259.409,415.161 244.533,415.161 244.533,306.067 152.758,306.067 141.922,415.161 126.96,415.161 137.807,306.067 48.288,306.067   51.101,291.191 139.294,291.191 150.129,182.096 165.08,182.096 154.232,291.191 244.533,291.191 244.533,182.096 259.409,182.096   259.409,291.191 349.697,291.191 338.85,182.096 353.8,182.096 364.648,291.191 452.84,291.191 455.655,306.067 "/>
<g>
</g>
<g>
</g>
<g>
</g>
<g>
</g>
<g>
</g>
<g>
</g>
<g>
</g>
<g>
</g>
<g>
</g>
<g>
</g>
<g>
</g>
<g>
</g>
<g>
</g>
<g>
</g>
<g>
</g>
</svg>
