<?xml version="1.0" encoding="iso-8859-1"?>
<!-- Generator: Adobe Illustrator 19.0.0, SVG Export Plug-In . SVG Version: 6.00 Build 0)  -->
<svg xmlns="http://www.w3.org/2000/svg" xmlns:xlink="http://www.w3.org/1999/xlink" version="1.1" id="Capa_1" x="0px" y="0px" viewBox="0 0 512 512" style="enable-background:new 0 0 512 512;" xml:space="preserve">
<path style="fill:#3FCDE0;" d="M512,256c0,45.035-11.63,87.364-32.057,124.123c-7.837,14.117-16.98,27.418-27.251,39.727  c-6.092,7.314-12.581,14.273-19.446,20.856c-3.699,3.563-7.513,7.001-11.431,10.334C377.145,489.064,319.258,512,256,512  c-11.692,0-23.197-0.784-34.482-2.309c-15.078-2.027-29.748-5.371-43.886-9.916c-26.373-8.464-50.876-21.096-72.746-37.125  c-22.915-16.771-42.924-37.271-59.152-60.604c-2.675-3.824-5.235-7.732-7.69-11.713c-8.088-13.072-15.015-26.917-20.658-41.409  C6.154,320.115,0,288.778,0,256c0-12.319,0.867-24.44,2.56-36.289c2.132-15.099,5.59-29.759,10.25-43.886  c10.459-31.754,26.958-60.75,48.149-85.64c9.488-11.16,19.926-21.494,31.19-30.877c24.931-20.793,53.864-36.937,85.483-47.083  c14.137-4.545,28.808-7.889,43.886-9.916C232.803,0.784,244.308,0,256,0c32.778,0,64.115,6.154,92.923,17.387  c14.493,5.642,28.338,12.57,41.409,20.658c10.606,6.552,20.699,13.855,30.208,21.838c27.669,23.228,50.354,52.214,66.205,85.117  c4.786,9.937,8.955,20.229,12.445,30.824c4.66,14.127,8.119,28.787,10.25,43.886C511.133,231.56,512,243.681,512,256z"/>
<g>
	<path style="fill:#74D9EF;" d="M486.745,145H371.984c-8.37,0-15.945-3.385-21.431-8.871c-5.486-5.486-8.871-13.061-8.871-21.431   c0-16.739,13.563-30.302,30.302-30.302h18.808c14.764,0,27.052-10.543,29.748-24.513C448.209,83.111,470.894,112.097,486.745,145z"/>
	<path style="fill:#74D9EF;" d="M146.286,432.347c0,16.739-13.563,30.302-30.302,30.302h-11.097   c-22.915-16.771-42.924-37.272-59.152-60.604h70.248c8.37,0,15.945,3.385,21.431,8.871S146.286,423.978,146.286,432.347z"/>
	<path style="fill:#74D9EF;" d="M479.943,380.123c-7.837,14.117-16.98,27.418-27.251,39.727   c-6.092,7.314-12.581,14.273-19.446,20.856H301.975c-8.37,0-15.945-3.385-21.431-8.871c-5.486-5.486-8.871-13.061-8.871-21.431   c0-16.739-13.573-30.302-30.302-30.302h-18.808c-8.37,0-15.945-3.385-21.431-8.871c-5.486-5.486-8.871-13.061-8.871-21.431   c0-16.739,13.563-30.302,30.302-30.302h18.808c8.359,0,15.945-3.385,21.42-8.871c5.486-5.486,8.882-13.061,8.882-21.431   c0-16.739,13.563-30.302,30.302-30.302h135.837c8.359,0,15.945,3.385,21.42,8.871c5.486,5.486,8.882,13.061,8.882,21.431   c0,16.739-13.573,30.302-30.302,30.302h-18.808c-16.739,0-30.302,13.563-30.302,30.302c0,16.739,13.563,30.302,30.302,30.302   h60.029C479.336,380.103,479.639,380.103,479.943,380.123z"/>
</g>
<g>
	<path style="fill:#FCE39D;" d="M221.518,99.547v410.143c-15.078-2.027-29.748-5.371-43.886-9.916V99.547   C191.77,95.002,206.44,101.575,221.518,99.547z"/>
	<path style="fill:#FCE39D;" d="M452.692,419.85c-9.383,11.264-19.717,21.703-30.877,31.19L146.599,175.825l-85.64-85.64   c9.488-11.16,19.926-21.494,31.19-30.877L452.692,419.85z"/>
	<path style="fill:#FCE39D;" d="M509.44,219.711H130.612c2.132-15.099-29.738-29.759-25.078-43.886H499.19   C503.85,189.952,507.308,204.612,509.44,219.711z"/>
	<path style="fill:#FCE39D;" d="M390.332,38.045L177.633,250.744L38.045,390.332c-8.088-13.072-15.015-26.917-20.658-41.409   L348.923,17.387C363.415,23.03,377.26,29.957,390.332,38.045z"/>
	<circle style="fill:#FCE39D;" cx="199.576" cy="197.768" r="186.744"/>
</g>
<circle style="fill:#FFD662;" cx="199.576" cy="197.768" r="132.859"/>
<g>
</g>
<g>
</g>
<g>
</g>
<g>
</g>
<g>
</g>
<g>
</g>
<g>
</g>
<g>
</g>
<g>
</g>
<g>
</g>
<g>
</g>
<g>
</g>
<g>
</g>
<g>
</g>
<g>
</g>
</svg>
