<?xml version="1.0" encoding="iso-8859-1"?>
<!-- Generator: Adobe Illustrator 19.0.0, SVG Export Plug-In . SVG Version: 6.00 Build 0)  -->
<svg xmlns="http://www.w3.org/2000/svg" xmlns:xlink="http://www.w3.org/1999/xlink" version="1.1" id="Capa_1" x="0px" y="0px" viewBox="0 0 512 512" style="enable-background:new 0 0 512 512;" xml:space="preserve">
<circle style="fill:#3FCDE0;" cx="256" cy="256" r="256"/>
<g>
	<path style="fill:#74D9EF;" d="M491.356,356.894c-6.019,14.002-13.249,27.345-21.567,39.926l-0.01,0.052   c-10.574,16.029-22.915,30.793-36.728,44.032c-1.714,1.641-3.459,3.26-5.224,4.859c-13.573,12.298-28.463,23.155-44.45,32.34   h-79.893c-8.359,0-15.945-3.396-21.42-8.882c-5.486-5.486-8.882-13.051-8.882-21.42c0-16.739,13.573-30.302,30.302-30.302h18.808   c16.739,0,30.302-13.573,30.302-30.302c0-16.739,13.573-30.302,30.302-30.302H491.356z"/>
	<path style="fill:#74D9EF;" d="M467.961,112.388h-89.245c-16.729,0-30.302-13.573-30.302-30.302c0-8.37-3.385-15.945-8.871-21.431   c-5.486-5.475-13.061-8.871-21.431-8.871h-18.808c-16.729,0-30.302-13.573-30.302-30.302c0-7.973,3.082-15.214,8.119-20.626   C356.501,7.334,425.621,50.029,467.961,112.388z"/>
	<path style="fill:#74D9EF;" d="M276.326,283.03c0,16.729-13.563,30.302-30.302,30.302H68.966c-8.37,0-15.945-3.396-21.431-8.882   c-5.486-5.475-8.871-13.061-8.871-21.42c0-16.739-13.563-30.302-30.302-30.302H0.024c0.261-20.898,3.03-41.19,8.014-60.604h0.324   c8.37,0,15.945-3.396,21.431-8.882c5.486-5.475,8.871-13.061,8.871-21.42c0-16.739,13.563-30.302,30.302-30.302h135.837   c8.37,0,15.945,3.385,21.431,8.871s8.871,13.061,8.871,21.431c0,16.729-13.563,30.302-30.302,30.302h-18.808   c-16.739,0-30.302,13.563-30.302,30.302c0,16.729,13.563,30.302,30.302,30.302h60.029c8.37,0,15.945,3.385,21.431,8.871   C272.93,267.085,276.326,274.661,276.326,283.03z"/>
</g>
<g>
	<path style="fill:#E5E5E5;" d="M264.496,177.657v-0.014l9.84-31.633L453.239,43.627c5.261-3.012,11.004-4.445,16.68-4.445   c11.285,0,22.29,5.689,28.634,15.958c9.532,15.435,5.1,35.636-10,45.677l-171.661,114.11l-32.691-5.369   c0.241-1.499,0.375-3.052,0.375-4.618C284.577,192.115,276.129,181.271,264.496,177.657z"/>
	<path style="fill:#E5E5E5;" d="M247.498,177.642v0.01c-2.361,0.731-4.598,1.766-6.656,3.062   c-7.293,4.556-12.361,12.319-13.27,21.316c-0.094,0.951-0.146,1.923-0.146,2.905c0,1.567,0.136,3.124,0.376,4.618h-0.01   l-32.705,5.371L23.44,100.811C8.331,90.78,3.922,70.571,13.451,55.138c2.591-4.2,5.956-7.628,9.812-10.219   c5.569-3.751,12.142-5.736,18.819-5.736c5.684,0,11.421,1.432,16.687,4.441l178.887,102.39l8.777,28.212L247.498,177.642z"/>
</g>
<g>
	<path style="fill:#F7F7F7;" d="M246.432,174.225c-2.173,1.86-4.065,4.044-5.59,6.489c-2.759,4.389-4.357,9.592-4.357,15.172   c0,1.567,0.136,3.114,0.376,4.618h-0.021l-9.268,1.526l-23.427,3.845L32.489,91.762C17.39,81.72,12.97,61.523,22.51,46.079   c0.24-0.397,0.491-0.784,0.752-1.16c5.569-3.751,12.142-5.736,18.819-5.736c5.684,0,11.421,1.432,16.687,4.441l178.887,102.39   L246.432,174.225z"/>
	<path style="fill:#F7F7F7;" d="M265.558,174.225c2.173,1.86,4.065,4.044,5.59,6.489c2.759,4.389,4.357,9.592,4.357,15.172   c0,1.567-0.136,3.114-0.376,4.618h0.021l9.268,1.526l23.427,3.845L479.501,91.762c15.099-10.041,19.519-30.239,9.979-45.683   c-0.24-0.397-0.491-0.784-0.752-1.16c-5.569-3.751-12.142-5.736-18.819-5.736c-5.684,0-11.421,1.432-16.687,4.441l-178.887,102.39   L265.558,174.225z"/>
</g>
<path style="fill:#E5E5E5;" d="M296.493,251.516l-6.886,205.991c-0.564,16.478-12.884,29.853-28.735,32.162  c-1.588,0.23-3.218,0.345-4.88,0.345c-9.07,0-17.324-3.584-23.385-9.446c-6.06-5.872-9.916-13.991-10.23-23.061l-6.896-205.991  l21.755-25.015c1.86,1.62,3.939,3.009,6.186,4.106c3.793,1.87,8.056,2.915,12.57,2.915c1.661,0,3.302-0.146,4.88-0.418  c5.266-0.909,10.021-3.25,13.876-6.604l3.574,4.106L296.493,251.516z"/>
<path style="fill:#F7F7F7;" d="M296.493,251.516l-6.886,205.991c-0.564,16.478-12.884,29.853-28.735,32.162  c-7.137-1.034-13.552-4.305-18.516-9.101c-6.06-5.872-9.916-13.991-10.219-23.061l-6.896-205.991l18.181-20.908l3.574-4.106  c3.856,3.354,8.61,5.695,13.876,6.604c1.578,0.272,3.218,0.418,4.88,0.418c4.514,0,8.777-1.045,12.57-2.915L296.493,251.516z"/>
<path style="fill:#FF5662;" d="M284.198,201.619c0.241,1.499,0.375,3.052,0.375,4.618c0,12.825-8.433,23.668-20.067,27.282  c-2.691,0.83-5.542,1.285-8.5,1.285s-5.81-0.456-8.5-1.285c-11.633-3.614-20.081-14.458-20.081-27.282  c0-1.566,0.134-3.119,0.375-4.618h0.014c1.071-6.733,4.512-12.664,9.438-16.948c5.02-4.365,11.566-7.014,18.755-7.014  s13.735,2.651,18.755,7.014C279.673,188.955,283.113,194.9,284.198,201.619z"/>
<path style="fill:#FFD662;" d="M256.005,242.169c-3.61,0-7.2-0.542-10.669-1.612c-15.124-4.699-25.274-18.488-25.274-34.32  c0-1.907,0.158-3.854,0.469-5.788c0.025-0.159,0.056-0.317,0.092-0.471c1.397-8.059,5.575-15.452,11.798-20.863  c6.544-5.688,14.92-8.821,23.586-8.821c8.666,0,17.041,3.133,23.585,8.82c6.332,5.521,10.547,13.095,11.876,21.333  c0.311,1.934,0.469,3.881,0.469,5.791c0,15.832-10.145,29.623-25.245,34.314c-0.005,0.001-0.01,0.003-0.016,0.004  C263.205,241.626,259.615,242.169,256.005,242.169z M235.011,203.164c-0.149,1.037-0.225,2.069-0.225,3.073  c0,9.343,5.989,17.482,14.902,20.252c4.092,1.262,8.517,1.267,12.642-0.003c8.899-2.77,14.878-10.907,14.878-20.249  c0-1.128-0.095-2.289-0.281-3.449c-0.782-4.845-3.271-9.31-7.007-12.568c-3.856-3.351-8.801-5.202-13.916-5.202  c-5.116,0-10.06,1.849-13.924,5.209c-3.742,3.255-6.228,7.711-6.998,12.548C235.062,202.907,235.038,203.036,235.011,203.164z"/>
<g>
	<path style="fill:#E5E5E5;" d="M68.7,339.69v-0.007l5.428-17.451l98.691-56.479c2.903-1.661,6.071-2.451,9.201-2.451   c6.226,0,12.295,3.139,15.796,8.802c5.258,8.515,2.814,19.659-5.516,25.197l-94.696,62.949l-18.034-2.961   c0.133-0.828,0.207-1.683,0.207-2.547C79.777,347.666,75.117,341.684,68.7,339.69z"/>
	<path style="fill:#E5E5E5;" d="M59.322,339.685c-1.306,0.408-2.539,0.972-3.668,1.693c-4.023,2.508-6.823,6.792-7.325,11.755   c-0.052,0.522-0.084,1.066-0.084,1.609c0,0.857,0.084,1.724,0.209,2.539l-18.045,2.967l-11.567-7.69   c-1.505-3.668-2.915-7.387-4.242-11.139c-5.496-15.538-9.54-31.765-11.954-48.515l51.242,29.33l4.848,15.559L59.322,339.685z"/>
</g>
<g>
	<path style="fill:#F7F7F7;" d="M58.737,337.794c-1.202,1.034-2.247,2.236-3.082,3.584c-1.526,2.424-2.403,5.287-2.403,8.37   c0,0.867,0.073,1.714,0.199,2.55h-0.01l-5.11,0.836l-12.925,2.121L14.6,341.419c-5.496-15.538-9.54-31.765-11.954-48.515   l51.242,29.33L58.737,337.794z"/>
	<path style="fill:#F7F7F7;" d="M69.285,337.797c1.199,1.026,2.242,2.231,3.083,3.58c1.521,2.421,2.403,5.291,2.403,8.37   c0,0.864-0.075,1.718-0.208,2.547h0.011l5.113,0.841l12.923,2.121l94.693-62.95c8.329-5.539,10.768-16.682,5.505-25.201   c-0.133-0.219-0.271-0.433-0.415-0.639c-3.072-2.069-6.698-3.165-10.381-3.165c-3.136,0-6.3,0.79-9.206,2.449l-98.681,56.483   L69.285,337.797z"/>
</g>
<path style="fill:#E5E5E5;" d="M86.353,380.436l-2.184,65.327c-13.49-12.215-25.663-25.861-36.3-40.678  c-1.933-2.706-3.824-5.444-5.653-8.223v-0.01l-0.554-16.415l11.995-13.803c1.034,0.899,2.173,1.661,3.417,2.267  c2.09,1.034,4.441,1.609,6.938,1.609c0.909,0,1.818-0.084,2.685-0.23c2.905-0.502,5.528-1.797,7.659-3.647l1.964,2.267  L86.353,380.436z"/>
<path style="fill:#F7F7F7;" d="M86.353,380.436l-2.184,65.327c-13.49-12.215-25.663-25.861-36.3-40.678l-0.825-24.649L57.075,368.9  l1.975-2.267c2.121,1.849,4.744,3.145,7.649,3.647c0.867,0.146,1.776,0.23,2.696,0.23c2.487,0,4.838-0.575,6.928-1.609  L86.353,380.436z"/>
<path style="fill:#FF5662;" d="M79.568,352.909c0.133,0.828,0.207,1.683,0.207,2.547c0,7.075-4.653,13.056-11.07,15.051  c-1.485,0.458-3.057,0.708-4.689,0.708c-1.632,0-3.205-0.251-4.69-0.708c-6.418-1.994-11.077-7.976-11.077-15.051  c0-0.864,0.074-1.721,0.207-2.547h0.007c0.59-3.715,2.489-6.986,5.207-9.35c2.769-2.407,6.38-3.869,10.347-3.869  s7.577,1.462,10.347,3.869C77.072,345.923,78.969,349.202,79.568,352.909z"/>
<path style="fill:#FFD662;" d="M64.016,375.277c-1.992,0-3.972-0.299-5.886-0.889c-8.342-2.592-13.942-10.199-13.942-18.931  c0-1.052,0.087-2.126,0.258-3.192c0.014-0.088,0.031-0.174,0.05-0.26c0.771-4.446,3.075-8.524,6.509-11.51  c3.61-3.138,8.231-4.866,13.011-4.866s9.401,1.728,13.011,4.866c3.493,3.046,5.818,7.223,6.552,11.768  c0.171,1.067,0.258,2.141,0.258,3.194c0,8.734-5.596,16.341-13.926,18.929c-0.003,0.001-0.006,0.002-0.008,0.002  C67.987,374.978,66.007,375.277,64.016,375.277z M52.434,353.761c-0.083,0.572-0.124,1.141-0.124,1.696  c0,5.155,3.304,9.644,8.22,11.172c2.257,0.696,4.698,0.699,6.974-0.001c4.909-1.528,8.208-6.017,8.208-11.17  c0-0.623-0.052-1.263-0.155-1.903c-0.432-2.673-1.805-5.136-3.865-6.933c-2.127-1.848-4.855-2.869-7.677-2.869  c-2.822,0-5.549,1.021-7.681,2.873c-2.065,1.795-3.436,4.254-3.86,6.922C52.462,353.619,52.45,353.691,52.434,353.761z"/>
<g>
	<path style="fill:#E5E5E5;" d="M509.36,292.905c-2.414,16.76-6.457,32.977-11.954,48.515c-1.327,3.751-2.738,7.45-4.221,11.118   v0.01l-11.598,7.701l-18.035-2.957c0.136-0.826,0.209-1.682,0.209-2.55c0-7.074-4.66-13.061-11.076-15.057l5.423-17.45   L509.36,292.905z"/>
	<path style="fill:#E5E5E5;" d="M443.303,339.682v0.006c-1.303,0.403-2.536,0.974-3.672,1.689   c-4.023,2.513-6.819,6.796-7.321,11.759c-0.052,0.525-0.08,1.061-0.08,1.602c0,0.864,0.075,1.724,0.208,2.547h-0.006l-18.041,2.962   l-94.688-62.95c-8.335-5.534-10.768-16.682-5.511-25.195c1.429-2.318,3.285-4.208,5.413-5.637   c3.072-2.069,6.698-3.165,10.381-3.165c3.136,0,6.3,0.79,9.206,2.449l98.681,56.483l4.842,15.563L443.303,339.682z"/>
</g>
<g>
	<path style="fill:#F7F7F7;" d="M442.716,337.797c-1.198,1.026-2.242,2.231-3.083,3.58c-1.521,2.421-2.403,5.291-2.403,8.37   c0,0.864,0.075,1.718,0.208,2.547h-0.011l-5.113,0.841l-12.923,2.121l-94.693-62.95c-8.329-5.539-10.768-16.682-5.505-25.201   c0.133-0.219,0.271-0.433,0.415-0.639c3.072-2.069,6.698-3.165,10.381-3.165c3.136,0,6.3,0.79,9.206,2.449l98.681,56.483   L442.716,337.797z"/>
	<path style="fill:#F7F7F7;" d="M509.36,292.894c-2.414,16.76-6.457,32.987-11.954,48.525l-20.814,13.834l-12.925-2.121l-5.11-0.836   h-0.01c0.136-0.836,0.209-1.682,0.209-2.55c0-3.082-0.888-5.945-2.403-8.37c-0.846-1.348-1.891-2.55-3.082-3.584l4.838-15.559   L509.36,292.894z"/>
</g>
<path style="fill:#E5E5E5;" d="M470.333,380.436l-0.543,16.384l-0.01,0.052c-10.574,16.029-22.915,30.793-36.728,44.032  c-1.714,1.641-3.459,3.26-5.224,4.859l-2.184-65.327l11.995-13.803c1.034,0.899,2.173,1.661,3.417,2.267  c2.09,1.034,4.441,1.609,6.938,1.609c0.909,0,1.818-0.084,2.685-0.23c2.905-0.502,5.528-1.797,7.659-3.647l1.975,2.267  L470.333,380.436z"/>
<path style="fill:#F7F7F7;" d="M470.333,380.436l-0.554,16.415v0.021c-10.574,16.029-22.915,30.793-36.728,44.032l-2.027-60.468  l10.031-11.536l1.975-2.267c2.121,1.849,4.744,3.145,7.649,3.647c0.878,0.146,1.776,0.23,2.696,0.23  c2.487,0,4.838-0.575,6.938-1.609L470.333,380.436z"/>
<path style="fill:#FF5662;" d="M463.548,352.909c0.133,0.828,0.207,1.683,0.207,2.547c0,7.075-4.653,13.056-11.07,15.051  c-1.485,0.458-3.057,0.708-4.69,0.708c-1.632,0-3.205-0.251-4.689-0.708c-6.418-1.994-11.077-7.976-11.077-15.051  c0-0.864,0.074-1.721,0.207-2.547h0.007c0.59-3.715,2.489-6.986,5.207-9.35c2.769-2.407,6.38-3.869,10.347-3.869  c3.965,0,7.577,1.462,10.347,3.869C461.053,345.923,462.95,349.202,463.548,352.909z"/>
<path style="fill:#FFD662;" d="M447.996,375.277c-1.992,0-3.972-0.299-5.886-0.889c-8.342-2.592-13.942-10.199-13.942-18.931  c0-1.052,0.087-2.126,0.258-3.192c0.014-0.088,0.031-0.174,0.05-0.26c0.771-4.446,3.075-8.524,6.509-11.51  c3.61-3.138,8.231-4.866,13.011-4.866s9.401,1.728,13.011,4.866c3.493,3.046,5.818,7.223,6.552,11.768  c0.171,1.067,0.258,2.141,0.258,3.194c0,8.734-5.596,16.341-13.926,18.929c-0.003,0.001-0.006,0.002-0.008,0.002  C451.969,374.978,449.987,375.277,447.996,375.277z M436.415,353.761c-0.083,0.572-0.124,1.141-0.124,1.696  c0,5.155,3.304,9.644,8.22,11.172c2.257,0.696,4.698,0.699,6.974-0.001c4.909-1.528,8.208-6.017,8.208-11.17  c0-0.623-0.052-1.263-0.155-1.903c-0.432-2.673-1.805-5.136-3.865-6.933c-2.127-1.848-4.855-2.869-7.677-2.869  c-2.822,0-5.549,1.021-7.681,2.873c-2.065,1.795-3.436,4.254-3.86,6.922C436.443,353.619,436.43,353.691,436.415,353.761z"/>
<g>
</g>
<g>
</g>
<g>
</g>
<g>
</g>
<g>
</g>
<g>
</g>
<g>
</g>
<g>
</g>
<g>
</g>
<g>
</g>
<g>
</g>
<g>
</g>
<g>
</g>
<g>
</g>
<g>
</g>
</svg>
