<?xml version="1.0" encoding="iso-8859-1"?>
<!-- Generator: Adobe Illustrator 19.0.0, SVG Export Plug-In . SVG Version: 6.00 Build 0)  -->
<svg xmlns="http://www.w3.org/2000/svg" xmlns:xlink="http://www.w3.org/1999/xlink" version="1.1" id="Capa_1" x="0px" y="0px" viewBox="0 0 512 512" style="enable-background:new 0 0 512 512;" xml:space="preserve">
<circle style="fill:#5C5E70;" cx="256" cy="256" r="256"/>
<g>
	<path style="fill:#E5B691;" d="M66.684,211.694l13.725,4.227c15.666,4.825,21.206,24.158,10.473,36.548L71.17,275.223"/>
	<path style="fill:#E5B691;" d="M445.316,211.694l-13.725,4.227c-15.666,4.825-21.206,24.158-10.473,36.548l19.712,22.754"/>
	<path style="fill:#E5B691;" d="M487.103,213.461l-1.473,123.225c-0.146,12.382-4.754,24.304-12.967,33.573l-82.557,93.09   c-3.626,4.086-5.851,9.195-6.405,14.576c-27.627,15.935-58.504,26.854-91.397,31.514l-16.269-89.13   c-3.647-19.958,1.766-40.73,15.423-55.745c0.554-0.606,1.118-1.212,1.693-1.797l78.033-79.935   c3.532-3.626,8.213-5.423,12.884-5.423c4.796,0,9.592,1.902,13.155,5.705c6.395,6.844,6.478,17.46,0.188,24.398l-46.989,51.806   c-2.905,3.208-4.326,7.22-4.326,11.201c0,4.942,2.173,9.843,6.384,13.145c6.855,5.392,16.697,4.598,22.601-1.829l54.366-59.141   c4.838-5.266,7.743-12.006,8.244-19.122l6.489-91.878c0.794-11.264,10.156-19.978,21.441-19.978h0.157   C477.678,191.811,487.249,201.56,487.103,213.461z"/>
	<path style="fill:#E5B691;" d="M235.962,420.309l-15.569,85.274l-0.7,3.856c-32.893-4.66-63.77-15.59-91.397-31.525   c-0.554-5.381-2.779-10.48-6.395-14.566l-82.557-93.09c-8.223-9.268-12.831-21.191-12.978-33.573l-1.473-123.225   c-0.136-11.901,9.425-21.65,21.326-21.744h0.157c0.69,0,1.369,0.031,2.038,0.104c10.355,0.972,18.662,9.3,19.414,19.874   l6.489,91.878c0.502,7.116,3.406,13.855,8.234,19.122l54.366,59.141c5.413,5.893,14.137,7.053,20.835,3.051h0.01   c0.606-0.376,1.202-0.773,1.766-1.223c4.211-3.302,6.384-8.202,6.384-13.134c0-3.992-1.421-8.004-4.336-11.212l-46.979-51.806   c-6.301-6.938-6.217-17.554,0.188-24.398c3.553-3.803,8.349-5.705,13.155-5.705c0.899,0,1.808,0.063,2.696,0.199   c3.73,0.564,7.325,2.299,10.188,5.224l78.033,79.935c0.575,0.585,1.139,1.191,1.693,1.797   C234.196,379.579,239.609,400.352,235.962,420.309z"/>
</g>
<g>
	<path style="fill:#F7CEA6;" d="M235.962,420.309l-12.716,89.6c-1.191-0.146-2.372-0.303-3.553-0.47   c-29.32-4.148-57.031-13.291-82.265-26.509c-1.034-10.324-2.393-19.822-4.033-21.671l-82.557-93.09   c-8.223-9.268-12.831-21.191-12.978-33.573l-1.473-123.225c-0.094-8.568,4.827-16.018,12.027-19.55   c10.355,0.972,18.662,9.3,19.414,19.874l6.489,91.878c0.502,7.116,3.406,13.855,8.234,19.122l54.366,59.141   c5.413,5.893,14.137,7.053,20.835,3.051h0.01c4.545,0.805,9.383-0.261,13.26-3.312c4.211-3.302,6.384-8.202,6.384-13.134   c0-3.992-1.421-8.004-4.336-11.212l-46.979-51.806c-6.301-6.938-6.217-17.554,0.188-24.398c1.306-1.4,2.779-2.529,4.357-3.417   c3.73,0.564,7.325,2.299,10.188,5.224l78.033,79.935c0.575,0.585,1.139,1.191,1.693,1.797   C234.196,379.579,239.609,400.352,235.962,420.309z"/>
	<path style="fill:#F7CEA6;" d="M276.044,420.309l12.716,89.6c1.191-0.146,2.372-0.303,3.553-0.47   c29.32-4.148,57.031-13.291,82.265-26.509c1.034-10.324,2.393-19.822,4.033-21.671l82.557-93.09   c8.223-9.268,12.831-21.191,12.978-33.573l1.473-123.225c0.094-8.568-4.827-16.018-12.027-19.55   c-10.355,0.972-18.662,9.3-19.414,19.874l-6.489,91.878c-0.502,7.116-3.406,13.855-8.234,19.122l-54.366,59.141   c-5.413,5.893-14.137,7.053-20.835,3.051h-0.01c-4.545,0.805-9.383-0.261-13.26-3.312c-4.211-3.302-6.384-8.202-6.384-13.134   c0-3.992,1.421-8.004,4.336-11.212l46.979-51.806c6.301-6.938,6.217-17.554-0.188-24.398c-1.306-1.4-2.779-2.529-4.357-3.417   c-3.73,0.564-7.325,2.299-10.188,5.224l-78.033,79.935c-0.575,0.585-1.139,1.191-1.693,1.797   C277.81,379.579,272.398,400.352,276.044,420.309z"/>
</g>
<path style="fill:#25B6C9;" d="M400.909,144.938c0,1.919-0.039,3.829-0.115,5.729c-1.318,33.946-14.323,64.903-35.101,88.956  c-2.531,2.941-5.185,5.777-7.954,8.498c-24.789,24.435-58.353,40.019-95.527,41.585c-2.053,0.086-4.125,0.134-6.207,0.134  c-2.081,0-4.153-0.048-6.207-0.134c-37.173-1.566-70.738-17.15-95.527-41.594c-2.769-2.712-5.424-5.547-7.963-8.489  c-20.778-24.054-33.784-55.011-35.101-88.956c-0.076-1.901-0.115-3.81-0.115-5.729c0-1.919,0.039-3.83,0.115-5.729  c1.318-33.946,14.323-64.903,35.101-88.956c2.54-2.941,5.185-5.777,7.954-8.498c24.789-24.445,58.353-40.029,95.536-41.594  c2.053-0.086,4.125-0.134,6.207-0.134c2.081,0,4.153,0.048,6.207,0.134c37.173,1.566,70.737,17.15,95.527,41.594  c2.769,2.721,5.424,5.558,7.954,8.498c20.778,24.054,33.784,55.011,35.101,88.956C400.87,141.108,400.909,143.018,400.909,144.938z"/>
<ellipse style="fill:#3FCDE0;" cx="256" cy="144.938" rx="125.294" ry="144.906"/>
<g>
	<path style="fill:#25B6C9;" d="M335.249,224.12c9.893-23.326,15.207-50.642,15.207-79.187c0-28.542-5.313-55.857-15.205-79.182   c10.741-4.139,20.711-9.159,29.688-15.004l0.754-0.496c-2.531-2.941-5.185-5.777-7.954-8.498   c-8.19,5.229-17.411,9.759-27.384,13.523c-2.089-4.078-4.325-8.01-6.716-11.768c-16.405-25.789-38.027-40.917-61.427-43.196V0.159   c-1.212-0.051-2.433-0.084-3.656-0.106C257.706,0.02,256.855,0,256.002,0c-0.854,0-1.705,0.02-2.556,0.053   c-1.22,0.022-2.439,0.054-3.648,0.106v0.153c-23.403,2.277-45.027,17.405-61.433,43.196c-2.391,3.757-4.626,7.689-6.715,11.767   c-9.974-3.763-19.197-8.292-27.388-13.521c-2.769,2.721-5.414,5.558-7.954,8.498l0.754,0.496   c8.979,5.845,18.95,10.865,29.692,15.003c-9.229,21.761-14.467,46.994-15.128,73.457h-50.419c-0.076,1.901-0.115,3.81-0.115,5.729   c0,1.919,0.039,3.829,0.115,5.729h50.419c0.662,26.462,5.901,51.694,15.129,73.454c-10.743,4.14-20.714,9.161-29.693,15.006   l-0.754,0.496c2.54,2.941,5.194,5.777,7.963,8.489c8.19-5.224,17.41-9.753,27.381-13.515c2.088,4.076,4.324,8.007,6.713,11.763   c16.406,25.791,38.031,40.92,61.433,43.196v0.149c1.185,0.049,2.377,0.083,3.574,0.104c0.875,0.036,1.751,0.057,2.63,0.057   s1.754-0.022,2.629-0.057c1.199-0.022,2.394-0.054,3.581-0.104v-0.15c23.4-2.279,45.023-17.407,61.427-43.196   c2.39-3.756,4.626-7.688,6.713-11.765c9.974,3.764,19.195,8.296,27.385,13.525c2.769-2.722,5.424-5.558,7.954-8.498l-0.754-0.496   C355.961,233.282,345.991,228.26,335.249,224.12z M338.042,144.935c0,27.228-5.096,53.16-14.555,75.107   c-18.831-5.859-39.599-9.191-61.276-9.726v-59.649h113.351c3.164,0,5.729-2.565,5.729-5.729c0-3.164-2.565-5.729-5.729-5.729   H262.211V79.55c21.677-0.534,42.446-3.865,61.277-9.721C332.947,91.777,338.042,117.707,338.042,144.935z M313.165,50.171   c1.862,2.927,3.616,5.979,5.281,9.123c-17.4,5.223-36.563,8.262-56.234,8.792V12.797C281.283,15.132,299.185,28.193,313.165,50.171   z M198.839,50.171c13.981-21.979,31.885-35.041,50.96-37.375v55.29c-19.67-0.531-38.836-3.569-56.24-8.794   C195.224,56.148,196.977,53.096,198.839,50.171z M188.516,69.827c18.834,5.857,39.603,9.188,61.282,9.722v59.658H174.05   C174.712,114.078,179.722,90.23,188.516,69.827z M174.05,150.667h75.749v59.649c-21.678,0.535-42.448,3.868-61.281,9.727   C179.723,199.642,174.713,175.796,174.05,150.667z M198.839,239.699c-1.861-2.926-3.614-5.976-5.279-9.119   c17.403-5.226,36.567-8.268,56.239-8.799v55.293C230.724,274.739,212.82,261.678,198.839,239.699z M313.165,239.699   c-13.981,21.976-31.882,35.038-50.953,37.374v-55.292c19.671,0.531,38.835,3.571,56.233,8.797   C316.781,233.722,315.026,236.773,313.165,239.699z"/>
	<path style="fill:#25B6C9;" d="M400.794,139.209h-31.082c-3.164,0-5.729,2.565-5.729,5.729c0,3.164,2.565,5.729,5.729,5.729h31.082   c0.076-1.901,0.115-3.81,0.115-5.729C400.909,143.018,400.87,141.108,400.794,139.209z"/>
</g>
<g>
</g>
<g>
</g>
<g>
</g>
<g>
</g>
<g>
</g>
<g>
</g>
<g>
</g>
<g>
</g>
<g>
</g>
<g>
</g>
<g>
</g>
<g>
</g>
<g>
</g>
<g>
</g>
<g>
</g>
</svg>
