<?xml version="1.0" encoding="iso-8859-1"?>
<!-- Generator: Adobe Illustrator 19.0.0, SVG Export Plug-In . SVG Version: 6.00 Build 0)  -->
<svg xmlns="http://www.w3.org/2000/svg" xmlns:xlink="http://www.w3.org/1999/xlink" version="1.1" id="Capa_1" x="0px" y="0px" viewBox="0 0 512 512" style="enable-background:new 0 0 512 512;" xml:space="preserve">
<path style="fill:#3FCDE0;" d="M512,256c0,24.074-3.323,47.386-9.54,69.475c-5.914,21.023-14.44,40.95-25.224,59.402  C432.849,460.915,350.386,512,256,512c-16.833,0-33.29-1.63-49.215-4.733c-92.15-17.941-166.63-85.305-194.717-173.38  C4.232,309.321,0,283.157,0,256c0-33.876,6.583-66.215,18.536-95.807c0.909-2.267,1.86-4.514,2.832-6.75  c0.93-2.121,1.881-4.232,2.873-6.322c34.628-73.592,103.267-128,185.657-142.973C224.852,1.421,240.264,0,256,0  c56.55,0,108.816,18.328,151.176,49.382c18.119,13.27,34.419,28.881,48.483,46.373c10.992,13.688,20.616,28.536,28.651,44.314  C502.021,174.874,512,214.277,512,256z"/>
<path style="fill:#74D9EF;" d="M257.515,143.956c0,16.739-13.563,30.302-30.302,30.302H50.155c-8.37,0-15.945-3.385-21.431-8.871  c-3.312-3.312-5.862-7.387-7.356-11.943c0.93-2.121,1.881-4.232,2.873-6.322c34.628-73.592,103.267-128,185.657-142.973  c4.012,5.13,6.395,11.588,6.395,18.599c0,16.739-13.573,30.302-30.302,30.302h-18.808c-16.739,0-30.302,13.563-30.302,30.302  s13.563,30.302,30.302,30.302h60.029c8.37,0,15.945,3.385,21.431,8.871C254.119,128.01,257.515,135.586,257.515,143.956z"/>
<path style="fill:#E5E5E5;" d="M502.46,325.475C472.179,433.1,373.3,512,256,512c-114.228,0-210.986-74.815-243.931-178.113  c11.88-75.097,8.589-145.429,6.468-173.693c-0.627-8.391-1.16-13.072-1.16-13.072h183.714c0.408-58.023-4.086-97.74-4.086-97.74  h291.422c0,0-4.117,36.519-4.117,90.687C484.321,191.394,488.03,258.539,502.46,325.475z"/>
<path style="fill:#F7F7F7;" d="M477.236,384.878C432.849,460.915,350.386,512,256,512h-51.837c0.888-1.557,1.755-3.145,2.623-4.733  c53.384-98.847,63.676-257.912,64.115-360.145c0.261-58.023-2.654-97.74-2.654-97.74h189.492c0,0-1.285,17.554-2.079,46.373  C453.914,159.619,454.614,278.821,477.236,384.878z"/>
<g>
	<path style="fill:#F23B52;" d="M19.768,256.177l0.695,0.029H194.43c2.476-20.533,4.113-40.545,5.156-59.5H20.464h-0.131   C20.782,213.56,20.797,233.847,19.768,256.177z"/>
	<path style="fill:#F23B52;" d="M200.035,187.641l0.883,0.044h283.758l0.724-0.029c-1.303-28.309-1.288-54.026-0.724-75.4H200.759   c0.275,10.614,0.42,22.315,0.333,34.869C201.005,159.823,200.686,173.406,200.035,187.641z"/>
</g>
<path style="fill:#FF5662;" d="M455.744,187.684c-0.826-28.324-0.826-54.056-0.463-75.428H270.685  c0.188,10.614,0.275,22.315,0.217,34.869c-0.057,12.714-0.26,26.311-0.68,40.56h185.522V187.684z"/>
<g>
	<path style="fill:#FFD662;" d="M342.719,313.958c7.004,0,12.688,5.684,12.688,12.688c0,7.004-5.684,12.688-12.688,12.688   c-7.015,0-12.688-5.684-12.688-12.688C330.031,319.643,335.704,313.958,342.719,313.958z"/>
	<path style="fill:#FFD662;" d="M354.677,348.457l26.174,46.374c-11.259,6.372-24.275,10.005-38.131,10.005   c-14.134,0-27.379-3.775-38.797-10.381l26.626-46.118c3.579,2.073,7.735,3.262,12.17,3.262   C347.061,351.599,351.142,350.459,354.677,348.457z"/>
	<path style="fill:#FFD662;" d="M420.287,327.263h-53.235c0-8.915-4.798-16.715-11.964-20.944l27.071-45.856   c10.742,6.353,19.818,15.22,26.413,25.796C415.999,298.156,420.287,312.208,420.287,327.263z"/>
	<path style="fill:#FFD662;" d="M330.348,306.318c-7.165,4.229-11.964,12.029-11.964,20.944h-53.235   c0-17.51,5.807-33.673,15.594-46.652c6.109-8.102,13.773-14.965,22.534-20.15L330.348,306.318z"/>
</g>
<g>
</g>
<g>
</g>
<g>
</g>
<g>
</g>
<g>
</g>
<g>
</g>
<g>
</g>
<g>
</g>
<g>
</g>
<g>
</g>
<g>
</g>
<g>
</g>
<g>
</g>
<g>
</g>
<g>
</g>
</svg>
