<?xml version="1.0" encoding="iso-8859-1"?>
<!-- Generator: Adobe Illustrator 19.0.0, SVG Export Plug-In . SVG Version: 6.00 Build 0)  -->
<svg xmlns="http://www.w3.org/2000/svg" xmlns:xlink="http://www.w3.org/1999/xlink" version="1.1" id="Capa_1" x="0px" y="0px" viewBox="0 0 512 512" style="enable-background:new 0 0 512 512;" xml:space="preserve">
<circle style="fill:#3FCDE0;" cx="256" cy="256" r="256"/>
<g>
	<path style="fill:#74D9EF;" d="M489.914,151.823c-5.298,4.545-12.184,7.283-19.707,7.283H334.37c-8.359,0-15.945-3.385-21.42-8.871   c-5.486-5.486-8.882-13.061-8.882-21.431c0-16.739,13.573-30.302,30.302-30.302h18.808c16.739,0,30.302-13.563,30.302-30.302   c0-10.752,5.601-20.187,14.033-25.558C437.774,69.391,470.03,107.237,489.914,151.823z"/>
	<path style="fill:#74D9EF;" d="M482.568,375.274c-11.107,21.076-25.078,40.396-41.378,57.469   c-11.191,11.713-23.468,22.371-36.697,31.796c-18.495,13.197-38.828,24.001-60.531,31.943H293.86c-8.37,0-15.935-3.385-21.42-8.871   s-8.882-13.061-8.882-21.431c0-16.739,13.573-30.302,30.302-30.302h18.808c16.739,0,30.302-13.563,30.302-30.302   c0-16.739,13.573-30.302,30.302-30.302H482.568z"/>
	<path style="fill:#74D9EF;" d="M220.947,365.995c0,16.739-13.563,30.302-30.302,30.302H41.841   c-6.552-9.958-12.413-20.417-17.533-31.284C8.718,331.942,0.003,294.984,0.003,255.999c0-13.479,1.045-26.718,3.051-39.633   c3.281-1.212,6.823-1.881,10.533-1.881h135.837c8.37,0,15.945,3.385,21.431,8.871c5.486,5.486,8.871,13.061,8.871,21.431   c0,16.739-13.563,30.302-30.302,30.302h-18.808c-16.739,0-30.302,13.563-30.302,30.302c0,16.739,13.563,30.302,30.302,30.302   h60.029c8.37,0,15.945,3.385,21.431,8.871C217.551,350.05,220.947,357.626,220.947,365.995z"/>
</g>
<path style="fill:#E5E5E5;" d="M511.763,267.148c-2.748,64.125-29.09,122.159-70.572,165.595  c-11.191,11.713-23.468,22.371-36.697,31.796h-86.298c-32.59,0-59.016-26.425-59.016-59.016c0-5.507,0.752-10.846,2.163-15.893  c5.904-21.17,23.322-37.533,45.056-41.953c0.533-60.197,49.476-108.847,109.808-108.847c32.402,0,61.524,14.043,81.617,36.362  C502.15,272.049,506.82,269.332,511.763,267.148z"/>
<g>
	<path style="fill:#F7F7F7;" d="M511.763,267.148c-2.748,64.125-29.09,122.159-70.572,165.595H318.195   c-27.084,0-49.904-18.244-56.853-43.112c5.904-21.17,23.322-37.533,45.056-41.953c0.533-60.197,49.476-108.847,109.808-108.847   c32.402,0,61.524,14.043,81.617,36.362C502.15,272.049,506.82,269.332,511.763,267.148z"/>
	<path style="fill:#F7F7F7;" d="M226.871,510.358c-89.83-10.177-165.564-66.832-202.564-145.345   c8.192,5.287,15.632,11.64,22.12,18.85c12.539-9.132,27.961-14.535,44.648-14.535c41.88,0,75.839,33.949,75.839,75.818   c0,3.417-0.24,6.771-0.669,10.062c0.575-0.01,1.149-0.042,1.735-0.042c27.084,0,49.915,18.244,56.853,43.123   C225.91,502.166,226.61,506.2,226.871,510.358z"/>
</g>
<path style="fill:#E5E5E5;" d="M487.97,214.268c0,37.944-30.767,68.699-68.698,68.699H68.702c-37.943,0-68.698-30.754-68.698-68.699  c0-6.405,0.882-12.615,2.523-18.494c6.871-24.643,27.141-43.688,52.446-48.832C55.585,76.872,112.563,20.25,182.78,20.25  c37.724,0,71.613,16.339,95.006,42.316c14.587-10.631,32.542-16.915,51.968-16.915c48.747,0,88.271,39.512,88.271,88.258  c0,3.969-0.27,7.875-0.771,11.709c0.674-0.013,1.335-0.049,2.021-0.049c31.526,0,58.092,21.238,66.175,50.192  C487.089,201.652,487.97,207.862,487.97,214.268z"/>
<path style="fill:#F7F7F7;" d="M485.448,195.761c-8.083,28.954-34.649,50.192-66.175,50.192H68.702  c-31.526,0-58.092-21.238-66.175-50.179c6.871-24.643,27.141-43.688,52.446-48.832c0.612-70.07,57.59-126.692,127.807-126.692  c37.724,0,71.613,16.339,95.006,42.316c14.587-10.631,32.542-16.915,51.968-16.915c48.747,0,88.271,39.512,88.271,88.258  c0,3.969-0.27,7.875-0.771,11.709c0.674-0.013,1.335-0.049,2.021-0.049C450.798,145.569,477.364,166.806,485.448,195.761z"/>
<g>
	<path style="fill:#E5E5E5;" d="M178.354,174.992v-39.756c0-25.804,16.053-35.405,36.756-35.405   c20.703,0,36.906,9.602,36.906,35.405v39.756c0,25.804-16.202,35.405-36.906,35.405   C194.405,210.398,178.354,200.796,178.354,174.992z M228.611,135.235c0-10.352-5.1-15.003-13.501-15.003   c-8.401,0-13.353,4.651-13.353,15.003v39.756c0,10.352,4.951,15.003,13.353,15.003c8.401,0,13.501-4.651,13.501-15.003V135.235z"/>
	<path style="fill:#E5E5E5;" d="M286.242,147.185c11.639,0,23.379,7.325,23.379,20.769c0,21.773-31.003,28.897-31.003,38.027v0.903   h26.288c2.508,0,4.716,3.111,4.716,6.723s-2.208,6.922-4.716,6.922h-35.719c-2.81,0-6.823-1.907-6.823-4.816v-9.732   c0-15.753,31.605-24.783,31.605-37.525c0-3.211-2.006-7.123-7.626-7.123c-4.013,0-7.525,2.006-7.525,7.525   c0,2.91-3.111,5.72-8.228,5.72c-4.013,0-7.023-1.806-7.023-8.127C263.567,154.209,274.805,147.185,286.242,147.185z"/>
</g>
<g>
</g>
<g>
</g>
<g>
</g>
<g>
</g>
<g>
</g>
<g>
</g>
<g>
</g>
<g>
</g>
<g>
</g>
<g>
</g>
<g>
</g>
<g>
</g>
<g>
</g>
<g>
</g>
<g>
</g>
</svg>
