<?xml version="1.0" encoding="iso-8859-1"?>
<!-- Generator: Adobe Illustrator 19.0.0, SVG Export Plug-In . SVG Version: 6.00 Build 0)  -->
<svg xmlns="http://www.w3.org/2000/svg" xmlns:xlink="http://www.w3.org/1999/xlink" version="1.1" id="Capa_1" x="0px" y="0px" viewBox="0 0 512 512" style="enable-background:new 0 0 512 512;" xml:space="preserve">
<circle style="fill:#FFD662;" cx="255.998" cy="256" r="255.998"/>
<g>
	<path style="fill:#FCE39D;" d="M160.92,61.933L160.92,61.933c0,16.735-13.567,30.302-30.302,30.302H111.81   c-16.735,0-30.302,13.567-30.302,30.302l0,0c0,16.735,13.567,30.302,30.302,30.302h135.836c16.735,0,30.302-13.567,30.302-30.302   l0,0c0-16.735,13.567-30.302,30.302-30.302h18.808c16.735,0,30.302-13.567,30.302-30.302l0,0c0-16.735-13.567-30.302-30.302-30.302   H191.221C174.486,31.631,160.92,45.198,160.92,61.933z"/>
	<path style="fill:#FCE39D;" d="M269.585,460.037c0,16.739-13.563,30.302-30.302,30.302h-18.808c-8.37,0-15.945,3.385-21.431,8.871   c-1.63,1.63-3.072,3.448-4.294,5.413c-43.969-10.794-83.466-32.945-115.22-63.174c5.527-7.126,14.179-11.713,23.918-11.713h135.836   c8.37,0,15.945,3.385,21.431,8.871C266.2,444.092,269.585,451.667,269.585,460.037z"/>
	<path style="fill:#FCE39D;" d="M512,256.001c0,13.97-1.118,27.679-3.281,41.033H397.062c-8.37,0-15.945-3.385-21.431-8.871   s-8.871-13.061-8.871-21.431c0-16.739-13.563-30.302-30.302-30.302H317.65c-8.37,0-15.945-3.385-21.431-8.871   c-5.486-5.486-8.871-13.061-8.871-21.431c0-16.739,13.563-30.302,30.302-30.302h18.808c8.37,0,15.945-3.385,21.431-8.871   c5.486-5.486,8.871-13.061,8.871-21.431c0-16.739,13.563-30.302,30.302-30.302h72.798c12.925,19.602,23.228,41.085,30.406,63.947   c-9.791,5.015-16.478,15.203-16.478,26.958c0,15.788,12.058,28.745,27.47,30.166C511.749,242.804,512,249.366,512,256.001z"/>
</g>
<path style="fill:#EAB257;" d="M224.952,130.871c-4.791,0-9.082-3.358-10.082-8.235c-0.19-0.924-4.61-22.909-2.051-48.497  c3.559-35.59,18.926-60.874,44.438-73.12c5.122-2.463,11.284-0.301,13.748,4.829c2.462,5.13,0.299,11.286-4.831,13.748  c-46.262,22.206-31.275,98.134-31.118,98.898c1.144,5.574-2.448,11.02-8.023,12.165  C226.334,130.802,225.637,130.871,224.952,130.871z"/>
<path style="fill:#3FBD77;" d="M367.65,110.446c53.028,18.642,97.291,67.027,84.323,177.272  c-1.511,12.776-4.492,25.359-8.737,37.559l-68.304,95.9c16.387-54.067-91.21,22.314-133.779,50.971  c-10.179-0.934-20.428-0.852-30.594,0.219c-86.685,9.081-196.093-81.108-208.278-184.649  c-12.968-110.245,31.295-158.63,84.323-177.272c17.763-6.237,34.592-7.473,49.992-5.605c60.185,7.308,120.878,7.308,181.05,0  C333.058,102.971,349.874,104.209,367.65,110.446z"/>
<path style="fill:#34A375;" d="M95.006,287.718c-12.969-110.245,31.295-158.63,84.323-177.272c1.432-0.503,2.854-0.961,4.273-1.399  c-15.691-0.912-31.366-2.306-47.005-4.206c-15.4-1.868-32.229-0.632-49.992,5.605c-53.027,18.642-97.291,67.027-84.323,177.272  c12.186,103.541,121.593,193.73,208.278,184.649c10.166-1.072,20.414-1.155,30.594-0.219c-4.241-4.126-8.221-8.468-11.94-12.992  C163.841,430.892,103.844,362.824,95.006,287.718z"/>
<path style="fill:#F7F7F7;" d="M502.512,325.277c-25.495,90.937-99.965,161.394-193.159,181.153  c-4.148,0.878-8.338,1.661-12.56,2.33c-21.055-9.017-40.03-21.431-55.64-36.613c-37.021-36.017-55.128-87.677-37.188-146.87H502.512  z"/>
<path style="fill:#B27214;" d="M358.662,381.297l18.518-18.518c5.815-5.815,15.242-5.815,21.057,0l7.989,7.989  c5.815,5.815,5.815,15.242,0,21.057l-7.989,7.989c-5.815,5.815-15.242,5.815-21.057,0L358.662,381.297z"/>
<path style="fill:#34A375;" d="M309.354,506.43c-4.148,0.878-8.338,1.661-12.56,2.33c-4.232,0.69-8.495,1.254-12.8,1.724  c-17.711-8.767-33.834-19.999-47.637-33.416c-19.863-19.331-34.053-42.788-41.022-67.824c-7.461-26.76-6.938-55.003,1.484-83.968  h14.325l-0.606,1.996c-15.924,52.537-3.354,102.243,35.401,139.953C263.546,484.352,285.279,497.653,309.354,506.43z"/>
<g>
</g>
<g>
</g>
<g>
</g>
<g>
</g>
<g>
</g>
<g>
</g>
<g>
</g>
<g>
</g>
<g>
</g>
<g>
</g>
<g>
</g>
<g>
</g>
<g>
</g>
<g>
</g>
<g>
</g>
</svg>
