<?xml version="1.0" encoding="iso-8859-1"?>
<!-- Generator: Adobe Illustrator 19.0.0, SVG Export Plug-In . SVG Version: 6.00 Build 0)  -->
<svg xmlns="http://www.w3.org/2000/svg" xmlns:xlink="http://www.w3.org/1999/xlink" version="1.1" id="Capa_1" x="0px" y="0px" viewBox="0 0 512 512" style="enable-background:new 0 0 512 512;" xml:space="preserve">
<circle style="fill:#EAB257;" cx="256" cy="256" r="256"/>
<g>
	<path style="fill:#F2C179;" d="M511.993,257.326c-0.094,20.888-2.706,41.179-7.534,60.604h-11.264   c-8.37,0-15.945,3.385-21.431,8.871s-8.871,13.061-8.871,21.431c0,16.739-13.563,30.302-30.302,30.302H296.754   c-8.37,0-15.945-3.385-21.431-8.871s-8.871-13.061-8.871-21.431c0-16.739,13.563-30.302,30.302-30.302h18.808   c16.739,0,30.302-13.563,30.302-30.302s13.563-30.302,30.302-30.302H511.993L511.993,257.326z"/>
	<path style="fill:#F2C179;" d="M440.469,78.502c-1.714,3.783-2.654,7.983-2.654,12.403c0,16.739-13.563,30.302-30.302,30.302   H271.677c-8.37,0-15.945-3.396-21.431-8.871c-5.486-5.486-8.871-13.061-8.871-21.431c0-16.739,13.563-30.302,30.302-30.302h18.808   c16.739,0,30.302-13.563,30.302-30.302c0-7.638,2.821-14.618,7.502-19.947C371.537,23.06,410.042,46.873,440.469,78.502z"/>
	<path style="fill:#F2C179;" d="M150.939,305.109c0,16.739-13.563,30.302-30.302,30.302H12.563   c-8.15-25.004-12.56-51.702-12.56-79.412c0-36.404,7.596-71.043,21.305-102.4h58.107c8.359,0,15.945,3.396,21.42,8.871   c5.486,5.486,8.882,13.061,8.882,21.431c0,16.739-13.573,30.302-30.302,30.302H60.607c-16.739,0-30.302,13.563-30.302,30.302   s13.563,30.302,30.302,30.302h60.029c8.37,0,15.945,3.396,21.431,8.871C147.543,289.164,150.939,296.74,150.939,305.109z"/>
</g>
<path style="fill:#F7F7F7;" d="M342.638,78.773h-19.693V41.25c0-11.887-9.671-21.557-21.557-21.557h-90.786  c-11.887,0-21.557,9.671-21.557,21.557v37.522h-19.693V41.25C169.35,18.505,187.854,0,210.6,0h90.786  c22.746,0,41.25,18.505,41.25,41.25v37.522H342.638z"/>
<path style="fill:#5C5E70;" d="M416.489,118.501V455.46c-43.907,35.37-99.715,56.539-160.486,56.539  c-60.782,0-116.6-21.18-160.507-56.56V118.501L416.489,118.501L416.489,118.501z"/>
<path style="fill:#494B5B;" d="M416.487,121.127H95.499v15.555h-0.003v318.757c27.7,22.319,60.134,38.985,95.566,48.243V239.424  c0-37.164,30.128-67.291,67.291-67.291h158.133V121.127z"/>
<path style="fill:#FFD662;" d="M354.913,294.274l-23.97,35.568c-1.452,2.173-3.709,3.668-6.28,4.169  c-0.627,0.115-1.254,0.178-1.881,0.178c-1.943,0-3.866-0.575-5.507-1.682l-35.558-23.96c-4.514-3.041-5.705-9.164-2.664-13.667  c3.03-4.514,9.153-5.705,13.667-2.664l17.763,11.964c-8.004-29.194-34.764-50.73-66.466-50.73c-21.264,0-40.302,9.676-52.955,24.848  c-9.968,11.954-15.976,27.324-15.976,44.074c0,16.75,6.008,32.12,15.976,44.074c12.654,15.172,31.692,24.848,52.955,24.848  c20.062,0,39.1-8.725,52.224-23.939c3.553-4.117,9.77-4.577,13.887-1.034c4.117,3.553,4.577,9.77,1.024,13.897  c-16.865,19.55-41.336,30.772-67.135,30.772c-19.843,0-38.181-6.552-52.955-17.607c-21.64-16.165-35.662-41.984-35.662-71.011  c0-29.027,14.023-54.836,35.662-71.001c14.775-11.055,33.113-17.607,52.955-17.607c40.197,0,74.219,26.917,85.013,63.676  l9.55-14.169c3.041-4.504,9.153-5.695,13.667-2.664C356.763,283.647,357.954,289.77,354.913,294.274z"/>
<path style="fill:#5C5E70;" d="M441.734,102.523v34.161h-25.247H95.499H70.266v-34.161c0-18.551,15.045-33.597,33.597-33.597h75.333  H332.79h75.333C426.688,68.927,441.734,83.972,441.734,102.523z"/>
<path style="fill:#494B5B;" d="M187.126,68.927h-83.263c-18.551,0-33.597,15.045-33.597,33.597v34.161h25.233h58.029v-34.161  C153.529,83.972,168.574,68.927,187.126,68.927z"/>
<path style="fill:#EFC549;" d="M191.063,278.297c-9.968,11.954-15.976,27.324-15.976,44.074c0,16.75,6.008,32.12,15.976,44.074  v26.937c-21.64-16.165-35.662-41.984-35.662-71.011c0-29.027,14.023-54.836,35.662-71.001V278.297z"/>
<g>
</g>
<g>
</g>
<g>
</g>
<g>
</g>
<g>
</g>
<g>
</g>
<g>
</g>
<g>
</g>
<g>
</g>
<g>
</g>
<g>
</g>
<g>
</g>
<g>
</g>
<g>
</g>
<g>
</g>
</svg>
