<?xml version="1.0" encoding="iso-8859-1"?>
<!-- Generator: Adobe Illustrator 19.0.0, SVG Export Plug-In . SVG Version: 6.00 Build 0)  -->
<svg xmlns="http://www.w3.org/2000/svg" xmlns:xlink="http://www.w3.org/1999/xlink" version="1.1" id="Capa_1" x="0px" y="0px" viewBox="0 0 512 512" style="enable-background:new 0 0 512 512;" xml:space="preserve">
<circle style="fill:#F7F7F7;" cx="256" cy="256" r="256"/>
<path style="fill:#34A375;" d="M362.207,98.752H53.972c4.096-5.256,8.401-10.344,12.884-15.256  c8.882-9.738,18.505-18.777,28.787-27.052h229.949c12.587,0,23.845,7.835,28.216,19.638L362.207,98.752z"/>
<path style="fill:#797B89;" d="M507.782,302.497c-0.219,1.212-0.449,2.424-0.69,3.626c-0.648,3.271-1.358,6.52-2.132,9.738  c-1.787,7.471-3.908,14.806-6.322,22.006c-2.623,7.753-5.59,15.339-8.913,22.747c-40.009,89.234-129.609,151.385-233.723,151.385  S62.29,449.848,22.291,360.614c-8.223-18.328-14.346-37.804-18.077-58.117H507.782z"/>
<path style="fill:#3FBD77;" d="M507.092,178.614v127.509c-3.772,19.007-9.644,37.251-17.366,54.491H22.291  C7.965,328.672,0.003,293.26,0.003,255.999c0-66.456,25.318-127.007,66.853-172.502l345.046-0.073  c14.827,0,28.881,3.385,41.399,9.446c15.109,7.314,27.993,18.495,37.355,32.277c2.842,4.169,5.371,8.579,7.502,13.208  C503.895,150.569,507.092,164.215,507.092,178.614z"/>
<g>
	<path style="fill:#5C5E70;" d="M507.082,178.605v64.641h-28.873c-21.801,0-39.48-17.679-39.48-39.494v-46.566   c0-14.055,11.385-25.44,25.44-25.44h30.604C502.607,145.58,507.082,161.573,507.082,178.605z"/>
	<path style="fill:#5C5E70;" d="M378.867,131.744c9.871,0,17.873,8.003,17.873,17.863v51.313c0,9.871-8.003,17.874-17.873,17.874   H60.588c-0.056-2.149-6.967-60.021-1.125-82.318c0.923-3.557,20.554-1.186,21.635-4.697"/>
</g>
<g>
	<path style="fill:#34A375;" d="M507.087,236.644v13.204h-28.873c-25.41,0-46.082-20.671-46.082-46.097v-46.566   c0-17.679,14.363-32.042,32.042-32.042h26.481c2.846,4.167,5.37,8.583,7.512,13.204h-33.993c-10.387,0-18.837,8.45-18.837,18.837   v46.566c0,18.133,14.745,32.892,32.878,32.892H507.087z"/>
	<path style="fill:#34A375;" d="M373.453,125.147H69.212c-9.699,0-17.561,7.862-17.561,17.561v65.119   c0,9.699,7.862,17.561,17.561,17.561h304.242c16.51,0,29.895-13.384,29.895-29.895V155.03   C403.347,138.552,389.942,125.147,373.453,125.147z M137.89,212.185H71.941c-3.914,0-7.088-3.173-7.088-7.088v-59.661   c0-3.914,3.173-7.088,7.088-7.088h65.949V212.185z M224.129,212.185h-73.036V138.35h73.036L224.129,212.185L224.129,212.185z    M310.367,212.185h-73.036V138.35h73.036V212.185z M390.145,195.494c0,9.207-7.496,16.691-16.692,16.691h-49.883V138.35h49.883   c9.196,0,16.692,7.485,16.692,16.681V195.494z"/>
</g>
<circle style="fill:#494B5B;" cx="365.369" cy="360.615" r="54.283"/>
<g>
	<path style="fill:#E5E5E5;" d="M504.961,315.861c-1.787,7.471-3.908,14.806-6.322,22.006h-32.037   c-6.071,0-11.003-4.921-11.003-11.003c0-6.071,4.932-11.003,11.003-11.003H504.961z"/>
	<circle style="fill:#E5E5E5;" cx="365.369" cy="360.615" r="31.42"/>
</g>
<path style="fill:#D3D3D3;" d="M372.482,380.023c-14.643,0-26.517-11.874-26.517-26.517c0-10.636,6.258-19.809,15.285-24.03  c-15.408,2.015-27.294,15.183-27.294,31.133c0,17.356,14.07,31.425,31.425,31.425c15.948,0,29.117-11.886,31.133-27.294  C392.291,373.765,383.119,380.023,372.482,380.023z"/>
<circle style="fill:#494B5B;" cx="103.079" cy="360.615" r="54.283"/>
<circle style="fill:#E5E5E5;" cx="103.079" cy="360.615" r="31.42"/>
<path style="fill:#D3D3D3;" d="M110.187,380.023c-14.643,0-26.517-11.874-26.517-26.517c0-10.636,6.258-19.809,15.285-24.03  c-15.408,2.015-27.294,15.183-27.294,31.133c0,17.356,14.07,31.425,31.425,31.425c15.948,0,29.117-11.886,31.133-27.294  C129.997,373.765,120.824,380.023,110.187,380.023z"/>
<circle style="fill:#FFD662;" cx="475.533" cy="285.424" r="16.508"/>
<circle style="fill:#FCE39D;" cx="479.284" cy="280.921" r="6.003"/>
<rect x="448.899" y="261.036" style="fill:#3FBD77;" width="21.636" height="50.9"/>
<polygon style="fill:#FFD662;" points="272.304,246.868 222.157,246.868 193.722,295.48 216.714,295.48 197.071,339.145   257.498,286.906 238.161,286.906 "/>
<g>
	<path style="fill:#797B89;" d="M375.644,160.15H342.73c-3.751,0-6.792-3.041-6.792-6.792l0,0c0-3.751,3.041-6.792,6.792-6.792   h32.914c3.751,0,6.792,3.041,6.792,6.792l0,0C382.436,157.11,379.395,160.15,375.644,160.15z"/>
	<path style="fill:#797B89;" d="M298.321,160.15h-32.914c-3.751,0-6.792-3.041-6.792-6.792l0,0c0-3.751,3.041-6.792,6.792-6.792   h32.914c3.751,0,6.792,3.041,6.792,6.792l0,0C305.113,157.11,302.073,160.15,298.321,160.15z"/>
	<path style="fill:#797B89;" d="M208.46,160.15h-32.914c-3.751,0-6.792-3.041-6.792-6.792l0,0c0-3.751,3.041-6.792,6.792-6.792   h32.914c3.751,0,6.792,3.041,6.792,6.792l0,0C215.252,157.11,212.211,160.15,208.46,160.15z"/>
	<path style="fill:#797B89;" d="M122.256,160.15h-16.51c-3.751,0-6.792-3.041-6.792-6.792l0,0c0-3.751,3.041-6.792,6.792-6.792   h16.51c3.751,0,6.792,3.041,6.792,6.792l0,0C129.048,157.11,126.007,160.15,122.256,160.15z"/>
	<path style="fill:#797B89;" d="M486.718,160.15h-16.51c-3.751,0-6.792-3.041-6.792-6.792l0,0c0-3.751,3.041-6.792,6.792-6.792   h16.51c3.751,0,6.792,3.041,6.792,6.792l0,0C493.509,157.11,490.469,160.15,486.718,160.15z"/>
</g>
<g>
</g>
<g>
</g>
<g>
</g>
<g>
</g>
<g>
</g>
<g>
</g>
<g>
</g>
<g>
</g>
<g>
</g>
<g>
</g>
<g>
</g>
<g>
</g>
<g>
</g>
<g>
</g>
<g>
</g>
</svg>
