<?xml version="1.0" encoding="iso-8859-1"?>
<!-- Generator: Adobe Illustrator 19.0.0, SVG Export Plug-In . SVG Version: 6.00 Build 0)  -->
<svg xmlns="http://www.w3.org/2000/svg" xmlns:xlink="http://www.w3.org/1999/xlink" version="1.1" id="Capa_1" x="0px" y="0px" viewBox="0 0 512 512" style="enable-background:new 0 0 512 512;" xml:space="preserve">
<circle style="fill:#FF5662;" cx="256" cy="256" r="256"/>
<g>
	<path style="fill:#FC757B;" d="M237.728,176.597c0,16.729-13.563,30.302-30.302,30.302h-18.808c-8.37,0-15.935,3.385-21.42,8.871   s-8.882,13.061-8.882,21.431c0,16.729-13.563,30.302-30.302,30.302H0.264c-0.178-3.814-0.261-7.649-0.261-11.504   c0-16.791,1.62-33.207,4.702-49.1h6.28c16.739,0,30.302-13.573,30.302-30.302c0-16.739,13.573-30.302,30.302-30.302h135.837   c8.37,0,15.945,3.385,21.431,8.871C234.332,160.652,237.728,168.228,237.728,176.597z"/>
	<path style="fill:#FC757B;" d="M509.872,289.143c-2.727,21.117-8.025,41.43-15.579,60.604H354.161   c-8.37,0-15.945-3.396-21.431-8.882s-8.871-13.051-8.871-21.42c0-16.739-13.563-30.302-30.302-30.302h-18.808   c-8.37,0-15.945-3.396-21.431-8.882c-5.486-5.486-8.871-13.051-8.871-21.42c0-16.739,13.563-30.302,30.302-30.302h18.808   c8.37,0,15.945-3.396,21.431-8.882c5.486-5.486,8.871-13.051,8.871-21.42c0-16.739,13.563-30.302,30.302-30.302h135.837   c2.309,0,4.556,0.261,6.719,0.752c6.102,16.781,10.48,34.377,12.946,52.59c-5.298,4.535-12.163,7.262-19.665,7.262h-18.808   c-16.739,0-30.302,13.563-30.302,30.302c0,16.729,13.563,30.302,30.302,30.302H509.872z"/>
</g>
<path style="fill:#FFD662;" d="M434.848,50.99v388.18c-46.153,45.066-109.244,72.829-178.845,72.829  c-69.59,0-132.681-27.763-178.834-72.819V50.99H434.848z"/>
<polygon style="fill:#EFC549;" points="77.165,50.985 77.165,56.975 77.165,70.592 77.165,70.594 77.165,93.56 434.849,93.56   434.849,70.594 434.849,70.592 434.849,56.975 434.849,50.985 "/>
<rect x="350.699" style="fill:#FFD662;" width="67.082" height="40.462"/>
<g>
	<rect x="350.699" style="fill:#EFC549;" width="26.019" height="40.462"/>
	<path style="fill:#EFC549;" d="M453.301,39.872v19.007c0,4.023-3.25,7.272-7.262,7.272H65.968c-4.012,0-7.272-3.25-7.272-7.272   V39.872c0-4.012,3.26-7.262,7.272-7.262h380.071C450.051,32.61,453.301,35.86,453.301,39.872z"/>
	<path style="fill:#EFC549;" d="M146.832,53.613v434.019c-25.893-12.236-49.403-28.682-69.663-48.452V53.613   C77.169,53.613,146.832,53.613,146.832,53.613z"/>
</g>
<path style="fill:#FFD662;" d="M453.301,39.872v19.007c0,4.023-3.25,7.272-7.262,7.272H131.786c-4.012,0-7.262-3.25-7.262-7.272  V39.872c0-4.012,3.25-7.262,7.262-7.262h314.253C450.051,32.61,453.301,35.86,453.301,39.872z"/>
<g>
	<path style="fill:#5C5E70;" d="M256.011,245.791c12.339,0,22.352,10.013,22.352,22.352c0,12.339-10.013,22.352-22.352,22.352   c-12.358,0-22.352-10.013-22.352-22.352C233.659,255.805,243.653,245.791,256.011,245.791z"/>
	<path style="fill:#5C5E70;" d="M277.076,306.564l46.107,81.692c-19.834,11.224-42.763,17.624-67.171,17.624   c-24.899,0-48.231-6.65-68.344-18.287l46.904-81.24c6.304,3.652,13.627,5.747,21.439,5.747   C263.661,312.098,270.849,310.09,277.076,306.564z"/>
	<path style="fill:#5C5E70;" d="M392.655,269.227h-93.78c0-15.705-8.453-29.445-21.076-36.895l47.689-80.781   c18.923,11.191,34.91,26.812,46.529,45.443C385.1,217.954,392.655,242.708,392.655,269.227z"/>
	<path style="fill:#5C5E70;" d="M234.217,232.332c-12.622,7.45-21.076,21.191-21.076,36.895h-93.78   c0-30.845,10.23-59.319,27.47-82.181c10.762-14.273,24.263-26.363,39.696-35.495L234.217,232.332z"/>
</g>
<path style="fill:#494B5B;" d="M146.832,187.046v82.181h-27.47C119.362,238.382,129.591,209.909,146.832,187.046z"/>
<path style="fill:#797B89;" d="M392.655,269.227h-20.637v-72.234C385.1,217.954,392.655,242.708,392.655,269.227z"/>
<g>
</g>
<g>
</g>
<g>
</g>
<g>
</g>
<g>
</g>
<g>
</g>
<g>
</g>
<g>
</g>
<g>
</g>
<g>
</g>
<g>
</g>
<g>
</g>
<g>
</g>
<g>
</g>
<g>
</g>
</svg>
