<?xml version="1.0" encoding="iso-8859-1"?>
<!-- Generator: Adobe Illustrator 19.0.0, SVG Export Plug-In . SVG Version: 6.00 Build 0)  -->
<svg xmlns="http://www.w3.org/2000/svg" xmlns:xlink="http://www.w3.org/1999/xlink" version="1.1" id="Capa_1" x="0px" y="0px" viewBox="0 0 512.001 512.001" style="enable-background:new 0 0 512.001 512.001;" xml:space="preserve">
<circle style="fill:#5C5E70;" cx="256" cy="256.001" r="256"/>
<g>
	<path style="fill:#797B89;" d="M154.084,219.721c0,16.739-13.573,30.302-30.302,30.302h-18.808c-8.37,0-15.945,3.396-21.431,8.871   c-5.486,5.486-8.871,13.061-8.871,21.431c0,16.739-13.573,30.302-30.302,30.302H5.844C2.02,293.02,0.003,274.745,0.003,256   c0-23.03,3.041-45.349,8.746-66.581h115.033c8.359,0,15.945,3.396,21.42,8.871C150.688,203.776,154.084,211.351,154.084,219.721z"/>
	<path style="fill:#797B89;" d="M158.912,52.024L158.912,52.024c0,16.735-13.567,30.302-30.302,30.302h-18.808   c-16.735,0-30.302,13.567-30.302,30.302l0,0c0,16.735,13.567,30.302,30.302,30.302h135.837c16.735,0,30.302-13.567,30.302-30.302   l0,0c0-16.735,13.567-30.302,30.302-30.302h18.808c16.735,0,30.302-13.567,30.302-30.302l0,0c0-16.735-13.567-30.302-30.302-30.302   H189.214C172.479,21.722,158.912,35.289,158.912,52.024z"/>
	<path style="fill:#797B89;" d="M494.47,349.309c-26.53,67.751-81.115,121.448-149.452,146.787h-58.274   c-16.729,0-30.302-13.563-30.302-30.302c0-8.37,3.396-15.945,8.882-21.431c5.475-5.475,13.061-8.871,21.42-8.871h60.029   c16.739,0,30.302-13.563,30.302-30.302c0-16.739-13.563-30.302-30.302-30.302h-18.808c-16.729,0-30.302-13.563-30.302-30.302   c0-8.37,3.396-15.945,8.882-21.431c5.486-5.475,13.051-8.871,21.42-8.871h135.837c16.739,0,30.302,13.563,30.302,30.302   C494.104,346.195,494.229,347.773,494.47,349.309z"/>
</g>
<path id="SVGCleanerId_0" style="fill:#25B6C9;" d="M506.589,156.038c-8.331-35.437-26.314-69.057-53.941-96.684  c21.04,21.04,34.737,46.646,41.081,73.635c11.844,50.308-1.86,105.401-41.089,144.63c-13.395,13.395-28.635,23.812-44.904,31.245  c-42.176,19.298-91.271,18.578-132.94-2.139c-14.586-7.248-28.26-16.952-40.412-29.106c-16.651-16.651-28.701-36.17-36.156-56.961  c-19.511-54.461-7.462-117.678,36.156-161.296c16.32-16.32,35.391-28.23,55.711-35.715c54.74-20.144,118.604-8.241,162.553,35.707  C394.942,1.649,311.087-13.979,239.211,12.47c-26.68,9.827-51.72,25.465-73.15,46.894c-57.271,57.271-73.093,140.276-47.473,211.786  c9.788,27.299,25.609,52.927,47.473,74.792c15.957,15.957,33.911,28.698,53.062,38.216c54.713,27.202,119.176,28.148,174.554,2.809  c21.362-9.759,41.373-23.437,58.96-41.025C504.148,294.433,522.141,222.094,506.589,156.038z"/>
<path style="fill:#3FCDE0;" d="M452.639,345.941c-17.588,17.588-37.599,31.266-58.96,41.025  c-55.38,25.339-119.841,24.393-174.554-2.809c-19.152-9.518-37.106-22.259-53.062-38.216  c-21.865-21.864-37.685-47.493-47.474-74.792c-25.619-71.51-9.798-154.515,47.474-211.786c21.43-21.43,46.469-37.068,73.15-46.894  C311.089-13.98,394.944,1.648,452.65,59.354c27.627,27.627,45.61,61.248,53.941,96.684  C522.141,222.094,504.148,294.433,452.639,345.941z"/>
<g>
	<path id="SVGCleanerId_0_1_" style="fill:#25B6C9;" d="M506.589,156.038c-8.331-35.437-26.314-69.057-53.941-96.684   c21.04,21.04,34.737,46.646,41.081,73.635c11.844,50.308-1.86,105.401-41.089,144.63c-13.395,13.395-28.635,23.812-44.904,31.245   c-42.176,19.298-91.271,18.578-132.94-2.139c-14.586-7.248-28.26-16.952-40.412-29.106c-16.651-16.651-28.701-36.17-36.156-56.961   c-19.511-54.461-7.462-117.678,36.156-161.296c16.32-16.32,35.391-28.23,55.711-35.715c54.74-20.144,118.604-8.241,162.553,35.707   C394.942,1.649,311.087-13.979,239.211,12.47c-26.68,9.827-51.72,25.465-73.15,46.894   c-57.271,57.271-73.093,140.276-47.473,211.786c9.788,27.299,25.609,52.927,47.473,74.792   c15.957,15.957,33.911,28.698,53.062,38.216c54.713,27.202,119.176,28.148,174.554,2.809c21.362-9.759,41.373-23.437,58.96-41.025   C504.148,294.433,522.141,222.094,506.589,156.038z"/>
</g>
<g>
	<path style="fill:#FFD662;" d="M219.124,384.157c-19.152-9.518-37.106-22.259-53.062-38.216   c-21.865-21.864-37.685-47.493-47.474-74.792c34.075-9.113,88.875-25.687,104.629-66.943   c20.271-53.091-92.109-82.167-57.155-144.843c21.43-21.43,46.469-37.068,73.15-46.894c19.567,0.898,37.289,10.165,47.714,23.776   c0,0,53.091,49.23,28.959,96.53c-24.132,47.299-72.397,55.022-70.467,91.703c1.93,36.681,53.091,41.508,28.959,90.738   C260.372,343.798,236.596,368.481,219.124,384.157z"/>
	<path style="fill:#FFD662;" d="M452.639,345.941c-17.588,17.588-37.599,31.266-58.96,41.025   c-4.971-23.64-9.682-54.877-3.465-67.889c10.618-22.202,60.814-16.41,69.501-54.057c8.687-37.647-33.786-49.23-29.924-72.397   s76.799-36.585,76.799-36.585C522.141,222.094,504.148,294.433,452.639,345.941z"/>
</g>
<g>
	<path style="fill:#EFC549;" d="M239.218,12.467c15.36,0.705,29.583,6.573,40.035,15.654c-16.251,7.445-31.484,17.857-44.865,31.239   c-22.452,22.452-36.539,50.097-42.269,79.062c-22.286-22.658-44.345-46.256-26.057-79.062   C187.495,37.937,212.533,22.292,239.218,12.467z"/>
	<path style="fill:#EFC549;" d="M274.796,306.725c0.891,0.441,1.793,0.882,2.694,1.303c-0.842,2.282-1.881,4.682-3.105,7.19   c-14.008,28.584-37.782,53.261-55.258,68.943c-19.151-9.521-37.106-22.266-53.064-38.223   c-21.865-21.864-37.684-47.491-47.471-74.792c24.861-6.652,60.773-17.27,84.479-38.566c7.454,16.32,17.888,31.611,31.318,45.041   C246.535,289.769,260.21,299.476,274.796,306.725z"/>
	<path style="fill:#EFC549;" d="M452.64,345.938c-17.584,17.593-37.596,31.269-58.962,41.025   c-4.966-23.638-9.679-54.876-3.468-67.885c0.774-1.616,1.753-3.086,2.929-4.427c4.937-1.666,9.816-3.605,14.596-5.789   c8.15-3.723,16.045-8.19,23.569-13.41c7.514-5.202,14.655-11.148,21.336-17.828c1.46-1.46,2.89-2.939,4.272-4.447   c29.838-32.277,43.376-74.194,40.574-115.219c5.564-1.263,9.11-1.919,9.11-1.919C522.142,222.099,504.147,294.431,452.64,345.938z"/>
</g>
<path style="fill:#E5E5E5;" d="M145.244,398.388c0,13.573-4.462,26.102-11.995,36.195c-8.485,11.379-20.877,19.675-35.182,22.904  c-28.526-22.392-52.172-50.698-69.099-83.09c7.628-17.659,23.406-30.971,42.59-35.192c4.211-0.93,8.589-1.421,13.082-1.421  C118.108,337.784,145.244,364.92,145.244,398.388z"/>
<path style="fill:#F7F7F7;" d="M145.244,398.388c0,13.573-4.462,26.102-11.995,36.195c-4.211,0.93-8.589,1.421-13.082,1.421  c-33.468,0-60.604-27.136-60.604-60.604c0-13.573,4.462-26.102,11.995-36.195c4.211-0.93,8.589-1.421,13.082-1.421  C118.108,337.784,145.244,364.92,145.244,398.388z"/>
<circle style="fill:#FCF8F2;" cx="113.894" cy="382.715" r="11.494"/>
<g>
	<polygon style="fill:#FFD662;" points="227.915,413.962 235.109,428.54 251.198,430.878 239.556,442.227 242.305,458.249    227.915,450.684 213.525,458.249 216.273,442.227 204.632,430.878 220.72,428.54  "/>
	<polygon style="fill:#FFD662;" points="333.355,443.868 338.064,453.409 348.595,454.94 340.975,462.367 342.774,472.855    333.355,467.903 323.937,472.855 325.735,462.367 318.116,454.94 328.647,453.409  "/>
	<polygon style="fill:#FFD662;" points="57.083,130.584 64.277,145.162 80.366,147.499 68.724,158.848 71.472,174.872    57.083,167.305 42.692,174.872 45.441,158.848 33.799,147.499 49.888,145.162  "/>
</g>
<g>
</g>
<g>
</g>
<g>
</g>
<g>
</g>
<g>
</g>
<g>
</g>
<g>
</g>
<g>
</g>
<g>
</g>
<g>
</g>
<g>
</g>
<g>
</g>
<g>
</g>
<g>
</g>
<g>
</g>
</svg>
