<?xml version="1.0" encoding="iso-8859-1"?>
<!-- Generator: Adobe Illustrator 19.0.0, SVG Export Plug-In . SVG Version: 6.00 Build 0)  -->
<svg xmlns="http://www.w3.org/2000/svg" xmlns:xlink="http://www.w3.org/1999/xlink" version="1.1" id="Capa_1" x="0px" y="0px" viewBox="0 0 511.999 511.999" style="enable-background:new 0 0 511.999 511.999;" xml:space="preserve">
<circle style="fill:#5C5E70;" cx="255.999" cy="255.999" r="255.999"/>
<path style="fill:#797B89;" d="M504.846,195.667c-2.769,135.063-113.12,243.691-248.842,243.691S9.941,330.751,7.151,195.709  C34.256,83.414,135.381,0,256.004,0C376.606,0,477.731,83.393,504.846,195.667z"/>
<circle style="fill:#FFD662;" cx="255.999" cy="190.443" r="190.443"/>
<path style="fill:#EFC549;" d="M337.498,324.475c-105.181,0-190.448-85.267-190.448-190.448c0-46.912,16.971-89.853,45.097-123.044  C118.374,37.234,65.553,107.667,65.553,190.448c0,105.181,85.267,190.448,190.448,190.448c58.27,0,110.417-26.178,145.351-67.404  C381.389,320.595,359.898,324.475,337.498,324.475z"/>
<path style="fill:#3FBD77;" d="M256.004,239.751v17.69h-17.701c-20.208,0-39.299-4.775-56.194-13.27  c-17.648-8.861-32.904-21.765-44.565-37.491c-0.366-0.491-0.721-0.972-1.076-1.463c-0.7-0.982-1.4-1.975-2.079-2.988  c-1.358-2.006-2.675-4.065-3.918-6.154c-0.303-0.522-0.606-1.045-0.909-1.567h-0.01v-0.01c-0.972-1.693-1.912-3.427-2.821-5.172  c-8.829-17.157-13.814-36.655-13.814-57.302v-17.68h17.669c1.076,0,2.152,0.01,3.218,0.052c4.786,0.115,9.498,0.502,14.137,1.16  c6.896,0.94,13.615,2.455,20.104,4.483c2.685,0.836,5.329,1.766,7.92,2.779c1.557,0.606,3.103,1.243,4.629,1.912  c14.932,6.499,28.348,15.809,39.591,27.272c1.024,1.045,2.027,2.1,3.009,3.176c0.491,0.543,0.982,1.087,1.463,1.63  c0.972,1.087,1.923,2.205,2.842,3.333c0.92,1.128,1.829,2.278,2.727,3.438c0.449,0.585,0.888,1.17,1.327,1.755  c7.262,9.843,13.124,20.783,17.283,32.538C253.475,210.964,256.004,225.06,256.004,239.751z"/>
<path style="fill:#34A375;" d="M265.105,257.441l-9.101,9.101l-7.168-7.168l-1.933-1.933l-55.891-55.881l-30.501,2.915  l-22.967,2.205h-0.01c-0.355-0.491-0.711-0.972-1.066-1.463c-0.7-0.982-1.4-1.975-2.079-2.988c-1.358-2.006-2.675-4.065-3.918-6.154  c-0.313-0.522-0.616-1.045-0.92-1.567h0.01l26.467-2.539l23.186-2.215l-30.501-30.49l-35.798-35.788l-0.01-0.01v-9.111h9.101  l25.13,25.119l17.993,17.993l2.915-37.418c2.685,0.825,5.319,1.755,7.92,2.769c1.557,0.606,3.103,1.243,4.629,1.912l-3.49,44.722  l36.613,36.603l6.468-54.052c1.024,1.045,2.027,2.1,3.009,3.176c0.491,0.543,0.982,1.087,1.463,1.63  c0.961,1.097,1.902,2.205,2.842,3.333c0.92,1.128,1.829,2.278,2.727,3.438c0.439,0.585,0.878,1.17,1.317,1.755l-6.238,52.307  L265.105,257.441z"/>
<path style="fill:#3FBD77;" d="M399.092,173.818v17.669c0,22.758-6.05,44.095-16.645,62.485c-1.337,2.32-2.759,4.598-4.242,6.823  c-1.191,1.818-2.456,3.594-3.741,5.35c-21.117,28.473-54,47.668-91.46,50.416c-3.072,0.23-6.175,0.345-9.31,0.345h-17.69v-17.69  c0-13.552,2.152-26.593,6.134-38.807c0.324-1.014,0.658-2.006,1.014-3.009c0.167-0.47,0.334-0.94,0.512-1.4  c4.117-11.243,9.822-21.723,16.802-31.19c3.479-4.712,7.272-9.174,11.358-13.343c11.233-11.452,24.649-20.773,39.581-27.272  c4.075-1.776,8.255-3.344,12.549-4.671c10.856-3.406,22.35-5.36,34.252-5.653c1.066-0.031,2.132-0.052,3.208-0.052L399.092,173.818  L399.092,173.818z"/>
<g>
	<path style="fill:#34A375;" d="M378.204,203.817l-45.411,45.401l45.411,4.357l4.242,0.397c-1.337,2.32-2.759,4.598-4.242,6.823   c-1.191,1.818-2.456,3.594-3.741,5.35l-53.478-5.12l-55.881,55.881l-1.954,1.954l-7.147,7.147v-18.202l1.087-1.087l6.06-6.06   l23.542-23.542l-6.228-52.307c3.479-4.712,7.272-9.174,11.358-13.343l6.457,54.052l36.613-36.613l-3.49-44.711   c4.075-1.776,8.255-3.344,12.549-4.671l2.915,37.407l31.336-31.326l11.786-11.786h9.101v9.111L378.204,203.817z"/>
	<path style="fill:#34A375;" d="M263.151,135.237v231.031h-14.315V135.237c0-2.868,1.713-5.46,4.351-6.584l0,0   C257.907,126.64,263.151,130.104,263.151,135.237z"/>
	<path style="fill:#34A375;" d="M283.889,179.677L261.1,202.466l-10.122-10.122l22.789-22.789c2.028-2.028,5.071-2.65,7.732-1.579   l0,0C286.261,169.892,287.518,176.048,283.889,179.677z"/>
	<path style="fill:#34A375;" d="M229.37,290.763l22.789,22.789l10.122-10.122l-22.789-22.789c-2.028-2.028-5.071-2.65-7.732-1.579   l0,0C226.998,280.977,225.741,287.134,229.37,290.763z"/>
</g>
<g>
	<circle style="fill:#FCE39D;" cx="361.732" cy="107.279" r="32.517"/>
	<circle style="fill:#FCE39D;" cx="325.287" cy="59.862" r="18.023"/>
</g>
<g>
	<path style="fill:#34A375;" d="M160.511,204.476c5.632,14.148,12.915,27.46,21.598,39.696   c-17.648-8.861-32.904-21.765-44.565-37.491h-0.01c-0.355-0.491-0.711-0.972-1.066-1.463c-0.7-0.982-1.4-1.975-2.079-2.988   c-1.358-2.006-2.675-4.065-3.918-6.154c-0.313-0.522-0.616-1.045-0.92-1.567v-0.01c-0.972-1.693-1.912-3.427-2.821-5.172   c-8.829-17.157-13.814-36.655-13.814-57.302v-8.547l-0.01-0.01v-9.111h0.01v-0.01h17.669c1.076,0,2.152,0.01,3.218,0.052   c4.786,0.115,9.498,0.502,14.137,1.16c-0.585,6.081-0.888,12.246-0.888,18.474c0,1.818,0.021,3.636,0.084,5.444   c0.178,6.687,0.711,13.291,1.578,19.79c1.484,11.243,3.95,22.173,7.314,32.705C157.376,196.211,158.87,200.38,160.511,204.476z"/>
	<path style="fill:#34A375;" d="M283.004,316.562c-3.072,0.23-6.175,0.345-9.31,0.345h-8.589l-1.954,1.954v47.407h-14.315v-63.655   c2.361,1.254,4.754,2.445,7.168,3.594c0.366,0.167,0.731,0.345,1.087,0.512c2.006,0.93,4.023,1.829,6.06,2.696   c2.226,0.94,4.472,1.849,6.74,2.706C274.185,313.751,278.563,315.235,283.004,316.562z"/>
</g>
<path style="fill:#E5E5E5;" d="M376.031,437.205c6.813,6.813,11.024,16.227,11.024,26.624c0,4.807-0.899,9.394-2.539,13.615  c-37.763,21.974-81.669,34.555-128.512,34.555c-14.963,0-29.633-1.285-43.896-3.762c-30.386-5.235-58.922-15.841-84.626-30.793  c-1.64-4.221-2.539-8.808-2.539-13.615c0-20.793,16.865-37.648,37.658-37.648c-20.793,0-37.658-16.854-37.658-37.658  c0-20.793,16.865-37.648,37.658-37.648h186.806c20.793,0,37.648,16.854,37.648,37.648c0,20.804-16.854,37.658-37.648,37.658  C359.804,426.182,369.218,430.393,376.031,437.205z"/>
<path style="fill:#D3D3D3;" d="M195.995,463.829c0,20.793,16.854,37.648,37.648,37.648c-8.004,0-15.433,2.508-21.535,6.76  c-30.386-5.235-58.922-15.841-84.626-30.793c-1.64-4.221-2.539-8.808-2.539-13.615c0-20.793,16.865-37.648,37.658-37.648  c-20.793,0-37.658-16.854-37.658-37.658c0-20.793,16.865-37.648,37.658-37.648h71.042c-20.793,0-37.648,16.854-37.648,37.648  c0,20.804,16.854,37.658,37.648,37.658C212.849,426.182,195.995,443.036,195.995,463.829z"/>
<g>
</g>
<g>
</g>
<g>
</g>
<g>
</g>
<g>
</g>
<g>
</g>
<g>
</g>
<g>
</g>
<g>
</g>
<g>
</g>
<g>
</g>
<g>
</g>
<g>
</g>
<g>
</g>
<g>
</g>
</svg>
