<?xml version="1.0" encoding="iso-8859-1"?>
<!-- Generator: Adobe Illustrator 19.0.0, SVG Export Plug-In . SVG Version: 6.00 Build 0)  -->
<svg xmlns="http://www.w3.org/2000/svg" xmlns:xlink="http://www.w3.org/1999/xlink" version="1.1" id="Capa_1" x="0px" y="0px" viewBox="0 0 512 512" style="enable-background:new 0 0 512 512;" xml:space="preserve">
<circle style="fill:#3FCDE0;" cx="256" cy="256" r="256"/>
<g>
	<path style="fill:#74D9EF;" d="M509.14,294.43c-3.082,20.48-8.6,40.166-16.238,58.755h-13.009c-8.37,0-15.935,3.396-21.42,8.882   c-5.486,5.475-8.882,13.061-8.882,21.42c0,16.739-13.563,30.302-30.302,30.302H283.453c-8.37,0-15.935-3.385-21.42-8.871   s-8.882-13.061-8.882-21.431c0-16.729,13.573-30.302,30.302-30.302h18.808c16.739,0,30.302-13.563,30.302-30.302   c0-16.729,13.573-30.302,30.302-30.302h135.837C502.369,292.581,505.89,293.229,509.14,294.43z"/>
	<path style="fill:#74D9EF;" d="M254.645,151.509c0,16.739-13.563,30.302-30.302,30.302H47.285c-8.37,0-15.945-3.396-21.431-8.871   c-3.406-3.406-5.998-7.628-7.481-12.33C49.563,82.953,117.732,24.115,201.094,5.903c1.223,0.909,2.372,1.891,3.448,2.968   c5.486,5.486,8.882,13.061,8.882,21.431c0,16.739-13.573,30.302-30.302,30.302h-18.808c-16.739,0-30.302,13.563-30.302,30.302   s13.563,30.302,30.302,30.302h60.029c8.37,0,15.945,3.396,21.431,8.871C251.259,135.564,254.645,143.14,254.645,151.509z"/>
	<path style="fill:#74D9EF;" d="M210.759,432.618c0,8.37-3.396,15.945-8.882,21.431c-5.475,5.486-13.061,8.871-21.42,8.871h-18.808   c-12.403,0-23.071,7.461-27.752,18.129c-14.879-8.087-28.871-17.617-41.775-28.39c-2.905-2.424-5.757-4.911-8.558-7.461   c-5.841-5.319-11.431-10.909-16.75-16.75c-2.55-2.79-5.036-5.642-7.45-8.547c-19.195-22.988-34.429-49.403-44.648-78.19h86.329   c16.729,0,30.302,13.573,30.302,30.302c0,8.37,3.385,15.945,8.871,21.431c5.486,5.486,13.061,8.871,21.431,8.871h18.808   C197.186,402.316,210.759,415.889,210.759,432.618z"/>
	<path style="fill:#74D9EF;" d="M496.424,167.883c-2.288,4.263-3.594,9.143-3.594,14.315c0,8.37-3.396,15.945-8.871,21.431   c-5.486,5.486-13.061,8.871-21.431,8.871H285.469c-16.729,0-30.302-13.563-30.302-30.302c0-8.359,3.396-15.945,8.882-21.42   c5.475-5.486,13.061-8.882,21.42-8.882h60.029c16.739,0,30.302-13.563,30.302-30.302c0-16.729-13.563-30.302-30.302-30.302H326.69   c-16.729,0-30.302-13.563-30.302-30.302c0-8.359,3.396-15.945,8.882-21.42c5.486-5.486,13.051-8.882,21.42-8.882h50.949   c9.634,5.214,18.892,11.024,27.742,17.387c22.528,16.217,42.318,36.007,58.535,58.535   C477.375,125.303,488.368,145.888,496.424,167.883z"/>
</g>
<g>
	<path style="fill:#EFC549;" d="M175.954,368.827l-83.832,83.832c-2.905-2.424-5.757-4.911-8.558-7.461   c-5.841-5.319-11.431-10.909-16.75-16.75c-2.55-2.79-5.036-5.642-7.45-8.547l59.329-59.35l24.492-24.492   c9.049-9.049,23.719-9.049,32.768,0C185.002,345.108,185.002,359.778,175.954,368.827z"/>
	<polygon style="fill:#EFC549;" points="190.995,414.852 118.969,393.043 101.628,325.485 342.918,84.195 432.285,173.562  "/>
	<path style="fill:#EFC549;" d="M158.949,296.515c0,34.942-13.327,69.873-39.981,96.528   c-53.318-53.318-53.318-139.758-0.011-193.066C145.612,226.63,158.949,261.572,158.949,296.515z"/>
	<path style="fill:#EFC549;" d="M226.104,229.359c0,34.942-13.327,69.873-39.981,96.528   c-53.318-53.318-53.318-139.758-0.011-193.066C212.766,159.474,226.104,194.417,226.104,229.359z"/>
</g>
<path style="fill:#FFD662;" d="M436.016,142.305c-20.499,19.739-46.237,34.061-74.922,40.696c-11.64,2.681-23.749,4.089-36.183,4.1  c0-9.897,0.893-19.571,2.614-28.955c0.424-2.436,0.916-4.848,1.474-7.239c6.87-29.725,22.007-56.278,42.851-77.123  c29-29,69.047-46.928,113.306-46.928C485.157,72.209,466.3,113.16,436.016,142.305z"/>
<g>
	<path style="fill:#EFC549;" d="M293.26,162.205c0,34.942-13.327,69.873-39.981,96.528c-53.318-53.318-53.318-139.758-0.011-193.066   C279.922,92.32,293.26,127.262,293.26,162.205z"/>
	<path style="fill:#EFC549;" d="M355.765,125.839c-5.396,24.631-17.661,48.068-36.819,67.226   C265.627,139.747,265.627,53.308,318.934,0c26.653,26.653,39.991,61.596,39.991,96.538   C358.926,106.369,357.875,116.199,355.765,125.839z"/>
</g>
<g>
	<path style="fill:#FFD662;" d="M312.023,393.043c-53.308,53.308-139.747,53.308-193.054,0   c26.653-26.653,61.585-39.981,96.528-39.981C250.428,353.05,285.358,366.378,312.023,393.043z"/>
	<path style="fill:#FFD662;" d="M379.179,325.887c-53.308,53.308-139.747,53.308-193.054,0   c26.653-26.653,61.585-39.981,96.528-39.981C317.582,285.896,352.514,299.222,379.179,325.887z"/>
	<path style="fill:#FFD662;" d="M446.334,258.731c-53.308,53.308-139.747,53.308-193.054,0   c26.653-26.653,61.585-39.981,96.528-39.981C384.738,218.74,419.67,232.067,446.334,258.731z"/>
</g>
<path style="fill:#EFC549;" d="M436.016,142.305c-20.499,19.739-46.237,34.061-74.922,40.696c-11.64,2.681-23.749,4.089-36.183,4.1  c0-9.897,0.893-19.571,2.614-28.955c13.417-8.411,27.994-14.253,43.008-17.539c9.64-2.112,19.471-3.162,29.301-3.162  C412.01,137.446,424.186,139.055,436.016,142.305z"/>
<path style="fill:#FFD662;" d="M512,193.066c-53.308,53.308-139.747,53.308-193.054,0c19.158-19.158,42.594-31.423,67.226-36.819  c9.64-2.112,19.471-3.162,29.301-3.162C450.404,153.074,485.335,166.401,512,193.066z"/>
<g>
</g>
<g>
</g>
<g>
</g>
<g>
</g>
<g>
</g>
<g>
</g>
<g>
</g>
<g>
</g>
<g>
</g>
<g>
</g>
<g>
</g>
<g>
</g>
<g>
</g>
<g>
</g>
<g>
</g>
</svg>
