<?xml version="1.0" encoding="iso-8859-1"?>
<!-- Generator: Adobe Illustrator 19.0.0, SVG Export Plug-In . SVG Version: 6.00 Build 0)  -->
<svg xmlns="http://www.w3.org/2000/svg" xmlns:xlink="http://www.w3.org/1999/xlink" version="1.1" id="Capa_1" x="0px" y="0px" viewBox="0 0 512 512" style="enable-background:new 0 0 512 512;" xml:space="preserve">
<circle style="fill:#3FCDE0;" cx="256" cy="256" r="256"/>
<g>
	<path style="fill:#74D9EF;" d="M110.765,137.163L110.765,137.163c0,16.735-13.567,30.302-30.302,30.302H61.655   c-16.735,0-30.302,13.567-30.302,30.302l0,0c0,16.735,13.567,30.302,30.302,30.302h135.837c16.735,0,30.302-13.567,30.302-30.302   l0,0c0-16.735,13.567-30.302,30.302-30.302h18.808c16.735,0,30.302-13.567,30.302-30.302l0,0c0-16.735-13.567-30.302-30.302-30.302   H141.067C124.332,106.861,110.765,120.428,110.765,137.163z"/>
	<path style="fill:#74D9EF;" d="M501.554,290.763h8.108c-2.393,17.638-6.593,34.701-12.382,51.001   c-1.149,3.229-2.361,6.437-3.636,9.603H384.526c-8.37,0-15.945-3.385-21.431-8.871s-8.871-13.061-8.871-21.431   c0-16.739-13.563-30.302-30.302-30.302h-18.808c-8.37,0-15.945-3.385-21.431-8.871c-5.486-5.486-8.871-13.061-8.871-21.431   c0-16.739,13.563-30.302,30.302-30.302h18.808c8.37,0,15.945-3.385,21.431-8.871s8.871-13.061,8.871-21.431   c0-16.739,13.563-30.302,30.302-30.302H497.04c6.907,19.237,11.567,39.539,13.667,60.604h-9.153   c-16.739,0-30.302,13.563-30.302,30.302S484.815,290.763,501.554,290.763z"/>
</g>
<path style="fill:#5C5E70;" d="M421.557,451.269c-44.638,37.878-102.421,60.729-165.554,60.729c-1.964,0-3.918-0.021-5.872-0.073  c-36.582-0.815-71.252-9.31-102.494-23.918h-0.01c-47.208-22.11-86.549-58.169-112.724-102.891  c-22.183-37.909-34.9-82.035-34.9-129.118c0-4.817,0.136-9.603,0.408-14.357v-0.01l47.543-82.348l67.845-117.52h0.01l7.064-12.246  c8.892-15.402,27.449-19.634,41.66-12.706c5.392,2.633,10.156,6.865,13.531,12.706l81.157,140.57l35.986,62.328l0.042,0.073  L421.557,451.269z"/>
<path style="fill:#494B5B;" d="M149.967,13.593c-5.141,0.324-10.188,5.59-13.145,15.778c-0.01,0.052-0.031,0.094-0.042,0.146  L99.603,159.283l-64.7,225.834c-22.183-37.909-34.9-82.035-34.9-129.118c0-4.817,0.136-9.603,0.408-14.357l47.543-82.359  l67.845-117.52l7.074-12.246C128.912,19.068,139.403,13.75,149.967,13.593z"/>
<path style="fill:#5C5E70;" d="M497.28,341.764c-15.255,42.935-41.66,80.593-75.724,109.505  c-44.638,37.878-102.421,60.729-165.554,60.729c-1.964,0-3.918-0.021-5.872-0.073c-36.582-0.815-71.252-9.31-102.494-23.918  l113.131-195.96l12.33-21.347l22.11-38.285l41.869-72.526c12.267-21.243,42.924-21.243,55.191,0l58.211,100.822L497.28,341.764z"/>
<path style="fill:#FFD662;" d="M499.558,176.942c-14.848,18.192-37.449,29.811-62.767,29.811c-44.722,0-80.969-36.248-80.969-80.969  c0-34.607,21.713-64.146,52.255-75.724c16.666,12.309,31.786,26.614,45.004,42.548c18.829,22.674,33.813,48.661,43.959,76.946  C497.918,172,498.754,174.466,499.558,176.942z"/>
<g>
	<path style="fill:#E5E5E5;" d="M259.221,170.087c-8.861-6.186-14.43-15.161-30.595-15.161c-24.67,0-24.67,20.898-49.33,20.898   s-24.66-20.898-49.309-20.898c-18.192,0-22.956,11.368-34.105,17.335c-3.971,2.121-8.746,3.563-15.214,3.563   c-17.408,0-22.528-10.418-32.716-16.541l74.919-129.766c6.008-10.397,16.436-15.715,26.948-15.924h0.084   c10.919-0.188,21.922,5.12,28.16,15.924L259.221,170.087z"/>
	<path style="fill:#E5E5E5;" d="M450.48,260.711c-1.411-0.167-2.905-0.251-4.514-0.251c-24.67,0-24.67,20.898-49.33,20.898   s-24.66-20.898-49.309-20.898c-15.308,0-21.117,8.056-29.215,14.158c-4.942,3.73-10.752,6.74-20.104,6.74   c-12.497,0-18.662-5.371-24.91-10.658l63.979-110.811c5.977-10.365,16.332-15.673,26.802-15.924h0.23   c10.919-0.188,21.922,5.12,28.16,15.924L450.48,260.711z"/>
</g>
<path style="fill:#D3D3D3;" d="M149.904,13.593c-5.141,0.366-10.188,5.684-13.124,15.924L99.603,159.283l-3.72,12.978  c-3.971,2.121-8.746,3.563-15.214,3.563c-17.408,0-22.528-10.418-32.716-16.541l74.919-129.766  c6.008-10.397,16.436-15.715,26.948-15.924C149.821,13.593,149.904,13.593,149.904,13.593z"/>
<path style="fill:#494B5B;" d="M364.171,143.965c-5.162,0.324-10.24,5.642-13.187,15.924l-37.177,129.766l-63.676,222.271  c-36.582-0.815-71.252-9.31-102.494-23.918l114.521-198.353l74.919-129.766C343.116,149.44,353.607,144.122,364.171,143.965z"/>
<path style="fill:#D3D3D3;" d="M364.108,143.965c-5.141,0.366-10.188,5.684-13.124,15.924l-32.872,114.73  c-4.942,3.73-10.752,6.74-20.104,6.74c-12.497,0-18.662-5.371-24.91-10.658l63.979-110.811  c5.977-10.365,16.332-15.673,26.802-15.924L364.108,143.965L364.108,143.965z"/>
<g>
</g>
<g>
</g>
<g>
</g>
<g>
</g>
<g>
</g>
<g>
</g>
<g>
</g>
<g>
</g>
<g>
</g>
<g>
</g>
<g>
</g>
<g>
</g>
<g>
</g>
<g>
</g>
<g>
</g>
</svg>
