<?xml version="1.0" encoding="iso-8859-1"?>
<!-- Generator: Adobe Illustrator 19.0.0, SVG Export Plug-In . SVG Version: 6.00 Build 0)  -->
<svg xmlns="http://www.w3.org/2000/svg" xmlns:xlink="http://www.w3.org/1999/xlink" version="1.1" id="Capa_1" x="0px" y="0px" viewBox="0 0 512 512" style="enable-background:new 0 0 512 512;" xml:space="preserve">
<circle style="fill:#FFD662;" cx="256" cy="256" r="256"/>
<g>
	<path style="fill:#FCE39D;" d="M490.948,154.174c-2.038,1.254-3.918,2.738-5.601,4.42c-5.486,5.486-8.882,13.061-8.882,21.431   c0,16.739-13.563,30.302-30.302,30.302H310.327c-8.37,0-15.935-3.385-21.42-8.871c-5.486-5.486-8.882-13.061-8.882-21.431   c0-16.739,13.573-30.302,30.302-30.302h18.808c16.739,0,30.302-13.563,30.302-30.302s13.573-30.302,30.302-30.302h60.395   C466.811,108.491,480.635,130.392,490.948,154.174z"/>
	<path style="fill:#FCE39D;" d="M327.108,395.89c0,16.739-13.563,30.302-30.302,30.302h-18.808c-8.37,0-15.935,3.396-21.42,8.871   c-5.486,5.486-8.882,13.061-8.882,21.431c0,16.739-13.563,30.302-30.302,30.302h-72.255c-8.631-4.138-16.98-8.756-25.036-13.824   c-15.256-9.561-29.445-20.71-42.318-33.196c-3.427-3.333-6.771-6.75-10-10.271c4.127-2.121,8.808-3.312,13.772-3.312h18.808   c16.739,0,30.302-13.563,30.302-30.302c0-16.739,13.573-30.302,30.302-30.302h135.837c8.37,0,15.945,3.396,21.431,8.871   C323.713,379.945,327.108,387.52,327.108,395.89z"/>
	<path style="fill:#FCE39D;" d="M0.003,255.999c0-32.016,5.872-62.652,16.603-90.906h32.507c8.37,0,15.945,3.396,21.431,8.871   c5.486,5.486,8.871,13.061,8.871,21.431c0,16.739-13.563,30.302-30.302,30.302H30.305C13.566,225.697,0.003,239.26,0.003,255.999z"/>
	<path style="fill:#FCE39D;" d="M120.637,316.603c0,16.739-13.563,30.302-30.302,30.302H16.617   c-10.742-28.244-16.614-58.89-16.614-90.906c0,16.739,13.563,30.302,30.302,30.302h60.029c8.37,0,15.945,3.396,21.431,8.871   C117.241,300.658,120.637,308.233,120.637,316.603z"/>
</g>
<rect x="120.048" y="70.687" style="fill:#5C5E70;" width="49.591" height="53.52"/>
<rect x="120.048" y="36.205" style="fill:#494B5B;" width="49.591" height="53.52"/>
<path style="fill:#F23B52;" d="M111.128,18.776c-3.344,5.371-5.266,11.713-5.266,18.505v25.161h-0.01  c-10.606,4.211-24.189,6.74-38.985,6.74c-33.959,0-61.492-13.322-61.492-29.748c0-16.436,27.533-29.759,61.492-29.759  C84.253,9.675,99.937,13.165,111.128,18.776z"/>
<g>
	<path style="fill:#FF5662;" d="M222.828,9.675c33.959,0,61.482,13.322,61.482,29.759c0,16.426-27.523,29.748-61.482,29.748   c-14.806,0-28.39-2.529-38.996-6.74V37.281c0-6.792-1.923-13.134-5.266-18.505C189.746,13.165,205.43,9.675,222.828,9.675z"/>
	<path style="fill:#FF5662;" d="M178.566,18.776c3.344,5.371,5.266,11.713,5.266,18.505v25.161v8.822   c0,4.874-3.952,8.826-8.826,8.826h-5.363h-49.591h-5.363c-4.874,0-8.826-3.952-8.826-8.826v-8.822V37.281   c0-6.792,1.923-13.134,5.266-18.505c6.196-10,17.262-16.656,29.895-16.656h7.649C161.294,2.12,172.369,8.776,178.566,18.776z"/>
</g>
<path style="fill:#F23B52;" d="M137.208,37.281c0-6.792,1.923-13.134,5.266-18.505c4.156-6.705,10.505-11.894,18.044-14.594  c-3.703-1.326-7.687-2.062-11.846-2.062h-7.649c-12.633,0-23.698,6.656-29.895,16.656c-3.344,5.371-5.266,11.713-5.266,18.505  v25.161v8.822c0,4.874,3.952,8.826,8.826,8.826h5.363h17.156V62.442V37.281H137.208z"/>
<rect x="120.048" y="80.091" style="fill:#494B5B;" width="16.154" height="34.712"/>
<path style="fill:#E5E5E5;" d="M422.664,228.236v86.997h-76.372v-56.988c0-6.489-5.256-11.745-11.734-11.745h-122.65V170.14h152.66  C396.646,170.14,422.664,196.147,422.664,228.236z"/>
<g>
	<path style="fill:#F7F7F7;" d="M422.664,228.236v71.325h-35.809v-58.379c0-19.36-15.694-35.055-35.055-35.055H211.908V170.14   h152.66C396.654,170.14,422.664,196.15,422.664,228.236z"/>
	<path style="fill:#F7F7F7;" d="M211.908,148.719v359.487c-51.681-8.965-98.032-33.426-134.123-68.43V148.719   c0-18.735,15.182-33.917,33.907-33.917h66.299C196.726,114.802,211.908,129.984,211.908,148.719z"/>
</g>
<path style="fill:#E5E5E5;" d="M154.011,114.802c-18.725,0-33.907,15.182-33.907,33.917v324.253  c-15.256-9.561-29.445-20.71-42.318-33.196V148.719c0-18.735,15.182-33.917,33.907-33.917L154.011,114.802L154.011,114.802z"/>
<path style="fill:#F7F7F7;" d="M436.049,309.048v24.66c0,5.235-4.253,9.488-9.488,9.488h-82.683c-5.235,0-9.488-4.253-9.488-9.488  v-24.66c0-5.235,4.253-9.488,9.488-9.488h82.683C431.797,299.561,436.049,303.813,436.049,309.048z"/>
<path style="fill:#E5E5E5;" d="M357.682,299.561v43.635h-13.803c-5.235,0-9.488-4.253-9.488-9.488v-24.66  c0-5.235,4.253-9.488,9.488-9.488L357.682,299.561L357.682,299.561z"/>
<g>
	<path style="fill:#FCF8F2;" d="M421.421,315.233v12.291c0,3.993-3.237,7.23-7.23,7.23h-2.563c-3.993,0-7.23-3.237-7.23-7.23   v-12.291c0-3.993,3.237-7.23,7.23-7.23h2.563C418.185,308.004,421.421,311.241,421.421,315.233z"/>
	<path style="fill:#FCF8F2;" d="M415.152,234.338v49.299c0,3.993-3.237,7.23-7.23,7.23h-2.563c-3.993,0-7.23-3.237-7.23-7.23   v-49.299c0-3.993,3.237-7.23,7.23-7.23h2.563C411.915,227.109,415.152,230.346,415.152,234.338z"/>
	<path style="fill:#FCF8F2;" d="M179.726,433.914L179.726,433.914c-9.234,0-16.718-7.485-16.718-16.718V167.465   c0-9.234,7.485-16.718,16.718-16.718l0,0c9.234,0,16.718,7.485,16.718,16.718v249.731   C196.444,426.429,188.959,433.914,179.726,433.914z"/>
</g>
<path style="fill:#25B6C9;" d="M427.147,431.5c0,0.502,0,1.014-0.01,1.526c-0.136,6.092-1.285,11.494-3.229,16.217  c-10.104,8.798-20.908,16.802-32.319,23.949c-0.01,0-0.01,0-0.01,0c-22.559,3.062-47.626-10.324-48.264-40.166  c-0.021-0.512-0.021-1.024-0.021-1.526c0-24.21,12.298-45.537,30.992-58.086c3.438-2.309,7.095-4.326,10.94-6.008  C409.896,378.21,427.147,402.838,427.147,431.5z"/>
<path style="fill:#3FCDE0;" d="M427.147,431.5c0,0.502,0,1.014-0.01,1.526c-0.136,6.081-1.275,11.483-3.218,16.206  c0,0.01-0.01,0.01-0.01,0.01c-4.075,3.553-8.265,6.969-12.56,10.24c-23.792,6.311-53.175-6.698-53.875-39.048  c-0.01-0.512-0.01-1.024-0.01-1.536c0-17.366,6.332-33.259,16.823-45.484c3.438-2.309,7.095-4.326,10.94-6.008  C409.896,378.21,427.147,402.838,427.147,431.5z"/>
<g>
	<circle style="fill:#74D9EF;" cx="404.323" cy="415.033" r="10.233"/>
	<circle style="fill:#74D9EF;" cx="396.204" cy="395.651" r="6.353"/>
</g>
<g>
</g>
<g>
</g>
<g>
</g>
<g>
</g>
<g>
</g>
<g>
</g>
<g>
</g>
<g>
</g>
<g>
</g>
<g>
</g>
<g>
</g>
<g>
</g>
<g>
</g>
<g>
</g>
<g>
</g>
</svg>
