<?xml version="1.0" encoding="iso-8859-1"?>
<!-- Generator: Adobe Illustrator 19.0.0, SVG Export Plug-In . SVG Version: 6.00 Build 0)  -->
<svg xmlns="http://www.w3.org/2000/svg" xmlns:xlink="http://www.w3.org/1999/xlink" version="1.1" id="Capa_1" x="0px" y="0px" viewBox="0 0 512 512" style="enable-background:new 0 0 512 512;" xml:space="preserve">
<circle style="fill:#3FCDE0;" cx="256" cy="256" r="256"/>
<g>
	<path style="fill:#74D9EF;" d="M136.592,282.978c0,16.739-13.563,30.302-30.292,30.302H6.44   c-4.211-18.422-6.437-37.585-6.437-57.281c0-45.202,11.713-87.667,32.277-124.531h32.789c8.37,0,15.945,3.396,21.431,8.882   c5.475,5.486,8.871,13.051,8.871,21.42c0,16.739-13.563,30.302-30.302,30.302H46.261c-16.729,0-30.302,13.573-30.302,30.302   c0,16.739,13.573,30.302,30.302,30.302h60.04c8.37,0,15.935,3.396,21.42,8.882C133.207,267.044,136.592,274.609,136.592,282.978z"/>
	<path style="fill:#74D9EF;" d="M511.982,252.676h-17.46c-8.37,0-15.935-3.396-21.42-8.871c-5.486-5.486-8.882-13.061-8.882-21.431   c0-16.729-13.563-30.302-30.302-30.302H415.11c-8.37,0-15.935-3.396-21.42-8.871c-5.486-5.486-8.882-13.061-8.882-21.431   c0-16.729,13.573-30.302,30.302-30.302h18.808c8.37,0,15.945-3.396,21.431-8.871c4.305-4.315,7.325-9.927,8.411-16.196   C493.519,147.643,511.293,198.112,511.982,252.676z"/>
</g>
<path style="fill:#F7F7F7;" d="M254.514,57.333c-95.692,0-173.255,77.563-173.255,173.244v206.137h346.488V230.577  C427.748,134.895,350.185,57.333,254.514,57.333z"/>
<g>
	<path style="fill:#E5E5E5;" d="M254.51,0c15.826,0,28.661,12.834,28.661,28.661c0,15.839-12.834,28.673-28.661,28.673   c-15.839,0-28.673-12.834-28.673-28.673C225.837,12.834,238.671,0,254.51,0z"/>
	<path style="fill:#E5E5E5;" d="M436.943,230.577v206.137h-18.39V230.577c0-76.278-52.329-140.549-122.964-158.824   c-22.8-5.904-46.999-2.1-67.218,9.968c-38.045,22.695-66.644,59.549-78.535,103.288c-0.731,2.664-1.39,5.36-1.996,8.067   c-0.951,4.357-1.755,8.767-2.372,13.239c-1.118,7.92-1.693,16.029-1.693,24.263v206.137H72.065V232.353   c0-94.271,70.855-173.025,162.482-183.118c6.384-0.711,12.873-1.076,19.435-1.097c6.928-0.021,13.761,0.345,20.49,1.087   C365.712,59.203,436.943,136.724,436.943,230.577z"/>
</g>
<path style="fill:#3FBD77;" d="M254.514,292.393v15.151h-15.161c-35.37,0-66.748-17.095-86.319-43.478  c-2.466-3.333-4.754-6.813-6.844-10.439c-0.836-1.452-1.64-2.936-2.414-4.43c-7.565-14.702-11.839-31.399-11.839-49.089v-15.141  h15.141c0.92,0,1.839,0.01,2.759,0.042c10.198,0.251,20.031,1.923,29.33,4.838c3.678,1.139,7.262,2.487,10.752,4.012  c12.79,5.569,24.283,13.542,33.907,23.364c3.511,3.563,6.75,7.387,9.738,11.421C246.73,246.48,254.514,268.527,254.514,292.393z"/>
<path style="fill:#34A375;" d="M262.306,307.545l-7.796,7.796l-55.667-55.667l-45.81,4.389c-2.464-3.334-4.756-6.816-6.84-10.432  l42.538-4.07l-56.794-56.782v-7.809h7.796l36.935,36.935l2.5-32.056c3.678,1.14,7.257,2.489,10.751,4.008l-2.992,38.308  l31.357,31.357l5.541-46.3c3.506,3.567,6.754,7.392,9.733,11.425l-5.345,44.805L262.306,307.545z"/>
<path style="fill:#3FBD77;" d="M377.081,235.916v15.13c0,19.498-5.183,37.773-14.252,53.53c-1.149,1.985-2.361,3.939-3.636,5.841  c-1.024,1.557-2.1,3.082-3.208,4.587c-19.571,26.384-50.949,43.478-86.319,43.478h-15.151v-15.151  c0-23.865,7.785-45.902,20.95-63.739c2.978-4.033,6.228-7.858,9.728-11.431c9.624-9.812,21.117-17.795,33.907-23.364  c3.49-1.515,7.074-2.863,10.752-4.002c9.3-2.915,19.143-4.587,29.341-4.838c0.909-0.031,1.829-0.042,2.748-0.042L377.081,235.916  L377.081,235.916z"/>
<path style="fill:#34A375;" d="M359.192,261.61l-38.902,38.891l38.902,3.73l3.636,0.345c-1.149,1.985-2.361,3.939-3.636,5.841  c-1.024,1.557-2.1,3.082-3.208,4.587l-45.808-4.389l-55.662,55.662v-15.59l26.29-26.29l-5.339-44.805  c2.978-4.033,6.228-7.858,9.728-11.431l5.538,46.299l31.357-31.357l-2.988-38.306c3.49-1.515,7.074-2.863,10.752-4.002l2.497,32.047  l26.843-26.833l10.094-10.094h7.795v7.805L359.192,261.61z"/>
<path style="fill:#3FBD77;" d="M248.376,192.51v11.059h11.059c25.824,0,48.72-12.482,63.01-31.738  c1.798-2.434,3.472-4.975,4.993-7.614c6.622-11.498,10.406-24.839,10.406-39.066v-11.051h-11.051  c-8.161,0-16.026,1.243-23.426,3.561c-2.684,0.832-5.298,1.816-7.847,2.926c-9.333,4.063-17.726,9.887-24.749,17.055  c-2.559,2.604-4.93,5.396-7.104,8.339C254.059,159.001,248.376,175.089,248.376,192.51z"/>
<g>
	<path style="fill:#34A375;" d="M248.376,209.261l40.632-40.632l33.438,3.204c1.798-2.434,3.472-4.975,4.993-7.614l-31.049-2.971   l41.455-41.446v-5.7h-5.691l-26.959,26.959l-1.825-23.398c-2.684,0.832-5.298,1.816-7.847,2.926l2.183,27.961l-22.888,22.888   l-4.045-33.796c-2.559,2.604-4.93,5.396-7.104,8.339l3.902,32.704l-19.193,19.193V209.261z"/>
	<polygon style="fill:#34A375;" points="260.635,400.766 248.376,400.766 248.376,198.812 260.635,193.587  "/>
</g>
<path style="fill:#B58657;" d="M329.966,436.714H179.062c15.621-25.245,43.562-42.068,75.452-42.068  c6.457,0,12.748,0.69,18.808,1.996C297.198,401.804,317.501,416.579,329.966,436.714z"/>
<path style="fill:#C69A6A;" d="M329.966,436.714H216.678c12.455-20.135,32.758-34.91,56.644-40.072  C297.198,401.804,317.501,416.579,329.966,436.714z"/>
<path style="fill:#FFD662;" d="M438.526,435.491c-0.115,0.125-0.24,0.24-0.355,0.366c-46.414,47.01-110.885,76.142-182.168,76.142  c-48.034,0-92.965-13.228-131.365-36.237c-18.254-10.93-35.025-24.064-49.957-39.048c-0.408-0.408-0.805-0.815-1.212-1.223h61.315  c-0.031,0-0.031,0.021-0.031,0.021h237.787v-0.021H438.526z"/>
<circle style="fill:#F7F7F7;" cx="259.417" cy="23.418" r="9.398"/>
<path style="fill:#34A375;" d="M149.836,185.009c-0.731,2.664-1.39,5.36-1.996,8.067c-0.951,4.357-1.755,8.767-2.372,13.239  c-1.118,7.92-1.693,16.029-1.693,24.263v18.62c-7.565-14.702-11.839-31.399-11.839-49.089v-15.141h15.141  C147.997,184.967,148.917,184.977,149.836,185.009z"/>
<path style="fill:#FFFFFF;" d="M376.431,357.934L376.431,357.934c-9.521,0-17.24-7.719-17.24-17.24V196.506  c0-9.521,7.719-17.24,17.24-17.24l0,0c9.521,0,17.24,7.719,17.24,17.24v144.189C393.671,350.215,385.952,357.934,376.431,357.934z"/>
<path style="fill:#5CD68B;" d="M377.081,235.916v15.13c0,19.498-5.183,37.773-14.252,53.53c-1.149,1.985-2.361,3.939-3.636,5.841  v-74.459c0.909-0.031,1.829-0.042,2.748-0.042H377.081z"/>
<g>
	<path style="fill:#3FBD77;" d="M359.192,304.231l3.636,0.345c-1.149,1.985-2.361,3.939-3.636,5.841V304.231z"/>
	<polygon style="fill:#3FBD77;" points="377.081,235.916 377.081,243.721 359.192,261.61 359.192,246.01 369.286,235.916  "/>
</g>
<g>
</g>
<g>
</g>
<g>
</g>
<g>
</g>
<g>
</g>
<g>
</g>
<g>
</g>
<g>
</g>
<g>
</g>
<g>
</g>
<g>
</g>
<g>
</g>
<g>
</g>
<g>
</g>
<g>
</g>
</svg>
