<?xml version="1.0" encoding="iso-8859-1"?>
<!-- Generator: Adobe Illustrator 19.0.0, SVG Export Plug-In . SVG Version: 6.00 Build 0)  -->
<svg xmlns="http://www.w3.org/2000/svg" xmlns:xlink="http://www.w3.org/1999/xlink" version="1.1" id="Capa_1" x="0px" y="0px" viewBox="0 0 512 512" style="enable-background:new 0 0 512 512;" xml:space="preserve">
<circle style="fill:#5C5E70;" cx="256" cy="256" r="256"/>
<g>
	<path style="fill:#6D6F7A;" d="M476.957,126.63c-1.087,0.815-2.121,1.724-3.082,2.685c-5.486,5.486-8.871,13.051-8.871,21.42   c0,16.739-13.563,30.302-30.302,30.302H298.865c-8.37,0-15.945-3.396-21.431-8.871c-5.486-5.486-8.871-13.061-8.871-21.431   c0-16.729,13.563-30.302,30.302-30.302h18.808c16.739,0,30.302-13.563,30.302-30.302c0-16.729,13.563-30.302,30.302-30.302h42.203   C442.904,78.648,462.057,101.239,476.957,126.63z"/>
	<path style="fill:#6D6F7A;" d="M270.245,35.494c0,8.37-3.396,15.945-8.871,21.431c-5.486,5.486-13.061,8.871-21.431,8.871H104.106   c-5.433,0-10.543-1.432-14.952-3.95c13.709-11.797,28.672-22.162,44.68-30.866c0.293-0.157,0.575-0.313,0.867-0.47   c23.74-12.8,49.748-21.974,77.26-26.728c2.894,0.92,5.977,1.411,9.174,1.411h18.808C256.682,5.192,270.245,18.755,270.245,35.494z"/>
	<path style="fill:#6D6F7A;" d="M218.413,326.284L218.413,326.284c0-16.735,13.567-30.302,30.302-30.302h18.808   c16.735,0,30.302-13.567,30.302-30.302l0,0c0-16.735-13.567-30.302-30.302-30.302H131.686c-16.735,0-30.302,13.567-30.302,30.302   l0,0c0,16.735-13.567,30.302-30.302,30.302H52.274c-16.735,0-30.302,13.567-30.302,30.302l0,0   c0,16.735,13.567,30.302,30.302,30.302h18.808c16.735,0,30.302,13.567,30.302,30.302l0,0c0,16.735,13.567,30.302,30.302,30.302   h177.061c16.735,0,30.302-13.567,30.302-30.302l0,0c0-16.735-13.567-30.302-30.302-30.302h-60.033   C231.98,356.586,218.413,343.019,218.413,326.284z"/>
</g>
<path style="fill:#34A375;" d="M485.787,368.973c-2.832,5.768-5.883,11.41-9.143,16.927c-0.157,0.272-0.313,0.533-0.47,0.805  c-0.01,0-0.01,0-0.01,0c-0.481,0.815-0.972,1.62-1.463,2.424c-3.741,6.144-7.732,12.11-11.964,17.889  c-11.442,15.642-24.618,29.926-39.236,42.569c-5.945,5.162-12.121,10.041-18.526,14.629H296.712v-75.086  c0-127.195-77.667-144.771-77.667-144.771V103.705c112.212,0,210.965,74.052,242.385,181.77L485.787,368.973z"/>
<path style="fill:#3FBD77;" d="M485.787,368.973c-2.832,5.768-5.883,11.41-9.143,16.927c-0.157,0.272-0.313,0.533-0.47,0.805  c-0.01,0-0.01,0-0.01,0c-0.481,0.815-0.972,1.62-1.463,2.424c-3.741,6.144-7.732,12.11-11.964,17.889  c-11.442,15.642-24.618,29.926-39.236,42.569H317.61v-75.086c0-58.983-16.702-94.394-34.614-115.411  c-15.938-18.699-39.381-29.328-63.951-29.537l0,0V103.705c112.212,0,210.965,74.052,242.385,181.77L485.787,368.973z"/>
<path style="fill:#E5E5E5;" d="M137.136,30.98v219.261H0.066c0.282-12.727,1.494-25.224,3.574-37.428  C15.426,143.443,55.111,83.57,110.762,45.17c7.419-5.12,15.12-9.864,23.071-14.19C133.834,30.98,137.136,30.98,137.136,30.98z"/>
<g>
	<path style="fill:#D3D3D3;" d="M137.136,212.813v37.428H0.066c0.282-12.727,1.494-25.224,3.574-37.428H137.136z"/>
	<path style="fill:#D3D3D3;" d="M134.703,45.212h85.972V261.79c0,10.735-8.702,19.437-19.437,19.437H154.14   c-10.735,0-19.437-8.702-19.437-19.437L134.703,45.212L134.703,45.212z"/>
</g>
<path style="fill:#E5E5E5;" d="M154.139,0h47.098c10.735,0,19.437,8.702,19.437,19.437v161.701h-85.972V19.437  C134.703,8.702,143.405,0,154.139,0z"/>
<path style="fill:#D3D3D3;" d="M137.136,30.98v219.261h-26.373V45.17c7.419-5.12,15.12-9.864,23.071-14.19H137.136z"/>
<path style="fill:#5CD68B;" d="M476.163,386.705c-0.481,0.815-0.972,1.62-1.463,2.424c-3.741,6.144-7.732,12.11-11.964,17.889  c-15.308,20.919-33.698,39.414-54.523,54.836c-42.538,31.514-95.201,50.145-152.21,50.145c-68.242,0-130.236-26.697-176.128-70.228  c-11.212-10.616-21.462-22.256-30.605-34.753c-2.957-4.033-5.789-8.15-8.505-12.361c12.466,5.151,26.603,10,50.145,10  c56.947,0,56.947-20.898,113.883-20.898c56.947,0,56.947,20.898,113.894,20.898s56.947-20.898,113.904-20.898  C452.601,383.759,465.474,384.814,476.163,386.705z"/>
<path style="fill:#3FBD77;" d="M408.213,461.854c-42.538,31.514-95.201,50.145-152.21,50.145  c-68.242,0-130.236-26.697-176.128-70.228c1.442-0.01,2.936-0.021,4.462-0.021c56.957,0,56.957,20.898,113.904,20.898  s56.947-20.898,113.894-20.898C362.426,441.75,368.298,458.051,408.213,461.854z"/>
<g>
</g>
<g>
</g>
<g>
</g>
<g>
</g>
<g>
</g>
<g>
</g>
<g>
</g>
<g>
</g>
<g>
</g>
<g>
</g>
<g>
</g>
<g>
</g>
<g>
</g>
<g>
</g>
<g>
</g>
</svg>
