<?xml version="1.0" encoding="iso-8859-1"?>
<!-- Generator: Adobe Illustrator 19.0.0, SVG Export Plug-In . SVG Version: 6.00 Build 0)  -->
<svg xmlns="http://www.w3.org/2000/svg" xmlns:xlink="http://www.w3.org/1999/xlink" version="1.1" id="Capa_1" x="0px" y="0px" viewBox="0 0 512 512" style="enable-background:new 0 0 512 512;" xml:space="preserve">
<circle style="fill:#797B89;" cx="255.998" cy="255.999" r="255.998"/>
<g>
	<path style="fill:#5C5E70;" d="M275.858,301.213L275.858,301.213c0,16.735-13.567,30.302-30.302,30.302h-18.808   c-16.735,0-30.302,13.567-30.302,30.302l0,0c0,16.735,13.567,30.302,30.302,30.302h135.836c16.735,0,30.302-13.567,30.302-30.302   l0,0c0-16.735,13.567-30.302,30.302-30.302h18.808c16.735,0,30.302-13.567,30.302-30.302l0,0c0-16.735-13.567-30.302-30.302-30.302   H306.16C289.424,270.911,275.858,284.477,275.858,301.213z"/>
	<path style="fill:#5C5E70;" d="M202.137,452.722c0,16.739-13.563,30.302-30.302,30.302h-34.252   C68.6,446.965,18.09,380.384,3.984,301.213h126.63c8.37,0,15.945,3.385,21.431,8.871c5.486,5.486,8.871,13.061,8.871,21.431   c0,16.739-13.563,30.302-30.302,30.302h-18.808c-16.739,0-30.302,13.563-30.302,30.302c0,16.739,13.563,30.302,30.302,30.302   h60.029c8.37,0,15.945,3.385,21.431,8.871C198.742,436.776,202.137,444.352,202.137,452.722z"/>
	<path style="fill:#5C5E70;" d="M234.069,157.3c0,8.37-3.396,15.945-8.882,21.431c-5.486,5.475-13.051,8.871-21.42,8.871H67.932   c-16.739,0-30.302-13.563-30.302-30.302c0-7.993-3.093-15.255-8.15-20.668c13.991-26.509,32.507-50.259,54.522-70.238h40.354   c16.729,0,30.302,13.563,30.302,30.302s13.563,30.302,30.302,30.302h18.808C220.496,126.998,234.069,140.561,234.069,157.3z"/>
	<path style="fill:#5C5E70;" d="M488.48,148.659H317.65c-8.37,0-15.945-3.385-21.431-8.871c-5.486-5.486-8.871-13.061-8.871-21.431   c0-16.739-13.563-30.302-30.302-30.302h-18.808c-8.37,0-15.945-3.385-21.431-8.871c-5.486-5.486-8.871-13.061-8.871-21.431   c0-16.739,13.563-30.302,30.302-30.302h18.808c8.37,0,15.945-3.385,21.431-8.871c4.43-4.43,7.502-10.24,8.505-16.718   c44.042,5.308,84.636,21.796,118.867,46.55c-0.961,2.947-1.473,6.081-1.473,9.341c0,16.739,13.563,30.302,30.302,30.302h14.534   C464.99,106.183,478.26,126.569,488.48,148.659z"/>
</g>
<path style="fill:#F7F7F7;" d="M482.827,374.793c-33.76,64.324-94.072,112.524-166.378,130.026l16.008-291.211l2.445-44.471  l1.787-32.622l2.455-44.471l3.208-58.556l0.878-15.966h119.964l4.086,74.522l1.16,21.055l1.285,23.416l1.797,32.622l2.445,44.471  L482.827,374.793z"/>
<g>
	<path style="fill:#E5E5E5;" d="M384.45,477.475c-20.961,12.194-43.812,21.483-68.002,27.345l16.008-291.211l2.445-44.471   l1.787-32.622l2.455-44.471l3.208-58.556l35.652-0.742L384.45,477.475z"/>
	<path style="fill:#E5E5E5;" d="M335.004,45.352h136.412c5.416,0,9.806-4.391,9.806-9.806v-8.213c0-5.416-4.391-9.806-9.806-9.806   H335.004c-5.416,0-9.806,4.391-9.806,9.806v8.213C325.197,40.962,329.588,45.352,335.004,45.352z"/>
</g>
<path style="fill:#D3D3D3;" d="M365.323,35.546v-8.213c0-5.416,4.391-9.806,9.806-9.806h-40.126c-5.416,0-9.806,4.391-9.806,9.806  v8.213c0,5.416,4.391,9.806,9.806,9.806h40.126C369.714,45.352,365.323,40.962,365.323,35.546z"/>
<g>
	<polygon style="fill:#FF5662;" points="469.726,136.519 336.692,136.519 339.138,92.047 467.28,92.047  "/>
	<polygon style="fill:#FF5662;" points="473.966,213.606 332.453,213.606 334.899,169.133 471.52,169.133  "/>
</g>
<g>
	<polygon style="fill:#F23B52;" points="379.506,136.519 336.692,136.519 339.138,92.047 378.868,92.047  "/>
	<polygon style="fill:#F23B52;" points="380.632,213.606 332.453,213.606 334.899,169.133 379.98,169.133  "/>
</g>
<path style="fill:#F7F7F7;" d="M271.497,511.529c-5.13,0.313-10.292,0.47-15.496,0.47c-42.726,0-83.006-10.47-118.418-28.975  c-5.611-2.936-11.097-6.06-16.447-9.394l3.385-61.492l2.445-44.471l1.787-32.622l2.456-44.471l3.208-58.556l0.878-15.966H255.26  l4.086,74.522l2.445,44.471l1.797,32.622l2.445,44.471L271.497,511.529z"/>
<g>
	<path style="fill:#E5E5E5;" d="M173.946,498.562c-12.591-4.253-24.733-9.456-36.362-15.538c-5.611-2.936-11.097-6.06-16.447-9.394   l3.385-61.492l2.445-44.471l1.787-32.622l2.456-44.471l3.208-58.556l35.652-0.742L173.946,498.562z"/>
	<path style="fill:#E5E5E5;" d="M127.07,243.882h136.412c5.416,0,9.806-4.391,9.806-9.806v-8.213c0-5.416-4.391-9.806-9.806-9.806   H127.07c-5.416,0-9.806,4.391-9.806,9.806v8.213C117.264,239.491,121.655,243.882,127.07,243.882z"/>
</g>
<g>
	<polygon style="fill:#FF5662;" points="261.792,335.049 128.759,335.049 131.205,290.576 259.346,290.576  "/>
	<polygon style="fill:#FF5662;" points="266.033,412.136 124.52,412.136 126.966,367.663 263.586,367.663  "/>
</g>
<g>
	<polygon style="fill:#F23B52;" points="171.572,335.049 128.759,335.049 131.205,290.576 170.935,290.576  "/>
	<polygon style="fill:#F23B52;" points="172.699,412.136 124.52,412.136 126.966,367.663 172.047,367.663  "/>
</g>
<g>
	<path style="fill:#5C5E70;" d="M202.137,452.722c0,16.739-13.563,30.302-30.302,30.302h-34.252   c-10.052-5.256-19.707-11.149-28.912-17.648v-43.112c1.034,0.104,2.079,0.157,3.135,0.157h60.029c8.37,0,15.945,3.385,21.431,8.871   C198.742,436.776,202.137,444.352,202.137,452.722z"/>
	<path style="fill:#5C5E70;" d="M512,255.999c0,34.105-6.677,66.654-18.787,96.412h-50.698c-8.359,0-15.945-3.385-21.42-8.871   c-5.486-5.486-8.882-13.061-8.882-21.431c0-16.739,13.573-30.302,30.302-30.302h18.808c16.739,0,30.302-13.563,30.302-30.302   c0-12.884,8.035-23.886,19.372-28.264C511.666,240.745,512,248.331,512,255.999z"/>
</g>
<path style="fill:#D3D3D3;" d="M157.39,234.076v-8.213c0-5.416,4.391-9.806,9.806-9.806H127.07c-5.416,0-9.806,4.391-9.806,9.806  v8.213c0,5.416,4.391,9.806,9.806,9.806h40.126C161.781,243.882,157.39,239.491,157.39,234.076z"/>
<g>
</g>
<g>
</g>
<g>
</g>
<g>
</g>
<g>
</g>
<g>
</g>
<g>
</g>
<g>
</g>
<g>
</g>
<g>
</g>
<g>
</g>
<g>
</g>
<g>
</g>
<g>
</g>
<g>
</g>
</svg>
