<?xml version="1.0" encoding="iso-8859-1"?>
<!-- Generator: Adobe Illustrator 19.0.0, SVG Export Plug-In . SVG Version: 6.00 Build 0)  -->
<svg xmlns="http://www.w3.org/2000/svg" xmlns:xlink="http://www.w3.org/1999/xlink" version="1.1" id="Capa_1" x="0px" y="0px" viewBox="0 0 512 512" style="enable-background:new 0 0 512 512;" xml:space="preserve">
<circle style="fill:#FFD662;" cx="256" cy="256" r="256"/>
<g>
	<path style="fill:#FCE39D;" d="M275.342,338.821L275.342,338.821c0,16.735-13.567,30.302-30.302,30.302h-18.808   c-16.735,0-30.302,13.567-30.302,30.302l0,0c0,16.735,13.567,30.302,30.302,30.302h135.837c16.735,0,30.302-13.567,30.302-30.302   l0,0c0-16.735,13.567-30.302,30.302-30.302h18.808c16.735,0,30.302-13.567,30.302-30.302l0,0c0-16.735-13.567-30.302-30.302-30.302   H305.644C288.909,308.519,275.342,322.086,275.342,338.821z"/>
	<path style="fill:#FCE39D;" d="M170.813,358.169c0,16.729-13.563,30.302-30.302,30.302H36.898   c-23.416-38.64-36.895-83.978-36.895-132.472c0-16.875,1.63-33.374,4.754-49.34h94.532c8.359,0,15.945,3.396,21.42,8.871   c5.486,5.486,8.882,13.061,8.882,21.431c0,16.729-13.573,30.302-30.302,30.302H80.481c-16.739,0-30.302,13.563-30.302,30.302   c0,16.729,13.563,30.302,30.302,30.302h60.029c8.37,0,15.945,3.396,21.431,8.871C167.417,342.224,170.813,349.799,170.813,358.169z   "/>
	<path style="fill:#FCE39D;" d="M511.261,236.438H339.595c-8.37,0-15.945-3.396-21.431-8.871   c-5.486-5.486-8.871-13.061-8.871-21.431c0-16.729-13.563-30.302-30.302-30.302h-18.808c-8.37,0-15.945-3.396-21.431-8.871   c-5.486-5.486-8.871-13.061-8.871-21.431c0-16.729,13.563-30.302,30.302-30.302h18.808c8.37,0,15.945-3.396,21.431-8.871   c5.486-5.486,8.871-13.061,8.871-21.431c0-16.729,13.563-30.302,30.302-30.302h74.47c21.692,17.042,40.563,37.512,55.787,60.604   h-13.228c-16.739,0-30.302,13.573-30.302,30.302c0,16.739,13.563,30.302,30.302,30.302h42.569   C505.556,195.123,509.683,215.426,511.261,236.438z"/>
</g>
<path style="fill:#C69A6A;" d="M289.367,308.662v201.174c-10.292,1.348-20.773,2.079-31.399,2.152  c-0.658,0.01-1.306,0.01-1.964,0.01c-11.306,0-22.444-0.731-33.364-2.163V308.662c0-18.422,14.932-33.364,33.364-33.364  c9.216,0,17.554,3.741,23.594,9.77C285.636,291.108,289.367,299.456,289.367,308.662z"/>
<path style="fill:#34A375;" d="M324.518,0H187.482c-48.176,0-87.23,39.054-87.23,87.23v216.375c0,48.176,39.054,87.23,87.23,87.23  h137.035c48.176,0,87.23-39.054,87.23-87.23V87.23C411.748,39.054,372.694,0,324.518,0z"/>
<path style="fill:#3FBD77;" d="M316.153,321.42h-85.544c-31.117,0-56.342-25.225-56.342-56.342V78.458  c0-31.117,25.225-56.342,56.342-56.342h85.544c31.117,0,56.342,25.225,56.342,56.342v186.62  C372.495,296.195,347.27,321.42,316.153,321.42z"/>
<path style="fill:#F23B52;" d="M372.395,318.98c0,7.813-2.683,14.997-7.176,20.69c-6.117,7.764-15.609,12.747-26.26,12.747  c-18.463,0-33.437-14.973-33.437-33.437c0-16.457,11.898-30.151,27.565-32.923c1.908-0.334,3.865-0.514,5.871-0.514  C357.422,285.543,372.395,300.516,372.395,318.98z"/>
<path style="fill:#FF5662;" d="M372.395,318.98c0,7.813-2.683,14.997-7.176,20.69c-1.908,0.334-3.865,0.514-5.871,0.514  c-18.463,0-33.437-14.973-33.437-33.437c0-7.813,2.683-14.997,7.176-20.69c1.908-0.334,3.865-0.514,5.871-0.514  C357.422,285.543,372.395,300.516,372.395,318.98z"/>
<g>
	<path style="fill:#B58657;" d="M257.968,390.833v121.156c-0.658,0.01-1.306,0.01-1.964,0.01c-11.306,0-22.444-0.731-33.364-2.163   V390.833H257.968z"/>
	<rect x="233.148" y="390.834" style="fill:#B58657;" width="56.218" height="29.698"/>
</g>
<path style="fill:#F23B52;" d="M199.579,231.204c0,7.813-2.683,14.997-7.176,20.69c-6.117,7.764-15.609,12.747-26.26,12.747  c-18.463,0-33.437-14.973-33.437-33.437c0-16.457,11.898-30.151,27.565-32.923c1.908-0.334,3.866-0.514,5.871-0.514  C184.606,197.767,199.579,212.74,199.579,231.204z"/>
<path style="fill:#FF5662;" d="M199.579,231.204c0,7.813-2.683,14.997-7.176,20.69c-1.908,0.334-3.865,0.514-5.871,0.514  c-18.463,0-33.437-14.973-33.437-33.437c0-7.813,2.683-14.997,7.176-20.69c1.908-0.334,3.866-0.514,5.871-0.514  C184.606,197.767,199.579,212.74,199.579,231.204z"/>
<path style="fill:#F23B52;" d="M250.316,99.582c0,7.813-2.683,14.997-7.176,20.69c-6.117,7.764-15.609,12.747-26.26,12.747  c-18.463,0-33.437-14.973-33.437-33.437c0-16.457,11.898-30.151,27.565-32.923c1.908-0.334,3.866-0.514,5.871-0.514  C235.342,66.145,250.316,81.118,250.316,99.582z"/>
<path style="fill:#FF5662;" d="M250.316,99.582c0,7.813-2.683,14.997-7.176,20.69c-1.908,0.334-3.866,0.514-5.871,0.514  c-18.463,0-33.437-14.973-33.437-33.437c0-7.813,2.683-14.997,7.176-20.69c1.908-0.334,3.866-0.514,5.871-0.514  C235.342,66.145,250.316,81.118,250.316,99.582z"/>
<path style="fill:#C69A6A;" d="M304.545,489.173h-16.746v-33.49h16.746c9.248,0,16.746,7.497,16.746,16.746l0,0  C321.289,481.676,313.793,489.173,304.545,489.173z"/>
<path style="fill:#B58657;" d="M199.62,449.413h40.29v-33.49h-40.29c-9.248,0-16.746,7.497-16.746,16.746l0,0  C182.876,441.916,190.372,449.413,199.62,449.413z"/>
<g>
</g>
<g>
</g>
<g>
</g>
<g>
</g>
<g>
</g>
<g>
</g>
<g>
</g>
<g>
</g>
<g>
</g>
<g>
</g>
<g>
</g>
<g>
</g>
<g>
</g>
<g>
</g>
<g>
</g>
</svg>
