<?xml version="1.0" encoding="iso-8859-1"?>
<!-- Generator: Adobe Illustrator 19.0.0, SVG Export Plug-In . SVG Version: 6.00 Build 0)  -->
<svg xmlns="http://www.w3.org/2000/svg" xmlns:xlink="http://www.w3.org/1999/xlink" version="1.1" id="Capa_1" x="0px" y="0px" viewBox="0 0 512 512" style="enable-background:new 0 0 512 512;" xml:space="preserve">
<circle style="fill:#CAF5FC;" cx="256" cy="256" r="256"/>
<g>
	<path style="fill:#FCF8F2;" d="M497.239,170.098c-3.856,5.078-6.134,11.41-6.134,18.265c0,16.739-13.563,30.302-30.302,30.302   H324.966c-8.359,0-15.945-3.385-21.42-8.871c-5.486-5.486-8.882-13.061-8.882-21.431c0-16.739,13.573-30.302,30.302-30.302h18.808   c16.739,0,30.302-13.563,30.302-30.302s13.573-30.302,30.302-30.302H457C474.115,119.107,487.793,143.599,497.239,170.098z"/>
	<path style="fill:#FCF8F2;" d="M466.08,402.316c-45.505,65.243-120.644,108.283-205.897,109.652   c-4.086-5.162-6.51-11.672-6.51-18.745c0-16.739,13.573-30.302,30.302-30.302h18.808c8.37,0,15.945-3.385,21.431-8.871   c5.475-5.486,8.871-13.061,8.871-21.431c0-16.739,13.573-30.302,30.302-30.302H466.08z"/>
	<path style="fill:#FCF8F2;" d="M284.686,347.187c0,16.739-13.563,30.302-30.302,30.302H77.326c-8.37,0-15.945-3.385-21.431-8.871   s-8.871-13.061-8.871-21.431c0-16.739-13.563-30.302-30.302-30.302H7.297c-1.797-7.367-3.281-14.858-4.43-22.465   c-1.87-12.434-2.853-25.172-2.863-38.139h16.718c8.37,0,15.945-3.385,21.431-8.871c5.486-5.486,8.871-13.061,8.871-21.431   c0-16.739,13.563-30.302,30.302-30.302h135.837c8.37,0,15.945,3.385,21.431,8.871c5.486,5.486,8.871,13.061,8.871,21.431   c0,16.739-13.563,30.302-30.302,30.302h-18.808c-16.739,0-30.302,13.563-30.302,30.302c0,16.739,13.563,30.302,30.302,30.302   h60.029c8.37,0,15.945,3.385,21.431,8.871C281.29,331.242,284.686,338.818,284.686,347.187z"/>
</g>
<path style="fill:#34A375;" d="M179.767,356.152v106.026l-75.546-0.01c-21.692-15.997-40.772-35.328-56.466-57.25  c-14.012-19.55-25.339-41.169-33.437-64.293l28.787,15.527L179.767,356.152L179.767,356.152z"/>
<path style="fill:#3FBD77;" d="M160.907,292.539l-41.211-30.647l-47.417,94.26l-24.524,48.765  c-14.012-19.55-25.339-41.169-33.437-64.293c-5.193-14.827-9.049-30.281-11.452-46.205c1.317-4.19,3.082-8.255,5.298-12.131  l38.484-67.511l-38.4-23.458l-4.012-2.445l4.827-0.606l117.708-14.733L160.907,292.539z"/>
<path style="fill:#34A375;" d="M511.084,277.848v0.01c-2.069,24.482-7.586,47.961-16.05,69.998  c-6.771,17.575-15.412,34.231-25.684,49.695l-0.073,0.084l-18.975,24.545l-2.361-44.293l-15.203-24.91l-56.007-91.732l90.488-55.254  L511.084,277.848z"/>
<path style="fill:#3FBD77;" d="M495.034,347.856c-6.771,17.575-15.412,34.231-25.684,49.695l-0.073,0.084l-18.975,24.545  c-11.337,14.67-28.693,23.479-47.208,24.022l-77.667,2.32l-0.01,49.695l-76.936-96.59l83.78-91.146l-4.681,51.137l105.159-8.641  L495.034,347.856z"/>
<path style="fill:#34A375;" d="M290.571,1.438l-34.008,28.481l-50.545,126.977l-98.507-39.212l33.803-84.906  c7.979-20.042,27.502-33.079,49.072-32.771L290.571,1.438z"/>
<path style="fill:#3FBD77;" d="M272.098,162.9l43.709-26.954L195.218,0.074l95.353,1.364c18.533,0.264,35.998,8.852,47.541,23.337  l48.482,60.723l39.753-29.822l-31.066,119.513L272.098,162.9z"/>
<g>
</g>
<g>
</g>
<g>
</g>
<g>
</g>
<g>
</g>
<g>
</g>
<g>
</g>
<g>
</g>
<g>
</g>
<g>
</g>
<g>
</g>
<g>
</g>
<g>
</g>
<g>
</g>
<g>
</g>
</svg>
