<svg height="512pt" viewBox="0 -1 512 511" width="512pt" xmlns="http://www.w3.org/2000/svg"><path d="m155.402344 105.554688s72.996094 44.535156 70.980468 140.835937h59.234376c-2.015626-96.300781 70.980468-140.835937 70.980468-140.835937zm0 0" fill="#fccf3f"/><path d="m377.253906 77.492188c-.039062-15.1875-12.363281-27.488282-27.5625-27.488282-6.027344 0-11.597656 1.9375-16.132812 5.21875-4.574219-16.746094-19.882813-29.058594-38.078125-29.058594-2.558594 0-5.054688.253907-7.476563.71875-3.230468-15.078124-16.621094-26.382812-32.664062-26.382812-15.957032 0-29.296875 11.191406-32.609375 26.152344-2.023438-.316406-4.097657-.488282-6.210938-.488282-18.195312 0-33.503906 12.3125-38.078125 29.058594-4.535156-3.28125-10.105468-5.222656-16.132812-5.222656-15.199219 0-27.519532 12.304688-27.558594 27.492188-16.820312 1.289062-30.070312 15.335937-30.070312 32.484374 0 18 14.589843 32.59375 32.589843 32.59375 11.832031 0 22.191407-6.304687 27.902344-15.738281 7.644531 9.585938 19.414063 15.738281 32.628906 15.738281 12.480469 0 23.671875-5.484374 31.316407-14.171874 5.871093 8.554687 15.722656 14.171874 26.886718 14.171874 11.160156 0 21.011719-5.613281 26.882813-14.171874 7.644531 8.683593 18.835937 14.171874 31.316406 14.171874 13.214844 0 24.984375-6.152343 32.628906-15.738281 5.707031 9.433594 16.066407 15.738281 27.898438 15.738281 18 0 32.59375-14.589843 32.59375-32.59375 0-17.148437-13.25-31.195312-30.070313-32.484374zm0 0" fill="#efefef"/><path d="m377.253906 77.492188c-.039062-15.1875-12.363281-27.488282-27.5625-27.488282-6.027344 0-11.597656 1.9375-16.132812 5.21875-4.574219-16.742187-19.882813-29.058594-38.078125-29.058594-2.558594 0-5.054688.253907-7.476563.71875-3.230468-15.078124-16.621094-26.382812-32.664062-26.382812-15.5625 0-28.625 10.648438-32.339844 25.050781.113281.4375.21875.882813.316406 1.332031 2.417969-.464843 4.917969-.71875 7.472656-.71875 14.214844 0 26.671876 7.515626 33.621094 18.789063 2.957032 4.800781 8.574219 7.167969 14.050782 5.832031 2.097656-.511718 4.285156-.78125 6.542968-.78125 12.722656 0 23.429688 8.617188 26.601563 20.335938 1.109375 4.089844 4.285156 7.300781 8.324219 8.585937 13.167968 4.183594 22.707031 16.503907 22.707031 31.054688 0 17.355469-13.566407 31.535156-30.667969 32.53125.738281.039062 1.484375.0625 2.234375.0625 13.214844 0 24.984375-6.152344 32.628906-15.742188 6.105469 10.089844 17.523438 16.597657 30.378907 15.648438 15.816406-1.167969 28.675781-13.894531 29.996093-29.699219 1.535157-18.398438-12.226562-33.929688-29.953125-35.289062zm0 0" fill="#d8d8d8"/><path d="m290.066406 207.796875h-67.738281c-2.371094 0-4.417969 1.65625-4.902344 3.980469-4.78125 22.960937-35.667969 141.867187-181.84375 268.46875h441.234375c-146.171875-126.601563-177.058594-245.507813-181.84375-268.46875-.484375-2.324219-2.53125-3.980469-4.90625-3.980469zm0 0" fill="#575d60"/><path d="m472.992188 476.894531c-142.871094-125.339843-173.277344-242.359375-178.019532-265.117187-.484375-2.324219-2.53125-3.980469-4.902344-3.980469h-40.953124c7.441406 48.167969 37.953124 164.257813 162.871093 272.449219h64.828125c-1.289062-1.117188-2.5625-2.234375-3.824218-3.351563zm0 0" fill="#464c50"/><path d="m492.144531 469.753906h-472.289062c-10.964844 0-19.855469 8.890625-19.855469 19.855469s8.890625 19.851563 19.855469 19.851563h472.289062c10.964844 0 19.855469-8.886719 19.855469-19.851563s-8.890625-19.855469-19.855469-19.855469zm0 0" fill="#7bb72e"/><path d="m215.257812 268.816406c6.882813-5.636718 17.167969-3.875 21.78125 3.738282l.347657.570312c8.746093 14.4375 29.535156 14.863281 38.871093.804688l.988282-1.492188c4.832031-7.277344 14.917968-8.726562 21.605468-3.105469 0 0 6.476563 5.160157 12.625 9.835938 2.878907 2.191406 6.765626-.921875 5.277344-4.222657-14.339844-31.730468-19.960937-54.417968-21.78125-63.167968-.484375-2.320313-2.53125-3.980469-4.90625-3.980469h-67.738281c-2.371094 0-4.417969 1.660156-4.902344 3.980469-1.839843 8.835937-7.554687 31.875-22.199219 64.085937-1.492187 3.285157 2.355469 6.40625 5.246094 4.25 6.980469-5.203125 14.785156-11.296875 14.785156-11.296875zm0 0" fill="#fc4e51"/></svg>