<svg height="512pt" viewBox="0 -13 512 512" width="512pt" xmlns="http://www.w3.org/2000/svg"><path d="m428.898438 293.296875c-.679688 0-1.371094-.089844-2.058594-.277344-4.140625-1.136719-6.578125-5.410156-5.441406-9.550781l18.878906-68.902344c1.132812-4.140625 5.410156-6.578125 9.550781-5.445312 4.140625 1.136718 6.578125 5.414062 5.441406 9.554687l-18.878906 68.898438c-.945313 3.453125-4.078125 5.722656-7.492187 5.722656zm0 0" fill="#a05e44"/><path d="m313.875 295.710938-255.816406 28.851562-23.554688-208.839844 118.777344-95.402344 137.042969 66.550782zm0 0" fill="#efefef"/><path d="m226.6875 114.332031 21.296875 188.808594 65.890625-7.429687-23.550781-208.839844-137.042969-66.550782-37.382812 30.027344 99.824218 48.472656c6.070313 2.949219 10.210938 8.804688 10.964844 15.511719zm0 0" fill="#d8d8d8"/><path d="m6.964844 113.605469 138.484375-111.226563c3.25-2.613281 7.71875-3.117187 11.472656-1.296875l159.777344 77.589844c5.742187 2.789063 9.660156 8.328125 10.375 14.671875 1.644531 14.589844-13.445313 25.261719-26.652344 18.847656l-138.558594-67.285156c-3.753906-1.824219-8.21875-1.320312-11.472656 1.292969l-120.09375 96.457031c-11.445313 9.191406-28.535156 2.152344-30.179687-12.4375-.714844-6.347656 1.867187-12.613281 6.847656-16.613281zm0 0" fill="#fc4e51"/><path d="m178.597656 310.96875-84.933594 9.578125-15.449218-136.980469c-.496094-4.378906 2.652344-8.328125 7.03125-8.820312l69.082031-7.792969c4.378906-.492187 8.328125 2.65625 8.820313 7.035156zm0 0" fill="#912c2c"/><path d="m141.480469 254.167969c-3.902344 0-7.265625-2.929688-7.714844-6.902344l-1.777344-15.761719c-.480469-4.265625 2.585938-8.117187 6.855469-8.597656 4.257812-.484375 8.113281 2.585938 8.59375 6.855469l1.78125 15.761719c.480469 4.265624-2.589844 8.117187-6.855469 8.597656-.296875.03125-.589843.046875-.882812.046875zm0 0" fill="#d8d8d8"/><path d="m267.597656 229.386719-60.125 6.78125c-3.90625.441406-7.425781-2.367188-7.867187-6.269531l-6.78125-60.128907c-.4375-3.902343 2.367187-7.425781 6.273437-7.863281l60.125-6.78125c3.902344-.441406 7.425782 2.367188 7.867188 6.269531l6.777344 60.125c.441406 3.90625-2.363282 7.425781-6.269532 7.867188zm0 0" fill="#33d8dd"/><path d="m415.234375 272.738281-40.15625 34.683594c-2.867187 2.476563-3.414063 6.707031-1.269531 9.828125l23.664062 34.472656c2.394532 3.488282 1.851563 8.207032-1.277344 11.058594l-92.539062 79.984375c-3.019531 2.609375-7.335938-1.097656-5.210938-4.476563l47.242188-75.09375c1.101562-2.90625.523438-6.183593-1.507812-8.539062l-31.484376-36.484375 27.75-30.746094c2.21875-2.460937.21875-6.363281-3.078124-5.996093l-327.726563 36.578124c-5.488281.613282-9.640625 5.253907-9.640625 10.777344v146.21875c0 5.992188 4.855469 10.847656 10.84375 10.847656h490.308594c5.992187 0 10.847656-4.859374 10.847656-10.847656v-192.539062c0-2.84375-2.472656-5.054688-5.296875-4.738282zm0 0" fill="#e88c38"/><path d="m506.703125 277.726562-60.382813-3.292968v200.570312c0 5.992188-4.855468 10.847656-10.84375 10.847656h65.679688c5.988281 0 10.84375-4.859374 10.84375-10.847656v-192.539062c0-2.84375-2.472656-5.054688-5.296875-4.738282zm0 0" fill="#cc7a2f"/><path d="m337.367188 281.429688-327.726563 36.578124c-5.488281.613282-9.640625 5.253907-9.640625 10.777344v24.285156l139.601562-15.582031 173.09375-19.320312 27.75-30.742188c2.21875-2.464843.21875-6.363281-3.078124-5.996093zm0 0" fill="#cebb84"/><path d="m506.703125 277.726562-91.46875-4.988281-40.15625 34.683594c-1.265625 1.09375-2.074219 2.523437-2.40625 4.054687l139.328125-.355468v-28.65625c0-2.84375-2.472656-5.054688-5.296875-4.738282zm0 0" fill="#cebb84"/><path d="m506.703125 277.726562-60.382813-3.292968v36.855468l65.679688-.167968v-28.65625c0-2.84375-2.472656-5.054688-5.296875-4.738282zm0 0" fill="#b7a169"/><path d="m467.214844 134.570312-77.648438 75.136719c-1.894531 1.835938-1.078125 5.035157 1.46875 5.730469l106.15625 29.089844c2.542969.695312 4.878906-1.640625 4.183594-4.183594l-28.507812-104.222656c-.679688-2.5-3.789063-3.351563-5.652344-1.550782zm0 0" fill="#8fd143"/><path d="m474.851562 106.695312-62.066406 60.058594c-1.894531 1.835938-1.074218 5.035156 1.46875 5.730469l84.851563 23.25c2.546875.699219 4.882812-1.636719 4.1875-4.183594l-22.785157-83.304687c-.683593-2.5-3.792968-3.351563-5.65625-1.550782zm0 0" fill="#7bb72e"/><path d="m482.058594 80.398438-46.042969 44.550781c-1.894531 1.835937-1.074219 5.035156 1.46875 5.734375l62.945313 17.246094c2.542968.695312 4.882812-1.640626 4.183593-4.183594l-16.902343-61.800782c-.683594-2.496093-3.789063-3.347656-5.652344-1.546874zm0 0" fill="#8fd143"/></svg>