<svg height="511pt" viewBox="0 -38 511.99996 511" width="511pt" xmlns="http://www.w3.org/2000/svg"><path d="m368.90625 24.347656c-10.671875-13.039062-26.449219-20.847656-43.238281-22.257812-68.347657-5.734375-140.921875 3.042968-198.609375 42.820312-136.140625 91.898438-126.925782 294.386719-126.925782 294.386719v25.882813l270.609376-1.625-.367188-24.257813s-52.917969-109.144531-31.769531-208.410156c7.953125-.855469 15.097656-4.917969 20.476562-11.0625 5.800781 4.542969 12.792969 7.199219 20.316407 7.199219 9.722656 0 18.550781-4.441407 25.074218-11.65625 7.679688 7.28125 17.484375 11.65625 28.175782 11.65625 24.609374 0 46.59375-23.914063 49.167968-52.371094 1.921875-21.238282-2.261718-37.304688-12.910156-50.304688zm0 0" fill="#69e6ed"/><path d="m368.90625 24.347656c-10.671875-13.039062-26.449219-20.847656-43.238281-22.257812-68.347657-5.734375-140.921875 3.042968-198.609375 42.820312-136.140625 91.898438-126.925782 294.386719-126.925782 294.386719v25.882813l270.609376-1.625-.367188-24.257813s-52.917969-109.144531-31.769531-208.410156c7.953125-.855469 15.097656-4.917969 20.476562-11.0625 5.800781 4.542969 12.792969 7.199219 20.316407 7.199219 9.722656 0 18.550781-4.441407 25.074218-11.65625 7.679688 7.28125 17.484375 11.65625 28.175782 11.65625 24.609374 0 46.59375-23.914063 49.167968-52.371094 1.921875-21.238282-2.261718-37.304688-12.910156-50.304688zm0 0" fill="#33d8dd"/><path d="m368.90625 24.347656c-10.671875-13.039062-26.449219-20.847656-43.238281-22.257812-68.347657-5.734375-140.921875 3.042968-198.609375 42.820312-6.425782 4.339844-12.53125 8.925782-18.328125 13.726563-.003907.003906-.003907.003906-.003907.003906 4.667969 18.6875 17.8125 42.675781 44.390626 48.507813 2.769531 15.074218 14.296874 26.382812 28.105468 26.382812 4.210938 0 8.207032-1.0625 11.8125-2.949219.683594 1.074219 1.425782 2.101563 2.199219 3.085938-21.804687 90.59375.859375 191.75 16.828125 230.242187h.007812l58.671876-.355468-.367188-24.257813s-47.652344-98.300781-34.429688-193.171875c.707032-5.09375 1.585938-10.179688 2.664063-15.238281 7.949219-.855469 15.09375-4.914063 20.472656-11.0625 5.800781 4.546875 12.792969 7.199219 20.316407 7.199219 9.722656 0 18.550781-4.441407 25.078124-11.65625 7.675782 7.285156 17.480469 11.65625 28.171876 11.65625 24.609374 0 46.59375-23.914063 49.167968-52.371094 1.921875-21.238282-2.261718-37.304688-12.910156-50.304688zm0 0" fill="#27cccc"/><path d="m325.667969 2.089844c-68.347657-5.734375-140.921875 3.042968-198.609375 42.820312.003906 17.371094 6.84375 39.285156 41.421875 46.878906 2.765625 15.074219 14.296875 26.378907 28.105469 26.378907 4.210937 0 8.207031-1.058594 11.808593-2.949219 4.9375 12.289062 21.9375 16.207031 30.210938 15.667969 7.953125-.855469 15.097656-4.914063 20.476562-11.0625 5.800781 4.546875 12.792969 7.199219 20.316407 7.199219 9.722656 0 18.550781-4.441407 25.074218-11.65625 7.679688 7.285156 17.484375 11.65625 28.171875 11.65625h.003907c24.609374 0 46.59375-23.914063 49.167968-52.371094 1.921875-21.238282-2.261718-37.304688-12.90625-50.304688-10.675781-13.039062-26.453125-20.847656-43.242187-22.257812zm0 0" fill="#69e6ed"/><path d="m247.148438 339.296875c-20.585938 0-20.585938 8.191406-41.171876 8.191406-20.589843 0-20.589843-8.191406-41.175781-8.191406-20.582031 0-20.582031 8.191406-41.167969 8.191406-20.582031 0-20.582031-8.191406-41.167968-8.191406-20.582032 0-20.582032 8.191406-41.167969 8.191406-20.582031 0-20.582031-8.191406-41.164063-8.191406v86.019531c0 5.910156 4.792969 10.699219 10.703126 10.699219h486.761718c5.910156 0 10.703125-4.789063 10.703125-10.699219v-75.316406c0-5.910156-4.792969-10.703125-10.703125-10.703125zm0 0" fill="#69e6ed"/><path d="m497.597656 384.050781h-250.449218c-20.585938 0-20.585938 8.191407-41.171876 8.191407-20.589843 0-20.589843-8.191407-41.175781-8.191407-20.582031 0-20.582031 8.191407-41.167969 8.191407-20.582031 0-20.582031-8.191407-41.167968-8.191407-20.582032 0-20.582032 8.191407-41.167969 8.191407-20.582031 0-20.582031-8.191407-41.164063-8.191407v41.261719c0 5.910156 4.789063 10.703125 10.699219 10.703125h486.765625c5.910156 0 10.703125-4.792969 10.703125-10.703125v-30.558594c0-5.910156-4.792969-10.703125-10.703125-10.703125zm0 0" fill="#33d8dd"/><path d="m478.828125 365.183594h-170.570313v-149.085938l85.285157-53.992187 85.285156 53.992187zm0 0" fill="#efefef"/><path d="m393.542969 162.105469-33.761719 21.375 48.457031 30.671875c3.910157 2.476562 6.28125 6.777344 6.28125 11.40625v139.625h64.308594v-149.085938zm0 0" fill="#d8d8d8"/><path d="m388.628906 186.628906-85.507812 54.128906c-12.160156 7.699219-28.035156-1.039062-28.035156-15.433593 0-6.257813 3.207031-12.085938 8.496093-15.433594l105.046875-66.496094c3-1.902343 6.828125-1.902343 9.828125 0l105.046875 66.496094c5.289063 3.351563 8.496094 9.175781 8.496094 15.433594 0 14.394531-15.875 23.132812-28.035156 15.433593l-85.507813-54.128906c-3-1.898437-6.828125-1.898437-9.828125 0zm0 0" fill="#fc4e51"/><path d="m416.574219 263.644531h-46.0625c-2.917969 0-5.285157 2.367188-5.285157 5.285157v96.253906h56.632813v-96.253906c0-2.917969-2.367187-5.285157-5.285156-5.285157zm0 0" fill="#912c2c"/><path d="m498.636719 337.351562c-204.390625-19.589843-267.351563 58.910157-283.492188 88.113282-2.621093 4.742187.785157 10.550781 6.203125 10.550781h276.25c5.910156 0 10.703125-4.792969 10.703125-10.703125v-77.308594c0-5.503906-4.183593-10.128906-9.664062-10.652344zm0 0" fill="#cebb84"/><path d="m498.636719 337.351562c-19.472657-1.867187-37.660157-2.84375-54.648438-3.054687v91.019531c0 5.910156-4.792969 10.699219-10.703125 10.699219h64.3125c5.910156 0 10.703125-4.789063 10.703125-10.699219v-77.308594c0-5.507812-4.183593-10.132812-9.664062-10.65625zm0 0" fill="#b7a169"/></svg>