<svg height="511pt" viewBox="0 -31 511.99932 511" width="511pt" xmlns="http://www.w3.org/2000/svg"><path d="m108.667969 24.664062h45.675781v82.800782h-45.675781zm0 0" fill="#e5394b"/><path d="m164.375 35.1875h-65.738281c-6.371094 0-11.539063-5.167969-11.539063-11.539062v-11.613282c0-6.371094 5.167969-11.535156 11.539063-11.535156h65.738281c6.371094 0 11.539062 5.164062 11.539062 11.535156v11.613282c0 6.371093-5.167968 11.539062-11.539062 11.539062zm0 0" fill="#e7eced"/><path d="m107.089844 340.722656c-2.753906-3.507812-6.523438-6.078125-11.648438-6.992187-15.8125-2.820313-37.734375 6.746093-37.734375 33.453125 0 1.585937.1875 3.140625.53125 4.640625-24.402343 9.535156-29.527343 26.65625-29.527343 48.042969 0 3.800781.527343 7.5 1.503906 11.070312h76.875zm0 0" fill="#d8d8d8"/><path d="m415.488281 417.191406h-320.046875v-279.816406l160.027344-101.300781 160.019531 101.300781zm0 0" fill="#fc4e51"/><path d="m255.46875 36.074219-32.503906 20.574219 30 19v18.660156c0 19.398437 15.535156 35.726562 34.625 36.402344.433594.015624.871094.023437 1.304687.023437h.089844v50.066406c0 19.8125 16.121094 35.929688 35.933594 35.929688 10.160156 0 19.34375-4.246094 25.882812-11.046875v211.507812h64.691407v-279.816406zm0 0" fill="#e5394b"/><path d="m246.25 417.191406h-106.261719v-175.550781c0-5.476563 4.441407-9.914063 9.914063-9.914063h86.429687c5.476563 0 9.914063 4.4375 9.914063 9.914063v175.550781zm0 0" fill="#912c2c"/><path d="m366.976562 318.644531h-74.050781c-5.207031 0-9.429687-4.222656-9.429687-9.429687v-68.0625c0-5.207032 4.222656-9.425782 9.429687-9.425782h74.050781c5.207032 0 9.429688 4.21875 9.429688 9.425782v68.0625c-.003906 5.207031-4.222656 9.429687-9.429688 9.429687zm0 0" fill="#69e6ed"/><path d="m214.765625 330.480469c-4.265625 0-7.726563-3.460938-7.726563-7.726563v-24.535156c0-4.265625 3.460938-7.726562 7.726563-7.726562s7.726563 3.460937 7.726563 7.726562v24.535156c0 4.265625-3.460938 7.726563-7.726563 7.726563zm0 0" fill="#d8d8d8"/><path d="m324.914062 201.28125c-11.289062 0-20.476562-9.1875-20.476562-20.480469v-72.226562c0-.183594-.210938-.199219-.214844-.199219-3.910156 4.398438-9.488281 6.910156-15.328125 6.910156-.246093 0-.492187-.003906-.742187-.015625-10.695313-.375-19.734375-9.976562-19.734375-20.957031v-27.167969l-10.839844-6.863281c-.632813-.398438-1.363281-.609375-2.109375-.609375-.75 0-1.480469.210937-2.113281.609375l-107.386719 67.980469c-7.472656 4.730469-11.929688 12.835937-11.929688 21.679687v24.882813c0 11.292969-9.1875 20.476562-20.480468 20.476562-11.289063 0-20.476563-9.183593-20.476563-20.476562v-8.570313c0-1.535156-1.292969-2.488281-2.496093-2.488281-.460938 0-.90625.132813-1.316407.390625l-19.65625 12.445312c-3.390625 2.144532-7.25 3.277344-11.164062 3.277344-11.578125 0-21-9.414062-21-20.984375 0-7.222656 3.644531-13.839843 9.746093-17.703125l203.632813-128.910156c1.390625-.878906 2.992187-1.34375 4.636719-1.34375 1.644531 0 3.25.464844 4.640625 1.34375l203.632812 128.910156c6.101563 3.863282 9.746094 10.480469 9.746094 17.703125 0 5.792969-2.28125 11.160157-6.417969 15.109375-3.910156 3.734375-9.226562 5.875-14.582031 5.875-3.914063 0-7.773437-1.132812-11.164063-3.277344l-23.59375-14.9375c-1.125 10.234376-9.824218 18.214844-20.351562 18.214844-.328125 0-.65625-.007812-.984375-.023437-10.929687-.511719-19.492187-9.722657-19.492187-20.964844v-.238281c0-8.6875-7.066407-15.753906-15.753907-15.753906-.253906 0-.507812.007812-.765625.019531-8.402344.394531-14.988281 7.53125-14.988281 16.242187v21.644532c0 11.289062-9.183594 20.476562-20.476563 20.476562zm0 0" fill="#efefef"/><path d="m493.121094 412.445312c-5.15625.042969-9.683594-3.617187-10.789063-8.652343-3.816406-17.351563-18.570312-32.78125-36.191406-32.78125-8.214844 0-15.804687 2.671875-21.957031 7.1875-8.394532-18.097657-26.714844-30.65625-47.976563-30.65625-22.449219 0-41.617187 14-49.285156 33.738281-.378906-.152344-1.226563-.148438-2.421875.003906h-238.132812c-8.605469 0-15.578126 6.972656-15.578126 15.578125s-6.976562 15.582031-15.582031 15.582031h-36.03125c-10.15625 0-18.800781 7.894532-19.1640622 18.042969-.3789068 10.652344 8.1445312 19.410157 18.7148432 19.410157h474.0625c10.34375 0 19.097657-8.179688 19.210938-18.519532.113281-10.488281-8.398438-19.015625-18.878906-18.933594zm0 0" fill="#efefef"/><path d="m493.121094 412.445312c-5.15625.042969-9.683594-3.617187-10.789063-8.652343-3.816406-17.351563-18.570312-32.78125-36.191406-32.78125-8.214844 0-15.804687 2.671875-21.957031 7.1875-8.394532-18.09375-26.714844-30.652344-47.976563-30.652344-12.191406 0-23.40625 4.132813-32.347656 11.066406.371094.289063.742187.570313 1.105469.867188 9.847656 8.0625 22.234375 12.082031 34.953125 11.5625.507812-.019531 1.019531-.03125 1.53125-.03125 17.65625 0 32.4375 15.496093 36.214843 32.890625 1.089844 5.03125 5.65625 8.578125 10.800782 8.542968 10.464844-.0625 18.957031 8.457032 18.84375 18.9375v18.515626h45.480468c10.34375 0 19.097657-8.175782 19.210938-18.515626.113281-10.492187-8.398438-19.019531-18.878906-18.9375zm0 0" fill="#d8d8d8"/></svg>