<svg height="511pt" viewBox="0 -22 511.99932 511" width="511pt" xmlns="http://www.w3.org/2000/svg"><path d="m107.730469 404.804688c-3.300781 0-6.355469-2.132813-7.378907-5.449219l-19.199218-62.191407c-1.257813-4.078124 1.027344-8.402343 5.105468-9.660156 4.070313-1.257812 8.402344 1.023438 9.660157 5.101563l19.195312 62.191406c1.261719 4.078125-1.023437 8.402344-5.101562 9.660156-.757813.234375-1.527344.347657-2.28125.347657zm0 0" fill="#a05e44"/><path d="m60.566406 253.890625-24.355468 101.71875c-.597657 2.480469 1.738281 4.667969 4.175781 3.917969l101.808593-31.425782c2.4375-.753906 3.132813-3.875 1.242188-5.589843l-77.449219-70.292969c-1.855469-1.683594-4.835937-.765625-5.421875 1.671875zm0 0" fill="#8fd143"/><path d="m52.316406 227.160156-19.46875 81.304688c-.59375 2.480468 1.738282 4.671875 4.175782 3.917968l81.375-25.117187c2.441406-.753906 3.136718-3.875 1.246093-5.59375l-61.90625-56.183594c-1.855469-1.683593-4.839843-.765625-5.421875 1.671875zm0 0" fill="#7bb72e"/><path d="m44.53125 201.941406-14.441406 60.3125c-.597656 2.480469 1.738281 4.667969 4.175781 3.917969l60.367187-18.632813c2.441407-.753906 3.132813-3.875 1.242188-5.59375l-45.921875-41.679687c-1.855469-1.683594-4.839844-.761719-5.421875 1.675781zm0 0" fill="#8fd143"/><path d="m423.148438 426.164062-263.347657-35.753906 40.300781-296.855468 147.570313-67.574219 124.210937 104.472656-39.15625 288.421875c-.632812 4.65625-4.917968 7.917969-9.578124 7.289062zm0 0" fill="#efefef"/><path d="m347.671875 25.976562-41.726563 19.109376 101.5 85.367187-39.136718 288.261719 54.839844 7.445312c4.65625.632813 8.945312-2.628906 9.578124-7.285156l39.15625-288.421875zm0 0" fill="#d8d8d8"/><path d="m341.285156 47.542969-155.675781 71.285156c-14.183594 6.496094-29.957031-5.203125-27.855469-20.660156.910156-6.722657 5.203125-12.507813 11.375-15.335938l178.457032-81.71875c2.371093-1.0859372 5.152343-.707031 7.148437.96875l150.210937 126.34375c5.191407 4.367188 7.785157 11.089844 6.875 17.8125-2.101562 15.457031-20.421874 22.527344-32.359374 12.484375l-131.03125-110.210937c-1.992188-1.675781-4.777344-2.054688-7.144532-.96875zm0 0" fill="#fc4e51"/><g fill="#69e6ed"><path d="m398.398438 335.824219-59.542969-8.082031c-5.621094-.765626-9.546875-5.957032-8.746094-11.574219l4.945313-34.734375c.792968-5.5625 5.925781-9.445313 11.496093-8.6875l59.542969 8.082031c5.621094.761719 9.542969 5.957031 8.746094 11.570313l-4.945313 34.738281c-.792969 5.5625-5.929687 9.445312-11.496093 8.6875zm0 0"/><path d="m413.125 230.226562-59.726562-8.109374c-5.546876-.753907-9.429688-5.855469-8.675782-11.402344l6.207032-45.722656c.753906-5.542969 5.855468-9.425782 11.402343-8.671876l59.726563 8.109376c5.542968.75 9.425781 5.855468 8.675781 11.398437l-6.210937 45.722656c-.75 5.546875-5.855469 9.429688-11.398438 8.675781zm0 0"/><path d="m289.859375 213.492188-59.726563-8.109376c-5.542968-.753906-9.429687-5.855468-8.675781-11.402343l6.207031-45.722657c.753907-5.542968 5.859376-9.425781 11.402344-8.675781l59.726563 8.109375c5.542969.753906 9.429687 5.859375 8.675781 11.402344l-6.207031 45.722656c-.753907 5.542969-5.859375 9.429688-11.402344 8.675782zm0 0"/></g><path d="m273.960938 405.90625-79.804688-10.832031 18.035156-132.835938c.570313-4.195312 4.429688-7.132812 8.625-6.5625l64.613282 8.769531c4.191406.570313 7.132812 4.433594 6.5625 8.628907zm0 0" fill="#912c2c"/><path d="m253.550781 349.121094c-.347656 0-.695312-.023438-1.046875-.074219-4.230468-.570313-7.191406-4.464844-6.617187-8.695313l2.859375-21.070312c.574218-4.230469 4.480468-7.191406 8.695312-6.617188 4.226563.574219 7.191406 4.464844 6.617188 8.695313l-2.863282 21.074219c-.523437 3.875-3.839843 6.6875-7.644531 6.6875zm0 0" fill="#d8d8d8"/><path d="m497.613281 468.171875-492.410156.019531c-2.871094 0-5.19921875-2.328125-5.19921875-5.203125l-.00390625-80.582031c0-3.207031 2.871094-5.648438 6.035156-5.132812 19.277344 3.140624 80.96875 12.527343 129.445313 12.527343 72.390625-.003906 204.515625-19.492187 267.792969-19.496093 35.988281 0 80.496093 4.058593 94.847656 5.464843 2.664062.261719 4.691406 2.5 4.691406 5.179688l.003906 82.023437c0 2.871094-2.328125 5.199219-5.203125 5.199219zm0 0" fill="#69e6ed"/><path d="m498.121094 375.769531c-9.90625-.972656-34.183594-3.207031-60.105469-4.496093l.003906 96.898437h59.59375c2.875 0 5.203125-2.328125 5.203125-5.203125l-.003906-82.023438c0-2.675781-2.027344-4.914062-4.691406-5.175781zm0 0" fill="#33d8dd"/><path d="m498.121094 375.769531c-14.351563-1.40625-58.859375-5.464843-94.847656-5.464843-63.277344.003906-195.402344 19.492187-267.792969 19.496093-48.476563 0-110.167969-9.390625-129.445313-12.53125-3.164062-.515625-6.035156 1.929688-6.035156 5.136719v25.679688s77.265625 13.539062 135.480469 13.535156c72.390625 0 204.515625-19.492188 267.792969-19.492188 43.539062-.003906 99.539062 5.9375 99.539062 5.9375v-27.121094c0-2.675781-2.027344-4.914062-4.691406-5.175781zm0 0" fill="#cebb84"/><path d="m498.121094 375.769531c-9.90625-.972656-34.183594-3.207031-60.105469-4.496093v31.824218c33.800781 1.679688 64.796875 4.96875 64.796875 4.96875v-27.121094c0-2.675781-2.027344-4.914062-4.691406-5.175781zm0 0" fill="#b7a169"/></svg>