<svg height="512pt" viewBox="0 -17 512.00007 512" width="512pt" xmlns="http://www.w3.org/2000/svg"><path d="m511.65625 354.507812c-.007812-2.789062-2.390625-4.984374-5.171875-4.777343-20.5625 1.535156-22.273437 12.179687-46.015625 12.179687-25.585938 0-25.585938-12.363281-51.167969-12.363281s-25.582031 12.363281-51.164062 12.363281-25.582031-12.363281-51.164063-12.363281c-25.578125 0-25.578125 12.363281-51.160156 12.363281s-25.582031-12.363281-51.160156-12.363281c-25.582032 0-25.582032 12.363281-51.164063 12.363281s-25.582031-12.363281-51.164062-12.363281-25.582031 12.363281-51.164063 12.363281c-23.726562 0-25.445312-10.636718-45.988281-12.175781-2.789063-.210937-5.171875 1.996094-5.171875 4.789063v111.78125c0 6.21875 5.039062 11.257812 11.257812 11.257812h489.484376c6.234374 0 11.277343-5.0625 11.257812-11.296875zm0 0" fill="#33d8dd"/><path d="m197.554688 224.910156h279.097656v186.664063h-279.097656zm0 0" fill="#efefef"/><path d="m411.957031 224.910156h64.695313v186.664063h-64.695313zm0 0" fill="#d8d8d8"/><path d="m497.902344 234.144531h-208.378906v-56.289062h182.707031c2.488281 0 4.792969 1.292969 6.089843 3.417969l25.671876 42.015624c2.90625 4.753907-.515626 10.855469-6.089844 10.855469zm0 0" fill="#fc4e51"/><path d="m297.964844 411.574219h-266.363282v-304.84375l133.179688-88.34375 133.183594 88.34375zm0 0" fill="#efefef"/><path d="m164.78125 18.386719-32.34375 21.457031 92.3125 61.230469c5.320312 3.53125 8.519531 9.492187 8.519531 15.878906v294.621094h64.695313v-304.84375zm0 0" fill="#d8d8d8"/><path d="m161.207031 1.078125-154.007812 102.15625c-4.246094 2.816406-6.800781 7.574219-6.800781 12.671875 0 12.132812 13.503906 19.378906 23.613281 12.675781l137.195312-91.003906c2.164063-1.4375 4.984375-1.4375 7.148438 0l137.195312 91.003906c10.109375 6.703125 23.617188-.542969 23.617188-12.675781 0-5.097656-2.554688-9.855469-6.804688-12.671875l-154.003906-102.15625c-2.167969-1.4375-4.984375-1.4375-7.152344 0zm0 0" fill="#fc4e51"/><path d="m257.289062 325.113281h-61.257812c-5.714844 0-10.347656-4.632812-10.347656-10.347656v-47.230469c0-5.714844 4.632812-10.347656 10.347656-10.347656h61.257812c5.714844 0 10.347657 4.632812 10.347657 10.347656v47.230469c0 5.714844-4.632813 10.347656-10.347657 10.347656zm0 0" fill="#69e6ed"/><path d="m150.324219 411.574219h-81.949219v-146.585938c0-4.304687 3.492188-7.796875 7.800781-7.796875h66.347657c4.308593 0 7.800781 3.492188 7.800781 7.796875zm0 0" fill="#912c2c"/><path d="m445.433594 411.574219h-111.488282v-131.027344c0-4.175781 3.382813-7.558594 7.558594-7.558594h96.375c4.171875 0 7.554688 3.382813 7.554688 7.558594zm0 0" fill="#0d6e9a"/><path d="m437.878906 272.988281h-96.375c-4.175781 0-7.558594 3.382813-7.558594 7.558594v23.257813h111.488282v-23.257813c0-4.175781-3.382813-7.558594-7.554688-7.558594zm0 0" fill="#09627a"/><path d="m205.019531 146.847656c0 22.222656-18.015625 40.238282-40.238281 40.238282s-40.234375-18.015626-40.234375-40.238282 18.011719-40.238281 40.234375-40.238281 40.238281 18.015625 40.238281 40.238281zm0 0" fill="#69e6ed"/><path d="m11.257812 477.5625h489.484376c6.234374 0 11.277343-5.0625 11.257812-11.296875l-.234375-76.1875-.125-.011719c-25.585937 0-25.585937 12.363282-51.171875 12.363282-25.582031 0-25.582031-12.363282-51.167969-12.363282-25.582031 0-25.582031 12.363282-51.164062 12.363282s-25.582031-12.363282-51.164063-12.363282c-25.578125 0-25.578125 12.363282-51.160156 12.363282s-25.582031-12.363282-51.160156-12.363282c-25.582032 0-25.582032 12.363282-51.164063 12.363282s-25.582031-12.363282-51.164062-12.363282-25.582031 12.363282-51.164063 12.363282c-25.578125 0-25.578125-12.363282-51.160156-12.363282v76.238282c0 6.21875 5.039062 11.257812 11.257812 11.257812zm0 0" fill="#69e6ed"/><g fill="#33d8dd"><path d="m11.257812 477.5625h489.484376c6.234374 0 11.277343-5.0625 11.257812-11.296875l-.109375-35.746094-.25.011719c-25.585937 0-25.585937 12.363281-51.171875 12.363281-25.582031 0-25.582031-12.363281-51.167969-12.363281-25.582031 0-25.582031 12.363281-51.164062 12.363281s-25.582031-12.363281-51.164063-12.363281c-25.578125 0-25.578125 12.363281-51.160156 12.363281s-25.582031-12.363281-51.160156-12.363281c-25.582032 0-25.582032 12.363281-51.164063 12.363281s-25.582031-12.363281-51.164062-12.363281-25.582031 12.363281-51.164063 12.363281c-25.578125 0-25.578125-12.363281-51.160156-12.363281v35.773438c0 6.21875 5.039062 11.257812 11.257812 11.257812zm0 0"/><path d="m172.507812 107.359375c-2.5-.488281-5.082031-.75-7.726562-.75-2.640625 0-5.222656.261719-7.726562.75v30.464844h-31.480469c-.667969 2.902343-1.03125 5.917969-1.03125 9.023437 0 2.1875.183593 4.335938.519531 6.429688h31.992188v33.058594c2.503906.488281 5.085937.75 7.726562.75 2.644531 0 5.226562-.261719 7.726562-.75v-33.058594h31.996094c.335938-2.09375.515625-4.242188.515625-6.429688 0-3.105468-.363281-6.121094-1.027343-9.023437h-31.484376zm0 0"/></g></svg>