<svg height="512pt" viewBox="0 -84 512 512" width="512pt" xmlns="http://www.w3.org/2000/svg"><path d="m301.050781 168.121094h70.273438v63.191406h-70.273438zm0 0" fill="#d8d8d8"/><path d="m28.09375 22.203125h45.105469v50.773437h-45.105469zm0 0" fill="#d8d8d8"/><path d="m449.292969 104.390625h-48.023438v-46.074219c0-13.261718 10.75-24.011718 24.011719-24.011718s24.011719 10.75 24.011719 24.011718zm0 0" fill="#fccf3f"/><path d="m0 72.71875v220.191406c0 7.503906 6.082031 13.585938 13.585938 13.585938h301.378906v-233.777344c0-6.691406-5.421875-12.113281-12.113282-12.113281h-290.738281c-6.691406 0-12.113281 5.425781-12.113281 12.113281zm0 0" fill="#fc4e51"/><path d="m498.414062 306.496094h-484.828124c-7.503907 0-13.585938-6.082032-13.585938-13.585938v-61.597656h512v61.597656c0 7.503906-6.082031 13.585938-13.585938 13.585938zm0 0" fill="#fd8f31"/><path d="m498.414062 306.496094h-145.300781v-215.703125c0-6.289063 5.097657-11.386719 11.386719-11.386719h101.46875c10.320312 0 19.628906 6.207031 23.59375 15.738281l20.480469 49.261719c1.292969 3.109375 1.957031 6.441406 1.957031 9.808594v138.695312c0 7.503906-6.082031 13.585938-13.585938 13.585938zm0 0" fill="#fc4e51"/><path d="m510.042969 144.40625-20.480469-49.261719c-3.964844-9.53125-13.273438-15.738281-23.59375-15.738281h-64.742188c10.324219 0 19.628907 6.207031 23.59375 15.738281l20.480469 49.261719c1.292969 3.109375 1.957031 6.441406 1.957031 9.808594v152.28125h51.15625c7.503907 0 13.585938-6.082032 13.585938-13.585938v-138.695312c0-3.367188-.664062-6.699219-1.957031-9.808594zm0 0" fill="#e5394b"/><path d="m390.226562 170.160156v-45.800781c0-4.328125 3.511719-7.839844 7.839844-7.839844h54.953125c3.167969 0 6.023438 1.90625 7.242188 4.832031l14.019531 33.726563c.398438.953125.601562 1.976563.601562 3.011719v12.070312c0 4.328125-3.511718 7.839844-7.839843 7.839844h-68.976563c-4.328125 0-7.839844-3.507812-7.839844-7.839844zm0 0" fill="#69e6ed"/><path d="m194.160156 173.160156c0-4.269531-3.457031-7.726562-7.722656-7.726562h-31.835938v-38.949219h31.835938c4.265625 0 7.722656-3.460937 7.722656-7.726563 0-4.265624-3.457031-7.726562-7.722656-7.726562h-186.4375v15.453125h28.867188v38.949219h-28.867188v15.453125h186.4375c4.265625 0 7.722656-3.460938 7.722656-7.726563zm-128.53125-7.726562h-21.308594v-38.949219h21.308594zm36.757813 0h-21.304688v-38.949219h21.304688zm36.761719 0h-21.308594v-38.949219h21.308594zm0 0" fill="#d8d8d8"/><path d="m221.695312 60.605469h62.339844v170.703125h-62.339844zm0 0" fill="#e7eced"/><path d="m382.667969 24h-45.535157c-4.269531 0-7.726562-3.457031-7.726562-7.726562 0-4.265626 3.457031-7.722657 7.726562-7.722657h45.535157c4.265625 0 7.726562 3.457031 7.726562 7.722657 0 4.265624-3.460937 7.726562-7.726562 7.726562zm0 0" fill="#d8d8d8"/><path d="m345.6875 32.546875h-341.355469c-2.390625 0-4.332031-1.9375-4.332031-4.332031v-23.882813c0-2.390625 1.941406-4.332031 4.332031-4.332031h341.355469c2.390625 0 4.332031 1.941406 4.332031 4.332031v23.882813c0 2.394531-1.941406 4.332031-4.332031 4.332031zm0 0" fill="#fd8f31"/><path d="m512 215.820312h-28.503906c-4.753906 0-8.609375 3.855469-8.609375 8.613282v4.523437c0 14.667969 11.886719 26.558594 26.554687 26.558594h10.558594zm0 0" fill="#fccf3f"/><path d="m411.191406 218.90625h-20.964844c-4.265624 0-7.722656-3.457031-7.722656-7.722656 0-4.269532 3.457032-7.726563 7.722656-7.726563h20.964844c4.265625 0 7.726563 3.457031 7.726563 7.726563 0 4.265625-3.460938 7.722656-7.726563 7.722656zm0 0" fill="#d8d8d8"/><path d="m81.289062 344.816406c-22.039062 0-39.972656-17.929687-39.972656-39.96875 0-22.039062 17.929688-39.96875 39.972656-39.96875 22.039063 0 39.96875 17.929688 39.96875 39.96875 0 22.039063-17.929687 39.96875-39.96875 39.96875zm0 0" fill="#09627a"/><path d="m415.507812 344.816406c-22.039062 0-39.96875-17.929687-39.96875-39.96875 0-22.039062 17.929688-39.96875 39.96875-39.96875 22.039063 0 39.96875 17.929688 39.96875 39.96875 0 22.039063-17.929687 39.96875-39.96875 39.96875zm0 0" fill="#09627a"/><g fill="#d8d8d8"><path d="m429.445312 304.847656c0 7.699219-6.238281 13.9375-13.9375 13.9375-7.695312 0-13.9375-6.238281-13.9375-13.9375 0-7.695312 6.242188-13.9375 13.9375-13.9375 7.699219 0 13.9375 6.242188 13.9375 13.9375zm0 0"/><path d="m95.226562 304.847656c0 7.699219-6.242187 13.9375-13.9375 13.9375-7.699218 0-13.9375-6.238281-13.9375-13.9375 0-7.695312 6.238282-13.9375 13.9375-13.9375 7.695313 0 13.9375 6.242188 13.9375 13.9375zm0 0"/></g></svg>