<svg height="512pt" viewBox="-13 0 512 512.00088" width="512pt" xmlns="http://www.w3.org/2000/svg"><path d="m192.992188 512-23.484376-.019531c-6.230468-.003907-11.277343-5.058594-11.273437-11.289063l.121094-163.144531 46.050781.035156-.121094 163.144531c-.003906 6.230469-5.058594 11.277344-11.292968 11.273438zm0 0" fill="#967b46"/><path d="m175.832031 143.460938-174.65625 260.0625c-3.058593 4.550781.203125 10.675781 5.6875 10.679687l348.921875.261719c5.484375.003906 8.753906-6.113282 5.703125-10.671875l-174.265625-260.320313c-2.714844-4.054687-8.671875-4.058594-11.390625-.011718zm0 0" fill="#8fd143"/><path d="m361.488281 403.792969-174.265625-260.320313c-2.714844-4.054687-8.671875-4.058594-11.390625-.011718l-29.6875 44.207031 151.792969 226.753906 57.847656.042969c5.484375.003906 8.753906-6.113282 5.703125-10.671875zm0 0" fill="#7bb72e"/><path d="m175.890625 67.285156-137.304687 204.441406c-3.058594 4.550782.203124 10.675782 5.6875 10.679688l274.296874.207031c5.484376.003907 8.753907-6.117187 5.703126-10.671875l-136.992188-204.648437c-2.714844-4.054688-8.671875-4.058594-11.390625-.007813zm0 0" fill="#7bb72e"/><path d="m324.277344 271.941406-136.996094-204.648437c-2.714844-4.054688-8.671875-4.058594-11.390625-.007813l-27.773437 41.347656 116.441406 173.9375 54.011718.042969c5.488282.003907 8.757813-6.117187 5.707032-10.671875zm0 0" fill="#71a824"/><path d="m175.9375 3.035156-97.769531 145.574219c-3.054688 4.550781.203125 10.675781 5.6875 10.679687l195.316406.144532c5.484375.003906 8.753906-6.113282 5.703125-10.671875l-97.546875-145.71875c-2.714844-4.054688-8.671875-4.058594-11.390625-.007813zm0 0" fill="#8fd143"/><path d="m284.878906 148.765625-97.550781-145.722656c-2.710937-4.054688-8.671875-4.058594-11.390625-.007813l-29.207031 43.488282 75.558593 112.871093 56.882813.042969c5.488281.003906 8.757813-6.117188 5.707031-10.671875zm0 0" fill="#7bb72e"/><path d="m357.175781 508.664062c10.777344 4.339844 22.789063 4.445313 33.644531.316407 29.109376-11.074219 86.417969-38.957031 93.941407-88.878907 5.015625-33.296874-14.941407-61.289062-24.605469-72.609374-2.023438-2.367188-5.84375-1.515626-6.6875 1.480468-10.773438 38.359375-38.046875 64.371094-42.726562 49.136719-7.492188-24.382813 34.285156-47.535156 8.640624-107.535156-12.0625-28.21875-45.816406-38.414063-60.648437-41.605469-2.949219-.632812-5.476563 2.21875-4.464844 5.058594 3.761719 10.613281 8.800781 33.230468-4.230469 57.585937-24.15625 45.152344-63.328124 50.488281-74.210937 98.507813-12.238281 54.007812 50.683594 86.191406 81.347656 98.542968zm0 0" fill="#fccf3f"/><path d="m460.152344 347.492188c-2.019532-2.367188-5.84375-1.515626-6.683594 1.480468-7.445312 26.5-22.757812 47.101563-33.0625 52.289063.667969 6.019531.652344 12.324219-.332031 18.839843-6.289063 41.738282-47.375 68.066407-77.691407 82.050782 5.378907 2.578125 10.417969 4.746094 14.792969 6.511718 10.777344 4.339844 22.789063 4.449219 33.644531.316407 29.109376-11.074219 86.417969-38.957031 93.941407-88.878907 5.015625-33.296874-14.941407-61.289062-24.609375-72.609374zm0 0" fill="#f2bc25"/><path d="m356.457031 294.929688c48.714844 34.550781 52.492188 60.300781 57.242188 81.609374 7.964843-19.121093 23.972656-43.167968 5.683593-85.964843-12.0625-28.21875-45.816406-38.417969-60.648437-41.605469-2.949219-.636719-5.476563 2.214844-4.464844 5.058594 2.882813 8.128906 6.5 23.304687 2.1875 40.902344zm0 0" fill="#f2bc25"/><path d="m428.582031 490.839844c5.949219-16.023438 8.78125-31.183594 2.953125-39.832032-3.566406-5.285156-19.609375 6.203126-38.128906 8.71875-25.25 3.425782-28.316406-30.613281-28.085938-49.617187.058594-5.175781-5.835937-8.167969-9.984374-5.070313-10.960938 8.191407-27.566407 22.867188-35.667969 41.464844-6.003907 13.789063-3.617188 29.0625 1.492187 44.023438 12.960938 8.136718 26.15625 14.164062 36.015625 18.136718 10.777344 4.339844 22.789063 4.445313 33.644531.316407 10.234376-3.894531 23.949219-9.867188 37.761719-18.140625zm0 0" fill="#fc4e51"/><path d="m431.535156 451.007812c-2.914062-4.316406-14.15625 2.558594-28.269531 6.589844-16.296875 20.785156-40.921875 35.347656-60.878906 44.554688.054687.027344.113281.054687.171875.082031.140625.070313.28125.136719.425781.203125.566406.269531 1.132813.539062 1.691406.796875.246094.117187.492188.226563.738281.34375.449219.207031.898438.410156 1.339844.613281.277344.128906.554688.25.828125.375.410157.1875.820313.371094 1.226563.550782.277344.125.558594.246093.832031.367187.394531.175781.78125.34375 1.167969.511719.273437.121094.550781.238281.820312.355468.394532.171876.785156.335938 1.171875.5.246094.105469.496094.210938.738281.3125.429688.183594.855469.359376 1.277344.535157.191406.078125.382813.160156.574219.234375.605469.25 1.203125.496094 1.785156.730468 10.777344 4.339844 22.789063 4.445313 33.644531.316407 10.230469-3.894531 23.949219-9.863281 37.761719-18.140625 5.949219-16.023438 8.78125-31.183594 2.953125-39.832032zm0 0" fill="#e5394b"/></svg>