<svg height="512pt" viewBox="0 -10 512 512" width="512pt" xmlns="http://www.w3.org/2000/svg"><path d="m75.546875 29.597656h55.941406v101.414063h-55.941406zm0 0" fill="#912c2c"/><path d="m143.777344 42.484375h-80.519532c-7.804687 0-14.128906-6.328125-14.128906-14.128906v-14.226563c0-7.804687 6.324219-14.128906 14.128906-14.128906h80.519532c7.804687 0 14.132812 6.324219 14.132812 14.128906v14.222656c-.003906 7.804688-6.328125 14.132813-14.132812 14.132813zm0 0" fill="#fc4e51"/><path d="m445.960938 465.328125h-379.921876v-310.152344l189.960938-120.253906 189.960938 120.253906zm0 0" fill="#e7eced"/><path d="m256 34.921875-45.863281 29.035156 163.324219 103.390625c4.863281 3.082032 7.808593 8.433594 7.808593 14.191406v283.789063h64.691407v-310.152344zm0 0" fill="#d8d8d8"/><path d="m251.992188 9.050781-241.726563 153.023438c-6.390625 4.046875-10.265625 11.082031-10.265625 18.648437 0 17.390625 19.179688 27.949219 33.875 18.644532l218.117188-138.078126c2.445312-1.550781 5.566406-1.550781 8.015624 0l218.117188 138.078126c14.695312 9.304687 33.875-1.253907 33.875-18.644532 0-7.5625-3.875-14.601562-10.265625-18.648437l-241.726563-153.023438c-2.449218-1.550781-5.566406-1.550781-8.015624 0zm0 0" fill="#fc4e51"/><path d="m245.058594 458.527344h-126.140625v-186.378906c0-6.503907 5.269531-11.773438 11.769531-11.773438h102.597656c6.5 0 11.769532 5.269531 11.769532 11.773438v186.378906zm0 0" fill="#912c2c"/><path d="m389.875 341.539062h-90.914062c-5.351563 0-9.6875-4.335937-9.6875-9.6875v-61.789062c0-5.351562 4.339843-9.6875 9.6875-9.6875h90.914062c5.351562 0 9.6875 4.339844 9.6875 9.6875v61.789062c0 5.351563-4.335938 9.6875-9.6875 9.6875zm0 0" fill="#69e6ed"/><path d="m207.683594 385.191406c-4.269532 0-7.726563-3.457031-7.726563-7.722656v-35.925781c0-4.269531 3.460938-7.726563 7.726563-7.726563 4.269531 0 7.726562 3.457032 7.726562 7.726563v35.925781c0 4.265625-3.457031 7.722656-7.726562 7.722656zm0 0" fill="#d8d8d8"/><path d="m491.390625 491.210938h-470.78125c-11.382813 0-20.609375-9.226563-20.609375-20.609376 0-11.382812 9.226562-20.609374 20.609375-20.609374h470.78125c11.382813 0 20.609375 9.226562 20.609375 20.609374 0 11.382813-9.226562 20.609376-20.609375 20.609376zm0 0" fill="#7bb72e"/><path d="m394.898438 488.171875c9.828124 3.957031 20.785156 4.054687 30.6875.289063 26.554687-10.101563 78.828124-35.535157 85.6875-81.074219 4.578124-30.371094-13.628907-55.902344-22.445313-66.230469-1.84375-2.15625-5.332031-1.382812-6.097656 1.351562-9.828125 34.992188-34.703125 58.714844-38.972657 44.820313-6.832031-22.238281 31.273438-43.359375 7.882813-98.085937-11.003906-25.742188-41.792969-35.042969-55.320313-37.953126-2.691406-.578124-4.996093 2.023438-4.074218 4.613282 3.433594 9.683594 8.027344 30.3125-3.855469 52.527344-22.035156 41.1875-57.488281 36.238281-67.691406 89.851562-9.445313 49.625 46.226562 78.621094 74.199219 89.890625zm0 0" fill="#fccf3f"/><path d="m451.636719 289.242188c-11-25.742188-41.789063-35.042969-55.320313-37.953126-2.6875-.578124-4.992187 2.023438-4.070312 4.613282 3.433594 9.683594 8.027344 30.3125-3.855469 52.527344-.332031.621093-.671875 1.230468-1.007813 1.832031 12.953126 8.101562 26.207032 19.480469 35.085938 35.359375 4.457031 7.972656 15.421875 21.105468 20.582031 38.277344-2.363281-21.070313 30.773438-42.746094 8.585938-94.65625zm0 0" fill="#f2bc25"/><path d="m488.828125 341.15625c-1.84375-2.15625-5.332031-1.382812-6.097656 1.351562-9.492188 33.792969-33.015625 57.070313-38.460938 46.105469 1.570313 7.140625 1.863281 15.125.640625 23.238281-5.175781 34.375-36.230468 57.289063-62.566406 70.804688 4.535156 2.164062 8.796875 4 12.554688 5.515625 9.828124 3.957031 20.785156 4.054687 30.6875.289063 26.550781-10.101563 78.824218-35.535157 85.6875-81.074219 4.578124-30.371094-13.628907-55.902344-22.445313-66.230469zm0 0" fill="#f2bc25"/><path d="m462.722656 435.582031c-3.25-4.824219-.988281 3.359375-17.882812 5.65625-23.035156 3.125-42.722656-25.628906-42.515625-42.964843.054687-4.722657-5.320313-7.449219-9.105469-4.621094-10 7.46875-25.144531 20.855468-32.53125 37.820312-5.652344 12.976563-3.011719 26.320313 1.957031 40.378906 11.5625 7.308594 23.320313 12.71875 32.253907 16.316407 9.828124 3.960937 20.785156 4.058593 30.6875.289062 9.335937-3.550781 21.847656-8.996093 34.445312-16.546875 5.421875-14.613281 8.007812-28.441406 2.691406-36.328125zm0 0" fill="#fc4e51"/><path d="m460.03125 471.914062c5.421875-14.617187 8.007812-28.445312 2.691406-36.335937-3.25-4.820313-.988281 3.363281-17.882812 5.65625-3.832032.523437-7.570313.144531-11.140625-.902344-12.601563 19.074219-33.105469 32.957031-51.351563 42.324219.085938.039062.171875.082031.261719.121094 2.089844.996094 4.121094 1.917968 6.070313 2.773437.136718.058594.277343.121094.414062.183594.929688.402344 1.839844.792969 2.726562 1.167969.152344.0625.300782.125.453126.1875.890624.371094 1.765624.730468 2.609374 1.070312.003907.003906.011719.003906.015626.007813 9.832031 3.960937 20.785156 4.058593 30.6875.289062 9.335937-3.550781 21.84375-8.996093 34.445312-16.542969zm0 0" fill="#e5394b"/></svg>