<svg height="512pt" viewBox="0 -3 512 512" width="512pt" xmlns="http://www.w3.org/2000/svg"><path d="m455.816406 269.902344c30.734375 0 55.953125-24.699219 56.179688-55.433594.003906-.21875.003906-.433594.003906-.652344 0-39.414062-26.621094-72.332031-62.125-80.292968 3.691406-24.136719-5.253906-49.539063-25.332031-65.171876-24.335938-18.953124-57.214844-17.488281-79.804688 1.53125-25.039062-41.953124-69.640625-69.882812-120.503906-69.882812-73.105469 0-133.289063 57.695312-141.011719 131.816406-1.484375-.085937-2.976562-.140625-4.480468-.140625-43.488282 0-78.742188 36.777344-78.742188 82.140625 0 .21875 0 .4375.00390625.652344.22656275 30.734375 25.44140575 55.433594 56.17968775 55.433594zm0 0" fill="#e7eced"/><path d="m224.234375 0c-11.089844 0-21.878906 1.335938-32.234375 3.847656 31.566406 7.660156 59.089844 26.320313 78.65625 51.894532 5.796875 7.574218 15.25 11.53125 24.679688 10.09375 18.730468-2.847657 40.003906.324218 49.402343 4.046874-25.039062-41.953124-69.640625-69.882812-120.503906-69.882812zm0 0" fill="#d8d8d8"/><path d="m449.871094 133.523438c3.691406-24.132813-5.253906-49.539063-25.332032-65.171876-24.332031-18.953124-57.210937-17.488281-79.804687 1.53125 0 0 41.402344 15.285157 43.199219 47.007813.542968 9.597656 5.816406 18.390625 14.4375 22.644531 26.675781 13.152344 45.128906 41.464844 45.128906 74.285156 0 .214844 0 .433594-.003906.648438-.226563 30.738281-25.441406 55.433594-56.179688 55.433594h64.496094c30.738281 0 55.957031-24.695313 56.183594-55.433594 0-.214844.003906-.433594.003906-.648438 0-39.417968-26.621094-72.335937-62.128906-80.296874zm0 0" fill="#d8d8d8"/><path d="m145.289062 502.058594 75.285157-156.179688c1.675781-3.476562-.855469-7.507812-4.714844-7.507812h-54.054687c-4.398438 0-6.835938-5.09375-4.078126-8.515625l141.484376-175.546875c1.652343-2.050782 4.921874-.296875 4.125 2.214844l-43.179688 135.875c-1.058594 3.328124 1.382812 6.742187 4.878906 6.816406l56.148438 1.179687c4.476562.09375 6.777344 5.398438 3.78125 8.730469l-175.761719 195.558594c-1.839844 2.050781-5.109375-.144532-3.914063-2.625zm0 0" fill="#fccf3f"/><g fill="#d8d8d8"><path d="m23.289062 401.890625c-1.15625 0-2.328124-.261719-3.433593-.808594-3.824219-1.898437-5.378907-6.539062-3.480469-10.359375l35.425781-71.261718c1.902344-3.824219 6.535157-5.378907 10.359375-3.480469 3.820313 1.898437 5.378906 6.535156 3.480469 10.359375l-35.429687 71.261718c-1.347657 2.714844-4.082032 4.289063-6.921876 4.289063zm0 0"/><path d="m74.445312 401.890625c-1.15625 0-2.328124-.261719-3.433593-.808594-3.824219-1.898437-5.378907-6.539062-3.480469-10.359375l35.425781-71.261718c1.898438-3.824219 6.535157-5.378907 10.359375-3.480469 3.820313 1.898437 5.378906 6.535156 3.480469 10.359375l-35.429687 71.261718c-1.347657 2.714844-4.082032 4.289063-6.921876 4.289063zm0 0"/><path d="m382.136719 401.890625c-1.15625 0-2.328125-.261719-3.433594-.808594-3.820313-1.898437-5.378906-6.539062-3.476563-10.359375l35.425782-71.261718c1.898437-3.824219 6.535156-5.378907 10.359375-3.480469 3.820312 1.898437 5.375 6.535156 3.476562 10.359375l-35.425781 71.261718c-1.351562 2.714844-4.085938 4.289063-6.925781 4.289063zm0 0"/><path d="m433.292969 401.890625c-1.15625 0-2.328125-.261719-3.433594-.808594-3.820313-1.898437-5.378906-6.539062-3.476563-10.359375l35.425782-71.261718c1.898437-3.824219 6.535156-5.378907 10.355468-3.480469 3.824219 1.898437 5.378907 6.535156 3.480469 10.359375l-35.425781 71.261718c-1.351562 2.714844-4.085938 4.289063-6.925781 4.289063zm0 0"/></g></svg>