<svg height="512pt" viewBox="0 -9 512 512" width="512pt" xmlns="http://www.w3.org/2000/svg"><path d="m350.46875 29.253906-324.589844-2.414062s-75.011718 106.691406 30.382813 199.3125c88.960937 78.183594 193.390625 140.136718 86.980469 250.003906 117.027343-41.585938 212.292968-143.90625 147.992187-254.667969-62.164063-107.078125 59.234375-142.21875 59.234375-192.234375zm0 0" fill="#69e6ed"/><path d="m350.46875 29.253906-65.515625-.488281c-5.050781 33.980469-64.675781 65.722656-76.492187 116.921875-24.070313 4.574219-49.738282 7.128906-72.820313 7.128906-19.839844 0-42.605469-3.925781-64.253906-8.171875-4.1875-.824219-8.25 1.910157-9.070313 6.097657-.820312 4.1875 1.910156 8.246093 6.097656 9.066406 22.414063 4.394531 46.070313 8.460937 67.226563 8.460937 22.585937 0 47.222656-2.070312 70.804687-6.167969-.285156 17.425782 5.1875 36.996094 19.617188 59.386719 2.472656 3.835938 4.746094 7.667969 6.875 11.496094-22.238281 4.957031-47.363281 7.742187-70.855469 7.742187-42.582031 0-91.988281-10.910156-111.632812-19.875 1.875 1.769532 3.804687 3.539063 5.808593 5.300782 7.726563 6.789062 15.566407 13.453125 23.378907 20.039062 25.402343 5.921875 56.367187 9.988282 82.445312 9.988282 25.898438 0 53.75-3.234376 77.988281-8.972657 12.917969 28.777344 16.550782 57.203125 12.929688 84.1875-7.945312 1.125-15.382812 1.855469-20.683594 1.855469-13.796875 0-30.582031-1.914062-46.050781-5.257812-15.25-3.292969-25.105469-7.058594-28.105469-9.332032-.144531-.109375-.292968-.207031-.445312-.304687 6.242187 7.410156 11.746094 14.910156 16.296875 22.570312 17.457031 4.542969 39.90625 7.777344 58.304687 7.777344 4.816406 0 10.996094-.503906 17.671875-1.324219-12.269531 50.28125-49.402343 94.539063-97.238281 125.234375 112.585938-43.632812 201.03125-143.382812 138.484375-251.125-62.164063-107.078125 59.234375-142.21875 59.234375-192.234375zm0 0" fill="#33d8dd"/><path d="m350.46875 29.253906c0 16.152344-88.820312 29.25-172.890625 29.25-84.066406 0-152.21875-13.097656-152.21875-29.25 0-16.15625 68.152344-29.253906 152.21875-29.253906 84.070313 0 172.890625 13.097656 172.890625 29.253906zm0 0" fill="#27cccc"/><path d="m42.011719 137.480469c-20.945313-6.285157-37.140625-16.960938-42.00781275-24.375.01562495 7.257812.59765575 14.785156 1.91406275 22.503906 10.441406 7.183594 23.714843 13.089844 35.65625 16.671875.738281.222656 1.484375.328125 2.222656.328125 3.320313 0 6.394531-2.164063 7.394531-5.511719 1.230469-4.085937-1.089844-8.394531-5.179687-9.617187zm0 0" fill="#33d8dd"/><path d="m390.671875 243.128906-105.75 48.425782-23.113281 170.230468 194.761718 26.445313 23.113282-170.230469zm0 0" fill="#efefef"/><path d="m390.671875 243.128906-42.46875 19.445313 57.78125 48.601562c5.050781 4.25 7.574219 10.789063 6.6875 17.328125l-20.5 150.984375 64.398437 8.742188 23.113282-170.230469zm0 0" fill="#d8d8d8"/><path d="m388.703125 225.851562-129.03125 59.085938c-5.089844 2.328125-8.628906 7.101562-9.382813 12.648438-1.730468 12.75 11.28125 22.398437 22.976563 17.042968l110.238281-50.480468c2.808594-1.289063 6.109375-.839844 8.472656 1.152343l92.785157 78.042969c9.847656 8.28125 24.960937 2.449219 26.691406-10.300781.75-5.542969-1.386719-11.089844-5.671875-14.691407l-108.605469-91.351562c-2.363281-1.988281-5.664062-2.4375-8.472656-1.148438zm0 0" fill="#fc4e51"/><path d="m401.226562 362.640625-52.59375-7.140625c-3.332031-.453125-6.402343 1.882812-6.855468 5.214844l-14.921875 109.902344 64.664062 8.78125 14.921875-109.90625c.453125-3.332032-1.878906-6.398438-5.214844-6.851563zm0 0" fill="#912c2c"/><path d="m499.4375 458.121094h-486.875c-6.9375 0-12.5625 5.621094-12.5625 12.5625v10.570312c0 6.9375 5.625 12.558594 12.5625 12.558594h486.875c6.9375 0 12.5625-5.621094 12.5625-12.558594v-10.570312c0-6.941406-5.625-12.5625-12.5625-12.5625zm0 0" fill="#7bb72e"/><g fill="#33d8dd"><path d="m118.695312 361.609375c-29.238281 0-47.703124-7.632813-51.800781-21.941406-3.992187-13.949219 7.414063-27.632813 17.6875-36.652344 3.203125-2.816406 8.089844-2.496094 10.902344.710937 2.816406 3.207032 2.496094 8.085938-.707031 10.902344-9.496094 8.335938-14.367188 16.105469-13.027344 20.785156 1.804688 6.304688 19.191406 13.988282 59.6875 9.328126 4.238281-.492188 8.070312 2.554687 8.558594 6.792968.488281 4.238282-2.554688 8.070313-6.792969 8.558594-8.835937 1.015625-17.023437 1.515625-24.507813 1.515625zm0 0"/><path d="m304.410156 171.023438c-3.867187 0-7.207031-2.894532-7.664062-6.828126-.496094-4.238281 2.535156-8.074218 6.773437-8.570312 34.285157-4.011719 51.710938-21.410156 50.652344-31.90625-.667969-6.585938-7.921875-12.207031-13.894531-15.761719-3.664063-2.183593-4.867188-6.925781-2.683594-10.589843 2.183594-3.667969 6.921875-4.871094 10.589844-2.6875 13.121094 7.8125 20.308594 17.058593 21.363281 27.484374 2.027344 20.0625-21.445313 43.800782-64.230469 48.808594-.304687.035156-.609375.050782-.90625.050782zm0 0"/></g></svg>