<svg height="512pt" viewBox="0 0 512.00033 512" width="512pt" xmlns="http://www.w3.org/2000/svg"><path d="m339.308594 146.546875c-.457032-4.242187-4.277344-7.3125-8.507813-6.855469-4.242187.457032-7.3125 4.265625-6.855469 8.507813l5.851563 54.441406c.425781 3.960937 3.777344 6.902344 7.675781 6.902344.273438 0 .554688-.015625.835938-.046875 4.242187-.453125 7.3125-4.265625 6.855468-8.507813zm0 0" fill="#8c4d34"/><path d="m289.773438 196.253906-56.007813 13.511719c-4.148437 1-6.699219 5.175781-5.699219 9.324219.855469 3.539062 4.019532 5.914062 7.507813 5.914062.597656 0 1.207031-.070312 1.816406-.214844l12.484375-3.015624-1.648438 14.378906c-.488281 4.238281 2.554688 8.070312 6.792969 8.558594.300781.03125.597657.050781.890625.050781 3.875 0 7.214844-2.90625 7.667969-6.847657l2.296875-20 27.523438-6.644531c4.148437-1 6.699218-5.171875 5.699218-9.320312-1-4.148438-5.175781-6.699219-9.324218-5.695313zm0 0" fill="#8c4d34"/><path d="m489.621094 119.222656c-3.34375-2.652344-8.203125-2.09375-10.855469 1.25l-5.304687 6.6875-.265626-7.679687c-.144531-4.265625-3.722656-7.609375-7.984374-7.460938-4.265626.148438-7.605469 3.722657-7.457032 7.988281l.882813 25.832032-10.945313 13.796875c-.03125.039062-.0625.074219-.09375.113281l-24.769531 31.21875c-2.652344 3.34375-2.09375 8.203125 1.25 10.855469 1.421875 1.125 3.113281 1.675781 4.796875 1.675781 2.277344 0 4.53125-1.003906 6.058594-2.925781l22.328125-28.140625 20.226562 1.375c.179688.015625.355469.019531.53125.019531 4.027344 0 7.421875-3.125 7.699219-7.203125.289062-4.257812-2.925781-7.941406-7.183594-8.230469l-9.613281-.65625 21.945313-27.660156c2.65625-3.34375 2.097656-8.203125-1.246094-10.855469zm0 0" fill="#a05e44"/><path d="m285.789062 438.339844 19.769532-23.140625c31.222656-36.542969 50.792968-81.585938 56.203125-129.34375.730469-6.433594-1.609375-12.832031-6.3125-17.277344l-94.402344-89.203125c-2.847656-2.691406-2.992187-7.175781-.320313-10.042969l6.207032-6.664062c2.195312-2.355469 5.699218-2.949219 8.546875-1.445313l97.046875 51.25 5-91.558594c.277344-5.136718 6.527344-7.492187 10.128906-3.824218l22.8125 23.242187c2.078125 2.113281 5.398438 2.367188 7.769531.589844l8.722657-6.527344c3.84375-2.878906 9.339843-.214843 9.457031 4.585938l2.882812 115.144531 66.632813-32.347656c2.804687-1.363282 6.066406.679687 6.066406 3.796875v12.621093c0 1.3125-.609375 2.550782-1.652344 3.351563l-61.105468 46.910156c-5.449219 4.179688-8.449219 10.804688-8.003907 17.65625l2.414063 37.234375c.945312 14.535156 4.644531 28.757813 10.898437 41.914063l25.242188 53.082031h-194.003907zm0 0" fill="#a05e44"/><path d="m505.933594 221.773438-66.632813 32.351562-2.882812-115.144531c-.117188-4.804688-5.613281-7.46875-9.457031-4.589844l-8.722657 6.53125c-2.375 1.777344-5.695312 1.523437-7.769531-.59375l-16.015625 188.191406c-3.160156 37.160157 3.609375 74.488281 19.625 108.167969l.789063 1.652344h64.925781l-25.242188-53.082032c-6.257812-13.152343-9.953125-27.375-10.898437-41.914062l-2.414063-37.230469c-.445312-6.855469 2.554688-13.476562 8.003907-17.660156l61.105468-46.910156c1.042969-.796875 1.652344-2.035157 1.652344-3.347657v-12.625c0-3.113281-3.261719-5.160156-6.066406-3.796874zm0 0" fill="#8c4d34"/><path d="m491.574219 424.011719h-471.34375c-11.171875 0-20.230469 9.058593-20.230469 20.230469v60.425781c0 3.96875 3.21875 7.1875 7.1875 7.1875h497.417969c1.558593 0 2.996093-.5 4.175781-1.339844 1.820312-1.304687 3.015625-3.433594 3.015625-5.847656l.003906-60.425781c0-11.171876-9.054687-20.230469-20.226562-20.230469zm0 0" fill="#af6223"/><path d="m83.59375 461.875 79.355469 16.488281 81.417969-54.351562h-185.507813zm0 0" fill="#c1752f"/><path d="m162.949219 478.363281-6.09375 33.492188h-149.667969c-3.96875 0-7.1875-3.21875-7.1875-7.1875v-37.25l83.59375-5.542969zm0 0" fill="#d8823a"/><path d="m106.359375 3.117188c5.550781 24.578124 35.375 34.265624 54.3125 17.644531 3.199219-2.808594 7.992187.671875 6.308594 4.585937-9.957031 23.144532 8.476562 48.515625 33.566406 46.199219 4.242187-.390625 6.070313 5.238281 2.410156 7.414063-21.660156 12.875-21.660156 44.234374 0 57.109374 3.660157 2.175782 1.832031 7.804688-2.410156 7.414063-25.089844-2.316406-43.523437 23.054687-33.566406 46.199219 1.683593 3.914062-3.109375 7.394531-6.308594 4.582031-18.9375-16.621094-48.761719-6.929687-54.3125 17.648437-.9375 4.15625-6.859375 4.15625-7.796875 0-5.550781-24.578124-35.375-34.269531-54.3125-17.648437-3.203125 2.8125-7.992188-.667969-6.308594-4.582031 9.957032-23.144532-8.476562-48.515625-33.566406-46.199219-4.242188.390625-6.070312-5.238281-2.410156-7.414063 21.660156-12.875 21.660156-44.234374 0-57.109374-3.660156-2.175782-1.832032-7.804688 2.410156-7.414063 25.089844 2.316406 43.523438-23.054687 33.566406-46.199219-1.683594-3.914062 3.105469-7.394531 6.308594-4.585937 18.9375 16.621093 48.761719 6.933593 54.3125-17.644531.9375-4.15625 6.859375-4.15625 7.796875 0zm0 0" fill="#fd8f31"/><path d="m202.953125 136.070312c-21.660156-12.875-21.660156-44.234374 0-57.105468 3.664063-2.179688 1.832031-7.808594-2.410156-7.417969-25.089844 2.316406-43.519531-23.050781-33.566407-46.199219 1.683594-3.914062-3.105468-7.394531-6.308593-4.582031-18.9375 16.621094-48.757813 6.929687-54.308594-17.648437-.9375-4.15625-6.859375-4.15625-7.800781 0-1.207032 5.347656-3.566406 9.992187-6.710938 13.8125 29.6875 19.203124 54.6875 52.597656 54.6875 90.585937s-25 71.386719-54.6875 90.585937c3.144532 3.824219 5.503906 8.464844 6.710938 13.8125.941406 4.15625 6.859375 4.15625 7.800781 0 5.550781-24.578124 35.371094-34.265624 54.308594-17.644531 3.203125 2.808594 7.992187-.671875 6.308593-4.585937-9.953124-23.144532 8.476563-48.515625 33.566407-46.199219 4.246093.390625 6.074219-5.238281 2.410156-7.414063zm0 0" fill="#ff7f1f"/><path d="m146.539062 107.515625c0 24.34375-19.734374 44.078125-44.078124 44.078125s-44.078126-19.734375-44.078126-44.078125 19.734376-44.078125 44.078126-44.078125 44.078124 19.734375 44.078124 44.078125zm0 0" fill="#fccf3f"/><path d="m313.070312 424.011719h87.257813l8.242187 41.984375-37.433593 45.859375h-93.519531l38.238281-44.4375zm0 0" fill="#c1752f"/><path d="m504.605469 511.855469c1.558593 0 2.996093-.5 4.175781-1.34375l-100.210938-44.515625-37.433593 45.859375zm0 0" fill="#d8823a"/></svg>