<svg height="512pt" viewBox="0 -17 512.00077 512" width="512pt" xmlns="http://www.w3.org/2000/svg"><path d="m458.023438 417.183594-172.027344-26.101563 22.8125-150.359375 94.273437-41.402344 77.753907 67.503907zm0 0" fill="#e7eced"/><path d="m403.082031 199.320312-43.480469 19.097657 49.074219 42.605469c4.160157 3.609374 6.179688 9.101562 5.351563 14.546874l-20.011719 131.902344 64.007813 9.710938 22.8125-150.359375zm0 0" fill="#d8d8d8"/><path d="m394.414062 222.09375-95 41.71875c-12.65625 5.558594-26.46875-5.027344-24.394531-18.695312.902344-5.945313 4.785157-11.011719 10.289063-13.429688l115.332031-50.648438c3.414063-1.5 7.382813-.894531 10.199219 1.546876l95.117187 82.578124c4.539063 3.941407 6.746094 9.933594 5.84375 15.878907-2.070312 13.667969-18.402343 19.675781-28.84375 10.613281l-78.34375-68.015625c-2.816406-2.441406-6.789062-3.046875-10.199219-1.546875zm0 0" fill="#fc4e51"/><path d="m410.773438 305.25-46.453126-7.046875c-2.945312-.449219-5.691406 1.578125-6.140624 4.519531l-14.726563 97.074219 57.113281 8.667969 14.730469-97.074219c.445313-2.945313-1.578125-5.691406-4.523437-6.140625zm0 0" fill="#8c4d34"/><path d="m65.621094 62.933594 7.195312 15.613281c6.496094 14.097656 22.367188 21.28125 37.25 16.859375l2.265625-.671875c13.011719-3.867187 22.035157-15.703125 22.320313-29.277344l.292968-14.089843c.34375-16.441407-12.128906-30.332032-28.511718-31.753907l-9.753906-.847656c-10.191407-.886719-20.171876 3.277344-26.710938 11.144531-7.6875 9.25-9.378906 22.097656-4.347656 33.023438zm0 0" fill="#949493"/><path d="m218.386719 314.753906 3.164062 12.921875c2.859375 11.667969 13.855469 19.464844 25.8125 18.300781l1.820313-.179687c10.457031-1.019531 19.058594-8.679687 21.273437-18.953125l2.300781-10.660156c2.679688-12.441406-4.746093-24.828125-16.980468-28.324219l-7.285156-2.082031c-7.613282-2.175782-15.808594-.484375-21.9375 4.53125-7.203126 5.894531-10.382813 15.402344-8.167969 24.445312zm0 0" fill="#949493"/><path d="m176.0625 218.117188c-.945312 0-1.902344-.171876-2.832031-.539063-3.96875-1.5625-5.917969-6.050781-4.355469-10.019531l27.5-69.796875c1.566406-3.972657 6.050781-5.921875 10.023438-4.355469 3.96875 1.5625 5.917968 6.050781 4.355468 10.019531l-27.5 69.796875c-1.199218 3.039063-4.113281 4.894532-7.191406 4.894532zm0 0" fill="#a05e44"/><path d="m233.550781 56.035156-90.207031 70.160156c-2.203125 1.710938-1.703125 5.171876.890625 6.195313l108.308594 42.671875c2.597656 1.023438 5.320312-1.167969 4.878906-3.921875l-18.105469-112.835937c-.433594-2.703126-3.605468-3.953126-5.765625-2.269532zm0 0" fill="#8fd143"/><path d="m244.753906 27.59375-72.101562 56.082031c-2.203125 1.710938-1.707032 5.171875.890625 6.195313l86.574219 34.109375c2.59375 1.023437 5.316406-1.167969 4.875-3.921875l-14.46875-90.191406c-.433594-2.703126-3.609376-3.953126-5.769532-2.273438zm0 0" fill="#7bb72e"/><path d="m255.324219.761719-53.484375 41.601562c-2.203125 1.714844-1.707032 5.171875.890625 6.195313l64.222656 25.304687c2.59375 1.023438 5.316406-1.167969 4.875-3.921875l-10.734375-66.90625c-.433594-2.703125-3.605469-3.953125-5.769531-2.273437zm0 0" fill="#8fd143"/><path d="m331.125 418.808594c-18.492188-74.207032-113.289062-53.878906-113.289062-145.582032 0-105.398437-101.574219-69.246093-101.574219-166.148437 0-65.382813-69.40625-87.125-100.796875-93.617187-7.792969-1.609376-15.109375 4.304687-15.113282 12.265624l-.351562 437.21875c-.0078125 8.808594 7.132812 15.949219 15.941406 15.945313l317.429688-.199219.324218-36.871094c.066407-7.769531-.707031-15.539062-2.570312-23.011718zm0 0" fill="#a05e44"/><path d="m331.125 418.808594c-18.492188-74.207032-113.289062-53.878906-113.289062-145.582032 0-105.398437-101.574219-69.246093-101.574219-166.148437 0-65.382813-69.40625-87.128906-100.796875-93.617187-3.390625-.703126-6.683594.023437-9.332032 1.71875 23.460938 13.917968 43.566407 43.734374 43.566407 112.390624 0 96.902344 101.574219 60.75 101.574219 166.144532 0 91.703125 94.796874 71.375 113.289062 145.582031 1.863281 7.476563 2.636719 15.246094 2.570312 23.015625l-.144531 16.421875 66.382813-.042969.324218-36.871094c.066407-7.769531-.707031-15.539062-2.570312-23.011718zm0 0" fill="#8c4d34"/><path d="m103.597656 443.996094c-4.011718 0-7.402344-3.101563-7.699218-7.167969-3.65625-50.484375-19.484376-64.652344-34.792969-78.359375-3.179688-2.84375-3.449219-7.730469-.605469-10.910156 2.847656-3.179688 7.730469-3.449219 10.910156-.601563 15.949219 14.273438 35.792969 32.042969 39.902344 88.753907.308594 4.257812-2.890625 7.957031-7.148438 8.265624-.191406.015626-.378906.019532-.566406.019532zm0 0" fill="#8c4d34"/><path d="m230.792969 213.628906 1.71875 7.007813c1.546875 6.328125 7.511719 10.558593 14 9.925781l.984375-.097656c5.671875-.550782 10.335937-4.707032 11.535156-10.277344l1.25-5.78125c1.453125-6.75-2.574219-13.46875-9.210938-15.363281l-3.949218-1.128907c-4.128906-1.179687-8.574219-.261718-11.898438 2.457032-3.90625 3.195312-5.628906 8.355468-4.429687 13.257812zm0 0" fill="#949493"/><path d="m498.550781 390.644531c-293.761719-22.105469-338.988281 88.253907-338.988281 88.253907h338.246094c5.539062 0 10.027344-4.488282 10.027344-10.027344v-68.222656c0-5.246094-4.054688-9.609376-9.285157-10.003907zm0 0" fill="#8fd143"/><path d="m498.550781 390.644531c-19.28125-1.449219-37.484375-2.324219-54.6875-2.703125v90.957032h53.945313c5.539062 0 10.027344-4.488282 10.027344-10.027344v-68.222656c0-5.246094-4.054688-9.609376-9.285157-10.003907zm0 0" fill="#7bb72e"/></svg>