<svg height="512pt" viewBox="0 -99 512 512" width="512pt" xmlns="http://www.w3.org/2000/svg"><path d="m403.609375 73.316406h-42.355469v-22.417968c0-5.445313 4.414063-9.863282 9.863282-9.863282h22.628906c5.449218 0 9.867187 4.417969 9.867187 9.863282v22.417968zm0 0" fill="#fccf3f"/><path d="m321.433594 68.152344h94.285156c4.636719 0 8.957031 2.359375 11.460938 6.261718l38.542968 60.109376c1.941406 3.03125 5.003906 5.167968 8.515625 5.945312l27.089844 7.382812c6.234375 1.378907 10.671875 6.90625 10.671875 13.289063v92.207031c0 7.515625-6.09375 13.613282-13.613281 13.613282h-176.953125zm0 0" fill="#fc4e51"/><path d="m501.328125 147.851562-27.089844-7.382812c-3.511719-.777344-6.574219-2.914062-8.515625-5.941406l-38.542968-60.113282c-2.503907-3.902343-6.824219-6.261718-11.460938-6.261718h-71.953125l55.542969 86.648437c1.941406 3.027344 5.003906 5.167969 8.515625 5.941407l27.09375 7.386718c6.230469 1.378906 10.667969 6.902344 10.667969 13.289063v85.542969h52.800781c7.519531 0 13.613281-6.09375 13.613281-13.613282v-92.207031c0-6.382813-4.4375-11.910156-10.671875-13.289063zm0 0" fill="#e5394b"/><path d="m331.371094 266.960938h-317.554688c-7.628906 0-13.816406-6.1875-13.816406-13.820313v-243.882813c0-5.113281 4.144531-9.257812 9.257812-9.257812h312.855469c5.113281 0 9.257813 4.144531 9.257813 9.257812zm0 0" fill="#e7eced"/><path d="m434.328125 146.121094-26.363281-43.511719c-1.1875-1.960937-3.316406-3.160156-5.609375-3.160156h-27.761719c-3.625 0-6.5625 2.9375-6.5625 6.558593v43.511719c0 3.625 2.9375 6.558594 6.5625 6.558594h54.125c5.113281 0 8.261719-5.585937 5.609375-9.957031zm0 0" fill="#69e6ed"/><path d="m512 253.347656v-20.121094h-25.8125c-7.734375 0-14.003906 6.273438-14.003906 14.007813v19.726563h26.207031c7.515625 0 13.609375-6.09375 13.609375-13.613282zm0 0" fill="#fccf3f"/><path d="m122.457031 62.066406h-25.097656v-25.097656c0-2.339844-1.894531-4.238281-4.238281-4.238281h-20.875c-2.34375 0-4.242188 1.898437-4.242188 4.238281v25.097656h-25.09375c-2.34375 0-4.242187 1.898438-4.242187 4.238282v20.875c0 2.34375 1.898437 4.242187 4.242187 4.242187h25.09375v25.09375c0 2.34375 1.898438 4.242187 4.242188 4.242187h20.875c2.34375 0 4.238281-1.898437 4.238281-4.242187v-25.09375h25.097656c2.34375 0 4.238281-1.898437 4.238281-4.242187v-20.875c.003907-2.339844-1.894531-4.238282-4.238281-4.238282zm0 0" fill="#8fd143"/><path d="m89.445312 313.511719c-25.667968 0-46.550781-20.882813-46.550781-46.550781 0-25.667969 20.882813-46.550782 46.550781-46.550782 25.667969 0 46.550782 20.882813 46.550782 46.550782 0 25.667968-20.882813 46.550781-46.550782 46.550781zm0 0" fill="#09627a"/><path d="m89.445312 284.644531c-9.75 0-17.683593-7.933593-17.683593-17.683593s7.933593-17.683594 17.683593-17.683594 17.683594 7.933594 17.683594 17.683594-7.933594 17.683593-17.683594 17.683593zm0 0" fill="#d8d8d8"/><path d="m401.660156 313.511719c-25.667968 0-46.550781-20.882813-46.550781-46.550781 0-25.667969 20.882813-46.550782 46.550781-46.550782 25.667969 0 46.550782 20.882813 46.550782 46.550782 0 25.667968-20.882813 46.550781-46.550782 46.550781zm0 0" fill="#09627a"/><path d="m401.660156 284.644531c-9.75 0-17.679687-7.933593-17.679687-17.683593s7.929687-17.683594 17.679687-17.683594 17.683594 7.933594 17.683594 17.683594-7.933594 17.683593-17.683594 17.683593zm0 0" fill="#d8d8d8"/><path d="m0 141.695312h331.371094v28.1875h-331.371094zm0 0" fill="#fc4e51"/><path d="m289.066406 235.714844h-105.738281c-1.796875 0-3.253906-1.457032-3.253906-3.25v-196.484375c0-1.796875 1.457031-3.253907 3.253906-3.253907h105.738281c1.796875 0 3.253906 1.457032 3.253906 3.253907v196.484375c0 1.796875-1.457031 3.25-3.253906 3.25zm0 0" fill="#0d6e9a"/><path d="m289.066406 32.730469h-61.488281v202.984375h61.488281c1.796875 0 3.253906-1.457032 3.253906-3.25v-196.484375c0-1.796875-1.457031-3.25-3.253906-3.25zm0 0" fill="#09627a"/><path d="m208.632812 109.144531v-45.980469c0-1.796874 1.453126-3.253906 3.25-3.253906h48.628907c1.796875 0 3.253906 1.457032 3.253906 3.253906v45.980469c0 1.796875-1.457031 3.253907-3.253906 3.253907h-48.628907c-1.796874 0-3.25-1.457032-3.25-3.253907zm0 0" fill="#69e6ed"/></svg>