<svg height="512pt" viewBox="-20 0 512 512" width="512pt" xmlns="http://www.w3.org/2000/svg"><path d="m111.363281 512h-54.410156c-5.722656 0-10.359375-4.640625-10.359375-10.359375v-385.183594c0-20.746093 16.816406-37.566406 37.5625-37.566406 20.75 0 37.566406 16.820313 37.566406 37.566406v385.183594c.003906 5.71875-4.636718 10.359375-10.359375 10.359375zm0 0" fill="#cc7a2f"/><path d="m0 180.773438v103.449218c0 12.84375 10.035156 23.460938 22.859375 24.148438 69.707031 3.75 290.980469 25.105468 412.675781 146.804687v-445.355469c-121.695312 121.695313-342.96875 143.050782-412.675781 146.800782-12.824219.6875-22.859375 11.308594-22.859375 24.152344zm0 0" fill="#fc4e51"/><path d="m0 267.925781v16.296875c0 12.84375 10.035156 23.460938 22.859375 24.148438 69.707031 3.75 290.980469 25.105468 412.675781 146.804687v-80.511719c-96.8125-96.8125-315.183594-100.605468-435.535156-106.738281zm0 0" fill="#e5394b"/><path d="m451.601562 464.992188h-32.136718c-11.816406 0-21.394532-9.578126-21.394532-21.394532v-422.203125c0-11.816406 9.578126-21.394531 21.394532-21.394531h32.136718c11.816407 0 21.394532 9.578125 21.394532 21.394531v422.203125c0 11.816406-9.578125 21.394532-21.394532 21.394532zm0 0" fill="#fd8f31"/><path d="m152.109375 140.585938c-55.582031 10.738281-103.089844 14.628906-129.25 16.035156-12.824219.6875-22.859375 11.308594-22.859375 24.152344v103.449218c0 12.84375 10.035156 23.460938 22.859375 24.148438 26.160156 1.40625 73.667969 5.296875 129.25 16.035156zm0 0" fill="#e7eced"/><path d="m0 267.925781v16.296875c0 12.84375 10.035156 23.460938 22.859375 24.148438 26.160156 1.40625 73.667969 5.292968 129.246094 16.035156h.003906v-46.894531c-56.40625-5.59375-110.203125-7.449219-152.109375-9.585938zm0 0" fill="#d8d8d8"/><g fill="#0d6e9a"><path d="m46.585938 203.308594c-3.988282 0-7.367188-3.066406-7.695313-7.105469-.339844-4.253906 2.828125-7.980469 7.082031-8.324219l62.4375-5.039062c4.253906-.34375 7.980469 2.824218 8.324219 7.078125.339844 4.253906-2.828125 7.976562-7.082031 8.320312l-62.4375 5.042969c-.210938.015625-.421875.027344-.628906.027344zm0 0"/><path d="m109.03125 240.222656h-62.4375c-4.269531 0-7.726562-3.457031-7.726562-7.726562 0-4.265625 3.457031-7.726563 7.726562-7.726563h62.4375c4.269531 0 7.726562 3.460938 7.726562 7.726563 0 4.269531-3.457031 7.726562-7.726562 7.726562zm0 0"/><path d="m109.039062 282.179688c-.207031 0-.417968-.007813-.628906-.023438l-62.441406-5.042969c-4.253906-.34375-7.421875-4.070312-7.078125-8.324219.34375-4.253906 4.054687-7.417968 8.324219-7.078124l62.4375 5.042968c4.253906.34375 7.421875 4.070313 7.078125 8.320313-.324219 4.042969-3.707031 7.105469-7.691407 7.105469zm0 0"/></g></svg>