<svg height="512pt" viewBox="-18 0 512 512" width="512pt" xmlns="http://www.w3.org/2000/svg"><path d="m446.734375 206.15625h-428.636719c-9.996094 0-18.097656-8.101562-18.097656-18.097656s8.101562-18.097656 18.097656-18.097656h428.636719zm0 0" fill="#575d60"/><path d="m122.023438 343.171875c-12.6875 0-22.972657-10.285156-22.972657-22.972656v-264.285157c0-12.683593 10.285157-22.96875 22.972657-22.96875 12.683593 0 22.96875 10.285157 22.96875 22.96875v264.285157c0 12.6875-10.285157 22.972656-22.96875 22.972656zm0 0" fill="#e5394b"/><path d="m167.960938 343.171875c-12.6875 0-22.96875-10.285156-22.96875-22.972656v-264.285157c0-12.683593 10.28125-22.96875 22.96875-22.96875s22.96875 10.285157 22.96875 22.96875v264.285157c0 12.6875-10.28125 22.972656-22.96875 22.972656zm0 0" fill="#fc4e51"/><path d="m213.902344 343.171875c-12.6875 0-22.972656-10.285156-22.972656-22.972656v-264.285157c0-12.683593 10.285156-22.96875 22.972656-22.96875 12.683594 0 22.96875 10.285157 22.96875 22.96875v264.285157c0 12.6875-10.285156 22.972656-22.96875 22.972656zm0 0" fill="#e5394b"/><path d="m259.839844 343.171875c-12.6875 0-22.96875-10.285156-22.96875-22.972656v-264.285157c0-12.683593 10.28125-22.96875 22.96875-22.96875s22.96875 10.285157 22.96875 22.96875v264.285157c0 12.6875-10.28125 22.972656-22.96875 22.972656zm0 0" fill="#fc4e51"/><path d="m328.75 417.234375h-45.941406v-361.320313c0-12.683593 10.285156-22.96875 22.96875-22.96875 12.6875 0 22.972656 10.285157 22.972656 22.96875zm0 0" fill="#e5394b"/><path d="m305.78125 512c-6.46875 0-11.910156-4.839844-12.660156-11.261719l-10.308594-87.953125h45.9375l-10.308594 87.953125c-.753906 6.421875-6.195312 11.261719-12.660156 11.261719zm0 0" fill="#0d6e9a"/><path d="m336.070312 435.492188h-57.417968c-8.640625 0-15.648438-7.007813-15.648438-15.652344 0-8.640625 7.007813-15.648438 15.648438-15.648438h57.417968c8.640626 0 15.648438 7.007813 15.648438 15.648438 0 8.644531-7.007812 15.652344-15.648438 15.652344zm0 0" fill="#09627a"/><path d="m458.53125 239.820312-16.457031 3.90625c-7.164063 1.699219-14.039063-3.734374-14.039063-11.097656v-89.140625c0-7.363281 6.875-12.796875 14.039063-11.097656l16.457031 3.90625c10.230469 2.429687 17.453125 11.566406 17.453125 22.078125v59.367188c0 10.511718-7.222656 19.648437-17.453125 22.078124zm0 0" fill="#e5394b"/><path d="m84.914062 373.054688h-15.53125c-19.9375 0-36.097656-16.164063-36.097656-36.101563v-300.855469c0-19.9375 16.160156-36.097656 36.097656-36.097656h15.53125c7.808594 0 14.136719 6.328125 14.136719 14.136719v344.78125c0 7.808593-6.328125 14.136719-14.136719 14.136719zm0 0" fill="#e7eced"/><path d="m342.886719 373.054688h15.53125c19.9375 0 36.097656-16.164063 36.097656-36.101563v-300.855469c0-19.9375-16.160156-36.097656-36.097656-36.097656h-15.53125c-7.808594 0-14.136719 6.328125-14.136719 14.136719v344.78125c0 7.808593 6.328125 14.136719 14.136719 14.136719zm0 0" fill="#d8d8d8"/></svg>