<svg height="512pt" viewBox="0 -23 512 512" width="512pt" xmlns="http://www.w3.org/2000/svg"><g fill="#33d8dd"><path d="m68.707031 352.371094c-1.011719 0-2.039062-.199219-3.027343-.621094-3.925782-1.671875-5.75-6.210938-4.078126-10.136719l5.636719-13.226562c1.675781-3.925781 6.214844-5.75 10.140625-4.078125 3.921875 1.671875 5.75 6.210937 4.074219 10.136718l-5.636719 13.226563c-1.25 2.9375-4.105468 4.699219-7.109375 4.699219zm0 0"/><path d="m41.605469 415.957031c-1.011719 0-2.039063-.199219-3.027344-.621093-3.925781-1.675782-5.75-6.214844-4.074219-10.136719l11.515625-27.023438c1.671875-3.921875 6.210938-5.75 10.136719-4.078125 3.925781 1.675782 5.75 6.214844 4.078125 10.136719l-11.515625 27.023437c-1.253906 2.9375-4.109375 4.699219-7.113281 4.699219zm0 0"/><path d="m20.417969 465.667969c-1.011719 0-2.035157-.199219-3.027344-.621094-3.925781-1.671875-5.75-6.210937-4.078125-10.136719l5.640625-13.226562c1.671875-3.925782 6.207031-5.753906 10.136719-4.078125 3.925781 1.671875 5.75 6.210937 4.078125 10.136719l-5.640625 13.226562c-1.25 2.9375-4.105469 4.699219-7.109375 4.699219zm0 0"/><path d="m161.078125 352.371094c-1.011719 0-2.039063-.199219-3.023437-.621094-3.925782-1.671875-5.753907-6.210938-4.078126-10.136719l5.636719-13.226562c1.671875-3.925781 6.210938-5.75 10.136719-4.078125s5.75 6.210937 4.078125 10.136718l-5.636719 13.226563c-1.253906 2.9375-4.109375 4.699219-7.113281 4.699219zm0 0"/><path d="m133.980469 415.957031c-1.011719 0-2.039063-.199219-3.027344-.621093-3.925781-1.675782-5.753906-6.214844-4.078125-10.136719l11.515625-27.023438c1.675781-3.921875 6.214844-5.75 10.136719-4.078125 3.925781 1.675782 5.753906 6.214844 4.078125 10.136719l-11.515625 27.023437c-1.25 2.9375-4.109375 4.699219-7.109375 4.699219zm0 0"/><path d="m112.789062 465.667969c-1.007812 0-2.035156-.199219-3.023437-.621094-3.925781-1.671875-5.75-6.210937-4.078125-10.136719l5.636719-13.226562c1.675781-3.925782 6.210937-5.75 10.136719-4.078125 3.925781 1.671875 5.753906 6.210937 4.078124 10.136719l-5.636718 13.226562c-1.253906 2.9375-4.109375 4.699219-7.113282 4.699219zm0 0"/><path d="m253.453125 352.371094c-1.011719 0-2.039063-.199219-3.027344-.621094-3.921875-1.671875-5.75-6.210938-4.078125-10.136719l5.640625-13.226562c1.671875-3.925781 6.207031-5.753907 10.136719-4.078125 3.925781 1.671875 5.75 6.210937 4.078125 10.136718l-5.640625 13.226563c-1.25 2.9375-4.105469 4.699219-7.109375 4.699219zm0 0"/><path d="m226.351562 415.957031c-1.011718 0-2.039062-.199219-3.027343-.621093-3.925781-1.675782-5.75-6.214844-4.078125-10.136719l11.519531-27.023438c1.671875-3.921875 6.214844-5.75 10.136719-4.078125 3.925781 1.675782 5.75 6.214844 4.078125 10.136719l-11.515625 27.023437c-1.253906 2.9375-4.109375 4.699219-7.113282 4.699219zm0 0"/><path d="m205.164062 465.667969c-1.011718 0-2.039062-.199219-3.027343-.621094-3.921875-1.671875-5.75-6.210937-4.078125-10.136719l5.640625-13.226562c1.671875-3.925782 6.210937-5.75 10.136719-4.078125 3.925781 1.671875 5.75 6.210937 4.078124 10.136719l-5.640624 13.226562c-1.25 2.9375-4.105469 4.699219-7.109376 4.699219zm0 0"/><path d="m345.824219 352.371094c-1.007813 0-2.035157-.199219-3.023438-.621094-3.925781-1.675781-5.753906-6.210938-4.078125-10.136719l5.636719-13.226562c1.671875-3.925781 6.207031-5.757813 10.140625-4.078125 3.925781 1.671875 5.75 6.210937 4.074219 10.136718l-5.636719 13.226563c-1.253906 2.9375-4.109375 4.699219-7.113281 4.699219zm0 0"/><path d="m318.722656 415.957031c-1.007812 0-2.035156-.199219-3.023437-.621093-3.925781-1.675782-5.75-6.214844-4.078125-10.136719l11.515625-27.023438c1.675781-3.921875 6.210937-5.75 10.136719-4.078125 3.925781 1.675782 5.753906 6.214844 4.078124 10.136719l-11.515624 27.023437c-1.25 2.9375-4.109376 4.699219-7.113282 4.699219zm0 0"/><path d="m297.535156 465.667969c-1.007812 0-2.035156-.199219-3.023437-.621094-3.925781-1.671875-5.75-6.210937-4.078125-10.136719l5.636718-13.226562c1.671876-3.925782 6.210938-5.753906 10.140626-4.078125 3.925781 1.671875 5.75 6.210937 4.074218 10.136719l-5.636718 13.226562c-1.25 2.9375-4.109376 4.699219-7.113282 4.699219zm0 0"/><path d="m438.199219 352.371094c-1.011719 0-2.039063-.199219-3.027344-.621094-3.925781-1.675781-5.75-6.210938-4.078125-10.136719l5.640625-13.226562c1.671875-3.925781 6.207031-5.757813 10.136719-4.078125 3.925781 1.671875 5.75 6.210937 4.078125 10.136718l-5.640625 13.226563c-1.25 2.9375-4.109375 4.699219-7.109375 4.699219zm0 0"/><path d="m411.097656 415.957031c-1.007812 0-2.035156-.199219-3.023437-.621093-3.925781-1.675782-5.753907-6.214844-4.078125-10.136719l11.515625-27.023438c1.671875-3.921875 6.210937-5.75 10.136719-4.078125 3.925781 1.675782 5.75 6.214844 4.078124 10.136719l-11.515624 27.023437c-1.253907 2.9375-4.109376 4.699219-7.113282 4.699219zm0 0"/><path d="m389.910156 465.667969c-1.011718 0-2.039062-.199219-3.023437-.621094-3.925781-1.671875-5.753907-6.210937-4.078125-10.136719l5.636718-13.226562c1.671876-3.925782 6.210938-5.753906 10.136719-4.078125 3.925781 1.671875 5.753907 6.210937 4.078125 10.136719l-5.636718 13.226562c-1.253907 2.9375-4.109376 4.699219-7.113282 4.699219zm0 0"/></g><path d="m455.816406 269.902344c30.734375 0 55.953125-24.699219 56.179688-55.433594.003906-.214844.003906-.433594.003906-.652344 0-39.414062-26.621094-72.332031-62.125-80.292968 3.691406-24.136719-5.253906-49.539063-25.332031-65.171876-24.335938-18.953124-57.214844-17.488281-79.804688 1.53125-25.039062-41.953124-69.640625-69.882812-120.503906-69.882812-73.105469 0-133.289063 57.695312-141.011719 131.816406-1.484375-.085937-2.976562-.140625-4.480468-.140625-43.488282 0-78.742188 36.777344-78.742188 82.140625 0 .21875 0 .4375.00390625.652344.22656275 30.734375 25.44140575 55.433594 56.17968775 55.433594zm0 0" fill="#69e6ed"/><path d="m224.234375 0c-11.089844 0-21.878906 1.335938-32.234375 3.847656 31.566406 7.660156 59.089844 26.320313 78.65625 51.894532 5.796875 7.574218 15.25 11.53125 24.679688 10.097656 18.730468-2.851563 40.003906.320312 49.402343 4.042968-25.039062-41.953124-69.640625-69.882812-120.503906-69.882812zm0 0" fill="#33d8dd"/><path d="m449.871094 133.523438c3.691406-24.132813-5.253906-49.539063-25.332032-65.171876-24.332031-18.953124-57.210937-17.488281-79.804687 1.53125 0 0 41.402344 15.285157 43.199219 47.007813.542968 9.597656 5.816406 18.390625 14.4375 22.644531 26.675781 13.152344 45.128906 41.464844 45.128906 74.285156 0 .214844 0 .433594-.003906.648438-.226563 30.738281-25.441406 55.433594-56.179688 55.433594h64.496094c30.738281 0 55.957031-24.695313 56.183594-55.433594 0-.214844.003906-.433594.003906-.648438 0-39.417968-26.621094-72.335937-62.128906-80.296874zm0 0" fill="#33d8dd"/></svg>