<svg height="512pt" viewBox="0 -42 512.002 512" width="512pt" xmlns="http://www.w3.org/2000/svg"><g fill="#27cccc"><path d="m431.683594 171.460938h-139.050782c-4.203124 0-7.613281-3.40625-7.613281-7.609376 0-4.203124 3.410157-7.613281 7.613281-7.613281h139.050782c6.359375 0 11.53125-5.175781 11.53125-11.535156s-5.171875-11.53125-11.53125-11.53125c-4.207032 0-7.613282-3.410156-7.613282-7.613281s3.40625-7.609375 7.613282-7.609375c14.75 0 26.753906 12.003906 26.753906 26.753906 0 14.753906-12 26.757813-26.753906 26.757813zm0 0"/><path d="m485.246094 273.8125c-4.207032 0-7.613282-3.410156-7.613282-7.613281s3.40625-7.609375 7.613282-7.609375c6.359375 0 11.53125-5.175782 11.53125-11.535156 0-6.359376-5.171875-11.535157-11.53125-11.535157h-175.675782c-4.203124 0-7.609374-3.40625-7.609374-7.609375s3.40625-7.613281 7.609374-7.613281h175.675782c14.75 0 26.753906 12.003906 26.753906 26.757813 0 14.753906-12.003906 26.757812-26.753906 26.757812zm0 0"/><path d="m386.441406 202.195312h-129.675781c-4.203125 0-7.613281-3.40625-7.613281-7.609374 0-4.203126 3.410156-7.609376 7.613281-7.609376h129.675781c4.203125 0 7.609375 3.40625 7.609375 7.609376 0 4.203124-3.40625 7.609374-7.609375 7.609374zm0 0"/></g><path d="m347.488281 22.464844c-10.054687-12.28125-24.914062-19.636719-40.730469-20.964844-64.378906-5.402344-132.738281 2.863281-187.074218 40.332031-128.238282 86.5625-119.558594 277.296875-119.558594 277.296875v24.382813l254.898438-1.535157-.34375-22.847656s-49.847657-102.808594-29.925782-196.308594c7.488282-.808593 14.222656-4.632812 19.285156-10.421874 5.464844 4.28125 12.050782 6.78125 19.136719 6.78125 9.160157 0 17.472657-4.183594 23.621094-10.980469 7.230469 6.859375 16.46875 10.980469 26.539063 10.980469 23.179687 0 43.886718-22.527344 46.3125-49.332032 1.8125-20.003906-2.132813-35.136718-12.160157-47.382812zm0 0" fill="#69e6ed"/><path d="m347.488281 22.464844c-10.054687-12.28125-24.914062-19.636719-40.730469-20.964844-64.378906-5.402344-132.738281 2.863281-187.074218 40.332031-128.238282 86.5625-119.558594 277.296875-119.558594 277.296875v24.382813l254.898438-1.535157-.34375-22.847656s-49.847657-102.808594-29.925782-196.308594c7.488282-.808593 14.222656-4.632812 19.285156-10.421874 5.464844 4.28125 12.050782 6.78125 19.136719 6.78125 9.160157 0 17.472657-4.183594 23.621094-10.980469 7.230469 6.859375 16.46875 10.980469 26.539063 10.980469 23.179687 0 43.886718-22.527344 46.3125-49.332032 1.8125-20.003906-2.132813-35.136718-12.160157-47.382812zm0 0" fill="#33d8dd"/><path d="m347.488281 22.464844c-10.054687-12.28125-24.914062-19.636719-40.730469-20.964844-64.378906-5.402344-132.738281 2.863281-187.074218 40.332031-6.054688 4.089844-11.804688 8.410157-17.265625 12.929688-.003907.003906-.003907.003906-.003907.007812 4.398438 17.601563 16.78125 40.191407 41.816407 45.691407 2.605469 14.195312 13.464843 24.847656 26.472656 24.847656 3.964844 0 7.730469-1 11.125-2.777344.644531 1.011719 1.34375 1.980469 2.074219 2.910156-20.539063 85.332032.808594 180.613282 15.847656 216.871094h.011719l55.261719-.332031-.34375-22.851563s-44.886719-92.59375-32.433594-181.953125c.667968-4.800781 1.492187-9.589843 2.507812-14.355469 7.488282-.804687 14.222656-4.628906 19.289063-10.417968 5.464843 4.277344 12.046875 6.777344 19.136719 6.777344 9.160156 0 17.472656-4.179688 23.617187-10.976563 7.234375 6.859375 16.46875 10.976563 26.539063 10.976563 23.179687 0 43.890624-22.523438 46.3125-49.328126 1.8125-20.007812-2.132813-35.140624-12.160157-47.386718zm0 0" fill="#27cccc"/><path d="m306.757812 1.5c-64.378906-5.402344-132.738281 2.863281-187.074218 40.332031 0 16.363281 6.445312 37.003907 39.015625 44.15625 2.605469 14.199219 13.464843 24.847657 26.472656 24.847657 3.96875 0 7.730469-.996094 11.125-2.777344 3.953125 14.765625 26.867187 14.90625 28.457031 14.761718 7.488282-.808593 14.222656-4.632812 19.285156-10.421874 5.464844 4.28125 12.050782 6.78125 19.136719 6.78125 9.160157 0 17.472657-4.183594 23.621094-10.980469 7.230469 6.859375 16.46875 10.980469 26.535156 10.980469h.003907c23.179687 0 43.886718-22.527344 46.3125-49.332032 1.8125-20.003906-2.132813-35.136718-12.160157-47.382812-10.054687-12.28125-24.914062-19.636719-40.730469-20.964844zm0 0" fill="#69e6ed"/><path d="m409.589844 304.738281c-25.597656 0-25.597656 10.308594-51.199219 10.308594s-25.601563-10.308594-51.199219-10.308594-25.597656 10.308594-51.199218 10.308594c-25.597657 0-25.597657-10.308594-51.195313-10.308594-25.601563 0-25.601563 10.308594-51.199219 10.308594-25.601562 0-25.601562-10.308594-51.199218-10.308594-25.601563 0-25.601563 10.308594-51.199219 10.308594-22.839844 0-25.300781-8.207031-43.75-9.976563-3.984375-.382812-7.449219 2.71875-7.449219 6.722657v109.277343c0 4.351563 3.527344 7.875 7.875 7.875h496.253906c4.347656 0 7.875-3.523437 7.875-7.875v-109.277343c0-4.003907-3.464844-7.105469-7.449218-6.722657-18.453126 1.769532-20.914063 9.976563-43.757813 9.976563-25.605469 0-25.605469-10.308594-51.207031-10.308594zm0 0" fill="#69e6ed"/><path d="m409.589844 343.957031c-25.597656 0-25.597656 10.308594-51.199219 10.308594s-25.601563-10.308594-51.199219-10.308594-25.597656 10.308594-51.199218 10.308594c-25.597657 0-25.597657-10.308594-51.195313-10.308594-25.601563 0-25.601563 10.308594-51.199219 10.308594-25.601562 0-25.601562-10.308594-51.199218-10.308594-25.601563 0-25.601563 10.308594-51.199219 10.308594-25.597657 0-25.597657-10.308594-51.199219-10.308594v77.113281c0 4.351563 3.527344 7.875 7.875 7.875h496.25c4.351562 0 7.875-3.523437 7.875-7.875v-77.113281c-25.601562 0-25.601562 10.308594-51.203125 10.308594-25.605469 0-25.605469-10.308594-51.207031-10.308594zm0 0" fill="#33d8dd"/><path d="m409.589844 384.589844c-25.597656 0-25.597656 10.308594-51.199219 10.308594s-25.601563-10.308594-51.199219-10.308594-25.597656 10.308594-51.199218 10.308594c-25.597657 0-25.597657-10.308594-51.195313-10.308594-25.601563 0-25.601563 10.308594-51.199219 10.308594-25.601562 0-25.601562-10.308594-51.199218-10.308594-25.601563 0-25.601563 10.308594-51.199219 10.308594-25.597657 0-25.597657-10.308594-51.199219-10.308594v36.480468c0 4.347657 3.527344 7.875 7.875 7.875h496.25c4.351562 0 7.875-3.527343 7.875-7.875v-36.480468c-25.601562 0-25.601562 10.308594-51.203125 10.308594-25.605469 0-25.605469-10.308594-51.207031-10.308594zm0 0" fill="#69e6ed"/></svg>