<svg height="512pt" viewBox="-49 0 512 512" width="512pt" xmlns="http://www.w3.org/2000/svg"><path d="m320.023438 315.355469v-253.195313c0-34.332031-27.828126-62.160156-62.15625-62.160156-34.332032 0-62.160157 27.828125-62.160157 62.160156v253.195313c-27.8125 19.566406-45.984375 51.910156-45.984375 88.5 0 59.726562 48.417969 108.144531 108.144532 108.144531 59.726562 0 108.144531-48.417969 108.144531-108.144531 0-36.589844-18.175781-68.933594-45.988281-88.5zm0 0" fill="#d8d8d8"/><path d="m257.867188 476.582031c-41.183594 0-74.6875-33.507812-74.6875-74.6875 0-31.273437 19.433593-59.117187 48.59375-69.980469v-269.753906c0-14.390625 11.703124-26.09375 26.09375-26.09375 14.386718 0 26.09375 11.703125 26.09375 26.09375v269.753906c29.15625 10.859376 48.59375 38.703126 48.59375 69.976563 0 41.183594-33.503907 74.691406-74.6875 74.691406zm0 0" fill="#f3e8d7"/><path d="m231.769531 298.847656v33.066406c-29.15625 10.863282-48.59375 38.707032-48.59375 69.980469 0 41.179688 33.507813 74.6875 74.691407 74.6875 41.179687 0 74.6875-33.507812 74.6875-74.6875 0-31.273437-19.4375-59.117187-48.59375-69.980469v-33.066406zm0 0" fill="#69e6ed"/><path d="m283.960938 331.914062v-33.066406h-52.1875v33.066406s36.074218 16.738282 36.074218 69.980469c0 29.597657-17.308594 55.230469-42.335937 67.308594 9.792969 4.726563 20.769531 7.378906 32.355469 7.378906 41.179687 0 74.6875-33.507812 74.6875-74.6875 0-31.277343-19.4375-59.117187-48.59375-69.980469zm0 0" fill="#33d8dd"/><g fill="#0d6e9a"><path d="m406.121094 180.21875h-44.824219c-4.269531 0-7.726563-3.460938-7.726563-7.726562 0-4.265626 3.457032-7.726563 7.726563-7.726563h44.824219c4.265625 0 7.722656 3.460937 7.722656 7.726563.003906 4.265624-3.457031 7.726562-7.722656 7.726562zm0 0"/><path d="m381.648438 117.597656h-20.351563c-4.269531 0-7.726563-3.460937-7.726563-7.726562s3.457032-7.726563 7.726563-7.726563h20.351563c4.265624 0 7.726562 3.460938 7.726562 7.726563s-3.460938 7.726562-7.726562 7.726562zm0 0"/><path d="m388.859375 54.976562h-27.5625c-4.269531 0-7.726563-3.460937-7.726563-7.726562s3.457032-7.726562 7.726563-7.726562h27.5625c4.269531 0 7.726563 3.460937 7.726563 7.726562s-3.457032 7.726562-7.726563 7.726562zm0 0"/><path d="m388.859375 305.460938h-27.5625c-4.269531 0-7.726563-3.460938-7.726563-7.726563 0-4.269531 3.457032-7.726563 7.726563-7.726563h27.5625c4.269531 0 7.726563 3.457032 7.726563 7.726563 0 4.265625-3.457032 7.726563-7.726563 7.726563zm0 0"/><path d="m381.648438 242.839844h-20.351563c-4.269531 0-7.726563-3.460938-7.726563-7.726563s3.457032-7.726562 7.726563-7.726562h20.351563c4.265624 0 7.726562 3.460937 7.726562 7.726562s-3.460938 7.726563-7.726562 7.726563zm0 0"/></g><path d="m151.679688 153.894531-13.1875-7.382812 9.695312-3.972657c3.949219-1.617187 5.839844-6.128906 4.222656-10.074218-1.617187-3.949219-6.132812-5.839844-10.078125-4.222656l-21.0625 8.628906-27.640625-15.476563 27.640625-15.476562 21.0625 8.628906c.960938.390625 1.949219.578125 2.925781.578125 3.042969 0 5.929688-1.8125 7.152344-4.800781 1.617188-3.949219-.273437-8.460938-4.21875-10.078125l-9.695312-3.972656 13.183594-7.382813c3.722656-2.085937 5.050781-6.792969 2.964843-10.515625-2.082031-3.722656-6.789062-5.050781-10.515625-2.96875l-13.183594 7.382812 1.679688-10.339843c.6875-4.214844-2.171875-8.183594-6.386719-8.867188-4.207031-.6875-8.179687 2.175781-8.863281 6.386719l-3.652344 22.464844-28.179687 15.78125v-32.296875l17.816406-14.164063c3.34375-2.652344 3.898437-7.515625 1.242187-10.855468-2.652343-3.339844-7.515624-3.894532-10.855468-1.242188l-8.203125 6.523438v-15.113282c0-4.265625-3.457031-7.726562-7.726563-7.726562-4.265625 0-7.726562 3.460937-7.726562 7.726562v15.113282l-8.203125-6.519532c-3.339844-2.65625-8.199219-2.101562-10.855469 1.238282-2.652344 3.34375-2.097656 8.203124 1.242188 10.859374l17.816406 14.160157v32.296875l-28.179688-15.78125-3.652344-22.464844c-.683593-4.210938-4.652343-7.074219-8.863281-6.386719-4.214843.683594-7.074219 4.652344-6.386719 8.867188l1.679688 10.339843-13.183594-7.382812c-3.722656-2.082031-8.433594-.753906-10.515625 2.96875-2.085937 3.722656-.757812 8.433594 2.964844 10.515625l13.1875 7.382813-9.699219 3.972656c-3.945312 1.617187-5.835937 6.128906-4.21875 10.078125 1.222656 2.988281 4.109375 4.800781 7.152344 4.800781.976562 0 1.96875-.1875 2.925781-.578125l21.0625-8.628906 27.640625 15.476562-27.640625 15.476563-21.0625-8.628906c-3.953125-1.617188-8.460937.273437-10.078125 4.222656-1.617187 3.945312.273438 8.460937 4.21875 10.074218l9.695313 3.972657-13.183594 7.382812c-3.722656 2.085938-5.050781 6.792969-2.96875 10.515625 1.417969 2.53125 4.042969 3.953125 6.75 3.953125 1.277344 0 2.574219-.316406 3.769531-.984375l13.183594-7.382812-1.679688 10.34375c-.6875 4.210937 2.171876 8.179687 6.386719 8.867187.417969.066407.835938.101563 1.246094.101563 3.722656 0 7.003906-2.699219 7.617187-6.488282l3.652344-22.46875 28.179688-15.777343v32.296875l-17.820313 14.160156c-3.339843 2.65625-3.894531 7.515625-1.238281 10.855469 2.652344 3.34375 7.515625 3.898437 10.855469 1.242187l8.203125-6.519531v15.113281c0 4.265625 3.457031 7.722656 7.726562 7.722656 4.265625 0 7.726563-3.457031 7.726563-7.722656v-15.113281l8.203125 6.519531c1.421875 1.128906 3.113281 1.679688 4.800781 1.679688 2.273437 0 4.527344-1 6.050781-2.921875 2.65625-3.339844 2.101563-8.199219-1.238281-10.855469l-17.820313-14.160156v-32.296875l28.179688 15.777343 3.652344 22.46875c.613281 3.792969 3.894531 6.488282 7.617187 6.488282.410157 0 .828125-.035156 1.246094-.101563 4.214844-.6875 7.074219-4.65625 6.390625-8.867187l-1.683594-10.34375 13.1875 7.382812c1.191406.667969 2.488282.984375 3.765625.984375 2.707031 0 5.332031-1.421875 6.75-3.953125 2.085938-3.722656.757813-8.429687-2.964843-10.515625zm0 0" fill="#33d8dd"/></svg>