<svg height="512pt" viewBox="0 -50 512.001 512" width="512pt" xmlns="http://www.w3.org/2000/svg"><path d="m447.425781 134.042969h43.332031c6.949219 0 12.582032-5.632813 12.582032-12.582031v-15.457032c0-6.949218-5.632813-12.585937-12.582032-12.585937h-30.75c-6.949218 0-12.582031 5.636719-12.582031 12.585937zm0 0" fill="#09627a"/><path d="m64.574219 134.042969h-43.332031c-6.949219 0-12.582032-5.632813-12.582032-12.582031v-15.457032c0-6.949218 5.632813-12.585937 12.582032-12.585937h30.75c6.949218 0 12.582031 5.636719 12.582031 12.585937zm0 0" fill="#0d6e9a"/><path d="m409.589844 263.996094c-25.601563 0-25.601563 10.613281-51.199219 10.613281-25.601563 0-25.601563-10.613281-51.199219-10.613281-25.601562 0-25.601562 10.613281-51.199218 10.613281-25.597657 0-25.597657-10.613281-51.195313-10.613281-25.601563 0-25.601563 10.613281-51.203125 10.613281-25.597656 0-25.597656-10.613281-51.195312-10.613281-25.601563 0-25.601563 10.613281-51.199219 10.613281-22.84375 0-25.304688-8.449219-43.75-10.269531-3.984375-.394532-7.449219 2.796875-7.449219 6.917968v132.441407c0 4.476562 3.527344 8.109375 7.875 8.109375h496.25c4.351562 0 7.875-3.632813 7.875-8.109375v-132.441407c0-4.121093-3.460938-7.3125-7.445312-6.921874-18.453126 1.824218-20.914063 10.273437-43.757813 10.273437-25.605469 0-25.605469-10.613281-51.207031-10.613281zm0 0" fill="#69e6ed"/><path d="m65.863281 271.46875c-.582031 0-1.160156-.015625-1.738281-.046875v52.09375c0 14.285156 11.582031 25.867187 25.867188 25.867187h38.339843c14.285157 0 25.863281-11.582031 25.863281-25.867187v-52.046875zm0 0" fill="#575d60"/><path d="m359.542969 271.46875c-.582031 0-1.164063-.015625-1.738281-.046875v52.09375c0 14.285156 11.578124 25.867187 25.863281 25.867187h38.339843c14.285157 0 25.867188-11.582031 25.867188-25.867187v-52.046875zm0 0" fill="#575d60"/><path d="m382.691406 271.46875v55.738281c0 8.050781-3.679687 15.238281-9.445312 19.984375 3.191406 1.40625 6.714844 2.191406 10.425781 2.191406h38.339844c14.285156 0 25.863281-11.578124 25.863281-25.863281v-52.050781zm0 0" fill="#464c50"/><path d="m89.011719 271.46875v55.738281c0 8.050781-3.675781 15.238281-9.441407 19.984375 3.1875 1.40625 6.710938 2.191406 10.421876 2.191406h38.339843c14.285157 0 25.863281-11.578124 25.863281-25.863281v-52.050781zm0 0" fill="#464c50"/><path d="m452.136719 130.214844-32.027344-100.914063c-5.5625-17.527343-21.648437-29.300781-40.039063-29.300781h-248.121093c-18.386719 0-34.476563 11.777344-40.035157 29.300781l-31.421874 99.007813c-.195313.621094-.367188 1.25-.523438 1.878906l392.179688.070312c-.003907-.015624-.007813-.027343-.011719-.042968zm0 0" fill="#fc4e51"/><path d="m354.949219 29.300781 32.027343 100.914063c.003907.011718.007813.023437.011719.03125l65.160157.011718c-.003907-.011718-.007813-.027343-.011719-.042968l-32.027344-100.914063c-5.5625-17.527343-21.648437-29.300781-40.039063-29.300781h-65.15625c18.386719 0 34.476563 11.773438 40.035157 29.300781zm0 0" fill="#e5394b"/><path d="m393.089844 43.140625c-2.410156-7.59375-9.378906-12.695313-17.347656-12.695313h-239.457032c-7.96875 0-14.9375 5.101563-17.347656 12.695313l-25.25 79.5625h324.65625zm0 0" fill="#69e6ed"/><path d="m393.089844 43.140625c-2.410156-7.59375-9.378906-12.695313-17.347656-12.695313h-64.898438c7.964844 0 14.9375 5.101563 17.34375 12.695313l25.253906 79.5625h64.898438zm0 0" fill="#33d8dd"/><path d="m443.90625 285.941406h-378.746094c-21.421875 0-38.789062-17.367187-38.789062-38.792968v-55.285157c0-32.171875 26.078125-69.160156 58.25-69.160156h342.757812c32.171875 0 58.25 36.988281 58.25 69.160156v52.351563c0 23.042968-18.679687 41.726562-41.722656 41.726562zm0 0" fill="#fc4e51"/><path d="m335.257812 261.191406h-158.242187c-5.414063 0-9.4375-5.019531-8.257813-10.304687l8.179688-36.722657c.863281-3.867187 4.296875-6.621093 8.261719-6.621093h141.878906c3.964844 0 7.398437 2.753906 8.261719 6.621093l8.179687 36.722657c1.175781 5.285156-2.84375 10.304687-8.261719 10.304687zm0 0" fill="#d8d8d8"/><path d="m427.378906 122.703125h-64.644531c32.171875 0 58.25 36.988281 58.25 69.160156v52.351563c0 23.042968-18.679687 41.722656-41.722656 41.722656h64.644531c23.042969 0 41.722656-18.679688 41.722656-41.722656v-52.351563c0-32.171875-26.078125-69.160156-58.25-69.160156zm0 0" fill="#e5394b"/><path d="m84.714844 205.527344 26.40625 3.199218c7.324218.890626 13.640625 5.5625 16.632812 12.304688 6.542969 14.75-5.34375 31.050781-21.386718 29.332031l-26.300782-2.820312c-8.542968-.917969-15.660156-6.953125-17.957031-15.234375l-.105469-.382813c-3.988281-14.378906 7.898438-28.195312 22.710938-26.398437zm0 0" fill="#fccf3f"/><path d="m427.558594 205.527344-26.40625 3.199218c-7.324219.890626-13.636719 5.5625-16.628906 12.304688-6.546876 14.75 5.339843 31.050781 21.382812 29.332031l26.300781-2.820312c8.542969-.917969 15.660157-6.953125 17.957031-15.234375l.105469-.382813c3.992188-14.378906-7.898437-28.195312-22.710937-26.398437zm0 0" fill="#fccf3f"/><path d="m427.378906 122.703125h-342.757812c-8.351563 0-16.285156 2.507813-23.46875 6.765625l19.070312 34.347656c5.675782 10.222656 18.082032 16.78125 31.742188 16.78125h288.34375c13.664062 0 26.070312-6.558594 31.742187-16.78125l19-34.222656c-7.234375-4.332031-15.238281-6.890625-23.671875-6.890625zm0 0" fill="#e5394b"/><path d="m7.875 411.808594h496.25c4.351562 0 7.875-3.632813 7.875-8.109375v-85.3125c-25.601562 0-25.601562 10.617187-51.203125 10.617187-25.605469 0-25.605469-10.617187-51.207031-10.617187-25.601563 0-25.601563 10.617187-51.199219 10.617187-25.601563 0-25.601563-10.617187-51.199219-10.617187-25.601562 0-25.601562 10.617187-51.199218 10.617187-25.597657 0-25.597657-10.617187-51.195313-10.617187-25.601563 0-25.601563 10.617187-51.203125 10.617187-25.597656 0-25.597656-10.617187-51.195312-10.617187-25.601563 0-25.601563 10.617187-51.199219 10.617187-25.601563 0-25.601563-10.617187-51.199219-10.617187v85.3125c0 4.476562 3.527344 8.109375 7.875 8.109375zm0 0" fill="#33d8dd"/><path d="m7.875 411.808594h496.25c4.351562 0 7.875-3.632813 7.875-8.109375v-43.074219c-25.601562 0-25.601562 10.617188-51.203125 10.617188-25.605469 0-25.605469-10.617188-51.207031-10.617188-25.601563 0-25.601563 10.617188-51.199219 10.617188-25.601563 0-25.601563-10.617188-51.199219-10.617188s-25.597656 10.617188-51.199218 10.617188c-25.597657 0-25.597657-10.617188-51.195313-10.617188-25.601563 0-25.601563 10.617188-51.199219 10.617188-25.601562 0-25.601562-10.617188-51.199218-10.617188-25.601563 0-25.601563 10.617188-51.199219 10.617188-25.597657 0-25.597657-10.617188-51.199219-10.617188v43.074219c0 4.476562 3.527344 8.109375 7.875 8.109375zm0 0" fill="#69e6ed"/><path d="m419.027344 176.113281c5.585937-2.921875 10.164062-7.140625 13.023437-12.296875l19-34.226562c-.890625-.53125-1.789062-1.035156-2.703125-1.511719-.019531-.011719-.039062-.023437-.058594-.03125-.800781-.417969-1.613281-.8125-2.433593-1.183594-.140625-.066406-.28125-.136719-.425781-.199219-.445313-.195312-.890626-.386718-1.339844-.574218-.527344-.214844-1.054688-.421875-1.585938-.617188-.378906-.136718-.757812-.269531-1.140625-.402344-.609375-.207031-1.21875-.402343-1.835937-.585937-.300782-.085937-.605469-.167969-.910156-.253906-.695313-.1875-1.394532-.363281-2.097657-.519531-.222656-.050782-.449219-.09375-.671875-.136719-.785156-.160157-1.570312-.304688-2.359375-.421875-.148437-.019532-.292969-.035156-.441406-.058594-.863281-.117188-1.730469-.214844-2.605469-.277344-.074218-.003906-.144531-.007812-.21875-.011718-.941406-.0625-1.890625-.101563-2.84375-.101563h-64.644531c26.988281 0 49.679687 26.03125 56.292969 53.410156zm0 0" fill="#d13047"/><path d="m170.714844 242.09375h170.84375l-3.441406-15.453125h-163.960938zm0 0" fill="#e7eced"/></svg>