<svg height="512pt" viewBox="0 -16 512 511" width="512pt" xmlns="http://www.w3.org/2000/svg"><path d="m158.808594 205.21875c-.941406 0-1.898438-.171875-2.828125-.539062-3.972657-1.5625-5.921875-6.050782-4.359375-10.019532l26.976562-68.464844c1.5625-3.96875 6.054688-5.917968 10.019532-4.355468 3.972656 1.5625 5.921874 6.050781 4.355468 10.019531l-26.972656 68.464844c-1.199219 3.039062-4.109375 4.894531-7.191406 4.894531zm0 0" fill="#e88c38"/><path d="m259.484375 303.339844h-29.117187c-3.699219 0-6.695313-2.996094-6.695313-6.695313v-13.417969c0-3.699218 2.996094-6.695312 6.695313-6.695312h14.402343c8.125 0 14.714844 6.585938 14.714844 14.714844zm0 0" fill="#09627a"/><path d="m471.917969 303.339844h29.117187c3.699219 0 6.695313-2.996094 6.695313-6.695313v-13.417969c0-3.699218-2.996094-6.695312-6.695313-6.695312h-14.402344c-8.125 0-14.714843 6.585938-14.714843 14.714844zm0 0" fill="#09627a"/><path d="m258.835938 379.46875c-.328126 0-.65625-.007812-.976563-.023438v30.160157c0 8.273437 6.503906 14.976562 14.53125 14.976562h21.542969c8.027344 0 14.535156-6.707031 14.535156-14.976562v-30.132813h-49.632812zm0 0" fill="#575d60"/><path d="m423.847656 379.46875c-.328125 0-.652344-.007812-.976562-.023438v30.160157c0 8.273437 6.507812 14.976562 14.535156 14.976562h21.542969c8.023437 0 14.53125-6.707031 14.53125-14.976562v-30.132813h-49.632813zm0 0" fill="#575d60"/><path d="m475.878906 304.933594-16.96875-80.972656c-3.125-13.167969-12.164062-16.863282-22.496094-16.863282h-141.476562c-10.332031 0-19.371094 3.695313-22.496094 16.863282 0 0-16.832031 80.480468-16.921875 80.953124l220.363281.054688c0-.011719-.003906-.023438-.003906-.035156zm0 0" fill="#fc4e51"/><path d="m395.726562 223.960938 16.964844 80.972656c0 .007812.003906.011718.003906.015625l63.1875.015625c0-.007813-.003906-.019532-.003906-.03125l-16.96875-80.972656c-3.125-13.167969-12.164062-16.863282-22.496094-16.863282h-63.183593c10.332031 0 19.371093 3.695313 22.496093 16.863282zm0 0" fill="#e5394b"/><path d="m285.015625 311.730469 12.765625-72.371094c.453125-2.570313 2.6875-4.445313 5.300781-4.445313h125.1875c2.613281 0 4.847657 1.875 5.300781 4.445313l12.796876 72.410156zm0 0" fill="#69e6ed"/><path d="m446.367188 311.769531-12.792969-72.410156c-.457031-2.570313-2.691407-4.445313-5.300781-4.445313h-60.902344l13.574218 76.839844zm0 0" fill="#33d8dd"/><path d="m471.253906 385.785156h-212.816406c-12.035156 0-21.792969-10.054687-21.792969-22.457031v-25.828125c0-18.628906 14.652344-40.042969 32.726563-40.042969h192.59375c18.078125 0 32.730468 21.414063 32.730468 40.042969v24.128906c0 13.34375-10.496093 24.15625-23.441406 24.15625zm0 0" fill="#fc4e51"/><path d="m461.964844 297.457031h-64.902344c18.078125 0 32.730469 21.417969 32.730469 40.042969v24.132812c0 13.339844-10.496094 24.15625-23.445313 24.15625h64.902344c12.949219 0 23.445312-10.816406 23.445312-24.15625v-24.132812c0-18.625-14.652343-40.042969-32.730468-40.042969zm0 0" fill="#e5394b"/><path d="m455.566406 331.144531-10.9375 1.144531c-4.582031.480469-8.496094 3.613282-10.078125 8.070313l-.023437.066406c-3.058594 8.621094 3.71875 17.554688 12.574218 16.574219l10.960938-1.210938c4.652344-.511718 8.59375-3.761718 10.101562-8.324218 2.824219-8.546875-3.882812-17.234375-12.597656-16.320313zm0 0" fill="#fccf3f"/><path d="m275.773438 331.144531 10.9375 1.144531c4.582031.480469 8.496093 3.613282 10.078124 8.070313l.023438.066406c3.054688 8.621094-3.722656 17.554688-12.578125 16.574219l-10.957031-1.210938c-4.65625-.511718-8.59375-3.761718-10.101563-8.324218-2.824219-8.546875 3.882813-17.234375 12.597657-16.320313zm0 0" fill="#fccf3f"/><path d="m405.226562 359.214844h-79.113281c-4.015625 0-6.957031-3.902344-5.957031-7.914063l3.558594-14.265625c.695312-2.800781 3.148437-4.761718 5.957031-4.761718h71.996094c2.808593 0 5.257812 1.960937 5.957031 4.761718l3.554688 14.265625c1.003906 4.011719-1.9375 7.914063-5.953126 7.914063zm0 0" fill="#d8d8d8"/><path d="m59.914062 57.957031 6.566407 14.253907c5.933593 12.875 20.421875 19.433593 34.007812 15.394531l2.070313-.613281c11.882812-3.53125 20.121094-14.335938 20.378906-26.730469l.265625-12.867188c.3125-15.007812-11.070313-27.6875-26.027344-28.988281l-8.90625-.773438c-9.304687-.808593-18.417969 2.992188-24.386719 10.175782-7.023437 8.445312-8.566406 20.171875-3.96875 30.148437zm0 0" fill="#949493"/><path d="m166.570312 222.421875 3.484376 14.230469c3.148437 12.847656 15.257812 21.433594 28.421874 20.148437l2.003907-.199219c11.515625-1.121093 20.984375-9.558593 23.421875-20.867187l2.53125-11.738281c2.957031-13.699219-5.222656-27.339844-18.695313-31.1875l-8.019531-2.292969c-8.382812-2.394531-17.40625-.53125-24.152344 4.992187-7.933594 6.488282-11.433594 16.960938-8.996094 26.914063zm0 0" fill="#949493"/><path d="m213.226562 51.65625-82.355468 64.058594c-2.011719 1.5625-1.554688 4.722656.8125 5.65625l98.886718 38.960937c2.371094.933594 4.855469-1.066406 4.453126-3.582031l-16.53125-103.019531c-.394532-2.464844-3.289063-3.609375-5.265626-2.074219zm0 0" fill="#8fd143"/><path d="m223.457031 25.691406-65.828125 51.203125c-2.011718 1.5625-1.554687 4.722657.8125 5.65625l79.042969 31.140625c2.367187.933594 4.855469-1.0625 4.453125-3.582031l-13.214844-82.339844c-.394531-2.46875-3.289062-3.613281-5.265625-2.078125zm0 0" fill="#7bb72e"/><path d="m233.109375 1.195312-48.832031 37.984376c-2.011719 1.5625-1.558594 4.71875.8125 5.65625l58.632812 23.101562c2.371094.933594 4.855469-1.066406 4.453125-3.582031l-9.800781-61.085938c-.394531-2.464843-3.289062-3.609375-5.265625-2.074219zm0 0" fill="#8fd143"/><path d="m273.449219 382.867188c-15.273438-67.75-93.558594-49.191407-93.558594-132.914063 0-96.226563-83.878906-63.21875-83.878906-151.691406 0-63.777344-61.0625-89.574219-85.644531-97.375-5-1.585938-10.082032 2.183593-10.085938 7.496093l-.28125 414.78125c-.0078125 8.039063 5.890625 14.5625 13.164062 14.558594l262.136719-.179687.269531-33.664063c.058594-7.09375-.585937-14.1875-2.121093-21.011718zm0 0" fill="#a05e44"/><path d="m273.449219 382.867188c-15.273438-67.75-93.558594-49.191407-93.558594-132.914063 0-96.226563-83.878906-63.21875-83.878906-151.691406 0-63.78125-61.0625-89.574219-85.644531-97.375-1.390626-.441407-2.78125-.457031-4.074219-.152344 13.910156 21.589844 24.816406 52.386719 24.816406 88.058594 0 88.46875 83.878906 83.476562 83.878906 179.703125 0 83.726562 78.285157 65.164062 93.558594 132.914062 1.539063 6.824219 2.179687 13.917969 2.121094 21.011719l-.121094 15.164063 64.753906-.042969.269531-33.664063c.058594-7.09375-.585937-14.1875-2.121093-21.011718zm0 0" fill="#8c4d34"/><path d="m493.753906 479.371094h-475.507812c-10.074219 0-18.246094-8.171875-18.246094-18.25v-37.957032h474.042969c20.964843 0 37.957031 16.992188 37.957031 37.957032 0 10.078125-8.171875 18.25-18.246094 18.25zm0 0" fill="#7bb72e"/></svg>