<svg height="512pt" viewBox="0 -24 512.001 512" width="512pt" xmlns="http://www.w3.org/2000/svg"><path d="m55.855469 288.355469h-29.117188c-3.699219 0-6.695312-2.996094-6.695312-6.695313v-13.417968c0-3.699219 2.996093-6.695313 6.695312-6.695313h14.402344c8.125 0 14.714844 6.585937 14.714844 14.714844zm0 0" fill="#09627a"/><path d="m268.289062 288.355469h29.117188c3.699219 0 6.695312-2.996094 6.695312-6.695313v-13.417968c0-3.699219-2.996093-6.695313-6.695312-6.695313h-14.402344c-8.125 0-14.714844 6.585937-14.714844 14.714844zm0 0" fill="#09627a"/><path d="m55.203125 364.484375c-.324219 0-.652344-.007813-.972656-.023437v30.160156c0 8.269531 6.503906 14.976562 14.53125 14.976562h21.542969c8.027343 0 14.535156-6.707031 14.535156-14.976562v-30.136719zm0 0" fill="#575d60"/><path d="m220.21875 364.484375c-.328125 0-.652344-.007813-.976562-.023437v30.160156c0 8.269531 6.507812 14.976562 14.535156 14.976562h21.542968c8.023438 0 14.53125-6.707031 14.53125-14.976562v-30.136719zm0 0" fill="#575d60"/><path d="m272.246094 289.949219-16.964844-80.972657c-3.125-13.167968-12.164062-16.863281-22.496094-16.863281h-141.476562c-10.332032 0-19.371094 3.695313-22.496094 16.863281 0 0-16.832031 80.480469-16.921875 80.953126l220.363281.050781c0-.007813-.003906-.019531-.007812-.03125zm0 0" fill="#fc4e51"/><path d="m192.097656 208.976562 16.964844 80.972657c0 .003906 0 .011719.003906.015625l63.1875.015625c-.003906-.011719-.003906-.019531-.007812-.03125l-16.964844-80.972657c-3.125-13.167968-12.164062-16.863281-22.496094-16.863281h-63.183594c10.332032 0 19.371094 3.695313 22.496094 16.863281zm0 0" fill="#e5394b"/><path d="m81.386719 296.746094 12.765625-72.371094c.453125-2.570312 2.6875-4.445312 5.300781-4.445312h125.1875c2.613281 0 4.847656 1.875 5.300781 4.445312l12.796875 72.410156zm0 0" fill="#69e6ed"/><path d="m242.738281 296.785156-12.792969-72.410156c-.457031-2.570312-2.691406-4.445312-5.300781-4.445312h-59.359375l13.578125 76.839843zm0 0" fill="#33d8dd"/><path d="m267.621094 370.800781h-212.8125c-12.035156 0-21.792969-10.054687-21.792969-22.457031v-25.828125c0-18.628906 14.652344-40.042969 32.726563-40.042969h192.59375c18.078124 0 32.730468 21.414063 32.730468 40.042969v24.128906c0 13.34375-10.496094 24.15625-23.445312 24.15625zm0 0" fill="#fc4e51"/><path d="m258.335938 282.472656h-64.902344c18.078125 0 32.730468 21.417969 32.730468 40.042969v24.128906c0 13.34375-10.496093 24.160157-23.445312 24.160157h64.902344c12.949218 0 23.445312-10.816407 23.445312-24.160157v-24.128906c0-18.625-14.652344-40.042969-32.730468-40.042969zm0 0" fill="#e5394b"/><path d="m251.9375 316.15625-10.9375 1.148438c-4.582031.480468-8.496094 3.613281-10.078125 8.070312l-.023437.066406c-3.058594 8.617188 3.71875 17.550782 12.574218 16.574219l10.960938-1.210937c4.652344-.515626 8.59375-3.761719 10.101562-8.328126 2.824219-8.542968-3.882812-17.230468-12.597656-16.320312zm0 0" fill="#fccf3f"/><path d="m72.144531 316.15625 10.9375 1.148438c4.582031.480468 8.496094 3.613281 10.078125 8.070312l.023438.066406c3.054687 8.617188-3.722656 17.550782-12.578125 16.574219l-10.957031-1.210937c-4.65625-.515626-8.59375-3.761719-10.101563-8.328126-2.824219-8.542968 3.882813-17.230468 12.597656-16.320312zm0 0" fill="#fccf3f"/><path d="m201.597656 344.230469h-79.113281c-4.015625 0-6.957031-3.90625-5.957031-7.914063l3.558594-14.265625c.695312-2.804687 3.148437-4.761719 5.953124-4.761719h72c2.808594 0 5.257813 1.957032 5.957032 4.761719l3.554687 14.265625c1.003907 4.007813-1.9375 7.914063-5.953125 7.914063zm0 0" fill="#d8d8d8"/><path d="m403.292969 277.589844 45.226562-20.417969c3.171875-1.433594 4.085938-5.507813 1.835938-8.160156l-40.046875-47.175781-.410156-125.027344-6.875.191406-22.367188 93.605469-66.058594-77.890625-15.648437 10.339844 43.351562 71.160156-91.0625 15.90625.511719 16.234375 110.734375 3.335937zm0 0" fill="#c1752f"/><path d="m409.015625 13.4375c-10.273437-3.988281-21.152344-3.714844-30.683594-.042969-4.222656-3.085937-8.90625-5.6875-14.015625-7.667969-16-6.210937-33.011718-5.226562-47.492187 1.359376-1.84375-.917969-3.738281-1.769532-5.695313-2.53125-34.5-13.382813-73.316406 3.730468-86.703125 38.230468-3.222656 8.304688-4.660156 16.859375-4.53125 25.25-12.917969 6.800782-23.542969 18.101563-29.238281 32.78125-8.921875 23.003906-3.351562 48.046875 12.257812 65.085938-7.371093 21.496094 3.492188 45.164062 24.867188 53.457031 21.914062 8.503906 46.574219-2.371094 55.078125-24.285156 2.617187-6.742188 3.394531-13.742188 2.582031-20.453125 52.113282-15.570313 40.113282-52.882813 40.113282-52.882813 26.179687 7.414063 53.945312-3.480469 68.277343-26.058593 16.96875-.089844 32.953125-10.382813 39.46875-27.164063 8.503907-21.914063-2.371093-46.574219-24.285156-55.078125zm0 0" fill="#8fd143"/><path d="m409.015625 13.4375c-10.273437-3.988281-21.152344-3.714844-30.683594-.042969-4.222656-3.085937-8.90625-5.6875-14.015625-7.667969-16-6.210937-33.011718-5.226562-47.492187 1.359376-1.84375-.917969-3.738281-1.769532-5.695313-2.53125-34.496094-13.382813-73.316406 3.730468-86.703125 38.230468-3.222656 8.304688-4.660156 16.859375-4.53125 25.25 14.996094-5.757812 32.09375-6.179687 48.246094.089844 1.957031.757812 3.851563 1.609375 5.695313 2.527344 14.480468-6.585938 31.492187-7.566406 47.492187-1.359375 5.109375 1.984375 9.792969 4.582031 14.015625 7.667969 37.582031-14.105469 58.488281 18.71875 58.488281 18.71875 16.972657-.089844 32.957031-10.382813 39.46875-27.164063 8.503907-21.914063-2.371093-46.574219-24.285156-55.078125zm0 0" fill="#7bb72e"/><path d="m403.292969 277.589844-12.484375 142.792968h82.359375l-14.273438-129.429687c-.257812-2.320313-2.019531-4.191406-4.320312-4.585937zm0 0" fill="#c1752f"/><path d="m18.246094 464.386719h475.507812c10.078125 0 18.246094-8.171875 18.246094-18.25 0-20.964844-16.992188-37.957031-37.957031-37.957031h-436.085938c-20.964843 0-37.957031 16.992187-37.957031 37.957031 0 10.078125 8.171875 18.25 18.246094 18.25zm0 0" fill="#7bb72e"/></svg>