<svg height="512pt" viewBox="0 -24 512.001 512" width="512pt" xmlns="http://www.w3.org/2000/svg"><path d="m260.578125 412.609375h-221.992187v-181.222656l110.996093-70.265625 110.996094 70.265625zm0 0" fill="#efefef"/><path d="m149.582031 161.121094-32.449219 20.542968 72.648438 45.988282c3.671875 2.324218 5.894531 6.367187 5.894531 10.710937v174.246094h64.902344v-181.222656zm0 0" fill="#d8d8d8"/><path d="m145.671875 146.996094-139 87.992187c-4.152344 2.628907-6.671875 7.207031-6.671875 12.121094 0 11.304687 12.46875 18.167969 22.019531 12.125l123.652344-78.277344c2.386719-1.511719 5.433594-1.511719 7.824219 0l123.648437 78.277344c9.554688 6.046875 22.019531-.816406 22.019531-12.125 0-4.914063-2.515624-9.492187-6.671874-12.121094l-138.996094-87.992187c-2.390625-1.511719-5.4375-1.511719-7.824219 0zm0 0" fill="#fc4e51"/><path d="m143.1875 408.636719h-73.703125v-108.90625c0-3.796875 3.078125-6.875 6.878906-6.875h59.945313c3.800781 0 6.878906 3.078125 6.878906 6.875zm0 0" fill="#912c2c"/><path d="m227.804688 340.28125h-53.121094c-3.125 0-5.660156-2.535156-5.660156-5.664062v-36.101563c0-3.125 2.535156-5.660156 5.660156-5.660156h53.121094c3.128906 0 5.664062 2.53125 5.664062 5.660156v36.101563c0 3.128906-2.535156 5.664062-5.664062 5.664062zm0 0" fill="#69e6ed"/><path d="m395.542969 284.800781 49.527343-21.925781c3.925782-1.738281 5.195313-6.6875 2.589844-10.101562l-38.917968-50.9375-1.035157-130.894532h-7.480469l-21.136718 99.660156-66.058594-77.890624-15.515625 10.234374 45.023437 71.007813-94.195312 16.101563.320312 16.472656 112.609376 3.699218zm0 0" fill="#b26220"/><path d="m407.445312 13.4375c-10.273437-3.988281-21.148437-3.714844-30.683593-.042969-4.222657-3.085937-8.90625-5.6875-14.011719-7.667969-16.003906-6.210937-33.015625-5.226562-47.496094 1.359376-1.84375-.917969-3.734375-1.769532-5.695312-2.53125-34.496094-13.382813-73.316406 3.730468-86.699219 38.226562-3.222656 8.308594-4.664063 16.863281-4.53125 25.253906-12.917969 6.800782-23.542969 18.101563-29.238281 32.78125-8.925782 23-3.355469 48.046875 12.257812 65.085938-7.371094 21.496094 3.488282 45.160156 24.867188 53.453125 21.914062 8.503906 46.574218-2.367188 55.074218-24.28125 2.617188-6.742188 3.394532-13.746094 2.585938-20.457031 48.101562-21.777344 40.109375-52.878907 40.109375-52.878907 26.179687 7.414063 53.945313-3.480469 68.277344-26.058593 16.972656-.089844 32.957031-10.382813 39.46875-27.164063 8.503906-21.914063-2.367188-46.574219-24.285157-55.078125zm0 0" fill="#8fd143"/><path d="m407.445312 13.4375c-10.273437-3.988281-21.148437-3.714844-30.683593-.042969-4.222657-3.085937-8.90625-5.6875-14.011719-7.667969-16.003906-6.210937-33.015625-5.226562-47.496094 1.359376-1.84375-.917969-3.734375-1.769532-5.695312-2.53125-34.496094-13.382813-73.316406 3.730468-86.699219 38.226562-.75 1.933594-1.394531 3.878906-1.953125 5.835938 13.566406-3.886719 28.464844-3.546876 42.640625 1.953124 1.957031.757813 3.847656 1.613282 5.691406 2.53125 14.480469-6.585937 31.492188-7.570312 47.496094-1.359374 5.109375 1.980468 9.789063 4.582031 14.011719 7.667968 9.535156-3.671875 20.410156-3.945312 30.683594.042969 17.421874 6.757813 27.851562 23.730469 27.132812 41.414063 1.308594-1.65625 2.550781-3.378907 3.699219-5.1875 16.972656-.089844 32.957031-10.382813 39.46875-27.164063 8.503906-21.914063-2.367188-46.574219-24.285157-55.078125zm0 0" fill="#7bb72e"/><path d="m395.542969 284.800781-9.222657 135.578125h89.398438l-18.105469-121.300781c-.425781-2.875-2.679687-5.136719-5.554687-5.578125zm0 0" fill="#b26220"/><path d="m18.25 464.839844h475.503906c10.078125 0 18.246094-8.167969 18.246094-18.246094 0-20.964844-16.992188-37.957031-37.957031-37.957031h-436.082031c-20.964844 0-37.95703175 16.992187-37.95703175 37.957031 0 10.078125 8.16796875 18.246094 18.24609375 18.246094zm0 0" fill="#7bb72e"/></svg>