<svg height="511pt" viewBox="0 -7 511.998 511" width="511pt" xmlns="http://www.w3.org/2000/svg"><path d="m97.160156 270.792969-21.296875 37.359375 74.640625 60.222656c2.175782 1.753906 4.625 3.140625 7.25 4.097656l32.828125 11.972656c5.097657 1.859376 9.46875 5.300782 12.46875 9.824219l64.632813 97.402344c5.039062 7.589844 16.285156 7.28125 20.902344-.570313l46.507812-79.160156c2.574219-4.382812 6.402344-7.890625 10.996094-10.074218l36.109375-17.183594c6.082031-2.890625 10.765625-8.078125 13.027343-14.417969l6.457032-18.125c2.339844-6.5625 7.265625-11.878906 13.636718-14.703125l66-29.285156-12.835937-30.242188c-1.765625-4.164062-5.851563-6.871094-10.375-6.875zm0 0" fill="#e7eced"/><path d="m143.050781 303.195312c22.589844 0 22.589844 9.367188 45.179688 9.367188 22.589843 0 22.589843-9.367188 45.179687-9.367188 22.585938 0 22.585938 9.367188 45.175782 9.367188 22.589843 0 22.589843-9.367188 45.179687-9.367188s22.589844 9.367188 45.179687 9.367188c22.585938 0 22.585938-9.367188 45.175782-9.367188 22.59375 0 22.59375 9.367188 45.1875 9.367188 10.902344 0 16.542968-2.179688 22-4.4375l-12.824219-30.214844c-.070313-.171875-.152344-.335937-.230469-.5l-.800781-1.882812c-1.203125-2.824219-3.503906-5.039063-6.375-6.128906l-57.421875-21.8125c-3.296875-1.25-5.816406-3.96875-6.8125-7.351563l-13.667969-46.328125c-.851562-2.878906-2.816406-5.304688-5.457031-6.730469l-56.0625-30.285156c-3.3125-1.789063-5.511719-5.109375-5.867188-8.855469l-3.078124-32.421875c-.316407-3.335937-2.097657-6.355469-4.859376-8.246093l-46.472656-31.785157c-3.824218-2.617187-9.074218-1.296875-11.203125 2.816407l-57.660156 111.210937c-2.28125 4.402344-7.171875 6.796875-12.050781 5.902344l-28.679688-5.277344c-4.714844-.867187-9.464844 1.34375-11.839844 5.507813l-42.785156 75.050781-21.28125 37.332031c5.457032 2.257812 11.097656 4.441406 21.992188 4.441406 22.59375-.003906 22.59375-9.371094 45.179687-9.371094zm0 0" fill="#69e6ed"/><path d="m468.484375 277.910156c-.070313-.171875-.152344-.335937-.230469-.5l-.800781-1.882812c-1.203125-2.824219-3.503906-5.039063-6.375-6.128906l-57.421875-21.8125c-3.296875-1.25-5.816406-3.96875-6.8125-7.351563l-13.667969-46.328125c-.851562-2.878906-2.816406-5.304688-5.457031-6.730469l-56.0625-30.285156c-3.3125-1.789063-5.511719-5.109375-5.867188-8.855469l-3.078124-32.421875c-.316407-3.335937-2.097657-6.355469-4.859376-8.246093l-46.472656-31.785157c-1.8125-1.242187-3.941406-1.585937-5.910156-1.179687l-2.308594 73.628906c.355469 3.746094 2.554688 7.070312 5.867188 8.859375l56.0625 30.285156c2.640625 1.425781 4.605468 3.847657 5.453125 6.730469l13.667969 46.328125c1 3.378906 3.519531 6.101563 6.8125 7.351563l57.421874 21.8125c2.871094 1.089843 5.175782 3.304687 6.375 6.128906l.800782 1.882812c.078125.164063.160156.328125.234375.496094l10.75 25.332031c20.128906.664063 20.972656 9.324219 42.699219 9.324219 10.90625 0 16.546874-2.183594 22.003906-4.441406zm0 0" fill="#33d8dd"/><path d="m459.308594 320.074219c-12.792969 0-19.527344-2.792969-25.46875-5.257813-5.320313-2.207031-9.917969-4.109375-19.71875-4.109375-9.796875 0-14.390625 1.902344-19.710938 4.109375-5.941406 2.464844-12.675781 5.257813-25.46875 5.257813-12.789062 0-19.523437-2.792969-25.464844-5.257813-5.320312-2.207031-9.914062-4.109375-19.714843-4.109375-9.796875 0-14.390625 1.902344-19.710938 4.109375-5.941406 2.464844-12.675781 5.257813-25.464843 5.257813-12.789063 0-19.523438-2.792969-25.464844-5.257813-5.316406-2.207031-9.910156-4.109375-19.710938-4.109375-9.800781 0-14.394531 1.902344-19.714844 4.109375-5.941406 2.464844-12.675781 5.257813-25.464843 5.257813-12.789063 0-19.523438-2.792969-25.464844-5.257813-5.320313-2.207031-9.914063-4.109375-19.714844-4.109375-9.796875 0-14.390625 1.902344-19.710937 4.109375-5.941406 2.464844-12.675782 5.257813-25.46875 5.257813-12.789063 0-19.523438-2.792969-25.464844-5.257813-5.316406-2.207031-9.914062-4.109375-19.710938-4.109375-9.800781 0-14.394531 1.902344-19.714843 4.109375-5.945313 2.464844-12.679688 5.257813-25.46875 5.257813-4.148438 0-7.511719-3.363281-7.511719-7.511719s3.363281-7.507812 7.511719-7.507812c9.800781 0 14.394531-1.90625 19.714843-4.113282 5.941407-2.460937 12.675782-5.253906 25.46875-5.253906 12.789063 0 19.523438 2.792969 25.464844 5.253906 5.316406 2.207032 9.914063 4.113282 19.710938 4.113282 9.800781 0 14.394531-1.90625 19.714844-4.113282 5.941406-2.460937 12.675781-5.253906 25.464843-5.253906 12.789063 0 19.523438 2.792969 25.464844 5.253906 5.320313 2.207032 9.914063 4.113282 19.710937 4.113282 9.800782 0 14.394532-1.90625 19.714844-4.113282 5.941406-2.460937 12.675782-5.253906 25.464844-5.253906s19.523438 2.792969 25.464844 5.253906c5.320312 2.207032 9.914062 4.113282 19.710937 4.113282 9.800781 0 14.394531-1.90625 19.714844-4.113282 5.941406-2.460937 12.675781-5.253906 25.464844-5.253906 12.789062 0 19.523437 2.792969 25.464843 5.253906 5.320313 2.207032 9.914063 4.113282 19.714844 4.113282 9.796875 0 14.390625-1.90625 19.710938-4.113282 5.941406-2.460937 12.675781-5.253906 25.464844-5.253906 12.792968 0 19.527343 2.792969 25.46875 5.253906 5.320312 2.207032 9.917968 4.113282 19.71875 4.113282 9.800781 0 14.394531-1.90625 19.714843-4.113282 5.941407-2.460937 12.675781-5.253906 25.46875-5.253906 4.148438 0 7.507813 3.359375 7.507813 7.507812 0 4.148438-3.359375 7.511719-7.507813 7.511719-9.800781 0-14.394531 1.902344-19.714843 4.109375-5.941407 2.464844-12.675782 5.257813-25.464844 5.257813zm0 0" fill="#d8d8d8"/><path d="m83.363281 2.742188c3.996094 17.679687 25.449219 24.652343 39.074219 12.695312 2.300781-2.023438 5.746094.480469 4.535156 3.296875-7.160156 16.648437 6.097656 34.898437 24.148438 33.234375 3.050781-.28125 4.367187 3.769531 1.734375 5.335938-15.582031 9.261718-15.582031 31.820312 0 41.082031 2.632812 1.566406 1.316406 5.617187-1.734375 5.335937-18.050782-1.667968-31.308594 16.582032-24.148438 33.234375 1.210938 2.816407-2.234375 5.320313-4.535156 3.296875-13.625-11.957031-35.078125-4.984375-39.074219 12.695313-.671875 2.988281-4.933593 2.988281-5.609375 0-3.992187-17.679688-25.445312-24.652344-39.070312-12.695313-2.300782 2.023438-5.75-.480468-4.539063-3.296875 7.164063-16.652343-6.097656-34.902343-24.144531-33.234375-3.054688.28125-4.367188-3.769531-1.734375-5.335937 15.582031-9.261719 15.582031-31.820313 0-41.082031-2.632813-1.566407-1.316406-5.617188 1.734375-5.335938 18.050781 1.664062 31.308594-16.585938 24.144531-33.234375-1.210937-2.816406 2.238281-5.320313 4.539063-3.296875 13.625 11.957031 35.078125 4.984375 39.074218-12.695312.671876-2.992188 4.933594-2.992188 5.605469 0zm0 0" fill="#fd8f31"/><path d="m152.855469 98.386719c-15.582031-9.261719-15.582031-31.820313 0-41.082031 2.632812-1.566407 1.316406-5.617188-1.734375-5.335938-18.050782 1.664062-31.308594-16.585938-24.148438-33.234375 1.210938-2.816406-2.234375-5.320313-4.535156-3.296875-13.625 11.957031-35.078125 4.984375-39.070312-12.695312-.675782-2.992188-4.9375-2.992188-5.609376 0-1.757812 7.773437-6.890624 13.472656-13.246093 16.40625 16.382812 14.269531 26.75 35.265624 26.75 58.695312s-10.367188 44.425781-26.75 58.695312c6.355469 2.933594 11.488281 8.632813 13.246093 16.40625.671876 2.992188 4.933594 2.992188 5.609376 0 3.992187-17.679687 25.445312-24.652343 39.070312-12.695312 2.300781 2.023438 5.75-.480469 4.539062-3.296875-7.164062-16.648437 6.097657-34.898437 24.144532-33.234375 3.054687.28125 4.367187-3.769531 1.734375-5.332031zm0 0" fill="#ff7f1f"/><path d="m108.109375 77.84375c0 15.214844-12.335937 27.550781-27.546875 27.550781-15.214844 0-27.550781-12.335937-27.550781-27.550781s12.335937-27.546875 27.550781-27.546875c15.210938 0 27.546875 12.332031 27.546875 27.546875zm0 0" fill="#fccf3f"/></svg>