<svg height="512pt" viewBox="-65 0 512 512" width="512pt" xmlns="http://www.w3.org/2000/svg"><path d="m325.390625 41.941406h-63.679687v-34.59375c0-4.058594 3.289062-7.347656 7.347656-7.347656h48.984375c4.058593 0 7.347656 3.289062 7.347656 7.347656zm0 0" fill="#0d6e9a"/><path d="m24.125 49.683594h332.910156v448.449218h-332.910156zm0 0" fill="#fccf3f"/><path d="m290.542969 49.683594h66.492187v448.449218h-66.492187zm0 0" fill="#f2bc25"/><path d="m362.984375 64.601562h-344.808594c-10.039062 0-18.175781-8.136718-18.175781-18.175781v-.242187c0-10.035156 8.136719-18.175782 18.175781-18.175782h344.8125c10.035157 0 18.175781 8.140626 18.175781 18.175782v.242187c0 10.039063-8.140624 18.175781-18.179687 18.175781zm0 0" fill="#fd8f31"/><path d="m362.984375 292.203125h-344.808594c-10.039062 0-18.175781-8.136719-18.175781-18.175781v-.242188c0-10.039062 8.136719-18.175781 18.175781-18.175781h344.8125c10.035157 0 18.175781 8.136719 18.175781 18.175781v.242188c0 10.039062-8.140624 18.175781-18.179687 18.175781zm0 0" fill="#fd8f31"/><path d="m362.984375 512h-344.808594c-10.039062 0-18.175781-8.136719-18.175781-18.175781v-.242188c0-10.035156 8.136719-18.175781 18.175781-18.175781h344.8125c10.035157 0 18.175781 8.140625 18.175781 18.175781v.242188c0 10.039062-8.140624 18.175781-18.179687 18.175781zm0 0" fill="#fd8f31"/><path d="m317.027344 273.90625c0-70.761719-56.609375-128.128906-126.445313-128.128906-69.835937 0-126.449219 57.367187-126.449219 128.128906 0 70.765625 56.613282 128.128906 126.449219 128.128906 69.835938 0 126.445313-57.363281 126.445313-128.128906zm0 0" fill="#8fd143"/><path d="m190.582031 145.777344c-11.082031 0-21.828125 1.449218-32.066406 4.160156 54.304687 14.386719 94.378906 64.433594 94.378906 123.96875s-40.074219 109.582031-94.378906 123.964844c10.238281 2.714844 20.984375 4.164062 32.066406 4.164062 69.832031 0 126.445313-57.367187 126.445313-128.128906s-56.613282-128.128906-126.445313-128.128906zm0 0" fill="#7bb72e"/><g fill="#e7eced"><path d="m190.28125 226.566406c8.230469 0 15.945312 2.199219 22.605469 6.019532l23.929687-41.789063c-27.898437-15.941406-63.304687-16.988281-93.074218.339844l24.078124 41.367187c6.628907-3.773437 14.289063-5.9375 22.460938-5.9375zm0 0"/><path d="m208.257812 272.0625c0 9.929688-8.050781 17.976562-17.976562 17.976562-9.929688 0-17.976562-8.046874-17.976562-17.976562 0-9.925781 8.046874-17.972656 17.976562-17.972656 9.925781 0 17.976562 8.046875 17.976562 17.972656zm0 0"/><path d="m144.785156 271.894531c0-.113281.007813-.21875.007813-.332031l-47.3125.167969c.042969 15.816406 4.117187 31.835937 12.648437 46.488281 8.527344 14.652344 20.445313 26.109375 34.179688 33.957031l23.367187-40.804687c-13.671875-7.847656-22.890625-22.582032-22.890625-39.476563zm0 0"/><path d="m235.761719 271.242188c.003906.21875.015625.433593.015625.652343 0 16.605469-8.898438 31.128907-22.183594 39.070313l23.789062 40.871094c29.769532-17.328126 46.34375-48.628907 46.261719-80.761719 0-.003907-31.222656.109375-47.882812.167969zm0 0"/></g><path d="m229.085938 28.007812v89.078126c0 9.71875 7.878906 17.597656 17.59375 17.597656 9.71875 0 17.597656-7.878906 17.597656-17.597656v-31.066407c0-9.71875 7.878906-17.597656 17.59375-17.597656 9.71875 0 17.597656 7.878906 17.597656 17.597656v8.464844c.003906.996094.167969 1.988281.523438 2.917969 2.59375 6.726562 9.679687 11.160156 17.351562 11.050781 9.667969-.140625 17.316406-8.296875 17.316406-17.964844v-62.480469zm0 0" fill="#7bb72e"/></svg>