<svg height="512pt" viewBox="0 -43 512.002 512" width="512pt" xmlns="http://www.w3.org/2000/svg"><path d="m347.609375 22.46875c-10.058594-12.285156-24.921875-19.640625-40.746094-20.96875-64.402343-5.40625-132.785156 2.867188-187.140625 40.34375-128.28125 86.59375-119.597656 277.390625-119.597656 277.390625v24.390625l254.984375-1.53125-.34375-22.859375s-49.863281-102.839844-29.933594-196.375c7.488281-.804687 14.226563-4.632813 19.292969-10.421875 5.464844 4.28125 12.050781 6.78125 19.140625 6.78125 9.164063 0 17.480469-4.183594 23.628906-10.984375 7.234375 6.863281 16.476563 10.984375 26.546875 10.984375 23.1875 0 43.90625-22.53125 46.332032-49.347656 1.808593-20.011719-2.136719-35.148438-12.164063-47.402344zm0 0" fill="#69e6ed"/><path d="m347.609375 22.46875c-10.058594-12.285156-24.921875-19.640625-40.746094-20.96875-64.402343-5.40625-132.785156 2.867188-187.140625 40.34375-128.28125 86.59375-119.597656 277.390625-119.597656 277.390625v24.390625l254.984375-1.53125-.34375-22.859375s-49.863281-102.839844-29.933594-196.375c7.488281-.804687 14.226563-4.632813 19.292969-10.421875 5.464844 4.28125 12.050781 6.78125 19.140625 6.78125 9.164063 0 17.480469-4.183594 23.628906-10.984375 7.234375 6.863281 16.476563 10.984375 26.546875 10.984375 23.1875 0 43.90625-22.53125 46.332032-49.347656 1.808593-20.011719-2.136719-35.148438-12.164063-47.402344zm0 0" fill="#33d8dd"/><path d="m347.609375 22.46875c-10.058594-12.285156-24.921875-19.640625-40.746094-20.96875-64.402343-5.40625-132.785156 2.867188-187.140625 40.34375-6.058594 4.089844-11.808594 8.414062-17.273437 12.9375v.003906c4.398437 17.609375 16.785156 40.207032 41.828125 45.707032 2.609375 14.203124 13.472656 24.855468 26.484375 24.855468 3.964843 0 7.730469-.996094 11.125-2.777344.648437 1.015626 1.34375 1.980469 2.074219 2.910157-20.546876 85.363281.808593 180.675781 15.855468 216.945312h.007813l55.28125-.332031-.34375-22.859375s-44.898438-92.625-32.441407-182.015625c.667969-4.800781 1.492188-9.59375 2.507813-14.359375 7.492187-.804687 14.226563-4.632813 19.292969-10.421875 5.46875 4.28125 12.054687 6.78125 19.144531 6.78125 9.164063 0 17.476563-4.183594 23.628906-10.984375 7.234375 6.863281 16.472657 10.984375 26.542969 10.984375 23.191406 0 43.90625-22.535156 46.332031-49.347656 1.8125-20.011719-2.132812-35.148438-12.160156-47.402344zm0 0" fill="#27cccc"/><path d="m306.863281 1.5c-64.402343-5.40625-132.785156 2.867188-187.140625 40.34375.003906 16.367188 6.449219 37.019531 39.03125 44.171875 2.605469 14.203125 13.46875 24.859375 26.480469 24.859375 3.96875 0 7.734375-1 11.128906-2.777344 7.953125 15.410156 25.667969 14.960938 28.464844 14.761719 7.492187-.804687 14.226563-4.632813 19.292969-10.421875 5.46875 4.28125 12.054687 6.78125 19.144531 6.78125 9.164063 0 17.480469-4.183594 23.628906-10.984375 7.234375 6.863281 16.472657 10.984375 26.542969 10.984375h.003906c23.1875 0 43.902344-22.535156 46.328125-49.347656 1.808594-20.011719-2.132812-35.148438-12.164062-47.398438-10.054688-12.289062-24.917969-19.644531-40.742188-20.972656zm0 0" fill="#69e6ed"/><path d="m170.984375 140.417969c-.972656-2.328125-3.246094-3.839844-5.765625-3.839844h-38c-3.449219 0-6.246094 2.796875-6.246094 6.246094v34.085937h65.25zm0 0" fill="#d8d8d8"/><path d="m409.589844 301.597656c-25.597656 0-25.597656 10.3125-51.199219 10.3125s-25.601563-10.3125-51.199219-10.3125-25.597656 10.3125-51.199218 10.3125c-25.597657 0-25.597657-10.3125-51.195313-10.3125-25.601563 0-25.601563 10.3125-51.199219 10.3125-25.601562 0-25.601562-10.3125-51.199218-10.3125-25.601563 0-25.601563 10.3125-51.199219 10.3125-22.839844 0-25.300781-8.207031-43.75-9.976562-3.984375-.382813-7.449219 2.71875-7.449219 6.71875v109.277344c0 4.351562 3.527344 7.875 7.875 7.875h496.253906c4.347656 0 7.875-3.523438 7.875-7.875v-109.277344c0-4.003906-3.464844-7.101563-7.449218-6.722656-18.453126 1.769531-20.914063 9.976562-43.757813 9.976562-25.605469 0-25.605469-10.308594-51.207031-10.308594zm0 0" fill="#69e6ed"/><path d="m356.269531 166.433594-246.875 2.589844c-4.617187.050781-8.324219 3.832031-8.273437 8.449218l1.089844 103.84375 314.867187-3.304687-53.195313-106.855469c-1.410156-2.914062-4.375-4.753906-7.613281-4.722656zm0 0" fill="#fd8f31"/><path d="m297.902344 169.609375 54.136718 109.085937 65.039063-.683593-53.195313-106.855469c-1.410156-2.914062-4.375-4.753906-7.613281-4.722656l-60.289062.632812c.78125.710938 1.445312 1.558594 1.921875 2.542969zm0 0" fill="#ff7f1f"/><g fill="#69e6ed"><path d="m160.5 230.960938-23.804688.25c-2.089843.023437-3.800781-1.65625-3.824218-3.746094l-.226563-21.835938c-.023437-2.089844 1.65625-3.800781 3.746094-3.824218l23.800781-.25c2.089844-.023438 3.804688 1.65625 3.824219 3.746093l.230469 21.835938c.019531 2.089843-1.65625 3.800781-3.746094 3.824219zm0 0"/><path d="m218.507812 230.351562-23.804687.25c-2.089844.023438-3.800781-1.65625-3.824219-3.746093l-.226562-21.835938c-.023438-2.089843 1.652344-3.800781 3.742187-3.824219l23.804688-.25c2.089843-.023437 3.804687 1.65625 3.824219 3.746094l.230468 21.835938c.019532 2.089844-1.65625 3.800781-3.746094 3.824218zm0 0"/><path d="m276.515625 229.742188-23.804687.25c-2.089844.023437-3.800782-1.652344-3.824219-3.742188l-.230469-21.839844c-.019531-2.089844 1.65625-3.800781 3.746094-3.824218l23.804687-.25c2.089844-.019532 3.800781 1.65625 3.824219 3.746093l.230469 21.835938c.019531 2.089843-1.65625 3.804687-3.746094 3.824219zm0 0"/><path d="m345.78125 229.015625-35.0625.367187c-2.089844.023438-3.804688-1.652343-3.824219-3.742187l-.230469-21.839844c-.023437-2.089843 1.65625-3.800781 3.746094-3.824219l25.890625-.269531c1.019531-.011719 1.9375.613281 2.308594 1.5625l9.429687 24.421875c.613282 1.589844-.550781 3.308594-2.257812 3.324219zm0 0"/></g><path d="m82.089844 369.019531h341.339844l84.144531-109.726562c2.972656-3.871094.210937-9.46875-4.667969-9.46875h-149.976562c-3.039063 0-5.976563 1.109375-8.253907 3.125l-13.578125 12c-2.277344 2.011719-5.214844 3.125-8.253906 3.125l-259.402344.460937c-4.945312.007813-8.511718 4.738282-7.164062 9.496094zm0 0" fill="#0d6e9a"/><path d="m507.574219 259.292969c2.972656-3.871094.210937-9.46875-4.667969-9.46875h-52.183594l-92.757812 119.195312h65.464844zm0 0" fill="#09627a"/><path d="m460.796875 351.125c-25.605469 0-25.605469-10.308594-51.207031-10.308594-25.601563 0-25.601563 10.308594-51.199219 10.308594-25.601563 0-25.601563-10.308594-51.199219-10.308594s-25.597656 10.308594-51.199218 10.308594c-25.597657 0-25.597657-10.308594-51.195313-10.308594-25.601563 0-25.601563 10.308594-51.199219 10.308594-25.601562 0-25.601562-10.308594-51.199218-10.308594-25.601563 0-25.601563 10.308594-51.199219 10.308594-25.597657 0-25.597657-10.308594-51.199219-10.308594v40.632813c25.597656 0 25.597656 10.3125 51.199219 10.3125 25.601562 0 25.601562-10.3125 51.199219-10.3125 25.597656 0 25.597656 10.3125 51.199218 10.3125 25.597656 0 25.597656-10.3125 51.199219-10.3125 25.597656 0 25.597656 10.3125 51.195313 10.3125 25.601562 0 25.601562-10.3125 51.199218-10.3125s25.597656 10.3125 51.199219 10.3125c25.597656 0 25.597656-10.3125 51.199219-10.3125 25.601562 0 25.601562 10.3125 51.207031 10.3125 25.601563 0 25.601563-10.3125 51.203125-10.3125v-40.632813c-25.601562 0-25.601562 10.308594-51.203125 10.308594zm0 0" fill="#33d8dd"/></svg>