<svg height="512pt" viewBox="0 0 512 512.00032" width="512pt" xmlns="http://www.w3.org/2000/svg"><path d="m274.441406 360.859375 62.042969-21.75c6.265625-2.195313 8.574219-9.855469 4.566406-15.148437l-43.226562-57.089844 11.101562-207.160156c.46875-8.75-12.210937-10.449219-14.0625-1.882813l-36.246093 167.75-87.347657-102.992187c-1.433593-1.683594-32.09375 3.222656-27.191406 2.988281l63.824219 104.769531-120.40625 21.035156c-2.898438.449219-4.441406 20.976563-1.535156 21.398438l148.628906 4.480468zm0 0" fill="#b26220"/><path d="m274.441406 360.859375 62.042969-21.75c6.265625-2.195313 8.574219-9.855469 4.566406-15.148437l-43.226562-57.089844 11.101562-207.160156c.46875-8.75-12.210937-10.449219-14.0625-1.882813l-36.246093 167.75-87.347657-102.992187c-1.433593-1.683594-32.09375 3.222656-27.191406 2.988281l63.824219 104.769531-120.40625 21.035156c-2.898438.449219-4.441406 20.976563-1.535156 21.398438l148.628906 4.480468zm0 0" fill="#b26220"/><path d="m296.113281 17.765625c-13.585937-5.269531-27.96875-4.910156-40.570312-.054687-5.585938-4.082032-11.777344-7.519532-18.53125-10.140626-21.15625-8.210937-43.652344-6.910156-62.796875 1.796876-2.4375-1.210938-4.941406-2.339844-7.527344-3.34375-45.617188-17.699219-96.941406 4.929687-114.640625 50.542968-4.261719 10.984375-6.164063 22.296875-5.992187 33.390625-17.078126 8.992188-31.125 23.933594-38.65625 43.34375-11.800782 30.414063-4.433594 63.53125 16.207031 86.058594-9.746094 28.425781 4.613281 59.714844 32.878906 70.679687 28.976563 11.242188 61.582031-3.132812 72.824219-32.109374 3.460937-8.914063 4.488281-18.171876 3.417968-27.042969 54.242188-15.320313 45.742188-67.859375 45.742188-67.859375 34.617188 9.800781 78.621094-6.664063 97.570312-36.515625 22.4375-.121094 43.574219-13.730469 52.183594-35.917969 11.242188-28.980469-3.132812-61.585938-32.109375-72.828125zm0 0" fill="#8fd143"/><path d="m296.113281 17.765625c-13.585937-5.269531-27.96875-4.910156-40.570312-.054687-5.585938-4.082032-11.777344-7.519532-18.53125-10.140626-21.15625-8.210937-43.652344-6.910156-62.796875 1.796876-2.4375-1.210938-4.941406-2.339844-7.527344-3.34375-44.890625-17.417969-95.3125 4.222656-113.769531 48.386718 20.398437-8.542968 44.007812-9.511718 66.257812-.875 2.585938 1.003906 5.089844 2.128906 7.527344 3.34375 19.144531-8.707031 41.640625-10.007812 62.796875-1.796875 6.753906 2.621094 12.945312 6.054688 18.53125 10.136719 12.605469-4.855469 26.984375-5.214844 40.570312.058594 24.957032 9.683594 39.066407 35.214844 35.320313 60.625 19.375-2.859375 36.707031-15.746094 44.300781-35.3125 11.242188-28.976563-3.132812-61.582032-32.109375-72.824219zm0 0" fill="#7bb72e"/><path d="m274.441406 360.859375-21.796875 132.816406h124.203125l-21.664062-118.90625c-.796875-4.355469-4.417969-7.640625-8.832032-8.003906zm0 0" fill="#b26220"/><path d="m373.339844 316.859375 46.347656-96.148437c1.03125-2.140626-.527344-4.621094-2.902344-4.621094h-33.28125c-2.707031 0-4.207031-3.136719-2.507812-5.246094l87.105468-108.074219c1.015626-1.261719 3.027344-.183593 2.539063 1.363281l-26.582031 83.652344c-.652344 2.050782.851562 4.148438 3 4.195313l34.570312.726562c2.753906.054688 4.171875 3.324219 2.328125 5.375l-108.207031 120.394531c-1.136719 1.265626-3.148438-.085937-2.410156-1.617187zm0 0" fill="#f2bc25"/><path d="m18.226562 512h475.007813c10.066406 0 18.230469-8.160156 18.230469-18.230469 0-20.941406-16.980469-37.917969-37.917969-37.917969h-435.628906c-20.941407 0-37.917969 16.980469-37.917969 37.917969 0 10.070313 8.160156 18.230469 18.226562 18.230469zm0 0" fill="#7bb72e"/></svg>