<svg height="512pt" viewBox="0 0 512 512" width="512pt" xmlns="http://www.w3.org/2000/svg"><path d="m198.070312 289.742188h279.078126v186.652343h-279.078126zm0 0" fill="#efefef"/><path d="m412.460938 289.742188h64.6875v186.648437h-64.6875zm0 0" fill="#d8d8d8"/><path d="m498.398438 298.976562h-208.363282v-56.285156h182.695313c2.488281 0 4.792969 1.292969 6.089843 3.414063l25.667969 42.011719c2.90625 4.757812-.515625 10.859374-6.089843 10.859374zm0 0" fill="#fc4e51"/><path d="m298.476562 476.390625h-266.34375v-304.820313l133.171876-88.335937 133.171874 88.335937zm0 0" fill="#efefef"/><path d="m165.304688 83.234375-32.34375 21.453125 92.304687 61.230469c5.324219 3.527343 8.519531 9.488281 8.519531 15.875v294.597656h64.691406v-304.820313zm0 0" fill="#d8d8d8"/><path d="m161.730469 65.925781-153.996094 102.148438c-4.25 2.816406-6.800781 7.574219-6.800781 12.671875 0 12.132812 13.503906 19.378906 23.613281 12.675781l137.183594-90.996094c2.167969-1.4375 4.984375-1.4375 7.152343 0l137.179688 90.996094c10.109375 6.703125 23.617188-.542969 23.617188-12.675781 0-5.097656-2.554688-9.855469-6.800782-12.671875l-154-102.148438c-2.164062-1.4375-4.984375-1.4375-7.148437 0zm0 0" fill="#fc4e51"/><path d="m257.804688 389.9375h-61.253907c-5.710937 0-10.347656-4.628906-10.347656-10.34375v-47.230469c0-5.710937 4.632813-10.34375 10.347656-10.34375h61.253907c5.710937 0 10.34375 4.628907 10.34375 10.34375v47.230469c0 5.714844-4.628907 10.34375-10.34375 10.34375zm0 0" fill="#33d8dd"/><path d="m150.847656 476.390625h-81.945312v-146.574219c0-4.304687 3.492187-7.796875 7.800781-7.796875h66.34375c4.308594 0 7.800781 3.492188 7.800781 7.796875zm0 0" fill="#912c2c"/><path d="m445.9375 476.390625h-111.484375v-131.015625c0-4.175781 3.386719-7.558594 7.558594-7.558594h96.367187c4.171875 0 7.554688 3.382813 7.554688 7.558594v131.015625zm0 0" fill="#0d6e9a"/><path d="m438.378906 337.816406h-96.367187c-4.175781 0-7.558594 3.382813-7.558594 7.558594v23.257812h111.480469v-23.257812c.003906-4.175781-3.382813-7.558594-7.554688-7.558594zm0 0" fill="#09627a"/><path d="m205.539062 211.6875c0 22.21875-18.015624 40.234375-40.234374 40.234375-22.222657 0-40.234376-18.015625-40.234376-40.234375 0-22.222656 18.011719-40.234375 40.234376-40.234375 22.21875 0 40.234374 18.011719 40.234374 40.234375zm0 0" fill="#69e6ed"/><path d="m173.03125 172.199219c-2.5-.484375-5.082031-.75-7.726562-.75-2.644532 0-5.226563.265625-7.726563.75v31.761719h-31.757813c-.488281 2.5-.75 5.082031-.75 7.726562 0 2.640625.261719 5.222656.75 7.722656h31.757813v31.761719c2.5.488281 5.082031.75 7.726563.75 2.644531 0 5.226562-.265625 7.726562-.75v-31.761719h31.757812c.488282-2.5.75-5.082031.75-7.722656 0-2.644531-.261718-5.226562-.75-7.726562h-31.757812zm0 0" fill="#33d8dd"/><path d="m20.507812 512h470.976563c11.328125 0 20.507813-9.183594 20.507813-20.507812 0-11.328126-9.179688-20.507813-20.507813-20.507813h-470.976563c-11.324218 0-20.507812 9.179687-20.507812 20.507813 0 11.324218 9.179688 20.507812 20.507812 20.507812zm0 0" fill="#7bb72e"/><path d="m487.382812 115.070312c14.480469 0 26.164063-12.503906 24.445313-26.882812-.613281-5.140625-2.839844-10.003906-6.882813-14.046875-5.910156-5.910156-13.632812-8.890625-21.375-8.957031-.140624-36.023438-29.382812-65.183594-65.4375-65.183594-26.8125 0-49.84375 16.128906-59.957031 39.210938-13.53125-1.617188-27.640625 2.753906-38.023437 13.136718-14.507813 14.507813-19.535156 40.152344-4.835938 55.417969 4.554688 4.730469 10.914063 7.304687 17.484375 7.304687zm0 0" fill="#e7eced"/><path d="m511.828125 88.1875c-.613281-5.140625-2.839844-10.003906-6.882813-14.046875-5.910156-5.910156-13.632812-8.890625-21.375-8.957031-.140624-36.023438-29.382812-65.183594-65.4375-65.183594-11.773437 0-22.816406 3.113281-32.359374 8.554688 19.699218 11.21875 33.011718 32.359374 33.105468 56.628906 7.746094.066406 15.46875 3.046875 21.378906 8.957031 4.042969 4.042969 6.265626 8.90625 6.878907 14.046875 1.71875 14.378906-9.960938 26.882812-24.445313 26.882812h64.691406c14.480469 0 26.164063-12.503906 24.445313-26.882812zm0 0" fill="#d8d8d8"/><path d="m364.726562 209.519531 33.550782-72.300781c.480468-1.035156-.273438-2.21875-1.414063-2.21875h-29.765625c-1.3125 0-2.039062-1.523438-1.210937-2.546875l71.230469-87.691406c1.089843-1.335938 3.222656-.183594 2.699218 1.457031l-21.175781 66.640625c-.316406 1.003906.429687 2.03125 1.488281 2.03125l31.441406.0625c1.355469.003906 2.0625 1.613281 1.148438 2.613281l-85.421875 93.664063c-1.203125 1.320312-3.320313-.089844-2.570313-1.710938zm0 0" fill="#fccf3f"/></svg>