<svg height="511pt" viewBox="0 -33 511.998 511" width="511pt" xmlns="http://www.w3.org/2000/svg"><path d="m474.140625 168.984375c-6.4375-2.40625-10.207031-8.914063-9.335937-15.730469 1.386718-10.863281-1.957032-22.246094-10.039063-30.59375-6.40625-6.621094-14.660156-10.160156-23.042969-10.632812-5.523437-.308594-10.292968-3.84375-12.464844-8.933594-14.65625-34.378906-47.921874-58.382812-86.617187-58.382812-1.761719 0-3.511719.050781-5.246094.148437-3.496093.203125-6.882812-1.328125-8.945312-4.15625-17.773438-24.414063-46.042969-40.203125-77.890625-40.203125-43.1875 0-79.804688 29.039062-92.574219 69.246094-1.5 4.734375-6.097656 7.75-11.039063 7.222656-19.757812-2.109375-40.027343 6.4375-52.480468 24.273438-6.515625 9.335937-10.800782 30.660156-10.847656 30.660156-40.65625 0-73.617188 34.050781-73.617188 76.054687 0 42.003907 32.960938 76.054688 73.617188 76.054688 4.882812 0 9.652343-.488281 14.269531-1.425781 6.296875-1.28125 12.816406.613281 17.277343 5.234374l.167969.171876c14.277344 14.75 36.226563 16.746093 52.582031 5.988281 4.273438-2.8125 9.933594-2.089844 13.472657 1.597656 17.652343 18.394531 42.121093 29.789063 69.171875 29.789063 27.660156 0 52.625-11.914063 70.351562-31.042969 4.980469-5.371094 13.460938-5.054688 18.394532.355469.378906.414062.765624.824218 1.160156 1.226562 20.632812 21.246094 54.34375 21.210938 74.941406-.066406 3.082031-3.183594 5.703125-6.664063 7.863281-10.351563 3.804688-6.492187 11.828125-9.34375 18.707031-6.28125 6.945313 3.089844 14.597657 4.804688 22.644532 4.804688 31.6875 0 57.375-26.539063 57.375-59.277344.003906-25.65625-15.777344-47.5-37.855469-55.75zm0 0" fill="#e7eced"/><path d="m474.140625 168.984375c-6.4375-2.40625-10.207031-8.914063-9.335937-15.730469 1.386718-10.867187-1.957032-22.246094-10.039063-30.597656-6.40625-6.617188-14.660156-10.160156-23.042969-10.628906-5.523437-.3125-10.292968-3.847656-12.464844-8.933594-14.65625-34.382812-47.921874-58.386719-86.617187-58.386719-1.761719 0-3.511719.050781-5.246094.152344-3.496093.199219-6.882812-1.328125-8.945312-4.160156-17.773438-24.410157-46.042969-40.199219-77.890625-40.199219-16.851563 0-32.695313 4.4375-46.523438 12.21875 24.324219 4.730469 45.453125 18.792969 59.769532 38.457031 2.058593 2.828125 5.449218 4.359375 8.941406 4.15625 1.738281-.097656 3.488281-.148437 5.25-.148437 38.695312 0 71.960937 24.003906 86.617187 58.382812 2.167969 5.089844 6.941407 8.621094 12.460938 8.933594 8.386719.46875 16.640625 4.011719 23.046875 10.632812 8.078125 8.34375 11.425781 19.726563 10.039062 30.59375-.871094 6.8125 2.898438 13.324219 9.335938 15.726563 22.078125 8.25 37.859375 30.097656 37.859375 55.753906 0 16.996094-6.933594 32.308594-18.027344 43.117188.894531.203125 1.777344.492187 2.648437.878906 6.945313 3.09375 14.597657 4.808594 22.644532 4.808594 31.6875 0 57.375-26.539063 57.375-59.277344.003906-25.65625-15.777344-47.5-37.855469-55.75zm0 0" fill="#d8d8d8"/><g fill="#8fd143"><path d="m280.277344 92.582031h-56.546875c-26.410157 0-47.820313 21.410157-47.820313 47.820313v46.761718c0 9.089844 5.761719 17.183594 14.351563 20.160157l4.441406 1.539062c5.929687 2.058594 9.90625 7.644531 9.90625 13.917969v25.964844c0 6.542968 5.304687 11.847656 11.847656 11.847656 6.546875 0 11.851563-5.304688 11.851563-11.847656 0 6.542968 5.304687 11.847656 11.847656 11.847656 6.546875 0 11.851562-5.304688 11.851562-11.847656 0 6.542968 5.304688 11.847656 11.851563 11.847656 6.542969 0 11.847656-5.304688 11.847656-11.847656 0 6.542968 5.304688 11.847656 11.851563 11.847656 6.542968 0 11.847656-5.304688 11.847656-11.847656v-25.964844c0-6.273438 3.976562-11.859375 9.90625-13.917969l4.445312-1.539062c8.585938-2.976563 14.347657-11.070313 14.347657-20.160157v-46.761718c-.007813-26.410156-21.414063-47.820313-47.828125-47.820313zm-51.035156 80.476563c-2.925782 2.875-6.859376 4.484375-10.960938 4.484375-8.636719 0-15.636719-7.003907-15.636719-15.640625v-15.128906c0-8.636719 7-15.640626 15.636719-15.640626h6.90625c8.636719 0 15.636719 7.003907 15.636719 15.640626v8.347656c0 4.195312-1.683594 8.214844-4.679688 11.15625zm35.839843 45.089844h-26.152343c-4.097657 0-6.480469-4.628907-4.101563-7.960938l13.074219-18.332031c2.011718-2.816407 6.195312-2.816407 8.203125 0l13.078125 18.332031c2.378906 3.332031-.003906 7.960938-4.101563 7.960938zm36.285157-56.246094c0 8.636718-7 15.640625-15.636719 15.640625-4.101563 0-8.035157-1.609375-10.960938-4.484375l-6.90625-6.78125c-2.992187-2.941406-4.675781-6.960938-4.675781-11.15625v-8.347656c0-8.636719 7-15.640626 15.636719-15.640626h6.90625c8.636719 0 15.636719 7.003907 15.636719 15.640626zm0 0"/><path d="m17.613281 445.667969c-1.15625 0-2.328125-.261719-3.433593-.808594-3.820313-1.898437-5.378907-6.539063-3.480469-10.359375l35.53125-71.472656c1.898437-3.824219 6.535156-5.382813 10.359375-3.480469 3.820312 1.898437 5.378906 6.539063 3.476562 10.359375l-35.53125 71.472656c-1.347656 2.71875-4.082031 4.289063-6.921875 4.289063zm0 0"/><path d="m155.953125 445.667969c-1.152344 0-2.324219-.261719-3.433594-.808594-3.820312-1.898437-5.375-6.539063-3.476562-10.359375l35.53125-71.472656c1.898437-3.824219 6.535156-5.382813 10.359375-3.480469 3.820312 1.898437 5.378906 6.539063 3.476562 10.359375l-35.53125 71.472656c-1.351562 2.71875-4.082031 4.289063-6.925781 4.289063zm0 0"/><path d="m294.296875 445.667969c-1.15625 0-2.328125-.261719-3.433594-.808594-3.820312-1.898437-5.378906-6.539063-3.476562-10.359375l35.53125-71.472656c1.898437-3.824219 6.535156-5.382813 10.355469-3.480469 3.824218 1.898437 5.378906 6.539063 3.480468 10.359375l-35.53125 71.472656c-1.351562 2.71875-4.085937 4.289063-6.925781 4.289063zm0 0"/><path d="m432.640625 445.667969c-1.15625 0-2.328125-.261719-3.433594-.808594-3.820312-1.898437-5.378906-6.539063-3.480469-10.359375l35.53125-71.472656c1.898438-3.824219 6.539063-5.382813 10.359376-3.480469 3.820312 1.898437 5.378906 6.539063 3.480468 10.359375l-35.53125 71.472656c-1.351562 2.71875-4.085937 4.289063-6.925781 4.289063zm0 0"/><path d="m104.550781 409.933594c-1.15625 0-2.328125-.261719-3.433593-.8125-3.820313-1.898438-5.378907-6.535156-3.480469-10.355469l17.765625-35.738281c1.898437-3.820313 6.539062-5.378906 10.359375-3.480469 3.820312 1.898437 5.378906 6.539063 3.476562 10.359375l-17.765625 35.738281c-1.347656 2.714844-4.082031 4.289063-6.921875 4.289063zm0 0"/><path d="m242.890625 409.933594c-1.152344 0-2.328125-.261719-3.429687-.8125-3.824219-1.898438-5.382813-6.535156-3.480469-10.355469l17.765625-35.738281c1.898437-3.820313 6.535156-5.378906 10.359375-3.480469 3.820312 1.898437 5.378906 6.539063 3.476562 10.359375l-17.765625 35.738281c-1.351562 2.714844-4.085937 4.289063-6.925781 4.289063zm0 0"/><path d="m381.234375 409.933594c-1.15625 0-2.328125-.261719-3.433594-.8125-3.820312-1.898438-5.378906-6.535156-3.480469-10.355469l17.765626-35.738281c1.898437-3.824219 6.535156-5.378906 10.359374-3.480469 3.820313 1.898437 5.378907 6.539063 3.480469 10.359375l-17.769531 35.738281c-1.347656 2.714844-4.082031 4.289063-6.921875 4.289063zm0 0"/></g></svg>