<svg height="512pt" viewBox="0 -29 512.001 512" width="512pt" xmlns="http://www.w3.org/2000/svg"><path d="m460.871094 165.3125c7.238281-13.832031 5.207031-31.46875-6.105469-43.15625-8.6875-8.976562-20.777344-12.292969-31.988281-9.960938-12.183594-39.429687-47.929688-67.988281-90.136719-67.988281-3.71875 0-7.382813.230469-10.988281.660157-17.460938-27.046876-47.261719-44.867188-81.089844-44.867188-46.296875 0-85.050781 33.371094-94.957031 78.097656-22.28125-6.054687-46.851563 2.183594-61.140625 22.644532-6.515625 9.335937-10.011719 19.964843-10.707032 30.660156-.046874 0-.09375-.003906-.140624-.003906-40.65625.003906-73.617188 34.054687-73.617188 76.058593 0 42.003907 32.960938 76.054688 73.617188 76.054688 8.871093 0 17.378906-1.621094 25.253906-4.59375 1.761718 3.058593 3.914062 5.945312 6.460937 8.574219 16.453125 17 43.089844 17.058593 59.617188.183593 17.863281 22.691407 45.097656 37.191407 75.609375 37.191407 33.199218 0 62.515625-17.160157 80.101562-43.363282 2.460938 4.984375 5.703125 9.667969 9.738282 13.839844 20.714843 21.398438 54.292968 21.398438 75.003906 0 6.832031-7.058594 11.394531-15.5625 13.71875-24.554688 9.769531 7.960938 22.09375 12.722657 35.5 12.722657 31.6875 0 57.378906-26.539063 57.378906-59.277344 0-30.558594-22.378906-55.703125-51.128906-58.921875zm0 0" fill="#575d60"/><path d="m460.871094 165.3125c7.238281-13.832031 5.207031-31.46875-6.105469-43.15625-8.691406-8.976562-20.78125-12.292969-31.988281-9.960938-12.183594-39.429687-47.929688-67.988281-90.136719-67.988281-3.71875 0-7.382813.230469-10.988281.660157-17.464844-27.046876-47.261719-44.867188-81.09375-44.867188-11.378906 0-22.296875 2.027344-32.449219 5.730469 20.027344 7.3125 37.050781 21.1875 48.640625 39.136719 3.605469-.429688 7.269531-.660157 10.988281-.660157 42.207031 0 77.953125 28.558594 90.140625 67.988281 11.207032-2.332031 23.296875.984376 31.984375 9.960938 11.3125 11.6875 13.34375 29.324219 6.109375 43.15625 28.746094 3.21875 51.125 28.363281 51.125 58.921875 0 20.285156-9.867187 38.183594-24.910156 48.871094 9.226562 6.554687 20.390625 10.40625 32.433594 10.40625 31.691406 0 57.378906-26.539063 57.378906-59.277344 0-30.558594-22.378906-55.703125-51.128906-58.921875zm0 0" fill="#464c50"/><g fill="#fff"><path d="m168.644531 138.683594c-13.441406 0-20.785156 7.03125-20.785156 22.191406v47.035156c0 15.15625 7.34375 22.1875 21.253906 22.1875 17.34375 0 18.90625-11.25 19.84375-18.59375.3125-3.125 2.65625-4.53125 6.5625-4.53125 4.375 0 6.566407 1.40625 6.566407 7.34375 0 15.472656-12.972657 27.660156-33.910157 27.660156-18.285156 0-33.441406-9.222656-33.441406-34.066406v-47.035156c0-24.847656 15.3125-34.066406 33.597656-34.066406 20.9375 0 33.753907 11.875 33.753907 27.191406 0 5.9375-2.191407 7.1875-6.566407 7.1875-4.21875 0-6.40625-1.71875-6.5625-4.53125-.3125-6.25-2.8125-17.972656-20.3125-17.972656zm0 0"/><path d="m216.300781 207.910156v-47.035156c0-24.84375 14.6875-34.066406 33.597657-34.066406 18.910156 0 33.753906 9.222656 33.753906 34.066406v47.035156c0 24.847656-14.847656 34.066406-33.753906 34.066406-18.910157 0-33.597657-9.21875-33.597657-34.066406zm54.222657-47.035156c0-15.15625-7.8125-22.1875-20.625-22.1875s-20.472657 7.03125-20.472657 22.1875v47.035156c0 15.160156 7.660157 22.191406 20.472657 22.191406s20.625-7.03125 20.625-22.191406zm0 0"/><path d="m330.214844 126.808594c18.128906 0 32.191406 12.8125 32.191406 30.472656 0 33.597656-51.566406 44.378906-51.566406 63.914062v7.96875h47.972656c2.5 0 4.53125 2.65625 4.53125 5.9375 0 2.96875-2.03125 5.9375-4.53125 5.9375h-55.632812c-2.5 0-5.9375-1.875-5.9375-4.6875v-15.15625c0-25.628906 52.039062-37.660156 52.039062-63.445312 0-8.90625-5.9375-18.75-19.066406-18.75-10 0-17.65625 5.46875-17.65625 17.03125 0 2.65625-2.5 5.15625-6.875 5.15625-3.75 0-5.941406-1.875-5.941406-7.65625 0-15.78125 13.75-26.722656 30.472656-26.722656zm0 0"/></g><path d="m105.992188 353.132812c0 20.449219-16.578126 37.027344-37.027344 37.027344-20.449219 0-37.027344-16.578125-37.027344-37.027344 0-20.449218 16.578125-37.027343 37.027344-37.027343 20.449218 0 37.027344 16.578125 37.027344 37.027343zm0 0" fill="#d8d8d8"/><path d="m471.996094 350.003906c0 15.554688-12.605469 28.160156-28.15625 28.160156-15.550782 0-28.15625-12.605468-28.15625-28.160156 0-15.550781 12.605468-28.15625 28.15625-28.15625 15.550781 0 28.15625 12.605469 28.15625 28.15625zm0 0" fill="#e7eced"/><path d="m350.164062 433.554688c0 11.609374-9.410156 21.019531-21.019531 21.019531-11.605469 0-21.015625-9.410157-21.015625-21.019531 0-11.605469 9.410156-21.015626 21.015625-21.015626 11.609375 0 21.019531 9.410157 21.019531 21.015626zm0 0" fill="#d8d8d8"/><path d="m239.429688 394.648438c0 15.351562-12.445313 27.796874-27.796876 27.796874-15.351562 0-27.796874-12.445312-27.796874-27.796874 0-15.355469 12.445312-27.800782 27.796874-27.800782 15.351563 0 27.796876 12.445313 27.796876 27.800782zm0 0" fill="#e7eced"/></svg>