<svg height="512pt" viewBox="-2 0 512 512.0002" width="512pt" xmlns="http://www.w3.org/2000/svg"><path d="m201.152344 122.425781 16.050781 29.863281c4 7.441407 12.613281 11.132813 20.761719 8.890626l31.429687-8.636719c7.515625-2.066407 12.867188-8.707031 13.289063-16.488281l1.542968-28.367188c.4375-8.023438-4.464843-15.378906-12.039062-18.0625l-36.171875-12.816406c-7.925781-2.808594-16.738281.203125-21.289063 7.269531l-12.847656 19.964844c-3.570312 5.539062-3.847656 12.582031-.726562 18.382812zm0 0" fill="#d8d8d8"/><path d="m79.457031 20.769531-6.359375 7.8125c-10.390625 12.769531-10.578125 31.027344-.445312 44.007813l4.007812 5.136718c9.34375 11.972657 25.296875 16.628907 39.613282 11.5625l2.992187-1.058593c14.761719-5.222657 24.320313-19.550781 23.476563-35.1875l-.644532-11.890625c-.882812-16.359375-12.898437-29.960938-29.023437-32.851563-12.640625-2.265625-25.515625 2.507813-33.617188 12.46875zm0 0" fill="#949493"/><path d="m355.617188 190.914062-3.234376 3.691407c-5.292968 6.035156-5.707031 14.929687-1.003906 21.433593l1.863282 2.570313c4.339843 6 12.027343 8.550781 19.09375 6.339844l1.472656-.464844c7.285156-2.28125 12.195312-9.089844 12.0625-16.722656l-.101563-5.804688c-.136719-7.984375-5.75-14.824219-13.550781-16.519531-6.121094-1.328125-12.476562.769531-16.601562 5.476562zm0 0" fill="#949493"/><path d="m299.101562 283.996094 2.28125 9.308594c2.058594 8.40625 9.980469 14.019531 18.59375 13.179687l1.308594-.128906c7.535156-.734375 13.730469-6.253907 15.324219-13.652344l1.65625-7.679687c1.933594-8.960938-3.417969-17.886719-12.230469-20.402344l-5.25-1.5c-5.480468-1.566406-11.386718-.347656-15.800781 3.265625-5.1875 4.246093-7.476563 11.09375-5.882813 17.609375zm0 0" fill="#d8d8d8"/><path d="m430.066406 400.929688-4.746094 7.128906c-4.289062 6.4375-3.191406 15.046875 2.570313 20.207031l.875.785156c5.039063 4.511719 12.417969 5.253907 18.25 1.828125l6.054687-3.554687c7.066407-4.148438 9.703126-13.0625 6.03125-20.386719l-2.1875-4.359375c-2.285156-4.558594-6.660156-7.703125-11.703124-8.425781-5.933594-.847656-11.824219 1.789062-15.144532 6.777344zm0 0" fill="#949493"/><path d="m360.714844 416.066406c-20.144532-67.351562-123.414063-48.902344-123.414063-132.136718 0-95.660157-110.648437-102.167969-110.648437-190.121094 0-51.058594-81.894532-81.648438-113.785156-93.238282-6.078126-2.210937-12.5 2.292969-12.503907 8.765626l-.363281 446.789062c-.0078125 7.996094 7.769531 14.476562 17.367188 14.472656l345.792968-.179687.355469-33.464844c.074219-7.050781-.773437-14.101563-2.800781-20.886719zm0 0" fill="#a05e44"/><path d="m360.714844 416.066406c-20.144532-67.351562-123.414063-48.902344-123.414063-132.136718 0-95.660157-110.648437-102.167969-110.648437-190.121094 0-51.058594-81.894532-81.648438-113.78125-93.238282-5.515625-2.007812-11.296875 1.519532-12.328125 7.019532 32.335937 22.703125 67.300781 60.566406 61.84375 103.980468-10.960938 87.265626 110.648437 94.460938 110.648437 190.121094 0 83.234375 103.269532 64.78125 123.414063 132.136719 2.03125 6.78125 2.875 13.835937 2.800781 20.886719l-.164062 15.734375 64.074218-.03125.355469-33.464844c.074219-7.050781-.773437-14.101563-2.800781-20.886719zm0 0" fill="#8c4d34"/><path d="m490.851562 512h-472.710937c-10.019531 0-18.140625-8.121094-18.140625-18.140625v-37.734375h471.253906c20.839844 0 37.734375 16.894531 37.734375 37.734375 0 10.019531-8.121093 18.140625-18.136719 18.140625zm0 0" fill="#7bb72e"/></svg>