<svg height="511pt" viewBox="-4 0 511 511.99574" width="511pt" xmlns="http://www.w3.org/2000/svg"><path d="m131.78125 493.621094h93.410156l-6.15625-66.914063c-1.648437-17.898437-12.53125-33.632812-28.699218-41.488281l-48.207032-23.414062-42.847656-45.285157c-4.074219-4.210937-10.585938-5.226562-15.550781-2.117187-5.542969 3.46875-7.371094 10.609375-4.277344 16.28125l13.71875 21.316406-30.785156-15.007812-24.199219-31.183594-15.546875-34.203125c-2.273437-5-7.742187-7.71875-13.097656-6.511719-6.460938 1.457031-10.390625 8.023438-8.617188 14.40625l10.59375 38.136719c4.472657 14.105469 21.324219 47.132812 31.859375 57.523437 23.03125 22.710938 64.667969 45.339844 76.746094 58.398438 12.964844 14.011718 11.65625 60.0625 11.65625 60.0625zm0 0" fill="#fcd7c3"/><path d="m219.03125 426.707031c-1.644531-17.898437-12.53125-33.632812-28.699219-41.488281l-48.203125-23.414062-42.851562-45.285157c-4.070313-4.210937-10.582032-5.226562-15.550782-2.117187-5.539062 3.46875-7.367187 10.609375-4.277343 16.28125l13.722656 21.316406 32.695313 33.21875s27.925781 33.058594 29.574218 50.960938l5.285156 57.441406h64.460938zm0 0" fill="#f9c7ac"/><path d="m130.417969 465.367188h94.617187c5.625 0 10.183594 4.558593 10.183594 10.183593v26.261719c0 5.625-4.558594 10.183594-10.183594 10.183594h-94.617187c-5.625 0-10.183594-4.558594-10.183594-10.183594v-26.261719c0-5.625 4.558594-10.183593 10.183594-10.183593zm0 0" fill="#0d6e9a"/><path d="m372.886719 493.621094h-93.410157l6.15625-66.914063c1.648438-17.898437 12.535157-33.632812 28.703126-41.488281l48.203124-23.414062 42.851563-45.285157c4.070313-4.210937 10.582031-5.226562 15.546875-2.117187 5.542969 3.46875 7.371094 10.609375 4.277344 16.28125l-13.71875 21.316406 30.785156-15.007812 24.199219-31.183594 15.546875-34.203125c2.273437-5 7.742187-7.71875 13.097656-6.511719 6.464844 1.457031 10.394531 8.023438 8.621094 14.40625l-10.59375 38.136719c-4.476563 14.105469-21.328125 47.132812-31.863282 57.523437-23.03125 22.710938-64.664062 45.339844-76.746093 58.398438-12.964844 14.011718-11.65625 60.0625-11.65625 60.0625zm0 0" fill="#fcd7c3"/><path d="m495.125 265.09375-28.253906 69.804688c-28.878906 39.195312-135.128906 85.601562-147.210938 98.65625-12.964844 14.015624-11.65625 60.066406-11.65625 60.066406h64.882813s-1.308594-46.050782 11.65625-60.066406c12.082031-13.058594 53.714843-35.683594 76.746093-58.398438 10.535157-10.390625 27.386719-43.414062 31.863282-57.519531l10.59375-38.136719c1.773437-6.382812-2.15625-12.953125-8.621094-14.40625zm0 0" fill="#f9c7ac"/><path d="m374.25 465.367188h-94.617188c-5.625 0-10.183593 4.558593-10.183593 10.183593v26.261719c0 5.625 4.558593 10.183594 10.183593 10.183594h94.617188c5.625 0 10.183594-4.558594 10.183594-10.183594v-26.261719c0-5.625-4.558594-10.183593-10.183594-10.183593zm0 0" fill="#0d6e9a"/><path d="m290.667969 4.390625c-91.871094-21.167969-183.503907 36.152344-204.667969 128.023437-21.167969 91.871094 36.152344 183.507813 128.023438 204.671876 91.871093 21.164062 183.507812-36.15625 204.671874-128.027344 21.164063-91.871094-36.15625-183.503906-128.027343-204.667969zm0 0" fill="#69e6ed"/><path d="m290.648438 4.390625c-24.140626-5.5625-48.261719-5.695313-71.09375-1.214844 1.921874.375 3.847656.769531 5.773437 1.214844 91.867187 21.160156 149.191406 112.789063 128.027344 204.660156-15.597657 67.730469-69.503907 116.671875-133.5625 129.242188 89.902343 17.519531 178.167969-39.296875 198.886719-129.242188 21.160156-91.871093-36.160157-183.5-128.03125-204.660156zm0 0" fill="#33d8dd"/><path d="m263.160156 226.539062c-19.699218-5.023437-33.003906-68.164062-75.996094-57.492187-13.757812 3.414063-51.300781-27.761719-47.347656-36.703125 9.589844-21.703125-10.046875-29.277344.144532-42.035156 5.539062-6.941406 12.417968-14.605469 21.347656-7.050782 8.933594 7.558594 5.648437 23.265626 13.648437 24.785157 7.996094 1.519531 13.449219-17.054688 18.253907-27.550781 17.285156-37.792969 66.035156-25.539063 81.90625-40.628907 12.066406-11.476562 16.984374-25.375 15.039062-35.582031-90.910156-20.660156-181.441406 35.449219-203.585938 125.757812 15.269532 25.171876 50.824219 46.261719 62.285157 54.09375 3.75 2.5625 4.902343 7.578126 2.597656 11.488282-6.535156 11.09375-15.515625 33.359375 4.503906 49.878906 27.714844 22.878906 27.695313 33.484375 16.425781 57.148438-2.847656 5.976562-4.984374 11-6.613281 15.253906 12.234375 7.191406 25.542969 12.953125 39.757813 16.996094 10.773437-15.863282 30.085937-29.476563 39.699218-33.734376 16.566407-7.339843 49.484376-5.183593 57.566407-40.273437 3.835937-16.675781-19.929688-29.328125-39.632813-34.351563zm0 0" fill="#8fd143"/><path d="m225.324219 4.390625c21.46875 4.941406 41.042969 13.734375 58.179687 25.480469 5.859375-8.921875 8.058594-18.214844 6.652344-25.589844-23.972656-5.445312-47.917969-5.550781-70.59375-1.101562 1.921875.371093 3.84375.765624 5.761719 1.210937zm0 0" fill="#7bb72e"/><path d="m418.679688 209.050781c17.210937-74.722656-17.5-149.285156-80.488282-185.902343-10.605468 26.910156 21.949219 37.980468 18.496094 46.84375-1.429688 3.664062-.53125 8.328124.964844 12.464843 2.226562 6.160157.453125 13.058594-4.636719 17.183594-8.757813 7.105469-20.628906 18.683594-22.9375 30.726563-5.664063 29.566406 4.449219 41.953124 15.417969 51.003906 16.988281 14.027344 29.851562 9.113281 36.777344 19.410156 14.996093 22.308594-54.523438 81.375-31.128907 109.136719 32.933594-23.363281 57.757813-58.421875 67.535157-100.867188zm0 0" fill="#8fd143"/><path d="m418.679688 209.050781c17.210937-74.722656-17.5-149.285156-80.488282-185.902343-10.605468 26.910156 21.949219 37.980468 18.496094 46.84375-1.429688 3.664062-.53125 8.328124.964844 12.464843 2.226562 6.160157.453125 13.058594-4.636719 17.183594-2.453125 1.988281-5.148437 4.339844-7.8125 6.945313 10.3125 25.363281 14.621094 53.402343 11.582031 81.980468 11.425782 5.351563 20.195313 4.339844 25.488282 12.214844 14.996093 22.304688-54.523438 81.375-31.128907 109.136719 32.933594-23.359375 57.757813-58.421875 67.535157-100.867188zm0 0" fill="#7bb72e"/></svg>