<svg height="512pt" viewBox="0 -1 512.001 512" width="512pt" xmlns="http://www.w3.org/2000/svg"><g fill="#69e6ed"><path d="m156.847656 263.578125c-4.269531 0-7.726562-3.457031-7.726562-7.726563 0-4.265624 3.457031-7.722656 7.726562-7.722656 9.734375 0 17.65625-7.921875 17.65625-17.660156 0-9.734375-7.921875-17.65625-17.65625-17.65625h-124.589844c-4.265624 0-7.726562-3.457031-7.726562-7.726562 0-4.265626 3.460938-7.722657 7.726562-7.722657h124.589844c18.253906 0 33.109375 14.851563 33.109375 33.109375 0 18.253906-14.855469 33.105469-33.109375 33.105469zm0 0"/><path d="m227.859375 127.882812h-150.085937c-4.269532 0-7.726563-3.460937-7.726563-7.726562 0-4.269531 3.457031-7.726562 7.726563-7.726562h150.085937c9.738281 0 17.65625-7.921876 17.65625-17.65625 0-9.738282-7.917969-17.65625-17.65625-17.65625-4.265625 0-7.726563-3.460938-7.726563-7.726563 0-4.269531 3.460938-7.726563 7.726563-7.726563 18.257813 0 33.109375 14.851563 33.109375 33.109376 0 18.257812-14.851562 33.109374-33.109375 33.109374zm0 0"/><path d="m96.863281 172.0625h-79.898437c-4.265625 0-7.726563-3.460938-7.726563-7.726562 0-4.265626 3.460938-7.726563 7.726563-7.726563h79.898437c4.265625 0 7.726563 3.460937 7.726563 7.726563 0 4.265624-3.460938 7.726562-7.726563 7.726562zm0 0"/></g><path d="m366.40625 491.703125c-9.023438 1.554687-13.535156 2.332031-22.558594 3.886719-5.988281 1.03125-11.828125-3.753906-12.816406-10.707032-7.738281-61.609374-3.230469-121.566406 13.636719-181.324218 14.332031 4.292968 28.667969 8.582031 43.003906 12.875-15.070313 53.601562-19.078125 106.910156-12.191406 162.160156.878906 6.21875-3.089844 12.078125-9.074219 13.109375zm0 0" fill="#b26220"/><path d="m418.144531 125.476562c-84.378906 65.703126-154.558593 145.796876-210.867187 236.605469-3.101563 5.074219-1.199219 12.59375 3.265625 13.054688 94.632812 9.757812 189.269531 19.488281 283.910156 29.191406 4.464844.457031 7.648437-4.34375 5.605469-8.425781-41.238282-83.925782-64.945313-173.609375-73.402344-266.636719-.382812-4.601563-4.816406-6.625-8.511719-3.789063zm0 0" fill="#8fd143"/><path d="m500.058594 395.902344c-41.238282-83.925782-64.945313-173.609375-73.402344-266.636719-.382812-4.601563-4.816406-6.625-8.511719-3.789063-18.777343 14.621094-36.847656 29.960938-54.222656 45.96875 11.917969 78.546876 34.554687 154.511719 69.160156 226.574219 20.457031 2.097657 40.914063 4.210938 61.371094 6.308594 4.464844.460937 7.648437-4.34375 5.605469-8.425781zm0 0" fill="#7bb72e"/><path d="m452.570312 56.535156c-69.542968 44.929688-131.457031 99.046875-186.234374 161.085938-3.789063 4.351562-3 11.816406 1.339843 12.957031 72.335938 19.007813 144.671875 38 217.015625 56.976563 4.339844 1.136718 8.273438-3.300782 6.914063-7.78125-21.003907-71.359376-30.851563-144.351563-30.890625-218.703126.03125-4.632812-4.207032-7.039062-8.144532-4.535156zm0 0" fill="#7bb72e"/><path d="m491.605469 279.773438c-21.007813-71.359376-30.851563-144.351563-30.894531-218.703126.035156-4.632812-4.203126-7.039062-8.140626-4.535156-18.796874 12.144532-37.019531 24.984375-54.710937 38.445313 3.066406 59.804687 11.90625 118.800781 27.054687 176.878906 19.925782 5.230469 39.851563 10.46875 59.773438 15.695313 4.34375 1.136718 8.273438-3.300782 6.917969-7.78125zm0 0" fill="#71a824"/><path d="m486.390625.785156c-51.042969 27.882813-98.707031 60.425782-143.542969 97.460938-4.304687 3.605468-4.496094 10.894531-.367187 12.640625 49.039062 20.765625 98.082031 41.523437 147.128906 62.273437 4.132813 1.75 8.75-2.289062 8.117187-7.074218-6.652343-53.320313-7.667968-106.601563-3.558593-160.167969.390625-4.628907-3.652344-7.347657-7.777344-5.132813zm0 0" fill="#8fd143"/><path d="m497.726562 166.085938c-6.652343-53.320313-7.667968-106.601563-3.558593-160.167969.390625-4.628907-3.652344-7.347657-7.777344-5.132813-18.777344 10.257813-37.097656 21.152344-54.992187 32.667969-1.699219 38.914063-.636719 77.707031 3.378906 116.5 18.277344 7.734375 36.554687 15.476563 54.832031 23.207031 4.132813 1.75 8.75-2.289062 8.117187-7.074218zm0 0" fill="#7bb72e"/><path d="m18.246094 509.808594h475.507812c10.078125 0 18.246094-8.167969 18.246094-18.246094 0-20.964844-16.992188-37.957031-37.957031-37.957031h-436.085938c-20.964843 0-37.957031 16.992187-37.957031 37.957031 0 10.078125 8.171875 18.246094 18.246094 18.246094zm0 0" fill="#7bb72e"/></svg>