<svg height="511pt" viewBox="0 -25 511.94459 511" width="511pt" xmlns="http://www.w3.org/2000/svg"><path d="m266.019531 31.589844c-116.921875-26.933594-233.539062 46.011718-260.472656 162.933594-26.9375 116.917968 46.011719 233.539062 162.929687 260.472656 116.921876 26.9375 233.539063-46.011719 260.476563-162.929688 26.933594-116.921875-46.011719-233.539062-162.933594-260.476562zm0 0" fill="#69e6ed"/><path d="m265.996094 31.585938c-27.445313-6.320313-54.871094-7.136719-81.128906-3.175782 5.570312.835938 11.152343 1.890625 16.730468 3.175782 116.917969 26.933593 189.867188 143.546874 162.9375 260.464843-20.609375 89.472657-93.738281 153.195313-179.332031 166.113281 111.113281 16.6875 218.085937-54.777343 243.730469-166.113281 26.933594-116.917969-46.015625-233.53125-162.9375-260.464843zm0 0" fill="#33d8dd"/><path d="m231.015625 314.304688c-25.074219-6.390626-42.003906-86.746094-96.71875-73.167969-17.511719 4.347656-65.285156-35.328125-60.257813-46.707031 12.203126-27.621094-12.785156-37.261719.183594-53.496094 7.050782-8.832032 15.804688-18.585938 27.171875-8.96875 11.367188 9.613281 7.1875 29.605468 17.363281 31.539062 10.179688 1.933594 17.121094-21.703125 23.230469-35.0625 22.003907-48.097656 84.042969-32.5 104.242188-51.707031 15.355469-14.605469 21.617187-32.292969 19.136719-45.28125-115.691407-26.296875-230.910157 45.109375-259.09375 160.046875 19.433593 32.035156 64.683593 58.871094 79.269531 68.839844 4.773437 3.261718 6.238281 9.640625 3.304687 14.621094-8.316406 14.121093-19.746094 42.453124 5.730469 63.480468 35.273437 29.113282 35.25 42.609375 20.90625 72.722656-3.621094 7.609376-6.347656 14-8.417969 19.417969 15.570313 9.152344 32.507813 16.484375 50.597656 21.625 13.710938-20.1875 38.289063-37.507812 50.523438-42.929687 21.082031-9.339844 62.972656-6.597656 73.257812-51.253906 4.890626-21.21875-25.355468-37.324219-50.429687-43.71875zm0 0" fill="#8fd143"/><path d="m201.597656 31.585938c21.671875 4.992187 41.828125 13.074218 60.121094 23.65625 3.765625-8.480469 4.980469-16.8125 3.648438-23.792969-27.222657-6.1875-54.421876-6.960938-80.464844-3.03125 5.558594.835937 11.125 1.886719 16.695312 3.167969zm0 0" fill="#7bb72e"/><path d="m326.503906 55.460938c-13.503906 34.246093-1.984375 69.050781-1.984375 92.417968 0 23.363282-14.050781 36.207032-14.050781 65.328125 0 66.203125 72.132812 48.300781 72.132812 68.316407 0 74.417968-64.007812 81.191406-39.613281 138.894531 41.910157-29.734375 73.503907-74.351563 85.945313-128.367188 21.90625-95.097656-22.269532-189.988281-102.429688-236.589843zm0 0" fill="#8fd143"/><path d="m428.933594 292.050781c21.90625-95.097656-22.269532-189.988281-102.429688-236.589843-6.648437 16.867187-7.226562 33.867187-6.101562 49.570312 37.144531 45.089844 55.816406 104.648438 47.933594 165.789062 8.390624 2.371094 14.265624 4.992188 14.265624 10.703126 0 74.417968-64.007812 81.191406-39.613281 138.894531 41.910157-29.734375 73.503907-74.351563 85.945313-128.367188zm0 0" fill="#7bb72e"/><path d="m450.804688 307.664062v-258.855468c0-26.695313-21.640626-48.335938-48.335938-48.335938-26.691406 0-48.335938 21.640625-48.335938 48.335938v258.855468c-21.625 15.21875-35.757812 40.367188-35.757812 68.820313 0 46.441406 37.652344 84.09375 84.09375 84.09375 46.445312 0 84.097656-37.648437 84.097656-84.09375 0-28.453125-14.132812-53.601563-35.761718-68.820313zm0 0" fill="#d8d8d8"/><path d="m402.46875 433.035156c-32.023438 0-58.074219-26.054687-58.074219-58.078125 0-24.320312 15.113281-45.96875 37.785157-54.417969v-271.730468c0-11.1875 9.101562-20.292969 20.289062-20.292969 11.191406 0 20.292969 9.105469 20.292969 20.292969v271.734375c22.671875 8.445312 37.785156 30.097656 37.785156 54.414062 0 32.023438-26.050781 58.078125-58.078125 58.078125zm0 0" fill="#f3e8d7"/><path d="m382.179688 75.769531v244.769531c-22.671876 8.449219-37.785157 30.097657-37.785157 54.417969 0 32.023438 26.054688 58.078125 58.078125 58.078125 32.023438 0 58.078125-26.054687 58.078125-58.078125 0-24.320312-15.113281-45.96875-37.789062-54.417969v-244.769531zm0 0" fill="#fc4e51"/><path d="m422.761719 320.542969v-244.773438h-40.582031v244.769531c-.003907 0-.003907.003907-.003907.003907 8.742188 10.265625 13.863281 23.503906 13.863281 37.652343 0 24.875-15.722656 46.140626-37.75 54.398438 10.664063 12.496094 26.507813 20.441406 44.179688 20.441406 32.027344 0 58.078125-26.054687 58.078125-58.078125 0-24.316406-15.109375-45.96875-37.785156-54.414062zm0 0" fill="#e5394b"/><g fill="#0d6e9a"><path d="m504.332031 167.078125h-21.433593c-4.203126 0-7.609376-3.40625-7.609376-7.609375s3.40625-7.613281 7.609376-7.613281h21.433593c4.203125 0 7.613281 3.410156 7.613281 7.613281s-3.410156 7.609375-7.613281 7.609375zm0 0"/><path d="m498.722656 112.253906h-15.824218c-4.203126 0-7.609376-3.40625-7.609376-7.609375s3.40625-7.609375 7.609376-7.609375h15.824218c4.203125 0 7.613282 3.40625 7.613282 7.609375s-3.410157 7.609375-7.613282 7.609375zm0 0"/><path d="m504.332031 57.433594h-21.433593c-4.203126 0-7.609376-3.410156-7.609376-7.613282 0-4.203124 3.40625-7.609374 7.609376-7.609374h21.433593c4.203125 0 7.613281 3.40625 7.613281 7.609374 0 4.207032-3.410156 7.613282-7.613281 7.613282zm0 0"/><path d="m504.332031 276.726562h-21.433593c-4.203126 0-7.609376-3.40625-7.609376-7.609374 0-4.203126 3.40625-7.613282 7.609376-7.613282h21.433593c4.203125 0 7.613281 3.40625 7.613281 7.613282 0 4.203124-3.410156 7.609374-7.613281 7.609374zm0 0"/><path d="m498.722656 221.902344h-15.824218c-4.203126 0-7.609376-3.40625-7.609376-7.609375s3.40625-7.613281 7.609376-7.613281h15.824218c4.203125 0 7.613282 3.410156 7.613282 7.613281s-3.410157 7.609375-7.613282 7.609375zm0 0"/></g></svg>