<svg height="512pt" viewBox="0 0 511 512" width="512pt" xmlns="http://www.w3.org/2000/svg"><path d="m365.464844 69.269531c-2.226563-.515625-3.996094-2.246093-4.351563-4.5-1.835937-11.699219-11.707031-20.636719-23.609375-20.636719-3.101562 0-6.0625.609376-8.78125 1.714844-2.792968 1.132813-6.007812-.011718-7.261718-2.75-5.476563-11.945312-17.296876-20.214844-31-20.214844-.839844 0-1.667969.03125-2.492188.09375-2.285156.171876-4.347656-1.289062-5.117188-3.445312-4.066406-11.398438-14.71875-19.53125-27.222656-19.53125-12.488281 0-23.125 8.113281-27.203125 19.492188-.773437 2.148437-2.832031 3.511718-5.113281 3.417968-.453125-.019531-.910156-.027344-1.367188-.027344-13.707031 0-25.523437 8.269532-31 20.214844-1.257812 2.742188-4.472656 3.886719-7.261718 2.75-2.71875-1.105468-5.679688-1.710937-8.78125-1.710937-11.90625 0-21.777344 8.933593-23.609375 20.632812-.355469 2.257813-2.128907 3.984375-4.351563 4.5-13.363281 3.089844-23.148437 15.886719-21.949218 30.8125 1.148437 14.289063 12.601562 25.730469 26.535156 26.539063 8.957031.523437 17.074218-3.242188 22.585937-9.476563 1.851563-2.09375 5.0625-2.210937 7.09375-.292969 6.441407 6.09375 15.042969 9.820313 24.492188 9.820313 8.992187 0 17.214843-3.375 23.546875-8.957031 2-1.761719 5.011718-1.582032 6.863281.339844 5.125 5.320312 12.234375 8.617187 20.09375 8.617187 7.863281 0 14.972656-3.300781 20.097656-8.617187 1.847657-1.921876 4.859375-2.101563 6.863281-.339844 6.328126 5.582031 14.550782 8.957031 23.546876 8.957031 9.449218 0 18.046874-3.726563 24.492187-9.820313 2.027344-1.917968 5.238281-1.800781 7.089844.292969 5.515625 6.238281 13.628906 10 22.589843 9.476563 13.929688-.808594 25.386719-12.25 26.535157-26.539063 1.195312-14.925781-8.589844-27.726562-21.953125-30.8125zm0 0" fill="#e7eced"/><path d="m365.464844 69.269531c-2.226563-.515625-3.996094-2.246093-4.351563-4.5-1.835937-11.699219-11.707031-20.632812-23.609375-20.632812-3.101562 0-6.0625.605469-8.78125 1.710937-2.792968 1.136719-6.007812-.011718-7.261718-2.75-5.476563-11.945312-17.296876-20.214844-31-20.214844-.839844 0-1.667969.03125-2.492188.09375-2.285156.171876-4.347656-1.285156-5.117188-3.445312-4.066406-11.398438-14.71875-19.53125-27.222656-19.53125-12.488281 0-23.125 8.113281-27.203125 19.492188-.773437 2.148437-2.832031 3.511718-5.113281 3.417968-.015625 0-.027344 0-.042969 0 4.441407 0 34.640625-.066406 34.640625 20.1875 0 3.015625 4.472656 3.886719 7.265625 2.75 2.71875-1.105468 5.679688-1.710937 8.78125-1.710937 11.902344 0 21.773438 8.933593 23.609375 20.632812.351563 2.253907 2.125 3.984375 4.347656 4.5 13.367188 3.085938 23.152344 15.886719 21.953126 30.808594-1.050782 13.0625-10.714844 23.738281-23.007813 26.097656 1.902344.320313 3.855469.492188 5.847656.492188 9.449219 0 18.050781-3.722657 24.492188-9.820313 2.03125-1.917968 5.242187-1.800781 7.089843.292969 5.515626 6.238281 13.632813 10 22.589844 9.480469 13.933594-.8125 25.386719-12.253906 26.535156-26.542969 1.199219-14.921875-8.585937-27.722656-21.949218-30.808594zm0 0" fill="#d8d8d8"/><path d="m324.933594 196.59375c-.511719-2.46875-2.6875-4.230469-5.207032-4.230469h-.421874c-.394532 0-.78125.023438-1.171876.042969-.042968 0-.085937 0-.128906.003906-.433594.023438-.859375.058594-1.289062.101563-.261719.023437-.523438.050781-.785156.082031-.113282.011719-.226563.027344-.339844.042969-13.421875 1.699219-24.265625 11.546875-27.476563 24.394531-5.617187 4.726562-12.867187 7.578125-20.78125 7.578125h-22.257812c-4.925781 0-9.589844-1.113281-13.769531-3.085937l-.230469-1.507813c-2.441407-15.90625-16.121094-27.648437-32.214844-27.648437h-5.757813c-2.519531 0-4.695312 1.757812-5.207031 4.226562-5.082031 24.378906-10.53125 150.644531-165.746093 285.078125h468.53125c-155.214844-134.433594-160.667969-260.699219-165.746094-285.078125zm0 0" fill="#575d60"/><path d="m344.800781 429.058594-13.625-61.929688c-1-4.53125-2.8125-8.847656-5.347656-12.734375l-31.308594-47.953125c-3.941406-6.03125-6.101562-13.050781-6.234375-20.253906l-1.144531-60.617188c-.054687-2.949218.289063-5.808593.96875-8.539062-5.617187 4.726562-12.863281 7.578125-20.78125 7.578125h-22.253906c-4.925781 0-9.589844-1.113281-13.769531-3.085937l-.230469-1.507813 11.136719 72.597656c1.0625 6.929688 4.003906 13.4375 8.503906 18.8125l42.457031 50.714844c3.644531 4.355469 6.28125 9.472656 7.710937 14.972656l11.53125 44.332031c4.023438 15.472657 9.933594 30.390626 17.597657 44.421876l8.628906 15.804687h71.605469c-31.460938 0-58.683594-21.886719-65.445313-52.613281zm0 0" fill="#fc4e51"/><path d="m324.933594 196.59375c-.511719-2.46875-2.6875-4.230469-5.207032-4.230469h-.421874c-.394532 0-.78125.023438-1.171876.042969-.042968 0-.085937 0-.128906.003906-.433594.023438-.859375.058594-1.289062.101563-.261719.023437-.523438.050781-.785156.082031-.113282.011719-.226563.027344-.339844.042969-3.597656.457031-7 1.511719-10.132813 3.042969 10.429688 99.359374 39.921875 216.078124 120.644531 285.992187h64.578126c-155.214844-134.433594-160.667969-260.699219-165.746094-285.078125zm0 0" fill="#464c50"/><path d="m495.023438 478.238281h-477.640626c-9.324218 0-16.882812 7.558594-16.882812 16.878907 0 9.324218 7.558594 16.882812 16.882812 16.882812h477.640626c9.324218 0 16.878906-7.558594 16.878906-16.882812 0-9.320313-7.554688-16.878907-16.878906-16.878907zm0 0" fill="#7bb72e"/></svg>