<svg height="512pt" viewBox="-64 0 512 512" width="512pt" xmlns="http://www.w3.org/2000/svg"><path d="m376.828125 328.367188h-369.96875c-3.789063 0-6.859375-3.074219-6.859375-6.863282v-35.816406c0-3.789062 3.070312-6.859375 6.859375-6.859375h369.964844c3.789062 0 6.863281 3.070313 6.863281 6.859375v35.816406c0 3.789063-3.070312 6.863282-6.859375 6.863282zm0 0" fill="#575d60"/><path d="m334.410156 353.507812h-285.132812c-9.3125 0-16.859375-7.546874-16.859375-16.859374v-63.117188c0-9.3125 7.546875-16.859375 16.859375-16.859375h285.132812c9.3125 0 16.863282 7.546875 16.863282 16.859375v63.117188c0 9.3125-7.550782 16.859374-16.863282 16.859374zm0 0" fill="#fd8f31"/><path d="m218.386719 61.496094h-53.085938v-50.511719c0-6.066406 4.917969-10.984375 10.984375-10.984375h31.117188c6.066406 0 10.984375 4.917969 10.984375 10.984375zm0 0" fill="#fd8f31"/><path d="m79.507812 130.3125h224.671876v342.027344h-224.671876zm0 0" fill="#fc4e51"/><path d="m238.941406 130.3125h65.238282v342.027344h-65.238282zm0 0" fill="#e5394b"/><path d="m304.179688 146.769531h-224.671876v-6.980469c0-62.039062 50.292969-112.335937 112.335938-112.335937s112.335938 50.296875 112.335938 112.335937zm0 0" fill="#fc4e51"/><path d="m191.84375 27.453125c-11.347656 0-22.296875 1.691406-32.621094 4.816406 46.132813 13.976563 79.71875 56.824219 79.71875 107.519531v6.980469h65.238282v-6.980469c0-62.039062-50.292969-112.335937-112.335938-112.335937zm0 0" fill="#e5394b"/><path d="m322.441406 512h-261.195312c-7.582032 0-13.726563-6.144531-13.726563-13.726562v-1.894532c0-17.660156 14.316407-31.976562 31.976563-31.976562h224.695312c17.660156 0 31.976563 14.316406 31.976563 31.976562v1.894532c0 7.582031-6.144531 13.726562-13.726563 13.726562zm0 0" fill="#fd8f31"/><path d="m319.707031 152.191406h-255.726562c-9.089844 0-16.460938-7.367187-16.460938-16.457031s7.371094-16.460937 16.460938-16.460937h255.726562c9.089844 0 16.460938 7.371093 16.460938 16.460937s-7.371094 16.457031-16.460938 16.457031zm0 0" fill="#fd8f31"/><g fill="#575d60"><path d="m191.84375 433.433594c-14.457031 0-26.175781-11.71875-26.175781-26.175782v-195.019531c0-14.457031 11.71875-26.175781 26.175781-26.175781s26.175781 11.71875 26.175781 26.175781v195.019531c0 14.457032-11.71875 26.175782-26.175781 26.175782zm0 0"/><path d="m270.292969 212.238281v195.019531c0 14.457032 11.722656 26.175782 33.886719 26.175782v-247.371094c-22.164063 0-33.886719 11.71875-33.886719 26.175781zm0 0"/><path d="m113.394531 212.238281v195.019531c0 14.457032-11.71875 26.175782-33.886719 26.175782v-247.371094c22.167969 0 33.886719 11.71875 33.886719 26.175781zm0 0"/></g><path d="m250.183594 305.089844c0 32.21875-26.117188 58.339844-58.339844 58.339844-32.21875 0-58.339844-26.121094-58.339844-58.339844 0-32.222656 26.121094-58.34375 58.339844-58.34375 32.222656 0 58.339844 26.121094 58.339844 58.34375zm0 0" fill="#fd8f31"/><path d="m220.222656 305.089844c0 15.671875-12.707031 28.378906-28.378906 28.378906s-28.378906-12.707031-28.378906-28.378906 12.707031-28.378906 28.378906-28.378906 28.378906 12.707031 28.378906 28.378906zm0 0" fill="#575d60"/></svg>