<svg height="512pt" viewBox="0 -23 512 512" width="512pt" xmlns="http://www.w3.org/2000/svg"><path d="m164.3125 143.796875v-96.886719c0-6.941406 5.628906-12.570312 12.570312-12.570312h158.234376c6.941406 0 12.570312 5.628906 12.570312 12.570312v96.886719h34.339844v-96.886719c0-25.90625-21-46.910156-46.910156-46.910156h-158.234376c-25.90625 0-46.910156 21.003906-46.910156 46.910156v96.886719zm0 0" fill="#fc4e51"/><path d="m482.566406 465.03125h-453.132812c-16.253906 0-29.433594-13.179688-29.433594-29.433594v-299.078125c0-16.253906 13.179688-29.433593 29.433594-29.433593h453.128906c16.257812 0 29.4375 13.179687 29.4375 29.433593v299.078125c0 16.253906-13.179688 29.433594-29.433594 29.433594zm0 0" fill="#e7eced"/><path d="m482.566406 107.085938h-64.695312c16.257812 0 29.433594 13.179687 29.433594 29.433593v299.078125c0 16.257813-13.179688 29.433594-29.433594 29.433594h64.691406c16.257812 0 29.4375-13.175781 29.4375-29.433594v-299.078125c0-16.253906-13.179688-29.433593-29.433594-29.433593zm0 0" fill="#d8d8d8"/><path d="m0 184.597656h512v33.003906h-512zm0 0" fill="#fc4e51"/><path d="m447.304688 184.597656h64.695312v33.003906h-64.695312zm0 0" fill="#e5394b"/><path d="m106.015625 244.1875h-23.757813c-6.535156 0-11.835937-5.296875-11.835937-11.832031v-62.511719c0-6.535156 5.300781-11.832031 11.835937-11.832031h23.757813c6.535156 0 11.832031 5.296875 11.832031 11.832031v62.511719c0 6.535156-5.296875 11.832031-11.832031 11.832031zm0 0" fill="#0d6e9a"/><path d="m429.742188 244.1875h-23.757813c-6.535156 0-11.832031-5.296875-11.832031-11.832031v-62.511719c0-6.535156 5.296875-11.832031 11.832031-11.832031h23.757813c6.535156 0 11.835937 5.296875 11.835937 11.832031v62.511719c0 6.535156-5.300781 11.832031-11.835937 11.832031zm0 0" fill="#0d6e9a"/><path d="m326.03125 318.808594h-48.8125v-48.8125c0-4.882813-3.957031-8.839844-8.839844-8.839844h-24.757812c-4.882813 0-8.839844 3.960938-8.839844 8.839844v48.8125h-48.8125c-4.878906 0-8.835938 3.957031-8.835938 8.839844v24.757812c0 4.882812 3.957032 8.839844 8.835938 8.839844h48.8125v48.8125c0 4.882812 3.957031 8.839844 8.839844 8.839844h24.757812c4.882813 0 8.839844-3.960938 8.839844-8.839844v-48.8125h48.8125c4.882812 0 8.839844-3.957032 8.839844-8.839844v-24.757812c0-4.882813-3.957032-8.839844-8.839844-8.839844zm0 0" fill="#8fd143"/></svg>