<svg height="512pt" viewBox="-73 0 512 512.00001" width="512pt" xmlns="http://www.w3.org/2000/svg"><path d="m182.941406 0c-101.035156 0-182.941406 81.90625-182.941406 182.941406 0 164.160156 147.300781 300.722656 177.550781 327.039063 3.09375 2.691406 7.6875 2.691406 10.78125 0 30.253907-26.316407 177.554688-162.878907 177.554688-327.039063 0-101.035156-81.90625-182.941406-182.945313-182.941406zm0 0" fill="#fc4e51"/><path d="m182.941406 0c-11.128906 0-22.027344.996094-32.609375 2.902344 85.480469 15.378906 150.332031 90.132812 150.332031 180.039062 0 133.71875-97.734374 249.125-150.332031 301.550782 11.984375 11.941406 21.625 20.617187 27.230469 25.496093 3.089844 2.6875 7.679688 2.679688 10.773438-.007812 30.25-26.316407 177.550781-162.878907 177.550781-327.039063 0-101.035156-81.90625-182.941406-182.945313-182.941406zm0 0" fill="#e5394b"/><path d="m316.707031 182.941406c0 73.875-59.890625 133.765625-133.765625 133.765625s-133.761718-59.890625-133.761718-133.765625 59.886718-133.761718 133.761718-133.761718 133.765625 59.886718 133.765625 133.761718zm0 0" fill="#e7eced"/><path d="m182.941406 49.179688c-11.1875 0-22.050781 1.382812-32.4375 3.96875 58.199219 14.5 101.328125 67.105468 101.328125 129.792968 0 62.691406-43.128906 115.296875-101.328125 129.796875 10.386719 2.585938 21.25 3.96875 32.4375 3.96875 73.875 0 133.765625-59.890625 133.765625-133.765625s-59.890625-133.761718-133.765625-133.761718zm0 0" fill="#d8d8d8"/><path d="m257.03125 177.011719-17.992188 29v-82.949219c0-3.398438-2.222656-6.398438-5.472656-7.390625-3.246094-.992187-6.765625.257813-8.664062 3.074219l-37.027344 54.988281h-19.652344c-2.664062 0-5.136718 1.371094-6.550781 3.632813l-18.007813 28.8125v-83.117188c0-3.398438-2.21875-6.398438-5.46875-7.390625s-6.765624.257813-8.664062 3.074219l-37.027344 54.988281h-43c-.207031 3.042969-.320312 6.113281-.320312 9.207031 0 2.09375.054687 4.175782.148437 6.246094h47.28125c2.574219 0 4.976563-1.277344 6.410157-3.410156l25.191406-37.40625v84.746094c0 3.449218 2.28125 6.476562 5.59375 7.429687s6.855468-.410156 8.683594-3.332031l30.015624-48.027344h19.480469c2.570313 0 4.972657-1.277344 6.410157-3.410156l25.1875-37.40625v84.746094c0 3.453124 2.289062 6.484374 5.609374 7.433593.703126.199219 1.414063.296875 2.117188.296875 2.625 0 5.132812-1.339844 6.566406-3.65625l30.019532-48.378906h48.675781c.082031-1.945312.136719-3.902344.136719-5.867188 0-3.222656-.121094-6.417968-.347657-9.585937h-52.765625c-2.675781-.003906-5.15625 1.378906-6.566406 3.652344zm0 0" fill="#b26220"/></svg>