<svg height="512pt" viewBox="0 -70 512 512" width="512pt" xmlns="http://www.w3.org/2000/svg"><path d="m472.769531 263.953125h-433.539062c-21.628907 0-39.230469-17.601563-39.230469-39.230469v-160.136718c0-27.242188 22.160156-49.402344 49.398438-49.402344h413.203124c27.238282 0 49.398438 22.160156 49.398438 49.402344v160.136718c0 21.628906-17.601562 39.230469-39.230469 39.230469zm-423.371093-211.21875c-6.535157 0-11.847657 5.316406-11.847657 11.851563v160.136718c0 .925782.753907 1.679688 1.679688 1.679688h433.535156c.929687 0 1.683594-.753906 1.683594-1.679688v-160.136718c0-6.535157-5.316407-11.851563-11.847657-11.851563zm0 0" fill="#0d6e9a"/><path d="m399.898438 372.105469h-287.796876c-24.492187 0-44.347656-19.851563-44.347656-44.34375v-165.125c0-24.488281 19.855469-44.34375 44.347656-44.34375h287.796876c24.492187 0 44.347656 19.855469 44.347656 44.34375v165.125c0 24.492187-19.855469 44.34375-44.347656 44.34375zm0 0" fill="#f3e8d7"/><path d="m399.898438 118.292969h-64.898438c24.488281 0 44.34375 19.855469 44.34375 44.34375v165.125c0 24.492187-19.855469 44.34375-44.34375 44.34375h64.898438c24.492187 0 44.347656-19.851563 44.347656-44.34375v-165.125c0-24.488281-19.855469-44.34375-44.347656-44.34375zm0 0" fill="#ddd1c3"/><path d="m320.019531 188.140625c-2.957031 0-5.777343-1.703125-7.058593-4.578125l-64.015626-143.398438c-1.742187-3.898437.007813-8.46875 3.90625-10.207031 3.894532-1.738281 8.464844.011719 10.203126 3.90625l64.015624 143.398438c1.738282 3.898437-.007812 8.46875-3.90625 10.207031-1.023437.457031-2.09375.671875-3.144531.671875zm0 0" fill="#69e6ed"/><path d="m293.515625 74.023438h-75.027344c-6.835937 0-12.375-5.539063-12.375-12.371094v-49.28125c0-6.832032 5.539063-12.371094 12.375-12.371094h75.027344c6.832031 0 12.371094 5.539062 12.371094 12.371094v49.28125c0 6.832031-5.539063 12.371094-12.371094 12.371094zm0 0" fill="#e7eced"/><path d="m293.515625 0h-61.140625c4.945312 0 8.953125 4.007812 8.953125 8.953125v56.117187c0 4.945313-4.007813 8.953126-8.953125 8.953126h61.140625c6.832031 0 12.371094-5.539063 12.371094-12.371094v-49.28125c0-6.832032-5.539063-12.371094-12.371094-12.371094zm0 0" fill="#d8d8d8"/><path d="m298.011719 298.777344c-.703125 0-1.414063-.097656-2.117188-.296875-3.320312-.949219-5.609375-3.980469-5.609375-7.433594v-72.117187l-20.675781 30.707031c-1.433594 2.132812-3.839844 3.410156-6.410156 3.410156h-16.753907l-26.308593 42.09375c-1.828125 2.925781-5.371094 4.289063-8.683594 3.332031-3.3125-.949218-5.597656-3.980468-5.597656-7.425781v-72.117187l-20.675781 30.707031c-1.433594 2.128906-3.835938 3.410156-6.40625 3.410156h-60.367188c-4.269531 0-7.726562-3.460937-7.726562-7.726563 0-4.269531 3.457031-7.726562 7.726562-7.726562h56.253906l32.515625-48.289062c1.898438-2.816407 5.417969-4.066407 8.664063-3.070313 3.25.992187 5.46875 3.988281 5.46875 7.386719v70.484375l14.304687-22.878907c1.410157-2.261718 3.886719-3.632812 6.550781-3.632812h16.925782l32.515625-48.289062c1.898437-2.816407 5.417969-4.066407 8.664062-3.070313 3.25.992187 5.46875 3.988281 5.46875 7.386719v70.316406l14.289063-23.027344c1.410156-2.269531 3.894531-3.652344 6.566406-3.652344h67.003906c4.265625 0 7.722656 3.460938 7.722656 7.726563s-3.457031 7.726563-7.722656 7.726563h-62.707031l-26.3125 42.40625c-1.433594 2.316406-3.941406 3.65625-6.566406 3.660156zm0 0" fill="#8fd143"/><g fill="#d1c5b8"><path d="m127.753906 118.292969v18.488281c0 4.269531 3.460938 7.726562 7.726563 7.726562s7.726562-3.457031 7.726562-7.726562v-18.488281zm0 0"/><path d="m186.046875 118.292969v18.488281c0 4.269531 3.460937 7.726562 7.726563 7.726562 4.265624 0 7.726562-3.457031 7.726562-7.726562v-18.488281zm0 0"/><path d="m244.339844 118.292969v18.488281c0 4.269531 3.460937 7.726562 7.726562 7.726562s7.726563-3.457031 7.726563-7.726562v-18.488281zm0 0"/><path d="m360.925781 118.292969v18.488281c0 4.269531 3.457031 7.726562 7.726563 7.726562 4.265625 0 7.726562-3.457031 7.726562-7.726562v-18.488281zm0 0"/><path d="m135.480469 345.890625c-4.265625 0-7.726563 3.457031-7.726563 7.722656v18.492188h15.453125v-18.492188c0-4.265625-3.460937-7.722656-7.726562-7.722656zm0 0"/><path d="m193.773438 345.890625c-4.265626 0-7.726563 3.457031-7.726563 7.722656v18.492188h15.453125v-18.492188c0-4.265625-3.460938-7.722656-7.726562-7.722656zm0 0"/><path d="m252.066406 345.890625c-4.265625 0-7.726562 3.457031-7.726562 7.722656v18.492188h15.453125v-18.492188c0-4.265625-3.460938-7.722656-7.726563-7.722656zm0 0"/><path d="m310.359375 345.890625c-4.265625 0-7.726563 3.457031-7.726563 7.722656v18.492188h15.453126v-18.492188c0-4.265625-3.460938-7.722656-7.726563-7.722656zm0 0"/><path d="m368.652344 345.890625c-4.269532 0-7.726563 3.457031-7.726563 7.722656v18.492188h15.453125v-18.492188c0-4.265625-3.460937-7.722656-7.726562-7.722656zm0 0"/></g></svg>