<svg height="512pt" viewBox="0 -26 512.001 512" width="512pt" xmlns="http://www.w3.org/2000/svg"><path d="m292.996094 426.738281c2.347656-33.042969-19.398438-61.300781-49.042969-68.148437-4.96875-1.148438-8.925781-5.011719-9.714844-10.046875-4.097656-26.121094-26.136719-46.070313-52.714843-46.070313-6.921876 0-13.535157 1.359375-19.605469 3.824219-6.230469 2.535156-13.410157-.023437-16.214844-6.136719-12.230469-26.671875-38.617187-45.136718-69.214844-45.136718-1.871093 0-3.726562.070312-5.5625.210937-5.105469.386719-9.703125-2.871094-11.421875-7.691406-8.945312-25.058594-32.144531-43.039063-59.503906-43.585938v222.78125zm0 0" fill="#d8d8d8"/><path d="m195.101562 407.4375c-4.964843-1.148438-8.921874-5.011719-9.714843-10.046875-4.09375-26.121094-26.132813-46.070313-52.710938-46.070313-6.921875 0-13.535156 1.359376-19.605469 3.828126-6.234374 2.53125-13.410156-.027344-16.214843-6.140626-12.230469-26.671874-38.617188-45.136718-69.214844-45.136718-1.871094 0-3.726563.070312-5.5625.210937-5.105469.386719-9.703125-2.871093-11.425781-7.691406-2.503906-7.023437-6.128906-13.488281-10.652344-19.167969v149.515625h227.578125c-8.527344-9.492187-19.769531-16.367187-32.476563-19.300781zm0 0" fill="#e7eced"/><path d="m477.890625 428.789062h-264.953125v-303.230468l132.476562-87.871094 132.476563 87.871094zm0 0" fill="#e7eced"/><path d="m345.414062 37.6875-35.378906 23.464844 101.5 67.328125v300.308593h66.355469v-303.230468zm0 0" fill="#d8d8d8"/><path d="m340.328125 61.476562-133.238281 88.382813c-12.097656 8.023437-28.265625-.652344-28.265625-15.171875 0-6.101562 3.058593-11.796875 8.144531-15.167969l153.359375-101.726562c3.082031-2.042969 7.085937-2.042969 10.167969 0l153.363281 101.726562c5.085937 3.371094 8.140625 9.066407 8.140625 15.167969 0 14.519531-16.164062 23.195312-28.261719 15.171875l-133.242187-88.382813c-3.082032-2.042968-7.085938-2.042968-10.167969 0zm0 0" fill="#fc4e51"/><path d="m437.429688 342.789062h-60.933594c-5.683594 0-10.292969-4.609374-10.292969-10.292968v-46.980469c0-5.683594 4.609375-10.292969 10.292969-10.292969h60.933594c5.683593 0 10.292968 4.605469 10.292968 10.292969v46.980469c0 5.683594-4.609375 10.292968-10.292968 10.292968zm0 0" fill="#69e6ed"/><path d="m331.03125 428.789062h-81.515625v-145.808593c0-4.285157 3.472656-7.757813 7.757813-7.757813h66c4.285156 0 7.757812 3.472656 7.757812 7.757813zm0 0" fill="#912c2c"/><path d="m390.933594 165.464844c0 25.140625-20.378906 45.523437-45.519532 45.523437-25.140624 0-45.519531-20.382812-45.519531-45.523437 0-25.136719 20.378907-45.519532 45.519531-45.519532 25.140626 0 45.519532 20.382813 45.519532 45.519532zm0 0" fill="#69e6ed"/><path d="m353.148438 120.613281c-2.515626-.429687-5.097657-.667969-7.734376-.667969-2.640624 0-5.21875.238282-7.734374.667969v37.121094h-37.117188c-.433594 2.511719-.667969 5.09375-.667969 7.730469 0 2.640625.234375 5.21875.667969 7.734375h37.117188v37.121093c2.515624.429688 5.09375.667969 7.734374.667969 2.636719 0 5.21875-.238281 7.734376-.667969v-37.117187h37.117187c.429687-2.515625.667969-5.097656.667969-7.734375 0-2.640625-.238282-5.21875-.667969-7.734375h-37.117187zm0 0" fill="#33d8dd"/><path d="m18.15625 459.664062h473.011719c10.027343 0 18.152343-8.128906 18.152343-18.152343 0-20.855469-16.90625-37.757813-37.757812-37.757813h-471.55859375v37.757813c0 10.023437 8.12890575 18.152343 18.15234375 18.152343zm0 0" fill="#7bb72e"/><g fill="#69e6ed"><path d="m122.445312 190.242188c-4.269531 0-7.734374-3.464844-7.734374-7.734376 0-4.273437 3.464843-7.734374 7.734374-7.734374 8.855469 0 16.058594-7.203126 16.058594-16.058594 0-8.855469-7.203125-16.058594-16.058594-16.058594h-100.375c-4.273437 0-7.734374-3.460938-7.734374-7.734375 0-4.269531 3.460937-7.730469 7.734374-7.730469h100.375c17.382813 0 31.527344 14.140625 31.527344 31.523438 0 17.382812-14.144531 31.527344-31.527344 31.527344zm0 0"/><path d="m189.007812 63.050781h-124.28125c-4.269531 0-7.734374-3.460937-7.734374-7.730469 0-4.273437 3.464843-7.734374 7.734374-7.734374h124.28125c8.851563 0 16.058594-7.207032 16.058594-16.058594 0-8.855469-7.207031-16.058594-16.058594-16.058594-4.273437 0-7.734374-3.460938-7.734374-7.734375s3.460937-7.734375 7.734374-7.734375c17.382813 0 31.523438 14.140625 31.523438 31.527344 0 17.382812-14.140625 31.523437-31.523438 31.523437zm0 0"/><path d="m82.621094 104.460938h-74.886719c-4.269531 0-7.734375-3.460938-7.734375-7.734376 0-4.269531 3.464844-7.730468 7.734375-7.730468h74.886719c4.269531 0 7.734375 3.460937 7.734375 7.730468 0 4.273438-3.460938 7.734376-7.734375 7.734376zm0 0"/></g></svg>