<svg height="512pt" viewBox="-14 0 512 512" width="512pt" xmlns="http://www.w3.org/2000/svg"><path d="m38.855469 447.355469c-14.347657 0-27.875 5.632812-34.703125 15.066406-2.5 3.449219-3.933594 7.121094-4.1289065 10.921875-1.0859375 21.261719 36.0468745 38.65625 82.0078125 38.65625 43.71875 0 69.496094-14.980469 187.359375-14.980469 25.476563 0 81.324219 1.449219 124.632813 1.449219 41.363281 0 69.277343-14.8125 86.234374-28.492188 9.832032-7.929687 3.496094-22.621093-9.707031-22.621093zm0 0" fill="#b26220"/><path d="m390.289062 38.269531h-58.105468v-31.566406c0-3.699219 3.003906-6.703125 6.707031-6.703125h44.695313c3.703124 0 6.703124 3.003906 6.703124 6.703125zm0 0" fill="#0d6e9a"/><path d="m115.398438 45.332031h303.765624v409.191407h-303.765624zm0 0" fill="#fccf3f"/><path d="m353.238281 45.332031h65.925781v409.191407h-65.925781zm0 0" fill="#f2bc25"/><g fill="#fd8f31"><path d="m424.59375 58.945312h-314.625c-9.160156 0-16.585938-7.421874-16.585938-16.582031v-.222656c0-9.160156 7.425782-16.582031 16.585938-16.582031h314.625c9.160156 0 16.585938 7.421875 16.585938 16.582031v.222656c0 9.15625-7.425782 16.582031-16.585938 16.582031zm0 0"/><path d="m424.59375 266.621094h-314.625c-9.160156 0-16.585938-7.421875-16.585938-16.582032v-.222656c0-9.160156 7.425782-16.582031 16.585938-16.582031h314.625c9.160156 0 16.585938 7.421875 16.585938 16.582031v.222656c0 9.160157-7.425782 16.582032-16.585938 16.582032zm0 0"/><path d="m424.59375 467.179688h-314.625c-9.160156 0-16.585938-7.425782-16.585938-16.585938v-.21875c0-9.160156 7.425782-16.585938 16.585938-16.585938h314.625c9.160156 0 16.585938 7.425782 16.585938 16.585938v.21875c0 9.160156-7.425782 16.585938-16.585938 16.585938zm0 0"/></g><path d="m372.523438 249.929688c0-58.898438-47.121094-106.640626-105.242188-106.640626-58.125 0-105.242188 47.742188-105.242188 106.640626 0 58.894531 47.117188 106.636718 105.242188 106.636718 58.121094 0 105.242188-47.742187 105.242188-106.636718zm0 0" fill="#e7eced"/><path d="m267.28125 143.289062c-11.039062 0-21.679688 1.726563-31.675781 4.917969 42.644531 13.621094 73.566406 54.011719 73.566406 101.722657 0 47.707031-30.921875 88.097656-73.566406 101.71875 9.996093 3.191406 20.636719 4.917968 31.675781 4.917968 58.121094 0 105.242188-47.742187 105.242188-106.636718 0-58.898438-47.121094-106.640626-105.242188-106.640626zm0 0" fill="#d8d8d8"/><path d="m267.28125 311.035156c-21.980469 0-39.800781-17.816406-39.800781-39.796875 0-39.800781 39.800781-82.417969 39.800781-82.417969s39.800781 42.617188 39.800781 82.417969c0 21.980469-17.820312 39.796875-39.800781 39.796875zm0 0" fill="#0d6e9a"/><path d="m292.285156 25.558594v89.007812c0 9.710938 7.871094 17.582032 17.582032 17.582032 9.710937 0 17.582031-7.871094 17.582031-17.582032v-31.042968c0-9.710938 7.871093-17.582032 17.582031-17.582032s17.582031 7.871094 17.582031 17.582032v7.992187c0 1.015625.164063 2.027344.527344 2.972656 3.074219 8.015625 12.441406 13.273438 21.605469 10.863281 7.789062-2.046874 13.03125-9.363281 13.03125-17.414062v-62.378906zm0 0" fill="#b26220"/></svg>