<svg height="511.999pt" viewBox="1 1 511.999 511.999" width="511.999pt" xmlns="http://www.w3.org/2000/svg"><path d="m506.429688 269.476562c.609374 2.613282 4.414062 2.382813 4.664062-.289062.597656-6.433594.90625-12.953125.90625-19.542969 0-115.992187-94.03125-210.023437-210.023438-210.023437-50.425781 0-96.699218 17.773437-132.902343 47.394531-8.070313 6.605469-18.804688-4.253906-12.085938-12.226563 28.613281-33.960937 67.800781-58.722656 112.488281-69.214843 2.613282-.613281 2.378907-4.417969-.292968-4.667969-6.429688-.597656-12.949219-.90625-19.539063-.90625-115.996093 0-210.027343 94.03125-210.027343 210.023438 0 50.425781 17.777343 96.699218 47.398437 132.898437 6.605469 8.070313-4.253906 18.808594-12.230469 12.089844-33.960937-28.617188-58.71875-67.800781-69.214844-112.488281-.609374-2.613282-4.414062-2.382813-4.664062.289062-.597656 6.433594-.90625 12.953125-.90625 19.542969 0 115.996093 94.03125 210.027343 210.023438 210.027343 50.425781 0 96.699218-17.777343 132.898437-47.398437 8.070313-6.605469 18.808594 4.253906 12.089844 12.230469-28.617188 33.960937-67.800781 58.71875-112.488281 69.214844-2.613282.609374-2.382813 4.414062.289062 4.664062 6.433594.597656 12.953125.90625 19.542969.90625 115.992187 0 210.023437-94.03125 210.023437-210.023438 0-50.425781-17.769531-96.695312-47.390625-132.894531-6.664062-8.144531 4.304688-18.777343 12.34375-11.992187 33.898438 28.605468 58.617188 67.753906 69.097657 112.386718zm0 0" fill="#e7eced"/><g fill="#d8d8d8"><path d="m169.269531 247.71875c-4.265625 0-7.726562-3.460938-7.726562-7.726562 0-74.4375 60.558593-135 135-135 4.265625 0 7.726562 3.460937 7.726562 7.726562 0 4.269531-3.460937 7.726562-7.726562 7.726562-65.917969 0-119.546875 53.628907-119.546875 119.546876 0 4.269531-3.460938 7.726562-7.726563 7.726562zm0 0"/><path d="m383.964844 323.644531c-.707032 0-1.421875-.097656-2.132813-.300781-4.101562-1.179688-6.476562-5.457031-5.300781-9.558594 18.164062-63.363281-18.613281-129.691406-81.976562-147.855468-4.101563-1.175782-6.476563-5.453126-5.300782-9.554688 1.175782-4.105469 5.457032-6.472656 9.558594-5.300781 71.554688 20.511719 113.085938 95.414062 92.574219 166.96875-.972657 3.390625-4.0625 5.601562-7.421875 5.601562zm0 0"/><path d="m215.460938 407.007812c-4.269532 0-7.726563-3.460937-7.726563-7.726562 0-4.269531 3.457031-7.726562 7.726563-7.726562 65.914062 0 119.542968-53.628907 119.542968-119.546876 0-4.265624 3.460938-7.726562 7.726563-7.726562s7.726562 3.460938 7.726562 7.726562c0 74.4375-60.558593 135-134.996093 135zm0 0"/><path d="m215.320312 361.226562c-.703124 0-1.421874-.097656-2.132812-.300781-71.554688-20.511719-113.085938-95.414062-92.574219-166.96875 1.175781-4.101562 5.457031-6.472656 9.554688-5.300781 4.101562 1.175781 6.476562 5.457031 5.300781 9.558594-18.164062 63.363281 18.613281 129.691406 81.976562 147.855468 4.101563 1.175782 6.476563 5.453126 5.300782 9.554688-.972656 3.390625-4.066406 5.601562-7.425782 5.601562zm0 0"/><path d="m301.976562 39.617188c-2.011718 0-4.015624.039062-6.015624.097656 71.449218 45.457031 120.574218 125.347656 118.855468 216.285156-2.136718 112.871094-55.625 176.253906-59.804687 181.214844-28.617188 33.960937-67.800781 58.71875-112.488281 69.214844-2.613282.609374-2.382813 4.414062.289062 4.664062 6.433594.597656 12.953125.90625 19.542969.90625 115.992187 0 210.023437-94.03125 210.023437-210.023438 0-50.425781-17.769531-96.695312-47.390625-132.894531-6.664062-8.144531 4.304688-18.777343 12.34375-11.992187 33.898438 28.605468 58.613281 67.753906 69.09375 112.386718.613281 2.613282 4.417969 2.378907 4.667969-.292968.597656-6.433594.902344-12.949219.902344-19.539063.003906-115.996093-94.027344-210.027343-210.019532-210.027343zm0 0"/></g></svg>