<svg height="512pt" viewBox="-1 -6 512.00018 512" width="512pt" xmlns="http://www.w3.org/2000/svg"><path d="m459.078125 163.863281c7.171875-13.710937 5.160156-31.191406-6.050781-42.773437-8.617188-8.902344-20.601563-12.191406-31.710938-9.878906-12.078125-39.082032-47.511718-67.390626-89.347656-67.390626-3.683594 0-7.320312.226563-10.894531.65625-17.308594-26.8125-46.84375-44.476562-80.378907-44.476562-45.894531 0-84.304687 33.078125-94.121093 77.410156-22.089844-6-46.445313 2.167969-60.605469 22.449219-6.460938 9.253906-9.925781 19.792969-10.613281 30.394531-.046875 0-.09375-.003906-.140625-.003906-40.300782 0-72.972656 33.753906-72.972656 75.390625s32.671874 75.386719 72.972656 75.386719c8.792968 0 17.226562-1.605469 25.03125-4.550782 1.746094 3.03125 3.878906 5.890626 6.40625 8.496094 16.308594 16.851563 42.710937 16.910156 59.097656.183594 17.703125 22.492188 44.699219 36.867188 74.945312 36.867188 32.910157 0 61.964844-17.015626 79.398438-42.988282 2.441406 4.945313 5.652344 9.585938 9.65625 13.71875 20.53125 21.210938 53.816406 21.210938 74.347656 0 6.769532-6.992187 11.292969-15.421875 13.597656-24.339844 9.683594 7.894532 21.898438 12.613282 35.1875 12.613282 31.410157 0 56.875-26.304688 56.875-58.757813 0-30.289062-22.183593-55.214843-50.679687-58.40625zm0 0" fill="#69e6ed"/><path d="m459.078125 163.863281c7.171875-13.710937 5.160156-31.191406-6.050781-42.773437-8.617188-8.902344-20.601563-12.191406-31.710938-9.878906-12.078125-39.082032-47.511718-67.390626-89.347656-67.390626-3.683594 0-7.320312.226563-10.894531.65625-17.308594-26.8125-46.84375-44.476562-80.378907-44.476562-11.332031 0-22.203124 2.023438-32.300781 5.726562 19.792969 7.261719 36.617188 20.996094 48.078125 38.75 3.574219-.429687 7.207032-.65625 10.894532-.65625 41.835937 0 77.269531 28.308594 89.347656 67.390626 11.109375-2.3125 23.09375.976562 31.707031 9.878906 11.214844 11.582031 13.226563 29.0625 6.054687 42.773437 28.496094 3.191407 50.679688 28.117188 50.679688 58.40625 0 20.050781-9.726562 37.742188-24.5625 48.347657 9.175781 6.554687 20.289062 10.414062 32.289062 10.414062 31.410157 0 56.875-26.308594 56.875-58.757812 0-30.292969-22.183593-55.21875-50.679687-58.410157zm0 0" fill="#33d8dd"/><path d="m147.824219 400.792969c.914062.359375 1.855469.527343 2.78125.527343 3.066406 0 5.957031-1.851562 7.136719-4.878906 1.539062-3.9375-.410157-8.378906-4.351563-9.917968l-10.144531-3.953126 9.855468-5.742187c3.65625-2.128906 4.894532-6.816406 2.765626-10.472656-2.128907-3.65625-6.820313-4.890625-10.472657-2.761719l-9.855469 5.738281 1.566407-10.773437c.605469-4.183594-2.292969-8.070313-6.480469-8.679688-4.179688-.621094-8.070312 2.292969-8.679688 6.480469l-3.3125 22.820313-31.839843 18.542968v-36.84375l18.054687-14.351562c3.308594-2.628906 3.859375-7.445313 1.230469-10.757813-2.632813-3.3125-7.449219-3.863281-10.761719-1.230469l-8.523437 6.773438v-11.40625c0-4.226562-3.429688-7.65625-7.660157-7.65625-4.226562 0-7.65625 3.425781-7.65625 7.65625v11.40625l-8.523437-6.773438c-3.3125-2.632812-8.128906-2.082031-10.761719 1.230469-2.632812 3.3125-2.082031 8.128907 1.230469 10.757813l18.054687 14.351562v36.84375l-31.839843-18.542968-3.3125-22.820313c-.609375-4.1875-4.496094-7.097656-8.679688-6.480469-4.1875.609375-7.085937 4.496094-6.480469 8.679688l1.566407 10.777344-9.855469-5.742188c-3.65625-2.132812-8.34375-.894531-10.472656 2.761719-2.128906 3.65625-.894532 8.34375 2.761718 10.472656l9.859376 5.742187-10.144532 3.953126c-3.941406 1.539062-5.890625 5.980468-4.351562 9.917968 1.179687 3.027344 4.070312 4.878906 7.136718 4.878906.921876 0 1.867188-.167968 2.78125-.527343l21.484376-8.378907 31.988281 18.632813-31.988281 18.628906-21.484376-8.378906c-3.945312-1.535156-8.382812.414063-9.917968 4.355469-1.539063 3.9375.410156 8.378906 4.351562 9.914062l10.144532 3.957032-9.859376 5.742187c-3.652343 2.125-4.890624 6.816406-2.761718 10.46875 1.421875 2.445313 3.988281 3.808594 6.625 3.808594 1.308594 0 2.632812-.335938 3.847656-1.042969l9.855469-5.742188-1.566407 10.773438c-.605468 4.1875 2.292969 8.074219 6.480469 8.683594.371094.054687.742188.078125 1.109375.078125 3.742188 0 7.015625-2.746094 7.570313-6.558594l3.3125-22.824219 31.839843-18.542968v36.847656l-18.054687 14.347656c-3.308594 2.632812-3.859375 7.449219-1.230469 10.761719 2.632813 3.3125 7.449219 3.863281 10.761719 1.230469l8.523437-6.773438v11.40625c0 4.230469 3.429688 7.65625 7.65625 7.65625 4.230469 0 7.660157-3.425781 7.660157-7.65625v-11.40625l8.523437 6.773438c1.410156 1.121093 3.089844 1.664062 4.761719 1.664062 2.253906 0 4.488281-.992188 6-2.894531 2.632813-3.3125 2.082031-8.128907-1.230469-10.761719l-18.054687-14.347656v-36.847656l31.839843 18.542968 3.3125 22.824219c.554688 3.8125 3.828126 6.558594 7.570313 6.558594.367187 0 .738281-.023438 1.109375-.078125 4.1875-.609375 7.085938-4.496094 6.480469-8.683594l-1.566407-10.769531 9.855469 5.738281c1.210938.707031 2.539063 1.042969 3.847657 1.042969 2.636718 0 5.203124-1.363281 6.625-3.808594 2.128906-3.652344.890624-8.34375-2.765626-10.46875l-9.855468-5.742187 10.144531-3.957032c3.941406-1.535156 5.890625-5.976562 4.351563-9.914062-1.535157-3.941406-5.976563-5.894532-9.917969-4.355469l-21.484375 8.378906-31.988282-18.628906 31.988282-18.632813zm0 0" fill="#69e6ed"/><path d="m511.476562 425.648438c-1.539062-3.9375-5.980468-5.890626-9.917968-4.351563l-21.488282 8.378906-31.988281-18.628906 31.988281-18.632813 21.488282 8.378907c.910156.355469 1.851562.527343 2.777344.527343 3.066406 0 5.957031-1.851562 7.140624-4.878906 1.535157-3.941406-.414062-8.382812-4.355468-9.917968l-10.140625-3.957032 9.855469-5.738281c3.652343-2.128906 4.890624-6.816406 2.761718-10.472656s-6.820312-4.890625-10.472656-2.761719l-9.851562 5.738281 1.5625-10.773437c.609374-4.183594-2.292969-8.074219-6.480469-8.679688-4.183594-.621094-8.070313 2.292969-8.679688 6.476563l-3.3125 22.824219-31.839843 18.542968v-36.84375l18.054687-14.351562c3.308594-2.632813 3.863281-7.449219 1.230469-10.761719-2.632813-3.308594-7.449219-3.859375-10.761719-1.230469l-8.523437 6.777344v-11.40625c0-4.230469-3.429688-7.65625-7.65625-7.65625-4.230469 0-7.660157 3.425781-7.660157 7.65625v11.40625l-8.523437-6.777344c-3.308594-2.632812-8.128906-2.078125-10.761719 1.230469-2.632813 3.3125-2.082031 8.128906 1.230469 10.761719l18.054687 14.351562v36.84375l-31.839843-18.542968-3.3125-22.824219c-.609376-4.183594-4.496094-7.09375-8.679688-6.476563-4.1875.605469-7.085938 4.492188-6.480469 8.679688l1.566407 10.773437-9.855469-5.738281c-3.652344-2.132812-8.34375-.894531-10.472657 2.761719-2.128906 3.65625-.890624 8.34375 2.765626 10.472656l9.855468 5.738281-10.144531 3.957032c-3.941406 1.539062-5.890625 5.976562-4.351563 9.917968 1.179688 3.027344 4.070313 4.878906 7.136719 4.878906.925781 0 1.867188-.171874 2.78125-.527343l21.484375-8.378907 31.988282 18.632813-31.988282 18.628906-21.484375-8.378906c-3.941406-1.535156-8.382812.414063-9.917969 4.351563-1.539062 3.941406.410157 8.382812 4.351563 9.917968l10.144531 3.957032-9.855468 5.738281c-3.65625 2.128906-4.894532 6.820312-2.765626 10.472656 1.425782 2.445313 3.988282 3.804687 6.625 3.804687 1.308594 0 2.636719-.335937 3.847657-1.039062l9.855469-5.742188-1.566407 10.773438c-.605469 4.1875 2.292969 8.074219 6.480469 8.679688.371094.054687.742188.082031 1.109375.082031 3.742187 0 7.015625-2.746094 7.570313-6.558594l3.3125-22.824219 31.839843-18.542968v36.847656l-18.054687 14.347656c-3.308594 2.632812-3.859375 7.449219-1.230469 10.761719 2.632813 3.3125 7.449219 3.863281 10.761719 1.230469l8.523437-6.773438v11.402344c0 4.230468 3.429688 7.660156 7.660157 7.660156 4.226562 0 7.65625-3.425781 7.65625-7.660156v-11.402344l8.523437 6.773438c1.410156 1.121093 3.089844 1.664062 4.761719 1.664062 2.253906 0 4.488281-.992188 6-2.894531 2.632812-3.3125 2.082031-8.128907-1.230469-10.761719l-18.054687-14.347656v-36.847656l31.839843 18.542968 3.3125 22.824219c.554688 3.8125 3.828125 6.558594 7.570313 6.558594.367187 0 .738281-.027344 1.109375-.082031 4.1875-.605469 7.089843-4.492188 6.480469-8.679688l-1.5625-10.773438 9.851562 5.742188c1.214844.707031 2.539062 1.039062 3.847656 1.039062 2.636719 0 5.203125-1.359374 6.625-3.804687 2.128906-3.652344.894532-8.34375-2.761718-10.472656l-9.855469-5.738281 10.140625-3.957032c3.941406-1.535156 5.890625-5.976562 4.355468-9.917968zm0 0" fill="#69e6ed"/><path d="m334.609375 181.605469c-1.539063-3.9375-5.976563-5.890625-9.917969-4.351563l-21.484375 8.378906-31.992187-18.632812 31.992187-18.628906 21.484375 8.378906c.914063.355469 1.855469.523438 2.78125.523438 3.0625 0 5.957032-1.851563 7.136719-4.875 1.539063-3.941407-.410156-8.382813-4.351563-9.917969l-10.144531-3.957031 9.855469-5.738282c3.65625-2.128906 4.890625-6.816406 2.765625-10.472656-2.128906-3.65625-6.820313-4.890625-10.472656-2.761719l-9.855469 5.738281 1.5625-10.773437c.609375-4.1875-2.292969-8.074219-6.476562-8.679687-4.183594-.617188-8.074219 2.292968-8.679688 6.476562l-3.316406 22.824219-31.835938 18.542969v-36.847657l18.050782-14.347656c3.3125-2.632813 3.863281-7.449219 1.234374-10.761719-2.632812-3.3125-7.453124-3.863281-10.761718-1.230468l-8.523438 6.773437v-11.402344c0-4.230469-3.429687-7.660156-7.660156-7.660156s-7.660156 3.429687-7.660156 7.660156v11.402344l-8.519532-6.773437c-3.3125-2.632813-8.128906-2.078126-10.761718 1.230468-2.632813 3.3125-2.082032 8.128906 1.230468 10.761719l18.050782 14.347656v36.847657l-31.835938-18.542969-3.3125-22.824219c-.609375-4.183594-4.5-7.089844-8.683594-6.476562-4.183593.605468-7.085937 4.492187-6.476562 8.679687l1.5625 10.773437-9.851562-5.738281c-3.65625-2.132812-8.34375-.894531-10.472657 2.761719-2.128906 3.65625-.894531 8.34375 2.761719 10.472656l9.855469 5.738282-10.144531 3.957031c-3.941407 1.535156-5.886719 5.976562-4.351563 9.917969 1.179687 3.027343 4.074219 4.875 7.136719 4.875.925781 0 1.867187-.167969 2.78125-.523438l21.488281-8.378906 31.988281 18.628906-31.988281 18.632812-21.488281-8.378906c-3.9375-1.535156-8.378906.414063-9.914063 4.351563-1.539062 3.941406.410157 8.382812 4.351563 9.917969l10.140625 3.957031-9.851563 5.738281c-3.65625 2.128906-4.894531 6.816406-2.765625 10.472656 1.421875 2.441406 3.988281 3.804688 6.625 3.804688 1.308594 0 2.636719-.335938 3.847657-1.042969l9.851562-5.738281-1.5625 10.773437c-.609375 4.1875 2.292969 8.074219 6.480469 8.679688.371093.054687.742187.082031 1.109375.082031 3.742187 0 7.015625-2.746094 7.570312-6.558594l3.3125-22.824218 31.839844-18.542969v36.847656l-18.054688 14.347656c-3.3125 2.632813-3.863281 7.449219-1.230468 10.761719 2.632812 3.3125 7.449218 3.863281 10.761718 1.230469l8.519532-6.773438v11.402344c0 4.230469 3.429687 7.660156 7.660156 7.660156s7.660156-3.429687 7.660156-7.660156v-11.402344l8.523438 6.773438c1.40625 1.121093 3.089844 1.664062 4.757812 1.664062 2.257813 0 4.492188-.992187 6-2.894531 2.632813-3.3125 2.082032-8.128906-1.230468-10.761719l-18.050782-14.347656v-36.847656l31.835938 18.542969 3.316406 22.824218c.550781 3.8125 3.824219 6.558594 7.566406 6.558594.367188 0 .738282-.027344 1.113282-.082031 4.183593-.605469 7.085937-4.492188 6.476562-8.679688l-1.5625-10.773437 9.851562 5.738281c1.214844.707031 2.539063 1.042969 3.847657 1.042969 2.636719 0 5.203125-1.363282 6.625-3.804688 2.128906-3.65625.894531-8.34375-2.761719-10.472656l-9.855469-5.738281 10.140625-3.957031c3.945313-1.535157 5.890625-5.976563 4.355469-9.917969zm0 0" fill="#fff"/></svg>