<svg height="512pt" viewBox="0 -10 512 512" width="512pt" xmlns="http://www.w3.org/2000/svg"><path d="m455.816406 269.902344c30.734375 0 55.953125-24.699219 56.179688-55.433594.003906-.214844.003906-.433594.003906-.652344 0-39.414062-26.621094-72.332031-62.125-80.292968 3.691406-24.136719-5.253906-49.539063-25.332031-65.171876-24.335938-18.953124-57.214844-17.488281-79.804688 1.53125-25.039062-41.953124-69.640625-69.882812-120.503906-69.882812-73.105469 0-133.289063 57.695312-141.011719 131.816406-1.484375-.085937-2.976562-.140625-4.480468-.140625-43.488282 0-78.742188 36.777344-78.742188 82.140625 0 .21875 0 .4375.00390625.652344.22656275 30.734375 25.44140575 55.433594 56.17968775 55.433594zm0 0" fill="#e7eced"/><path d="m224.234375 0c-11.089844 0-21.882813 1.335938-32.242187 3.847656 32.511718 7.890625 60.730468 27.449219 80.386718 54.207032 4.507813 6.132812 12.40625 8.917968 19.671875 6.640624 22.351563-6.996093 44.074219.777344 52.6875 5.1875-25.039062-41.953124-69.640625-69.882812-120.503906-69.882812zm0 0" fill="#d8d8d8"/><path d="m449.875 133.523438c3.691406-24.136719-5.253906-49.539063-25.332031-65.171876-24.335938-18.953124-57.214844-17.488281-79.804688 1.53125 17.914063 9.167969 34.792969 25.625 39.46875 52.957032 1.082031 6.320312 5.507813 11.515625 11.5 13.792968 30.207031 11.484376 51.78125 41.703126 51.78125 77.183594 0 .21875 0 .433594-.003906.652344-.226563 30.734375-25.445313 55.433594-56.179687 55.433594h64.511718c30.734375 0 55.953125-24.699219 56.179688-55.433594.003906-.21875.003906-.433594.003906-.652344 0-39.417968-26.621094-72.332031-62.125-80.292968zm0 0" fill="#d8d8d8"/><g fill="#69e6ed"><path d="m88 315.355469c-.664062-2.652344-3.648438-3.972657-6.0625-2.6875l-21.296875 11.347656c-1.707031.90625-2.574219 2.863281-2.105469 4.738281l5.878906 23.40625c.667969 2.652344 3.648438 3.976563 6.066407 2.691406l21.296875-11.347656c1.707031-.910156 2.574218-2.867187 2.105468-4.742187zm0 0"/><path d="m52.402344 452.8125c-.667969-2.652344-3.648438-3.976562-6.0625-2.691406l-21.296875 11.347656c-1.707031.910156-2.574219 2.867188-2.105469 4.742188l5.878906 23.40625c.667969 2.652343 3.648438 3.976562 6.066406 2.6875l21.296876-11.34375c1.707031-.910157 2.574218-2.867188 2.101562-4.742188zm0 0"/><path d="m158.84375 388.523438c-.667969-2.652344-3.648438-3.976563-6.0625-2.6875l-21.296875 11.34375c-1.707031.910156-2.578125 2.867187-2.105469 4.742187l5.878906 23.402344c.667969 2.65625 3.648438 3.976562 6.0625 2.691406l21.300782-11.347656c1.707031-.90625 2.574218-2.863281 2.101562-4.738281zm0 0"/><path d="m342.585938 388.523438c-.667969-2.652344-3.648438-3.976563-6.0625-2.6875l-21.300782 11.34375c-1.707031.910156-2.574218 2.867187-2.101562 4.742187l5.878906 23.402344c.667969 2.65625 3.648438 3.976562 6.0625 2.691406l21.296875-11.347656c1.707031-.90625 2.578125-2.863281 2.105469-4.738281zm0 0"/><path d="m268.515625 315.355469c-.667969-2.652344-3.648437-3.972657-6.066406-2.6875l-21.296875 11.347656c-1.707032.90625-2.574219 2.863281-2.101563 4.738281l5.878907 23.40625c.667968 2.652344 3.648437 3.976563 6.0625 2.691406l21.296874-11.347656c1.707032-.910156 2.574219-2.867187 2.105469-4.742187zm0 0"/><path d="m232.914062 452.8125c-.667968-2.652344-3.648437-3.976562-6.0625-2.691406l-21.296874 11.347656c-1.707032.910156-2.574219 2.867188-2.105469 4.742188l5.878906 23.40625c.667969 2.652343 3.648437 3.976562 6.066406 2.6875l21.296875-11.34375c1.707032-.910157 2.574219-2.867188 2.105469-4.742188zm0 0"/><path d="m449.027344 315.355469c-.667969-2.652344-3.648438-3.972657-6.0625-2.6875l-21.300782 11.347656c-1.707031.90625-2.574218 2.863281-2.101562 4.738281l5.878906 23.40625c.667969 2.652344 3.648438 3.976563 6.0625 2.691406l21.296875-11.347656c1.707031-.910156 2.578125-2.867187 2.105469-4.742187zm0 0"/><path d="m413.429688 452.8125c-.667969-2.652344-3.648438-3.976562-6.066407-2.691406l-21.296875 11.347656c-1.707031.910156-2.574218 2.867188-2.101562 4.742188l5.878906 23.40625c.667969 2.652343 3.648438 3.976562 6.0625 2.6875l21.296875-11.34375c1.707031-.910157 2.574219-2.867188 2.105469-4.742188zm0 0"/></g></svg>