<svg height="512pt" viewBox="0 -28 512.001 512" width="512pt" xmlns="http://www.w3.org/2000/svg"><path d="m400.457031 153.769531c-14.597656 0-26.472656-11.875-26.472656-26.472656s11.875-26.472656 26.472656-26.472656h92.570313c4.203125 0 7.609375 3.410156 7.609375 7.613281s-3.40625 7.609375-7.609375 7.609375h-92.570313c-6.203125 0-11.25 5.046875-11.25 11.25s5.046875 11.25 11.25 11.25c4.203125 0 7.609375 3.40625 7.609375 7.609375s-3.40625 7.613281-7.609375 7.613281zm0 0" fill="#33d8dd"/><path d="m459.210938 52.945312h-111.519532c-14.59375 0-26.46875-11.875-26.46875-26.472656s11.875-26.472656 26.46875-26.472656c4.207032 0 7.613282 3.40625 7.613282 7.613281 0 4.203125-3.40625 7.609375-7.613282 7.609375-6.199218 0-11.246094 5.046875-11.246094 11.25 0 6.199219 5.046876 11.246094 11.246094 11.246094h111.519532c4.203124 0 7.609374 3.410156 7.609374 7.613281 0 4.207031-3.40625 7.613281-7.609374 7.613281zm0 0" fill="#33d8dd"/><path d="m504.386719 85.773438h-59.363281c-4.203126 0-7.613282-3.410157-7.613282-7.613282s3.410156-7.609375 7.613282-7.609375h59.363281c4.207031 0 7.613281 3.40625 7.613281 7.609375s-3.40625 7.613282-7.613281 7.613282zm0 0" fill="#33d8dd"/><path d="m409.589844 312.847656c-25.601563 0-25.601563 10.953125-51.199219 10.953125-25.601563 0-25.601563-10.953125-51.199219-10.953125-25.601562 0-25.601562 10.953125-51.199218 10.953125-25.597657 0-25.597657-10.953125-51.195313-10.953125-25.601563 0-25.601563 10.953125-51.203125 10.953125-25.597656 0-25.597656-10.953125-51.195312-10.953125-25.601563 0-25.601563 10.953125-51.199219 10.953125-22.84375 0-25.304688-8.71875-43.75-10.597656-3.984375-.40625-7.449219 2.886719-7.449219 7.140625v127.558594c0 4.621094 3.527344 8.363281 7.875 8.363281h496.25c4.351562 0 7.875-3.742187 7.875-8.363281v-127.558594c0-4.253906-3.460938-7.546875-7.445312-7.140625-18.453126 1.878906-20.914063 10.597656-43.757813 10.597656-25.605469 0-25.605469-10.953125-51.207031-10.953125zm0 0" fill="#69e6ed"/><path d="m137.964844 146.277344c-1.253906-2.363282-3.8125-3.742188-6.476563-3.492188l-40.195312 3.761719c-3.648438.339844-6.332031 3.578125-5.988281 7.226563l3.375 36.050781 69.015624-6.457031zm0 0" fill="#d8d8d8"/><path d="m336.527344 155.457031-260.875 27.175781c-4.878906.507813-8.421875 4.875-7.914063 9.753907l11.429688 109.734375 332.726562-34.660156-66.84375-107.761719c-1.78125-2.945313-5.101562-4.597657-8.523437-4.242188zm0 0" fill="#fd8f31"/><path d="m345.050781 159.699219c-1.78125-2.945313-5.101562-4.597657-8.523437-4.242188l-63.332032 6.597657c1.5.734374 2.789063 1.890624 3.6875 3.375l68.140626 108.996093 66.871093-6.964843zm0 0" fill="#ff7f1f"/><g fill="#69e6ed"><path d="m135.433594 238.726562-25.15625 2.617188c-2.207032.230469-4.183594-1.371094-4.414063-3.582031l-2.40625-23.074219c-.230469-2.210938 1.375-4.183594 3.582031-4.414062l25.15625-2.621094c2.207032-.230469 4.183594 1.375 4.414063 3.582031l2.40625 23.074219c.226563 2.210937-1.375 4.1875-3.582031 4.417968zm0 0"/><path d="m196.730469 232.339844-25.15625 2.621094c-2.207031.230468-4.183594-1.375-4.414063-3.582032l-2.40625-23.078125c-.230468-2.207031 1.375-4.183593 3.582032-4.414062l25.15625-2.621094c2.207031-.230469 4.183593 1.375 4.414062 3.582031l2.40625 23.074219c.226562 2.210937-1.375 4.1875-3.582031 4.417969zm0 0"/><path d="m258.027344 225.953125-25.15625 2.621094c-2.207032.230469-4.183594-1.375-4.414063-3.582031l-2.40625-23.074219c-.230469-2.210938 1.375-4.1875 3.582031-4.417969l25.15625-2.621094c2.207032-.226562 4.183594 1.375 4.414063 3.582032l2.40625 23.078124c.230469 2.207032-1.375 4.183594-3.582031 4.414063zm0 0"/><path d="m331.222656 218.328125-37.054687 3.863281c-2.207031.226563-4.183594-1.375-4.414063-3.582031l-2.40625-23.078125c-.230468-2.207031 1.375-4.183594 3.582032-4.414062l27.359374-2.851563c1.078126-.113281 2.113282.457031 2.597657 1.425781l12.390625 24.894532c.8125 1.625-.25 3.554687-2.054688 3.742187zm0 0"/></g><path d="m66.566406 396.882812 361.054688-33.785156 81.894531-130.21875c1.28125-2.003906-.304687-4.601562-2.671875-4.378906l-165.589844 15.496094c-3.21875.300781-6.214844 1.765625-8.425781 4.121094l-13.171875 14.035156c-2.210938 2.355468-5.207031 3.820312-8.421875 4.125l-281.265625 26.316406c-1.894531.179688-3.085938 2.121094-2.390625 3.890625zm0 0" fill="#0d6e9a"/><path d="m506.84375 228.5-64.265625 6.011719-84.988281 135.136719 70.03125-6.550782 81.894531-130.21875c1.28125-2.003906-.304687-4.601562-2.671875-4.378906zm0 0" fill="#09627a"/><path d="m511.09375 346.804688c-25.589844.824218-25.277344 11.773437-50.871094 12.601562-25.589844.824219-25.902344-10.121094-51.492187-9.296875-25.589844.824219-25.277344 11.773437-50.863281 12.601563-25.589844.824218-25.902344-10.121094-51.488282-9.296876-25.589844.828126-25.277344 11.773438-50.863281 12.601563-25.585937.824219-25.898437-10.121094-51.488281-9.296875-25.585938.824219-25.273438 11.773438-50.863282 12.601562-25.585937.824219-25.898437-10.125-51.484374-9.296874-25.589844.824218-25.277344 11.773437-50.863282 12.601562-25.355468.816406-25.90625-9.921875-50.816406-9.308594v53.484375c25.546875-.75 25.851562 10.183594 51.425781 9.417969 25.589844-.765625 25.296875-11.714844 50.886719-12.476562 25.589844-.765626 25.878906 10.179687 51.46875 9.417968 25.589844-.765625 25.300781-11.714844 50.890625-12.480468 25.585937-.765626 25.878906 10.183593 51.464844 9.417968 25.589843-.765625 25.300781-11.714844 50.886719-12.480468 25.589843-.765626 25.882812 10.183593 51.472656 9.417968s25.296875-11.710937 50.886718-12.476562c25.59375-.765625 25.882813 10.183594 51.476563 9.414062 25.589844-.761718 25.300781-11.710937 50.894531-12.476562l.246094.269531v-50.617187zm0 0" fill="#33d8dd"/></svg>