<svg height="512pt" viewBox="0 0 512.00012 512" width="512pt" xmlns="http://www.w3.org/2000/svg"><path d="m348.507812 437.792969c-2.214843 0-4.410156-.945313-5.941406-2.78125-2.730468-3.277344-2.289062-8.148438.988282-10.878907l34.785156-29c3.277344-2.730468 8.148437-2.289062 10.882812.988282 2.730469 3.277344 2.292969 8.148437-.988281 10.882812l-34.785156 28.996094c-1.441407 1.207031-3.199219 1.792969-4.941407 1.792969zm0 0" fill="#fd8f31"/><path d="m0 109.609375v390.523437c0 6.417969 4.722656 11.621094 10.546875 11.621094h403.703125c5.078125 0 7.453125-6.925781 3.636719-10.617187-97.769531-94.554688-341.210938-328.804688-417.886719-391.527344zm0 0" fill="#e7eced"/><path d="m460.574219 335.289062-116.476563 18.886719c-2.84375.460938-4.105468 3.839844-2.261718 6.054688l76.996093 92.308593c1.84375 2.210938 5.394531 1.578126 6.359375-1.136718l39.484375-111.199219c.945313-2.664063-1.308593-5.367187-4.101562-4.914063zm0 0" fill="#8fd143"/><path d="m484.8125 315.070312-93.101562 15.097657c-2.84375.460937-4.105469 3.839843-2.261719 6.054687l61.542969 73.78125c1.847656 2.214844 5.398437 1.578125 6.363281-1.136718l31.558593-88.882813c.945313-2.660156-1.308593-5.367187-4.101562-4.914063zm0 0" fill="#7bb72e"/><path d="m507.679688 295.996094-69.066407 11.203125c-2.84375.460937-4.105469 3.839843-2.257812 6.050781l45.652343 54.734375c1.84375 2.214844 5.398438 1.578125 6.359376-1.136719l23.414062-65.933594c.945312-2.664062-1.308594-5.371093-4.101562-4.917968zm0 0" fill="#8fd143"/><path d="m100.710938 28.445312c0 13.785157-11.175782 24.960938-24.960938 24.960938s-24.960938-11.175781-24.960938-24.960938c0-13.785156 11.175782-24.960937 24.960938-24.960937s24.960938 11.175781 24.960938 24.960937zm0 0" fill="#f7f5f5"/><path d="m502.90625 469.824219c0 12.335937-10.003906 22.339843-22.339844 22.339843-12.339844 0-22.339844-10.003906-22.339844-22.339843 0-12.339844 10-22.339844 22.339844-22.339844 12.335938 0 22.339844 10 22.339844 22.339844zm0 0" fill="#d8d8d8"/><path d="m175.15625 59.488281-91.910156 76.609375c-2.242188 1.871094-1.601563 5.472656 1.152344 6.453125l114.851562 40.820313c2.753906.976562 5.523438-1.410156 4.964844-4.277344l-22.945313-117.433594c-.546875-2.8125-3.914062-4.007812-6.113281-2.171875zm0 0" fill="#8fd143"/><path d="m185.871094 29.328125-73.460938 61.238281c-2.246094 1.871094-1.601562 5.472656 1.152344 6.453125l91.800781 32.628907c2.75.976562 5.523438-1.410157 4.964844-4.277344l-18.339844-93.867188c-.546875-2.8125-3.914062-4.011718-6.117187-2.175781zm0 0" fill="#7bb72e"/><path d="m195.984375.878906-54.496094 45.425782c-2.246093 1.871093-1.601562 5.472656 1.152344 6.453124l68.097656 24.203126c2.753907.976562 5.527344-1.410157 4.964844-4.277344l-13.601563-69.632813c-.550781-2.8125-3.914062-4.007812-6.117187-2.171875zm0 0" fill="#8fd143"/><path d="m163.414062 481.96875c-5.125-10.394531-15.648437-17.011719-27.171874-16.996094-23.9375.042969-50.398438-14.320312-63.75-44.476562-4.339844-9.800782-13.484376-16.542969-24.050782-17.910156-19.476562-2.519532-35.902344-9.390626-48.441406-21.464844v119.011718c0 6.417969 4.722656 11.621094 10.546875 11.621094h175.53125c-9.648437-9.085937-17.386719-19.085937-22.664063-29.785156zm0 0" fill="#fff"/><path d="m266.398438 330.867188c-12.417969-3.097657-21.863282-12.90625-24.441407-25.296876-1.796875-8.621093-6.566406-17.859374-17.488281-24.945312 5.234375-12.105469 7.640625-25.714844 6.410156-39.878906-2.617187-30.152344-20.984375-55.074219-46.039062-66.953125-28.84375-13.675781-55.320313-31.769531-79.402344-52.582031l-93.589844-80.890626c-4.640625-4.007812-11.847656-.714843-11.847656 5.417969v204.066407c19.851562 9.765624 43.257812 16.265624 69.054688 14.082031 1.851562-.15625 3.679687-.378907 5.496093-.636719 7.285157 36.59375 38.164063 63.570312 74.429688 65.210938 2.398437 49.660156 62.683593 32.21875 64.398437 31.875-2.4375 48.183593 136.3125 92.578124 153.066406 91.15625 0 0-41.28125-105.976563-100.046874-120.625zm0 0" fill="#fff"/><path d="m366.445312 451.492188s-41.28125-105.976563-100.046874-120.625c-12.417969-3.097657-21.863282-12.90625-24.445313-25.296876-1.792969-8.621093-6.5625-17.859374-17.484375-24.945312 5.234375-12.105469 7.636719-25.714844 6.410156-39.882812-2.617187-30.148438-20.984375-55.070313-46.039062-66.949219-28.84375-13.679688-55.320313-31.769531-79.402344-52.582031l-93.589844-80.890626c-4.640625-4.007812-11.847656-.714843-11.847656 5.417969v71.015625l61.734375 54.410156c24.078125 21.222657 50.558594 39.671876 79.402344 53.621094 25.050781 12.113282 43.421875 37.53125 46.039062 68.273438.679688 8.023437.242188 15.875-1.179687 23.386718-1.835938 9.695313.316406 19.671876 5.6875 27.582032 6.773437 9.976562 21.496094 10.855468 21.695312 16.308594.003906.191406.023438 1.253906.050782 3.019531 3.292968 47.003906 136.609374 89.527343 153.015624 88.136719zm0 0" fill="#f7f5f5"/><path d="m333.175781 310.679688c0 10.78125-8.738281 19.519531-19.519531 19.519531s-19.519531-8.738281-19.519531-19.519531c0-10.777344 8.738281-19.515626 19.519531-19.515626s19.519531 8.738282 19.519531 19.515626zm0 0" fill="#f7f5f5"/><path d="m299.28125 58.609375c0 9.914063-8.035156 17.949219-17.949219 17.949219-9.914062 0-17.949219-8.035156-17.949219-17.949219s8.035157-17.949219 17.949219-17.949219c9.914063 0 17.949219 8.035156 17.949219 17.949219zm0 0" fill="#d8d8d8"/><g fill="#69e6ed"><path d="m333.074219 267.21875c-6.128907 0-12.285157-2.117188-17.273438-6.4375-3.226562-2.792969-3.574219-7.671875-.78125-10.898438 2.792969-3.226562 7.675781-3.570312 10.898438-.78125 4.566406 3.957032 11.5 3.457032 15.453125-1.105468 3.957031-4.566406 3.460937-11.5-1.105469-15.457032l-91.140625-80.960937c-3.191406-2.832031-3.480469-7.714844-.644531-10.90625 2.832031-3.191406 7.71875-3.476563 10.90625-.644531l91.066406 80.894531c5.261719 4.554687 8.476563 10.976563 8.980469 18.011719s-1.761719 13.847656-6.382813 19.179687c-5.210937 6.019531-12.574219 9.105469-19.976562 9.105469zm0 0"/><path d="m437.960938 225.964844c-6.347657 0-12.410157-2.253906-17.253907-6.449219l-109.757812-95.386719c-3.21875-2.800781-3.5625-7.679687-.761719-10.902344 2.800781-3.21875 7.679688-3.5625 10.898438-.761718l109.746093 95.378906c2.203125 1.90625 5.035157 2.84375 7.949219 2.640625 2.917969-.210937 5.582031-1.542969 7.496094-3.757813 3.957031-4.566406 3.460937-11.5-1.105469-15.457031-3.226563-2.792969-3.574219-7.671875-.78125-10.898437 2.792969-3.222656 7.675781-3.570313 10.898437-.78125 11.007813 9.535156 12.203126 26.246094 2.667969 37.253906-4.617187 5.332031-11.035156 8.546875-18.074219 9.050781-.640624.046875-1.285156.070313-1.921874.070313zm0 0"/><path d="m354.507812 201.328125c-1.792968 0-3.59375-.621094-5.054687-1.882813l-97.695313-84.632812c-3.222656-2.792969-3.574218-7.671875-.78125-10.898438 2.796876-3.226562 7.675782-3.570312 10.902344-.78125l97.691406 84.628907c3.222657 2.796875 3.574219 7.675781.78125 10.902343-1.527343 1.761719-3.679687 2.664063-5.84375 2.664063zm0 0"/></g></svg>