<?xml version="1.0" encoding="iso-8859-1"?>
<!-- Generator: Adobe Illustrator 19.0.0, SVG Export Plug-In . SVG Version: 6.00 Build 0)  -->
<svg xmlns="http://www.w3.org/2000/svg" xmlns:xlink="http://www.w3.org/1999/xlink" version="1.1" id="Capa_1" x="0px" y="0px" viewBox="0 0 512 512" style="enable-background:new 0 0 512 512;" xml:space="preserve">
<path style="fill:#94F3FF;" d="M511.997,257.931c-0.271,51.253-15.882,102.454-46.832,146.105  c-8.238,11.627-17.571,22.722-27.988,33.14c-10.417,10.417-21.513,19.75-33.15,27.988c-43.661,30.95-94.852,46.55-146.105,46.832  c-5.037,0.021-10.084-0.094-15.11-0.365c-0.73-0.042-1.47-0.083-2.2-0.125c-5.819-0.365-11.617-0.918-17.404-1.679  c-53.881-7.049-105.947-31.263-147.335-72.651c-20.439-20.439-36.696-43.484-48.75-68.063c-12.075-24.578-19.949-50.69-23.64-77.271  C-7.154,215.249,16.976,134.767,75.872,75.87s139.4-83.027,215.992-72.39c26.57,3.691,52.661,11.565,77.218,23.619  c24.589,12.065,47.645,28.322,68.094,48.771c41.399,41.399,65.612,93.475,72.661,147.356c0.751,5.777,1.314,11.585,1.668,17.394  c0.042,0.73,0.083,1.47,0.125,2.2C511.914,247.857,512.018,252.894,511.997,257.931z"/>
<path style="fill:#E59F32;" d="M511.997,257.931c-0.271,51.253-15.882,102.454-46.832,146.105  c-8.238,11.627-17.571,22.722-27.988,33.14c-10.417,10.417-21.513,19.75-33.15,27.988c-43.661,30.95-94.852,46.55-146.105,46.832  c-5.037,0.021-10.084-0.094-15.11-0.365c-0.73-0.042-1.47-0.083-2.2-0.125c-5.819-0.365-11.617-0.918-17.404-1.679L93.204,379.822  c-22.409,7.873-47.343,3.817-66.081-10.709c-2.315-1.794-4.536-3.744-6.643-5.85c-19.292-19.292-24.943-47.124-16.997-71.42  c3.316-10.115,8.978-19.615,16.997-27.634L264.2,20.488c8.029-8.029,17.55-13.702,27.665-17.008  c24.297-7.946,52.108-2.273,71.389,17.008c2.096,2.096,4.046,4.307,5.829,6.611c14.536,18.749,18.603,43.693,10.741,66.113  l130.015,130.015c0.751,5.777,1.314,11.585,1.668,17.394c0.042,0.73,0.083,1.47,0.125,2.2  C511.914,247.857,512.018,252.894,511.997,257.931z"/>
<path style="fill:#CC753D;" d="M363.256,20.486c19.19,19.19,25.401,47.555,16.565,72.728l-13.121,2.602L95.81,366.705l-2.602,13.121  c-25.173,8.837-53.538,2.626-72.728-16.565c-27.312-27.312-27.303-71.753,0-99.056L264.199,20.486  C291.51-6.826,335.944-6.826,363.256,20.486z"/>
<path style="fill:#FFFCA6;" d="M511.997,257.931c-0.156,28.677-5.11,57.332-14.86,84.664c-7.685,21.523-18.343,42.212-31.972,61.441  c-8.238,11.627-17.571,22.722-27.988,33.14c-10.417,10.417-21.513,19.75-33.15,27.988c-43.661,30.95-94.852,46.55-146.105,46.832  c-5.037,0.021-10.084-0.094-15.11-0.365c-0.73-0.042-1.47-0.083-2.2-0.125L95.81,366.704c-10.981,5.36-23.285,7.091-35.121,5.203  c-11.856-1.877-23.223-7.383-32.347-16.507c-23.014-23.014-23.014-60.325,0-83.329l243.72-243.72  c11.512-11.512,26.581-17.258,41.67-17.269c15.079,0.01,30.157,5.756,41.659,17.269c18.259,18.249,22.013,45.497,11.304,67.468  L511.507,240.62c0.042,0.73,0.083,1.47,0.125,2.2C511.914,247.857,512.018,252.894,511.997,257.931z"/>
<path style="fill:#E2E088;" d="M497.137,342.594c-7.685,21.523-18.343,42.212-31.972,61.441  c-8.238,11.627-17.571,22.722-27.988,33.14c-10.417,10.417-21.513,19.75-33.15,27.988c-43.661,30.95-94.852,46.55-146.105,46.832  c-5.037,0.021-10.084-0.094-15.11-0.365c-0.73-0.042-1.47-0.083-2.2-0.125L95.81,366.704c-10.981,5.36-23.285,7.091-35.121,5.203  c-11.856-1.877-23.223-7.383-32.347-16.507c-23.014-23.014-23.014-60.325,0-83.329C28.342,272.071,229.204,479.345,497.137,342.594z  "/>
<g>
	<path style="fill:#F4D52D;" d="M155.822,318.469c5.813,0,10.797,3.541,12.916,8.584c0.701-1.667,1.09-3.499,1.09-5.421   c0-7.735-6.27-14.006-14.006-14.006s-14.006,6.27-14.006,14.006c0,1.923,0.389,3.754,1.09,5.421   C145.025,322.01,150.009,318.469,155.822,318.469z"/>
	<path style="fill:#F4D52D;" d="M127.406,267.342c5.812,0,10.797,3.541,12.916,8.584c0.701-1.667,1.09-3.499,1.09-5.421   c0-7.735-6.27-14.006-14.006-14.006c-7.735,0-14.006,6.27-14.006,14.006c0,1.923,0.389,3.754,1.09,5.421   C116.61,270.883,121.593,267.342,127.406,267.342z"/>
	<path style="fill:#F4D52D;" d="M279.922,149.253c5.813,0,10.797,3.541,12.916,8.584c0.701-1.667,1.09-3.499,1.09-5.421   c0-7.735-6.27-14.006-14.006-14.006s-14.006,6.27-14.006,14.006c0,1.923,0.389,3.754,1.09,5.421   C269.126,152.795,274.109,149.253,279.922,149.253z"/>
	<path style="fill:#F4D52D;" d="M266.703,79.429c5.813,0,10.797,3.541,12.916,8.584c0.701-1.667,1.09-3.499,1.09-5.421   c0-7.735-6.27-14.006-14.006-14.006c-7.735,0-14.006,6.27-14.006,14.006c0,1.923,0.389,3.754,1.09,5.421   C255.906,82.972,260.89,79.429,266.703,79.429z"/>
	<path style="fill:#F4D52D;" d="M227.25,429.914c5.813,0,10.797,3.541,12.916,8.584c0.701-1.667,1.09-3.499,1.09-5.421   c0-7.735-6.27-14.006-14.006-14.006s-14.006,6.27-14.006,14.006c0,1.923,0.389,3.754,1.09,5.421   C216.453,433.456,221.437,429.914,227.25,429.914z"/>
	<path style="fill:#F4D52D;" d="M307.584,296.411c5.813,0,10.797,3.541,12.916,8.584c0.701-1.667,1.09-3.499,1.09-5.421   c0-7.735-6.27-14.006-14.006-14.006c-7.735,0-14.006,6.27-14.006,14.006c0,1.923,0.389,3.754,1.09,5.421   C296.787,299.953,301.771,296.411,307.584,296.411z"/>
	<path style="fill:#F4D52D;" d="M360.111,174.573c5.813,0,10.797,3.541,12.916,8.584c0.701-1.667,1.09-3.499,1.09-5.421   c0-7.735-6.27-14.006-14.006-14.006c-7.735,0-14.006,6.27-14.006,14.006c0,1.923,0.389,3.754,1.09,5.421   C349.314,178.116,354.299,174.573,360.111,174.573z"/>
	<path style="fill:#F4D52D;" d="M192.658,183.221c5.813,0,10.797,3.541,12.916,8.584c0.701-1.667,1.09-3.499,1.09-5.421   c0-7.735-6.27-14.006-14.006-14.006s-14.006,6.27-14.006,14.006c0,1.923,0.389,3.754,1.09,5.421   C181.861,186.763,186.846,183.221,192.658,183.221z"/>
	<path style="fill:#F4D52D;" d="M363.256,367.971c5.813,0,10.797,3.541,12.916,8.584c0.701-1.667,1.09-3.499,1.09-5.421   c0-7.735-6.27-14.006-14.006-14.006c-7.735,0-14.006,6.27-14.006,14.006c0,1.923,0.389,3.754,1.09,5.421   C352.459,371.512,357.444,367.971,363.256,367.971z"/>
	<path style="fill:#F4D52D;" d="M340.412,442.611c5.813,0,10.797,3.541,12.916,8.584c0.701-1.667,1.09-3.499,1.09-5.421   c0-7.735-6.27-14.006-14.006-14.006c-7.735,0-14.006,6.27-14.006,14.006c0,1.923,0.389,3.754,1.09,5.421   C329.616,446.153,334.599,442.611,340.412,442.611z"/>
	<path style="fill:#F4D52D;" d="M417.501,293.121c5.813,0,10.797,3.541,12.916,8.584c0.701-1.667,1.09-3.499,1.09-5.421   c0-7.735-6.27-14.006-14.006-14.006c-7.735,0-14.006,6.27-14.006,14.006c0,1.923,0.389,3.754,1.09,5.421   C406.705,296.663,411.688,293.121,417.501,293.121z"/>
</g>
<g>
</g>
<g>
</g>
<g>
</g>
<g>
</g>
<g>
</g>
<g>
</g>
<g>
</g>
<g>
</g>
<g>
</g>
<g>
</g>
<g>
</g>
<g>
</g>
<g>
</g>
<g>
</g>
<g>
</g>
</svg>
