<?xml version="1.0" encoding="iso-8859-1"?>
<!-- Generator: Adobe Illustrator 19.0.0, SVG Export Plug-In . SVG Version: 6.00 Build 0)  -->
<svg xmlns="http://www.w3.org/2000/svg" xmlns:xlink="http://www.w3.org/1999/xlink" version="1.1" id="Capa_1" x="0px" y="0px" viewBox="0 0 511.999 511.999" style="enable-background:new 0 0 511.999 511.999;" xml:space="preserve">
<path style="fill:#52C8D3;" d="M465.295,403.09c-8.214,11.594-17.52,22.657-27.908,33.044  c-10.387,10.387-21.451,19.694-33.055,27.908c-19.901,14.11-41.383,25.028-63.718,32.732c-2.683,0.925-5.386,1.809-8.09,2.641  c-31.173,9.618-63.812,13.112-96.066,10.481c0,0,0,0,0-0.01c-5.147-0.416-10.273-0.998-15.389-1.726  c-52.686-7.507-103.438-31.505-143.948-72.026c-99.487-99.487-99.487-260.778,0-360.264s260.778-99.487,360.264,0  c39.356,39.356,63.146,88.392,71.35,139.435c0.967,5.958,1.716,11.947,2.246,17.947C516.255,292.239,501.012,352.702,465.295,403.09  z"/>
<path style="fill:#F9EF4A;" d="M465.295,403.09c-8.214,11.594-17.52,22.657-27.908,33.044  c-10.387,10.387-21.451,19.694-33.055,27.908c-19.901,14.11-41.383,25.028-63.718,32.732  c-33.585,11.604-69.104,15.981-104.155,13.122c0,0,0,0,0-0.01c-5.147-0.416-10.273-0.998-15.389-1.726  c-31.745-34.562-49.504-77.37-53.279-121.145c-2.215-25.495-9.524-50.19-21.076-73.024c-24.102-47.622-16.252-107.264,23.53-147.046  c40.292-40.302,100.932-47.83,148.835-22.626c21.887,11.521,45.969,18.051,70.622,20.099c42.849,3.577,84.794,20.536,119.034,50.887  c0.967,5.958,1.716,11.947,2.246,17.947C516.255,292.239,501.012,352.702,465.295,403.09z"/>
<path style="fill:#F4D52D;" d="M332.525,499.416c-31.173,9.618-63.812,13.112-96.066,10.481c0,0,0,0,0-0.01  c-5.147-0.416-10.273-0.998-15.389-1.726c-31.755-34.552-49.514-77.36-53.289-121.135c-2.204-25.506-9.514-50.201-21.076-73.034  c-23.894-47.217-16.377-106.256,22.563-146.038c-23.385,24.757-18.04,70.768,10.19,113.295  c13.715,20.66,24.373,42.018,31.048,63.042c12.353,38.93,37.619,80.043,74.064,116.019  C299.834,475.397,316.013,488.477,332.525,499.416z"/>
<g>
	
		<ellipse transform="matrix(-0.9188 -0.3948 0.3948 -0.9188 441.0667 444.3758)" style="fill:#FFFCA6;" cx="266.249" cy="176.813" rx="35.353" ry="18.088"/>
	
		<ellipse transform="matrix(-0.9188 -0.3948 0.3948 -0.9188 724.1646 611.5502)" style="fill:#FFFCA6;" cx="424.996" cy="231.277" rx="59.436" ry="30.415"/>
</g>
<path style="fill:#B16E60;" d="M179.329,185.507c-0.854-0.156-1.699-0.428-2.518-0.827c-0.892-0.434-22.056-10.928-41.518-37.581  c-17.645-24.165-37.41-66.998-31.363-133.829c0.486-5.364,5.227-9.319,10.59-8.833c5.368,0.486,9.319,5.227,8.833,10.59  c-4.371,48.304,4.728,88.57,27.044,119.677c16.606,23.149,34.801,32.365,34.982,32.455c4.808,2.39,6.798,8.227,4.428,13.045  C187.842,184.206,183.507,186.268,179.329,185.507z"/>
<path style="fill:#8CC371;" d="M153.8,156.409C95.787,183.332,26.924,158.126,0,100.113c29.007-13.462,60.731-13.889,88.568-3.701  C116.387,106.596,140.338,127.402,153.8,156.409z"/>
<path style="fill:#76B25D;" d="M153.8,156.409C95.787,183.332,26.924,158.126,0,100.113L153.8,156.409z"/>
<g>
</g>
<g>
</g>
<g>
</g>
<g>
</g>
<g>
</g>
<g>
</g>
<g>
</g>
<g>
</g>
<g>
</g>
<g>
</g>
<g>
</g>
<g>
</g>
<g>
</g>
<g>
</g>
<g>
</g>
</svg>
