<?xml version="1.0" encoding="iso-8859-1"?>
<!-- Generator: Adobe Illustrator 19.0.0, SVG Export Plug-In . SVG Version: 6.00 Build 0)  -->
<svg xmlns="http://www.w3.org/2000/svg" xmlns:xlink="http://www.w3.org/1999/xlink" version="1.1" id="Capa_1" x="0px" y="0px" viewBox="0 0 512 512" style="enable-background:new 0 0 512 512;" xml:space="preserve">
<path style="fill:#52C8D3;" d="M512,256c0,35.129-7.074,68.608-19.884,99.088c-2.33,5.569-4.869,11.034-7.586,16.394  c-0.846,1.693-1.724,3.375-2.623,5.036C438.815,457.143,353.813,512,256,512c-74.951,0-142.378-32.204-189.189-83.54  c-17.189-18.84-31.608-40.27-42.59-63.624C8.683,331.807,0,294.912,0,256C0,114.615,114.615,0,256,0S512,114.615,512,256z"/>
<path style="fill:#F2B54D;" d="M492.116,355.088c-2.33,5.569-4.869,11.034-7.586,16.394c-1.39,1.076-2.926,1.954-4.566,2.602  c0.711,0.763,1.369,1.578,1.943,2.435C438.815,457.143,353.813,512,256,512c-74.951,0-142.378-32.204-189.189-83.54  c-17.189-18.84-31.608-40.27-42.59-63.624c1.076-2.644,2.717-5.015,4.817-6.949c-5.998-2.915-10.324-8.861-10.846-15.987  c-0.522-7.126,2.884-13.636,8.391-17.398c-5.517-3.741-8.944-10.24-8.432-17.366c0.502-7.137,4.817-13.093,10.815-16.018  c-4.921-4.504-7.377-11.442-5.841-18.422c1.546-7.001,6.698-12.267,13.072-14.284c-4.221-5.183-5.632-12.413-3.082-19.111  c2.55-6.698,8.411-11.149,15.015-12.204c-3.417-5.747-3.751-13.103-0.251-19.352c3.5-6.238,9.947-9.791,16.624-9.874  c-2.539-6.175-1.797-13.5,2.57-19.163s11.254-8.234,17.868-7.356c-1.609-6.478,0.188-13.605,5.329-18.578  c5.141-4.963,12.319-6.52,18.735-4.692c-0.648-6.635,2.152-13.437,7.962-17.607c5.799-4.169,13.134-4.66,19.216-1.933  c0.324-6.666,4.086-12.978,10.439-16.259c6.353-3.291,13.688-2.706,19.31,0.899c1.285-6.552,5.935-12.257,12.706-14.576  c2.09-0.711,4.211-1.055,6.29-1.045c0.282,0,0.564,0.01,0.836,0.021c0.878,0.031,1.745,0.136,2.591,0.293  c0.23,0.042,0.449,0.084,0.669,0.136c0.01,0,0.01,0,0.01,0c0.209,0.052,0.418,0.094,0.627,0.157c0.272,0.063,0.554,0.136,0.825,0.23  c0.408,0.115,0.805,0.251,1.191,0.397c0.648,0.24,1.275,0.512,1.891,0.825c0.199,0.094,0.408,0.209,0.606,0.313  c0.397,0.219,0.794,0.449,1.181,0.7c0.794,0.502,1.546,1.066,2.257,1.682c2.236-6.29,7.67-11.254,14.712-12.549  c7.032-1.306,13.876,1.379,18.213,6.447c3.124-5.893,9.216-10.01,16.363-10.271c7.147-0.272,13.521,3.365,17.084,9.007  c3.939-5.381,10.553-8.579,17.669-7.816c7.105,0.763,12.905,5.287,15.611,11.389c4.681-4.754,11.703-6.959,18.631-5.162  c0,0,0,0,0.01,0c6.928,1.797,12.006,7.137,13.793,13.573c5.329-4.023,12.612-5.172,19.205-2.382  c6.593,2.79,10.825,8.808,11.651,15.444c5.862-3.197,13.228-3.271,19.341,0.449c6.113,3.72,9.425,10.292,9.268,16.969  c6.259-2.309,13.552-1.317,19.059,3.25c5.496,4.577,7.826,11.546,6.708,18.129c6.531-1.379,13.594,0.669,18.38,5.977  c4.775,5.319,6.06,12.549,4.012,18.902c6.656-0.418,13.354,2.633,17.314,8.579c3.96,5.956,4.18,13.302,1.233,19.278  c6.646,0.564,12.821,4.556,15.872,11.013c3.062,6.478,2.205,13.782-1.588,19.278c6.499,1.515,12.027,6.374,14.106,13.218  c2.069,6.855,0.157,13.96-4.399,18.829c6.196,2.466,10.961,8.077,12.006,15.151s-1.881,13.814-7.095,17.972  c5.768,3.333,9.665,9.561,9.676,16.708v0.522c0,0,0,0,0.01,0c0,7.147-3.887,13.385-9.644,16.729  C489.075,344.336,491.823,349.466,492.116,355.088z"/>
<g>
	<path style="fill:#E59F32;" d="M195.354,100.634c-4.483,2.873-7.523,7.45-8.526,12.549c-5.622-3.605-12.957-4.19-19.31-0.899   c-6.353,3.281-10.115,9.592-10.439,16.259c-6.081-2.727-13.416-2.236-19.216,1.933c-5.81,4.169-8.61,10.971-7.962,17.607   c-6.416-1.829-13.594-0.272-18.735,4.692c-5.141,4.974-6.938,12.1-5.329,18.578c-6.614-0.878-13.5,1.693-17.868,7.356   c-4.368,5.663-5.11,12.988-2.57,19.163c-6.677,0.084-13.124,3.636-16.624,9.874c-3.5,6.248-3.166,13.605,0.251,19.352   c-6.604,1.055-12.466,5.507-15.015,12.204c-2.55,6.698-1.139,13.928,3.082,19.111c-6.374,2.017-11.525,7.283-13.072,14.284   c-1.536,6.98,0.92,13.918,5.841,18.422c-5.998,2.926-10.313,8.882-10.815,16.018c-0.512,7.126,2.915,13.625,8.432,17.366   c-5.507,3.762-8.913,10.271-8.391,17.398c0.522,7.126,4.848,13.072,10.846,15.987c-4.901,4.514-7.335,11.463-5.778,18.442   c1.557,6.98,6.708,12.236,13.082,14.242c-4.2,5.193-5.59,12.413-3.03,19.101c2.56,6.666,8.422,11.107,15.005,12.163   c-1.202,2.048-2.017,4.295-2.403,6.625c-17.189-18.84-31.608-40.27-42.59-63.624c1.076-2.644,2.717-5.015,4.817-6.949   c-5.998-2.915-10.324-8.861-10.846-15.987c-0.522-7.126,2.884-13.636,8.391-17.398c-5.517-3.741-8.944-10.24-8.432-17.366   c0.502-7.137,4.817-13.093,10.815-16.018c-4.921-4.504-7.377-11.442-5.841-18.422c1.546-7.001,6.698-12.267,13.072-14.284   c-4.221-5.183-5.632-12.413-3.082-19.111c2.55-6.698,8.411-11.149,15.015-12.204c-3.417-5.747-3.751-13.103-0.251-19.352   c3.5-6.238,9.947-9.791,16.624-9.874c-2.539-6.175-1.797-13.5,2.57-19.163s11.254-8.234,17.868-7.356   c-1.609-6.478,0.188-13.605,5.329-18.578c5.141-4.963,12.319-6.52,18.735-4.692c-0.648-6.635,2.152-13.437,7.962-17.607   c5.799-4.169,13.134-4.66,19.216-1.933c0.324-6.666,4.086-12.978,10.439-16.259c6.353-3.291,13.688-2.706,19.31,0.899   c1.285-6.552,5.935-12.257,12.706-14.576c2.09-0.711,4.211-1.055,6.29-1.045c0.282,0,0.564,0.01,0.836,0.021   c0.878,0.031,1.745,0.136,2.591,0.293c0.23,0.042,0.449,0.084,0.669,0.136c0.01,0,0.01,0,0.01,0   c0.209,0.052,0.418,0.094,0.627,0.157c0.272,0.063,0.554,0.136,0.825,0.23c0.408,0.115,0.805,0.251,1.191,0.397   c0.648,0.24,1.275,0.512,1.891,0.825c0.199,0.094,0.408,0.209,0.606,0.313C194.57,100.153,194.967,100.383,195.354,100.634z"/>
	<path style="fill:#E59F32;" d="M247.986,143.366c6.852,0,12.408,5.556,12.408,12.408c0,2.018-0.492,3.917-1.347,5.601   c5.176-1.493,8.965-6.257,8.965-11.914c0-6.852-5.556-12.408-12.408-12.408c-4.835,0-9.013,2.771-11.061,6.808   C245.637,143.545,246.789,143.366,247.986,143.366z"/>
	<path style="fill:#E59F32;" d="M247.986,493.407c6.852,0,12.408,5.556,12.408,12.408c0,2.018-0.492,3.917-1.347,5.601   c5.176-1.493,8.965-6.257,8.965-11.914c0-6.852-5.556-12.408-12.408-12.408c-4.835,0-9.013,2.771-11.061,6.808   C245.637,493.586,246.789,493.407,247.986,493.407z"/>
	<path style="fill:#E59F32;" d="M423.006,318.387c6.852,0,12.408,5.556,12.408,12.408c0,2.018-0.492,3.917-1.347,5.601   c5.176-1.493,8.965-6.257,8.965-11.914c0-6.852-5.556-12.408-12.408-12.408c-4.835,0-9.013,2.771-11.061,6.808   C420.657,318.565,421.81,318.387,423.006,318.387z"/>
	<path style="fill:#E59F32;" d="M326.88,250.153c6.852,0,12.408,5.556,12.408,12.408c0,2.018-0.492,3.917-1.347,5.601   c5.176-1.493,8.965-6.257,8.965-11.914c0-6.852-5.556-12.408-12.408-12.408c-4.835,0-9.013,2.771-11.061,6.808   C324.531,250.331,325.683,250.153,326.88,250.153z"/>
	<path style="fill:#E59F32;" d="M174.629,250.153c6.852,0,12.408,5.556,12.408,12.408c0,2.018-0.492,3.917-1.347,5.601   c5.176-1.493,8.965-6.257,8.965-11.914c0-6.852-5.556-12.408-12.408-12.408c-4.835,0-9.013,2.771-11.061,6.808   C172.281,250.331,173.433,250.153,174.629,250.153z"/>
	<path style="fill:#E59F32;" d="M326.88,399.433c6.852,0,12.408,5.556,12.408,12.408c0,2.018-0.492,3.917-1.347,5.601   c5.176-1.493,8.965-6.257,8.965-11.914c0-6.852-5.556-12.408-12.408-12.408c-4.835,0-9.013,2.771-11.061,6.808   C324.531,399.612,325.683,399.433,326.88,399.433z"/>
	<path style="fill:#E59F32;" d="M174.629,399.433c6.852,0,12.408,5.556,12.408,12.408c0,2.018-0.492,3.917-1.347,5.601   c5.176-1.493,8.965-6.257,8.965-11.914c0-6.852-5.556-12.408-12.408-12.408c-4.835,0-9.013,2.771-11.061,6.808   C172.281,399.612,173.433,399.433,174.629,399.433z"/>
	<path style="fill:#E59F32;" d="M247.986,318.387c6.852,0,12.408,5.556,12.408,12.408c0,2.018-0.492,3.917-1.347,5.601   c5.176-1.493,8.965-6.257,8.965-11.914c0-6.852-5.556-12.408-12.408-12.408c-4.835,0-9.013,2.771-11.061,6.808   C245.637,318.565,246.789,318.387,247.986,318.387z"/>
	<path style="fill:#E59F32;" d="M72.965,318.387c6.852,0,12.408,5.556,12.408,12.408c0,2.018-0.492,3.917-1.347,5.601   c5.176-1.493,8.965-6.257,8.965-11.914c0-6.852-5.556-12.408-12.408-12.408c-4.835,0-9.013,2.771-11.061,6.808   C70.616,318.565,71.769,318.387,72.965,318.387z"/>
</g>
<g>
</g>
<g>
</g>
<g>
</g>
<g>
</g>
<g>
</g>
<g>
</g>
<g>
</g>
<g>
</g>
<g>
</g>
<g>
</g>
<g>
</g>
<g>
</g>
<g>
</g>
<g>
</g>
<g>
</g>
</svg>
