<?xml version="1.0" encoding="iso-8859-1"?>
<!-- Generator: Adobe Illustrator 19.0.0, SVG Export Plug-In . SVG Version: 6.00 Build 0)  -->
<svg xmlns="http://www.w3.org/2000/svg" xmlns:xlink="http://www.w3.org/1999/xlink" version="1.1" id="Capa_1" x="0px" y="0px" viewBox="0 0 512.001 512.001" style="enable-background:new 0 0 512.001 512.001;" xml:space="preserve">
<path style="fill:#665F60;" d="M509.113,294.425c-1.243,8.286-2.905,16.53-4.974,24.681c-5.987,23.646-15.391,46.603-28.223,68.076  c-2.184,3.647-4.462,7.252-6.834,10.804c-2.236,3.344-4.556,6.656-6.97,9.916c-1.745,2.362-3.532,4.692-5.36,7.001  c-6.071,7.659-12.643,15.047-19.728,22.121c-15.109,15.109-31.64,27.941-49.163,38.484c-2.456,1.473-4.911,2.905-7.398,4.295  c-3.082,1.714-6.186,3.354-9.331,4.922c-0.711,0.366-1.432,0.721-2.152,1.066c-16.06,7.92-32.779,14.023-49.873,18.349  c-8.735,2.215-17.565,3.96-26.447,5.235c-77.125,11.107-158.335-13.009-217.675-72.349c-99.977-99.977-99.977-262.063,0-362.039  s262.063-99.977,362.039,0C496.815,134.773,520.847,216.778,509.113,294.425z"/>
<path style="fill:#76B25D;" d="M157.964,23.612c18.186,1.132,36.06,7.19,51.464,18.158c-2.583,9.062-4.779,18.237-6.6,27.461  c-0.875-0.08-1.75-0.136-2.614-0.204c-0.876-0.056-1.74-0.099-2.605-0.118c-11.67-0.421,73.623,135.78,52.554,154.818  c-24.921,22.518-155.601-70.564-155.74-56.279c-0.007,0.878-0.015,1.755,0.015,2.622c-9.332,1.15-18.64,2.68-27.866,4.602  c-9.841-16.144-14.595-34.408-14.4-52.639c0.187-19.378,6.005-38.699,17.368-55.247c4.068-5.974,8.866-11.567,14.379-16.696  c5.513-5.128,11.449-9.498,17.689-13.138c16.54-9.669,35.244-14.126,53.74-13.47C156.224,23.513,157.087,23.556,157.964,23.612z"/>
<circle style="fill:#F9395E;" cx="175.283" cy="78.692" r="69.027"/>
<path style="fill:#B16E60;" d="M118.222,103.456L252.42,237.655c22.393,22.393,22.404,58.707,0.01,81.1l-20.327,20.327  c-22.393,22.393-58.717,22.393-81.111,0L16.795,204.883c-22.393-22.393-22.393-58.717,0-81.111l20.327-20.327  C59.515,81.053,95.829,81.063,118.222,103.456z"/>
<path style="fill:#76B25D;" d="M108.432,78.168c0,0-23.219-19.215-33.268-59.408c0,0-3.588,65.314,58.137,127.039  c0,0-102.636-77.515-102.636-139.958c0,0-11.484,84.693,67.468,163.644L108.432,78.168z"/>
<path style="fill:#8CC371;" d="M215.881,76.94c-2.584,9.065-4.78,18.238-6.6,27.464c-0.861-0.086-1.754-0.14-2.605-0.215  c-0.883-0.043-1.744-0.086-2.605-0.108c-11.671-0.431,73.618,135.781,52.56,154.815c-15.826,14.297-74.275-17.99-114.884-39.823  c-23.352-12.564-40.814-21.672-40.868-16.45c-0.01,0.873-0.01,1.754,0.01,2.616c-9.324,1.141-18.636,2.681-27.862,4.608  c-9.84-16.149-14.588-34.419-14.405-52.646c0.15-14.535,3.456-29.036,9.894-42.365l0.01-0.032c2.142-4.425,4.64-8.731,7.472-12.854  c4.07-5.964,8.871-11.563,14.383-16.687c5.512-5.124,11.444-9.507,17.688-13.145c16.537-9.667,35.248-14.125,53.733-13.468  c0.872,0.032,1.744,0.086,2.627,0.13C182.613,59.908,200.475,65.969,215.881,76.94z"/>
<path style="fill:#9E5B50;" d="M88.034,276.122l-71.239-71.239c-22.393-22.393-22.393-58.717,0-81.111c0,0,3.456,60.43,71.648,60.43  C136.007,184.202,108.813,241.477,88.034,276.122z"/>
<path style="fill:#76B25D;" d="M141.746,219.073c-23.352-12.564-40.814-21.672-40.868-16.45c-0.01,0.873-0.01,1.754,0.01,2.616  c-9.324,1.141-18.636,2.681-27.862,4.608c-9.84-16.149-14.588-34.419-14.405-52.646c0.15-14.535,3.456-29.036,9.894-42.365  l0.01-0.032l0.495-0.948c0,0,8.646,73.93,76.127,61.011C185.112,167.224,164.882,195.076,141.746,219.073z"/>
<path style="fill:#F9395E;" d="M206.78,103.109c-5.507,34.529,114.624,190.017,119.888,224.57  c-34.553-5.263-190.042-125.395-224.57-119.888c-0.061-0.865-0.086-1.742-0.11-2.62c-0.695-26.354,9.028-52.914,29.143-73.03  c19.433-19.433,44.934-29.168,70.421-29.168c0.865-0.013,1.73,0,2.607,0.024C205.025,103.035,205.902,103.06,206.78,103.109z"/>
<path style="fill:#D92F52;" d="M234.591,130.921c-5.507,34.529,114.624,190.017,119.888,224.57  c-34.553-5.263-190.042-125.395-224.57-119.888c-0.061-0.865-0.086-1.742-0.11-2.62c-0.695-26.354,9.028-52.914,29.143-73.03  c19.433-19.433,44.934-29.168,70.421-29.168c0.865-0.013,1.73,0,2.607,0.024C232.837,130.848,233.714,130.873,234.591,130.921z"/>
<g>
	<path style="fill:#F9EF4A;" d="M509.113,294.425c-1.243,8.286-2.905,16.53-4.974,24.681c-5.987,23.646-15.391,46.603-28.223,68.076   c-2.184,3.647-4.462,7.252-6.834,10.804c-2.236,3.344-4.556,6.656-6.97,9.916c-16.447-40.406-41.065-78.263-73.844-111.053   c-32.538-32.538-70.103-57.041-110.185-73.478c-4.535-1.86-9.091-3.615-13.678-5.266c-3.615-1.296-7.231-2.529-10.898-3.699   c-0.784-0.272-1.588-0.522-2.403-0.763c-10.146-3.197-20.438-5.883-30.783-8.088c-6.416-1.358-12.842-2.529-19.299-3.511   c-0.23-1.515-0.439-3.009-0.648-4.514c-0.387-2.821-0.731-5.642-1.066-8.464c-0.01-0.199-0.031-0.387-0.063-0.585   c-0.167-1.473-0.324-2.978-0.46-4.462c-1.306-13.249-1.818-26.572-1.546-39.884c0.052-2.706,0.146-5.413,0.272-8.119   c0.125-3.009,0.303-6.008,0.512-9.007c0.575-8.035,1.421-16.05,2.581-24.022c0.24-1.755,0.512-3.511,0.794-5.256   c0.502-3.103,1.034-6.207,1.63-9.289c0.522-2.853,1.097-5.684,1.703-8.516c0.627-2.936,1.285-5.851,2.006-8.777   c0.073-0.366,0.167-0.742,0.261-1.108c0.104-0.418,0.209-0.846,0.324-1.254c2.194-8.788,4.754-17.502,7.691-26.123   c0,0,0-0.01,0-0.031c1.787-5.308,3.73-10.585,5.799-15.809c1.933-4.89,3.981-9.739,6.154-14.545L509.113,294.425z"/>
	<path style="fill:#F9EF4A;" d="M462.113,407.901c-1.745,2.362-3.532,4.692-5.36,7.001c-6.071,7.659-12.643,15.047-19.728,22.121   c-15.109,15.109-31.64,27.941-49.163,38.484c-2.456,1.473-4.911,2.905-7.398,4.295c-3.082,1.714-6.186,3.354-9.331,4.922   c-0.711,0.366-1.432,0.721-2.152,1.066c-16.06,7.92-32.779,14.023-49.873,18.349c-8.735,2.215-17.565,3.96-26.447,5.235   L11.268,227.979c6.687-3.02,13.448-5.81,20.261-8.359c12.309-4.608,24.837-8.485,37.502-11.609c0.857-0.219,1.703-0.418,2.55-0.616   h0.01c0.669-0.157,1.317-0.313,1.985-0.46c1.515-0.366,3.03-0.69,4.545-1.014c6.155-1.358,12.372-2.518,18.589-3.511   c1.484-0.24,2.968-0.46,4.441-0.679c0.272-0.031,0.543-0.073,0.815-0.115c0.784-0.104,1.578-0.23,2.382-0.324   c3.218-0.449,6.447-0.836,9.686-1.181c6.97-0.752,13.95-1.285,20.94-1.588c8.213-0.366,16.447-0.439,24.67-0.199   c0.961,0.021,1.912,0.052,2.853,0.094c12.894,0.47,25.767,1.672,38.526,3.626c6.458,0.982,12.884,2.152,19.299,3.511   c10.345,2.205,20.637,4.89,30.783,8.088c0.815,0.24,1.62,0.491,2.403,0.763c3.668,1.17,7.283,2.403,10.898,3.699   c4.587,1.651,9.143,3.406,13.678,5.266c40.083,16.436,77.647,40.939,110.185,73.478   C421.048,329.638,445.666,367.495,462.113,407.901z"/>
</g>
<g>
	<path style="fill:#DBCF48;" d="M475.917,387.181c-2.184,3.647-4.462,7.252-6.834,10.804c-2.236,3.344-4.556,6.656-6.97,9.916   c-16.447-40.406-41.065-78.263-73.844-111.053c-32.538-32.538-70.103-57.041-110.185-73.478c-4.535-1.86-9.091-3.615-13.678-5.266   c-3.615-1.296-7.231-2.529-10.898-3.699c-0.784-0.272-1.588-0.522-2.403-0.763c-10.146-3.197-20.438-5.883-30.783-8.088   c-6.416-1.358-12.842-2.529-19.299-3.511c-0.23-1.515-0.439-3.009-0.648-4.514c-0.387-2.821-0.731-5.642-1.066-8.464   c-0.01-0.199-0.031-0.387-0.063-0.585c-0.146-1.473-0.303-2.957-0.449-4.451l-0.01-0.01c0.01-0.021,0-0.052,0-0.063   c6.04,0.596,12.069,1.337,18.077,2.247c8.297,1.264,16.551,2.832,24.733,4.723c2.278,0.512,4.556,1.066,6.823,1.63   c0.397,0.105,0.815,0.209,1.212,0.313c4.033,1.024,8.056,2.132,12.069,3.323c32.831,9.697,64.492,24.524,93.707,44.44   c1.358,0.93,2.706,1.86,4.065,2.811c15.674,11.034,30.626,23.552,44.638,37.575C435.562,312.46,459.501,348.603,475.917,387.181z"/>
	<path style="fill:#DBCF48;" d="M368.981,485.789c-16.06,7.92-32.779,14.023-49.873,18.349c-8.735,2.215-17.565,3.96-26.447,5.235   L11.267,227.979c6.687-3.02,13.448-5.81,20.261-8.359c12.309-4.608,24.837-8.485,37.502-11.609c0.846-0.209,1.703-0.418,2.56-0.616   c0.669-0.157,1.317-0.313,1.985-0.46c1.515-0.366,3.03-0.69,4.545-1.014c3.051-0.658,6.092-1.275,9.143-1.849L368.981,485.789z"/>
	<path style="fill:#DBCF48;" d="M241.512,152.88c5.649-5.649,14.806-5.649,20.455,0c1.664,1.663,2.823,3.634,3.507,5.727   c3.035-5.497,2.233-12.547-2.43-17.211c-5.649-5.649-14.807-5.649-20.455,0c-3.985,3.985-5.145,9.714-3.507,14.729   C239.724,154.962,240.526,153.865,241.512,152.88z"/>
	<path style="fill:#DBCF48;" d="M468.48,329.181c5.649-5.649,14.807-5.649,20.455,0c1.664,1.664,2.823,3.634,3.507,5.726   c3.035-5.497,2.233-12.547-2.43-17.211c-5.649-5.649-14.807-5.649-20.455,0c-3.985,3.985-5.145,9.715-3.507,14.729   C466.692,331.264,467.495,330.167,468.48,329.181z"/>
	<path style="fill:#DBCF48;" d="M332.11,168.408c5.649-5.649,14.807-5.649,20.455,0c1.663,1.663,2.823,3.634,3.507,5.726   c3.035-5.497,2.233-12.547-2.43-17.211c-5.649-5.649-14.807-5.649-20.455,0c-3.985,3.985-5.145,9.714-3.507,14.729   C330.322,170.491,331.125,169.394,332.11,168.408z"/>
	<path style="fill:#DBCF48;" d="M358.308,244.489c5.649-5.649,14.807-5.649,20.455,0c1.663,1.663,2.823,3.634,3.507,5.726   c3.035-5.497,2.233-12.547-2.43-17.211c-5.649-5.649-14.807-5.649-20.455,0c-3.985,3.985-5.145,9.714-3.507,14.729   C356.519,246.571,357.323,245.474,358.308,244.489z"/>
	<path style="fill:#DBCF48;" d="M351.49,423.204c5.649-5.649,14.807-5.649,20.455,0c1.664,1.664,2.823,3.634,3.507,5.726   c3.035-5.497,2.233-12.547-2.43-17.211c-5.649-5.649-14.807-5.649-20.455,0c-3.985,3.985-5.145,9.715-3.507,14.729   C349.701,425.287,350.504,424.19,351.49,423.204z"/>
	<path style="fill:#DBCF48;" d="M348.619,342.817c5.649-5.649,14.807-5.649,20.455,0c1.663,1.664,2.823,3.634,3.507,5.726   c3.035-5.497,2.233-12.547-2.43-17.211c-5.649-5.649-14.807-5.649-20.455,0c-3.985,3.985-5.145,9.715-3.507,14.729   C346.83,344.901,347.633,343.804,348.619,342.817z"/>
	<path style="fill:#DBCF48;" d="M255.117,300.309c5.649-5.649,14.807-5.649,20.455,0c1.663,1.663,2.823,3.634,3.507,5.726   c3.035-5.497,2.233-12.547-2.43-17.211c-5.649-5.649-14.807-5.649-20.455,0c-3.985,3.985-5.145,9.714-3.507,14.729   C253.328,302.391,254.131,301.294,255.117,300.309z"/>
</g>
<g>
</g>
<g>
</g>
<g>
</g>
<g>
</g>
<g>
</g>
<g>
</g>
<g>
</g>
<g>
</g>
<g>
</g>
<g>
</g>
<g>
</g>
<g>
</g>
<g>
</g>
<g>
</g>
<g>
</g>
</svg>
