<?xml version="1.0" encoding="iso-8859-1"?>
<!-- Generator: Adobe Illustrator 19.0.0, SVG Export Plug-In . SVG Version: 6.00 Build 0)  -->
<svg xmlns="http://www.w3.org/2000/svg" xmlns:xlink="http://www.w3.org/1999/xlink" version="1.1" id="Capa_1" x="0px" y="0px" viewBox="0 0 511.999 511.999" style="enable-background:new 0 0 511.999 511.999;" xml:space="preserve">
<path style="fill:#EAA7F4;" d="M509.628,290.836c-5.449,39.842-20.281,78.63-44.519,112.826  c-8.246,11.638-17.588,22.745-28.016,33.172c-7.766,7.766-15.897,14.926-24.352,21.482c-2.912,2.255-5.845,4.426-8.831,6.534  c-1.764,1.253-3.539,2.474-5.334,3.674c-32.859,22.056-69.716,35.677-107.502,40.834l-0.01,0.01  c-12.38,1.691-24.864,2.474-37.348,2.349c-64.581-0.626-128.994-25.594-178.283-74.883c-99.872-99.872-99.872-261.788,0-361.66  s261.788-99.872,361.66,0c47.577,47.577,72.493,109.235,74.737,171.561C512.363,261.452,511.633,276.212,509.628,290.836z"/>
<path style="fill:#B16E60;" d="M181.016,178.708c-4.431,4.431-11.617,4.431-16.048,0l-24.211-24.211  c-28.475-28.475-40.9-69.106-33.234-108.684c1.192-6.153,7.145-10.175,13.298-8.983s10.175,7.146,8.983,13.298  c-6.231,32.167,3.863,65.184,27,88.321l24.211,24.211C185.447,167.092,185.447,174.276,181.016,178.708z"/>
<path style="fill:#8CC371;" d="M147.659,154.706C79.479,168.071,13.365,123.629,0,55.45c34.09-6.682,67.667,1.09,94.394,19.055  C121.102,92.457,140.975,120.615,147.659,154.706z"/>
<path style="fill:#F9395E;" d="M509.628,290.836c-5.449,39.842-20.281,78.63-44.519,112.826  c-8.246,11.638-17.588,22.745-28.016,33.172c-7.766,7.766-15.897,14.926-24.352,21.482c-2.912,2.255-5.845,4.426-8.831,6.534  c-34.185,24.227-72.994,39.07-112.836,44.508l-0.01,0.01c-12.38,1.691-24.864,2.474-37.348,2.349l-75.718-35.521  c-113.18-53.099-139.328-202.426-50.928-290.816l60.604-60.604c88.39-88.4,237.718-62.253,290.827,50.917l33.329,71.042  C512.363,261.452,511.633,276.212,509.628,290.836z"/>
<path style="fill:#76B25D;" d="M147.659,154.706C79.479,168.071,13.365,123.629,0,55.45L147.659,154.706z"/>
<path style="fill:#D92F52;" d="M398.577,468.524c-32.859,22.056-69.716,35.677-107.502,40.834l-0.01,0.01  c-12.38,1.691-24.864,2.474-37.348,2.349l-75.718-35.521c-113.18-53.099-139.328-202.426-50.928-290.816l60.562-60.552  c-2.171,2.63-84.152,103.316-52.994,199.295C163.605,413.358,334.143,481.039,398.577,468.524z"/>
<ellipse transform="matrix(-0.8793 -0.4763 0.4763 -0.8793 582.8265 437.2093)" style="fill:#FF5B6E;" cx="346.817" cy="144.748" rx="53.59" ry="25.007"/>
<g>
</g>
<g>
</g>
<g>
</g>
<g>
</g>
<g>
</g>
<g>
</g>
<g>
</g>
<g>
</g>
<g>
</g>
<g>
</g>
<g>
</g>
<g>
</g>
<g>
</g>
<g>
</g>
<g>
</g>
</svg>
