<?xml version="1.0" encoding="iso-8859-1"?>
<!-- Generator: Adobe Illustrator 19.0.0, SVG Export Plug-In . SVG Version: 6.00 Build 0)  -->
<svg xmlns="http://www.w3.org/2000/svg" xmlns:xlink="http://www.w3.org/1999/xlink" version="1.1" id="Capa_1" x="0px" y="0px" viewBox="0 0 512 512" style="enable-background:new 0 0 512 512;" xml:space="preserve">
<path style="fill:#F9EF4A;" d="M509.414,253.414c0,58.689-19.952,112.723-53.455,155.679  c-11.078,14.233-23.666,27.245-37.495,38.809c-4.293,3.589-8.699,7.044-13.229,10.343c-2.679,1.955-5.399,3.868-8.161,5.71  c-0.59,0.403-1.189,0.807-1.789,1.2c-28.61,18.856-61.285,32.075-96.411,38.053c-13.933,2.379-28.258,3.62-42.874,3.62  c-6.827,0-13.602-0.269-20.294-0.807c-5.596-0.445-11.13-1.065-16.612-1.872c-0.921-0.134-1.841-0.279-2.762-0.424  c-1.076-0.155-2.151-0.331-3.217-0.517c-35.612-6.072-68.691-19.57-97.59-38.86c-3.786-2.513-7.489-5.141-11.13-7.861l-0.021-0.01  c-17.967-13.436-34.102-29.21-47.931-46.866c-0.01-0.01-0.021-0.021-0.021-0.021C22.694,366.551,2.586,312.33,2.586,253.414  C2.586,113.457,116.043,0,256,0S509.414,113.457,509.414,253.414z"/>
<path style="fill:#76B25D;" d="M301.042,62.752l-5.423-9.411l-9.411,5.423c-49.002,28.233-65.838,90.845-37.605,139.847l5.423,9.411  l9.411-5.423C312.439,174.365,329.275,111.754,301.042,62.752z"/>
<path style="fill:#8CC371;" d="M229.846,51.778l-9.032-6.035l-6.035,9.032c-31.422,47.021-18.775,110.613,28.246,142.034  l9.032,6.035l6.035-9.032C289.513,146.791,276.867,83.199,229.846,51.778z"/>
<path style="fill:#FFFFFF;" d="M452.295,348.708v0.412c-0.011,4.599-2.186,8.683-5.561,11.292c3.032,2.998,4.702,7.322,4.153,11.887  c-0.549,4.576-3.192,8.374-6.853,10.571c2.665,3.341,3.809,7.837,2.722,12.31c-1.087,4.474-4.164,7.94-8.077,9.678  c2.254,3.638,2.86,8.237,1.247,12.551c-1.614,4.313-5.08,7.379-9.164,8.649c1.797,3.879,1.854,8.512-0.263,12.608  c-2.105,4.085-5.914,6.716-10.114,7.494c1.282,3.936,0.858,8.386-1.522,12.104c-0.068,0.126-0.149,0.251-0.229,0.366  c-2.15,3.169-5.342,5.206-8.798,5.95c-0.71,0.16-1.419,0.263-2.139,0.309c0.068,0.332,0.126,0.675,0.16,1.018  c-31.645,20.857-67.786,35.477-106.638,42.091C285.811,510.627,269.966,512,253.8,512c-7.551,0-15.045-0.298-22.446-0.893  c-8.443-0.663-16.772-1.716-24.987-3.112c-39.39-6.716-75.978-21.646-107.942-42.982c-1.465-3.1-1.727-6.578-0.881-9.782  c-4.245-0.538-8.191-2.952-10.537-6.922c-2.333-3.97-2.552-8.604-0.961-12.573c-4.153-1.03-7.791-3.902-9.644-8.123  c-1.854-4.21-1.51-8.844,0.526-12.596c-3.993-1.522-7.265-4.805-8.604-9.221c-1.338-4.404-0.446-8.958,2.025-12.436  c-3.787-1.991-6.647-5.64-7.448-10.171c-0.801-4.53,0.629-8.947,3.49-12.104c-3.513-2.426-5.914-6.384-6.19-10.983  c-0.263-4.587,1.67-8.798,4.885-11.601c-3.203-2.803-5.125-7.024-4.851-11.613c0.263-4.587,2.677-8.546,6.201-10.96  c-2.86-3.169-4.279-7.585-3.455-12.115c0.812-4.53,3.672-8.168,7.46-10.148c-2.46-3.49-3.341-8.043-2.002-12.447  c1.35-4.404,4.634-7.688,8.626-9.198c-2.037-3.753-2.369-8.385-0.504-12.596c1.865-4.198,5.503-7.071,9.644-8.1  c-1.567-3.97-1.35-8.592,0.995-12.551c2.345-3.958,6.303-6.373,10.537-6.899c-1.087-4.13-0.321-8.695,2.471-12.345  c2.803-3.661,7.013-5.583,11.281-5.606c-0.595-4.233,0.698-8.683,3.913-11.979c3.203-3.295,7.619-4.725,11.853-4.245  c-0.092-4.268,1.716-8.534,5.297-11.429c3.581-2.905,8.123-3.798,12.276-2.814c0.412-4.256,2.711-8.283,6.601-10.743  s8.512-2.803,12.527-1.35c0.915-4.176,3.673-7.894,7.837-9.885c4.153-1.979,8.787-1.773,12.608,0.16  c1.395-4.049,4.587-7.413,8.946-8.889c4.37-1.476,8.947-0.721,12.504,1.648c1.876-3.844,5.434-6.818,9.953-7.757  c4.508-0.938,8.958,0.355,12.207,3.124c2.311-3.592,6.201-6.109,10.777-6.51c4.587-0.4,8.855,1.408,11.749,4.53  c2.711-3.283,6.864-5.331,11.464-5.194c4.599,0.138,8.626,2.426,11.132,5.869c3.089-2.952,7.46-4.496,12.001-3.821  c4.553,0.675,8.294,3.432,10.377,7.15c3.421-2.563,7.94-3.592,12.379-2.38c4.439,1.212,7.826,4.393,9.45,8.34  c3.696-2.139,8.317-2.609,12.585-0.881c4.256,1.727,7.23,5.285,8.386,9.393c3.913-1.682,8.546-1.601,12.573,0.618  c4.027,2.231,6.556,6.109,7.219,10.331c4.096-1.212,8.683-0.583,12.413,2.094c3.741,2.688,5.789,6.841,5.95,11.109  c4.198-0.721,8.683,0.434,12.081,3.547c3.398,3.1,4.942,7.471,4.599,11.726c4.256-0.229,8.581,1.453,11.577,4.942  c3.009,3.477,4.038,8.009,3.192,12.185c4.256,0.287,8.351,2.46,10.926,6.281c2.574,3.809,3.066,8.421,1.727,12.481  c4.198,0.778,8.009,3.432,10.114,7.528c2.105,4.096,2.037,8.729,0.229,12.608c4.085,1.27,7.551,4.359,9.153,8.672  c1.602,4.325,0.995,8.923-1.27,12.551c3.902,1.75,6.979,5.229,8.054,9.714c1.087,4.474-0.08,8.958-2.746,12.298  c3.661,2.197,6.292,6.006,6.83,10.582c0.549,4.565-1.133,8.878-4.176,11.875C450.121,340.024,452.295,344.109,452.295,348.708z"/>
<path style="fill:#F2E3E3;" d="M292.973,158.53c-0.321,0.4-0.617,0.812-0.893,1.236c-3.249-2.769-7.7-4.062-12.207-3.124  c-4.519,0.938-8.077,3.913-9.953,7.757c-3.558-2.369-8.134-3.124-12.504-1.648c-4.359,1.476-7.551,4.84-8.946,8.889  c-3.821-1.933-8.455-2.139-12.608-0.16c-4.164,1.991-6.922,5.709-7.837,9.885c-4.015-1.453-8.638-1.11-12.527,1.35  c-3.89,2.46-6.19,6.486-6.601,10.743c-4.153-0.984-8.695-0.092-12.276,2.814c-3.581,2.894-5.389,7.162-5.297,11.43  c-4.233-0.481-8.649,0.95-11.853,4.245c-3.215,3.295-4.508,7.745-3.913,11.979c-4.268,0.023-8.477,1.945-11.281,5.606  c-2.792,3.649-3.558,8.215-2.471,12.345c-4.233,0.526-8.192,2.941-10.537,6.899c-2.345,3.958-2.563,8.581-0.995,12.551  c-4.142,1.029-7.779,3.902-9.644,8.1c-1.865,4.21-1.533,8.844,0.504,12.596c-3.993,1.51-7.277,4.793-8.626,9.198  c-1.338,4.404-0.457,8.958,2.003,12.447c-3.787,1.98-6.647,5.618-7.46,10.148c-0.823,4.53,0.595,8.947,3.455,12.115  c-3.524,2.414-5.938,6.373-6.201,10.96c-0.274,4.587,1.648,8.809,4.851,11.613c-3.215,2.803-5.148,7.013-4.885,11.601  c0.274,4.599,2.677,8.557,6.19,10.983c-2.86,3.158-4.29,7.573-3.49,12.104c0.801,4.53,3.661,8.18,7.448,10.171  c-2.471,3.479-3.364,8.032-2.025,12.436c1.338,4.417,4.61,7.7,8.604,9.221c-2.037,3.753-2.38,8.386-0.526,12.596  c1.854,4.221,5.491,7.094,9.644,8.123c-1.59,3.97-1.373,8.604,0.961,12.573c2.345,3.97,6.292,6.384,10.537,6.922  c-1.098,4.13-0.343,8.706,2.448,12.368c2.792,3.649,7.001,5.595,11.269,5.629c-0.606,4.221,0.687,8.672,3.879,11.979  c3.203,3.307,7.608,4.736,11.853,4.268c-0.103,4.268,1.705,8.534,5.274,11.441c3.558,2.905,8.1,3.798,12.264,2.837  c0.149,1.67,0.595,3.294,1.327,4.817c-1.189-0.172-2.38-0.366-3.558-0.572c-39.39-6.716-75.978-21.646-107.942-42.982  c-1.465-3.1-1.727-6.578-0.881-9.782c-4.245-0.538-8.191-2.952-10.537-6.922c-2.333-3.97-2.552-8.604-0.961-12.573  c-4.153-1.03-7.791-3.902-9.644-8.123c-1.854-4.21-1.51-8.844,0.526-12.596c-3.993-1.522-7.265-4.805-8.604-9.221  c-1.338-4.404-0.446-8.958,2.025-12.436c-3.787-1.991-6.647-5.64-7.448-10.171c-0.801-4.53,0.629-8.947,3.49-12.104  c-3.513-2.426-5.914-6.384-6.19-10.983c-0.263-4.587,1.67-8.798,4.885-11.601c-3.203-2.803-5.125-7.024-4.851-11.613  c0.263-4.587,2.677-8.546,6.201-10.96c-2.86-3.169-4.279-7.585-3.455-12.115c0.812-4.53,3.672-8.168,7.46-10.148  c-2.46-3.49-3.341-8.043-2.002-12.447c1.35-4.404,4.634-7.688,8.626-9.198c-2.037-3.753-2.369-8.385-0.504-12.596  c1.865-4.198,5.503-7.071,9.644-8.1c-1.567-3.97-1.35-8.592,0.995-12.551c2.345-3.958,6.303-6.373,10.537-6.899  c-1.087-4.13-0.321-8.695,2.471-12.345c2.803-3.661,7.013-5.583,11.281-5.606c-0.595-4.233,0.698-8.683,3.913-11.979  c3.203-3.295,7.619-4.725,11.853-4.245c-0.092-4.268,1.716-8.534,5.297-11.429c3.581-2.905,8.123-3.798,12.276-2.814  c0.412-4.256,2.711-8.283,6.601-10.743c3.89-2.46,8.512-2.803,12.527-1.35c0.915-4.176,3.673-7.894,7.837-9.885  c4.153-1.979,8.787-1.773,12.608,0.16c1.395-4.049,4.587-7.413,8.946-8.889c4.37-1.476,8.947-0.721,12.504,1.648  c1.876-3.844,5.434-6.818,9.953-7.757c4.508-0.938,8.958,0.355,12.207,3.124c2.311-3.592,6.201-6.109,10.777-6.51  c4.587-0.4,8.855,1.408,11.749,4.53c2.711-3.283,6.864-5.331,11.464-5.194c4.599,0.138,8.626,2.426,11.132,5.869  c3.089-2.952,7.46-4.496,12.001-3.821C288.214,155.098,290.902,156.517,292.973,158.53z"/>
<path style="fill:#F9395E;" d="M476.625,315.795c0,33.347-7.396,64.967-20.666,93.298c-11.078,14.233-23.666,27.245-37.495,38.809  c-4.293,3.589-8.699,7.044-13.229,10.343c-2.679,1.955-5.399,3.868-8.161,5.71c-0.59,0.403-1.189,0.807-1.789,1.2  c-28.61,18.856-61.285,32.075-96.411,38.053c-13.933,2.379-28.258,3.62-42.874,3.62c-6.827,0-13.602-0.269-20.294-0.807  c-6.537-0.517-12.991-1.283-19.373-2.296c-1.076-0.155-2.151-0.331-3.217-0.517c-35.612-6.072-68.691-19.57-97.59-38.86  c-3.786-2.513-7.489-5.141-11.13-7.861l-0.021-0.01c-17.977-13.446-34.113-29.22-47.952-46.887  c-13.384-28.465-20.873-60.261-20.873-93.794H476.625z"/>
<path style="fill:#D92F52;" d="M219.095,504.149c-0.921-0.134-1.841-0.279-2.762-0.424c-1.076-0.155-2.151-0.331-3.217-0.517  c-35.612-6.072-68.691-19.57-97.59-38.86c-3.786-2.513-7.489-5.141-11.13-7.861l-0.021-0.01  c-17.967-13.436-34.102-29.21-47.931-46.866c-0.01-0.01-0.021-0.021-0.021-0.021c-13.384-28.465-20.873-60.261-20.873-93.794h77.793  C113.343,395.543,155.679,465.403,219.095,504.149z"/>
<g>
	<circle style="fill:#4D4848;" cx="323.584" cy="220.574" r="6.864"/>
	<circle style="fill:#4D4848;" cx="129.096" cy="231.703" r="6.864"/>
	<circle style="fill:#4D4848;" cx="232.065" cy="205.7" r="6.864"/>
	<circle style="fill:#4D4848;" cx="291.55" cy="285.21" r="6.864"/>
	<circle style="fill:#4D4848;" cx="385.365" cy="268.619" r="6.864"/>
	<circle style="fill:#4D4848;" cx="170.284" cy="275.487" r="6.864"/>
</g>
<path style="fill:#CC7200;" d="M496.357,51.378L365.845,231.661c-1.683,0.023-3.398,0.191-5.118,0.512  c-4.78,0.891-9.078,2.867-12.709,5.615l-0.017-0.09c-1.243-5.796-4.061-10.857-7.951-14.811L465.214,30.021L496.357,51.378z"/>
<path style="fill:#A35802;" d="M496.357,51.378L365.845,231.661c-1.683,0.023-3.398,0.191-5.118,0.512  c-4.78,0.891-9.078,2.867-12.709,5.615l-0.017-0.09L477.357,38.347L496.357,51.378z"/>
<path style="fill:#CC7200;" d="M424.865,54.946L311.122,246.245c-1.67,0.172-3.364,0.504-5.057,0.972  c-4.679,1.316-8.775,3.673-12.15,6.739c-0.263-0.859-0.561-1.705-0.893-2.517c-1.865-4.61-4.77-8.546-8.386-11.601L391.927,36.481  l11.188,6.269L424.865,54.946z"/>
<path style="fill:#A35802;" d="M424.865,54.946L311.122,246.245c-1.67,0.172-3.364,0.504-5.057,0.972  c-4.679,1.316-8.775,3.673-12.15,6.739c-0.263-0.859-0.561-1.705-0.893-2.517L403.116,42.75L424.865,54.946z"/>
<g>
</g>
<g>
</g>
<g>
</g>
<g>
</g>
<g>
</g>
<g>
</g>
<g>
</g>
<g>
</g>
<g>
</g>
<g>
</g>
<g>
</g>
<g>
</g>
<g>
</g>
<g>
</g>
<g>
</g>
</svg>
