<?xml version="1.0" encoding="iso-8859-1"?>
<!-- Generator: Adobe Illustrator 19.0.0, SVG Export Plug-In . SVG Version: 6.00 Build 0)  -->
<svg xmlns="http://www.w3.org/2000/svg" xmlns:xlink="http://www.w3.org/1999/xlink" version="1.1" id="Capa_1" x="0px" y="0px" viewBox="0 0 512 512" style="enable-background:new 0 0 512 512;" xml:space="preserve">
<path style="fill:#665F60;" d="M512,256c0,36.425-7.607,71.064-21.316,102.442c-2.55,5.841-5.319,11.567-8.286,17.168  c-16.697,31.545-39.8,59.183-67.574,81.178c-3.814,3.02-7.711,5.935-11.692,8.735c-17.387,12.225-36.373,22.361-56.56,29.999  c-9.498,3.594-19.257,6.635-29.257,9.091C297.671,509.44,277.138,512,256,512C114.615,512,0,397.385,0,256S114.615,0,256,0  S512,114.615,512,256z"/>
<path style="fill:#EAA7F4;" d="M490.684,358.442c-2.55,5.841-5.319,11.567-8.286,17.168c-16.697,31.545-39.8,59.183-67.574,81.178  c-20.449,16.196-43.436,29.341-68.253,38.734c-9.498,3.594-19.257,6.635-29.257,9.091c-45.798-19.226-93.769-51.493-137.185-94.898  c-44.325-44.325-77.03-93.403-96.068-140.058c-7.283-17.816-12.56-35.265-15.747-51.984c-8.265-43.332-2.351-81.617,19.686-107.875  c1.63-1.954,3.344-3.824,5.162-5.642c0.293-0.293,0.575-0.575,0.878-0.857c7.576-7.346,14.89-11.442,22.204-12.884  c36.352-7.22,72.474,51.064,137.456,102.201c25.391,19.999,55.192,38.912,91.126,52.391  C417.113,272.112,465.398,314.577,490.684,358.442z"/>
<path style="fill:#D27CE2;" d="M403.132,465.523c-17.387,12.225-36.373,22.361-56.56,29.999c-9.498,3.594-19.257,6.635-29.257,9.091  c-45.798-19.226-93.769-51.493-137.185-94.898c-44.325-44.325-77.03-93.403-96.068-140.058  c-7.283-17.816-12.56-35.265-15.747-51.984l32.047,8.401c0,0,5.872,13.531,17.795,34.168  C154.655,323.532,247.986,453.622,403.132,465.523z"/>
<g>
	<path style="fill:#8CC371;" d="M212.247,122.27c10.189,10.555,18.954,22.322,26.16,34.971   c7.196,12.657,12.823,26.204,16.748,40.335c0,0-70.205-38.998-85.965-10.406s6.891,97.051,6.891,97.051l-32.708-13.53   c-28.167-11.652-60.45,1.689-72.176,29.826l0,0l-3.044,7.301l2.843-7.728c-8.749-19.077-15.614-38.207-20.394-56.995   C33.705,176.79,44.286,121.479,80.399,87.32c5.025-4.745,10.189-8.636,15.483-11.645c18.196-10.416,37.84-10.59,57.659-0.349   c7.955,4.1,15.78,9.778,23.717,16.583C187.248,97.724,200.314,109.918,212.247,122.27z"/>
	<path style="fill:#8CC371;" d="M84.379,0.001c0,0-13.668,81.708,15.989,111.365l20.647-8.435c0,0-33.147-49.359-19.191-95.952   L84.379,0.001z"/>
</g>
<path style="fill:#76B25D;" d="M176.082,284.22l-32.708-13.53c-28.167-11.652-60.45,1.689-72.176,29.826l0,0l-3.044,7.301  l2.843-7.728c-8.749-19.077-15.614-38.207-20.394-56.995C33.706,176.789,44.287,121.478,80.4,87.319  c5.025-4.745,10.189-8.636,15.483-11.645C86.76,102.591,58.471,212.787,176.082,284.22z"/>
<g>
</g>
<g>
</g>
<g>
</g>
<g>
</g>
<g>
</g>
<g>
</g>
<g>
</g>
<g>
</g>
<g>
</g>
<g>
</g>
<g>
</g>
<g>
</g>
<g>
</g>
<g>
</g>
<g>
</g>
</svg>
