<?xml version="1.0" encoding="iso-8859-1"?>
<!-- Generator: Adobe Illustrator 19.0.0, SVG Export Plug-In . SVG Version: 6.00 Build 0)  -->
<svg xmlns="http://www.w3.org/2000/svg" xmlns:xlink="http://www.w3.org/1999/xlink" version="1.1" id="Capa_1" x="0px" y="0px" viewBox="0 0 512 512" style="enable-background:new 0 0 512 512;" xml:space="preserve">
<path style="fill:#8CC371;" d="M512,256c0,37.146-7.92,72.453-22.152,104.302c-1.755,3.939-3.615,7.826-5.559,11.651  c-0.481,0.94-0.961,1.881-1.452,2.811c-1.494,2.873-3.051,5.705-4.66,8.495c-0.188,0.324-0.376,0.658-0.564,0.982  c-1.818,3.124-3.699,6.207-5.642,9.247c-15.036,23.594-33.834,44.544-55.557,62.025c-7.168,5.778-14.66,11.18-22.455,16.165  c-0.47,0.303-0.94,0.606-1.421,0.909c-8.025,5.068-16.353,9.707-24.942,13.866c-1.985,0.961-3.992,1.902-6.008,2.811  c-11.818,5.371-24.106,9.853-36.791,13.364c-8.328,2.33-16.833,4.242-25.485,5.716c-14.075,2.403-28.547,3.657-43.311,3.657  c-14.764,0-29.236-1.254-43.321-3.657C91.931,487.768,0.001,382.621,0.001,256c0-9.435,0.512-18.745,1.505-27.92  c2.518-23.207,8.14-45.474,16.426-66.403C40.355,105.149,82.318,58.504,135.493,30.083c21.702-11.598,45.265-20.166,70.133-25.119  c16.29-3.26,33.134-4.963,50.374-4.963C397.386,0.001,512,114.615,512,256z"/>
<path style="fill:#B16E60;" d="M489.848,360.301c-1.755,3.939-3.615,7.826-5.559,11.651c-0.481,0.94-0.961,1.881-1.452,2.811  c-1.494,2.873-3.051,5.705-4.66,8.495c-0.188,0.324-0.376,0.658-0.564,0.982c-1.818,3.124-3.699,6.207-5.642,9.247  c-15.036,23.594-33.834,44.544-55.557,62.025c-7.168,5.778-14.66,11.18-22.455,16.165c-0.47,0.303-0.94,0.606-1.421,0.909  c-8.025,5.068-16.353,9.707-24.942,13.866c-1.985,0.961-3.992,1.902-6.008,2.811c-11.818,5.371-24.106,9.853-36.791,13.364  c-42.099-1.672-96.371-12.434-153.432-46.372c-34.617-20.605-66.748-47.825-95.503-80.917  c-21.619-24.879-38.975-51.179-54.606-82.798c-10.397-21.034-16.98-42.705-19.749-64.46c-4.88-38.337,2.1-76.925,20.919-112.765  c27.355-52.088,75.87-90.3,133.099-104.834c6.959-1.755,14.085-3.176,21.18-4.211c2.633-0.376,4.974-0.669,7.168-0.888  c7.022-0.711,14.315-0.846,21.755-0.418c27.481,1.546,57.01,10.627,82.432,25.715l0.125,0.073  c30.647,18.244,82.526,61.179,86.308,144.227c2.184,48.232,13.5,86.35,34.597,116.537c17.878,25.579,39.842,40.281,54.376,49.998  l6.29,4.253C477.195,350.783,483.924,355.578,489.848,360.301z"/>
<path style="fill:#D92F52;" d="M484.29,371.952c-0.481,0.94-0.961,1.881-1.452,2.811c-1.494,2.873-3.051,5.705-4.66,8.495  c-0.188,0.324-0.376,0.658-0.564,0.982c-1.818,3.124-3.699,6.207-5.642,9.247c-15.036,23.594-33.834,44.544-55.557,62.025  c-7.168,5.778-14.66,11.18-22.455,16.165c-0.47,0.303-0.94,0.606-1.421,0.909c-8.025,5.068-16.353,9.707-24.942,13.866  c-1.985,0.961-3.992,1.902-6.008,2.811c-2.142,0.199-4.295,0.355-6.457,0.491c-42.475,2.664-107.708-2.863-177.35-44.304  c-33.458-19.905-64.564-46.278-92.431-78.357c-20.908-24.043-37.689-49.497-52.84-80.112  c-20.156-40.772-25.015-84.062-14.576-125.304c3.5-13.793,8.704-27.355,15.611-40.521c21.932-41.754,58.326-74.02,101.95-91.073  c7.502-2.936,15.235-5.423,23.134-7.429c6.52-1.661,13.218-2.988,19.884-3.96c2.435-0.334,4.598-0.616,6.646-0.815  c30.344-3.082,66.414,5.736,96.496,23.604l0.157,0.094c28.421,16.906,76.633,56.801,80.133,133.966  c2.299,50.688,14.346,90.969,36.843,123.162c19.247,27.523,42.381,43.018,57.689,53.248l6.269,4.242  C470.863,361.66,478.135,366.874,484.29,371.952z"/>
<path style="fill:#F9395E;" d="M458.951,368.786c-1.16-0.794-2.247-1.536-3.208-2.184c0,0,0,0-0.01,0c0,0,0,0-0.01-0.01  c-0.094-0.063-0.449-0.303-0.951-0.648c-0.188-0.115-0.387-0.251-0.606-0.397c-0.094-0.063-0.188-0.125-0.282-0.188  c-0.313-0.209-0.648-0.428-0.982-0.658c-0.094-0.073-0.199-0.146-0.303-0.209c-0.178-0.115-0.355-0.23-0.533-0.355  c-0.627-0.418-1.233-0.825-1.724-1.16c-0.251-0.178-0.481-0.324-0.658-0.449c-0.063-0.042-0.125-0.084-0.178-0.115  c-1.63-1.097-3.344-2.236-5.13-3.448v-0.01h-0.01c-11.766-7.973-26.666-18.777-41.138-34.628c0-0.01-0.01-0.01-0.01-0.01  c-0.554-0.616-1.118-1.243-1.672-1.87c-2.267-2.56-4.535-5.256-6.76-8.087c-0.533-0.669-1.055-1.337-1.567-2.027  c-0.366-0.47-0.731-0.951-1.087-1.432c-0.261-0.334-0.512-0.669-0.752-1.014c-0.481-0.637-0.951-1.285-1.421-1.943  c-0.491-0.669-0.982-1.348-1.473-2.038c-23.886-34.199-36.676-76.643-39.09-129.776c-3.239-71.272-47.741-108.136-74-123.757  c0,0,0,0-0.021-0.01c-27.888-16.582-61.137-24.806-88.942-21.985c-2.006,0.199-4.075,0.46-6.113,0.752  c-57.825,8.401-108.544,44.23-135.648,95.88c-25.663,48.849-25.976,103.685-0.909,154.394c1.369,2.748,2.738,5.465,4.138,8.129  c3.396,6.541,6.896,12.842,10.533,18.944c10.783,18.171,22.664,34.597,36.394,50.395c19.759,22.727,41.179,42.506,63.916,59.005  c2.55,1.849,5.12,3.657,7.69,5.423c0.857,0.585,1.724,1.16,2.581,1.735v0.01h0.01c5.005,3.375,10.052,6.562,15.193,9.613  c66.884,39.811,129.431,45.108,170.13,42.559c13.615-0.857,26.927-2.738,39.612-5.538c7.795-4.984,15.287-10.386,22.455-16.165  c21.723-17.481,40.521-38.431,55.557-62.025c1.944-3.041,3.824-6.123,5.642-9.247c0.188-0.324,0.376-0.658,0.564-0.982  C471.688,377.636,464.374,372.485,458.951,368.786z"/>
<path style="fill:#D92F52;" d="M146.532,231.18c-27.576-16.409-36.632-52.079-20.216-79.667s52.086-36.644,79.662-20.236  c27.588,16.416,36.645,52.086,20.228,79.674S174.121,247.596,146.532,231.18z"/>
<path style="fill:#F2EEED;" d="M152.364,222.428c-22.167-13.19-29.447-41.864-16.25-64.041  c13.197-22.177,41.87-29.457,64.036-16.267c22.177,13.196,29.457,41.87,16.261,64.047S174.541,235.624,152.364,222.428z"/>
<g>
	<path style="fill:#D92F52;" d="M403.235,324.324c-40.32-17.316-123.327-16.238-204.412,4.349   c-47.507,12.061-91.659,0.682-120.334-10.985c-7.356-2.993-14.079-6.145-20.056-9.216c-3.635-6.101-7.141-12.404-10.537-18.941   c25.734,15.706,84.324,44.388,148.145,28.184c64.454-16.364,143.648-22.811,193.912-9.77   C394.261,313.941,398.726,319.377,403.235,324.324z"/>
	<path style="fill:#D92F52;" d="M458.949,368.783c-28.857,3.335-61.523,5.447-96.282,4.785   c-89.789-1.697-164.199,34.664-193.653,51.474c-3.451-2.312-6.869-4.697-10.269-7.165c10.196-6.088,28.052-15.896,51.869-25.663   c34.919-14.321,89.669-31.138,152.267-29.95c29.002,0.555,56.508-0.856,81.492-3.311l0.003,0.013   c1.784,1.206,3.5,2.351,5.125,3.442c1.344,0.903,6.236,4.196,6.236,4.196C456.706,367.253,457.788,367.989,458.949,368.783z"/>
</g>
<g>
</g>
<g>
</g>
<g>
</g>
<g>
</g>
<g>
</g>
<g>
</g>
<g>
</g>
<g>
</g>
<g>
</g>
<g>
</g>
<g>
</g>
<g>
</g>
<g>
</g>
<g>
</g>
<g>
</g>
</svg>
