<?xml version="1.0" encoding="iso-8859-1"?>
<!-- Generator: Adobe Illustrator 19.0.0, SVG Export Plug-In . SVG Version: 6.00 Build 0)  -->
<svg xmlns="http://www.w3.org/2000/svg" xmlns:xlink="http://www.w3.org/1999/xlink" version="1.1" id="Capa_1" x="0px" y="0px" viewBox="0 0 512 512" style="enable-background:new 0 0 512 512;" xml:space="preserve">
<path style="fill:#52C8D3;" d="M511.479,255.479c0,22.712-2.961,44.735-8.53,65.705c-2.451,9.239-5.412,18.28-8.853,27.081  c-6.277,16.121-14.161,31.45-23.431,45.788c-6.674,10.323-14.067,20.125-22.117,29.344c-0.01,0.01-0.01,0.01-0.01,0.021  c-46.841,53.65-115.737,87.54-192.537,87.54c-23.567,0-46.393-3.191-68.062-9.156c-4.421-1.22-8.801-2.565-13.128-4.015h-0.01  c-4.161-1.397-8.269-2.888-12.336-4.494c-12.826-5.047-25.131-11.105-36.851-18.071c0,0-0.01,0-0.021-0.01  c-2.711-1.616-5.381-3.264-8.019-4.974c-8.957-5.787-17.529-12.117-25.673-18.947l-0.01-0.01  C36.028,404.417,0.521,334.093,0.521,255.479C0.521,114.381,114.903,0,256,0S511.479,114.381,511.479,255.479z"/>
<path style="fill:#E6E2E0;" d="M502.949,322.226c-2.451,9.239-5.412,18.28-8.853,27.081c-6.277,16.121-14.161,31.45-23.431,45.788  c-6.674,10.323-14.067,20.125-22.117,29.344c-0.01,0.01-0.01,0.01-0.01,0.021C401.696,478.11,332.8,512,256,512  c-23.567,0-46.393-3.191-68.062-9.155c-8.686-2.398-17.185-5.245-25.475-8.509c-12.826-5.047-25.141-11.105-36.862-18.071  c0,0,0,0-0.01-0.01c-2.711-1.616-5.381-3.264-8.019-4.974c-8.957-5.787-17.539-12.127-25.683-18.958  c-11.95-23.587-18.593-49.678-18.593-77.134c0-53.557,25.277-101.952,65.986-136.645h306.189  C472.218,261.329,492.313,290.036,502.949,322.226z"/>
<rect x="139.283" y="183.465" style="fill:#665F60;" width="306.199" height="54.043"/>
<rect x="139.283" y="183.465" style="fill:#4D4848;" width="54.043" height="54.043"/>
<path style="fill:#CCC9C7;" d="M174.8,498.83c-4.161-1.397-8.269-2.888-12.336-4.494c-12.826-5.047-25.131-11.105-36.851-18.071  c0,0-0.01,0-0.021-0.01c-2.711-1.616-5.381-3.264-8.019-4.974c-8.957-5.787-17.529-12.117-25.673-18.947l-0.01-0.01  c-11.95-23.587-18.593-49.678-18.593-77.134c0-53.557,25.277-101.952,65.986-136.645h54.036  C193.319,238.544,91.107,377.295,174.8,498.83z"/>
<ellipse style="fill:#FFFFFF;" cx="436.42" cy="313.144" rx="25.41" ry="42.055"/>
<polygon style="fill:#E6E2E0;" points="445.48,184.506 495.712,144.199 139.281,100.387 139.281,184.506 "/>
<path style="fill:#4D4848;" d="M139.281,183.463H81.399c-11.391,0-21.831,6.353-27.066,16.468L3.3,298.54  c-5.969,11.533-0.593,25.695,11.525,30.362l0,0c10.379,3.997,22.103-0.459,27.205-10.341l41.855-81.056h55.396"/>
<path style="fill:#B16E60;" d="M494.096,348.264c-6.277,16.121-14.161,31.45-23.431,45.788  c-6.674,10.323-14.067,20.125-22.117,29.344c-0.01,0.01-0.01,0.01-0.01,0.021c-46.841,53.65-115.737,87.54-192.537,87.54  c-23.567,0-46.393-3.191-68.062-9.156c-8.686-2.398-17.185-5.245-25.475-8.509c-12.826-5.047-25.141-11.105-36.862-18.071  c0,0,0,0-0.01-0.01c-23.368-28.603-37.112-63.473-37.112-101.065c0-22.962,5.068-45.225,14.755-65.872H481.53  C487.526,321.058,491.749,334.458,494.096,348.264z"/>
<polygon style="fill:#CCC9C7;" points="206.253,108.619 193.323,184.506 139.281,184.506 139.281,100.387 "/>
<path style="fill:#9E5B50;" d="M174.81,497.787c-4.161-1.397-8.28-2.888-12.346-4.494c-12.826-5.047-25.131-11.105-36.851-18.071  c0,0-0.01,0-0.021-0.01c-23.368-28.614-37.112-63.484-37.112-101.065c0-22.962,5.068-45.225,14.755-65.872h54.005  C138.887,359.526,128.97,431.237,174.81,497.787z"/>
<path style="fill:#C16931;" d="M461.831,313.144c0,23.227-11.38,42.061-25.412,42.061s-25.412-18.835-25.412-42.061  c0-1.648,0.058-3.272,0.175-4.872h50.473C461.773,309.872,461.831,311.496,461.831,313.144z"/>
<g>
</g>
<g>
</g>
<g>
</g>
<g>
</g>
<g>
</g>
<g>
</g>
<g>
</g>
<g>
</g>
<g>
</g>
<g>
</g>
<g>
</g>
<g>
</g>
<g>
</g>
<g>
</g>
<g>
</g>
</svg>
