<?xml version="1.0" encoding="iso-8859-1"?>
<!-- Generator: Adobe Illustrator 19.0.0, SVG Export Plug-In . SVG Version: 6.00 Build 0)  -->
<svg xmlns="http://www.w3.org/2000/svg" xmlns:xlink="http://www.w3.org/1999/xlink" version="1.1" id="Capa_1" x="0px" y="0px" viewBox="0 0 512 512" style="enable-background:new 0 0 512 512;" xml:space="preserve">
<path style="fill:#52C8D3;" d="M503.081,323.138c-3.741,13.876-8.683,27.47-14.806,40.668  c-12.298,26.509-29.383,51.346-51.252,73.216c-14.033,14.033-29.289,26.102-45.422,36.195  c-11.766,7.356-23.981,13.667-36.551,18.913h-0.01c-93.007,38.975-204.341,20.616-280.055-55.108  C13.868,375.905-9.883,291.592,3.711,212.441c5.81-33.803,18.422-66.654,37.857-96.361c9.509-14.535,20.647-28.327,33.416-41.096  C117.71,32.258,171.794,7.786,227.519,1.59c0.094-0.021,0.199-0.031,0.293-0.042c74.564-8.213,152.044,16.269,209.21,73.436  C504.251,142.213,526.267,237.529,503.081,323.138z"/>
<g>
	<path style="fill:#E6E2E0;" d="M503.081,323.138c-3.741,13.876-8.683,27.47-14.806,40.668L377.588,253.119   c-13.26-13.26-31.598-19.79-50.323-18.798c-17.136,0.92-34.565-5.162-47.658-18.254l-9.738-9.738   c-8.286-8.286-16.29-16.844-24.033-25.663L152.516,74.2l114.459,100.332c1.473,1.296,3.323,1.902,5.151,1.839   c1.818-0.063,3.626-0.784,5.005-2.173c2.779-2.769,2.926-7.22,0.345-10.167L177.144,49.572l114.459,100.332   c1.473,1.285,3.323,1.891,5.151,1.839c1.829-0.063,3.626-0.784,5.016-2.173c2.769-2.779,2.915-7.22,0.334-10.167L201.772,24.954   l114.469,100.321c1.463,1.285,3.312,1.891,5.141,1.839c1.818-0.063,3.636-0.794,5.016-2.173c2.769-2.769,2.915-7.22,0.334-10.156   L227.519,1.59l-1.118-1.275l1.411,1.233l105.054,92.087c8.819,7.732,17.377,15.747,25.673,24.033l9.728,9.728   c13.093,13.093,19.174,30.542,18.254,47.668c-0.993,18.725,5.548,37.063,18.808,50.322L503.081,323.138z"/>
	<path style="fill:#E6E2E0;" d="M391.6,474.262c-11.766,7.356-23.981,13.667-36.551,18.913h-0.01L204.74,342.876   c-15.914-15.914-39.079-22.643-60.855-16.959c-28.578,7.461-61.043-1.17-94.282-34.398c-23.698-23.698-39.299-51.42-45.892-78.033   c-7.92-32.037-2.769-62.454,17.074-82.296c6.029-6.029,13.04-10.71,20.783-14.064c38.839-16.886,95.995-0.679,139.557,42.872   c33.228,33.238,41.859,65.703,34.388,94.292c-5.684,21.776,1.055,44.931,16.969,60.845L391.6,474.262z"/>
</g>
<g>
	<path style="fill:#F2EEED;" d="M156.9,267.3c-30.157,30.157-70.966,39.218-113.993,4.352c3.559,4.33,7.383,8.562,11.48,12.659   c47.469,47.469,93.233,39.721,126.239,6.715s40.754-78.77-6.715-126.239c-4.097-4.097-8.329-7.921-12.659-11.48   C196.119,196.335,187.057,237.143,156.9,267.3z"/>
	<path style="fill:#F2EEED;" d="M334.102,182.945c-21.181,21.181-49.844,27.546-80.065,3.056c2.499,3.041,5.186,6.013,8.063,8.891   c33.341,33.341,65.484,27.898,88.665,4.717s28.624-55.325-4.717-88.665c-2.878-2.878-5.85-5.564-8.891-8.064   C361.648,133.102,355.282,161.765,334.102,182.945z"/>
</g>
<g>
</g>
<g>
</g>
<g>
</g>
<g>
</g>
<g>
</g>
<g>
</g>
<g>
</g>
<g>
</g>
<g>
</g>
<g>
</g>
<g>
</g>
<g>
</g>
<g>
</g>
<g>
</g>
<g>
</g>
</svg>
