<?xml version="1.0" encoding="iso-8859-1"?>
<!-- Generator: Adobe Illustrator 19.0.0, SVG Export Plug-In . SVG Version: 6.00 Build 0)  -->
<svg xmlns="http://www.w3.org/2000/svg" xmlns:xlink="http://www.w3.org/1999/xlink" version="1.1" id="Capa_1" x="0px" y="0px" viewBox="0 0 512 512" style="enable-background:new 0 0 512 512;" xml:space="preserve">
<path style="fill:#52C8D3;" d="M512,256c0,4.263-0.104,8.505-0.313,12.727c-1.139,23.312-5.402,45.808-12.382,67.082  c-4.723,14.461-10.721,28.348-17.836,41.535c-0.073,0.146-0.157,0.282-0.23,0.428c-7.941,14.67-17.293,28.473-27.847,41.232  c-1.014,1.233-2.048,2.466-3.093,3.678c-25.924,30.198-58.776,54.272-96.078,69.789c-0.188,0.084-0.387,0.157-0.575,0.24  c-2.832,1.17-5.684,2.288-8.558,3.344c-1.943,0.731-3.887,1.431-5.851,2.1C313.145,507.131,285.142,512,256,512  C114.615,512,0,397.385,0,256c0-30.845,5.454-60.426,15.464-87.813c1.891-5.172,3.939-10.271,6.154-15.287v-0.01  c13.688-31.086,33.374-58.922,57.616-82.056c20.814-19.874,44.972-36.279,71.544-48.264c14.921-6.75,30.616-12.1,46.895-15.893  C216.409,2.309,235.927,0,256,0c138.553,0,251.392,110.059,255.854,247.536c0,0.01,0,0.01,0,0.01  C511.958,250.347,512,253.168,512,256z"/>
<path style="fill:#F2B54D;" d="M512,256c0,44.074-11.139,85.556-30.762,121.772c-7.941,14.67-17.293,28.473-27.847,41.232  c-1.014,1.233-2.048,2.466-3.093,3.678c-26.06,30.354-59.11,54.523-96.653,70.029c-2.832,1.17-5.684,2.288-8.558,3.344  c-41.963-36.362-87.98-84.992-138.951-135.962C125.973,279.939,51.597,212.01,21.619,152.9c-3.636-7.178-6.625-14.221-8.882-21.138  C2.288,99.746,7.304,70.363,34.649,43.018C50.876,26.791,70.76,15.475,93.288,8.788c25.057-7.45,53.352-9.153,83.477-5.475  c6.875,0.836,13.855,1.964,20.908,3.365c17.544,3.469,35.579,8.652,53.823,15.485c17.784,6.666,35.809,14.9,53.76,24.639  c11.264,6.113,22.518,12.821,33.688,20.104c23.291,15.151,46.237,32.831,68.305,52.872c6.792,6.165,13.479,12.528,20.062,19.132  c6.604,6.593,12.978,13.291,19.143,20.072c25.83,28.442,47.731,58.358,65.4,88.555c0,0.01,0,0.01,0,0.01  C511.958,250.347,512,253.168,512,256z"/>
<path style="fill:#E2A625;" d="M305.252,46.805l-85.805,85.805c-10.823,10.823-28.377,10.823-39.2,0  c-8.54-8.54-10.335-21.25-5.398-31.558c1.306-2.759,3.115-5.346,5.398-7.642l71.246-71.247  c12.644,4.739,25.394,10.268,38.158,16.565C294.851,41.288,300.052,43.981,305.252,46.805z"/>
<path style="fill:#F9BE63;" d="M512,256c0,44.074-11.139,85.556-30.762,121.772c-7.941,14.67-17.293,28.473-27.847,41.232  C334.848,258.1,338.944,66.905,338.944,66.905c23.291,15.151,46.237,32.831,68.305,52.872c6.792,6.165,13.479,12.528,20.062,19.132  c6.604,6.593,12.978,13.291,19.143,20.072c25.84,28.453,47.731,58.368,65.4,88.566C511.958,250.347,512,253.168,512,256z"/>
<g>
	<path style="fill:#E2A625;" d="M446.453,158.981l-81.647,81.647c-10.837,10.823-28.377,10.823-39.2,0   c-8.54-8.526-10.348-21.237-5.411-31.545c1.307-2.772,3.115-5.358,5.411-7.655l81.647-81.647   c6.785,6.164,13.476,12.525,20.062,19.125c2.601,2.6,5.161,5.214,7.682,7.84C438.902,150.785,442.717,154.863,446.453,158.981z"/>
	<path style="fill:#E2A625;" d="M511.687,268.727c-1.912,39.152-12.633,76.016-30.218,108.617l-8.641,8.641   c-10.836,10.825-28.379,10.825-39.205,0c-8.537-8.537-10.344-21.253-5.413-31.556c1.327-2.759,3.114-5.35,5.413-7.649   L511.687,268.727z"/>
</g>
<g>
	<path style="fill:#F2B54D;" d="M289.651,38.727l-70.125,70.125c-10.823,10.823-28.391,10.823-39.2,0   c-2.336-2.336-4.171-4.976-5.477-7.8c1.306-2.759,3.115-5.346,5.398-7.642l71.246-71.247   C264.138,26.901,276.887,32.432,289.651,38.727z"/>
	<path style="fill:#F2B54D;" d="M434.995,146.745l-70.125,70.125c-10.823,10.837-28.364,10.837-39.2,0   c-2.336-2.336-4.158-4.976-5.477-7.788c1.307-2.772,3.115-5.358,5.412-7.655l81.647-81.647   c6.785,6.164,13.476,12.525,20.062,19.125C429.914,141.506,432.475,144.12,434.995,146.745z"/>
	<path style="fill:#F2B54D;" d="M511.687,268.727c-1.139,23.312-5.402,45.808-12.382,67.082l-26.415,26.415   c-10.825,10.825-28.369,10.825-39.205,0c-2.33-2.33-4.148-4.974-5.475-7.795c1.327-2.759,3.114-5.35,5.413-7.649L511.687,268.727z"/>
</g>
<g>
	<path style="fill:#E59F32;" d="M354.22,492.471c-0.188,0.084-0.387,0.157-0.575,0.24c-2.832,1.17-5.684,2.288-8.558,3.344   c-41.963-36.362-87.98-84.992-138.951-135.962C125.962,279.918,51.576,211.999,21.619,152.889   C1.16,112.525,1.411,76.267,34.659,43.018C68.911,8.767,119.557-3.678,176.755,3.312c0,0-12.11,6.395-25.976,19.257   c-24.994,23.197-55.704,67.438-31.399,133.172C151.667,243.033,241.256,369.831,354.22,492.471z"/>
	<circle style="fill:#E59F32;" cx="267.128" cy="298.924" r="7.919"/>
	<circle style="fill:#E59F32;" cx="176.065" cy="55.421" r="7.919"/>
	<circle style="fill:#E59F32;" cx="338.401" cy="326.646" r="7.919"/>
	<circle style="fill:#E59F32;" cx="348.296" cy="382.077" r="7.919"/>
	<circle style="fill:#E59F32;" cx="447.289" cy="271.214" r="7.919"/>
	<circle style="fill:#E59F32;" cx="253.273" cy="190.046" r="7.919"/>
	<circle style="fill:#E59F32;" cx="166.17" cy="184.101" r="7.919"/>
</g>
<g>
</g>
<g>
</g>
<g>
</g>
<g>
</g>
<g>
</g>
<g>
</g>
<g>
</g>
<g>
</g>
<g>
</g>
<g>
</g>
<g>
</g>
<g>
</g>
<g>
</g>
<g>
</g>
<g>
</g>
</svg>
