<?xml version="1.0" encoding="iso-8859-1"?>
<!-- Generator: Adobe Illustrator 19.0.0, SVG Export Plug-In . SVG Version: 6.00 Build 0)  -->
<svg xmlns="http://www.w3.org/2000/svg" xmlns:xlink="http://www.w3.org/1999/xlink" version="1.1" id="Capa_1" x="0px" y="0px" viewBox="0 0 512 512" style="enable-background:new 0 0 512 512;" xml:space="preserve">
<path style="fill:#94F3FF;" d="M508.666,297.567c-1.637,10.064-3.869,20.055-6.727,29.9c-7.749,26.886-20.013,52.74-36.783,76.383  c-8.239,11.628-17.573,22.725-27.992,33.144c-10.419,10.419-21.515,19.753-33.154,27.992  c-22.954,16.269-47.984,28.294-74.015,36.085c-10.179,3.056-20.514,5.454-30.943,7.207c-8.687,1.46-17.448,2.472-26.219,3.024  c-15.227,0.97-30.536,0.584-45.711-1.168c-55.285-6.351-108.89-30.724-151.305-73.139c-99.786-99.786-99.786-261.562,0-361.346  c99.786-99.786,261.562-99.786,361.348,0C497.58,136.062,521.421,219.225,508.666,297.567z"/>
<path style="fill:#B16E60;" d="M331.983,169.839L115.555,386.266l-97.907-97.907c99.384-99.384,91.886-16.78-17.422-126.089  L162.321,0.177L331.983,169.839z"/>
<rect x="24.674" y="120.58" transform="matrix(-0.7071 0.7071 -0.7071 -0.7071 228.5718 247.9562)" style="fill:#9E5B50;" width="76.518" height="101.474"/>
<polygon style="fill:#BC662F;" points="125.862,180.146 0,162.498 54.107,108.39 "/>
<rect x="24.674" y="145.556" transform="matrix(0.7071 0.7071 -0.7071 0.7071 139.5769 5.6834)" style="fill:#B16E60;" width="76.507" height="51.54"/>
<rect x="78.779" y="66.473" transform="matrix(-0.7071 0.7071 -0.7071 -0.7071 282.6758 117.3315)" style="fill:#9E5B50;" width="76.518" height="101.474"/>
<polygon style="fill:#BC662F;" points="179.969,126.038 54.107,108.39 108.213,54.283 "/>
<rect x="78.782" y="91.452" transform="matrix(0.7071 0.7071 -0.7071 0.7071 117.1674 -48.4231)" style="fill:#B16E60;" width="76.507" height="51.54"/>
<rect x="132.884" y="12.367" transform="matrix(-0.7071 0.7071 -0.7071 -0.7071 336.7811 -13.2908)" style="fill:#9E5B50;" width="76.518" height="101.474"/>
<polygon style="fill:#BC662F;" points="234.076,71.931 108.213,54.283 162.321,0.177 "/>
<rect x="132.887" y="37.348" transform="matrix(0.7071 0.7071 -0.7071 0.7071 94.7572 -102.5281)" style="fill:#B16E60;" width="76.507" height="51.54"/>
<rect x="42.318" y="246.446" transform="matrix(-0.7071 0.7071 -0.7071 -0.7071 347.6932 450.3464)" style="fill:#9E5B50;" width="76.518" height="101.474"/>
<polygon style="fill:#BC662F;" points="143.51,306.007 17.648,288.359 71.755,234.252 "/>
<rect x="42.315" y="271.416" transform="matrix(0.7071 0.7071 -0.7071 0.7071 233.7404 30.0729)" style="fill:#B16E60;" width="76.507" height="51.54"/>
<rect x="96.425" y="192.33" transform="matrix(-0.7071 0.7071 -0.7071 -0.7071 401.7937 319.7053)" style="fill:#9E5B50;" width="76.518" height="101.474"/>
<polygon style="fill:#BC662F;" points="197.617,251.9 71.755,234.252 125.862,180.146 "/>
<rect x="96.423" y="217.306" transform="matrix(0.7071 0.7071 -0.7071 0.7071 211.3268 -24.0357)" style="fill:#B16E60;" width="76.507" height="51.54"/>
<rect x="150.531" y="138.225" transform="matrix(-0.7071 0.7071 -0.7071 -0.7071 455.9008 189.0838)" style="fill:#9E5B50;" width="76.518" height="101.474"/>
<polygon style="fill:#BC662F;" points="251.724,197.794 125.862,180.146 179.969,126.038 "/>
<rect x="150.537" y="163.2" transform="matrix(0.7071 0.7071 -0.7071 0.7071 188.9175 -78.1473)" style="fill:#B16E60;" width="76.507" height="51.54"/>
<rect x="204.637" y="84.12" transform="matrix(-0.7071 0.7071 -0.7071 -0.7071 510.008 58.4622)" style="fill:#9E5B50;" width="76.518" height="101.474"/>
<polygon style="fill:#BC662F;" points="305.83,143.687 179.969,126.038 234.076,71.931 "/>
<rect x="204.645" y="109.094" transform="matrix(0.7071 0.7071 -0.7071 0.7071 166.5064 -132.2544)" style="fill:#B16E60;" width="76.507" height="51.54"/>
<rect x="114.075" y="318.205" transform="matrix(-0.7071 0.7071 -0.7071 -0.7071 520.9315 522.1064)" style="fill:#9E5B50;" width="76.518" height="101.474"/>
<polygon style="fill:#BC662F;" points="215.265,377.762 89.403,360.114 143.51,306.007 "/>
<rect x="114.078" y="343.171" transform="matrix(0.7071 0.7071 -0.7071 0.7071 305.4973 0.3458)" style="fill:#B16E60;" width="76.507" height="51.54"/>
<rect x="168.181" y="264.1" transform="matrix(-0.7071 0.7071 -0.7071 -0.7071 575.0386 391.485)" style="fill:#9E5B50;" width="76.518" height="101.474"/>
<polygon style="fill:#BC662F;" points="269.372,323.655 143.51,306.007 197.617,251.9 "/>
<rect x="168.189" y="289.064" transform="matrix(0.7071 0.7071 -0.7071 0.7071 283.0874 -53.7643)" style="fill:#B16E60;" width="76.507" height="51.54"/>
<rect x="222.288" y="209.995" transform="matrix(-0.7071 0.7071 -0.7071 -0.7071 629.1458 260.8634)" style="fill:#9E5B50;" width="76.518" height="101.474"/>
<polygon style="fill:#BC662F;" points="323.479,269.549 197.617,251.9 251.724,197.794 "/>
<rect x="222.29" y="234.966" transform="matrix(0.7071 0.7071 -0.7071 0.7071 260.6793 -107.864)" style="fill:#B16E60;" width="76.507" height="51.54"/>
<rect x="276.393" y="155.89" transform="matrix(-0.7071 0.7071 -0.7071 -0.7071 683.2512 130.2426)" style="fill:#9E5B50;" width="76.518" height="101.474"/>
<polygon style="fill:#BC662F;" points="377.586,215.442 251.724,197.794 305.83,143.687 "/>
<rect x="276.397" y="180.849" transform="matrix(0.7071 0.7071 -0.7071 0.7071 238.2608 -161.9742)" style="fill:#B16E60;" width="76.507" height="51.54"/>
<path style="fill:#F9395E;" d="M501.939,327.468c-7.749,26.886-20.013,52.74-36.783,76.383  c-8.239,11.628-17.573,22.725-27.992,33.144c-10.419,10.419-21.515,19.753-33.154,27.992  c-22.954,16.269-47.984,28.294-74.015,36.085c-10.179,3.056-20.514,5.454-30.943,7.207c-23.778,3.994-48.005,4.62-71.93,1.856  L126.794,409.806l-26.855,18.637l-5.684-13.068l-29.254-67.362l6.831-5.465l9.814-7.853l7.665-6.122l12.619-10.106l19.429-15.56  l0.772-0.626l2.461-1.961l7.342-5.882l7.749-6.205l2.065-1.648l17.667-14.142l7.467-5.976l20.066-16.061l5.089-4.078l25.176-20.149  l13.381-10.7l1.95-1.564l11.879-9.501l3.452-2.774l4.276-3.421l0.396-0.313l29.274-23.434l12.922-10.346l2.493-1.982l15.018-12.035  l6.841-5.475l23.695,13.412l5.11,2.889l37.743,21.359l0.386,0.219l19.669,11.128l18.157,10.283l-26.855,18.606L501.939,327.468z"/>
<polygon style="fill:#D92F52;" points="396.999,222.534 414.858,240.392 160.886,443.901 126.799,409.814 "/>
<polygon style="fill:#F2EEED;" points="65.004,349.062 86.484,421.956 413.434,189.186 384.003,147.982 289.289,126.043 "/>
<g>
	<polygon style="fill:#FFFFFF;" points="377.046,156.009 247.435,166.618 228.704,186.392  "/>
	<polygon style="fill:#FFFFFF;" points="220.261,303.162 389.354,181.158 171.031,309.583  "/>
	<polygon style="fill:#FFFFFF;" points="229.357,215.94 359.388,175.807 257.718,229.318  "/>
</g>
<polygon style="fill:#E6E2E0;" points="101.471,312.801 106.283,382.893 134.644,320.286 118.055,312.259 141.717,272.782 "/>
<path style="fill:#D92F52;" d="M272.833,511.301c-15.227,0.97-30.536,0.584-45.711-1.168l-83.36-83.36l10.054-2.242l18.908-4.213  l24.383-5.454h0.021C197.128,414.863,230.063,460.365,272.833,511.301z"/>
<g>
</g>
<g>
</g>
<g>
</g>
<g>
</g>
<g>
</g>
<g>
</g>
<g>
</g>
<g>
</g>
<g>
</g>
<g>
</g>
<g>
</g>
<g>
</g>
<g>
</g>
<g>
</g>
<g>
</g>
</svg>
