<?xml version="1.0" encoding="iso-8859-1"?>
<!-- Generator: Adobe Illustrator 19.0.0, SVG Export Plug-In . SVG Version: 6.00 Build 0)  -->
<svg xmlns="http://www.w3.org/2000/svg" xmlns:xlink="http://www.w3.org/1999/xlink" version="1.1" id="Capa_1" x="0px" y="0px" viewBox="0 0 512 512" style="enable-background:new 0 0 512 512;" xml:space="preserve">
<path style="fill:#94F3FF;" d="M0,256.354c0-4.712,0.115-9.435,0.376-14.137c0.261-4.995,0.669-9.979,1.233-14.942  c0.376-3.375,0.825-6.729,1.337-10.083c0.042-0.282,0.084-0.575,0.125-0.857c0.104-0.637,0.199-1.275,0.313-1.912  c0.731-4.483,1.578-8.955,2.56-13.406c0.449-2.069,0.93-4.127,1.432-6.186c6.238-25.454,16.426-50.145,30.584-73.08  c0.878-1.432,1.787-2.873,2.706-4.295c4.43-6.875,9.237-13.605,14.409-20.125c0.585-0.752,1.181-1.494,1.787-2.236  c3.218-3.971,6.562-7.868,10.052-11.682c0.073-0.073,0.136-0.157,0.209-0.23c2.55-2.769,5.172-5.517,7.858-8.202  c1.243-1.243,2.508-2.476,3.772-3.688c1.317-1.264,2.644-2.508,3.981-3.73c25.997-23.96,55.766-41.535,87.28-52.746  c20.187-7.178,41.085-11.755,62.192-13.709c73.195-6.802,148.762,17.826,204.81,73.874c99.976,99.976,99.976,262.06,0,362.035  c-99.976,99.976-262.06,99.976-362.036,0c-42.778-42.778-67.25-96.925-73.415-152.712c-0.711-6.332-1.17-12.685-1.4-19.048  C0.063,262.289,0,259.323,0,256.354z"/>
<circle style="fill:#D92F52;" cx="391.659" cy="308.873" r="84.125"/>
<path style="fill:#E83A25;" d="M364.392,336.137c27.267,27.267,68.584,31.879,100.632,13.885  c-3.686,6.565-8.299,12.751-13.885,18.336c-32.853,32.853-86.116,32.853-118.969,0s-32.853-86.116,0-118.969  c5.586-5.586,11.771-10.198,18.337-13.885C332.513,267.553,337.125,308.871,364.392,336.137z"/>
<polygon style="fill:#76B25D;" points="375.572,316.665 376.693,339.818 354.96,347.884 375.572,358.49 371.69,381.344   391.182,368.796 409.032,383.585 407.912,360.431 429.644,352.367 409.032,341.76 412.915,318.907 393.423,331.454 "/>
<circle style="fill:#F9395E;" cx="374.586" cy="230.286" r="84.125"/>
<path style="fill:#D92F52;" d="M364.824,267.586c37.305,9.759,75.294-7.13,93.864-38.848c0.135,7.529-0.722,15.196-2.721,22.838  c-11.759,44.947-57.728,71.852-102.676,60.093c-44.947-11.758-71.852-57.729-60.093-102.676c1.999-7.642,5.008-14.748,8.812-21.245  C302.668,224.496,327.519,257.826,364.824,267.586z"/>
<path style="fill:#B16E60;" d="M55.077,97.331c0.585-0.752,1.181-1.494,1.787-2.236c3.218-3.971,6.562-7.868,10.052-11.682  l27.032,27.021l41.315-11.525l4.89,17.554l-31.42,8.767l105.273,105.263l-12.894,12.884l-64.669-64.669v11.442H118.22l0.01-29.665  L55.077,97.331z"/>
<circle style="fill:#F9395E;" cx="257.306" cy="174.05" r="84.125"/>
<path style="fill:#D92F52;" d="M230.038,201.318c27.267,27.267,68.584,31.879,100.632,13.885  c-3.686,6.565-8.299,12.751-13.885,18.336c-32.853,32.853-86.116,32.853-118.969,0s-32.853-86.116,0-118.969  c5.586-5.586,11.771-10.198,18.337-13.885C198.159,132.734,202.771,174.053,230.038,201.318z"/>
<circle style="fill:#F9395E;" cx="396.455" cy="403.217" r="84.125"/>
<path style="fill:#D92F52;" d="M369.189,430.479c27.267,27.267,68.584,31.879,100.632,13.885  c-3.686,6.565-8.299,12.751-13.885,18.336c-32.853,32.853-86.116,32.853-118.969,0s-32.853-86.116,0-118.969  c5.586-5.586,11.771-10.198,18.337-13.885C337.31,361.895,341.922,403.212,369.189,430.479z"/>
<polygon style="fill:#C11E45;" points="369.986,418.692 378.915,440.084 361.22,455.059 384.211,458.023 388.333,480.835   402.396,462.406 424.212,470.242 415.283,448.849 432.978,433.874 409.987,430.911 405.865,408.098 391.802,426.527 "/>
<circle style="fill:#F9395E;" cx="252.458" cy="406.101" r="84.125"/>
<path style="fill:#D92F52;" d="M225.197,433.361c27.267,27.267,68.584,31.879,100.632,13.885  c-3.686,6.565-8.299,12.751-13.885,18.336c-32.853,32.853-86.116,32.853-118.969,0s-32.853-86.116,0-118.969  c5.586-5.586,11.771-10.198,18.337-13.885C193.318,364.776,197.93,406.094,225.197,433.361z"/>
<polygon style="fill:#C11E45;" points="236.378,413.888 237.498,437.042 215.765,445.107 236.378,455.713 232.495,478.566   251.987,466.019 269.838,480.808 268.717,457.654 290.449,449.589 269.838,438.982 273.72,416.129 254.228,428.677 "/>
<path style="fill:#F9395E;" d="M0,256.354c-0.01-9.718,0.522-19.425,1.609-29.08c0.376-3.375,0.825-6.729,1.337-10.083  c0.042-0.282,0.084-0.575,0.125-0.857c0.104-0.637,0.199-1.275,0.313-1.912c0.731-4.483,1.578-8.955,2.56-13.406  c0.449-2.069,0.93-4.127,1.432-6.186c6.238-25.454,16.426-50.145,30.584-73.08c10.856,4.075,21.023,10.501,29.748,19.226  c27.721,27.7,32.026,69.935,12.967,102.191c-0.209,0.366-0.418,0.721-0.637,1.076c-0.272,0.46-0.564,0.909-0.846,1.358  c-0.376,0.596-0.763,1.17-1.149,1.755c-0.23,0.334-0.449,0.669-0.679,1.003c-0.648,0.93-1.306,1.86-2.006,2.779  c-0.533,0.711-1.076,1.421-1.651,2.121c-0.679,0.846-1.379,1.672-2.1,2.508c-0.575,0.648-1.17,1.306-1.766,1.954  c-0.052,0.063-0.104,0.115-0.167,0.178c-0.637,0.69-1.296,1.379-1.964,2.038c-18.119,18.129-42.454,26.248-66.142,24.367  c-0.711-6.332-1.17-12.685-1.4-19.048C0.063,262.289,0,259.323,0,256.354z"/>
<path style="fill:#D92F52;" d="M0,256.354c0-4.712,0.115-9.435,0.376-14.137c8.296,4.493,17.178,7.492,26.269,8.997  c18.61,3.082,38.076-0.125,54.951-9.613c-1.839,3.281-3.918,6.478-6.238,9.54c-0.533,0.711-1.076,1.421-1.651,2.121  c-0.679,0.846-1.379,1.672-2.1,2.508c-0.575,0.648-1.17,1.306-1.766,1.954c-0.052,0.063-0.104,0.115-0.167,0.178  c-0.637,0.69-1.296,1.379-1.964,2.038c-18.119,18.129-42.454,26.248-66.142,24.367c-0.711-6.332-1.17-12.685-1.4-19.048  C0.063,262.289,0,259.323,0,256.354z"/>
<path style="fill:#C11E45;" d="M0,256.354c-0.01-9.718,0.522-19.425,1.609-29.08c0.376-3.375,0.825-6.729,1.337-10.083L10,223.043  l19.477-12.549L25.6,233.335l20.616,10.606l-19.571,7.272l-2.163,0.794l1.118,23.155L7.753,260.377l-7.586,4.88  C0.063,262.289,0,259.323,0,256.354z"/>
<circle style="fill:#F9395E;" cx="318.172" cy="296.585" r="84.125"/>
<path style="fill:#D92F52;" d="M290.903,323.85c27.267,27.267,68.584,31.879,100.632,13.885  c-3.686,6.565-8.299,12.751-13.885,18.336c-32.853,32.853-86.116,32.853-118.969,0s-32.853-86.116,0-118.969  c5.586-5.586,11.771-10.198,18.337-13.885C259.024,255.265,263.636,296.584,290.903,323.85z"/>
<polygon style="fill:#C11E45;" points="302.084,304.378 303.204,327.532 281.472,335.596 302.084,346.203 298.201,369.056   317.693,356.509 335.544,371.297 334.423,348.143 356.156,340.079 335.544,329.473 339.426,306.619 319.934,319.166 "/>
<circle style="fill:#F9395E;" cx="170.005" cy="279.835" r="84.125"/>
<path style="fill:#D92F52;" d="M142.742,307.102c27.267,27.267,68.584,31.879,100.632,13.885  c-3.686,6.565-8.299,12.751-13.885,18.336c-32.853,32.853-86.116,32.853-118.969,0s-32.853-86.116,0-118.969  c5.586-5.586,11.771-10.198,18.337-13.885C110.863,238.517,115.475,279.835,142.742,307.102z"/>
<polygon style="fill:#C11E45;" points="146.835,263.806 133.471,282.748 111.378,275.732 121.1,296.776 103.977,312.402   127.062,314.505 132.032,337.147 145.397,318.206 167.491,325.221 157.769,304.177 174.892,288.552 151.806,286.448 "/>
<path style="fill:#8CC371;" d="M82.735,67.563c25.997-23.96,55.766-41.535,87.28-52.746c20.187-7.178,41.085-11.755,62.192-13.709  c30.271,2.508,58.901,10.052,76.037,27.178C308.245,28.284,226.868,97.844,82.735,67.563z"/>
<g>
</g>
<g>
</g>
<g>
</g>
<g>
</g>
<g>
</g>
<g>
</g>
<g>
</g>
<g>
</g>
<g>
</g>
<g>
</g>
<g>
</g>
<g>
</g>
<g>
</g>
<g>
</g>
<g>
</g>
</svg>
