<?xml version="1.0" encoding="iso-8859-1"?>
<!-- Generator: Adobe Illustrator 19.0.0, SVG Export Plug-In . SVG Version: 6.00 Build 0)  -->
<svg xmlns="http://www.w3.org/2000/svg" xmlns:xlink="http://www.w3.org/1999/xlink" version="1.1" id="Capa_1" x="0px" y="0px" viewBox="0 0 511.999 511.999" style="enable-background:new 0 0 511.999 511.999;" xml:space="preserve">
<path style="fill:#F2B54D;" d="M437.02,74.985c69.933,69.933,90.953,170.261,63.031,258.458c-1.53,4.869-3.229,9.701-5.061,14.488  c-7.492,19.521-17.474,38.31-29.931,55.88c-8.253,11.652-17.599,22.771-28.04,33.211c-0.835,0.835-1.677,1.662-2.519,2.49  c-4.574,4.441-9.265,8.675-14.067,12.708c-5.408,4.552-10.957,8.829-16.632,12.849c-17.585,12.457-36.366,22.432-55.902,29.924  L347.892,495c-4.78,1.84-9.612,3.524-14.481,5.054c-88.182,27.906-188.503,6.893-258.428-63.031  c-99.974-99.974-99.974-262.064,0-362.037S337.047-24.988,437.02,74.985z"/>
<path style="fill:#8CC371;" d="M254.266,160.611l-32.265,5.43l-5.505,0.924c-1.131,3.924-2.623,8.002-4.552,12.25l-28.032,4.714  l-4.706,28.025c-4.249,1.928-8.327,3.421-12.25,4.552l-6.354,37.77c-2.786,1.263-5.519,2.387-8.194,3.377  C67.994,288.898,37.044,187.21,37.044,187.21c23.51,32.051,66.57,33.633,96.9,29.886c-1.412-0.406-2.778-0.871-4.115-1.381  c-33.285-12.671-46.4-55.739-46.4-55.739c24.929,33.987,78.207,23.768,95.792,19.262c4.514-17.592,14.733-70.87-19.254-95.799  c0,0,46.599,14.194,57.12,50.515c3.746-30.33-34.882-110.437-66.933-133.947C150.153,0.006,295.435,69.998,254.266,160.611z"/>
<g>
	<path style="fill:#76B25D;" d="M217.087,133.953L222,166.041l3.17,20.71l-41.258-2.822l-4.692-4.692   c4.514-17.592,14.733-70.87-19.254-95.799C159.966,83.437,206.566,97.631,217.087,133.953z"/>
	<path style="fill:#76B25D;" d="M147.584,212.604l4.824,45.047C67.994,288.898,0,142.392,0,142.392   c23.51,32.051,103.614,78.45,133.944,74.704L147.584,212.604z"/>
	<path style="fill:#76B25D;" d="M63.883,63.884l51.006,51.006L63.883,63.884c0,45.09,106.031,151.121,151.121,151.121l0,0l0,0   C215.004,169.915,108.973,63.884,63.883,63.884z"/>
	<path style="fill:#76B25D;" d="M129.829,215.715l4.115,1.381C132.533,216.69,131.165,216.225,129.829,215.715z"/>
</g>
<path style="fill:#F9395E;" d="M500.053,333.443c-1.53,4.869-3.229,9.701-5.061,14.488c-7.492,19.521-17.474,38.31-29.931,55.88  c-8.253,11.652-17.599,22.771-28.04,33.211c-0.835,0.835-1.677,1.662-2.519,2.49c-4.574,4.441-9.265,8.675-14.067,12.708  c-5.408,4.552-10.957,8.829-16.632,12.849c-17.585,12.457-36.366,22.432-55.902,29.924L347.893,495  c-4.78,1.84-9.612,3.524-14.481,5.054c-90.185-7.802-177.819-58.953-220.547-116.044c-65.138-86.993,61.317-209.826,61.317-209.826  s1.174-1.205,3.361-3.318c0.924-0.894,2.031-1.958,3.318-3.14c3.804-3.569,9.147-8.364,15.715-13.824  c0.82-0.672,1.662-1.367,2.519-2.076c1.922-1.581,3.953-3.199,6.067-4.854c0.532-0.414,1.064-0.828,1.603-1.249  c42.41-32.879,118.105-77.129,177.236-32.849C441.099,155.609,492.258,243.252,500.053,333.443z"/>
<g>
	<path style="fill:#D92F52;" d="M434.501,439.512c-4.574,4.441-9.265,8.675-14.067,12.708c-5.408,4.552-10.957,8.829-16.632,12.849   c-17.585,12.457-36.366,22.432-55.902,29.924L347.893,495c-4.78,1.84-9.612,3.524-14.481,5.054   c-90.185-7.802-177.819-58.953-220.547-116.044c-65.138-86.993,61.317-209.826,61.317-209.826s1.174-1.205,3.361-3.318   c0.931-0.887,2.047-1.943,3.318-3.14c3.813-3.561,9.147-8.364,15.715-13.824c0.82-0.672,1.662-1.367,2.519-2.076   c1.929-1.574,3.953-3.199,6.067-4.854c0.532-0.414,1.064-0.828,1.603-1.249c-32.886,42.417-77.136,118.113-32.857,177.243   C222.96,388.51,331.18,446.221,434.501,439.512z"/>
	
		<ellipse transform="matrix(-0.7071 -0.7071 0.7071 -0.7071 321.8765 565.2112)" style="fill:#D92F52;" cx="277.997" cy="215.943" rx="19.33" ry="12.539"/>
</g>
<ellipse transform="matrix(-0.7071 -0.7071 0.7071 -0.7071 321.8765 565.2112)" style="fill:#F2B54D;" cx="277.997" cy="215.943" rx="9.335" ry="6.055"/>
<g transform="matrix(0.6036 -0.7973 0.7973 0.6036 1.152 320.98)">
	
		<ellipse transform="matrix(2.503711e-006 1 -1 2.503711e-006 501.6612 -151.2195)" style="fill:#D92F52;" cx="326.441" cy="175.221" rx="19.331" ry="12.539"/>
	
		<ellipse transform="matrix(2.503711e-006 1 -1 2.503711e-006 501.6612 -151.2195)" style="fill:#F2B54D;" cx="326.441" cy="175.221" rx="9.335" ry="6.055"/>
</g>
<g transform="matrix(0.7071 -0.7071 0.7071 0.7071 -16.248 328.22)">
	
		<ellipse transform="matrix(2.535181e-006 1 -1 2.535181e-006 596.4376 -192.6971)" style="fill:#D92F52;" cx="394.568" cy="201.871" rx="19.331" ry="12.539"/>
	
		<ellipse transform="matrix(2.535181e-006 1 -1 2.535181e-006 596.4376 -192.6971)" style="fill:#F2B54D;" cx="394.568" cy="201.871" rx="9.335" ry="6.055"/>
</g>
<g transform="matrix(0.7071 -0.7071 0.7071 0.7071 -64.902 311.27)">
	
		<ellipse transform="matrix(2.535182e-006 1 -1 2.535182e-006 599.0642 -94.4563)" style="fill:#D92F52;" cx="346.76" cy="252.305" rx="19.331" ry="12.539"/>
	
		<ellipse transform="matrix(2.535181e-006 1 -1 2.535181e-006 599.0642 -94.4563)" style="fill:#F2B54D;" cx="346.76" cy="252.305" rx="9.335" ry="6.055"/>
</g>
<g transform="matrix(0.8015 -0.598 0.598 0.8015 -62.14 304.89)">
	
		<ellipse transform="matrix(2.513754e-006 1 -1 2.513754e-006 703.3892 -170.5949)" style="fill:#D92F52;" cx="436.992" cy="266.398" rx="19.331" ry="12.539"/>
	
		<ellipse transform="matrix(2.513754e-006 1 -1 2.513754e-006 703.3892 -170.5949)" style="fill:#F2B54D;" cx="436.992" cy="266.398" rx="9.335" ry="6.055"/>
</g>
<g transform="matrix(0.7071 -0.7071 0.7071 0.7071 -101.67 335.86)">
	
		<ellipse transform="matrix(2.535182e-006 1 -1 2.535182e-006 667.7617 -45.4779)" style="fill:#D92F52;" cx="356.62" cy="311.143" rx="19.331" ry="12.539"/>
	
		<ellipse transform="matrix(2.535182e-006 1 -1 2.535182e-006 667.7617 -45.4779)" style="fill:#F2B54D;" cx="356.62" cy="311.143" rx="9.335" ry="6.055"/>
</g>
<g transform="matrix(0.7071 -0.7071 0.7071 0.7071 -113.09 273.01)">
	
		<ellipse transform="matrix(2.535182e-006 1 -1 2.535182e-006 563.3521 17.3319)" style="fill:#D92F52;" cx="273.01" cy="290.343" rx="19.331" ry="12.539"/>
	
		<ellipse transform="matrix(2.535182e-006 1 -1 2.535182e-006 563.3521 17.3319)" style="fill:#F2B54D;" cx="273.01" cy="290.343" rx="9.335" ry="6.055"/>
</g>
<g transform="matrix(0.7071 -0.7071 0.7071 0.7071 -80.48 194.28)">
	
		<ellipse transform="matrix(2.535181e-006 1 -1 2.535181e-006 400.9041 12.344)" style="fill:#D92F52;" cx="194.28" cy="206.625" rx="19.331" ry="12.539"/>
	
		<ellipse transform="matrix(2.535182e-006 1 -1 2.535182e-006 400.9041 12.344)" style="fill:#F2B54D;" cx="194.28" cy="206.625" rx="9.335" ry="6.055"/>
</g>
<g transform="matrix(0.7071 -0.7071 0.7071 0.7071 -149.02 374.43)">
	
		<ellipse transform="matrix(2.535182e-006 1 -1 2.535182e-006 768.5342 12.9352)" style="fill:#D92F52;" cx="377.799" cy="390.736" rx="19.331" ry="12.539"/>
	
		<ellipse transform="matrix(2.535182e-006 1 -1 2.535182e-006 768.5342 12.9352)" style="fill:#F2B54D;" cx="377.799" cy="390.736" rx="9.335" ry="6.055"/>
</g>
<g transform="matrix(0.7071 -0.7071 0.7071 0.7071 -104.27 403.13)">
	
		<ellipse transform="matrix(2.535181e-006 1 -1 2.535181e-006 789.5041 -86.2733)" style="fill:#D92F52;" cx="437.889" cy="351.616" rx="19.331" ry="12.539"/>
	
		<ellipse transform="matrix(2.535181e-006 1 -1 2.535181e-006 789.5041 -86.2733)" style="fill:#F2B54D;" cx="437.889" cy="351.616" rx="9.335" ry="6.055"/>
</g>
<g transform="matrix(0.4665 -0.8845 0.8845 0.4665 0.998 301.13)">
	
		<ellipse transform="matrix(2.535196e-006 1 -1 2.535196e-006 412.2411 -86.6251)" style="fill:#D92F52;" cx="249.433" cy="162.809" rx="19.331" ry="12.539"/>
	
		<ellipse transform="matrix(2.535196e-006 1 -1 2.535196e-006 412.2411 -86.6251)" style="fill:#F2B54D;" cx="249.433" cy="162.809" rx="9.335" ry="6.055"/>
</g>
<g transform="matrix(-0.7071 0.7071 -0.7071 -0.7071 545.12 297.91)">
	
		<ellipse transform="matrix(2.535182e-006 1 -1 2.535182e-006 459.3216 34.365)" style="fill:#D92F52;" cx="212.478" cy="246.844" rx="19.331" ry="12.539"/>
	
		<ellipse transform="matrix(2.535182e-006 1 -1 2.535182e-006 459.3216 34.365)" style="fill:#F2B54D;" cx="212.478" cy="246.844" rx="9.335" ry="6.055"/>
</g>
<g transform="matrix(-0.7973 0.6036 -0.6036 -0.7973 486.57 474.94)">
	
		<ellipse transform="matrix(2.566652e-006 1 -1 2.566652e-006 469.6498 136.9996)" style="fill:#D92F52;" cx="166.325" cy="303.325" rx="19.331" ry="12.539"/>
	
		<ellipse transform="matrix(2.566652e-006 1 -1 2.566652e-006 469.6498 136.9996)" style="fill:#F2B54D;" cx="166.325" cy="303.325" rx="9.335" ry="6.055"/>
</g>
<g transform="matrix(-0.7071 0.7071 -0.7071 -0.7071 592.25 522.43)">
	
		<ellipse transform="matrix(2.535182e-006 1 -1 2.535182e-006 559.8783 171.5778)" style="fill:#D92F52;" cx="194.15" cy="365.729" rx="19.331" ry="12.539"/>
	
		<ellipse transform="matrix(2.535182e-006 1 -1 2.535182e-006 559.8783 171.5778)" style="fill:#F2B54D;" cx="194.15" cy="365.729" rx="9.335" ry="6.055"/>
</g>
<g transform="matrix(-0.7071 0.7071 -0.7071 -0.7071 646.37 410.44)">
	
		<ellipse transform="matrix(2.535182e-006 1 -1 2.535182e-006 562.1472 79.3814)" style="fill:#D92F52;" cx="241.383" cy="320.765" rx="19.331" ry="12.539"/>
	
		<ellipse transform="matrix(2.535182e-006 1 -1 2.535182e-006 562.1472 79.3814)" style="fill:#F2B54D;" cx="241.383" cy="320.765" rx="9.335" ry="6.055"/>
</g>
<g transform="matrix(-0.598 0.8015 -0.8015 -0.598 739.72 476.95)">
	
		<ellipse transform="matrix(2.556609e-006 1 -1 2.556609e-006 662.3903 144.8157)" style="fill:#D92F52;" cx="258.787" cy="403.604" rx="19.331" ry="12.539"/>
	
		<ellipse transform="matrix(2.556609e-006 1 -1 2.556609e-006 662.3903 144.8157)" style="fill:#F2B54D;" cx="258.787" cy="403.604" rx="9.335" ry="6.055"/>
</g>
<g transform="matrix(-0.7071 0.7071 -0.7071 -0.7071 751.12 389.65)">
	
		<ellipse transform="matrix(2.535181e-006 1 -1 2.535181e-006 626.5284 33.2841)" style="fill:#D92F52;" cx="296.622" cy="329.907" rx="19.331" ry="12.539"/>
	
		<ellipse transform="matrix(2.535182e-006 1 -1 2.535182e-006 626.5284 33.2841)" style="fill:#F2B54D;" cx="296.622" cy="329.907" rx="9.335" ry="6.055"/>
</g>
<g transform="matrix(-0.7071 0.7071 -0.7071 -0.7071 870.39 500.05)">
	
		<ellipse transform="matrix(2.535182e-006 1 -1 2.535182e-006 740.8636 71.3409)" style="fill:#D92F52;" cx="334.761" cy="406.103" rx="19.331" ry="12.539"/>
	
		<ellipse transform="matrix(2.535182e-006 1 -1 2.535182e-006 740.8636 71.3409)" style="fill:#F2B54D;" cx="334.761" cy="406.103" rx="9.335" ry="6.055"/>
</g>
<g transform="matrix(-0.8845 0.4665 -0.4665 -0.8845 404.84 391.66)">
	
		<ellipse transform="matrix(2.535167e-006 1 -1 2.535167e-006 385.9269 79.9721)" style="fill:#D92F52;" cx="152.977" cy="232.95" rx="19.331" ry="12.539"/>
	
		<ellipse transform="matrix(2.535167e-006 1 -1 2.535167e-006 385.9269 79.9721)" style="fill:#F2B54D;" cx="152.977" cy="232.95" rx="9.335" ry="6.055"/>
</g>
<g>
</g>
<g>
</g>
<g>
</g>
<g>
</g>
<g>
</g>
<g>
</g>
<g>
</g>
<g>
</g>
<g>
</g>
<g>
</g>
<g>
</g>
<g>
</g>
<g>
</g>
<g>
</g>
<g>
</g>
</svg>
