<?xml version="1.0" encoding="iso-8859-1"?>
<!-- Generator: Adobe Illustrator 19.0.0, SVG Export Plug-In . SVG Version: 6.00 Build 0)  -->
<svg xmlns="http://www.w3.org/2000/svg" xmlns:xlink="http://www.w3.org/1999/xlink" version="1.1" id="Capa_1" x="0px" y="0px" viewBox="0 0 512 512" style="enable-background:new 0 0 512 512;" xml:space="preserve">
<path style="fill:#F9EF4A;" d="M458.814,412.23c-3.73,4.838-7.659,9.561-11.786,14.179c-3.208,3.615-6.551,7.147-10.01,10.606  c-1.546,1.546-3.103,3.061-4.671,4.545c-1.505,1.442-3.02,2.853-4.556,4.232c-0.888,0.815-1.787,1.62-2.685,2.414  c-4.598,4.054-9.32,7.92-14.127,11.588c-100.351,76.517-244.295,68.921-335.994-22.779c-99.975-99.975-99.975-262.058,0-362.032  c99.975-99.975,262.058-99.975,362.033,0C529.103,167.068,536.376,311.837,458.814,412.23z"/>
<path style="fill:#8CC371;" d="M201.543,241.213c5.77-21.774,4.638-20.549-12.783-39.618c-9.13-9.994-30.972-8.244-44.467-17.101  c-12.024-7.891-19.352-29.149-34.623-32.847c-19.128-4.631-35.577,13.474-51.238,20.634c-16.738,7.653-40.782,8.004-51.097,21.775  c-12.889,17.207-5.201,40.133-3.595,53.559c1.632,13.641,6.631,25.972,23.373,25.415c11.856-0.394,24.289-18.859,37.541-20.724  c14.984-2.109,28.424,12.276,38.207,14.668c9.031,2.207,22.706-14.206,36.257-15.96c11.722-1.516,26.901,11.973,37.819,9.423  C196.234,255.93,196.99,258.391,201.543,241.213z"/>
<path style="fill:#76B25D;" d="M247.465,265.9l-9.848,9.848c-34.901-34.901-79.72-52.896-133.21-53.486  c-29.306-0.323-53.142,4.925-63.95,7.807c-3.551,0.947-7.226-1.01-8.408-4.49l0,0c-1.294-3.81,0.89-7.928,4.776-8.97  c11.676-3.135,36.674-8.616,67.736-8.273C161.012,208.957,210.428,228.863,247.465,265.9z"/>
<path style="fill:#8CC371;" d="M239.956,202.8c-21.774,5.771-20.549,4.638-39.618-12.783c-9.994-9.13-8.244-30.972-17.101-44.467  c-7.891-12.024-29.149-19.352-32.847-34.623c-4.631-19.128,13.474-35.577,20.634-51.238c7.653-16.738,8.004-40.782,21.775-51.097  c17.207-12.889,40.133-5.201,53.559-3.595c13.641,1.632,25.972,6.631,25.415,23.373c-0.394,11.856-18.859,24.289-20.724,37.541  c-2.109,14.984,12.276,28.424,14.668,38.207c2.207,9.031-14.206,22.706-15.96,36.257c-1.516,11.722,11.973,26.901,9.423,37.819  C254.673,197.491,257.134,198.247,239.956,202.8z"/>
<path style="fill:#76B25D;" d="M264.643,248.722l9.848-9.848c-34.901-34.901-52.896-79.72-53.486-133.21  c-0.323-29.306,4.925-53.142,7.807-63.95c0.947-3.551-1.01-7.226-4.49-8.408l0,0c-3.81-1.294-7.928,0.89-8.97,4.776  c-3.135,11.676-8.616,36.674-8.273,67.736C207.701,162.269,227.606,211.684,264.643,248.722z"/>
<path style="fill:#F9395E;" d="M461.875,365.617c-0.209,1.024-0.428,2.048-0.7,3.062c-3.448,14.399-4.232,29.173-2.361,43.551  c-3.73,4.838-7.659,9.561-11.786,14.179c-3.208,3.615-6.551,7.147-10.01,10.606c-1.546,1.546-3.103,3.061-4.671,4.545  c-2.382,2.278-4.796,4.483-7.241,6.645c-4.598,4.054-9.32,7.92-14.127,11.588c-13.949-1.891-28.243-1.212-42.151,2.288  c-1.473,0.376-2.967,0.721-4.472,1.034c-41.043,8.798-85.629-2.936-117.32-35.192c-48.922-49.82-48.19-130.663,1.609-179.616  c49.663-48.796,129.514-48.545,178.853,0.794C459.127,280.73,470.59,324.898,461.875,365.617z"/>
<path style="fill:#E6E2E0;" d="M461.175,369.724c-3.448,14.399-4.232,29.173-2.361,43.551c-3.73,4.838-7.659,9.561-11.786,14.179  c-3.208,3.615-6.551,7.147-10.01,10.606c-1.546,1.546-3.103,3.061-4.671,4.545c-2.382,2.278-4.796,4.483-7.241,6.645  c-4.598,4.054-9.32,7.92-14.127,11.588c-13.949-1.891-28.243-1.212-42.151,2.288c-1.473,0.376-2.967,0.721-4.472,1.034  c6.813-22.267,19.038-43.258,36.655-60.865c17.596-17.606,38.577-29.821,60.854-36.644l0.01,0.01  C461.666,367.686,461.447,368.71,461.175,369.724z"/>
<path style="fill:#CCC9C7;" d="M427.791,446.836c-0.888,0.815-1.787,1.62-2.685,2.414c-4.598,4.054-9.32,7.92-14.127,11.588  c-13.949-1.891-28.243-1.212-42.151,2.288c-1.473,0.376-2.967,0.721-4.472,1.034c3.824-12.476,9.341-24.576,16.561-35.881  c4.963,2.152,9.738,3.856,14.231,5.078c0.93,0.272,1.839,0.502,2.727,0.721C406.778,436.189,416.976,440.598,427.791,446.836z"/>
<path style="fill:#D92F52;" d="M247.854,249.098c-18.07,18.089,6.962,72.841,55.894,122.111  c26.22,26.389,54.023,46.031,77.165,56.016c-7.215,11.314-12.736,23.403-16.554,35.887c-41.053,8.806-85.634-2.929-117.329-35.186  C198.379,378.376,198.847,298.124,247.854,249.098z"/>
<ellipse transform="matrix(-0.9351 -0.3544 0.3544 -0.9351 582.4912 611.9211)" style="fill:#F9698C;" cx="347.28" cy="252.621" rx="21.761" ry="15.668"/>
<g>
</g>
<g>
</g>
<g>
</g>
<g>
</g>
<g>
</g>
<g>
</g>
<g>
</g>
<g>
</g>
<g>
</g>
<g>
</g>
<g>
</g>
<g>
</g>
<g>
</g>
<g>
</g>
<g>
</g>
</svg>
