<?xml version="1.0" encoding="iso-8859-1"?>
<!-- Generator: Adobe Illustrator 19.0.0, SVG Export Plug-In . SVG Version: 6.00 Build 0)  -->
<svg xmlns="http://www.w3.org/2000/svg" xmlns:xlink="http://www.w3.org/1999/xlink" version="1.1" id="Capa_1" x="0px" y="0px" viewBox="0 0 512 512" style="enable-background:new 0 0 512 512;" xml:space="preserve">
<path style="fill:#B16E60;" d="M437.02,74.982c23.503,23.503,41.487,50.442,53.937,79.206  c16.469,38.044,23.274,79.264,20.392,119.932c-0.968,13.898-3.074,27.707-6.31,41.316c-5.298,22.307-13.632,44.028-24.995,64.525  c-3.628,6.568-7.581,13.004-11.829,19.291c-1.027,1.53-2.084,3.045-3.155,4.559c-0.17,0.243-0.347,0.481-0.517,0.724  c-7.256,10.167-15.339,19.919-24.272,29.178l-0.007,0.007c-1.064,1.108-2.15,2.209-3.243,3.303l-1.278,1.278  c-9.14,9.007-18.789,17.178-28.845,24.53l-0.007,0.007c-1.02,0.753-2.054,1.492-3.089,2.231c-0.436,0.303-0.864,0.613-1.308,0.909  c-6.14,4.292-12.427,8.29-18.841,11.984c-19.89,11.467-40.992,20.023-62.692,25.69c-13.278,3.481-26.776,5.866-40.378,7.16  c-39.492,3.806-79.716-1.559-117.205-16.085c-32.207-12.479-62.404-31.712-88.397-57.705c-99.975-99.975-99.975-262.066,0-362.04  S337.046-24.993,437.02,74.982z"/>
<path style="fill:#8CC371;" d="M101.634,247.512c0,0,33.411-72.6,6.813-99.199l42.255-42.255  c26.599,26.599,99.199-6.813,99.199-6.813l56.672,73.402L182.559,316.735L101.634,247.512z"/>
<g>
	<path style="fill:#76B25D;" d="M152.408,196.737l73.331,69.83l-43.178,50.169l-80.927-69.224c0,0,33.411-72.6,6.813-99.199   l14.474-14.474C149.519,160.437,152.408,196.737,152.408,196.737z"/>
	<polygon style="fill:#76B25D;" points="245.733,243.337 229.323,269.973 225.739,266.567  "/>
</g>
<path style="fill:#F2B54D;" d="M482.993,145.927c2.726,2.726,5.379,5.483,7.965,8.26c22.091,51.026,26.791,107.785,14.082,161.248  c-6.997,29.443-19.269,57.882-36.824,83.816c-1.027,1.53-2.084,3.045-3.155,4.559c-0.17,0.243-0.347,0.481-0.517,0.724  c-9.258,0.14-18.878-0.643-28.726-2.35c-14.503-2.505-29.503-6.982-44.576-13.336c-30.773-12.952-61.85-33.729-89.645-61.525  c-27.795-27.795-48.565-58.879-61.518-89.638c-6.361-15.065-10.839-30.064-13.336-44.576c-1.987-11.459-2.735-22.61-2.202-33.234  c0.258-5.18,0.813-10.225,1.684-15.132c1.485-8.416,3.886-16.388,7.225-23.806c1.766-3.953,3.813-7.743,6.118-11.363  c3.265-5.128,7.071-9.893,11.43-14.252c22.594-22.594,56.138-30.382,93.296-24.966l0.007-0.007  C389.535,76.94,440.154,103.088,482.993,145.927z"/>
<g>
	<path style="fill:#E59F32;" d="M354.118,117.25c0,0-32.606-24.109-9.819-46.895c-37.157-5.416-70.701,2.372-93.296,24.966   c-4.359,4.359-8.165,9.125-11.43,14.252c-6.642,10.41-11.06,22.276-13.343,35.169L354.118,117.25z"/>
	<path style="fill:#E59F32;" d="M446.057,182.862c28.948,28.948,51.084,60.645,65.293,91.257   c-0.968,13.898-3.074,27.707-6.31,41.316c-5.298,22.307-13.632,44.028-24.995,64.525c-3.628,6.568-7.581,13.004-11.829,19.291   c-1.027,1.53-2.083,3.045-3.155,4.559c-0.17,0.243-0.347,0.481-0.517,0.724c-9.258,0.14-18.878-0.643-28.726-2.35   c-14.503-2.505-29.503-6.982-44.576-13.336c-30.773-12.952-61.85-33.729-89.645-61.525c-27.795-27.795-48.572-58.872-61.525-89.645   c-6.354-15.073-10.831-30.071-13.336-44.576c-2.866-16.639-3.155-32.621-0.695-47.302c2.232-13.3,6.701-25.543,13.528-36.226   C286.914,81.632,374.802,111.607,446.057,182.862z"/>
</g>
<path style="fill:#F2B54D;" d="M429.802,199.117c36.957,36.957,62.81,78.385,75.238,116.319  c-6.997,29.443-19.269,57.882-36.824,83.816c-1.027,1.53-2.084,3.045-3.155,4.559c-0.17,0.243-0.347,0.481-0.517,0.724  c-7.256,10.167-15.339,19.919-24.272,29.178c-1.064,1.109-2.158,2.216-3.251,3.31l-0.871,0.871  c-9.989-0.236-20.592-1.751-31.586-4.47c-41.428-10.248-88.485-37.726-129.914-79.153c-41.428-41.428-68.899-88.478-79.153-129.914  c-3.096-12.524-4.625-24.53-4.477-35.717c0.06-4.64,0.399-9.132,1.034-13.463c0.746-5.105,1.899-9.982,3.466-14.577  c1.196-3.561,2.659-6.96,4.367-10.189c2.926-5.541,6.598-10.573,11.038-15.013c6.369-6.369,13.957-11.164,22.528-14.459  c7.521-2.882,15.797-4.595,24.641-5.209C306.945,112.345,373.56,142.875,429.802,199.117z"/>
<g>
	<path style="fill:#E59F32;" d="M390.835,238.085c47.752,47.752,79.56,100.366,89.21,141.876   c-3.628,6.568-7.581,13.004-11.829,19.291c-1.027,1.53-2.083,3.045-3.155,4.559c-0.17,0.243-0.347,0.481-0.517,0.724   c-7.256,10.167-15.339,19.919-24.272,29.178l-0.007,0.007c-1.064,1.108-2.15,2.209-3.243,3.303l-0.871,0.871   c-1.426-0.037-2.875-0.096-4.33-0.192c-0.015,0-0.037-0.007-0.06,0c-8.689-0.517-17.799-1.944-27.197-4.278   c-41.428-10.248-88.485-37.726-129.914-79.153c-41.428-41.428-68.906-88.485-79.153-129.914   c-2.334-9.398-3.761-18.508-4.278-27.198c0.007-0.022,0-0.044,0-0.06c-0.178-2.867-0.243-5.697-0.207-8.467   c0.178-14.305,3.073-27.249,8.873-38.221c7.47-3.318,16.299-4.817,26.156-4.61C269.721,146.702,333.758,181.008,390.835,238.085z"/>
	<path style="fill:#E59F32;" d="M277.874,158.427c0,0-39.559-22.92-19.779-42.699c-18.929,1.301-35.199,7.699-47.169,19.668   c-4.441,4.441-8.113,9.472-11.038,15.013c-3.923,7.411-6.509,15.73-7.832,24.766L277.874,158.427z"/>
</g>
<path style="fill:#F2B54D;" d="M329.709,299.211c27.795,27.795,48.572,58.872,61.532,89.638  c6.354,15.073,10.824,30.079,13.321,44.576c1.744,10.093,2.541,19.949,2.327,29.414c-1.02,0.753-2.054,1.492-3.089,2.231  c-0.436,0.303-0.864,0.613-1.308,0.909c-25.187,17.621-52.835,30.182-81.533,37.674c-51.89,13.573-107.201,10.588-157.583-8.926  c-5.105-4.485-10.138-9.191-15.065-14.12c-42.839-42.839-68.988-93.458-75.578-138.691l0.007-0.007  c-5.416-37.157,2.372-70.701,24.966-93.296c4.359-4.359,9.125-8.165,14.252-11.43c3.621-2.305,7.41-4.352,11.363-6.118  c7.419-3.34,15.39-5.741,23.806-7.225c4.906-0.871,9.953-1.426,15.132-1.684c10.625-0.532,21.774,0.214,33.234,2.202  c14.511,2.497,29.51,6.975,44.583,13.329C270.837,250.637,301.913,271.414,329.709,299.211z"/>
<g>
	<path style="fill:#E59F32;" d="M119.637,351.729c0,0-24.109-32.606-46.895-9.819c-5.416-37.157,2.372-70.701,24.966-93.296   c4.359-4.359,9.125-8.165,14.252-11.43c10.41-6.642,22.276-11.06,35.169-13.343L119.637,351.729z"/>
	<path style="fill:#E59F32;" d="M329.709,299.211c27.795,27.795,48.572,58.872,61.532,89.638   c5.866,13.935,10.13,27.788,12.715,41.251c0.222,1.109,0.421,2.209,0.606,3.325c1.751,10.085,2.534,19.942,2.334,29.407   l-0.007,0.007c-1.02,0.753-2.054,1.492-3.089,2.231c-0.436,0.303-0.864,0.613-1.308,0.909c-6.14,4.292-12.427,8.29-18.841,11.984   c-19.89,11.467-40.992,20.023-62.692,25.69c-13.278,3.481-26.776,5.866-40.378,7.16c-31.859-14.097-65.093-36.899-95.335-67.14   c-71.255-71.255-101.231-159.143-73.287-206.488c10.684-6.827,22.927-11.297,36.226-13.528c4.574-0.761,9.272-1.263,14.076-1.499   c10.625-0.532,21.774,0.214,33.234,2.202c1.116,0.185,2.216,0.383,3.325,0.606c13.463,2.586,27.316,6.849,41.251,12.715   C270.837,250.637,301.913,271.414,329.709,299.211z"/>
</g>
<path style="fill:#F2B54D;" d="M356.655,272.264c41.436,41.436,68.906,88.485,79.161,129.92c2.704,10.98,4.211,21.559,4.455,31.527  c-1.064,1.109-2.158,2.216-3.251,3.31l-0.871,0.871c-9.258,9.169-19.048,17.481-29.258,24.944c-1.02,0.753-2.054,1.492-3.089,2.231  c-0.436,0.303-0.864,0.613-1.308,0.909c-25.187,17.621-52.836,30.182-81.533,37.674c-38.775-11.999-81.481-38.258-119.458-76.235  c-56.242-56.242-86.772-122.858-83.387-171.711c0.621-8.851,2.328-17.119,5.209-24.641c3.296-8.57,8.091-16.158,14.459-22.528  c4.441-4.441,9.472-8.113,15.013-11.038c3.229-1.706,6.635-3.162,10.196-4.374c4.603-1.559,9.465-2.712,14.57-3.459  c4.33-0.635,8.822-0.975,13.455-1.027c11.187-0.147,23.2,1.374,35.724,4.47C268.177,203.366,315.227,230.836,356.655,272.264z"/>
<g>
	<path style="fill:#E59F32;" d="M356.655,272.264c41.436,41.436,68.906,88.485,79.161,129.92c2.704,10.98,4.211,21.559,4.455,31.527   l-0.007,0.007c-1.064,1.108-2.15,2.209-3.243,3.303l-1.278,1.278c-9.14,9.007-18.789,17.178-28.845,24.53l-0.007,0.007   c-1.02,0.753-2.054,1.492-3.089,2.231c-0.436,0.303-0.864,0.613-1.308,0.909c-6.14,4.292-12.427,8.29-18.841,11.984   c-41.694-9.272-94.928-41.258-143.183-89.513c-57.077-57.077-91.382-121.114-92.284-164.795c-0.2-9.864,1.293-18.686,4.61-26.156   c3.229-1.706,6.635-3.162,10.189-4.367c8.267-2.815,17.378-4.285,27.124-4.485c0.303-0.007,0.606-0.015,0.902-0.015   c11.186-0.148,23.193,1.381,35.723,4.47C268.169,203.358,315.22,230.829,356.655,272.264z"/>
	<path style="fill:#E59F32;" d="M160.814,275.486c0,0-22.92-39.559-42.699-19.779c1.301-18.929,7.699-35.199,19.668-47.169   c4.441-4.441,9.472-8.113,15.013-11.038c7.411-3.923,15.73-6.509,24.766-7.832L160.814,275.486z"/>
</g>
<path style="fill:#F2B54D;" d="M377.713,251.207c50.153,50.153,82.723,105.671,90.502,148.045c-1.027,1.53-2.083,3.045-3.155,4.559  c-0.17,0.243-0.347,0.481-0.517,0.724c-7.256,10.167-15.339,19.919-24.272,29.178c-1.064,1.109-2.158,2.216-3.251,3.31l-0.871,0.871  c-9.258,9.169-19.048,17.481-29.258,24.944c-1.02,0.753-2.054,1.492-3.089,2.231c-0.436,0.303-0.864,0.613-1.308,0.909  c-42.477-7.485-98.415-40.164-148.902-90.651c-52.2-52.2-85.353-110.223-91.33-153.172c-1.492-10.728-1.285-20.51,0.731-29.029  c1.987-8.372,5.733-15.531,11.363-21.161c5.63-5.63,12.782-9.369,21.161-11.363c8.519-2.017,18.301-2.224,29.022-0.724  C267.497,165.847,325.512,199.007,377.713,251.207z"/>
<path style="fill:#E59F32;" d="M192.296,161.487c-2.416,7.928-3.103,17.082-2.187,27.16c0.251,2.748,0.621,5.571,1.109,8.452  c0,0.015,0.007,0.038,0,0.06c1.486,8.741,4.042,18.065,7.603,27.803c13.824,37.674,42.802,81.548,83.195,121.941  s84.266,69.371,121.941,83.195c9.738,3.561,19.062,6.118,27.803,7.603c0.022-0.007,0.045,0,0.06,0  c1.323,0.229,2.631,0.428,3.924,0.599c-9.14,9.007-18.789,17.178-28.845,24.53l-0.007,0.007c-1.02,0.753-2.054,1.492-3.089,2.231  c-0.436,0.303-0.864,0.613-1.308,0.909c-42.477-7.485-98.415-40.164-148.902-90.65c-52.2-52.2-85.353-110.223-91.33-153.172  c-1.485-10.721-1.286-20.496,0.724-29.022c1.995-8.379,5.741-15.539,11.371-21.169C179.248,167.072,185.299,163.607,192.296,161.487  z"/>
<g>
</g>
<g>
</g>
<g>
</g>
<g>
</g>
<g>
</g>
<g>
</g>
<g>
</g>
<g>
</g>
<g>
</g>
<g>
</g>
<g>
</g>
<g>
</g>
<g>
</g>
<g>
</g>
<g>
</g>
</svg>
