<?xml version="1.0" encoding="iso-8859-1"?>
<!-- Generator: Adobe Illustrator 19.0.0, SVG Export Plug-In . SVG Version: 6.00 Build 0)  -->
<svg xmlns="http://www.w3.org/2000/svg" xmlns:xlink="http://www.w3.org/1999/xlink" version="1.1" id="Capa_1" x="0px" y="0px" viewBox="0 0 512 512" style="enable-background:new 0 0 512 512;" xml:space="preserve">
<path style="fill:#665F60;" d="M512,256c0,95.201-51.963,178.249-129.066,222.354c-6.008,3.448-12.173,6.646-18.474,9.603  C331.525,503.38,294.776,512,256,512c-8.098,0-16.112-0.376-24.012-1.108c-11.086-1.034-21.974-2.779-32.601-5.183  c-3.135-0.711-6.238-1.473-9.331-2.299c-11.191-2.957-22.079-6.677-32.611-11.065c-3.344-1.39-6.646-2.853-9.916-4.389  c-6.301-2.957-12.466-6.154-18.474-9.603C51.963,434.249,0,351.19,0,256C0,114.615,114.615,0,256,0S512,114.615,512,256z"/>
<path style="fill:#F9EF4A;" d="M399.559,278.538l-0.042,0.637l-1.693,20.24l-0.512,6.228l-14.378,172.711  c-6.008,3.448-12.173,6.646-18.474,9.603C331.525,503.38,294.776,512,256,512c-8.098,0-16.112-0.376-24.012-1.108  c-11.086-1.034-21.974-2.779-32.601-5.183c-3.135-0.711-6.238-1.473-9.331-2.299c-11.191-2.957-22.079-6.677-32.611-11.065  c-3.344-1.39-6.646-2.853-9.916-4.389c-6.301-2.957-12.466-6.154-18.474-9.603l-16.583-199.178l-0.042-0.637H399.559z"/>
<g>
	<polygon style="fill:#DBCF48;" points="399.563,278.536 399.515,279.172 397.823,299.417 143.262,299.417 143.262,278.536  "/>
	<path style="fill:#DBCF48;" d="M190.056,503.411c-11.191-2.957-22.079-6.677-32.611-11.065c-3.344-1.39-6.646-2.853-9.916-4.389   c-6.301-2.957-12.466-6.154-18.474-9.603l-16.583-199.178l-0.042-0.637h68.911l0.021,0.637l4.315,111.146L190.056,503.411z"/>
</g>
<path style="fill:#F2EEED;" d="M398.926,214.169H113.062c0-78.941,63.997-142.938,142.938-142.938  c73.232,0,133.607,55.086,141.931,126.087C398.591,202.847,398.926,208.472,398.926,214.169z"/>
<g>
	<path style="fill:#E6E2E0;" d="M278.008,72.922c-7.175-1.11-14.526-1.688-22.013-1.688c-78.938,0-142.93,63.992-142.93,142.93   h44.026C157.09,142.713,209.521,83.51,278.008,72.922z"/>
	<path style="fill:#E6E2E0;" d="M398.926,213.124H133.668v-15.806h264.264C398.591,201.802,398.926,207.427,398.926,213.124z"/>
</g>
<rect x="239.407" style="fill:#F9395E;" width="33.18" height="187.225"/>
<rect x="239.407" style="fill:#D92F52;" width="14.193" height="187.225"/>
<path style="fill:#F96FBE;" d="M272.588,71.457v152.065h-33.174V71.457c4.654-0.732,9.391-1.14,14.189-1.236  c0.792-0.024,1.596-0.036,2.399-0.036C261.613,70.186,267.154,70.605,272.588,71.457z"/>
<path style="fill:#E55CAC;" d="M253.602,70.221v153.3h-14.189V71.457C244.067,70.725,248.805,70.317,253.602,70.221z"/>
<polygon style="fill:#F2EEED;" points="417.434,280.218 94.564,280.218 98.278,214.163 413.706,214.163 "/>
<rect x="239.407" y="213.117" style="fill:#FC8CCC;" width="33.18" height="66.058"/>
<rect x="239.407" y="213.117" style="fill:#F96FBE;" width="14.193" height="66.058"/>
<polygon style="fill:#E6E2E0;" points="98.279,214.164 94.56,280.217 151.988,280.217 155.707,214.164 "/>
<path style="fill:#DBCF48;" d="M231.988,510.892c-11.086-1.034-21.974-2.779-32.601-5.183c-3.135-0.711-6.238-1.473-9.331-2.299  c-11.191-2.957-22.079-6.677-32.611-11.065l27.909-110.09c0,0-0.031,2.926,0.324,8.067  C187.026,410.53,194.215,464.938,231.988,510.892z"/>
<ellipse transform="matrix(-0.7071 -0.7071 0.7071 -0.7071 474.5997 481.1831)" style="fill:#FFFFFF;" cx="336.956" cy="142.299" rx="25.182" ry="16.191"/>
<g>
</g>
<g>
</g>
<g>
</g>
<g>
</g>
<g>
</g>
<g>
</g>
<g>
</g>
<g>
</g>
<g>
</g>
<g>
</g>
<g>
</g>
<g>
</g>
<g>
</g>
<g>
</g>
<g>
</g>
</svg>
