<?xml version="1.0" encoding="iso-8859-1"?>
<!-- Generator: Adobe Illustrator 19.0.0, SVG Export Plug-In . SVG Version: 6.00 Build 0)  -->
<svg xmlns="http://www.w3.org/2000/svg" xmlns:xlink="http://www.w3.org/1999/xlink" version="1.1" id="Capa_1" x="0px" y="0px" viewBox="0 0 512 512" style="enable-background:new 0 0 512 512;" xml:space="preserve">
<path style="fill:#F9395E;" d="M512,256c0,36.039-7.45,70.343-20.898,101.449c0,0.01,0,0.01-0.01,0.021  c-1.16,2.696-2.361,5.36-3.626,8.004c-0.428,0.93-0.878,1.849-1.327,2.769c-2.466,5.047-5.089,10-7.868,14.858  c-2.759,4.807-5.663,9.509-8.714,14.106c-0.355,0.543-0.721,1.087-1.097,1.63c-3.72,5.548-7.68,10.951-11.828,16.175  c-2.675,3.375-5.434,6.687-8.286,9.916c-1.923,2.194-3.897,4.357-5.904,6.489c-5.434,5.778-11.139,11.306-17.095,16.562  c-1.452,1.285-2.926,2.56-4.409,3.803c-5.339,4.514-10.867,8.798-16.572,12.863c-4.995,3.563-10.115,6.938-15.37,10.125  c-1.933,1.191-3.887,2.341-5.851,3.469c-1.87,1.076-3.751,2.121-5.653,3.145c-18.589,10.041-38.557,17.857-59.559,23.061  c-6.123,1.526-12.33,2.832-18.62,3.897C285.236,510.746,270.764,512,256,512c-14.764,0-29.236-1.254-43.321-3.657  c-6.28-1.066-12.487-2.372-18.599-3.897c-21.002-5.214-40.97-13.019-59.559-23.061c-1.902-1.024-3.793-2.079-5.663-3.145  c-1.964-1.128-3.918-2.288-5.851-3.469c-5.245-3.187-10.376-6.572-15.37-10.125c-5.705-4.065-11.233-8.359-16.572-12.863  c-1.484-1.254-2.957-2.518-4.409-3.803c-5.956-5.256-11.661-10.783-17.095-16.562c-2.006-2.132-3.981-4.295-5.904-6.489  c-2.853-3.239-5.622-6.541-8.286-9.927c-4.159-5.224-8.098-10.616-11.828-16.165c-0.376-0.543-0.742-1.087-1.097-1.63  c-3.051-4.598-5.956-9.31-8.704-14.117c-2.79-4.848-5.413-9.801-7.879-14.848c-0.449-0.92-0.888-1.829-1.317-2.759  c-1.264-2.644-2.476-5.319-3.636-8.025l-0.01-0.01C7.45,326.343,0,292.039,0,256C0,114.615,114.615,0,256,0S512,114.615,512,256z"/>
<g>
	<path style="fill:#E59F32;" d="M491.102,173.004v184.445c0,0.01,0,0.01-0.01,0.021c-1.16,2.696-2.361,5.36-3.626,8.004   c-0.428,0.93-0.878,1.849-1.327,2.769c-2.466,5.047-5.089,10-7.868,14.858c-2.759,4.807-5.663,9.509-8.714,14.106   c-0.355,0.543-0.721,1.087-1.097,1.63c-3.72,5.548-7.68,10.951-11.828,16.175c-2.675,3.375-5.434,6.687-8.286,9.916   c-1.923,2.194-3.897,4.357-5.904,6.489c-5.434,5.778-11.139,11.306-17.095,16.562c-1.452,1.285-2.926,2.56-4.409,3.803   c-5.339,4.514-10.867,8.798-16.572,12.863c-4.995,3.563-10.115,6.938-15.37,10.125c-13.908,1.327-28.902,2.445-44.753,3.323   c-27.251,1.526-57.031,2.361-88.242,2.361s-60.991-0.836-88.242-2.361c-15.851-0.878-30.845-1.996-44.753-3.323   c-5.245-3.187-10.376-6.572-15.37-10.125c-5.705-4.065-11.233-8.359-16.572-12.863c-1.484-1.254-2.957-2.518-4.409-3.803   c-5.956-5.256-11.661-10.783-17.095-16.562c-2.006-2.132-3.981-4.294-5.904-6.489c-2.853-3.239-5.622-6.541-8.286-9.927   c-4.159-5.224-8.098-10.616-11.828-16.165c-0.376-0.543-0.742-1.087-1.097-1.63c-3.051-4.598-5.956-9.31-8.704-14.117   c-2.79-4.848-5.413-9.801-7.879-14.848c-0.449-0.92-0.888-1.829-1.317-2.759c-1.264-2.644-2.476-5.319-3.636-8.025l-0.01-0.01   V173.004H491.102z"/>
	<path style="fill:#E59F32;" d="M377.49,481.384c-18.589,10.041-38.557,17.857-59.559,23.061c-6.123,1.526-12.33,2.832-18.62,3.897   C285.236,510.746,270.764,512,256,512c-14.764,0-29.236-1.254-43.321-3.657c-6.28-1.066-12.487-2.372-18.599-3.897   c-21.002-5.214-40.97-13.019-59.559-23.061c3.574-0.428,7.22-0.836,10.919-1.223c7.22-0.763,14.67-1.452,22.319-2.069   c27.251-2.173,57.031-3.375,88.242-3.375s60.991,1.202,88.242,3.375c7.649,0.616,15.099,1.306,22.319,2.069   C370.26,480.549,373.906,480.956,377.49,481.384z"/>
</g>
<path style="fill:#F2B54D;" d="M404.365,464.645c-4.995,3.563-10.115,6.938-15.37,10.125c-1.933,1.191-3.887,2.341-5.851,3.469  c-1.87,1.076-3.751,2.121-5.653,3.145c-18.589,10.041-38.557,17.857-59.559,23.061c-6.123,1.526-12.33,2.832-18.62,3.897  C285.236,510.746,270.764,512,256,512c-14.764,0-29.236-1.254-43.321-3.657c-6.28-1.066-12.487-2.372-18.599-3.897  c-21.002-5.214-40.97-13.019-59.559-23.061c-1.902-1.024-3.793-2.079-5.663-3.145c-1.964-1.128-3.918-2.288-5.851-3.469  c-5.245-3.187-10.376-6.572-15.37-10.125c11.713-1.881,24.367-3.553,37.804-4.963c32.956-3.48,70.593-5.444,110.561-5.444  s77.605,1.964,110.561,5.444C379.998,461.093,392.652,462.764,404.365,464.645z"/>
<path style="fill:#E59F32;" d="M425.347,447.979c-1.452,1.285-2.926,2.56-4.409,3.803c-5.339,4.514-10.867,8.798-16.572,12.863  c-4.995,3.563-10.115,6.938-15.37,10.125c-1.933,1.191-3.887,2.341-5.851,3.469c-1.87,1.076-3.751,2.121-5.653,3.145  c-18.589,10.041-38.557,17.857-59.559,23.061c-6.123,1.526-12.33,2.832-18.62,3.897C285.236,510.746,270.764,512,256,512  c-14.764,0-29.236-1.254-43.321-3.657c-6.28-1.066-12.487-2.372-18.599-3.897c-21.002-5.214-40.97-13.019-59.559-23.061  c-1.902-1.024-3.793-2.079-5.663-3.145c-1.964-1.128-3.918-2.288-5.851-3.469c-5.245-3.187-10.376-6.572-15.37-10.125  c-5.705-4.065-11.233-8.359-16.572-12.863c-1.484-1.254-2.957-2.518-4.409-3.803c17.074-3.5,36.895-6.478,58.786-8.777  c32.956-3.479,70.593-5.444,110.561-5.444s77.605,1.964,110.561,5.444C388.451,441.501,408.273,444.479,425.347,447.979z"/>
<path style="fill:#F2B54D;" d="M442.441,431.417c-5.434,5.778-11.139,11.306-17.095,16.562c-1.452,1.285-2.926,2.56-4.409,3.803  c-5.339,4.514-10.867,8.798-16.572,12.863c-4.995,3.563-10.115,6.938-15.37,10.125c-1.933,1.191-3.887,2.341-5.851,3.469  c-1.87,1.076-3.751,2.121-5.653,3.145c-18.589,10.041-38.557,17.857-59.559,23.061c-19.728,1.066-40.5,1.63-61.931,1.63  s-42.193-0.564-61.921-1.63c-21.002-5.214-40.97-13.019-59.559-23.061c-1.902-1.024-3.793-2.079-5.663-3.145  c-1.964-1.128-3.918-2.288-5.851-3.469c-5.245-3.187-10.376-6.572-15.37-10.125c-5.705-4.065-11.233-8.359-16.572-12.863  c-1.484-1.254-2.957-2.518-4.409-3.803c-5.956-5.256-11.661-10.783-17.095-16.562c3.271-0.846,6.698-1.661,10.25-2.456  c18.526-4.127,40.73-7.607,65.599-10.23c32.967-3.48,70.614-5.444,110.592-5.444s77.625,1.964,110.592,5.444  c24.869,2.623,47.073,6.102,65.599,10.23C435.743,429.756,439.171,430.571,442.441,431.417z"/>
<path style="fill:#E59F32;" d="M456.631,415.013c-2.675,3.375-5.434,6.687-8.286,9.916c-1.923,2.194-3.897,4.357-5.904,6.489  c-5.434,5.778-11.139,11.306-17.095,16.562c-1.452,1.285-2.926,2.56-4.409,3.803c-5.339,4.514-10.867,8.798-16.572,12.863  c-4.995,3.563-10.115,6.938-15.37,10.125c-1.933,1.191-3.887,2.341-5.851,3.469c-5.381,0.69-10.909,1.327-16.583,1.923  c-32.956,3.479-70.593,5.444-110.561,5.444s-77.605-1.964-110.561-5.444c-5.674-0.596-11.201-1.233-16.583-1.923  c-1.964-1.128-3.918-2.288-5.851-3.469c-5.245-3.187-10.376-6.572-15.37-10.125c-5.705-4.065-11.233-8.359-16.572-12.863  c-1.484-1.254-2.957-2.518-4.409-3.803c-5.956-5.256-11.661-10.783-17.095-16.562c-2.006-2.132-3.981-4.295-5.904-6.489  c-2.853-3.239-5.622-6.541-8.286-9.927c7.178-2.309,15.36-4.493,24.419-6.51c18.526-4.138,40.72-7.617,65.588-10.24  c32.977-3.469,70.635-5.444,110.623-5.444s77.646,1.975,110.623,5.444c24.869,2.623,47.062,6.102,65.588,10.24  C441.271,410.509,449.452,412.693,456.631,415.013z"/>
<path style="fill:#F2B54D;" d="M468.459,398.838c-3.72,5.548-7.68,10.951-11.828,16.175c-2.675,3.375-5.434,6.687-8.286,9.916  c-1.923,2.194-3.897,4.357-5.904,6.489c-5.434,5.778-11.139,11.306-17.095,16.562c-1.452,1.285-2.926,2.56-4.409,3.803  c-16.039,3.124-34.346,5.789-54.376,7.899c-32.956,3.479-70.593,5.444-110.561,5.444s-77.605-1.964-110.561-5.444  c-20.031-2.111-38.337-4.775-54.376-7.899c-1.484-1.254-2.957-2.518-4.409-3.803c-5.956-5.256-11.661-10.783-17.095-16.562  c-2.006-2.132-3.981-4.294-5.904-6.489c-2.853-3.239-5.622-6.541-8.286-9.927c-4.159-5.224-8.098-10.616-11.828-16.165  c0.47-0.199,0.94-0.387,1.421-0.585c9.289-3.72,21.044-7.158,34.826-10.23c18.536-4.148,40.72-7.628,65.599-10.25  c0.01,0,0.01,0,0.021,0c32.967-3.479,70.614-5.444,110.592-5.444s77.625,1.964,110.592,5.444c0.01,0,0.01,0,0.021,0  c24.879,2.623,47.062,6.102,65.599,10.25c13.782,3.072,25.537,6.51,34.826,10.23C467.519,398.451,467.989,398.639,468.459,398.838z"/>
<path style="fill:#E59F32;" d="M478.271,383.101c-2.759,4.807-5.663,9.509-8.714,14.106c-0.355,0.543-0.721,1.087-1.097,1.63  c-3.72,5.548-7.68,10.951-11.828,16.175c-2.675,3.375-5.434,6.687-8.286,9.916c-5.005,1.411-10.407,2.759-16.154,4.033  c-18.536,4.148-40.751,7.617-65.63,10.24c-32.956,3.479-70.593,5.444-110.561,5.444s-77.605-1.964-110.561-5.444  c-24.879-2.623-47.094-6.092-65.63-10.24c-5.747-1.275-11.149-2.623-16.154-4.033c-2.853-3.239-5.622-6.541-8.286-9.927  c-4.159-5.224-8.098-10.616-11.828-16.165c-0.376-0.543-0.742-1.087-1.097-1.63c-3.051-4.598-5.956-9.31-8.704-14.117  c3.197-1.829,6.959-3.605,11.243-5.308c9.289-3.73,21.044-7.168,34.826-10.24c18.536-4.148,40.761-7.628,65.651-10.24h0.01  c32.956-3.479,70.572-5.444,110.529-5.444s77.573,1.964,110.529,5.444h0.01c24.889,2.612,47.114,6.092,65.651,10.24  c13.782,3.072,25.537,6.51,34.826,10.24C471.301,379.496,475.073,381.273,478.271,383.101z"/>
<path style="fill:#F2B54D;" d="M486.139,368.243c-2.466,5.047-5.089,10-7.868,14.858c-2.759,4.807-5.663,9.509-8.714,14.106  c-0.815,0.355-1.661,0.7-2.518,1.045c-9.289,3.72-21.044,7.158-34.826,10.24c-18.536,4.138-40.741,7.617-65.62,10.24  c-32.967,3.479-70.614,5.444-110.592,5.444s-77.625-1.964-110.592-5.444c-24.879-2.623-47.083-6.102-65.62-10.24  c-13.782-3.082-25.537-6.52-34.826-10.24c-0.857-0.345-1.703-0.69-2.518-1.045c-3.051-4.598-5.956-9.31-8.704-14.117  c-2.79-4.848-5.413-9.801-7.879-14.848c0.24-0.23,0.502-0.46,0.773-0.7c4.096-3.594,10.303-7.022,18.348-10.24  c9.289-3.73,21.044-7.168,34.826-10.24c43.081-9.624,106.047-15.684,176.191-15.684s133.11,6.06,176.191,15.684  c13.782,3.072,25.537,6.51,34.826,10.24c8.046,3.218,14.252,6.646,18.348,10.24C485.637,367.783,485.898,368.013,486.139,368.243z"/>
<path style="fill:#E59F32;" d="M491.102,357.303v0.146c0,0.01,0,0.01-0.01,0.021c-1.16,2.696-2.361,5.36-3.626,8.004  c-0.616,0.69-1.317,1.379-2.1,2.069c-4.096,3.584-10.303,7.011-18.348,10.24c-9.289,3.72-21.034,7.158-34.806,10.24  c-18.526,4.127-40.72,7.607-65.588,10.23c-32.977,3.469-70.635,5.444-110.623,5.444s-77.646-1.975-110.623-5.444  c-24.869-2.623-47.062-6.102-65.588-10.23c-13.772-3.082-25.516-6.52-34.806-10.24c-8.046-3.229-14.252-6.656-18.348-10.24  c-0.773-0.69-1.473-1.369-2.09-2.058c-1.264-2.644-2.476-5.319-3.636-8.025l-0.01-0.01v-0.146c0-3.521,1.985-6.949,5.747-10.24  c4.096-3.594,10.292-7.022,18.338-10.24C83.32,321.463,163.412,310.899,256,310.899s172.68,10.564,211.017,25.924  c8.046,3.218,14.242,6.646,18.338,10.24C489.117,350.354,491.102,353.782,491.102,357.303z"/>
<ellipse style="fill:#F2B54D;" cx="256" cy="336.823" rx="235.102" ry="46.393"/>
<ellipse style="fill:#E59F32;" cx="256" cy="316.343" rx="235.102" ry="46.393"/>
<ellipse style="fill:#F2B54D;" cx="256" cy="295.863" rx="235.102" ry="46.393"/>
<ellipse style="fill:#E59F32;" cx="256" cy="275.393" rx="235.102" ry="46.393"/>
<ellipse style="fill:#F2B54D;" cx="256" cy="254.913" rx="235.102" ry="46.393"/>
<ellipse style="fill:#E59F32;" cx="256" cy="234.444" rx="235.102" ry="46.393"/>
<ellipse style="fill:#F2B54D;" cx="256" cy="213.964" rx="235.102" ry="46.393"/>
<ellipse style="fill:#E59F32;" cx="256" cy="193.484" rx="235.102" ry="46.393"/>
<ellipse style="fill:#F2B54D;" cx="256" cy="173.004" rx="235.102" ry="46.393"/>
<path style="fill:#F9EF4A;" d="M396.549,173.025c0,6.792-22.225,11.807-34.137,17.23c-11.901,5.423-17.962,13.427-38.191,16.509  c-11.274,1.724-24.91,1.39-39.006,0.815c-9.728-0.387-19.675-0.878-29.215-0.878c-18.286,0-38.066,1.829-54.93,1.212  c-4.692-0.157-9.153-0.512-13.291-1.149c-20.229-3.082-26.29-11.086-38.191-16.509c-11.912-5.423-34.137-10.439-34.137-17.23  c0-6.781,22.225-11.807,34.137-17.23c11.901-5.423,17.962-13.427,38.191-16.509c8.411-1.285,18.139-1.421,28.4-1.17  c12.967,0.303,26.781,1.233,39.821,1.233c6.823,0,13.855-0.251,20.877-0.543h0.01c16.99-0.69,33.855-1.578,47.334,0.481  c20.229,3.082,26.29,11.086,38.191,16.509C374.324,161.217,396.549,166.243,396.549,173.025z"/>
<path style="fill:#DBCF48;" d="M201.07,207.914c-4.692-0.157-9.153-0.512-13.291-1.149c-20.229-3.082-26.29-11.086-38.191-16.509  c-11.912-5.423-34.137-10.439-34.137-17.23c0-6.781,22.225-11.807,34.137-17.23c11.901-5.423,17.962-13.427,38.191-16.509  c8.411-1.285,18.139-1.421,28.4-1.17c0,0-62.746,14.921-64.669,33.531C150.162,184.665,181.885,199.92,201.07,207.914z"/>
<path style="fill:#FCED6E;" d="M396.549,173.025c0,6.792-22.225,11.807-34.137,17.23c-11.901,5.423-17.962,13.427-38.191,16.509  c-11.274,1.724-24.91,1.39-39.006,0.815c-0.282-0.251-10.021-9.153,13.991-13.97c24.367-4.901,38.954-38.536-22.319-54.805  c16.99-0.69,33.855-1.578,47.334,0.481c20.229,3.082,26.29,11.086,38.191,16.509C374.324,161.217,396.549,166.243,396.549,173.025z"/>
<g>
</g>
<g>
</g>
<g>
</g>
<g>
</g>
<g>
</g>
<g>
</g>
<g>
</g>
<g>
</g>
<g>
</g>
<g>
</g>
<g>
</g>
<g>
</g>
<g>
</g>
<g>
</g>
<g>
</g>
</svg>
