<?xml version="1.0" encoding="iso-8859-1"?>
<!-- Generator: Adobe Illustrator 19.0.0, SVG Export Plug-In . SVG Version: 6.00 Build 0)  -->
<svg xmlns="http://www.w3.org/2000/svg" xmlns:xlink="http://www.w3.org/1999/xlink" version="1.1" id="Capa_1" x="0px" y="0px" viewBox="0 0 512 512" style="enable-background:new 0 0 512 512;" xml:space="preserve">
<path style="fill:#52C8D3;" d="M508.435,255.492c0,126.362-92.845,231.035-214.034,249.529c-0.165,0.031-0.34,0.062-0.505,0.082  c-12.364,1.855-25.017,2.823-37.896,2.823c-6.687,0-13.312-0.258-19.865-0.773c-0.093-0.01-0.196-0.01-0.288-0.021  c-5.986-0.474-11.901-1.144-17.753-2.03c-0.165-0.022-0.34-0.052-0.505-0.082C96.399,486.526,3.565,381.853,3.565,255.492  c0-52.002,15.723-100.345,42.687-140.508c9.685-14.425,20.813-27.799,33.187-39.905C124.96,30.515,187.266,3.057,256,3.057  s131.04,27.459,176.56,72.021c12.374,12.107,23.502,25.48,33.187,39.905C492.712,155.146,508.435,203.49,508.435,255.492z"/>
<rect x="348.484" y="-4.475" transform="matrix(-0.8742 -0.4856 0.4856 -0.8742 626.2822 344.8412)" style="fill:#F9EF4A;" width="18.66" height="191.524"/>
<path style="fill:#F2EEED;" d="M270.93,299.044v173.562c0,12.004,6.285,23.131,16.589,29.313l6.883,4.132  c-0.165,0.031-0.34,0.062-0.505,0.082c-12.364,1.855-25.017,2.823-37.896,2.823c-6.687,0-13.312-0.258-19.865-0.773  c-6.079-0.474-12.096-1.154-18.041-2.05c-0.165-0.022-0.34-0.052-0.505-0.082l6.883-4.132c10.293-6.182,16.599-17.31,16.599-29.313  V299.044c0-9.489-4.121-18.495-11.303-24.687L46.252,116.014L0,76.108h512l-46.252,39.905L282.233,274.357  C275.041,280.55,270.93,289.555,270.93,299.044z"/>
<polygon style="fill:#FFC64F;" points="377.479,75.079 319.444,179.545 303.137,170.478 356.135,75.079 "/>
<path style="fill:#E6E2E0;" d="M248.818,299.044v173.562c0,12.004-3.019,23.131-7.965,29.313l-5.007,6.244  c-5.986-0.474-11.901-1.144-17.753-2.03c-0.165-0.022-0.34-0.052-0.505-0.082l6.883-4.132c10.293-6.182,16.599-17.31,16.599-29.313  V299.044c0-9.489-4.121-18.495-11.303-24.687L46.252,116.014L0,76.108h132.987l19.01,34.115l62.954,113.091l0.021,0.01  l28.417,51.033C246.851,280.55,248.818,289.555,248.818,299.044z"/>
<path style="fill:#F9395E;" d="M470.128,109.196L288.386,227.928c-19.677,12.848-45.099,12.848-64.777,0l-8.657-5.646  L41.868,109.196H470.128z"/>
<polygon style="fill:#D92F52;" points="214.953,222.281 41.868,109.196 151.993,109.196 "/>
<polygon style="fill:#F9492A;" points="358.524,109.196 319.444,179.545 303.137,170.478 337.18,109.196 "/>
<g>
</g>
<g>
</g>
<g>
</g>
<g>
</g>
<g>
</g>
<g>
</g>
<g>
</g>
<g>
</g>
<g>
</g>
<g>
</g>
<g>
</g>
<g>
</g>
<g>
</g>
<g>
</g>
<g>
</g>
</svg>
