<?xml version="1.0" encoding="iso-8859-1"?>
<!-- Generator: Adobe Illustrator 19.0.0, SVG Export Plug-In . SVG Version: 6.00 Build 0)  -->
<svg xmlns="http://www.w3.org/2000/svg" xmlns:xlink="http://www.w3.org/1999/xlink" version="1.1" id="Capa_1" x="0px" y="0px" viewBox="0 0 512 512" style="enable-background:new 0 0 512 512;" xml:space="preserve">
<path style="fill:#52C8D3;" d="M465.063,403.816c-8.255,11.651-17.607,22.768-28.045,33.207  c-10.439,10.439-21.556,19.79-33.217,28.045c-14.754,10.459-30.375,19.174-46.571,26.143  c-41.775,17.962-87.364,24.283-131.814,18.954c0,0,0,0-0.01,0c-21.828-2.612-43.384-8.025-64.073-16.248  c-31.451-12.487-60.918-31.451-86.35-56.895c-99.976-99.976-99.976-262.06,0-362.035c99.976-99.976,262.06-99.976,362.036,0  c21.504,21.504,38.379,45.871,50.636,71.889c9.561,20.313,16.311,41.629,20.24,63.352  C519.889,276.516,505.605,346.628,465.063,403.816z"/>
<path style="fill:#F2B54D;" d="M507.894,210.227c-3.929-21.723-10.679-43.039-20.24-63.352  c-79.893-62.015-183.108-67.302-242.176-8.234c-18.202,18.202-30.271,40.615-36.488,65.223c0.01,0.01,0,0.021,0,0.021  c-5.319,1.797-10.522,3.406-15.6,4.838c-18.495,6.865-35.37,17.387-49.643,31.66c-61.91,61.9-53.123,172.314,17.586,253.534  c20.689,8.223,42.245,13.636,64.073,16.248c0.01,0,0.01,0,0.01,0c61.68,7.398,125.544-7.638,178.385-45.098  c11.661-8.255,22.779-17.607,33.217-28.045c10.439-10.439,19.79-21.556,28.045-33.207  C505.605,346.628,519.889,276.516,507.894,210.227z"/>
<path style="fill:#E59F32;" d="M357.23,491.211c-41.775,17.962-87.364,24.283-131.814,18.954c0,0,0,0-0.01,0  c-21.828-2.612-43.384-8.025-64.073-16.248c-70.708-81.22-79.496-191.634-17.586-253.534c14.273-14.273,31.148-24.795,49.643-31.66  c5.078-1.432,10.282-3.041,15.6-4.838c0,0-75.337,75.4-5.402,170.757C254.631,444.243,301.056,475.339,357.23,491.211z"/>
<path style="fill:#76B25D;" d="M209.227,218.553c-5.922-1.167-11.87-2-17.816-2.509C25.879,188.554,25.476,67.038,25.476,67.038  C195.589,27.562,209.227,218.553,209.227,218.553z"/>
<path style="fill:#8CC371;" d="M209.227,218.553c-5.922-1.167-11.87-2-17.816-2.509C25.879,188.554,25.476,67.038,25.476,67.038  S163.467,163.496,209.227,218.553z"/>
<g>
</g>
<g>
</g>
<g>
</g>
<g>
</g>
<g>
</g>
<g>
</g>
<g>
</g>
<g>
</g>
<g>
</g>
<g>
</g>
<g>
</g>
<g>
</g>
<g>
</g>
<g>
</g>
<g>
</g>
</svg>
