<?xml version="1.0" encoding="iso-8859-1"?>
<!-- Generator: Adobe Illustrator 19.0.0, SVG Export Plug-In . SVG Version: 6.00 Build 0)  -->
<svg xmlns="http://www.w3.org/2000/svg" xmlns:xlink="http://www.w3.org/1999/xlink" version="1.1" id="Capa_1" x="0px" y="0px" viewBox="0 0 512 512" style="enable-background:new 0 0 512 512;" xml:space="preserve">
<path style="fill:#665F60;" d="M511.479,255.479c0,94.089-50.866,176.291-126.592,220.619c-4.421,2.596-8.937,5.068-13.535,7.393  c-1.585,0.803-3.18,1.595-4.786,2.367c-4.567,2.19-9.208,4.254-13.911,6.184c-29.813,12.19-62.451,18.916-96.654,18.916  c-26.299,0-51.669-3.973-75.549-11.356c-10.177-3.139-20.084-6.903-29.667-11.241c-5.516-2.503-10.928-5.183-16.225-8.061  c-0.699-0.386-1.408-0.772-2.106-1.157c-5.36-2.961-10.605-6.121-15.715-9.468C46.779,424.126,0.521,345.199,0.521,255.479  c0-121.837,85.288-223.758,199.43-249.305c13.4-3.003,27.206-4.953,41.315-5.746C246.146,0.136,251.057,0,256,0  c15.558,0,30.793,1.387,45.579,4.056C420.924,25.548,511.479,129.94,511.479,255.479z"/>
<polygon style="fill:#F7AB29;" points="302.146,0 294.264,57.235 206.979,57.235 199.099,0 "/>
<polygon style="fill:#E0941F;" points="199.099,0 206.98,57.233 249.083,57.233 241.202,0 "/>
<path style="fill:#E6E2E0;" d="M405.815,216.625c-10.313-13.911-26.153-21.888-43.494-21.888h-49.834v-89.105h-1.011  c7.633,0,14.536-3.087,19.542-8.092c5.005-4.995,8.092-11.919,8.092-19.531c0-15.256-12.378-27.623-27.633-27.623H144.403  c-14.359,0-20.835,17.977-9.771,27.133l23.212,19.239c3.483,2.857,7.404,5.078,11.575,6.59c4.161,1.491,8.613,2.284,13.118,2.284  h6.236V362.54c-39.969,20.772-68.187,61.033-72.035,108.177c5.11,3.347,10.355,6.507,15.715,9.468  c0.699,0.386,1.408,0.772,2.106,1.157c5.297,2.878,10.709,5.558,16.225,8.061c9.583,4.338,19.489,8.102,29.667,11.241  C204.331,508.027,229.701,512,256,512c34.203,0,66.842-6.726,96.654-18.916c4.703-1.929,9.343-3.994,13.911-6.184  c1.606-0.772,3.201-1.564,4.786-2.367c4.599-2.325,9.114-4.797,13.535-7.393c-0.772-21.898-6.861-42.535-17.008-60.616  l46.216-151.932C419.152,248.023,416.128,230.546,405.815,216.625z M376.721,253.226L338.129,380.1  c-7.831-6.747-16.413-12.618-25.642-17.446V233.81h49.834c4.818,0,9.229,2.211,12.096,6.069  C377.295,243.758,378.129,248.617,376.721,253.226z"/>
<path style="fill:#8CC371;" d="M366.69,479.799c0.01,2.023-0.021,4.046-0.125,6.059c-4.567,2.19-9.208,4.254-13.911,6.184  c-29.813,12.19-62.451,18.916-96.654,18.916c-26.299,0-51.669-3.973-75.549-11.356c-10.177-3.139-20.084-6.903-29.667-11.241  c-5.516-2.503-10.928-5.183-16.225-8.061c0.177-43.296,24.14-82.577,62.639-102.577l9.844-5.12V86.018h87.165v286.657l9.812,5.13  C342.331,397.869,366.335,436.941,366.69,479.799z"/>
<rect x="207.042" y="85.538" style="fill:#F2EEED;" width="87.165" height="174.747"/>
<path style="fill:#76B25D;" d="M180.451,499.601c-10.177-3.139-20.084-6.903-29.667-11.241c-5.516-2.503-10.928-5.183-16.225-8.061  c0.177-43.296,24.14-82.577,62.639-102.577l9.844-5.12C207.042,372.603,175.081,431.488,180.451,499.601z"/>
<ellipse style="fill:#B7E2A7;" cx="302.925" cy="435.117" rx="19.813" ry="29.198"/>
<g>
</g>
<g>
</g>
<g>
</g>
<g>
</g>
<g>
</g>
<g>
</g>
<g>
</g>
<g>
</g>
<g>
</g>
<g>
</g>
<g>
</g>
<g>
</g>
<g>
</g>
<g>
</g>
<g>
</g>
</svg>
