<?xml version="1.0" encoding="iso-8859-1"?>
<!-- Generator: Adobe Illustrator 19.0.0, SVG Export Plug-In . SVG Version: 6.00 Build 0)  -->
<svg xmlns="http://www.w3.org/2000/svg" xmlns:xlink="http://www.w3.org/1999/xlink" version="1.1" id="Capa_1" x="0px" y="0px" viewBox="0 0 512.001 512.001" style="enable-background:new 0 0 512.001 512.001;" xml:space="preserve">
<path style="fill:#F9395E;" d="M500.225,332.917c-0.94,3.02-1.944,6.019-3.02,8.997c-0.502,1.431-1.024,2.863-1.557,4.294  c-0.502,1.306-1.003,2.612-1.505,3.918c-0.502,1.243-1.003,2.487-1.515,3.73c-0.972,2.341-1.964,4.671-3.02,6.99  c-5.747,12.821-12.601,25.266-20.584,37.188c-0.878,1.317-1.766,2.623-2.675,3.918c-0.428,0.627-0.857,1.243-1.285,1.86  c-0.251,0.345-0.502,0.7-0.752,1.045c-0.721,1.014-1.463,2.027-2.215,3.041c-1.003,1.379-2.038,2.738-3.082,4.096  c-0.554,0.721-1.108,1.432-1.672,2.142c-6.228,7.92-13.009,15.569-20.323,22.883c-7.304,7.304-14.942,14.075-22.873,20.323  c-0.711,0.564-1.432,1.118-2.152,1.672c-1.348,1.045-2.717,2.069-4.086,3.082c-1.003,0.742-2.017,1.484-3.041,2.205  c-0.063,0.052-0.136,0.094-0.199,0.146c-0.293,0.209-0.575,0.408-0.867,0.616c-0.616,0.439-1.223,0.878-1.849,1.285  c-1.296,0.899-2.602,1.797-3.908,2.664c-3.229,2.173-6.499,4.253-9.812,6.248c-8.892,5.371-18.035,10.156-27.387,14.346  c-2.309,1.045-4.639,2.038-6.98,3.009c-1.254,0.512-2.497,1.014-3.751,1.515c-1.296,0.512-2.602,1.014-3.908,1.505  c-1.421,0.533-2.853,1.055-4.284,1.567c-2.988,1.066-5.987,2.069-8.997,3.009c-88.074,27.669-188.144,6.604-257.943-63.195  c-77.26-77.26-94.814-191.603-52.673-285.716c2.779-6.196,5.81-12.298,9.101-18.296c3.751-6.855,7.847-13.563,12.267-20.104  c9.038-13.375,19.466-26.081,31.305-37.919c11.828-11.828,24.534-22.256,37.898-31.295c6.52-4.399,13.197-8.474,20.01-12.215  c5.945-3.271,12.006-6.28,18.139-9.038C245.198-19.86,359.687-2.348,437.02,74.985C506.819,144.784,527.884,244.854,500.225,332.917  z"/>
<path style="fill:#F2B54D;" d="M389.205,242.597h64.366c23.562,0,42.642-19.08,42.642-42.642c0-11.766-4.775-22.434-12.476-30.145  c-7.722-7.711-18.39-12.486-30.156-12.486l-135.45,0.01c-19.425-0.01-38.045,7.69-51.775,21.42c-1.735,1.745-4.169,1.4-5.58-0.01  c-0.93-0.93-1.421-2.299-1.014-3.856c10.982-40.291,0.742-85.138-30.678-116.924c-21.514-21.755-49.497-33.646-78.054-35.526  c-32.099-2.132-64.94,8.391-90.164,31.754c-28.097,26.049-40.949,62.004-38.557,97.113c1.923,28.16,13.646,55.766,35.161,77.28  c31.817,31.807,76.936,42.214,117.436,31.18c3.929-1.066,6.719,3.73,3.845,6.593c-6.855,6.865-12.215,14.952-15.862,23.75  c-3.636,8.798-5.569,18.307-5.569,28.035l0.01,64.71v70.729c-0.01,23.552,19.08,42.642,42.632,42.621  c11.766,0.01,22.423-4.775,30.135-12.476c7.711-7.722,12.486-18.369,12.486-30.145v-13.019l0.01-51.357l0.042,0.042l90.289,110.968  c3.009-0.94,6.008-1.943,8.997-3.009c1.432-0.512,2.863-1.034,4.284-1.567c1.306-0.491,2.612-0.993,3.908-1.505  c1.254-0.502,2.497-1.003,3.751-1.515c2.341-0.972,4.671-1.964,6.98-3.009c9.352-4.19,18.495-8.976,27.387-14.346  c3.312-1.996,6.583-4.075,9.812-6.248c1.306-0.867,2.612-1.766,3.908-2.664c0.627-0.408,1.233-0.846,1.849-1.285  c0.293-0.209,0.575-0.408,0.867-0.616c0.063-0.052,0.136-0.094,0.199-0.146c1.024-0.721,2.038-1.463,3.041-2.205  c1.369-1.014,2.738-2.038,4.086-3.082l-24.409-31.786c-8.955-11.212-8.067-27.397,2.09-37.554  c10.167-10.167,26.342-11.045,37.564-2.1l31.775,24.419c1.045-1.358,2.079-2.717,3.082-4.096c0.752-1.014,1.494-2.027,2.215-3.041  c0.251-0.345,0.502-0.7,0.752-1.045c0.428-0.616,0.857-1.233,1.285-1.86c0.909-1.296,1.797-2.602,2.675-3.918  c7.983-11.922,14.838-24.367,20.584-37.188c1.055-2.32,2.048-4.65,3.02-6.99c0.512-1.243,1.014-2.487,1.515-3.73  c0.502-1.306,1.003-2.612,1.505-3.918c0.533-1.431,1.055-2.863,1.557-4.294c1.076-2.978,2.079-5.977,3.02-8.997L389.205,242.597z"/>
<path style="fill:#F92939;" d="M209.82,142.146c9.917,1.244,16.344,11.229,13.203,20.71c-9.655,29.062-32.561,51.968-61.623,61.623  c-9.49,3.15-19.465-3.286-20.719-13.194c-0.009-0.107-0.02-0.214-0.029-0.321c-0.962-7.593,3.627-14.71,10.879-17.16  c19.202-6.485,34.331-21.614,40.806-40.806c2.45-7.254,9.576-11.852,17.171-10.89C209.615,142.116,209.722,142.126,209.82,142.146z"/>
<path style="fill:#E6D7D8;" d="M190.285,191.739c-9.234,9.234-20.642,16.284-32.989,20.386c-0.992,0.329-1.805,0.017-2.312-0.303  c-0.433-0.273-1.169-0.892-1.367-2.025l-0.02-0.22l-0.031-0.252c-0.153-1.202,0.464-2.02,0.844-2.401  c0.355-0.355,0.789-0.622,1.287-0.79c11.309-3.819,21.758-10.309,30.214-18.766c8.457-8.457,14.945-18.905,18.759-30.211  c0.167-0.493,0.434-0.928,0.791-1.285c0.379-0.379,1.188-0.991,2.369-0.857l0.367,0.047c1.221,0.154,1.88,0.931,2.165,1.38  c0.321,0.509,0.634,1.324,0.304,2.321C206.568,171.099,199.519,182.506,190.285,191.739z"/>
<g>
	<path style="fill:#F9395E;" d="M328.68,328.676c8.002-8.002,20.981-7.992,28.983,0.009c8.002,8.002,8.011,20.982,0.009,28.983   c-8.011,8.011-20.991,8.002-28.993,0S320.668,336.687,328.68,328.676z"/>
	<path style="fill:#F9395E;" d="M263.061,263.057c8.002-8.002,20.972-8.002,28.974,0c8.011,8.011,8.011,20.982,0.009,28.983   c-8.011,8.011-20.982,8.011-28.993,0C255.05,284.038,255.05,271.069,263.061,263.057z"/>
</g>
<path style="fill:#E6E2E0;" d="M224.874,148.326c-3.218-5.099-8.485-8.453-14.451-9.226c-0.136-0.031-0.293-0.042-0.46-0.063  c-9.415-1.17-18.484,4.577-21.556,13.678c-6.019,17.889-20.313,32.162-38.212,38.212c-9.07,3.072-14.827,12.11-13.657,21.525  l0.01,0.23c0.01,0.063,0.01,0.115,0.021,0.167c0.763,6.008,4.138,11.306,9.258,14.535c5.078,3.197,11.222,3.95,16.886,2.069  c15.088-5.016,28.641-13.531,39.675-24.565c11.034-11.034,19.54-24.586,24.576-39.685  C228.835,159.548,228.072,153.394,224.874,148.326z M219.096,162.589c-9.226,27.732-31.274,49.789-58.995,58.995  c-3.302,1.108-6.886,0.658-9.853-1.212c-2.988-1.891-4.984-4.984-5.454-8.495l-0.01-0.24c-0.01-0.042-0.021-0.094-0.021-0.146  c-0.711-5.548,2.706-10.898,8.098-12.716c20.323-6.875,36.55-23.092,43.405-43.405c1.818-5.402,7.178-8.819,12.727-8.108  c0.01,0,0.084,0.01,0.146,0.021c0.063,0.01,0.104,0.01,0.167,0.01c3.542,0.449,6.656,2.435,8.558,5.454  C219.734,155.713,220.183,159.297,219.096,162.589z"/>
<g>
	<path style="fill:#E59F32;" d="M242.591,440.558v13.019c0,11.781-4.777,22.433-12.492,30.147   c-7.706,7.706-18.366,12.492-30.139,12.483c-23.546,0.017-42.639-19.077-42.631-42.631v-70.72   C169.286,408.603,195.375,447.159,242.591,440.558z"/>
	<path style="fill:#E59F32;" d="M306.335,440.354c25.255,16.697,54.711,31.796,81.899,34.91   c-8.892,5.371-18.035,10.156-27.387,14.346c-2.309,1.045-4.639,2.038-6.98,3.009c-1.254,0.512-2.497,1.014-3.751,1.515   c-1.296,0.512-2.602,1.014-3.908,1.505c-1.421,0.533-2.853,1.055-4.284,1.567c-2.988,1.066-5.987,2.069-8.997,3.009   l-90.289-110.968c0.92,0.899,15.956,15.6,37.992,32.632C288.415,427.919,297.098,434.241,306.335,440.354z"/>
</g>
<path style="fill:#E6E2E0;" d="M437.793,375.089c-18.066-14.284-43.969-12.779-60.249,3.5c-16.3,16.3-17.784,42.224-3.5,60.228  l24.001,31.242c1.306-0.867,2.612-1.766,3.908-2.664c0.627-0.408,1.233-0.846,1.849-1.285c0.293-0.209,0.575-0.408,0.867-0.616  c0.063-0.052,0.136-0.094,0.199-0.146l-24.294-31.639c-11.713-14.754-10.501-35.934,2.832-49.256  c13.312-13.322,34.492-14.535,49.256-2.853l0.052,0.052l31.598,24.252c0.251-0.345,0.502-0.7,0.752-1.045  c0.428-0.616,0.857-1.233,1.285-1.86c0.909-1.296,1.797-2.602,2.675-3.918L437.793,375.089z M364.232,234.77h89.339  c9.028,0,17.512-3.521,23.886-9.895s9.885-14.848,9.885-23.865c0-9.028-3.511-17.502-9.885-23.876  c-6.384-6.384-14.858-9.895-23.876-9.895l-135.46,0.01c-17.178-0.01-33.332,6.677-45.484,18.829  c-4.995,4.995-13.134,4.984-18.139-0.021c-3.281-3.281-4.514-7.941-3.291-12.455c10.48-38.484-0.418-80.008-28.432-108.356  c-20.47-20.71-47.919-32.475-77.26-33.134c-4.242-0.094-8.453,0.042-12.622,0.408c-24.66,2.163-47.72,12.309-65.985,29.226  c-1.076,0.982-2.132,2.006-3.156,3.03c-19.32,19.32-30.093,43.98-32.34,69.277c-2.842,31.953,7.941,64.898,32.34,89.297  c28.369,28.379,70.071,39.455,108.826,28.891c5.705-1.546,11.536,0.846,14.493,5.956c2.957,5.089,2.142,11.306-2.038,15.485  c-5.998,5.998-10.689,13.03-13.939,20.867c-3.25,7.837-4.901,16.123-4.89,24.639l-0.01,81.126v54.314  c0,9.017,3.521,17.502,9.895,23.876s14.858,9.885,23.876,9.874c9.007,0.01,17.471-3.5,23.855-9.885s9.895-14.858,9.906-23.865  v-89.328l46.905,57.626l61.294,75.327c1.432-0.512,2.863-1.034,4.284-1.567c1.306-0.491,2.612-0.993,3.908-1.505l-43.781-53.781  l-73.54-90.373c-1.118-1.358-2.957-1.881-4.608-1.285c-1.651,0.585-2.748,2.152-2.748,3.887v101c0,6.792-2.654,13.187-7.471,18.014  c-4.817,4.807-11.201,7.471-18.004,7.45c-6.813,0.01-13.207-2.633-18.014-7.45c-4.817-4.807-7.471-11.212-7.471-18.014l0.01-42.569  v-92.87c0-7.419,1.432-14.639,4.263-21.462c2.832-6.844,6.907-12.957,12.142-18.181c6.865-6.875,8.202-17.115,3.344-25.506  c-4.869-8.401-14.451-12.33-23.834-9.77c-35.892,9.77-74.512-0.491-100.801-26.77c-27.972-27.972-36.613-68.075-25.924-103.549  c4.775-15.862,13.416-30.804,25.924-43.311c0.961-0.951,1.944-1.912,2.926-2.821c11.651-10.794,25.433-18.61,40.354-23.082  c10.376-3.103,21.295-4.598,32.444-4.347c27.188,0.616,52.61,11.515,71.554,30.678c25.955,26.248,36.038,64.71,26.342,100.373  c-2.017,7.429,0.01,15.078,5.413,20.48c8.234,8.234,21.629,8.244,29.863,0.021c10.574-10.585,24.649-16.415,39.622-16.405  l135.46-0.01c6.802-0.01,13.197,2.644,18.014,7.471c4.817,4.807,7.461,11.201,7.461,18.014c0,6.802-2.644,13.197-7.461,18.014  c-4.817,4.817-11.212,7.471-18.024,7.471l-100.989-0.01c-1.755,0-3.323,1.108-3.897,2.759c-0.596,1.651-0.073,3.49,1.285,4.598  l144.175,117.331c0.502-1.306,1.003-2.612,1.505-3.918c0.533-1.431,1.055-2.863,1.557-4.294L364.232,234.77z"/>
<g>
	<path style="fill:#B16E60;" d="M95.631,152.228c4.615,0,8.358-3.742,8.358-8.36c0-4.616-3.743-8.359-8.36-8.358   c-16.254,0.001-29.477,13.226-29.479,29.479c0.001,4.617,3.743,8.359,8.36,8.36c2.308-0.001,4.399-0.936,5.911-2.449   c1.512-1.512,2.448-3.603,2.449-5.911C82.869,157.952,88.595,152.23,95.631,152.228z"/>
	<path style="fill:#B16E60;" d="M149.778,101.543c1.512-1.512,2.448-3.603,2.449-5.911c-0.001-7.036,5.724-12.759,12.76-12.76   c4.615,0,8.358-3.742,8.358-8.36c0-4.616-3.743-8.359-8.36-8.358c-16.255,0.001-29.478,13.226-29.479,29.479   c0.001,4.617,3.743,8.359,8.36,8.36C146.175,103.991,148.266,103.056,149.778,101.543z"/>
	<path style="fill:#B16E60;" d="M120.747,178.283l-11.821-11.821c-3.265-3.265-8.557-3.265-11.822,0   c-3.265,3.265-3.265,8.557,0,11.822l11.821,11.821c3.265,3.265,8.557,3.265,11.822,0S124.013,181.549,120.747,178.283z"/>
	<path style="fill:#B16E60;" d="M166.461,97.106c-3.265,3.265-3.265,8.557,0,11.822l11.821,11.821c3.265,3.265,8.557,3.265,11.822,0   c3.265-3.265,3.265-8.557,0-11.822l-11.821-11.821C175.017,93.841,169.725,93.841,166.461,97.106z"/>
</g>
<g>
</g>
<g>
</g>
<g>
</g>
<g>
</g>
<g>
</g>
<g>
</g>
<g>
</g>
<g>
</g>
<g>
</g>
<g>
</g>
<g>
</g>
<g>
</g>
<g>
</g>
<g>
</g>
<g>
</g>
</svg>
