<?xml version="1.0" encoding="iso-8859-1"?>
<!-- Generator: Adobe Illustrator 19.0.0, SVG Export Plug-In . SVG Version: 6.00 Build 0)  -->
<svg xmlns="http://www.w3.org/2000/svg" xmlns:xlink="http://www.w3.org/1999/xlink" version="1.1" id="Capa_1" x="0px" y="0px" viewBox="0 0 512 512" style="enable-background:new 0 0 512 512;" xml:space="preserve">
<path style="fill:#F9EF4A;" d="M507.141,305.758c-9.477,48.096-32.851,93.988-70.123,131.26s-83.174,60.646-131.28,70.133  c-34.743,6.844-70.624,6.447-105.231-1.212c-46.007-10.167-89.746-33.134-125.523-68.921  C-9.987,352.047-22.746,222.208,36.73,123.769c8.579-14.2,18.651-27.742,30.229-40.396c2.602-2.842,5.277-5.642,8.025-8.39  c2.759-2.759,5.559-5.433,8.401-8.025c12.654-11.588,26.195-21.661,40.385-30.229c98.439-59.475,228.278-46.717,313.249,38.254  c35.788,35.788,58.765,79.537,68.932,125.554C513.598,235.144,513.994,271.026,507.141,305.758z"/>
<path style="fill:#B26E0D;" d="M84.636,84.628c-4.535,4.535-11.887,4.535-16.421,0l-49.262-49.26  c-4.535-4.535-4.535-11.886,0-16.421s11.887-4.535,16.421,0l49.262,49.26C89.17,72.743,89.171,80.094,84.636,84.628z"/>
<path style="fill:#8CC371;" d="M505.95,200.537c-3.062-3.469-6.249-6.875-9.561-10.188c-35.401-35.401-91.177-67.114-150.245-85.817  c-35.746-11.306-70.645-25.046-104.427-41.284c-37.209-17.868-80.676-29.038-117.948-26.519  c-20.25,1.369-38.672,6.792-53.248,17.366c-3.145,2.267-6.113,4.775-8.882,7.544c-2.759,2.769-5.277,5.726-7.534,8.871v0.01  c-10.585,14.587-15.997,32.998-17.377,53.248c-2.529,37.271,8.641,80.739,26.519,117.937  c16.238,33.802,29.968,68.702,41.284,104.437c18.693,59.078,50.406,114.855,85.817,150.256c3.312,3.312,6.698,6.489,10.156,9.54  c34.607,7.659,70.489,8.056,105.231,1.212c48.107-9.488,94.009-32.862,131.28-70.133s60.646-83.163,70.123-131.26  C513.994,271.026,513.598,235.144,505.95,200.537z"/>
<path style="fill:#76B25D;" d="M411.816,411.81c-44.586,44.586-117.133,44.586-161.719,0  c-21.772-21.772-40.475-57.625-48.809-93.567c-9.948-42.904-3.734-78.226,17.5-99.46s56.555-27.447,99.457-17.496  c35.938,8.337,71.788,27.042,93.561,48.815C456.393,294.686,456.397,367.228,411.816,411.81z"/>
<path style="fill:#B16E60;" d="M228.01,228.002c39.563-39.563,135.011-8.243,174.573,31.32s39.574,103.702,0.01,143.264  s-103.713,39.563-143.276,0S188.447,267.565,228.01,228.002z"/>
<path style="fill:#9E5B50;" d="M296.489,365.417c-33.135-33.135-60.468-105.468-45.239-151.343c-8.9,2.954-16.811,7.5-23.239,13.929  c-39.563,39.563-8.255,135.021,31.309,174.584c39.563,39.563,103.713,39.563,143.276,0c6.43-6.43,11.796-13.517,16.135-21.034  C379.992,403.917,329.622,398.55,296.489,365.417z"/>
<g>
</g>
<g>
</g>
<g>
</g>
<g>
</g>
<g>
</g>
<g>
</g>
<g>
</g>
<g>
</g>
<g>
</g>
<g>
</g>
<g>
</g>
<g>
</g>
<g>
</g>
<g>
</g>
<g>
</g>
</svg>
