<?xml version="1.0" encoding="iso-8859-1"?>
<!-- Generator: Adobe Illustrator 19.0.0, SVG Export Plug-In . SVG Version: 6.00 Build 0)  -->
<svg xmlns="http://www.w3.org/2000/svg" xmlns:xlink="http://www.w3.org/1999/xlink" version="1.1" id="Capa_1" x="0px" y="0px" viewBox="0 0 512 512" style="enable-background:new 0 0 512 512;" xml:space="preserve">
<path style="fill:#B16E60;" d="M445.37,428.275c-0.355,0.408-0.742,0.815-1.108,1.212c-2.351,2.55-4.765,5.057-7.241,7.534  c-2.476,2.476-4.984,4.89-7.534,7.241c-0.397,0.366-0.805,0.752-1.212,1.108c-100.468,91.534-256.19,88.765-353.293-8.349  c-99.977-99.977-99.977-262.063,0-362.038c99.977-99.977,262.063-99.977,362.039,0C534.135,172.085,536.904,327.808,445.37,428.275z  "/>
<g>
	<path style="fill:#F2B54D;" d="M146.984,110.068v36.915l-36.924,0.008c-15.867,0-30.461-5.446-42.027-14.567   c-15.765-12.448-25.878-31.709-25.888-53.347l0.008-36.924h36.916C116.583,42.153,146.984,72.554,146.984,110.068z"/>
	<path style="fill:#F2B54D;" d="M445.37,428.275c-0.355,0.408-0.742,0.815-1.108,1.212c-2.351,2.55-4.765,5.057-7.241,7.534   c-2.476,2.476-4.984,4.89-7.534,7.241c-0.397,0.366-0.805,0.752-1.212,1.108l-179.64-179.64l17.095-17.095L445.37,428.275z"/>
</g>
<path style="fill:#E59F32;" d="M107.864,121.541c29.033,6.651-7.378,9.601-39.83,10.884c-15.765-12.448-25.878-31.709-25.888-53.347  l0.008-36.924C42.155,42.153,60.561,110.708,107.864,121.541z"/>
<polygon style="fill:#F2B54D;" points="239.494,239.497 133.677,274.769 166.745,307.836 272.561,272.564 "/>
<path style="fill:#E59F32;" d="M272.561,272.564l-105.816,35.272l12.662,12.662c12.505,12.505,31.003,16.872,47.781,11.28  l78.439-26.147L272.561,272.564z"/>
<polygon style="fill:#F2B54D;" points="173.358,173.362 67.543,208.634 100.61,241.702 206.425,206.43 "/>
<polygon style="fill:#E59F32;" points="206.425,206.43 100.61,241.702 133.677,274.769 239.494,239.497 "/>
<path style="fill:#F2B54D;" d="M90,112.968L1.407,142.5l33.067,33.067l105.816-35.272l-20.229-20.229  C112.194,112.197,100.555,109.45,90,112.968z"/>
<g>
	<polygon style="fill:#E59F32;" points="140.291,140.295 34.475,175.567 67.543,208.634 173.358,173.362  "/>
	<polygon style="fill:#E59F32;" points="239.494,239.497 274.765,133.682 307.833,166.749 272.561,272.564  "/>
</g>
<path style="fill:#F2B54D;" d="M272.561,272.564l35.272-105.816l12.662,12.662c12.505,12.505,16.872,31.003,11.28,47.781  l-26.147,78.439L272.561,272.564z"/>
<polygon style="fill:#E59F32;" points="173.358,173.362 208.63,67.546 241.697,100.614 206.425,206.43 "/>
<polygon style="fill:#F2B54D;" points="206.425,206.43 241.697,100.614 274.765,133.682 239.494,239.497 "/>
<path style="fill:#E59F32;" d="M112.965,90.004l29.531-88.592l33.067,33.067l-35.272,105.816l-20.229-20.229  C112.194,112.197,109.446,100.559,112.965,90.004z"/>
<polygon style="fill:#F2B54D;" points="140.291,140.295 175.563,34.479 208.63,67.546 173.358,173.362 "/>
<g>
</g>
<g>
</g>
<g>
</g>
<g>
</g>
<g>
</g>
<g>
</g>
<g>
</g>
<g>
</g>
<g>
</g>
<g>
</g>
<g>
</g>
<g>
</g>
<g>
</g>
<g>
</g>
<g>
</g>
</svg>
