<?xml version="1.0" encoding="iso-8859-1"?>
<!-- Generator: Adobe Illustrator 19.0.0, SVG Export Plug-In . SVG Version: 6.00 Build 0)  -->
<svg xmlns="http://www.w3.org/2000/svg" xmlns:xlink="http://www.w3.org/1999/xlink" version="1.1" id="Capa_1" x="0px" y="0px" viewBox="0 0 512 512" style="enable-background:new 0 0 512 512;" xml:space="preserve">
<path style="fill:#B16E60;" d="M512,256c0,41.932-10.083,81.512-27.961,116.443c-36.091,70.551-103.957,122.149-184.727,135.899  C285.236,510.746,270.764,512,256,512c-14.764,0-29.236-1.254-43.321-3.657c-27.899-4.754-54.262-14.023-78.305-27.042  c-45.558-24.628-82.798-62.683-106.412-108.868C10.083,337.502,0,297.932,0,256C0,114.615,114.615,0,256,0S512,114.615,512,256z"/>
<path style="fill:#F2B54D;" d="M484.039,87.51v284.933c-36.091,70.551-103.957,122.149-184.727,135.899  C285.236,510.746,270.764,512,256,512c-14.764,0-29.236-1.254-43.321-3.657c-27.899-4.754-54.262-14.023-78.305-27.042  c-45.558-24.628-82.798-62.683-106.412-108.868V87.51H484.039z"/>
<path style="fill:#E59F32;" d="M134.374,87.51v393.791c-45.558-24.628-82.798-62.683-106.412-108.868V87.51H134.374z"/>
<path style="fill:#B3B0AF;" d="M484.039,88.555v21.838c0,23.803-102.097,43.102-228.039,43.102S27.961,134.196,27.961,110.393  V88.555H484.039z"/>
<ellipse style="fill:#E6E2E0;" cx="256" cy="88.555" rx="228.039" ry="43.102"/>
<path style="fill:#F2EEED;" d="M484.039,87.51c0,3.647-2.414,8.244-6.938,11.63c-14.712-11.024-51.879-20.355-101.773-26.154  C340.616,68.942,299.75,66.612,256,66.612c-106.632,0-196.159,13.834-221.111,32.528c-4.514-3.385-6.928-6.938-6.928-10.585  c0-23.803,102.097-43.102,228.039-43.102c24.827,0,48.734,0.752,71.105,2.142c0,0,0-1.045,0.01-1.045  C418.241,52.193,484.039,68.399,484.039,87.51z"/>
<path style="fill:#B3B0AF;" d="M223.807,87.51c-10.512-7.471-30.49-10.971-49.465-10.971s-38.954,3.5-49.465,10.971  c-4.692,3.333-7.492,7.45-7.492,12.403c0,7.732,6.834,13.448,16.99,17.283c10.94,4.138,25.736,6.102,39.967,6.102  c27.439,0,56.968-4.528,56.968-23.385C231.309,94.96,228.498,90.833,223.807,87.51z M174.341,109.714  c-20.595,0-34.011-4.054-39.967-7.304c-1.714-0.94-2.811-1.808-3.281-2.497c0.47-0.69,1.567-1.557,3.281-2.497  c5.956-3.239,19.372-7.293,39.967-7.293C200.882,90.122,200.882,109.714,174.341,109.714z"/>
<path style="fill:#CCBFBF;" d="M484.039,87.51c0,3.647-2.414,7.199-6.938,10.585c-14.712-11.024-51.879-20.355-101.773-26.154  c-11.525-20.052-47.491-25.287-48.212-25.391C418.241,52.193,484.039,68.399,484.039,87.51z"/>
<g>
	<path style="fill:#F9395E;" d="M151.177,329.264c16.814,6.337,33.507,15.249,49.882,27.355   c-13.731,14.996-33.498,24.69-55.054,27.355C147.729,365.737,149.453,347.501,151.177,329.264z"/>
	<path style="fill:#F9395E;" d="M195.533,356.603c47.317-36.78,109.37-36.78,156.687,0c-19.567,22.814-48.851,34.979-78.338,34.925   C244.385,391.578,215.101,379.42,195.533,356.603z"/>
	<path style="fill:#F9395E;" d="M111.804,429.563V451.4c39.293,6.07,89.492,9.712,144.196,9.712s104.903-3.643,144.196-9.712   v-21.838c-39.294,6.07-89.493,9.711-144.199,9.711C201.294,439.274,151.096,435.633,111.804,429.563z"/>
	<path style="fill:#F9395E;" d="M111.804,245.925v21.837c39.293,6.07,89.492,9.712,144.196,9.712s104.903-3.643,144.196-9.712   v-21.838c-39.294,6.07-89.493,9.711-144.199,9.711C201.294,255.635,151.096,251.994,111.804,245.925z"/>
</g>
<g>
</g>
<g>
</g>
<g>
</g>
<g>
</g>
<g>
</g>
<g>
</g>
<g>
</g>
<g>
</g>
<g>
</g>
<g>
</g>
<g>
</g>
<g>
</g>
<g>
</g>
<g>
</g>
<g>
</g>
</svg>
