<?xml version="1.0" encoding="iso-8859-1"?>
<!-- Generator: Adobe Illustrator 19.0.0, SVG Export Plug-In . SVG Version: 6.00 Build 0)  -->
<svg xmlns="http://www.w3.org/2000/svg" xmlns:xlink="http://www.w3.org/1999/xlink" version="1.1" id="Capa_1" x="0px" y="0px" viewBox="0 0 512 512" style="enable-background:new 0 0 512 512;" xml:space="preserve">
<path style="fill:#52C8D3;" d="M512,256c0,27.115-4.211,53.248-12.037,77.772c-9.738,30.595-25.078,58.692-44.816,83.09  c-8.61,10.668-18.077,20.616-28.275,29.759c-6.708,6.029-13.74,11.692-21.055,16.99c-4.577,3.302-9.268,6.468-14.064,9.467  c-11.557,7.252-23.73,13.594-36.425,18.934c-25.234,10.637-52.527,17.345-81.115,19.352C268.194,511.781,262.123,512,256,512  c-6.123,0-12.204-0.219-18.223-0.637c-28.588-2.006-55.881-8.714-81.105-19.352c-12.695-5.339-24.879-11.692-36.436-18.934  c-4.796-3.009-9.477-6.165-14.054-9.467c-7.314-5.298-14.346-10.961-21.055-16.99c-10.209-9.143-19.665-19.101-28.285-29.769  c-19.738-24.388-35.077-52.485-44.805-83.08C4.211,309.248,0,283.115,0,256C0,114.615,114.615,0,256,0S512,114.615,512,256z"/>
<path style="fill:#F2B54D;" d="M501.029,310.857c0,7.732-0.355,15.37-1.066,22.915c-7.293,22.894-17.711,44.398-30.772,63.99  c-2.821,4.232-5.757,8.37-8.829,12.424c-1.693,2.257-3.438,4.483-5.214,6.677c-8.61,10.668-18.077,20.616-28.275,29.759  c-6.708,6.029-13.74,11.692-21.055,16.99c-4.577,3.302-9.268,6.468-14.064,9.467c-11.557,7.252-23.73,13.594-36.425,18.934  c-4.127,1.735-8.307,3.375-12.539,4.89c-21.65,7.816-44.659,12.779-68.577,14.461C268.194,511.781,262.123,512,256,512  c-6.123,0-12.204-0.219-18.223-0.637c-28.588-2.006-55.881-8.714-81.105-19.352c-12.696-5.339-24.879-11.692-36.436-18.934  c-4.796-3.009-9.477-6.165-14.054-9.467c-7.314-5.298-14.346-10.961-21.055-16.99c-10.209-9.143-19.665-19.101-28.285-29.769  c-19.738-24.388-35.077-52.485-44.805-83.08c-0.711-7.544-1.066-15.182-1.066-22.915C10.971,175.532,120.675,65.829,256,65.829  S501.029,175.532,501.029,310.857z"/>
<path style="fill:#F7BE64;" d="M469.964,310.857c0,6.134-0.261,12.204-0.773,18.213c-1.651,19.623-5.945,38.484-12.539,56.236  c-3.176,8.568-6.886,16.875-11.097,24.879c-6.823,12.988-14.932,25.192-24.179,36.436c-4.88,5.935-10.073,11.609-15.559,16.99  c-4.577,3.302-9.268,6.468-14.064,9.467c-11.557,7.252-23.73,13.594-36.425,18.934c-18.798,7.92-38.745,13.667-59.507,16.917  c-7.116,1.108-14.315,1.923-21.608,2.435C268.194,511.781,262.123,512,256,512c-6.123,0-12.204-0.219-18.223-0.637  c-28.588-2.006-55.881-8.714-81.105-19.352c-12.696-5.339-24.879-11.692-36.436-18.934c-4.796-3.009-9.477-6.165-14.054-9.467  c-5.486-5.381-10.679-11.055-15.559-16.99c-9.247-11.243-17.356-23.448-24.179-36.436C53.52,385.588,45.255,358.16,42.809,329.07  c-0.512-6.008-0.773-12.079-0.773-18.213s0.261-12.204,0.773-18.213c2.445-29.09,10.71-56.519,23.636-81.115  c6.823-12.988,14.932-25.192,24.179-36.436c8.411-10.25,17.763-19.686,27.92-28.202c0.564-0.481,1.128-0.94,1.693-1.411  c11.243-9.237,23.448-17.356,36.436-24.179c24.597-12.925,52.025-21.191,81.105-23.636c6.008-0.512,12.089-0.773,18.223-0.773  c6.134,0,12.215,0.261,18.213,0.773c29.079,2.445,56.508,10.71,81.115,23.636c12.988,6.813,25.182,14.932,36.425,24.168  c10.815,8.882,20.741,18.808,29.623,29.623c9.247,11.243,17.356,23.448,24.179,36.436c12.925,24.597,21.191,52.025,23.636,81.115  C469.702,298.653,469.964,304.724,469.964,310.857z"/>
<g>
	<path style="fill:#E0A243;" d="M456.652,385.306v-43.698h-68.577V329.07h81.115C467.54,348.693,463.245,367.553,456.652,385.306z"/>
	<path style="fill:#E0A243;" d="M295.821,508.928c-7.116,1.108-14.315,1.923-21.608,2.435C268.194,511.781,262.123,512,256,512   c-6.123,0-12.204-0.219-18.223-0.637c-28.588-2.006-55.881-8.714-81.105-19.352c-12.696-5.339-24.879-11.692-36.436-18.934   c-4.796-3.009-9.477-6.165-14.054-9.467c-5.486-5.381-10.679-11.055-15.559-16.99c-9.247-11.243-17.356-23.448-24.179-36.436   C53.52,385.588,45.255,358.16,42.809,329.07c-0.512-6.008-0.773-12.079-0.773-18.213s0.261-12.204,0.773-18.213   c2.445-29.09,10.71-56.519,23.636-81.115c6.823-12.988,14.932-25.192,24.179-36.436c8.411-10.25,17.763-19.686,27.92-28.202   C120.174,246.408,145.272,426.36,295.821,508.928z"/>
</g>
<path style="fill:#F2B54D;" d="M490.894,329.073V292.64h-99.141v-81.112h63.393v-36.432h-63.393V111.71h-36.425v63.386h-81.115  V75.964h-36.436v99.132h-81.105V111.71h-36.436v63.386H56.848v36.432h63.389v81.112H21.1v36.432h99.137v81.112H56.842v6.666  c8.62,10.668,18.077,20.626,28.285,29.769h35.109v26.457c11.557,7.241,23.74,13.594,36.436,18.934v-45.39h81.105v64.742  c6.019,0.418,12.1,0.637,18.223,0.637s12.194-0.219,18.213-0.637v-64.742h81.115v45.39c12.696-5.339,24.869-11.682,36.425-18.934  v-26.457h35.119c10.198-9.143,19.665-19.09,28.275-29.759v-6.677h-63.394v-81.112L490.894,329.073L490.894,329.073z   M355.328,211.527v81.112h-81.115v-81.112H355.328z M156.672,211.527h81.105v81.112h-81.105V211.527z M156.672,410.185v-81.112  h81.105v81.112H156.672z M355.328,410.185h-81.115v-81.112h81.115V410.185z"/>
<g>
	<polygon style="fill:#E0A243;" points="274.213,211.527 274.213,224.066 342.787,224.066 342.787,292.64 355.325,292.64    355.325,211.527  "/>
	<polygon style="fill:#E0A243;" points="274.213,329.073 274.213,341.612 342.787,341.612 342.787,410.186 355.325,410.186    355.325,329.073  "/>
	<polygon style="fill:#E0A243;" points="156.665,329.073 156.665,341.612 225.239,341.612 225.239,410.186 237.777,410.186    237.777,329.073  "/>
	<polygon style="fill:#E0A243;" points="156.665,211.527 156.665,224.066 225.239,224.066 225.239,292.64 237.777,292.64    237.777,211.527  "/>
	<path style="fill:#E0A243;" d="M355.328,446.621v45.39c-4.127,1.735-8.307,3.375-12.539,4.89v-37.742h-68.577v-12.539H355.328z"/>
</g>
<g>
</g>
<g>
</g>
<g>
</g>
<g>
</g>
<g>
</g>
<g>
</g>
<g>
</g>
<g>
</g>
<g>
</g>
<g>
</g>
<g>
</g>
<g>
</g>
<g>
</g>
<g>
</g>
<g>
</g>
</svg>
