<?xml version="1.0" encoding="iso-8859-1"?>
<!-- Generator: Adobe Illustrator 19.0.0, SVG Export Plug-In . SVG Version: 6.00 Build 0)  -->
<svg xmlns="http://www.w3.org/2000/svg" xmlns:xlink="http://www.w3.org/1999/xlink" version="1.1" id="Capa_1" x="0px" y="0px" viewBox="0 0 512.003 512.003" style="enable-background:new 0 0 512.003 512.003;" xml:space="preserve">
<path style="fill:#94F3FF;" d="M512.001,256.003c0,44.753-11.494,86.841-31.692,123.444c-1.024,1.87-2.079,3.73-3.156,5.569  c-16.645,28.484-38.64,53.467-64.606,73.55c-0.899,0.7-1.808,1.39-2.717,2.069c-7.471,5.632-15.266,10.857-23.343,15.653h-0.01  c-1.829,1.087-3.678,2.152-5.548,3.197c-24.921,13.97-52.422,23.897-81.617,28.86c-14.075,2.403-28.547,3.657-43.311,3.657  c-14.764,0-29.236-1.254-43.321-3.657C91.932,487.772,0.001,382.623,0.001,256.003c0-141.385,114.615-256,256-256  S512.001,114.618,512.001,256.003z"/>
<path style="fill:#E6D7D8;" d="M395.144,393.907c-9.028,9.028-15.592,19.429-19.429,30.325L267.95,316.466l-0.207-1.314  c7.961-5.366,15.832-12.178,23.554-19.899c10.004-10.004,18.486-20.272,24.273-30.655l79.681,79.665l30.217,30.217  C414.572,378.314,404.164,384.887,395.144,393.907z"/>
<g>
	<path style="fill:#CCC9C7;" d="M389.943,416.68c-4.142,4.142-6.11,9.945-5.96,16.857L276.217,325.772l-0.513-1.008   c4.357-1.761,8.259-4.605,11.798-8.144c4.596-4.596,8.003-9.789,9.417-15.799l109.891,109.891   c-3.381-0.057-6.498,0.364-9.284,1.314C394.614,413.017,392.06,414.564,389.943,416.68z"/>
	<path style="fill:#CCC9C7;" d="M373.029,371.792c-2.232,2.232-4.514,4.381-6.837,6.456c-6.564,5.87-13.484,11.12-20.693,15.766   l-77.548-77.548l-0.207-1.314c7.961-5.366,15.832-12.178,23.554-19.899c10.004-10.004,18.486-20.272,24.273-30.655l79.681,79.665   c-4.638,7.2-9.888,15.166-15.765,21.738C377.41,368.323,375.261,369.559,373.029,371.792z"/>
</g>
<path style="fill:#F9395E;" d="M359.8,358.564c-2.232,2.232-4.514,4.381-6.837,6.456c-15.013,13.426-31.896,23.628-49.746,30.614  c-6.076,2.373-12.261,4.373-18.519,6.002c-10.623,2.77-21.462,4.464-32.358,5.076c-26.621,1.505-53.54-3.39-78.243-14.683  c-6.069-2.777-12.005-5.953-17.775-9.508c-10.781-6.63-20.949-14.617-30.292-23.958L10.619,243.151L244.387,9.382L359.8,124.795  c9.334,9.334,17.32,19.52,23.96,30.292c3.555,5.771,6.722,11.715,9.499,17.783c9.97,21.792,14.956,45.297,14.956,68.81  c0,3.158-0.091,6.308-0.281,9.442c-0.611,10.896-2.298,21.727-5.059,32.342c-1.637,6.251-3.629,12.426-6.002,18.486  c-6.969,17.866-17.179,34.756-30.614,49.778C364.183,354.05,362.032,356.332,359.8,358.564z"/>
<g>
	<path style="fill:#D92F52;" d="M384.81,326.528c-7.906,4.737-16.118,8.764-24.55,12.064c-6.076,2.373-12.26,4.373-18.519,6.002   c-10.623,2.77-21.462,4.465-32.358,5.076c-26.621,1.505-53.54-3.39-78.243-14.683c-6.069-2.777-12.005-5.953-17.775-9.508   c-10.781-6.63-20.949-14.617-30.292-23.958L67.661,186.108l-57.042,57.042l115.413,115.413   c9.342,9.342,19.511,17.329,30.292,23.958c5.771,3.555,11.706,6.73,17.775,9.508c24.703,11.293,51.621,16.188,78.243,14.683   c10.896-0.611,21.735-2.306,32.358-5.076c6.259-1.629,12.443-3.629,18.519-6.002c17.849-6.985,34.731-17.188,49.744-30.613   c2.323-2.075,4.605-4.225,6.837-6.456c2.232-2.232,4.381-4.514,6.456-6.837C373.342,343.804,379.522,335.359,384.81,326.528z"/>
	
		<ellipse transform="matrix(0.7071 -0.7071 0.7071 0.7071 -51.9365 127.1409)" style="fill:#D92F52;" cx="127.504" cy="126.263" rx="165.301" ry="67.406"/>
</g>
<path style="fill:#F97074;" d="M37.214,243.175c-8.856-0.001-15.578-2.234-19.982-6.638c-9.722-9.722-8.796-30.751,2.539-57.697  c12.616-29.989,36.298-63.238,66.682-93.623c45.374-45.374,98.156-75.86,131.339-75.86c8.853,0,15.576,2.233,19.982,6.638  c9.722,9.722,8.796,30.751-2.539,57.697c-12.616,29.989-36.298,63.238-66.682,93.624c-45.375,45.375-98.152,75.86-131.333,75.86  C37.218,243.175,37.216,243.175,37.214,243.175z"/>
<ellipse transform="matrix(0.7071 -0.7071 0.7071 0.7071 -51.9365 127.1409)" style="fill:#F2E3E3;" cx="127.504" cy="126.263" rx="53.561" ry="21.841"/>
<path style="fill:#E6E2E0;" d="M480.31,380.492c-1.024,1.87-2.079,3.73-3.156,5.569c-16.645,28.484-38.64,53.467-64.606,73.55  c-8.296,6.426-17,12.34-26.06,17.721h-0.01c-1.829,1.087-3.678,2.152-5.548,3.197c-10.386-17.032-11.682-36.854-5.214-55.254  c3.845-10.898,10.407-21.295,19.425-30.323c9.028-9.028,19.425-15.6,30.323-19.435C443.728,369.103,463.382,370.336,480.31,380.492z  "/>
<path style="fill:#CCC9C7;" d="M409.831,461.68c-7.471,5.632-15.266,10.857-23.343,15.653h-0.01  c-1.829,1.087-3.678,2.152-5.548,3.197c-10.386-17.032-11.692-36.864-5.214-55.254c3.553-10.073,9.415-19.717,17.429-28.233  l6.405,6.416c-0.867,2.811-1.546,5.674-2.027,8.568C394.597,429.184,398.358,446.812,409.831,461.68z"/>
<g>
</g>
<g>
</g>
<g>
</g>
<g>
</g>
<g>
</g>
<g>
</g>
<g>
</g>
<g>
</g>
<g>
</g>
<g>
</g>
<g>
</g>
<g>
</g>
<g>
</g>
<g>
</g>
<g>
</g>
</svg>
