<?xml version="1.0" encoding="iso-8859-1"?>
<!-- Generator: Adobe Illustrator 19.0.0, SVG Export Plug-In . SVG Version: 6.00 Build 0)  -->
<svg xmlns="http://www.w3.org/2000/svg" xmlns:xlink="http://www.w3.org/1999/xlink" version="1.1" id="Capa_1" x="0px" y="0px" viewBox="0 0 512 512" style="enable-background:new 0 0 512 512;" xml:space="preserve">
<path style="fill:#B16E60;" d="M512,256c0,97.991-55.056,183.118-135.92,226.137c-5.078,2.717-10.261,5.256-15.538,7.617  C328.62,504.048,293.24,512,256,512c-19.383,0-38.264-2.152-56.414-6.249c-2.811-0.627-5.611-1.306-8.38-2.027  c-13.74-3.574-27.021-8.265-39.758-13.981c-5.277-2.361-10.459-4.901-15.538-7.607C55.045,439.108,0,353.991,0,256  C0,138.115,79.684,38.839,188.123,9.101c0.104-0.031,0.209-0.063,0.313-0.084c12.319-3.375,25.015-5.841,38.003-7.325  C236.136,0.575,246,0,256,0c23.5,0,46.258,3.166,67.877,9.101C432.316,38.839,512,138.115,512,256z"/>
<path style="fill:#FF6ABB;" d="M376.08,332.737v149.399c-5.078,2.717-10.261,5.256-15.538,7.617C328.62,504.048,293.24,512,256,512  c-19.383,0-38.264-2.152-56.414-6.249c-16.729-3.751-32.831-9.143-48.138-16.008c-5.277-2.361-10.459-4.901-15.538-7.607V332.748  c0-25.36,2.988-50.531,8.829-75.034c5.862-24.492,14.576-48.306,26.028-70.928c17.742-35.067,28.912-73.007,33.04-111.919  c0.554-5.162,0.972-10.344,1.264-15.538c0.355-6.144,0.533-12.319,0.533-18.495v-8.516h100.78v8.516  c0,6.175,0.178,12.351,0.533,18.495c0.293,5.193,0.711,10.376,1.264,15.538c1.463,13.814,3.814,27.512,7.032,40.991  c5.862,24.492,14.576,48.306,26.018,70.928c17.366,34.294,28.432,71.325,32.758,109.328c0.01,0.115,0.031,0.24,0.042,0.355  c0.146,1.317,0.293,2.644,0.428,3.971c0.031,0.334,0.063,0.679,0.094,1.024c0.125,1.254,0.24,2.508,0.345,3.762  c0.136,1.484,0.251,2.967,0.355,4.451c0.021,0.293,0.042,0.585,0.063,0.878c0.084,1.254,0.167,2.518,0.24,3.783  c0.104,1.954,0.199,3.908,0.272,5.862c0.104,2.591,0.178,5.193,0.219,7.795C376.069,329.571,376.08,331.159,376.08,332.737z"/>
<path style="fill:#ED50A7;" d="M308.182,74.867h-22.946c-31.514,0-58.305,22.998-63.06,54.157  c-3.041,19.864-7.105,39.205-12.184,57.762c-12.361,45.234-18.787,95.242-18.787,145.951v170.987  c-13.74-3.574-27.021-8.265-39.758-13.981c-5.277-2.361-10.459-4.901-15.538-7.607v-149.4c0-25.36,2.988-50.542,8.829-75.024  c5.862-24.503,14.576-48.316,26.028-70.928c17.774-35.129,28.944-73.112,33.05-112.076c0.272-2.539,0.502-5.099,0.711-7.638  c0.031-0.408,0.073-0.815,0.104-1.233c0.188-2.445,0.345-4.901,0.481-7.356c0.021-0.439,0.052-0.888,0.073-1.327  c0.115-2.497,0.23-4.984,0.303-7.481c0-0.313,0.01-0.606,0.01-0.92c0.073-2.644,0.104-5.287,0.104-7.92v-8.516h100.78v8.516  C306.385,52.234,306.981,63.592,308.182,74.867z"/>
<path style="fill:#F9EF4A;" d="M376.078,332.737v139.029H135.918V332.737c0-12.266,0.7-24.489,2.087-36.627H373.99  C375.377,308.248,376.078,320.471,376.078,332.737z"/>
<path style="fill:#DBCF48;" d="M191.202,296.11v175.656h-55.282V332.737c0-12.266,0.7-24.489,2.087-36.627H191.202z"/>
<path style="fill:#E6E2E0;" d="M313.338,1.045H198.657c-5.882,0-10.65,4.768-10.65,10.65v48.677h135.98V11.694  C323.986,5.813,319.218,1.045,313.338,1.045z"/>
<path style="fill:#CCC9C7;" d="M232.629,1.045h-32.39c-6.755,0-12.232,5.476-12.232,12.232V60.37h32.39V13.276  C220.396,6.521,225.873,1.045,232.629,1.045z"/>
<g>
	<rect x="172.366" y="343.113" style="fill:#665F60;" width="167.257" height="21.444"/>
	<rect x="172.366" y="402.077" style="fill:#665F60;" width="167.257" height="21.444"/>
</g>
<ellipse transform="matrix(-0.3261 -0.9453 0.9453 -0.3261 205.524 638.2839)" style="fill:#FC95CF;" cx="330.266" cy="245.887" rx="30.604" ry="18.902"/>
<g>
</g>
<g>
</g>
<g>
</g>
<g>
</g>
<g>
</g>
<g>
</g>
<g>
</g>
<g>
</g>
<g>
</g>
<g>
</g>
<g>
</g>
<g>
</g>
<g>
</g>
<g>
</g>
<g>
</g>
</svg>
