<?xml version="1.0" encoding="iso-8859-1"?>
<!-- Generator: Adobe Illustrator 19.0.0, SVG Export Plug-In . SVG Version: 6.00 Build 0)  -->
<svg xmlns="http://www.w3.org/2000/svg" xmlns:xlink="http://www.w3.org/1999/xlink" version="1.1" id="Capa_1" x="0px" y="0px" viewBox="0 0 512 512" style="enable-background:new 0 0 512 512;" xml:space="preserve">
<path style="fill:#F2B54D;" d="M511.479,255.479c0,65.142-24.38,124.601-64.527,169.721c-37.717,42.409-89.345,72.17-147.729,82.108  c-2.242,0.386-4.494,0.74-6.757,1.053c-8.207,1.178-16.538,1.971-24.985,2.324c-3.806,0.188-7.633,0.271-11.481,0.271  s-7.675-0.083-11.481-0.25c-5.683-0.25-11.324-0.688-16.903-1.325c-4.995-0.542-9.948-1.241-14.849-2.075  c-36.476-6.215-70.314-20.157-99.762-40.084c-17.696-11.981-33.807-26.111-47.967-42.034C24.901,380.069,0.521,320.62,0.521,255.479  C0.521,114.381,114.903,0,256,0S511.479,114.381,511.479,255.479z"/>
<g>
	<path style="fill:#E6E2E0;" d="M267.491,224.258v286.751c0,0.24,0,0.48-0.01,0.72C263.675,511.917,259.848,512,256,512   s-7.675-0.083-11.481-0.25c-5.683-0.25-11.324-0.688-16.903-1.325c-4.995-0.542-9.948-1.241-14.849-2.075   c-58.385-9.948-110.012-39.709-147.729-82.118V224.258c0-55.903,45.319-101.222,101.232-101.222c4.244,0,8.446,0.261,12.545,0.782   c28.103,3.462,52.649,18.467,68.729,40.105C260.088,180.764,267.491,201.651,267.491,224.258z"/>
	<path style="fill:#E6E2E0;" d="M446.952,224.258v201.985c-37.717,42.409-89.345,72.17-147.729,82.108   C285.177,510.749,270.734,512,256,512c-3.848,0-7.675-0.083-11.481-0.25c-0.021-0.24-0.021-0.49-0.021-0.74V224.258   c0-51.502,38.468-94.027,88.239-100.398c4.254-0.542,8.592-0.824,12.993-0.824c4.244,0,8.446,0.261,12.545,0.782   c0.146,0.022,0.292,0.031,0.438,0.063C408.495,130.242,446.952,172.756,446.952,224.258z"/>
</g>
<g>
	<path style="fill:#CCC9C7;" d="M190.191,125.914c-44.297,10.793-77.186,50.72-77.186,98.344v244.008   c-17.696-11.981-33.807-26.111-47.967-42.034V224.258c0-55.903,45.319-101.222,101.232-101.222c4.244,0,8.446,0.261,12.545,0.782   C182.683,124.298,186.479,125.018,190.191,125.914z"/>
	<path style="fill:#CCC9C7;" d="M369.651,125.914c-44.297,10.793-77.186,50.72-77.186,98.344v285.145   C280.557,511.114,268.388,512,256,512c-3.848,0-7.675-0.083-11.481-0.25c-0.021-0.24-0.021-0.49-0.021-0.74V224.258   c0-55.903,45.319-101.222,101.232-101.222c4.244,0,8.446,0.261,12.545,0.782C362.144,124.298,365.939,125.018,369.651,125.914z"/>
</g>
<g>
	<circle style="fill:#665F60;" cx="369.276" cy="154.653" r="13.029"/>
	<path style="fill:#665F60;" d="M358.755,123.86c0,7.195-5.829,13.024-13.024,13.024s-13.035-5.829-13.035-13.024   c0-0.355,0.01-0.699,0.042-1.043c4.254-0.542,8.592-0.824,12.993-0.824c4.244,0,8.446,0.261,12.545,0.782   c0.146,0.022,0.292,0.031,0.438,0.063C358.744,123.172,358.755,123.516,358.755,123.86z"/>
	<circle style="fill:#665F60;" cx="322.174" cy="154.653" r="13.029"/>
</g>
<g>
	<path style="fill:#B3A8A8;" d="M318.264,288.768c7.013-1.169,16.195-2.171,27.885-2.171c14.36,0,24.878,3.339,31.558,9.351   c6.177,5.343,9.852,13.525,9.852,23.545c0,10.185-3.006,18.199-8.683,24.044c-7.681,8.182-20.204,12.357-34.398,12.357   c-4.341,0-8.348-0.167-11.688-1.002v45.083h-14.526L318.264,288.768L318.264,288.768z M332.791,343.035   c3.173,0.834,7.181,1.168,12.023,1.168c17.532,0,28.218-8.514,28.218-24.045c0-14.859-10.519-22.04-26.549-22.04   c-6.344,0-11.188,0.501-13.693,1.169V343.035L332.791,343.035z"/>
	<path style="fill:#B3A8A8;" d="M136.543,379.974c6.369,3.921,15.679,7.187,25.477,7.187c14.535,0,23.027-7.676,23.027-18.78   c0-10.288-5.88-16.168-20.741-21.884c-17.965-6.369-29.07-15.679-29.07-31.193c0-17.148,14.208-29.888,35.602-29.888   c11.268,0,19.435,2.613,24.334,5.39l-3.92,11.596c-3.592-1.96-10.943-5.227-20.903-5.227c-15.025,0-20.741,8.982-20.741,16.495   c0,10.289,6.696,15.352,21.884,21.232c18.619,7.186,28.091,16.167,28.091,32.336c0,16.985-12.576,31.684-38.543,31.684   c-10.615,0-22.211-3.103-28.09-7.023L136.543,379.974L136.543,379.974z"/>
</g>
<g>
	<ellipse style="fill:#FFFFFF;" cx="410.851" cy="223.956" rx="18.248" ry="37.018"/>
	<ellipse style="fill:#FFFFFF;" cx="200.733" cy="223.956" rx="18.248" ry="37.018"/>
</g>
<circle style="fill:#665F60;" cx="155.352" cy="154.653" r="13.029"/>
<g>
</g>
<g>
</g>
<g>
</g>
<g>
</g>
<g>
</g>
<g>
</g>
<g>
</g>
<g>
</g>
<g>
</g>
<g>
</g>
<g>
</g>
<g>
</g>
<g>
</g>
<g>
</g>
<g>
</g>
</svg>
