<?xml version="1.0" encoding="iso-8859-1"?>
<!-- Generator: Adobe Illustrator 19.0.0, SVG Export Plug-In . SVG Version: 6.00 Build 0)  -->
<svg xmlns="http://www.w3.org/2000/svg" xmlns:xlink="http://www.w3.org/1999/xlink" version="1.1" id="Capa_1" x="0px" y="0px" viewBox="0 0 512 512" style="enable-background:new 0 0 512 512;" xml:space="preserve">
<path style="fill:#665F60;" d="M512,256c0,78.921-35.715,149.494-91.857,196.451c-4.138,3.469-8.391,6.792-12.748,10.01h-0.01  c-0.418,0.303-0.836,0.616-1.254,0.909c-31.075,22.538-67.406,38.264-106.82,44.972C285.236,510.746,270.764,512,256,512  c-14.764,0-29.236-1.254-43.321-3.657c-30.845-5.256-59.82-16.039-85.849-31.284c-7.22-4.221-14.211-8.788-20.95-13.688  c-0.418-0.293-0.836-0.596-1.243-0.899l-0.01-0.01c-4.378-3.218-8.641-6.562-12.8-10.052c0,0-0.01,0-0.01-0.01  C35.694,405.462,0,334.9,0,256C0,114.615,114.615,0,256,0S512,114.615,512,256z"/>
<path style="fill:#B16E60;" d="M423.152,441.334c0,4.054-1.097,7.858-3.009,11.118c-4.138,3.469-8.391,6.792-12.748,10.01h-0.01  c-1.985,0.596-4.096,0.909-6.28,0.909l-142.681,43.008l-131.908-38.452l-15.632-4.556c-2.173,0-4.274-0.313-6.248-0.899l-0.01-0.01  c-4.378-3.218-8.641-6.562-12.8-10.052c0,0-0.01,0-0.01-0.01c-1.891-3.25-2.978-7.032-2.978-11.065  c0-9.132,5.559-16.98,13.469-20.323c2.644-1.118,5.538-1.735,8.579-1.735l35.15-6.217l78.232-13.824h0.01l35.558-6.28l32.423,6.039  l108.847,20.281c3.041,0,5.945,0.616,8.579,1.735c2.633,1.118,5.016,2.727,7.001,4.723  C420.686,429.725,423.152,435.231,423.152,441.334z"/>
<path style="fill:#9E5B50;" d="M159.096,456.923c3.992,3.981,9.498,6.447,15.59,6.447h-63.801c-2.173,0-4.274-0.313-6.248-0.899  l-0.01-0.01c-4.378-3.218-8.641-6.562-12.8-10.052c0,0-0.01,0-0.01-0.01c-1.891-3.25-2.978-7.032-2.978-11.065  c0-9.132,5.559-16.98,13.469-20.323c2.644-1.118,5.538-1.735,8.579-1.735h63.801c-2.497,0-4.89,0.418-7.126,1.191  c-0.491,0.157-0.982,0.345-1.452,0.543c-7.91,3.344-13.469,11.191-13.469,20.323C152.639,447.415,155.105,452.932,159.096,456.923z"/>
<path style="fill:#FFFCA6;" d="M406.131,463.37c-31.075,22.538-67.406,38.264-106.82,44.972C285.236,510.746,270.764,512,256,512  c-14.764,0-29.236-1.254-43.321-3.657c-30.845-5.256-59.82-16.039-85.849-31.284c-7.22-4.221-14.211-8.788-20.95-13.688H406.131z"/>
<path style="fill:#FFFFFF;" d="M255.997,370.724c-3.916,0-7.09-3.173-7.09-7.09V46.522c0-3.916,3.173-7.09,7.09-7.09  s7.09,3.173,7.09,7.09v317.113C263.086,367.55,259.913,370.724,255.997,370.724z"/>
<path style="fill:#88D163;" d="M255.997,67.42c14.546,0,26.352,19.298,26.352,43.12s-11.805,43.12-26.352,43.12  c-14.558,0-26.352-19.298-26.352-43.12S241.439,67.42,255.997,67.42z"/>
<path style="fill:#6DBC4C;" d="M249.494,110.54c0-18.073,6.791-33.533,16.425-39.946c-3.064-2.04-6.411-3.173-9.922-3.173  c-14.558,0-26.352,19.299-26.352,43.12c0,23.822,11.794,43.12,26.352,43.12c3.511,0,6.859-1.134,9.922-3.173  C256.285,144.073,249.494,128.612,249.494,110.54z"/>
<path style="fill:#F9395E;" d="M416.69,328.545c3.999,3.989,6.466,9.5,6.466,15.596c0,12.175-9.877,22.043-22.053,22.043  l-142.682,43.002l-147.537-43.002c-6.088,0-11.598-2.467-15.587-6.456c-3.989-3.989-6.456-9.5-6.456-15.587  c0-12.185,9.868-22.053,22.043-22.053l148.955-26.326l141.264,26.326C407.189,322.09,412.7,324.557,416.69,328.545z"/>
<path style="fill:#D92F52;" d="M152.64,344.142c0-12.185,9.868-22.053,22.043-22.053h-63.801c-12.175,0-22.043,9.868-22.043,22.053  c0,6.088,2.467,11.598,6.456,15.588c3.989,3.988,9.499,6.455,15.587,6.455h63.801c-6.088,0-11.598-2.467-15.587-6.455  C155.108,355.741,152.64,350.23,152.64,344.142z"/>
<path style="fill:#B16E60;" d="M416.699,229.626c-3.989-3.989-9.5-6.456-15.596-6.456l-42.017-23.816l-89.322,4.254l-158.871,19.563  c-12.185,0-22.053,9.868-22.053,22.043c0,6.088,2.467,11.597,6.456,15.596c3.989,3.988,9.5,6.455,15.596,6.455l185.809,35.587  l66.636-8.507l37.765-27.081c12.185,0,22.053-9.877,22.053-22.053C423.154,239.125,420.687,233.614,416.699,229.626z"/>
<polygon style="fill:#FFFCA6;" points="437.012,366.186 437.012,421.01 255.997,421.01 74.982,421.01 74.982,366.186   110.882,366.186 401.102,366.186 "/>
<path style="fill:#9E5B50;" d="M152.64,245.222c0-12.185,9.868-22.053,22.043-22.053h-63.801c-12.175,0-22.043,9.868-22.043,22.053  c0,6.088,2.467,11.598,6.456,15.588c3.989,3.988,9.499,6.455,15.587,6.455h63.801c-6.088,0-11.598-2.467-15.587-6.455  C155.108,256.82,152.64,251.309,152.64,245.222z"/>
<polygon style="fill:#FFFCA6;" points="437.012,267.265 437.012,322.09 401.102,322.09 110.882,322.09 74.982,322.09   74.982,267.265 110.892,267.265 251.649,267.265 311.389,267.265 401.102,267.265 "/>
<polygon style="fill:#E2E088;" points="335.11,223.169 291.013,267.265 261.144,297.134 231.275,267.265 187.179,223.169 "/>
<polygon style="fill:#9E5B50;" points="335.109,223.169 291.015,267.264 231.278,267.264 187.183,223.169 "/>
<polygon style="fill:#FFFCA6;" points="437.012,168.345 437.012,223.169 401.102,223.169 355.485,223.169 207.553,223.169   110.892,223.169 74.982,223.169 74.982,168.345 255.997,168.345 "/>
<g>
	<path style="fill:#E2E088;" d="M126.513,376.975v-10.79h-25.766H74.982v54.825h5.112h13.759h21.057h6.493h5.112h48.17   C135.787,419.779,127.852,392.592,126.513,376.975z"/>
	<path style="fill:#E2E088;" d="M126.83,477.059c-7.22-4.221-14.211-8.788-20.95-13.688h20.637v10.794   C126.6,475.094,126.694,476.055,126.83,477.059z"/>
	<path style="fill:#E2E088;" d="M126.513,278.055v-10.79h-25.766H74.982v54.825h5.112h13.759h21.057h6.493h5.112h48.17   C135.787,320.859,127.852,293.672,126.513,278.055z"/>
	<path style="fill:#E2E088;" d="M126.513,179.134v-10.79h-25.766H74.982v54.825h5.112h13.759h21.057h6.493h5.112h48.17   C135.787,221.938,127.852,194.751,126.513,179.134z"/>
</g>
<polygon style="fill:#F2B54D;" points="355.485,223.169 311.389,267.265 281.518,297.134 251.649,267.265 207.553,223.169 "/>
<g>
</g>
<g>
</g>
<g>
</g>
<g>
</g>
<g>
</g>
<g>
</g>
<g>
</g>
<g>
</g>
<g>
</g>
<g>
</g>
<g>
</g>
<g>
</g>
<g>
</g>
<g>
</g>
<g>
</g>
</svg>
