<?xml version="1.0" encoding="iso-8859-1"?>
<!-- Generator: Adobe Illustrator 19.0.0, SVG Export Plug-In . SVG Version: 6.00 Build 0)  -->
<svg xmlns="http://www.w3.org/2000/svg" xmlns:xlink="http://www.w3.org/1999/xlink" version="1.1" id="Capa_1" x="0px" y="0px" viewBox="0 0 512 512" style="enable-background:new 0 0 512 512;" xml:space="preserve">
<path style="fill:#52C8D3;" d="M512,256c0,63.467-23.092,121.532-61.346,166.264c-7.523,8.809-15.632,17.084-24.273,24.795  c-1.724,1.536-3.459,3.051-5.224,4.535c-6.677,5.653-13.657,10.961-20.898,15.914c-34.095,23.301-74.104,38.578-117.332,43.092  c-8.85,0.93-17.836,1.4-26.927,1.4c-9.091,0-18.077-0.47-26.927-1.4c-1.014-0.104-2.027-0.219-3.03-0.345c-0.01,0-0.01,0-0.021,0  c-4.033-0.47-8.046-1.034-12.016-1.693c-0.01,0-0.01,0-0.021,0c-23.165-3.814-45.296-10.752-65.912-20.355  c-6.29-2.936-12.455-6.113-18.453-9.529c-1.954-1.108-3.887-2.247-5.799-3.406c-6.353-3.845-12.539-7.952-18.516-12.319  C41.472,416.413,0,341.044,0,256C0,114.615,114.615,0,256,0S512,114.615,512,256z"/>
<path style="fill:#F2EEED;" d="M159.96,23.287c3.437,0,6.794,0.326,10.059,0.92C173.476,11.759,184.882,2.62,198.43,2.62  c9.112,0,17.255,4.134,22.665,10.626c8.65-7.893,20.156-12.708,32.788-12.708c16.195,0,30.533,7.918,39.378,20.087  c10.51-11.838,25.833-19.306,42.908-19.306c19.748,0,37.162,9.98,47.482,25.168c7.493-4.737,16.366-7.489,25.886-7.489  c26.802,0,48.529,21.728,48.529,48.529s-21.728,48.529-48.529,48.529c-13.702,0-26.068-5.687-34.892-14.819  c-10.177,9.209-23.671,14.819-38.476,14.819c-13.314,0-25.558-4.548-35.294-12.158c-5.408,6.291-13.419,10.281-22.366,10.281  c-11.571,0-21.58-6.667-26.41-16.367c-2.728-0.098-5.402-0.41-7.998-0.939c-5.375,5.673-12.975,9.217-21.406,9.217  c-4.394,0-8.56-0.968-12.306-2.691c-9.021,18.772-28.212,31.73-50.431,31.73c-30.885,0-55.922-25.037-55.922-55.922  S129.075,23.287,159.96,23.287z"/>
<path style="fill:#E6E2E0;" d="M105.305,96.643v40.647c-20.083,0-38.599,6.834-53.352,18.307c-2.873,2.236-5.601,4.65-8.171,7.22  c-15.757,15.747-25.516,37.522-25.516,61.513v91.794c0,33.374,18.829,63.216,47.982,77.793c3.856,1.933,7.899,3.594,12.1,4.963  l26.958,8.788v55.286c5.977,4.368,12.163,8.474,18.516,12.319c1.912,1.16,3.845,2.299,5.799,3.406  c5.998,3.417,12.163,6.593,18.453,9.529c24.168,11.254,50.385,18.84,77.949,22.047c0.01,0,0.01,0,0.021,0  c1.003,0.125,2.017,0.24,3.03,0.345c8.85,0.93,17.836,1.4,26.927,1.4c9.091,0,18.077-0.47,26.927-1.4  c43.227-4.514,83.237-19.79,117.332-43.092c7.241-4.953,14.221-10.261,20.898-15.914c1.766-1.484,3.5-2.999,5.224-4.535  c8.641-7.711,16.75-15.987,24.273-24.795V96.643H105.305z M105.305,365.568l-14.555-4.744c-12.633-4.117-22.58-13.176-27.961-24.639  c-2.894-6.123-4.483-12.946-4.483-20.062v-91.794c0-25.913,21.086-46.999,47-46.999V365.568z"/>
<path style="fill:#D8D4D3;" d="M213.985,508.562c-23.165-3.814-45.296-10.752-65.912-20.355c-6.29-2.936-12.455-6.113-18.453-9.529  c-1.954-1.108-3.887-2.247-5.799-3.406c-6.353-3.845-12.539-7.952-18.516-12.319V96.643h81.586v277.765  C186.89,399.694,184.748,467.268,213.985,508.562z"/>
<path style="fill:#F9EF4A;" d="M426.381,190.067V447.06c-1.724,1.536-3.459,3.051-5.224,4.535  c-6.677,5.653-13.657,10.961-20.898,15.914c-34.095,23.301-74.104,38.578-117.332,43.092c-8.85,0.93-17.836,1.4-26.927,1.4  c-9.091,0-18.077-0.47-26.927-1.4c-1.014-0.104-2.027-0.219-3.03-0.345c-0.01,0-0.01,0-0.021,0  c-27.564-3.208-53.781-10.794-77.949-22.047c-6.29-2.936-12.455-6.113-18.453-9.529c-0.031-0.752-0.052-1.505-0.052-2.267V190.067  H426.381z"/>
<polygon style="fill:#F2EEED;" points="129.575,190.069 426.385,190.069 426.385,117.273 129.575,117.273 "/>
<g>
	<path style="fill:#D8D4D3;" d="M177.693,83.286c6.878,0,13.148-2.596,17.89-6.858c-0.722,0.059-1.45,0.096-2.188,0.096   c-14.788,0-26.777-11.988-26.777-26.776c0-7.91,3.432-15.017,8.886-19.919c-13.763,1.114-24.589,12.63-24.589,26.679   C150.918,71.298,162.906,83.286,177.693,83.286z"/>
	<path style="fill:#D8D4D3;" d="M224.626,50.341c4.521,0,8.643-1.706,11.76-4.508c-0.474,0.039-0.954,0.064-1.438,0.064   c-9.722,0-17.602-7.881-17.602-17.602c0-5.2,2.256-9.872,5.842-13.094c-9.048,0.732-16.164,8.302-16.164,17.539   C207.024,42.46,214.904,50.341,224.626,50.341z"/>
	<path style="fill:#D8D4D3;" d="M386.678,64.612c4.521,0,8.643-1.706,11.76-4.508c-0.474,0.039-0.954,0.064-1.438,0.064   c-9.722,0-17.602-7.881-17.602-17.602c0-5.2,2.256-9.872,5.842-13.094c-9.048,0.732-16.164,8.302-16.164,17.539   C369.076,56.732,376.956,64.612,386.678,64.612z"/>
	<path style="fill:#D8D4D3;" d="M300.512,84.834c8.091,0,15.467-3.053,21.045-8.067c-0.849,0.069-1.706,0.113-2.574,0.113   c-17.395,0-31.498-14.102-31.498-31.497c0-9.305,4.038-17.665,10.453-23.431c-16.191,1.31-28.924,14.856-28.924,31.385   C269.014,70.732,283.116,84.834,300.512,84.834z"/>
</g>
<g>
	<path style="fill:#DBCF48;" d="M214.006,508.562c-23.176-3.814-45.307-10.752-65.933-20.355c-6.29-2.936-12.455-6.113-18.453-9.529   c-0.031-0.752-0.052-1.505-0.052-2.267V190.067h57.323v184.341C186.89,399.694,184.748,467.278,214.006,508.562z"/>
	<circle style="fill:#DBCF48;" cx="327.617" cy="279.103" r="17.744"/>
	<circle style="fill:#DBCF48;" cx="304.65" cy="383.979" r="8.872"/>
	<circle style="fill:#DBCF48;" cx="231.8" cy="469.389" r="8.872"/>
	<circle style="fill:#DBCF48;" cx="229.752" cy="236.899" r="8.872"/>
	<circle style="fill:#DBCF48;" cx="240.724" cy="361.451" r="17.744"/>
</g>
<path style="fill:#FFFCA6;" d="M386.727,387.355h-4.547c-7.791,0-14.106-6.315-14.106-14.106V232.81  c0-7.791,6.315-14.106,14.106-14.106h4.547c7.791,0,14.106,6.315,14.106,14.106v140.439  C400.833,381.04,394.518,387.355,386.727,387.355z"/>
<g>
</g>
<g>
</g>
<g>
</g>
<g>
</g>
<g>
</g>
<g>
</g>
<g>
</g>
<g>
</g>
<g>
</g>
<g>
</g>
<g>
</g>
<g>
</g>
<g>
</g>
<g>
</g>
<g>
</g>
</svg>
