<?xml version="1.0" encoding="iso-8859-1"?>
<!-- Generator: Adobe Illustrator 19.0.0, SVG Export Plug-In . SVG Version: 6.00 Build 0)  -->
<svg xmlns="http://www.w3.org/2000/svg" xmlns:xlink="http://www.w3.org/1999/xlink" version="1.1" id="Capa_1" x="0px" y="0px" viewBox="0 0 512 512" style="enable-background:new 0 0 512 512;" xml:space="preserve">
<path style="fill:#F9EF4A;" d="M512,256c0,62.025-22.058,118.909-58.765,163.203c-22.727,27.449-51.085,50.071-83.289,66.111  C335.632,502.397,296.939,512,256,512c-40.051,0-77.949-9.195-111.7-25.59c-1.693-0.815-3.365-1.661-5.036-2.518  c-22.57-11.588-43.207-26.425-61.262-43.907C29.905,393.446,0,328.213,0,256C0,114.615,114.615,0,256,0S512,114.615,512,256z"/>
<path style="fill:#B16E60;" d="M359.214,323.949c-0.051-1.019-1.377-25.347-11.434-59.208c-9.276-31.23-28.09-76.806-65.051-116.59  C244.714,107.23,195,79.979,134.968,67.152c-4.635-0.984-9.194,1.965-10.184,6.6c-0.99,4.633,1.964,9.192,6.599,10.184  c52.8,11.279,97.021,34.312,131.612,68.513c-31.683,21.915-58.064,56.958-76.685,102.07c-15.244,36.93-19.974,67.298-20.169,68.572  l16.964,2.585c0.045-0.295,4.692-29.921,19.226-64.995c12.553-30.296,35.182-70.732,72.574-95.572  c61.668,70.407,67.098,158.409,67.17,159.705c0.232,4.585,4.022,8.147,8.562,8.147c0.146,0,0.294-0.003,0.44-0.011  C355.811,332.711,359.454,328.681,359.214,323.949z"/>
<path style="fill:#8CC371;" d="M404.3,30.584c0,34.435-13.957,65.599-36.517,88.159c-22.572,22.56-53.735,36.517-88.171,36.517  C279.613,86.402,335.44,30.584,404.3,30.584z"/>
<g>
	<path style="fill:#F9395E;" d="M455.199,397.521c0,7.481-0.679,14.743-1.964,21.682c-22.727,27.449-51.085,50.071-83.289,66.111   c-17.053-1.327-34.168-0.899-51.19,1.285c-2.079,0.261-4.18,0.397-6.322,0.397c-19.843,0-37.648-11.755-49.8-30.365   c-10.313-15.768-16.551-36.446-16.551-59.11s6.238-43.363,16.541-59.12c12.163-18.62,29.968-30.365,49.81-30.365   c14.232,0,27.397,6.06,38.212,16.342c10.794-10.282,23.97-16.342,38.201-16.342C425.503,308.036,455.199,348.097,455.199,397.521z"/>
	<path style="fill:#F9395E;" d="M262.635,456.631c-4.012,6.134-8.631,11.525-13.73,15.987c-10.386,9.101-22.768,14.378-36.07,14.378   c-2.152,0-4.253-0.125-6.322-0.397c-20.689-2.654-41.524-2.717-62.213-0.188c-24.545-11.922-46.905-27.648-66.299-46.425   c-5.068-12.633-7.941-27.094-7.941-42.475c0-49.413,29.706-89.464,66.361-89.464c14.221,0,27.408,6.05,38.201,16.332   c10.815-10.282,23.97-16.332,38.212-16.332c13.302,0,25.684,5.277,36.059,14.367c5.099,4.462,9.728,9.853,13.73,15.987   c-10.303,15.757-16.541,36.456-16.541,59.12S252.322,440.863,262.635,456.631z"/>
</g>
<path style="fill:#76B25D;" d="M404.3,30.584L279.613,155.26C279.613,86.402,335.44,30.584,404.3,30.584z"/>
<g>
	<path style="fill:#D92F52;" d="M139.264,483.892c-22.57-11.588-43.207-26.425-61.262-43.907   c-5.068-12.633-7.941-27.094-7.941-42.475c0-49.413,29.706-89.464,66.361-89.464c0,0-30.239,24.294-37.157,52.726   C90.091,398.503,93.09,447.018,139.264,483.892z"/>
	<path style="fill:#D92F52;" d="M318.777,486.599c-2.079,0.272-4.2,0.397-6.332,0.397c-36.655,0-66.361-40.051-66.361-89.485   c0-49.413,29.706-89.464,66.361-89.464c0,0-30.241,24.297-37.157,52.726C265.885,399.433,269.27,449.411,318.777,486.599z"/>
</g>
<g>
	<ellipse style="fill:#FF5B6E;" cx="212.114" cy="364.429" rx="13.584" ry="23.51"/>
	<ellipse style="fill:#FF5B6E;" cx="404.375" cy="364.429" rx="13.584" ry="23.51"/>
</g>
<g>
</g>
<g>
</g>
<g>
</g>
<g>
</g>
<g>
</g>
<g>
</g>
<g>
</g>
<g>
</g>
<g>
</g>
<g>
</g>
<g>
</g>
<g>
</g>
<g>
</g>
<g>
</g>
<g>
</g>
</svg>
