<?xml version="1.0" encoding="iso-8859-1"?>
<!-- Generator: Adobe Illustrator 19.0.0, SVG Export Plug-In . SVG Version: 6.00 Build 0)  -->
<svg xmlns="http://www.w3.org/2000/svg" xmlns:xlink="http://www.w3.org/1999/xlink" version="1.1" id="Capa_1" x="0px" y="0px" viewBox="0 0 512 512" style="enable-background:new 0 0 512 512;" xml:space="preserve">
<path style="fill:#F9EF4A;" d="M472.326,392.967c-1.087,1.724-2.205,3.438-3.344,5.141c-8.025,12.027-17.199,23.521-27.491,34.325  c-1.463,1.546-2.957,3.072-4.472,4.587c-1.358,1.358-2.717,2.685-4.096,4.002c-4.127,3.95-8.359,7.743-12.675,11.369  c-0.7,0.585-1.39,1.16-2.1,1.735c-6.489,5.329-13.187,10.282-20.052,14.869c-1.703,1.139-3.427,2.257-5.151,3.344  c-98.962,62.799-231.623,51.022-317.963-35.318c-99.976-99.976-99.976-262.061,0-362.037s262.061-99.976,362.037,0  C523.37,161.323,535.135,293.994,472.326,392.967z"/>
<path style="fill:#54A532;" d="M472.326,392.967c-1.087,1.724-2.205,3.438-3.344,5.141c-8.025,12.027-17.199,23.521-27.491,34.325  c-1.463,1.546-2.957,3.072-4.472,4.587c-1.358,1.358-2.717,2.685-4.096,4.002c-4.127,3.95-8.359,7.743-12.675,11.369  c-0.7,0.585-1.39,1.16-2.1,1.735c-6.489,5.329-13.187,10.282-20.052,14.869c-1.703,1.139-3.427,2.257-5.151,3.344  c-53.593-47.115-110.634-79.966-152.043-100.321c-12.466-6.134-23.531-11.128-32.643-15.026  c6.907-8.986,10.919-19.466,12.048-30.208c18.432,2.414,37.428-0.596,54.46-8.986c9.582,7.053,19.895,14.858,30.783,23.416  c2.999,2.341,6.05,4.765,9.132,7.231c9.571,7.638,23.343,6.928,32.005-1.745h0.01c8.652-8.662,9.383-22.444,1.745-32.005  c-2.487-3.072-4.911-6.123-7.252-9.122c-8.558-10.888-16.363-21.201-23.395-30.804c8.38-17.011,11.389-36.007,8.986-54.45  c10.731-1.139,21.222-5.141,30.208-12.037c3.897,9.112,8.903,20.167,15.015,32.632C392.36,282.322,425.201,339.374,472.326,392.967z  "/>
<g>
	<path style="fill:#3C8E1C;" d="M418.148,454.125c-6.489,5.329-13.187,10.282-20.052,14.869c-1.703,1.139-3.427,2.257-5.151,3.344   c-53.593-47.115-110.634-79.966-152.043-100.321c-12.466-6.134-23.531-11.128-32.643-15.026   c6.907-8.986,10.919-19.466,12.048-30.208c1.202,0.157,2.393,0.293,3.594,0.408c0.146,0.01,0.282,0.021,0.428,0.031   c1.066,0.094,2.163,0.178,3.239,0.24h0.125c2.403,0.115,4.796,0.157,7.199,0.094c13.699-0.313,27.324-3.574,39.873-9.759   c9.582,7.053,19.895,14.858,30.783,23.416c-1.599,0.899-3.187,1.755-4.817,2.55c-10.48,5.172-21.692,8.286-33.092,9.362   C309.531,374.127,365.715,407.229,418.148,454.125z"/>
	<path style="fill:#3C8E1C;" d="M356.984,208.273c3.905,9.117,8.902,20.168,15.028,32.634c-6.135,2.892-12.655,4.683-19.264,5.382   c2.41,18.439-0.6,37.443-8.991,54.45c-0.806,1.63-1.666,3.242-2.57,4.827c-8.552-10.882-16.362-21.198-23.401-30.798   c8.392-17.007,11.401-36.01,8.991-54.45C337.515,219.182,348.002,215.179,356.984,208.273z"/>
</g>
<path style="fill:#8CC371;" d="M418.824,99.88c9.508,2.712,18.477,7.796,25.958,15.277c23.454,23.454,23.462,61.458,0.017,84.903  c-20.907,20.907-53.364,23.156-76.776,6.803c-0.224,0.224-0.422,0.471-0.645,0.695c-1.885,1.885-3.869,3.604-5.919,5.192  c-0.636,0.488-1.273,0.959-1.927,1.414c-8.532,6.051-18.304,9.573-28.273,10.632c2.405,18.444-0.604,37.442-8.995,54.447  c-0.148,0.315-0.315,0.628-0.48,0.943c-4.415,8.68-10.252,16.831-17.509,24.09c-7.267,7.267-15.426,13.111-24.115,17.518  c-0.298,0.165-0.612,0.315-0.917,0.471c-17.021,8.407-36.02,11.417-54.455,9.003c-1.067,9.979-4.605,19.734-10.648,28.273  c-0.446,0.645-0.917,1.281-1.405,1.918c-1.579,2.058-3.307,4.051-5.184,5.928c-0.232,0.232-0.471,0.422-0.695,0.645  c6.382,9.144,9.92,19.659,10.632,30.34c0,0,0,0,0,0.017c1.116,16.659-4.696,33.68-17.427,46.411  c-23.445,23.445-61.466,23.454-84.919,0c-7.481-7.481-12.566-16.452-15.269-25.967c-24.901,5.803-52.141-0.983-71.552-20.395  c-29.885-29.885-29.894-78.339-0.008-108.224c2.555-2.555,5.266-4.869,8.069-6.993c-21.461-29.894-18.775-71.799,8.094-98.668  c11.095-11.095,24.743-18.046,39.061-20.907c-7.788-21.776-2.976-47.039,14.459-64.475c17.674-17.674,43.385-22.355,65.343-14.136  c0.017,0,0.017,0,0.017,0c2.671-14.84,9.706-29.067,21.188-40.55c26.876-26.876,68.774-29.555,98.659-8.085  c2.124-2.802,4.448-5.522,7.002-8.077c29.885-29.885,78.348-29.885,108.233,0C417.849,47.732,424.628,74.979,418.824,99.88z"/>
<path style="fill:#76B25D;" d="M163.338,85.032c-0.496,0.124-12.5,3.196-26.334,9.757c-29.308,13.901-42.792,48.203-31.338,78.551  l0,0c0,0-42.771,13.01-48.362,48.362c-4.649,29.396,6.2,40.922,19.841,54.563c0,0-58.283,38.442-26.049,85.556  c32.241,47.123,81.844,12.401,81.844,12.401s-6.903,42.816,34.722,52.083c36.023,8.021,49.462-26.958,49.826-27.918  c1.116,16.659-4.696,33.68-17.427,46.411c-23.445,23.445-61.466,23.454-84.919,0c-7.481-7.481-12.566-16.452-15.269-25.967  c-24.901,5.803-52.141-0.983-71.552-20.395c-29.885-29.885-29.894-78.339-0.008-108.224c2.555-2.555,5.266-4.869,8.069-6.993  c-21.461-29.894-18.775-71.799,8.094-98.668c11.095-11.095,24.743-18.046,39.061-20.907c-7.788-21.776-2.976-47.039,14.459-64.475  C115.67,81.494,141.381,76.815,163.338,85.032z"/>
<g>
	<path style="fill:#ACDD94;" d="M212.103,104.08c-11.2,11.2-14.895,27.054-11.109,41.335c1.874-7.066,5.568-13.749,11.109-19.29   c16.741-16.741,43.884-16.741,60.625,0c5.541,5.541,9.236,12.224,11.109,19.29c3.786-14.282,0.091-30.135-11.109-41.335   C255.987,87.339,228.845,87.339,212.103,104.08z"/>
	<path style="fill:#ACDD94;" d="M259.735,136.914c-9.281,9.281-12.342,22.417-9.206,34.252c1.552-5.855,4.614-11.393,9.206-15.984   c13.872-13.872,36.364-13.872,50.237,0c4.591,4.591,7.654,10.129,9.206,15.984c3.137-11.835,0.075-24.971-9.206-34.252   C296.1,123.042,273.607,123.042,259.735,136.914z"/>
	<path style="fill:#ACDD94;" d="M136.803,182.053c-12.228,12.228-16.264,29.538-12.129,45.131   c2.045-7.714,6.079-15.012,12.129-21.061c18.278-18.278,47.915-18.278,66.193,0c6.05,6.05,10.084,13.347,12.129,21.062   c4.134-15.594,0.099-32.903-12.129-45.132C184.717,163.774,155.082,163.774,136.803,182.053z"/>
</g>
<g>
</g>
<g>
</g>
<g>
</g>
<g>
</g>
<g>
</g>
<g>
</g>
<g>
</g>
<g>
</g>
<g>
</g>
<g>
</g>
<g>
</g>
<g>
</g>
<g>
</g>
<g>
</g>
<g>
</g>
</svg>
