<?xml version="1.0" encoding="iso-8859-1"?>
<!-- Generator: Adobe Illustrator 19.0.0, SVG Export Plug-In . SVG Version: 6.00 Build 0)  -->
<svg xmlns="http://www.w3.org/2000/svg" xmlns:xlink="http://www.w3.org/1999/xlink" version="1.1" id="Capa_1" x="0px" y="0px" viewBox="0 0 512 512" style="enable-background:new 0 0 512 512;" xml:space="preserve">
<path style="fill:#94F3FF;" d="M512,256c0,126.621-91.93,231.779-212.689,252.343C285.236,510.746,270.764,512,256,512  c-14.764,0-29.236-1.254-43.321-3.657C91.93,487.769,0,382.621,0,256C0,114.615,114.615,0,256,0S512,114.615,512,256z"/>
<path style="fill:#B16E60;" d="M495.745,264.16l-5.339,21.159l-24.712,97.897c-2.435,9.634-11.086,16.374-21.023,16.374H67.326  c-9.927,0-18.589-6.74-21.023-16.374l-24.712-97.897l-5.339-21.159c1.16,0.627,79.914-12.037,146.871-22.674  c47.647-7.565,89.328-14.106,92.871-14.106s45.234,6.541,92.881,14.106C415.841,252.122,494.585,264.787,495.745,264.16z"/>
<path style="fill:#F2B54D;" d="M464.596,230.044v44.387c-0.533,0.366-1.055,0.731-1.567,1.087c-6.76,4.744-9.843,6.907-18.359,6.907  c-8.526,0-11.609-2.163-18.359-6.907c-9.112-6.405-21.608-15.182-44.544-15.182c-22.925,0-35.412,8.777-44.534,15.182  c-6.75,4.744-9.832,6.907-18.348,6.907c-8.526,0-11.598-2.163-18.359-6.907c-9.112-6.405-21.608-15.182-44.534-15.182  s-35.412,8.777-44.534,15.182c-6.76,4.744-9.843,6.907-18.359,6.907c-8.516,0-11.598-2.163-18.348-6.907  c-9.112-6.405-21.608-15.182-44.534-15.182s-35.422,8.777-44.544,15.182c-6.75,4.744-12.319,0.888-18.348,6.907  c-10.125,10.125-15.485-24.806-22.235-29.55c-0.522-0.355,2.842-22.455,2.288-22.831C86.207,165.709,153.948,120.8,232.597,113.308  c7.701-0.742,15.506-1.118,23.395-1.118c7.889,0,15.694,0.376,23.395,1.118C358.048,120.8,425.799,165.709,464.596,230.044z"/>
<g>
	<path style="fill:#9E5B50;" d="M112.286,268.13c-0.142,0.1-0.277,0.194-0.422,0.296c-9.121,6.409-21.614,15.193-44.536,15.193   s-35.416-8.783-44.536-15.193c-2.538-1.773-4.555-3.187-6.536-4.264l30.05,119.052c2.434,9.631,11.091,16.376,21.022,16.376   h125.528C117.628,390.186,112.286,268.13,112.286,268.13z"/>
	<path style="fill:#9E5B50;" d="M495.745,264.16l-5.339,21.159c-0.387,0.261-0.784,0.543-1.202,0.836   c-9.112,6.405-21.608,15.193-44.534,15.193c-22.925,0-35.422-8.788-44.544-15.193c-6.75-4.744-9.832-6.907-18.359-6.907   c-8.516,0-11.598,2.163-18.348,6.907c-9.112,6.405-21.608,15.193-44.534,15.193c-22.936,0-35.422-8.788-44.544-15.193   c-6.75-4.744-9.832-6.907-18.348-6.907s-11.598,2.163-18.359,6.907c-9.122,6.405-21.608,15.193-44.534,15.193   s-35.412-8.788-44.534-15.193c-6.75-4.744-9.833-6.907-18.348-6.907c-7.199,0-10.512,1.536-15.433,4.88   c-0.909,0.616-1.87,1.296-2.926,2.027c-9.112,6.405-21.608,15.193-44.534,15.193s-35.412-8.788-44.534-15.193   c-0.418-0.293-0.815-0.575-1.202-0.836l-5.339-21.159c1.16,0.627,79.914-12.037,146.871-22.674   c4.556,2.414,8.317,5.057,11.63,7.387c6.75,4.744,9.832,6.907,18.348,6.907s11.598-2.163,18.359-6.907   c9.122-6.405,21.608-15.182,44.534-15.182s35.422,8.777,44.534,15.182c6.76,4.744,9.832,6.907,18.359,6.907   c8.516,0,11.598-2.163,18.348-6.907c3.312-2.33,7.084-4.974,11.64-7.387C415.841,252.122,494.585,264.787,495.745,264.16z"/>
</g>
<path style="fill:#E0941F;" d="M507.565,243.823v0.95c0,8.17-4.647,15.495-11.821,19.389c-1.982,1.077-3.998,2.491-6.536,4.264  c-9.121,6.409-21.613,15.193-44.536,15.193c-22.923,0-35.427-8.783-44.547-15.193c-6.745-4.74-9.827-6.907-18.357-6.907  c-8.518,0-11.6,2.167-18.345,6.907c-9.121,6.409-21.614,15.193-44.536,15.193c-22.934,0-35.427-8.783-44.547-15.193  c-6.745-4.74-9.827-6.907-18.345-6.907c-8.518,0-11.6,2.167-18.357,6.907c-9.121,6.409-21.614,15.193-44.536,15.193  c-22.923,0-35.416-8.783-44.536-15.193c-6.745-4.74-9.827-6.907-18.345-6.907c-7.196,0-10.511,1.541-15.436,4.879  c-0.904,0.614-1.866,1.298-2.92,2.028c-9.121,6.409-21.614,15.193-44.536,15.193c-22.923,0-35.416-8.783-44.536-15.193  c-2.538-1.773-4.555-3.187-6.536-4.264c-7.173-3.894-11.821-11.218-11.821-19.389v-0.95c0-17.082,18.264-27.987,33.295-19.863  c3.674,1.981,6.838,4.115,9.654,6.084c0.544,0.371,1.066,0.742,1.587,1.101c6.756,4.74,9.839,6.907,18.357,6.907  s11.6-2.167,18.345-6.907c8.216-5.771,19.168-13.454,38.011-14.926c2.074-0.174,4.253-0.255,6.536-0.255  c22.923,0,35.416,8.773,44.536,15.181c6.745,4.74,9.827,6.907,18.345,6.907c8.518,0,11.6-2.167,18.357-6.907  c9.121-6.409,21.614-15.181,44.536-15.181c22.923,0,35.416,8.773,44.536,15.181c6.756,4.74,9.827,6.907,18.357,6.907  c8.518,0,11.6-2.167,18.345-6.907c9.121-6.409,21.613-15.181,44.536-15.181c22.934,0,35.427,8.773,44.547,15.181  c6.745,4.74,9.827,6.907,18.357,6.907c8.518,0,11.6-2.167,18.357-6.907c0.51-0.359,1.031-0.719,1.564-1.089  c2.827-1.971,5.991-4.102,9.677-6.096C489.312,215.836,507.565,226.741,507.565,243.823z"/>
<path style="fill:#CC831C;" d="M114.784,266.398c-0.904,0.614-1.866,1.298-2.92,2.028c-9.121,6.409-21.614,15.193-44.536,15.193  c-22.923,0-35.416-8.783-44.536-15.193c-2.538-1.773-4.555-3.187-6.536-4.264c-7.173-3.894-11.821-11.218-11.821-19.389v-0.95  c0-17.082,18.264-27.987,33.295-19.863c3.674,1.981,6.838,4.115,9.654,6.084c0.544,0.371,1.066,0.742,1.587,1.101  c6.756,4.74,9.839,6.907,18.357,6.907s11.6-2.167,18.345-6.907c8.216-5.771,19.168-13.454,38.011-14.926  C117.45,228.7,111.666,246.511,114.784,266.398z"/>
<path style="fill:#E59F32;" d="M148.878,218.188c-5.343-1.367-11.484-2.225-18.658-2.225c-22.923,0-35.427,8.773-44.547,15.181  c-6.745,4.74-9.827,6.907-18.345,6.907s-11.6-2.167-18.357-6.907c-0.521-0.359-1.043-0.73-1.587-1.101  c42.623-70.634,120.106-117.858,208.61-117.858c16.062,0,31.753,1.553,46.935,4.531  C239.167,129.163,184.317,166.491,148.878,218.188z"/>
<path style="fill:#B16E60;" d="M299.053,144.79c-1.63,1.64-3.772,2.456-5.914,2.456c-2.132,0-4.274-0.815-5.904-2.456  l-22.883-22.873v34.753c0,4.608-3.741,8.359-8.359,8.359s-8.359-3.751-8.359-8.359v-34.753l-22.873,22.873  c-3.271,3.271-8.558,3.271-11.828,0c-3.26-3.26-3.26-8.547,0-11.818l19.665-19.665c7.701-0.742,15.506-1.118,23.395-1.118  c7.889,0,15.694,0.376,23.395,1.118l19.665,19.665C302.323,136.243,302.323,141.53,299.053,144.79z"/>
<g>
</g>
<g>
</g>
<g>
</g>
<g>
</g>
<g>
</g>
<g>
</g>
<g>
</g>
<g>
</g>
<g>
</g>
<g>
</g>
<g>
</g>
<g>
</g>
<g>
</g>
<g>
</g>
<g>
</g>
</svg>
