<?xml version="1.0" encoding="iso-8859-1"?>
<!-- Generator: Adobe Illustrator 19.0.0, SVG Export Plug-In . SVG Version: 6.00 Build 0)  -->
<svg xmlns="http://www.w3.org/2000/svg" xmlns:xlink="http://www.w3.org/1999/xlink" version="1.1" id="Capa_1" x="0px" y="0px" viewBox="0 0 512 512" style="enable-background:new 0 0 512 512;" xml:space="preserve">
<path style="fill:#94F3FF;" d="M509.482,291.881c-0.376,2.696-0.794,5.392-1.264,8.077c-8.077,46.613-29.121,91.408-63.122,128.606  c-1.87,2.058-3.793,4.086-5.757,6.102c-0.512,0.522-1.024,1.055-1.546,1.578c-1.034,1.045-2.069,2.079-3.124,3.093  c-1.829,1.776-3.668,3.521-5.527,5.235c-33.269,30.595-72.672,50.782-114.029,60.541c-4.744,1.128-9.519,2.111-14.315,2.957  c-2.654,0.47-5.319,0.899-7.993,1.285c-20.532,2.967-41.347,3.438-61.962,1.411c-19.435-1.902-38.692-6.029-57.365-12.372  c-0.324-0.115-0.648-0.219-0.972-0.334c-35.631-12.257-69.089-32.611-97.52-61.043c-99.976-99.976-99.976-262.06,0-362.035  s262.06-99.976,362.035,0c28.212,28.212,48.473,61.377,60.75,96.705c6.698,19.226,11.034,39.09,12.999,59.152  C512.763,251.151,512.334,271.662,509.482,291.881z"/>
<path style="fill:#F2B54D;" d="M509.482,291.881c-0.376,2.696-0.794,5.392-1.264,8.077c-8.077,46.613-29.121,91.408-63.122,128.606  c0,0.01,0.01,0.021,0.021,0.031c-1.881,2.038-3.814,4.065-5.778,6.071c-0.512,0.522-1.024,1.055-1.546,1.578  c-1.034,1.045-2.069,2.079-3.124,3.093c-1.808,1.787-3.647,3.532-5.496,5.256c-0.01-0.01-0.021-0.021-0.031-0.021  c-37.094,34.105-81.794,55.275-128.345,63.498c-2.654,0.47-5.319,0.899-7.993,1.285c-20.532,2.967-41.347,3.438-61.962,1.411  c-19.435-1.902-38.692-6.029-57.365-12.372c-1.515-1.463-3.009-2.926-4.504-4.409C40.334,366.56,8.59,190.035,98.075,99.693  c89.485-90.31,266.302-60.249,394.929,67.187c1.609,1.599,3.208,3.197,4.765,4.807c6.698,19.226,11.034,39.09,12.999,59.152  C512.763,251.151,512.334,271.662,509.482,291.881z"/>
<g>
	
		<ellipse transform="matrix(-0.7071 -0.7071 0.7071 -0.7071 111.5376 283.3623)" style="fill:#E59F32;" cx="114.455" cy="118.581" rx="10.47" ry="29.403"/>
	<path style="fill:#E59F32;" d="M509.482,291.881c-0.376,2.696-0.794,5.392-1.264,8.077l-261.82-174.686   C248.435,125.993,377.48,172.032,509.482,291.881z"/>
	<path style="fill:#E59F32;" d="M300.795,508.07c-2.654,0.47-5.319,0.899-7.993,1.285   C172.67,377.197,126.548,247.891,125.827,245.843L300.795,508.07z"/>
	<path style="fill:#E59F32;" d="M445.116,428.595c-1.881,2.038-3.814,4.065-5.778,6.071c-0.512,0.522-1.024,1.055-1.546,1.578   c-1.034,1.045-2.069,2.079-3.124,3.093c-1.808,1.787-3.647,3.532-5.496,5.256c-0.01-0.01-0.021-0.021-0.031-0.021   C290.68,323.897,197.789,197.757,196.347,195.793c1.964,1.442,128.083,94.312,248.748,232.771   C445.095,428.574,445.106,428.585,445.116,428.595z"/>
	<path style="fill:#E59F32;" d="M315.11,505.113c-4.744,1.128-9.519,2.111-14.315,2.957c-2.654,0.47-5.319,0.899-7.993,1.285   c-20.532,2.967-41.347,3.438-61.962,1.411c-19.435-1.902-38.692-6.029-57.365-12.372c-0.324-0.115-0.648-0.219-0.972-0.334   c-1.536-1.494-3.072-3.009-4.598-4.535C39.874,365.484,8.956,188.813,98.869,98.91C98.869,98.91,40.094,354.146,315.11,505.113z"/>
</g>
<g>
</g>
<g>
</g>
<g>
</g>
<g>
</g>
<g>
</g>
<g>
</g>
<g>
</g>
<g>
</g>
<g>
</g>
<g>
</g>
<g>
</g>
<g>
</g>
<g>
</g>
<g>
</g>
<g>
</g>
</svg>
