<?xml version="1.0" encoding="iso-8859-1"?>
<!-- Generator: Adobe Illustrator 19.0.0, SVG Export Plug-In . SVG Version: 6.00 Build 0)  -->
<svg xmlns="http://www.w3.org/2000/svg" xmlns:xlink="http://www.w3.org/1999/xlink" version="1.1" id="Capa_1" x="0px" y="0px" viewBox="0 0 512 512" style="enable-background:new 0 0 512 512;" xml:space="preserve">
<path style="fill:#8CC371;" d="M437.022,74.982c80.587,80.587,96.214,201.546,46.873,297.775  c-5.474,10.691-11.755,21.064-18.833,31.055c-8.253,11.652-17.599,22.772-28.04,33.211c-7.662,7.662-15.693,14.733-24.028,21.22  c-3.022,2.357-6.089,4.625-9.191,6.827c-9.989,7.078-20.378,13.359-31.062,18.841c-96.237,49.318-217.18,33.692-297.76-46.888  c-99.975-99.975-99.975-262.066,0-362.041S337.048-24.993,437.022,74.982z"/>
<path style="fill:#FCF4D0;" d="M468.202,350.768c6.539,6.539,11.784,13.986,15.693,21.989  c-5.474,10.691-11.755,21.064-18.833,31.055c-8.253,11.652-17.599,22.772-28.04,33.211c-7.662,7.662-15.693,14.733-24.028,21.22  c-3.022,2.357-6.089,4.625-9.191,6.827c-9.989,7.078-20.378,13.359-31.062,18.841c-13.314-6.502-25.106-16.713-33.714-30.434  c-9.938-15.833-20.732-31.077-32.369-45.683c-11.63-14.585-24.087-28.505-37.32-41.738l-27.412-27.412l-16.38-96.945l113.09,0.236  l27.412,27.412c26.451,26.451,55.77,49.814,87.422,69.689C458.951,342.479,463.85,346.417,468.202,350.768z"/>
<path style="fill:#EAE1B8;" d="M338.636,241.935l18.39,18.39l-66.823,66.823l9.022,9.022c13.233,13.233,25.683,27.16,37.32,41.738  c11.63,14.615,22.425,29.857,32.362,45.691c10.788,17.186,26.577,28.868,44.088,34.645c-3.022,2.357-6.089,4.625-9.191,6.827  c-9.989,7.078-20.378,13.359-31.062,18.841c-13.314-6.502-25.106-16.713-33.714-30.434c-9.938-15.833-20.732-31.076-32.369-45.683  c-11.63-14.585-24.087-28.505-37.32-41.738l-27.412-27.412l14.201-64.975L338.636,241.935z"/>
<path style="fill:#F9395E;" d="M436.961,110.591c9.729,7.978,10.355,22.669,1.473,31.551l-99.795,99.795l-96.709,96.709  l-69.356,69.356l-30.439,30.439c-71.565-158.517-21.126-306.888-15.859-312.156C211.284,41.278,345.853,36.051,436.961,110.591z"/>
<path style="fill:#D92F52;" d="M160.301,98.142c-11.994,8.134-23.395,17.514-34.023,28.14c-5.267,5.267-10.216,10.717-14.872,16.345  c-53.4,64.519-66.479,151.179-39.278,226.553c8.687,24.114,21.516,47.09,38.459,67.785c7.978,9.729,22.656,10.369,31.551,1.473  L172.577,408l69.356-69.356C233.036,347.54,59.436,267.881,160.301,98.142z"/>
<g>
</g>
<g>
</g>
<g>
</g>
<g>
</g>
<g>
</g>
<g>
</g>
<g>
</g>
<g>
</g>
<g>
</g>
<g>
</g>
<g>
</g>
<g>
</g>
<g>
</g>
<g>
</g>
<g>
</g>
</svg>
