<?xml version="1.0" encoding="iso-8859-1"?>
<!-- Generator: Adobe Illustrator 19.0.0, SVG Export Plug-In . SVG Version: 6.00 Build 0)  -->
<svg xmlns="http://www.w3.org/2000/svg" xmlns:xlink="http://www.w3.org/1999/xlink" version="1.1" id="Capa_1" x="0px" y="0px" viewBox="0 0 512 512" style="enable-background:new 0 0 512 512;" xml:space="preserve">
<path style="fill:#EAA7F4;" d="M498.578,337.587c-45.059,133.973-190.192,206.05-324.164,160.991S-31.636,308.387,13.422,174.414  c6.344-18.862,14.666-36.496,24.673-52.748c6.619-10.768,13.98-20.923,21.977-30.444c65.736-78.106,174.898-112.313,277.514-77.8  C471.558,58.482,543.636,203.614,498.578,337.587z"/>
<g>
	<path style="fill:#E6D7D8;" d="M200.496,373.973l-0.003,0.009l-29.754,14.769L6.272,55.69c-2.609-5.285-2.177-11.557,1.1-16.457   c0.07-0.104,0.14-0.209,0.21-0.313c7.028-10.475,22.777-9.4,28.361,1.911l153.799,311.505L200.496,373.973z"/>
	<path style="fill:#E6D7D8;" d="M360.662,452.628c-5.901,2.931-11.917,5.415-18.001,7.447   c-66.058,22.242-140.047-7.14-171.923-71.324l21.289-10.574l232.512-115.474c13.014,26.187,17.166,54.475,13.608,81.438   C432.173,389.337,404.55,430.832,360.662,452.628z"/>
</g>
<g>
	<path style="fill:#CCBFBF;" d="M342.662,460.075c-66.058,22.242-140.047-7.14-171.923-71.324l21.289-10.574l55.566,8.527   C247.594,386.705,253.261,438.603,342.662,460.075z"/>
	<path style="fill:#CCBFBF;" d="M414.938,289.122c-17.382,20.78-54.494,47.336-100.606,70.236   c-23.512,11.677-46.383,20.925-66.739,27.347c-19.543,6.167-36.769,9.742-50.018,10.367c-14.08,0.675-23.683-1.97-26.837-8.32   c-9.229-18.567,40.108-61.84,110.193-96.648c16.115-8.004,31.921-14.855,46.817-20.447c0.014-0.006,0.014-0.006,0.014-0.006   c49.908-18.725,89.669-23.238,96.776-8.946C427.694,269.056,423.985,278.311,414.938,289.122z"/>
</g>
<path style="fill:#E6D7D8;" d="M247.594,386.705c-19.543,6.167-36.769,9.742-50.018,10.367c-14.08,0.675-23.683-1.97-26.837-8.32  c-9.229-18.567,40.108-61.84,110.193-96.647c16.115-8.004,31.921-14.855,46.817-20.447  C325.992,272.719,176.889,362.926,247.594,386.705z"/>
<g>
</g>
<g>
</g>
<g>
</g>
<g>
</g>
<g>
</g>
<g>
</g>
<g>
</g>
<g>
</g>
<g>
</g>
<g>
</g>
<g>
</g>
<g>
</g>
<g>
</g>
<g>
</g>
<g>
</g>
</svg>
