<?xml version="1.0" encoding="iso-8859-1"?>
<!-- Generator: Adobe Illustrator 19.0.0, SVG Export Plug-In . SVG Version: 6.00 Build 0)  -->
<svg xmlns="http://www.w3.org/2000/svg" xmlns:xlink="http://www.w3.org/1999/xlink" version="1.1" id="Capa_1" x="0px" y="0px" viewBox="0 0 512 512" style="enable-background:new 0 0 512 512;" xml:space="preserve">
<path style="fill:#52C8D3;" d="M511.999,255.503c0,0,0,0,0,0.01c0.021,9.08-0.449,18.15-1.39,27.199  c-5.663,54.534-28.819,107.564-69.435,150.061c-0.637,0.679-1.285,1.348-1.944,2.017c-0.731,0.752-1.463,1.494-2.205,2.236  c-0.867,0.867-1.745,1.735-2.623,2.591c-0.773,0.752-1.546,1.505-2.33,2.236c-24.221,22.967-51.828,40.292-81.159,51.974  c-4.18,1.672-8.401,3.218-12.654,4.66c-18.088,6.123-36.729,10.167-55.548,12.121c-9.049,0.94-18.119,1.411-27.199,1.39  c-0.01,0-0.01,0-0.01,0c-65.349-0.115-130.656-25.109-180.52-74.973c-99.978-99.978-99.978-262.065,0-362.043  s262.065-99.978,362.043,0C486.89,124.847,511.884,190.154,511.999,255.503z"/>
<path style="fill:#F2B54D;" d="M175.57,0.258l93.086,177.219l-89.774,89.774l-31.116-16.341L1.671,174.157  c14.49-14.49,30.726,1.745,45.216-12.745s-1.745-30.726,12.745-45.216c14.49-14.49,30.726,1.745,45.216-12.745  s-1.745-30.726,12.745-45.216c14.498-14.498,30.734,1.738,45.224-12.753C177.307,30.992,161.072,14.756,175.57,0.258z"/>
<g>
	<polygon style="fill:#E59F32;" points="191.683,237.064 105.173,162.111 203.748,220.288  "/>
	<polygon style="fill:#E59F32;" points="221.701,202.337 163.523,103.76 238.476,190.27  "/>
</g>
<path style="fill:#F2B54D;" d="M511.999,255.503c0,0,0,0,0,0.01c0.021,9.08-0.449,18.15-1.39,27.199  c-5.663,54.534-28.819,107.564-69.435,150.061c-0.637,0.679-1.285,1.348-1.944,2.017c-0.731,0.752-1.463,1.494-2.205,2.236  c-0.867,0.867-1.745,1.735-2.623,2.591c-0.773,0.752-1.546,1.505-2.33,2.236c-24.221,22.967-51.828,40.292-81.159,51.974  c-21.995,8.777-44.963,14.368-68.202,16.781c-9.049,0.94-18.119,1.411-27.199,1.39c-0.01,0-0.01,0-0.01,0  c-19.017-10.063-36.98-23.176-53.134-39.331c-20.313-20.303-35.83-43.479-46.467-67.993c-21.494-49.456-23.176-104.304-4.577-151.9  c0.293-0.784,0.606-1.567,0.92-2.341c2.048-5.016,4.316-9.937,6.813-14.775c3.145-6.081,6.646-12.017,10.512-17.753  c2.853-4.232,5.893-8.359,9.153-12.382c3.929-4.88,8.161-9.592,12.685-14.117c0.69-0.69,1.379-1.369,2.069-2.038  c0.825-0.784,1.641-1.578,2.476-2.351c1.285-1.202,2.591-2.372,3.908-3.521c2.351-2.079,4.744-4.075,7.179-6.008  c4.075-3.208,8.255-6.217,12.539-9.039c11.066-7.262,22.79-13.197,34.973-17.816c47.188-17.868,101.294-15.966,150.123,5.266  c24.514,10.637,47.69,26.154,67.993,46.467C488.823,218.524,501.936,236.486,511.999,255.503z"/>
<g>
	<path style="fill:#E59F32;" d="M338.261,498.488c-18.088,6.123-36.729,10.167-55.548,12.121c-9.049,0.94-18.119,1.411-27.199,1.39   c-0.01,0-0.01,0-0.01,0c-19.017-10.063-36.98-23.176-53.134-39.331c-20.313-20.303-35.83-43.479-46.467-67.993   c-21.494-49.456-23.176-104.304-4.577-151.9c0.293-0.784,0.606-1.567,0.92-2.341c2.048-5.016,4.316-9.937,6.813-14.775   c3.145-6.081,6.646-12.017,10.512-17.753c2.853-4.232,5.893-8.359,9.153-12.382c3.929-4.88,8.161-9.592,12.685-14.117   c0.69-0.69,1.379-1.369,2.069-2.038c0.825-0.784,1.641-1.578,2.476-2.351c1.285-1.202,2.591-2.372,3.908-3.521   c2.351-2.069,4.754-4.065,7.189-5.977c0.554-0.439,1.097-0.867,1.651-1.296c-0.46,0.585-0.909,1.191-1.358,1.776   c-7.764,10.345-14.274,21.358-19.54,32.873c-2.539,5.549-4.786,11.222-6.75,16.98c-2.111,6.175-3.887,12.466-5.329,18.84   c-1.296,5.695-2.33,11.463-3.093,17.283c-4.713,35.799,0.585,73.364,15.736,108.232c10.648,24.503,26.165,47.68,46.467,67.993   C264.751,470.108,300.853,489.596,338.261,498.488z"/>
	<path style="fill:#E59F32;" d="M175.724,246.69l-26.838,4.286l-1.12-0.065L1.671,174.157c14.49-14.49,30.726,1.745,45.216-12.745   L175.724,246.69z"/>
</g>
<path style="fill:#F9395E;" d="M511.999,255.503c0.021,9.08-0.449,18.161-1.39,27.21c-5.663,54.534-28.819,107.564-69.435,150.061  c-0.637,0.679-1.285,1.348-1.944,2.017c-0.731,0.752-1.463,1.494-2.205,2.236c-0.867,0.867-1.745,1.735-2.623,2.591  c-24.775,24.075-53.207,42.152-83.489,54.21c-21.995,8.777-44.963,14.368-68.202,16.781c-9.049,0.94-18.129,1.411-27.21,1.39  c-19.017-10.063-36.98-23.176-53.134-39.331c-20.313-20.303-35.83-43.479-46.467-67.993l248.774-248.774  c24.514,10.637,47.69,26.154,67.993,46.467C488.823,218.524,501.936,236.486,511.999,255.503z"/>
<path style="fill:#D92F52;" d="M338.261,498.488c-18.088,6.123-36.729,10.167-55.548,12.121c-9.049,0.94-18.119,1.411-27.199,1.39  c-0.01,0-0.01,0-0.01,0c-19.017-10.063-36.98-23.176-53.134-39.331c-20.313-20.303-35.83-43.479-46.467-67.993l32.466-32.466  c10.648,24.503,26.165,47.68,46.467,67.993C264.751,470.108,300.853,489.596,338.261,498.488z"/>
<ellipse transform="matrix(-0.7071 -0.7071 0.7071 -0.7071 337.5021 814.8354)" style="fill:#F2B54D;" cx="337.509" cy="337.519" rx="53.084" ry="49.103"/>
<g>
</g>
<g>
</g>
<g>
</g>
<g>
</g>
<g>
</g>
<g>
</g>
<g>
</g>
<g>
</g>
<g>
</g>
<g>
</g>
<g>
</g>
<g>
</g>
<g>
</g>
<g>
</g>
<g>
</g>
</svg>
