<?xml version="1.0" encoding="iso-8859-1"?>
<!-- Generator: Adobe Illustrator 19.0.0, SVG Export Plug-In . SVG Version: 6.00 Build 0)  -->
<svg xmlns="http://www.w3.org/2000/svg" xmlns:xlink="http://www.w3.org/1999/xlink" version="1.1" id="Capa_1" x="0px" y="0px" viewBox="0 0 512 512" style="enable-background:new 0 0 512 512;" xml:space="preserve">
<path style="fill:#94F3FF;" d="M437.02,74.985c63.267,63.267,86.498,151.413,69.688,232.945  c-6.982,33.847-20.858,66.563-41.648,95.881c-8.254,11.652-17.599,22.771-28.04,33.211c-10.44,10.44-21.56,19.786-33.219,28.047  c-0.813,0.576-1.633,1.145-2.453,1.715c-28.69,19.838-60.527,33.145-93.443,39.92c-81.532,16.809-169.663-6.421-232.923-69.681  c-99.975-99.975-99.975-262.064,0-362.038S337.046-24.989,437.02,74.985z"/>
<path style="fill:#F2B54D;" d="M416.709,193.283l3.931,5.009l16.935,21.575l69.134,88.064  c-6.982,33.847-20.858,66.563-41.648,95.881c-8.254,11.652-17.599,22.771-28.04,33.211c-1.419,1.419-2.844,2.815-4.292,4.189  c-9.185,8.77-18.849,16.72-28.926,23.857c-0.813,0.576-1.633,1.145-2.453,1.715c-28.69,19.838-60.527,33.145-93.443,39.92  l-109.623-86.054l-5.009-3.931L416.709,193.283z"/>
<g>
	<polygon style="fill:#E59F32;" points="416.709,193.283 420.64,198.292 437.574,219.867 234.603,422.837 210.879,399.112  "/>
	<path style="fill:#E59F32;" d="M432.727,441.212c-9.185,8.77-18.849,16.72-28.926,23.857c-0.813,0.576-1.633,1.145-2.453,1.715   c-28.69,19.838-60.527,33.145-93.443,39.92L198.282,420.65l-5.009-3.931l73.715-73.715l3.59,3.31l1.064,0.975   C271.642,347.29,303.819,426.457,432.727,441.212z"/>
</g>
<path style="fill:#B16E60;" d="M422.197,110.57c23.792,23.792,23.792,62.368,0,86.16l-1.023,1.023l-32.989,32.989l-40.725,40.725  l-38,38l-38.009,38.009l-40.716,40.716l-32.998,32.998l-1.015,1.015c-11.896,11.896-27.488,17.844-43.08,17.844  s-31.184-5.948-43.08-17.844c-63.889-63.889-63.889-167.463,0-231.352l80.28-80.28c31.94-31.94,73.8-47.911,115.676-47.911  C348.388,62.651,390.248,78.621,422.197,110.57z"/>
<path style="fill:#9E5B50;" d="M194.798,337.968c-63.229-63.229-63.872-165.318-1.952-229.35c-0.669,0.648-1.341,1.29-2.002,1.952  l-80.28,80.28c-63.889,63.889-63.889,167.463,0,231.352c11.896,11.896,27.488,17.844,43.08,17.844s31.184-5.949,43.08-17.844  l1.015-1.015l32.998-32.998l40.716-40.716l9.506-9.506c-11.896,11.896-27.488,17.844-43.08,17.844  C222.286,355.812,206.694,349.864,194.798,337.968z"/>
<g>
	<circle style="fill:#FCF4D0;" cx="227.047" cy="117.029" r="9.117"/>
	<circle style="fill:#FCF4D0;" cx="172.033" cy="172.043" r="9.117"/>
	<circle style="fill:#FCF4D0;" cx="117.03" cy="227.046" r="9.117"/>
	<circle style="fill:#FCF4D0;" cx="129.046" cy="290.649" r="9.117"/>
	<circle style="fill:#FCF4D0;" cx="292.363" cy="127.332" r="9.117"/>
	<circle style="fill:#FCF4D0;" cx="183.485" cy="236.21" r="9.117"/>
	<circle style="fill:#FCF4D0;" cx="237.924" cy="181.771" r="9.117"/>
</g>
<g>
</g>
<g>
</g>
<g>
</g>
<g>
</g>
<g>
</g>
<g>
</g>
<g>
</g>
<g>
</g>
<g>
</g>
<g>
</g>
<g>
</g>
<g>
</g>
<g>
</g>
<g>
</g>
<g>
</g>
</svg>
