<?xml version="1.0" encoding="iso-8859-1"?>
<!-- Generator: Adobe Illustrator 19.0.0, SVG Export Plug-In . SVG Version: 6.00 Build 0)  -->
<svg xmlns="http://www.w3.org/2000/svg" xmlns:xlink="http://www.w3.org/1999/xlink" version="1.1" id="Capa_1" x="0px" y="0px" viewBox="0 0 512 512" style="enable-background:new 0 0 512 512;" xml:space="preserve">
<path style="fill:#665F60;" d="M512,256c0,60.113-20.72,115.388-55.411,159.065c-13.876,17.492-29.999,33.113-47.919,46.456  c-10.752,7.993-22.152,15.172-34.116,21.431c-23.207,12.152-48.515,20.846-75.243,25.391C285.236,510.746,270.764,512,256,512  c-14.764,0-29.236-1.254-43.321-3.657C91.93,487.769,0,382.621,0,256C0,114.615,114.615,0,256,0S512,114.615,512,256z"/>
<path style="fill:#8CC371;" d="M145.314,156.145c-2.079-1.956-3.361-4.743-3.321-7.826c0.011-0.845,0.418-20.974,12.514-44.58  c11.051-21.564,34.373-50.491,82.728-65.834c5.569-1.768,11.516,1.311,13.285,6.885c1.767,5.569-1.316,11.517-6.885,13.284  c-78.118,24.789-80.423,87.902-80.483,90.577c-0.131,5.823-4.943,10.47-10.768,10.366  C149.643,158.967,147.163,157.885,145.314,156.145z"/>
<path style="fill:#F9395E;" d="M456.589,415.065c-13.876,17.492-29.999,33.113-47.919,46.456  c-10.752,7.993-22.152,15.172-34.116,21.431c-74.282,0.073-148.584-28.233-205.26-84.908  c-14.649-14.649-27.397-30.469-38.254-47.156c-21.932-33.74-36.133-71.043-42.59-109.39c-0.345-2.069-0.616-4.127-0.815-6.175  c-0.219-2.152-0.355-4.305-0.408-6.437c16.415-1.505,26.373-34.252,38.745-48.264c0.449-0.512,0.909-1.003,1.379-1.463  c0,0.073-0.115,0.867-0.272,1.975c-0.408,2.8-1.128,7.596-1.128,7.753c6.29,2.779,12.33,2.445,18.223,0.178  c16.144-6.228,31.159-26.958,47.135-37.721c0.627,1.014,2.727,2.999,5.705,5.548c11.651,9.958,36.76,28.568,40.187,31.995  c14.033,14.033,13.04,46.916,31.441,47.637c0.157,0.69,0.313,1.379,0.481,2.069c9.425,40.95,30.093,79.82,61.994,111.72  C366.571,385.755,410.645,407.343,456.589,415.065z"/>
<path style="fill:#8CC371;" d="M275.33,238.885c-19.805-0.172-39.581-7.52-55.138-22.154c-4.768-4.485-8.861-9.419-12.305-14.654  c-13.192,9.496-28.625,14.599-44.244,15.226c-11.542,0.473-23.179-1.486-34.082-5.913c-0.048,0.051-0.096,0.122-0.154,0.184  c-13.579,14.437-31.177,22.83-49.432,25.066c-2.724-47.591,30.604-89.798,76.766-98.786c6.478-1.266,13.216-1.882,20.146-1.754  l1.448,0.026c14.869,0.274,28.933,3.975,41.416,10.388c26.574,13.608,46.058,39.468,51.095,70.68  C272.014,224.475,273.514,231.716,275.33,238.885z"/>
<path style="fill:#D92F52;" d="M408.67,461.521c-10.752,7.993-22.152,15.172-34.116,21.431  c-74.282,0.073-148.584-28.233-205.26-84.908c-14.649-14.649-27.397-30.469-38.254-47.156c-21.932-33.74-36.133-71.043-42.59-109.39  c-0.345-2.069-0.616-4.127-0.815-6.175c-0.219-2.152-0.355-4.305-0.408-6.437c16.415-1.505,26.373-34.252,38.745-48.264l1.108,0.512  l17.095,7.931l5.214,2.414c0,0-0.418,9.644,1.066,25.307C156.4,279.448,192.836,438.45,408.67,461.521z"/>
<path style="fill:#76B25D;" d="M129.56,211.391c-0.048,0.051-0.096,0.122-0.154,0.184c-13.579,14.437-31.177,22.83-49.432,25.066  c-2.724-47.591,30.604-89.797,76.766-98.786c6.478-1.266,13.216-1.882,20.146-1.754l1.448,0.026  c14.869,0.274,28.933,3.975,41.416,10.388l-1.311,2.156c0,0-55.591,9.685-54.787,68.542c0.001,0.04,0.002,0.06-0.007,0.09  C152.101,217.778,140.464,215.818,129.56,211.391z"/>
<g>
</g>
<g>
</g>
<g>
</g>
<g>
</g>
<g>
</g>
<g>
</g>
<g>
</g>
<g>
</g>
<g>
</g>
<g>
</g>
<g>
</g>
<g>
</g>
<g>
</g>
<g>
</g>
<g>
</g>
</svg>
