<?xml version="1.0" encoding="iso-8859-1"?>
<!-- Generator: Adobe Illustrator 19.0.0, SVG Export Plug-In . SVG Version: 6.00 Build 0)  -->
<svg xmlns="http://www.w3.org/2000/svg" xmlns:xlink="http://www.w3.org/1999/xlink" version="1.1" id="Capa_1" x="0px" y="0px" viewBox="0 0 512 512" style="enable-background:new 0 0 512 512;" xml:space="preserve">
<path style="fill:#665F60;" d="M512,256c0,48.588-13.542,94.02-37.052,132.723c-1.526,2.508-3.082,4.984-4.692,7.429  c-8.255,12.591-17.575,24.419-27.867,35.328c-3.971,4.221-8.087,8.307-12.34,12.246c-6.144,5.705-12.56,11.097-19.247,16.175  c-0.125,0.105-0.251,0.199-0.387,0.303c-6.98,5.287-14.242,10.219-21.755,14.775c-0.219,0.136-0.439,0.261-0.658,0.387  C349.466,498.625,304.295,512,256,512C114.615,512,0,397.385,0,256S114.615,0,256,0S512,114.615,512,256z"/>
<path style="fill:#F2EEED;" d="M470.256,396.152c-8.255,12.591-17.575,24.419-27.867,35.328  c-9.718,10.324-20.281,19.832-31.587,28.421c-0.125,0.104-0.251,0.199-0.387,0.303c-6.98,5.287-14.242,10.219-21.755,14.775  L150.805,237.124c-37.47,13.187-78.618,6.343-109.704-24.722c-18.881-18.902-29.947-42.663-33.186-67.239  C3.046,108.215,32.157,75.52,69.418,75.52c0-37.272,32.695-66.393,69.632-61.524c24.607,3.239,48.368,14.326,67.25,33.207  c31.065,31.065,37.909,72.213,24.722,109.714L470.256,396.152z"/>
<path style="fill:#E6E2E0;" d="M430.049,443.726c-6.144,5.705-12.56,11.097-19.247,16.175c-0.125,0.104-0.251,0.199-0.387,0.303  c-6.98,5.287-14.242,10.219-21.755,14.775c-0.219,0.136-0.439,0.261-0.658,0.387L149.227,237.667l-0.01-0.01  c-37.042,12.434-77.469,5.371-108.116-25.255c-18.881-18.902-29.947-42.663-33.186-67.239C3.474,111.35,27.465,81.089,60.129,76.21  c-9.498,12.403-14.378,28.4-12.163,45.286c3.25,24.576,14.315,48.337,33.196,67.239c30.532,30.511,70.771,37.637,107.698,25.391  c6.165-4.347,10.156-7.753,10.752-8.276c0.042-0.042,0.073-0.063,0.073-0.063L430.049,443.726z"/>
<ellipse style="fill:#FFFFFF;" cx="183.286" cy="118.168" rx="30.17" ry="45.815"/>
<g>
</g>
<g>
</g>
<g>
</g>
<g>
</g>
<g>
</g>
<g>
</g>
<g>
</g>
<g>
</g>
<g>
</g>
<g>
</g>
<g>
</g>
<g>
</g>
<g>
</g>
<g>
</g>
<g>
</g>
</svg>
