<?xml version="1.0" encoding="iso-8859-1"?>
<!-- Generator: Adobe Illustrator 19.0.0, SVG Export Plug-In . SVG Version: 6.00 Build 0)  -->
<svg xmlns="http://www.w3.org/2000/svg" xmlns:xlink="http://www.w3.org/1999/xlink" version="1.1" id="Capa_1" x="0px" y="0px" viewBox="0 0 512 512" style="enable-background:new 0 0 512 512;" xml:space="preserve">
<path style="fill:#94F3FF;" d="M437.019,74.983c54.512,54.512,79.301,127.489,74.365,198.803  c-1.655,23.895-6.65,47.612-14.977,70.391c-12.405,33.877-32.2,65.655-59.389,92.844c-13.247,13.247-27.574,24.737-42.713,34.467  c-15.494,9.967-31.822,18.094-48.69,24.383c-20.998,7.832-42.824,12.811-64.879,14.933c-73.494,7.1-149.471-17.496-205.756-73.782  c-99.975-99.975-99.975-262.065,0-362.038S337.046-24.991,437.019,74.983z"/>
<path style="fill:#B16E60;" d="M323.214,33.969l1.33,1.699l0.015,0.015l35.443,45.167l0.007,0.007l19.483,24.848l2.505,3.185  l0.007,0.007l106.307,135.491l4.278,5.445l18.797,23.953c-1.655,23.895-6.65,47.612-14.977,70.391  c-12.405,33.877-32.2,65.655-59.389,92.844c-13.247,13.247-27.574,24.737-42.713,34.467c-15.494,9.967-31.822,18.094-48.69,24.383  c-20.998,7.832-42.824,12.811-64.879,14.933l-26.503-20.799l-5.334-4.182l-95.6-75.016l-6.294-4.935l-62.746-49.237  c-0.007-0.007-0.007-0.007-0.015-0.015l-45.18-35.443l-0.015-0.015l-1.699-1.33L323.214,33.969z"/>
<g>
	<path style="fill:#9E5B50;" d="M85.637,308.046c-17.222,8.884-20.232,29.723-1.392,48.579l-46.892-36.794l21.284-21.284   L85.637,308.046z"/>
	<path style="fill:#9E5B50;" d="M311.427,82.257c8.884-17.222,29.723-20.232,48.579-1.392l-36.794-46.892l-21.284,21.284   L311.427,82.257z"/>
	<path style="fill:#9E5B50;" d="M379.494,105.7l2.505,3.189l0.008,0.008c-27.74,51.652-97.664,111.838-97.664,111.838L379.494,105.7   z"/>
	<path style="fill:#9E5B50;" d="M236.89,331.523c0,0-40.513,47.062-83.592,79.283l-6.293-4.939L236.89,331.523z"/>
	<path style="fill:#9E5B50;" d="M339.185,281.801c0,0,68.837-59.255,85.843-103.78L339.185,281.801z"/>
	<path style="fill:#9E5B50;" d="M316.254,311.732c0,0-51.333,74.931-93.72,96.726L316.254,311.732z"/>
	<path style="fill:#9E5B50;" d="M488.313,244.392l4.279,5.445c-25.873,31.986-58.435,60.022-58.435,60.022L488.313,244.392z"/>
	<path style="fill:#9E5B50;" d="M302.6,441.415c0,0-21.517,25.001-48.369,48.587l-5.329-4.177L302.6,441.415z"/>
	<path style="fill:#9E5B50;" d="M345.017,345.198c0,0,53.674-31.893,73.899-73.899L345.017,345.198z"/>
	<path style="fill:#9E5B50;" d="M257.016,473.254c0,0,60.506,15.402,104.51,0H257.016z"/>
	<path style="fill:#9E5B50;" d="M278.04,465.583c0,0,53.674-31.893,73.899-73.899L278.04,465.583z"/>
	<path style="fill:#9E5B50;" d="M394.306,471.489c-15.494,9.967-31.822,18.094-48.69,24.383   c-20.998,7.832-42.824,12.811-64.879,14.933l-26.503-20.799l-5.334-4.182l-95.6-75.016l-6.294-4.935l-62.745-49.238   c-0.007-0.007-0.007-0.007-0.015-0.015l-45.18-35.443l-0.015-0.015l-1.699-1.33l57.04-57.04l32.044-2.387   c0,0,3.583,4.544,9.997,12.272c13.839,16.676,40.904,48.188,73.782,80.904c1.078,1.078,2.158,2.158,3.258,3.229   c9.871,9.753,20.252,19.572,30.921,29.089c1.463,1.316,2.94,2.615,4.426,3.908c21.383,18.797,43.851,36.241,65.861,49.519   c17.813,10.75,36.314,18.848,54.543,24.929C377.674,467.078,386.068,469.472,394.306,471.489z"/>
</g>
<path style="fill:#B16E60;" d="M323.214,33.969c15.412,15.412-28.194,84.362-98.792,157.99l-0.007,0.007  c-4.677,4.884-9.472,9.782-14.378,14.688c-78.94,78.939-156.254,129.61-172.686,113.178  c-14.356-14.356,22.498-75.164,84.665-142.932c9-9.813,18.53-19.772,28.512-29.753C229.468,68.207,306.782,17.537,323.214,33.969z"/>
<path style="fill:#9E5B50;" d="M224.414,191.966c-4.677,4.884-9.472,9.782-14.378,14.688  c-78.939,78.939-156.253,129.61-172.685,113.178c-14.356-14.356,22.498-75.164,84.665-142.932  C122.016,176.901,114.325,254.812,224.414,191.966z"/>
<path style="fill:#E6E2E0;" d="M39.065,19.734L22.072,36.728L162.58,177.236c4.693,4.693,12.301,4.693,16.993,0l0,0  c4.693-4.693,4.693-12.301,0-16.993L39.065,19.734z"/>
<path style="fill:#CCC9C7;" d="M169.969,169.848L29.46,29.339l-7.388,6.344L162.58,176.191c4.693,4.693,12.301,4.693,16.993,0  c1.326-1.326,2.263-2.888,2.84-4.548C178.198,173.107,173.335,172.169,169.969,169.848z"/>
<g>
</g>
<g>
</g>
<g>
</g>
<g>
</g>
<g>
</g>
<g>
</g>
<g>
</g>
<g>
</g>
<g>
</g>
<g>
</g>
<g>
</g>
<g>
</g>
<g>
</g>
<g>
</g>
<g>
</g>
</svg>
