<?xml version="1.0" encoding="iso-8859-1"?>
<!-- Generator: Adobe Illustrator 19.0.0, SVG Export Plug-In . SVG Version: 6.00 Build 0)  -->
<svg xmlns="http://www.w3.org/2000/svg" xmlns:xlink="http://www.w3.org/1999/xlink" version="1.1" id="Capa_1" x="0px" y="0px" viewBox="0 0 512 512" style="enable-background:new 0 0 512 512;" xml:space="preserve">
<path style="fill:#B16E60;" d="M511.479,255.479c0,47.655-13.055,92.264-35.777,130.451  c-37.508,63.056-101.42,108.594-176.478,121.378c-14.046,2.398-28.488,3.65-43.223,3.65c-14.734,0-29.177-1.251-43.233-3.65  c-27.769-4.734-54.005-13.942-77.937-26.872c-40.783-22.002-74.902-54.777-98.531-94.517  c-22.722-38.176-35.777-82.785-35.777-130.44C0.521,114.381,114.903,0,256,0S511.479,114.381,511.479,255.479z"/>
<circle style="fill:#FF6ABB;" cx="256" cy="69.97" r="17.351"/>
<path style="fill:#FCF4D0;" d="M295.569,84.51c-2.152,0-4.217,0.361-6.153,1.003c-5.023-5.475-12.213-8.927-20.229-8.927  c-4.781,0-9.274,1.225-13.191,3.373c-3.916-2.147-8.41-3.373-13.191-3.373c-8.015,0-15.206,3.453-20.229,8.927  c-1.936-0.642-4.001-1.003-6.153-1.003c-10.799,0-19.553,8.754-19.553,19.553s8.754,19.553,19.553,19.553  c2.152,0,4.217-0.361,6.153-1.003c5.023,5.475,12.214,8.927,20.229,8.927c4.781,0,9.275-1.225,13.191-3.373  c3.916,2.147,8.409,3.373,13.191,3.373c8.015,0,15.206-3.453,20.229-8.927c1.936,0.642,4.001,1.003,6.153,1.003  c10.799,0,19.553-8.754,19.553-19.553S306.368,84.51,295.569,84.51z"/>
<path style="fill:#EAE1B8;" d="M276.226,129.73c-8.015,0-15.206-3.453-20.229-8.927c-1.936,0.642-4.001,1.003-6.153,1.003  c-10.799,0-19.553-8.754-19.553-19.553S239.045,82.7,249.843,82.7c2.152,0,4.217,0.361,6.153,1.003  c2.741-2.989,6.134-5.368,9.949-6.919c-3.57,0.421-6.932,1.52-9.949,3.175c-3.917-2.147-8.41-3.373-13.191-3.373  c-8.015,0-15.206,3.453-20.229,8.927c-1.936-0.642-4.001-1.003-6.153-1.003c-10.799,0-19.553,8.754-19.553,19.553  s8.755,19.553,19.553,19.553c2.152,0,4.217-0.361,6.153-1.002c5.023,5.475,12.214,8.927,20.229,8.927  c4.781,0,9.274-1.225,13.191-3.373c3.916,2.148,8.409,3.373,13.19,3.373c3.639,0,7.106-0.718,10.28-2.008  C278.404,129.658,277.324,129.73,276.226,129.73z"/>
<path style="fill:#94F3FF;" d="M315.998,101.592H195.996c-9.281,0-16.805,7.525-16.805,16.805v206.469h153.613V118.397  C332.803,109.116,325.279,101.592,315.998,101.592L315.998,101.592z"/>
<path style="fill:#67DDEF;" d="M229.365,101.592h-33.369c-9.281,0-16.805,7.525-16.805,16.805v206.468h33.369V118.397  C212.559,109.116,220.084,101.592,229.365,101.592z"/>
<path style="fill:#F2EEED;" d="M398.888,193.177v190.537H113.106V193.177c0-2.596,0.297-5.133,0.893-7.55  c3.394-14.444,16.351-25.186,31.832-25.186h220.332c15.482,0,28.438,10.742,31.832,25.186  C398.588,188.045,398.888,190.581,398.888,193.177L398.888,193.177z"/>
<path style="fill:#E6E2E0;" d="M178.65,185.627c3.394-14.444,16.351-25.186,31.832-25.186H145.83  c-15.481,0-28.437,10.742-31.832,25.186c-0.595,2.418-0.893,4.954-0.893,7.55v190.537h64.652V193.177  C177.758,190.581,178.056,188.045,178.65,185.627z"/>
<path style="fill:#F2EEED;" d="M475.701,309.171v77.801c-37.508,63.056-101.42,108.594-176.478,121.378  C285.177,510.749,270.734,512,256,512c-14.734,0-29.177-1.251-43.233-3.65c-27.769-4.734-54.005-13.942-77.937-26.872  c-40.783-22.002-74.902-54.777-98.531-94.517v-77.791c0-18.999,15.402-34.411,34.411-34.411h370.569  C460.289,274.759,475.701,290.172,475.701,309.171z"/>
<path style="fill:#E6E2E0;" d="M169.252,274.759c-19.01,0-34.422,15.412-34.422,34.411v172.307  c-40.783-22.002-74.902-54.777-98.531-94.517v-77.791c0-18.999,15.402-34.411,34.411-34.411L169.252,274.759L169.252,274.759z"/>
<path style="fill:#F2B54D;" d="M475.701,308.128v32.274c-21.982,0-21.982,23.817-43.953,23.817s-21.971-23.817-43.942-23.817  c-21.971,0-21.971,23.817-43.942,23.817s-21.971-23.817-43.942-23.817c-21.971,0-21.971,23.817-43.932,23.817  c-21.971,0-21.971-23.817-43.942-23.817s-21.971,23.817-43.932,23.817c-17.696,0-21.137-15.443-33.285-21.46  c-2.93-1.449-6.382-2.357-10.657-2.357c-21.971,0-21.971,23.817-43.942,23.817c-21.961,0-21.961-23.817-43.932-23.817v-32.274  c0-18.999,15.402-34.411,34.411-34.411h370.569C460.289,273.717,475.701,289.129,475.701,308.128z"/>
<g>
	<path style="fill:#FF6ABB;" d="M136.721,201.09c0,9.575-7.764,17.351-17.351,17.351c-2.203,0-4.322-0.417-6.264-1.167v-25.139   c0-2.596,0.297-5.133,0.894-7.55c1.691-0.547,3.502-0.846,5.37-0.846C128.956,183.739,136.721,191.504,136.721,201.09z"/>
	<circle style="fill:#FF6ABB;" cx="256" cy="201.046" r="17.351"/>
	<circle style="fill:#FF6ABB;" cx="176.979" cy="201.046" r="17.351"/>
	<path style="fill:#FF6ABB;" d="M398.887,192.135v25.139c-1.942,0.751-4.061,1.167-6.264,1.167c-9.586,0-17.351-7.776-17.351-17.351   c0-9.586,7.764-17.351,17.351-17.351c1.87,0,3.68,0.297,5.37,0.846C398.589,187.002,398.887,189.538,398.887,192.135z"/>
	<circle style="fill:#FF6ABB;" cx="335.021" cy="201.046" r="17.351"/>
</g>
<path style="fill:#E59F32;" d="M169.252,273.717c-19.01,0-34.422,15.412-34.422,34.411v34.63c-2.93-1.449-6.382-2.357-10.657-2.357  c-21.971,0-21.971,23.817-43.942,23.817c-21.961,0-21.961-23.817-43.932-23.817v-32.274c0-18.999,15.402-34.411,34.411-34.411  L169.252,273.717L169.252,273.717z"/>
<g>
	<path style="fill:#FF6ABB;" d="M49,388.901c-7.159,0-10.522-9.324-4.956-13.87c5.427-4.433,13.704,0.269,12.693,7.194   C56.185,386.002,52.815,388.901,49,388.901z"/>
	<path style="fill:#FF6ABB;" d="M76.602,373.259c-4.265,0-7.821,3.556-7.821,7.821c0,4.275,3.556,7.8,7.821,7.821   c4.265,0,7.821-3.566,7.821-7.821C84.423,376.815,80.867,373.259,76.602,373.259z M104.204,373.259   c-4.265,0-7.821,3.556-7.821,7.821c0,4.275,3.556,7.8,7.821,7.821c4.265,0,7.821-3.566,7.821-7.821   C112.025,376.815,108.458,373.259,104.204,373.259z M134.83,373.885c-0.938-0.396-1.96-0.626-3.024-0.626   c-4.265,0-7.821,3.556-7.821,7.821c0,0.542,0.063,1.074,0.167,1.595c0.751,3.525,3.931,6.204,7.654,6.225   c1.064,0,2.086-0.229,3.024-0.626c2.315-0.991,4.077-3.087,4.619-5.6c0.104-0.511,0.167-1.053,0.167-1.595   C139.616,377.889,137.625,375.084,134.83,373.885z M159.398,373.259c-4.265,0-7.821,3.556-7.821,7.821   c0,0.542,0.063,1.074,0.167,1.595c0.751,3.525,3.931,6.204,7.654,6.225c3.712,0,6.893-2.701,7.654-6.225   c0.104-0.511,0.167-1.053,0.167-1.595C167.219,376.815,163.652,373.259,159.398,373.259z M187,373.259   c-4.265,0-7.821,3.556-7.821,7.821c0,0.542,0.063,1.074,0.167,1.595c0.751,3.525,3.931,6.204,7.654,6.225   c3.712,0,6.893-2.711,7.654-6.225c0.104-0.511,0.167-1.053,0.167-1.595C194.821,376.815,191.265,373.259,187,373.259z    M214.602,373.259c-4.265,0-7.821,3.556-7.821,7.821c0,0.542,0.063,1.074,0.167,1.595c0.751,3.525,3.931,6.204,7.654,6.225   c3.712,0,6.893-2.711,7.654-6.225c0.104-0.511,0.167-1.053,0.167-1.595C222.423,376.815,218.857,373.259,214.602,373.259z    M242.194,373.259c-4.265,0-7.821,3.556-7.821,7.821c0,0.542,0.063,1.074,0.167,1.595c0.751,3.525,3.931,6.204,7.654,6.225   c3.712,0,6.893-2.711,7.654-6.225c0.104-0.511,0.167-1.053,0.167-1.595C250.014,376.815,246.448,373.259,242.194,373.259z    M269.796,373.259c-4.265,0-7.821,3.556-7.821,7.821c0,0.542,0.063,1.074,0.167,1.595c0.751,3.525,3.931,6.204,7.654,6.225   c3.712,0,6.893-2.701,7.654-6.225c0.104-0.511,0.167-1.053,0.167-1.595C277.617,376.815,274.05,373.259,269.796,373.259z    M297.398,373.259c-4.265,0-7.821,3.556-7.821,7.821c0,0.542,0.063,1.074,0.167,1.595c0.751,3.525,3.931,6.204,7.654,6.225   c3.712,0,6.893-2.711,7.654-6.225c0.104-0.511,0.167-1.053,0.167-1.595C305.219,376.815,301.663,373.259,297.398,373.259z    M325,373.259c-4.265,0-7.831,3.556-7.831,7.821c0,0.542,0.063,1.074,0.177,1.595c0.74,3.525,3.931,6.204,7.654,6.225   c3.712,0,6.882-2.711,7.643-6.225c0.104-0.511,0.167-1.053,0.167-1.595C332.81,376.826,329.255,373.259,325,373.259z    M352.592,373.259c-4.265,0-7.821,3.556-7.821,7.821c0,0.542,0.063,1.074,0.167,1.595c0.751,3.525,3.931,6.204,7.654,6.225   c3.712,0,6.893-2.711,7.654-6.225c0.104-0.511,0.167-1.053,0.167-1.595C360.413,376.815,356.846,373.259,352.592,373.259z    M380.194,373.259c-4.265,0-7.821,3.556-7.821,7.821c0,0.542,0.063,1.074,0.167,1.595c0.751,3.525,3.931,6.204,7.654,6.225   c3.712,0,6.893-2.701,7.654-6.225c0.104-0.511,0.167-1.053,0.167-1.595C388.015,376.815,384.459,373.259,380.194,373.259z    M407.786,373.259c-4.265,0-7.821,3.556-7.821,7.821c0,4.275,3.556,7.8,7.821,7.821c4.265,0,7.831-3.556,7.831-7.821   C415.617,376.815,412.051,373.259,407.786,373.259z M435.388,373.259c-4.265,0-7.821,3.556-7.821,7.821   c0,4.275,3.556,7.8,7.821,7.821c4.265,0,7.821-3.566,7.821-7.821C443.208,376.815,439.653,373.259,435.388,373.259z"/>
	<path style="fill:#FF6ABB;" d="M462.99,388.901c-3.336,0-6.385-2.211-7.421-5.375c-1.042-3.179,0.091-6.819,2.825-8.777   c5.788-4.145,13.924,1.248,12.178,8.227C469.713,386.412,466.534,388.901,462.99,388.901z"/>
</g>
<g>
</g>
<g>
</g>
<g>
</g>
<g>
</g>
<g>
</g>
<g>
</g>
<g>
</g>
<g>
</g>
<g>
</g>
<g>
</g>
<g>
</g>
<g>
</g>
<g>
</g>
<g>
</g>
<g>
</g>
</svg>
