<?xml version="1.0" encoding="iso-8859-1"?>
<!-- Generator: Adobe Illustrator 19.0.0, SVG Export Plug-In . SVG Version: 6.00 Build 0)  -->
<svg xmlns="http://www.w3.org/2000/svg" xmlns:xlink="http://www.w3.org/1999/xlink" version="1.1" id="Capa_1" x="0px" y="0px" viewBox="0 0 512 512" style="enable-background:new 0 0 512 512;" xml:space="preserve">
<path style="fill:#B16E60;" d="M512,256c0,103.769-61.743,193.108-150.486,233.305c-4.995,2.267-10.083,4.368-15.245,6.311  c-1.149,0.439-2.309,0.867-3.469,1.285c-2.226,0.805-4.472,1.578-6.74,2.32c-4.671,1.546-9.415,2.957-14.2,4.221  C300.847,509.032,278.768,512,256,512s-44.847-2.967-65.86-8.558c-4.786-1.264-9.529-2.675-14.2-4.221  c-2.267-0.742-4.514-1.515-6.74-2.32c-2.853-1.034-5.695-2.111-8.495-3.229c-3.448-1.39-6.844-2.842-10.209-4.368  C61.743,449.118,0,359.769,0,256C0,114.615,114.615,0,256,0S512,114.615,512,256z"/>
<path style="fill:#E6E2E0;" d="M361.514,333.73v156.62c-4.995,2.267-10.083,4.368-15.245,6.311  c-1.149,0.439-2.309,0.867-3.469,1.285c-2.226,0.805-4.472,1.578-6.74,2.32V333.73H361.514z"/>
<g>
	<path style="fill:#CCC9C7;" d="M346.269,381.848v114.813c-1.149-0.606-2.309-0.178-3.469,0.24c-2.226,0.805-4.472,1.578-6.74,2.32   V380.803L346.269,381.848z"/>
	<path style="fill:#CCC9C7;" d="M361.506,378.592v27.454c-4.133,0.668-8.392,1.002-12.733,1.002c-4.321,0-8.559-0.334-12.713-1.002   v-27.454c4.144,0.652,8.394,0.992,12.721,0.992C353.11,379.583,357.36,379.244,361.506,378.592L361.506,378.592z"/>
</g>
<path style="fill:#E6E2E0;" d="M267.629,0v300.209c0,44.833,36.343,81.152,81.152,81.152s81.152-33.532,81.152-81.152V0H267.629  L267.629,0z"/>
<polygon style="fill:#F2EEED;" points="335.873,1.045 394.399,1.045 394.399,151.739 335.873,151.739 "/>
<path style="fill:#E6E2E0;" d="M175.94,333.73v166.536c-2.267-1.787-4.514-2.56-6.74-3.365c-2.853-1.034-5.695-2.111-8.495-3.229  c-3.448-1.39-6.844-2.842-10.209-4.368v-156.62L175.94,333.73z"/>
<g>
	<path style="fill:#CCC9C7;" d="M160.705,354.91v139.807c-3.448-2.435-6.844-3.887-10.209-5.413v-135.44L160.705,354.91z"/>
	<path style="fill:#CCC9C7;" d="M175.939,378.592v27.454c-4.133,0.668-8.392,1.002-12.733,1.002c-4.321,0-8.559-0.334-12.713-1.002   v-27.454c4.144,0.652,8.394,0.992,12.721,0.992C167.543,379.583,171.793,379.244,175.939,378.592L175.939,378.592z"/>
</g>
<path style="fill:#E6E2E0;" d="M82.061,1.045v300.209c0,44.833,36.343,81.152,81.152,81.152s81.152-36.319,81.152-81.152V1.045  H82.061L82.061,1.045z"/>
<path style="fill:#F9395E;" d="M163.213,369.269c-38.08,0-69.06-30.98-69.06-69.06V59.739h138.122V300.21  C232.273,338.289,201.293,369.269,163.213,369.269z"/>
<polygon style="fill:#F2EEED;" points="150.305,1.045 208.831,1.045 208.831,70.83 150.305,70.83 "/>
<path style="fill:#FF5B6E;" d="M150.305,59.739h58.526v168.525c0,36.369-13.105,65.83-29.262,65.83s-29.263-29.46-29.263-65.83  V59.739L150.305,59.739z"/>
<path style="fill:#F9395E;" d="M348.78,369.269c-38.08,0-69.06-30.98-69.06-69.06V132.974H417.84V300.21  C417.84,338.289,386.86,369.269,348.78,369.269z"/>
<path style="fill:#FF5B6E;" d="M335.873,132.974h58.526v95.289c0,36.369-13.105,65.83-29.262,65.83  c-16.157,0-29.263-29.46-29.263-65.83V132.974L335.873,132.974z"/>
<g>
</g>
<g>
</g>
<g>
</g>
<g>
</g>
<g>
</g>
<g>
</g>
<g>
</g>
<g>
</g>
<g>
</g>
<g>
</g>
<g>
</g>
<g>
</g>
<g>
</g>
<g>
</g>
<g>
</g>
</svg>
