<?xml version="1.0" encoding="iso-8859-1"?>
<!-- Generator: Adobe Illustrator 19.0.0, SVG Export Plug-In . SVG Version: 6.00 Build 0)  -->
<svg xmlns="http://www.w3.org/2000/svg" xmlns:xlink="http://www.w3.org/1999/xlink" version="1.1" id="Capa_1" x="0px" y="0px" viewBox="0 0 512 512" style="enable-background:new 0 0 512 512;" xml:space="preserve">
<path style="fill:#94F3FF;" d="M512,256c0,124.991-89.579,229.073-208.05,251.507c-1.536,0.293-3.093,0.575-4.639,0.836  c-0.418,0.073-0.846,0.146-1.264,0.209C284.369,510.819,270.326,512,256,512c-4.89,0-9.749-0.136-14.566-0.408  c-0.679-0.042-1.369-0.084-2.048-0.125c-6.207-0.397-12.351-1.024-18.422-1.849c-1.651-0.219-3.281-0.46-4.921-0.731  c-1.118-0.167-2.247-0.355-3.365-0.543C91.93,487.769,0,382.621,0,256C0,114.615,114.615,0,256,0S512,114.615,512,256z"/>
<path style="fill:#F9395E;" d="M303.95,444.74v62.767c-1.536,0.293-3.093,0.575-4.639,0.836c-0.418,0.073-0.846,0.146-1.264,0.209  C284.369,510.819,270.326,512,256,512c-4.89,0-9.749-0.136-14.566-0.408c-0.679-0.042-1.369-0.084-2.048-0.125  c-6.207-0.397-12.351-1.024-18.422-1.849c-1.651-0.219-3.281-0.46-4.921-0.731V444.74H303.95z"/>
<path style="fill:#D92F52;" d="M239.386,444.74v66.727c-6.207-0.397-12.351-1.024-18.422-1.849c-1.651-0.219-3.281-0.46-4.921-0.731  V444.74H239.386z"/>
<path style="fill:#E6E2E0;" d="M422.009,242.754c0,2.633-0.06,5.255-0.179,7.852c-4.099,88.045-76.784,158.156-165.842,158.156  c-91.678,0-166.008-74.317-166.008-166.008c0-91.691,74.33-241.709,166.008-241.709c0.941,0,1.883,0.011,2.824,0.048  C349.205,4.119,422.009,152.003,422.009,242.754z"/>
<path style="fill:#F2EEED;" d="M422.009,242.754c0,2.633-0.06,5.255-0.179,7.852c-23.283,41.132-67.454,68.896-118.095,68.896  c-74.901,0-135.624-60.722-135.624-135.624c0-59.161,37.88-148.028,90.701-182.786C349.205,4.119,422.009,152.003,422.009,242.754z"/>
<path style="fill:#D92F52;" d="M303.948,444.735v42.434c-15.268,4.167-31.349,6.397-47.952,6.397  c-13.722,0-27.102-1.514-39.944-4.411v-44.42h87.897V444.735z"/>
<path style="fill:#F9395E;" d="M437.69,282.579c0,1.025,0,2.062-0.036,3.074c-0.131,7.984-0.774,15.848-1.907,23.546  c-12.88,87.722-88.45,155.07-179.748,155.07c-99.317,0-180.045-79.692-181.677-178.616c-0.036-1.012-0.036-2.049-0.036-3.074  c0-2.847,19.268-5.052,48.938-6.589c9.116-0.476,19.22-0.882,30.039-1.239C260.159,271.295,437.69,273.904,437.69,282.579z"/>
<g>
	<path style="fill:#D92F52;" d="M256,464.269c-99.317,0-180.045-79.692-181.677-178.616c-0.036-1.012-0.036-2.049-0.036-3.074   c0-3.729,32.935-6.339,78.977-7.828C148.438,310.033,144.685,413.937,256,464.269z"/>
	<path style="fill:#D92F52;" d="M437.69,282.579c0,1.025,0,2.062-0.036,3.074c-0.131,7.984-0.774,15.848-1.907,23.546H123.225   V275.99c9.116-0.476,19.22-0.882,30.039-1.239C260.159,271.295,437.69,273.904,437.69,282.579z"/>
</g>
<path style="fill:#F9395E;" d="M462.649,264.271c0,5.925-2.393,11.264-6.251,15.137c-3.873,3.858-9.213,6.251-15.121,6.251H70.716  c-11.801,0-21.371-9.571-21.371-21.388c0-5.909,2.393-11.247,6.251-15.122c3.874-3.858,9.213-6.251,15.122-6.251h370.563  C453.079,242.9,462.649,252.47,462.649,264.271z"/>
<path style="fill:#D92F52;" d="M108.246,264.271c0-5.909,2.393-11.247,6.251-15.122c3.874-3.858,9.213-6.251,15.122-6.251H70.716  c-5.908,0-11.247,2.393-15.122,6.251c-3.858,3.874-6.251,9.213-6.251,15.122c0,11.817,9.571,21.388,21.371,21.388h58.902  C117.816,285.659,108.246,276.089,108.246,264.271z"/>
<g>
</g>
<g>
</g>
<g>
</g>
<g>
</g>
<g>
</g>
<g>
</g>
<g>
</g>
<g>
</g>
<g>
</g>
<g>
</g>
<g>
</g>
<g>
</g>
<g>
</g>
<g>
</g>
<g>
</g>
</svg>
