<?xml version="1.0" encoding="iso-8859-1"?>
<!-- Generator: Adobe Illustrator 19.0.0, SVG Export Plug-In . SVG Version: 6.00 Build 0)  -->
<svg xmlns="http://www.w3.org/2000/svg" xmlns:xlink="http://www.w3.org/1999/xlink" version="1.1" id="Capa_1" x="0px" y="0px" viewBox="0 0 512 512" style="enable-background:new 0 0 512 512;" xml:space="preserve">
<path style="fill:#8CC371;" d="M481.337,377.619c-1.546,2.863-3.156,5.705-4.817,8.526c-10.271,17.376-22.778,33.812-37.543,48.869  c-0.648,0.669-1.306,1.337-1.964,1.996c-25.098,25.098-54.104,43.895-85.053,56.392c-3.897,1.578-7.826,3.041-11.776,4.42  c-89.797,31.19-193.481,10.919-265.201-60.812c-77.76-77.76-95.032-193.084-51.826-287.541c7.335-16.06,16.426-31.514,27.271-46.079  c7.366-9.916,15.558-19.414,24.555-28.41c19.435-19.435,41.21-35.087,64.417-46.957C235.612-21.222,356.473-5.559,437.013,74.98  C518.963,156.92,533.737,280.614,481.337,377.619z"/>
<path style="fill:#F9395E;" d="M481.337,377.619c-1.546,2.863-3.156,5.705-4.817,8.526c-10.731,18.15-23.896,35.265-39.507,50.865  c-25.098,25.098-54.104,43.895-85.053,56.392c-3.897,1.578-7.826,3.041-11.776,4.42c-123.505-92.994-229.31-207.879-311.991-339.21  c-1.881-2.988-3.563-6.039-5.036-9.143c-20.239-42.401-3.626-94.311,38.974-116.88c0.533-0.282,1.055-0.554,1.588-0.836  c24.231-12.821,51.941-13.448,75.681-3.73c16.53,6.75,31.127,18.526,41.304,34.669C258.902,186.878,361.196,293.936,481.337,377.619  z"/>
<path style="fill:#D92F52;" d="M438.977,435.016c-0.648,0.669-1.306,1.337-1.964,1.996c-25.098,25.098-54.104,43.895-85.053,56.392  c-3.897,1.578-7.826,3.041-11.776,4.42c-123.505-92.994-229.31-207.879-311.991-339.21c-1.881-2.988-3.563-6.039-5.036-9.143  C3.408,108.104,18.758,57.688,59.09,34.304c-11.943,20.647-15.381,45.64-8.662,69.088c2.246,7.837,5.632,15.506,10.208,22.778  c70.456,111.896,157.693,211.86,258.368,296.516C353.182,451.42,400.985,455.6,438.977,435.016z"/>
<ellipse transform="matrix(-0.7071 -0.7071 0.7071 -0.7071 176.1422 242.6873)" style="fill:#FF5B6E;" cx="138.333" cy="84.863" rx="25.928" ry="16.5"/>
<g>
</g>
<g>
</g>
<g>
</g>
<g>
</g>
<g>
</g>
<g>
</g>
<g>
</g>
<g>
</g>
<g>
</g>
<g>
</g>
<g>
</g>
<g>
</g>
<g>
</g>
<g>
</g>
<g>
</g>
</svg>
