<?xml version="1.0" encoding="iso-8859-1"?>
<!-- Generator: Adobe Illustrator 19.0.0, SVG Export Plug-In . SVG Version: 6.00 Build 0)  -->
<svg xmlns="http://www.w3.org/2000/svg" xmlns:xlink="http://www.w3.org/1999/xlink" version="1.1" id="Capa_1" x="0px" y="0px" viewBox="0 0 512 512" style="enable-background:new 0 0 512 512;" xml:space="preserve">
<path style="fill:#EAA7F4;" d="M512,256c0,92.745-49.33,173.986-123.173,218.885c-3.647,2.215-7.346,4.336-11.107,6.374  c-24.074,13.04-50.469,22.329-78.409,27.084c-1.808,0.313-3.615,0.596-5.444,0.867C281.516,511.049,268.873,512,256,512  c-12.873,0-25.516-0.951-37.878-2.79c-1.818-0.272-3.636-0.554-5.444-0.867c-2.038-0.345-4.075-0.721-6.102-1.118  c-1.787-0.345-3.563-0.711-5.329-1.097c-23.719-5.172-46.216-13.625-66.988-24.889c-3.783-2.048-7.513-4.19-11.191-6.426  C49.277,429.902,0,348.703,0,256C0,114.615,114.615,0,256,0S512,114.615,512,256z"/>
<path style="fill:#FC9D07;" d="M320.746,134.223c-0.272-1.516-6.307-37.356,23.934-56.711l5.928,9.262  c-24.116,15.434-19.091,45.211-19.037,45.509L320.746,134.223z"/>
<path style="fill:#8CC371;" d="M356.221,93.628l-14.496-6.488l6.488-14.496c16.756-37.442,58.344-57.037,97.882-46.113l31.576,8.724  l-17.735,27.544C437.731,97.287,393.662,110.384,356.221,93.628z"/>
<path style="fill:#76B25D;" d="M341.724,87.141l6.488-14.496c16.756-37.442,58.344-57.037,97.882-46.113l31.576,8.724  L341.724,87.141z"/>
<path style="fill:#D92F52;" d="M249.396,186.737c0,37.048,30.032,67.08,67.08,67.08c7.401,0,14.527-1.199,21.191-3.42  c26.667-8.874,45.89-34.024,45.89-63.66c0-30.516-20.378-56.271-48.265-64.409c-5.972-1.738-12.284-2.672-18.815-2.672  C279.429,119.656,249.396,149.689,249.396,186.737z"/>
<path style="fill:#F9395E;" d="M289.403,185.989c0,30.505,20.378,56.271,48.265,64.409c26.667-8.874,45.89-34.024,45.89-63.66  c0-30.516-20.378-56.271-48.265-64.409C308.625,131.203,289.403,156.352,289.403,185.989z"/>
<path style="fill:#D92F52;" d="M128.432,186.737c0,37.048,30.032,67.08,67.08,67.08c7.401,0,14.527-1.199,21.191-3.42  c26.667-8.874,45.89-34.024,45.89-63.66c0-30.516-20.378-56.271-48.265-64.409c-5.972-1.738-12.284-2.672-18.815-2.672  C158.464,119.656,128.432,149.689,128.432,186.737z"/>
<path style="fill:#F9395E;" d="M168.438,185.989c0,30.505,20.378,56.271,48.265,64.409c26.667-8.874,45.89-34.024,45.89-63.66  c0-30.516-20.378-56.271-48.265-64.409C187.661,131.203,168.438,156.352,168.438,185.989z"/>
<g>
	
		<ellipse transform="matrix(0.7071 0.7071 -0.7071 0.7071 208.7505 -199.1935)" style="fill:#FF5B6E;" cx="344.823" cy="152.387" rx="19.794" ry="12.097"/>
	
		<ellipse transform="matrix(0.7071 0.7071 -0.7071 0.7071 172.6737 -112.1026)" style="fill:#FF5B6E;" cx="221.657" cy="152.384" rx="19.794" ry="12.097"/>
</g>
<path style="fill:#D92F52;" d="M310.978,261.131c0,37.048,30.032,67.08,67.08,67.08c7.401,0,14.527-1.199,21.191-3.42  c26.667-8.874,45.89-34.024,45.89-63.66c0-30.516-20.378-56.271-48.265-64.409c-5.972-1.738-12.284-2.672-18.815-2.672  C341.011,194.051,310.978,224.083,310.978,261.131z"/>
<path style="fill:#F9395E;" d="M350.985,260.383c0,30.505,20.378,56.271,48.265,64.409c26.667-8.874,45.89-34.024,45.89-63.66  c0-30.516-20.378-56.271-48.265-64.409C370.207,205.597,350.985,230.747,350.985,260.383z"/>
<path style="fill:#D92F52;" d="M187.814,261.131c0,37.048,30.032,67.08,67.08,67.08c7.401,0,14.527-1.199,21.191-3.42  c26.667-8.874,45.89-34.024,45.89-63.66c0-30.516-20.378-56.271-48.265-64.409c-5.972-1.738-12.284-2.672-18.815-2.672  C217.847,194.051,187.814,224.083,187.814,261.131z"/>
<path style="fill:#F9395E;" d="M227.821,260.383c0,30.505,20.378,56.271,48.265,64.409c26.667-8.874,45.89-34.024,45.89-63.66  c0-30.516-20.378-56.271-48.265-64.409C247.043,205.597,227.821,230.747,227.821,260.383z"/>
<path style="fill:#D92F52;" d="M66.849,261.131c0,37.048,30.032,67.08,67.08,67.08c7.401,0,14.527-1.199,21.191-3.42  c26.667-8.874,45.89-34.024,45.89-63.66c0-30.516-20.378-56.271-48.265-64.409c-5.972-1.738-12.284-2.672-18.815-2.672  C96.882,194.051,66.849,224.083,66.849,261.131z"/>
<path style="fill:#F9395E;" d="M106.855,260.383c0,30.505,20.378,56.271,48.265,64.409c26.667-8.874,45.89-34.024,45.89-63.66  c0-30.516-20.378-56.271-48.265-64.409C126.078,205.597,106.855,230.747,106.855,260.383z"/>
<path style="fill:#94F3FF;" d="M482.241,284.808c0,0.731,0,1.463-0.01,2.194c-0.063,5.507-0.303,10.951-0.742,16.342  c-4.984,61.43-34.503,115.921-78.743,153.652c-5.883,5.015-10.585,11.118-13.918,17.889c-3.647,2.215-7.346,4.336-11.107,6.374  c-24.074,13.04-50.469,22.329-78.409,27.084c-1.808,0.313-3.615,0.596-5.444,0.867C281.516,511.049,268.873,512,256,512  c-12.873,0-25.516-0.951-37.878-2.79c-1.818-0.272-3.636-0.554-5.444-0.867c-2.038-0.345-4.075-0.721-6.102-1.118  c-25.684-5.026-49.998-13.887-72.317-25.987c-3.783-2.048-7.513-4.19-11.191-6.426c-3.417-6.855-8.223-13.03-14.179-18.139  c-44.795-38.369-74.418-93.936-78.618-156.473c-0.303-4.357-0.46-8.756-0.502-13.197c-0.021-0.721-0.021-1.463-0.021-2.194  L482.241,284.808L482.241,284.808z"/>
<g>
	
		<ellipse transform="matrix(0.7071 0.7071 -0.7071 0.7071 281.3996 -225.7853)" style="fill:#FF5B6E;" cx="413.247" cy="226.787" rx="19.794" ry="12.097"/>
	
		<ellipse transform="matrix(0.7071 0.7071 -0.7071 0.7071 243.3228 -133.8543)" style="fill:#FF5B6E;" cx="283.238" cy="226.789" rx="19.794" ry="12.097"/>
	
		<ellipse transform="matrix(0.7071 0.7071 -0.7071 0.7071 207.2482 -46.7686)" style="fill:#FF5B6E;" cx="160.079" cy="226.786" rx="19.794" ry="12.097"/>
</g>
<g>
	<path style="fill:#67DDEF;" d="M201.247,506.128c-23.719-5.172-46.216-13.625-66.988-24.889c-3.783-2.048-7.513-4.19-11.191-6.426   c-3.417-6.855-8.223-13.03-14.179-18.139c-44.795-38.369-74.418-93.936-78.618-156.473c-0.303-4.357-0.46-8.756-0.502-13.197   c-0.021-0.721-0.021-1.463-0.021-2.194h85.577c-0.073,0.69-0.157,1.432-0.24,2.194c-0.157,1.452-0.303,3.041-0.46,4.754   c-0.282,3.396-0.543,7.293-0.69,11.588c-0.23,6.499-0.23,13.918,0.219,21.912c1.735,30.835,10.271,70.186,38.588,98.503   C180.005,451.02,194.048,482.147,201.247,506.128z"/>
	<path style="fill:#67DDEF;" d="M482.237,284.807c0,6.246-0.253,12.426-0.748,18.541H60.367v-18.541H482.237z"/>
</g>
<path style="fill:#94F3FF;" d="M511.48,287.006H0.513c0-4.963,1.388-9.596,3.811-13.524c4.552-7.408,12.725-12.348,22.062-12.348  h459.222c7.15,0,13.618,2.893,18.298,7.573c1.435,1.435,2.693,3.034,3.764,4.774C510.092,277.41,511.48,282.043,511.48,287.006z"/>
<path style="fill:#67DDEF;" d="M94.013,261.135H26.386c-9.337,0-17.51,4.939-22.062,12.348c-2.423,3.928-3.811,8.562-3.811,13.524  H68.14c0-4.963,1.388-9.596,3.811-13.524C76.501,266.073,84.674,261.135,94.013,261.135z"/>
<g>
</g>
<g>
</g>
<g>
</g>
<g>
</g>
<g>
</g>
<g>
</g>
<g>
</g>
<g>
</g>
<g>
</g>
<g>
</g>
<g>
</g>
<g>
</g>
<g>
</g>
<g>
</g>
<g>
</g>
</svg>
