<?xml version="1.0" encoding="iso-8859-1"?>
<!-- Generator: Adobe Illustrator 19.0.0, SVG Export Plug-In . SVG Version: 6.00 Build 0)  -->
<svg xmlns="http://www.w3.org/2000/svg" xmlns:xlink="http://www.w3.org/1999/xlink" version="1.1" id="Capa_1" x="0px" y="0px" viewBox="0 0 512 512" style="enable-background:new 0 0 512 512;" xml:space="preserve">
<path style="fill:#52C8D3;" d="M512,256c0,141.385-114.615,256-256,256c-47.094,0-91.199-12.706-129.097-34.889  c-10.209-5.966-19.958-12.622-29.194-19.895c-4.932-3.897-9.718-7.962-14.346-12.194c-3.563-3.25-7.032-6.593-10.397-10.041  c-5.162-5.287-10.104-10.794-14.806-16.509c-0.167-0.199-0.334-0.397-0.481-0.596C21.619,373.77,0,317.398,0,256  C0,114.615,114.615,0,256,0c54.544,0,105.096,17.053,146.62,46.132c0.23,0.146,0.46,0.313,0.69,0.47  c3.835,2.706,7.586,5.507,11.254,8.401c1.045,0.825,2.079,1.661,3.103,2.508c4.942,4.012,9.728,8.223,14.346,12.612  c11.107,10.501,21.264,22.006,30.344,34.346C493.568,146.892,512,199.293,512,256z"/>
<path style="fill:#D92F52;" d="M432.013,40.176V286.48c0,1.17-0.021,2.33-0.084,3.49c0.01,0.199,0,0.387-0.021,0.585l0.01,0.01  l-0.01,0.01c-1.432,30.741-18.965,57.344-44.345,71.534c-5.193,2.915-10.71,5.298-16.478,7.095  c-0.063,0.021-0.125,0.042-0.188,0.063c-8.067,2.487-16.624,3.824-25.495,3.824c-1.881,0-3.751-0.063-5.601-0.188  c-24.482-1.557-46.237-13.354-61.012-31.148v-0.01c-8.485-10.198-14.67-22.361-17.763-35.704v-0.01  c-0.042-0.136-0.073-0.261-0.094-0.397c-1.4-6.165-2.142-12.57-2.142-19.153V162.105c0-0.084,0-0.167-0.01-0.251  c-0.031-5.987-0.721-11.818-2.006-17.429c-6.071-26.614-25.36-48.253-50.573-57.595c-6.468-2.414-13.333-4.012-20.459-4.66  c-0.251-0.031-0.502-0.052-0.763-0.063c-2.215-0.199-4.462-0.293-6.729-0.293s-4.514,0.094-6.729,0.293  c-30.469,2.518-56.174,22.079-67.542,49.11c-1.724,4.086-3.114,8.338-4.148,12.727c-0.031,0.167-0.073,0.324-0.104,0.481  c-1.296,5.653-1.985,11.536-2.006,17.565c-0.01,0.104-0.01,0.219-0.01,0.324v294.902c-4.932-3.897-9.718-7.962-14.346-12.194  V161.991c0.031-9.143,1.369-17.993,3.845-26.363c2.288-7.837,5.58-15.256,9.718-22.11c14.576-24.189,39.633-41.368,68.827-45.223  c4.096-0.543,8.265-0.825,12.497-0.825s8.401,0.282,12.497,0.825c0.125,0.01,0.251,0.031,0.376,0.052  c6.395,0.867,12.581,2.372,18.505,4.462c28.651,10.062,51.054,33.52,59.674,62.819c2.476,8.422,3.814,17.335,3.835,26.54V286.48  c0,2.487,0.125,4.932,0.376,7.356c0.01,0.157,0.031,0.303,0.052,0.46c0.711,6.604,2.32,12.946,4.702,18.902  c10.637,26.655,36.728,45.547,67.135,45.547c1.191,0,2.372-0.031,3.542-0.084h0.01c5.298-0.261,10.449-1.087,15.381-2.435  c0.188-0.052,0.376-0.105,0.554-0.157c6.98-1.954,13.531-4.932,19.487-8.767c16.551-10.637,28.494-27.826,32.131-47.888v-0.01  c0.596-3.281,0.972-6.635,1.097-10.062c0.01-0.199,0.021-0.397,0.021-0.606c0.031-0.752,0.042-1.505,0.042-2.257V40.176  c1.693-0.251,3.417-0.376,5.183-0.376h3.981C428.586,39.8,430.32,39.926,432.013,40.176z"/>
<path style="fill:#F9395E;" d="M128.052,435.451v32.664c0,3.103-0.397,6.123-1.149,8.997c-10.209-5.966-19.958-12.622-29.194-19.895  c-4.932-3.897-9.718-7.962-14.346-12.194c-3.563-3.25-7.032-6.593-10.397-10.041c-5.162-5.287-10.104-10.794-14.806-16.509  c-0.167-0.199-0.334-0.397-0.481-0.596c5.287-9.3,14.67-15.966,25.684-17.575c1.693-0.251,3.417-0.376,5.183-0.376h3.981  c1.755,0,3.49,0.125,5.183,0.376C114.876,402.808,128.052,417.583,128.052,435.451z"/>
<path style="fill:#D92F52;" d="M83.362,411.449c-5.956,6.186-9.812,14.42-10.397,23.531c-5.162-5.287-10.104-10.794-14.806-16.509  c1.63-2.769,3.594-5.308,5.851-7.565c5.183-5.172,11.87-8.84,19.352-10.292c2.32-0.449,4.723-0.69,7.178-0.69  c2.456,0,4.848,0.24,7.168,0.7c0.93,0.178,1.849,0.387,2.759,0.637c-0.93,0.261-1.849,0.543-2.759,0.878  C92.212,404.114,87.322,407.333,83.362,411.449z"/>
<g>
	<path style="fill:#F9395E;" d="M92.526,280.767H88.55c-19.621,0-35.527,15.905-35.527,35.527v32.664   c0,19.621,15.905,35.527,35.527,35.527h3.976c19.621,0,35.527-15.905,35.527-35.527v-32.664   C128.052,296.673,112.146,280.767,92.526,280.767z"/>
	<path style="fill:#F9395E;" d="M92.526,161.609H88.55c-19.621,0-35.527,15.905-35.527,35.527v32.664   c0,19.621,15.905,35.527,35.527,35.527h3.976c19.621,0,35.527-15.905,35.527-35.527v-32.664   C128.052,177.516,112.146,161.609,92.526,161.609z"/>
	<path style="fill:#F9395E;" d="M266.847,166.834h-3.976c-19.621,0-35.527,15.905-35.527,35.527v32.663   c0,19.621,15.905,35.527,35.527,35.527h3.976c19.621,0,35.527-15.905,35.527-35.527V202.36   C302.374,182.74,286.468,166.834,266.847,166.834z"/>
	<path style="fill:#F9395E;" d="M426.829,164.559h-3.976c-19.621,0-35.527,15.905-35.527,35.527v32.663   c0,19.621,15.905,35.527,35.527,35.527h3.976c19.621,0,35.527-15.905,35.527-35.527v-32.663   C462.356,180.465,446.45,164.559,426.829,164.559z"/>
	<path style="fill:#F9395E;" d="M462.357,75.327v32.664c0,17.868-13.176,32.643-30.344,35.15c-1.693,0.251-3.427,0.376-5.183,0.376   h-3.981c-1.766,0-3.49-0.125-5.183-0.376c-17.157-2.508-30.344-17.293-30.344-35.15V75.327c0-12.1,6.05-22.789,15.297-29.194   c4.399-3.062,9.519-5.141,15.047-5.956c1.693-0.251,3.417-0.376,5.183-0.376h3.981c1.755,0,3.49,0.125,5.183,0.376   C449.181,42.684,462.357,57.469,462.357,75.327z"/>
	<path style="fill:#F9395E;" d="M161.714,63.46l-2.812-2.812c-13.874-13.874-36.368-13.874-50.242,0L85.564,83.745   c-13.874,13.874-13.874,36.368,0,50.242l2.812,2.812c13.874,13.874,36.368,13.874,50.242,0l23.096-23.096   C175.588,99.829,175.588,77.334,161.714,63.46z"/>
</g>
<path style="fill:#D92F52;" d="M107.83,135.642l-0.25-0.25c-14.582-14.582-14.582-38.222,0-52.804l20.534-20.534  c4.641-4.641,10.203-7.799,16.097-9.486c-12.62-3.611-26.768-0.453-36.707,9.486L86.969,82.589  c-14.582,14.582-14.582,38.222,0,52.804l0.25,0.25c9.94,9.94,24.088,13.098,36.707,9.486  C118.033,143.441,112.472,140.284,107.83,135.642z"/>
<g>
	<path style="fill:#F9395E;" d="M194.789,63.46l2.812-2.812c13.874-13.874,36.368-13.874,50.242,0l23.096,23.096   c13.874,13.874,13.874,36.368,0,50.242l-2.812,2.812c-13.874,13.874-36.368,13.874-50.242,0l-23.096-23.096   C180.915,99.829,180.915,77.334,194.789,63.46z"/>
	<path style="fill:#F9395E;" d="M373.545,372.234l2.812,2.812c13.874,13.874,36.368,13.874,50.242,0l23.096-23.096   c13.874-13.874,13.874-36.368,0-50.242l-2.812-2.812c-13.874-13.874-36.368-13.874-50.242,0l-23.096,23.096   C359.671,335.867,359.671,358.36,373.545,372.234z"/>
	<path style="fill:#F9395E;" d="M340.468,372.234l-2.812,2.812c-13.874,13.874-36.368,13.874-50.242,0l-23.096-23.096   c-13.874-13.874-13.874-36.368,0-50.242l2.812-2.812c13.874-13.874,36.368-13.874,50.242,0l23.096,23.096   C354.343,335.867,354.343,358.36,340.468,372.234z"/>
</g>
<g>
	<path style="fill:#D92F52;" d="M72.883,346.97v-28.688c0-17.281,11.687-31.821,27.584-36.176c-3.164-0.866-6.491-1.339-9.93-1.339   l0,0c-20.718,0-37.515,16.796-37.515,37.515v28.688c0,20.719,16.796,37.515,37.515,37.515l0,0c3.439,0,6.766-0.472,9.93-1.339   C84.569,378.791,72.883,364.249,72.883,346.97z"/>
	<path style="fill:#D92F52;" d="M72.883,227.812v-28.688c0-17.281,11.687-31.821,27.584-36.176c-3.164-0.866-6.491-1.339-9.93-1.339   l0,0c-20.718,0-37.515,16.796-37.515,37.515v28.688c0,20.719,16.796,37.515,37.515,37.515l0,0c3.439,0,6.766-0.472,9.93-1.339   C84.569,259.633,72.883,245.091,72.883,227.812z"/>
	<path style="fill:#D92F52;" d="M247.204,233.036v-28.688c0-17.281,11.687-31.821,27.584-36.176   c-3.164-0.866-6.491-1.339-9.93-1.339l0,0c-20.718,0-37.515,16.796-37.515,37.515v28.688c0,20.719,16.796,37.515,37.515,37.515l0,0   c3.439,0,6.766-0.472,9.93-1.339C258.891,264.858,247.204,250.316,247.204,233.036z"/>
	<path style="fill:#D92F52;" d="M407.186,106.007V77.319c0-17.281,11.687-31.821,27.584-36.176c-3.164-0.866-6.491-1.339-9.93-1.339   l0,0c-20.718,0-37.515,16.796-37.515,37.515v28.688c0,20.719,16.796,37.515,37.515,37.515l0,0c3.439,0,6.766-0.472,9.93-1.339   C418.873,137.828,407.186,123.286,407.186,106.007z"/>
	<path style="fill:#D92F52;" d="M407.186,230.762v-28.688c0-17.281,11.687-31.821,27.584-36.176   c-3.164-0.866-6.491-1.339-9.93-1.339l0,0c-20.718,0-37.515,16.796-37.515,37.515v28.688c0,20.719,16.796,37.515,37.515,37.515l0,0   c3.439,0,6.766-0.472,9.93-1.339C418.873,262.583,407.186,248.041,407.186,230.762z"/>
	<path style="fill:#D92F52;" d="M395.562,373.641l-0.25-0.25c-14.582-14.582-14.582-38.222,0-52.804l20.534-20.534   c4.641-4.641,10.203-7.799,16.097-9.486c-12.62-3.611-26.768-0.453-36.707,9.486L374.7,320.587   c-14.582,14.582-14.582,38.222,0,52.804l0.25,0.25c9.94,9.94,24.088,13.098,36.707,9.486   C405.764,381.44,400.203,378.282,395.562,373.641z"/>
	<path style="fill:#D92F52;" d="M306.97,373.641l-20.286-20.286c-14.651-14.651-14.651-38.403,0-53.054l0,0   c4.631-4.631,10.172-7.793,16.047-9.497c-12.711-3.685-26.988-0.522-37.007,9.497l0,0c-14.651,14.651-14.651,38.403,0,53.054   l20.286,20.286c10.02,10.02,24.296,13.182,37.007,9.497C317.142,381.434,311.601,378.272,306.97,373.641z"/>
	<path style="fill:#D92F52;" d="M237.441,135.393l-20.286-20.286c-14.651-14.651-14.651-38.403,0-53.054l0,0   c4.631-4.631,10.172-7.793,16.046-9.497c-12.711-3.685-26.988-0.522-37.007,9.497l0,0c-14.65,14.651-14.65,38.403,0,53.054   l20.286,20.286c10.02,10.02,24.296,13.182,37.007,9.497C247.613,143.187,242.072,140.024,237.441,135.393z"/>
</g>
<g>
</g>
<g>
</g>
<g>
</g>
<g>
</g>
<g>
</g>
<g>
</g>
<g>
</g>
<g>
</g>
<g>
</g>
<g>
</g>
<g>
</g>
<g>
</g>
<g>
</g>
<g>
</g>
<g>
</g>
</svg>
