<?xml version="1.0" encoding="iso-8859-1"?>
<!-- Generator: Adobe Illustrator 19.0.0, SVG Export Plug-In . SVG Version: 6.00 Build 0)  -->
<svg xmlns="http://www.w3.org/2000/svg" xmlns:xlink="http://www.w3.org/1999/xlink" version="1.1" id="Capa_1" x="0px" y="0px" viewBox="0 0 512 512" style="enable-background:new 0 0 512 512;" xml:space="preserve">
<path style="fill:#EAA7F4;" d="M511.479,255.479c0,56.038-18.04,107.864-48.645,149.982c-5.704,7.852-11.835,15.36-18.374,22.493  c-37.477,40.939-88.124,69.626-145.237,79.355c-14.046,2.398-28.488,3.65-43.223,3.65c-14.734,0-29.177-1.251-43.233-3.65  c-9.833-1.679-19.469-3.91-28.874-6.674c-10.125-2.972-20-6.559-29.563-10.709c-33.181-14.411-62.712-35.663-86.79-61.972  c-6.538-7.133-12.67-14.641-18.374-22.493C18.561,363.343,0.521,311.517,0.521,255.479C0.521,114.381,114.903,0,256,0  S511.479,114.381,511.479,255.479z"/>
<g>
	<path style="fill:#F9395E;" d="M13.541,270.23h37.912v-26.925H13.541c-6.775,0-12.266,5.492-12.266,12.266v2.392   C1.275,264.737,6.768,270.23,13.541,270.23z"/>
	<path style="fill:#F9395E;" d="M460.542,270.23h37.912c6.775,0,12.266-5.492,12.266-12.266v-2.392   c0-6.775-5.492-12.266-12.266-12.266h-37.912V270.23z"/>
</g>
<rect x="460.539" y="243.299" style="fill:#D92F52;" width="18.358" height="26.925"/>
<rect x="233.57" y="164.007" style="fill:#CCBFBF;" width="44.86" height="32.808"/>
<path style="fill:#E6E2E0;" d="M462.833,217.418v189.085c-5.704,7.852-11.835,15.36-18.374,22.493  c-37.477,40.939-88.124,69.626-145.237,79.355C285.177,510.749,270.734,512,256,512c-14.734,0-29.177-1.251-43.233-3.65  c-9.833-1.679-19.469-3.91-28.874-6.674c-45.277-13.295-85.33-38.791-116.352-72.681c-6.538-7.133-12.67-14.641-18.374-22.493  V217.418H462.833z"/>
<path style="fill:#E6D7D8;" d="M485.473,217.524H26.524c0-5.165,1.444-9.987,3.966-14.074c4.736-7.71,13.242-12.851,22.96-12.851  h405.099c7.441,0,14.172,3.01,19.043,7.881c1.493,1.493,2.803,3.158,3.917,4.969C484.029,207.537,485.473,212.359,485.473,217.524z"/>
<path style="fill:#CCC9C7;" d="M130.715,191.641H53.448c-9.718,0-18.223,5.14-22.96,12.851c-2.521,4.088-3.966,8.909-3.966,14.074  h77.266c0-5.165,1.444-9.987,3.966-14.074C112.492,196.781,120.998,191.641,130.715,191.641z"/>
<path style="fill:#F9395E;" d="M321.05,161.152c0,4.061-1.653,7.728-4.297,10.388c-2.66,2.644-6.328,4.297-10.388,4.297H205.631  c-8.105,0-14.685-6.579-14.685-14.685c0-4.061,1.653-7.728,4.297-10.388c2.66-2.644,6.328-4.297,10.388-4.297h100.734  C314.471,146.466,321.05,153.045,321.05,161.152z"/>
<path style="fill:#D92F52;" d="M222.029,161.152c0-4.061,1.653-7.728,4.297-10.388c2.66-2.644,6.328-4.297,10.388-4.297h-31.083  c-4.061,0-7.728,1.653-10.388,4.297c-2.644,2.66-4.297,6.328-4.297,10.388c0,8.105,6.579,14.685,14.685,14.685h31.083  C228.609,175.836,222.029,169.257,222.029,161.152z"/>
<g>
	<path style="fill:#CCC9C7;" d="M154.33,490.967c-33.181-14.411-62.712-35.663-86.79-61.972   c-6.538-7.133-12.67-14.641-18.374-22.493V217.418l35.173,1.147c0,0-0.292,7.028,0.031,19.083   C85.507,281.579,94.611,406.482,154.33,490.967z"/>
	<rect x="49.167" y="218.565" style="fill:#CCC9C7;" width="413.667" height="19.077"/>
</g>
<g>
</g>
<g>
</g>
<g>
</g>
<g>
</g>
<g>
</g>
<g>
</g>
<g>
</g>
<g>
</g>
<g>
</g>
<g>
</g>
<g>
</g>
<g>
</g>
<g>
</g>
<g>
</g>
<g>
</g>
</svg>
