<?xml version="1.0" encoding="iso-8859-1"?>
<!-- Generator: Adobe Illustrator 19.0.0, SVG Export Plug-In . SVG Version: 6.00 Build 0)  -->
<svg xmlns="http://www.w3.org/2000/svg" xmlns:xlink="http://www.w3.org/1999/xlink" version="1.1" id="Capa_1" x="0px" y="0px" viewBox="0 0 512 512" style="enable-background:new 0 0 512 512;" xml:space="preserve">
<path style="fill:#F2B54D;" d="M509.669,290.517c-0.209,1.523-0.428,3.036-0.657,4.549c-7.982,51.864-31.926,101.736-71.875,141.685  c-13.855,13.866-28.9,25.802-44.822,35.797c-29.579,18.613-62.151,30.58-95.57,35.88c-1.513,0.24-3.026,0.47-4.539,0.678  c-76.769,10.809-157.523-13.313-216.565-72.355c-99.826-99.826-99.826-261.668,0-361.495  c89.403-89.403,228.553-98.741,328.338-28.003c11.633,8.242,22.734,17.58,33.157,28.003s19.761,21.524,28.003,33.168  C503.346,162.323,518.193,227.698,509.669,290.517z"/>
<path style="fill:#F9395E;" d="M509.011,295.066c-7.982,51.864-31.926,101.736-71.875,141.685  c-39.605,39.615-88.996,63.518-140.391,71.677c-1.513,0.24-3.026,0.47-4.539,0.678L12.572,229.482l68.338-68.338L227.999,14.054  L509.011,295.066z"/>
<path style="fill:#D92F52;" d="M392.314,472.548c-29.579,18.613-62.151,30.58-95.57,35.88c-1.513,0.24-3.026,0.47-4.539,0.678  L12.572,229.482l68.338-68.338L392.314,472.548z"/>
<path style="fill:#FCF4D0;" d="M173.769,175.253c-13.897,13.897-28.483,25.875-43.058,35.693  c-47.816,32.208-95.496,41.18-118.137,18.54C-16.963,199.938,7.315,127.771,66.796,68.28c9.63-9.63,19.594-18.331,29.652-26.031  h0.01c52.083-39.897,106.775-52.949,131.544-28.191C257.538,43.594,233.26,115.772,173.769,175.253z"/>
<path style="fill:#EAE1B8;" d="M173.769,175.253c-13.897,13.897-28.483,25.875-43.058,35.693  c-47.816,32.208-95.496,41.18-118.137,18.54C-16.963,199.938,7.315,127.771,66.796,68.28c9.63-9.63,19.594-18.331,29.652-26.031  h0.01C96.458,42.248,53.149,158.653,173.769,175.253z"/>
<g>
	
		<ellipse transform="matrix(-0.7071 0.7071 -0.7071 -0.7071 218.946 239.9025)" style="fill:#FFFFFF;" cx="59.788" cy="165.296" rx="19.302" ry="9.39"/>
	
		<ellipse transform="matrix(-0.7071 0.7071 -0.7071 -0.7071 291.4513 39.7045)" style="fill:#FFFFFF;" cx="137.503" cy="80.214" rx="25.736" ry="12.52"/>
	
		<ellipse transform="matrix(-0.7071 0.7071 -0.7071 -0.7071 336.8657 171.8846)" style="fill:#FFFFFF;" cx="132.834" cy="155.709" rx="19.302" ry="9.39"/>
	
		<ellipse transform="matrix(-0.7071 0.7071 -0.7071 -0.7071 344.1485 -14.4619)" style="fill:#FFFFFF;" cx="175.069" cy="64.045" rx="9.651" ry="4.695"/>
	
		<ellipse transform="matrix(-0.7071 0.7071 -0.7071 -0.7071 203.6043 103.1312)" style="fill:#FFFFFF;" cx="80.443" cy="93.733" rx="9.651" ry="4.695"/>
</g>
<g>
</g>
<g>
</g>
<g>
</g>
<g>
</g>
<g>
</g>
<g>
</g>
<g>
</g>
<g>
</g>
<g>
</g>
<g>
</g>
<g>
</g>
<g>
</g>
<g>
</g>
<g>
</g>
<g>
</g>
</svg>
