<?xml version="1.0" encoding="iso-8859-1"?>
<!-- Generator: Adobe Illustrator 19.0.0, SVG Export Plug-In . SVG Version: 6.00 Build 0)  -->
<svg xmlns="http://www.w3.org/2000/svg" xmlns:xlink="http://www.w3.org/1999/xlink" version="1.1" id="Capa_1" x="0px" y="0px" viewBox="0 0 512 512" style="enable-background:new 0 0 512 512;" xml:space="preserve">
<path style="fill:#F2B54D;" d="M512,256c0,64.951-24.189,124.259-64.052,169.388c-16.718,18.934-36.206,35.38-57.825,48.703  C351.117,498.134,305.183,512,256,512s-95.117-13.866-134.123-37.909c-21.619-13.322-41.106-29.769-57.835-48.713  C24.179,380.249,0,320.94,0,256C0,114.615,114.615,0,256,0S512,114.615,512,256z"/>
<polygon style="fill:#E6E2E0;" points="480.36,322.999 396.8,364.502 367.815,306.134 451.385,264.641 457.404,276.762   462.326,286.678 "/>
<rect x="386.991" y="322.724" transform="matrix(-0.8956 0.4448 -0.4448 -0.8956 970.4955 439.8704)" style="fill:#CCC9C7;" width="93.296" height="22.151"/>
<polygon style="fill:#FFFFFF;" points="462.326,285.633 386.341,323.375 381.409,313.448 457.404,275.717 "/>
<circle style="fill:#E6D7D8;" cx="256" cy="186.378" r="27.22"/>
<path style="fill:#CCBFBF;" d="M249.684,186.373c0-11.328,6.921-21.035,16.765-25.132c-3.217-1.34-6.746-2.081-10.449-2.081  c-15.03,0-27.214,12.185-27.214,27.214S240.97,213.588,256,213.588c3.703,0,7.232-0.743,10.449-2.081  C256.606,207.409,249.684,197.701,249.684,186.373z"/>
<path style="fill:#E6E2E0;" d="M256,12.57c-52.036,0-98.701,23.385-130.058,60.197c-25.401,29.821-40.751,68.462-40.751,110.613  c0,52.046,23.395,98.722,60.217,130.079c29.821,25.391,68.451,40.73,110.592,40.73c94.177,0,170.809-76.622,170.809-170.809  S350.177,12.57,256,12.57z M256,329.498c-29.999,0-57.908-9.08-81.136-24.639c-39.163-26.248-64.993-70.907-64.993-121.48  c0-25.151,6.395-48.849,17.638-69.538C152.273,68.263,200.589,37.251,256,37.251c80.572,0,146.119,65.557,146.119,146.129  S336.572,329.498,256,329.498z"/>
<path style="fill:#CCC9C7;" d="M174.864,304.859l-29.456,8.6c-36.822-31.357-60.217-78.033-60.217-130.079  c0-42.151,15.35-80.791,40.751-110.613c-2.184,9.446-4.138,25.287,1.567,41.075c-11.243,20.689-17.638,44.387-17.638,69.538  C109.871,233.953,135.701,278.612,174.864,304.859z"/>
<path style="fill:#F9395E;" d="M450.006,397.082c0,9.613-0.7,19.069-2.058,28.306c-16.718,18.934-36.206,35.38-57.825,48.703  H121.877c-21.619-13.322-41.106-29.769-57.835-48.713c-1.358-9.237-2.058-18.683-2.058-28.296  c0-65.296,32.256-123.047,81.69-158.208c1.149-0.825,2.309-1.63,3.48-2.424c1.17-0.794,2.361-1.578,3.553-2.351  c30.323-19.634,66.476-31.033,105.294-31.033s74.971,11.4,105.294,31.044c1.191,0.763,2.382,1.557,3.553,2.351  s2.33,1.599,3.479,2.424C417.761,274.035,450.006,331.786,450.006,397.082z"/>
<path style="fill:#D92F52;" d="M275.853,474.091H121.877c-21.619-13.322-41.106-29.769-57.835-48.713  c-1.358-9.237-2.058-18.683-2.058-28.296c0-65.296,32.256-123.047,81.69-158.208c1.149-0.825,2.309-1.63,3.48-2.424  c1.17-0.794,2.361-1.578,3.553-2.351c30.323-19.634,66.476-31.033,105.294-31.033c0,0-78.367,39.633-72.098,135.764  C190.171,434.96,275.853,474.091,275.853,474.091z"/>
<path style="fill:#FCF4D0;" d="M390.123,474.091C351.117,498.134,305.183,512,256,512s-95.117-13.866-134.123-37.909H390.123z"/>
<path style="fill:#D92F52;" d="M368.327,238.885l-0.522,0.522C345.13,262.154,302.289,276.281,256,276.281  c-46.299,0-89.14-14.127-111.804-36.885l-0.522-0.522c1.149-0.825,2.309-1.63,3.48-2.424c1.17-0.794,2.361-1.578,3.553-2.351  c21.316,20.877,61.544,33.823,105.294,33.823c43.739,0,83.968-12.946,105.294-33.813c1.191,0.763,2.382,1.557,3.553,2.351  S367.177,238.059,368.327,238.885z"/>
<ellipse transform="matrix(-0.2741 -0.9617 0.9617 -0.2741 173.5118 775.3607)" style="fill:#FF5B6E;" cx="379.38" cy="322.196" rx="39.567" ry="24.127"/>
<g>
</g>
<g>
</g>
<g>
</g>
<g>
</g>
<g>
</g>
<g>
</g>
<g>
</g>
<g>
</g>
<g>
</g>
<g>
</g>
<g>
</g>
<g>
</g>
<g>
</g>
<g>
</g>
<g>
</g>
</svg>
