<?xml version="1.0" encoding="iso-8859-1"?>
<!-- Generator: Adobe Illustrator 19.0.0, SVG Export Plug-In . SVG Version: 6.00 Build 0)  -->
<svg xmlns="http://www.w3.org/2000/svg" xmlns:xlink="http://www.w3.org/1999/xlink" version="1.1" id="Capa_1" x="0px" y="0px" viewBox="0 0 512 512" style="enable-background:new 0 0 512 512;" xml:space="preserve">
<circle style="fill:#8CC371;" cx="256" cy="256" r="256"/>
<g>
	<path style="fill:#F2EEED;" d="M128.84,11.781c-28.035-1.252-55.492,9.409-75.336,29.253l-2.205,2.205l-2.559,2.559l-3.99,3.99   l-2.558,2.558l-2.205,2.205c-19.843,19.843-30.504,47.3-29.252,75.335c1.253,28.034,14.32,54.433,35.854,72.427l82.247,68.729   c19.255,16.09,43.665,24.336,68.733,23.216c24.845-1.111,48.216-11.334,65.905-28.789c0.167-0.153,0.329-0.307,0.486-0.463   c17.743-17.743,28.133-41.322,29.252-66.39c1.12-25.068-7.124-49.479-23.215-68.733l-68.729-82.247   C183.273,26.102,156.874,13.034,128.84,11.781z M265.43,237.094c-6.737-18.182-23.322-40.842-42.325-60.877l-73.493-77.484   c-26.266-27.692-55.344-48.625-75.838-55.336c5.947-2.268,12.715-3.337,20.131-3.114c24.858,0.749,53.239,15.816,74.069,39.32   l70.935,80.042C261.18,184.775,270.743,214.906,265.43,237.094z M57.608,54.663c0.924-0.924,2.925-1.037,4.036-1.022   c13.706,0.181,46.005,19.07,78.871,53.72l73.493,77.484c35.916,37.866,45.839,66.54,41.086,71.292   c-4.753,4.753-33.427-5.169-71.293-41.085l-77.483-73.493c-34.651-32.865-53.54-65.165-53.72-78.871   c-0.016-1.111,0.098-3.112,1.021-4.035L57.608,54.663z M42.352,74.82c6.71,20.494,27.644,49.572,55.336,75.838l77.483,73.493   c17.427,16.529,35.488,29.966,50.856,37.831c3.667,1.877,7.011,3.346,10.072,4.481c-22.194,5.342-52.351-4.218-77.5-26.506   l-80.042-70.935c-23.504-20.83-38.569-49.213-39.318-74.07C39.014,87.535,40.083,80.766,42.352,74.82z M136.876,261.42   L54.63,192.69c-18.838-15.742-30.272-38.838-31.368-63.364c-0.447-10.026,0.848-19.966,3.72-29.402   c2.356,27.319,18.266,56.333,43.258,78.481l80.042,70.935c19.467,17.252,41.359,27.578,61.609,30.427   c-4.862,1.064-9.835,1.738-14.881,1.963C175.079,282.711,153.722,275.498,136.876,261.42z M191.645,55.675l68.729,82.247   c14.078,16.846,21.291,38.201,20.312,60.133c-0.226,5.048-0.9,10.021-1.964,14.882c-2.849-20.25-13.175-42.142-30.427-61.61   l-70.935-80.042c-22.149-24.992-51.162-40.901-78.481-43.258c9.436-2.872,19.378-4.168,29.403-3.72   C152.807,25.404,175.902,36.836,191.645,55.675z"/>
	<polygon style="fill:#F2EEED;" points="409.237,396.349 395.304,409.237 256.489,270.423 270.423,257.534  "/>
</g>
<path style="fill:#F9395E;" d="M406.527,369.953l47.87,47.87c-5.416,6.613-11.209,13.026-17.378,19.196  c-6.169,6.17-12.583,11.962-19.196,17.378l-47.87-47.87c-5.719-5.719-5.719-14.984-0.007-20.695l15.878-15.878  C391.543,364.235,400.808,364.235,406.527,369.953z"/>
<path style="fill:#D92F52;" d="M381.436,374.342c-5.711,5.711-5.711,14.977,0.007,20.695l48.646,48.646  c-3.997,3.731-8.091,7.292-12.265,10.713l-47.87-47.87c-5.719-5.719-5.719-14.984-0.007-20.695L381.436,374.342z"/>
<g>
</g>
<g>
</g>
<g>
</g>
<g>
</g>
<g>
</g>
<g>
</g>
<g>
</g>
<g>
</g>
<g>
</g>
<g>
</g>
<g>
</g>
<g>
</g>
<g>
</g>
<g>
</g>
<g>
</g>
</svg>
