<?xml version="1.0" encoding="iso-8859-1"?>
<!-- Generator: Adobe Illustrator 19.0.0, SVG Export Plug-In . SVG Version: 6.00 Build 0)  -->
<svg xmlns="http://www.w3.org/2000/svg" xmlns:xlink="http://www.w3.org/1999/xlink" version="1.1" id="Capa_1" x="0px" y="0px" viewBox="0 0 512 512" style="enable-background:new 0 0 512 512;" xml:space="preserve">
<path style="fill:#94F3FF;" d="M512,256c0,57.051-18.672,109.756-50.228,152.315c-38.473,51.9-96.12,88.733-162.461,100.028  C285.236,510.746,270.764,512,256,512c-14.764,0-29.236-1.254-43.321-3.657c-22.089-3.762-43.207-10.355-62.976-19.404  c-39.633-18.098-73.843-46.028-99.495-80.666C18.662,365.714,0,313.041,0,256C0,114.615,114.615,0,256,0S512,114.615,512,256z"/>
<path style="fill:#D39F15;" d="M116.367,450.108c-88.958-88.957-74.708-177.87,14.249-266.827  c88.958-88.958,166.898-92.237,255.857-3.279l-74.724,74.723c-30.787-30.787-80.712-30.794-111.507,0  c-30.788,30.789-30.781,80.713,0.007,111.501L116.367,450.108L116.367,450.108z"/>
<path style="fill:#FCF4D0;" d="M417.071,149.4c-48.494-48.494-113.413-70.552-176.859-66.173  c-52.924,3.657-104.824,25.725-145.283,66.184C24.91,219.418,10,323.668,50.207,408.273c25.652,34.638,59.862,62.568,99.495,80.666  c19.769,9.049,40.887,15.642,62.976,19.404C226.764,510.746,241.236,512,256,512c14.764,0,29.236-1.254,43.311-3.657  c66.341-11.295,123.988-48.128,162.461-100.028C502,323.709,487.1,219.429,417.071,149.4z M200.244,254.725  c25.496-25.496,64.115-29.874,94.124-13.145c1.128,0.627,2.257,1.285,3.354,1.975c2.215,1.39,4.378,2.884,6.478,4.514  c1.567,1.212,3.103,2.497,4.608,3.856c0.993,0.899,1.975,1.829,2.936,2.79v0.01h-0.01c0.899,0.888,1.755,1.808,2.602,2.727  c0.178,0.199,0.355,0.397,0.533,0.606c0.46,0.522,0.92,1.055,1.369,1.588c1.63,1.964,3.229,4.044,4.765,6.248l0.533,0.752  c0.136,0.209,0.282,0.428,0.418,0.637c20.072,30.584,16.677,72.056-10.209,98.941c-30.636,30.626-80.185,30.772-111.01,0.481  c-0.157-0.167-0.324-0.324-0.491-0.481C169.462,335.433,169.451,285.518,200.244,254.725z"/>
<path style="fill:#EAE1B8;" d="M240.222,83.237c0,0-15.078,15.83-34.544,43.175c-0.439,0.637-0.888,1.275-1.358,1.923  c-4.775,6.792-9.812,14.263-14.932,22.34c-3.333,5.256-6.698,10.773-10.062,16.53c-33.98,58.18-67.469,141.124-56.529,231.079  c0.888,7.293,2.069,14.618,3.563,21.995c1.076,5.339,2.33,10.71,3.751,16.091c2.717,10.271,6.071,20.595,10.115,30.96  c2.821,7.189,5.966,14.399,9.477,21.608c-39.633-18.098-73.843-46.028-99.495-80.666C10,323.668,24.91,219.418,94.929,149.41  c40.458-40.458,92.359-62.527,145.283-66.184L240.222,83.237z"/>
<path style="fill:#FF6ABB;" d="M332.978,233.503c7.607,7.617,14.106,16.342,19.205,25.924c1.735-11.327,2.988-22.298,3.887-32.789  c0.502-5.966,0.888-11.776,1.17-17.398L332.978,233.503z M429.265,237.275c-9.509-22.497-14.9-49.236-32.862-67.208  c-10.971-10.971-25.213-17.251-39.769-22.643c-5.423-2.017-10.888-3.908-16.238-5.872c-3.803-1.39-7.555-2.821-11.201-4.357  c-13.97-5.904-28.254-14.232-43.645-19.696c-9.383-3.333-19.174-5.59-29.56-5.59c-18.275,0-34.712,7.011-50.312,14.503  c-7.795,3.751-15.381,7.617-22.883,10.783c-22.497,9.519-49.236,14.9-67.208,32.872c-17.962,17.972-23.343,44.711-32.862,67.208  s-25.297,45.787-25.297,73.195c0,27.418,15.778,50.698,25.297,73.195c7.774,18.359,12.779,39.56,24.127,56.498  c2.56,3.814,5.433,7.419,8.735,10.721c7.105,7.105,15.59,12.246,24.639,16.447c8.098,3.762,16.656,6.781,25.088,9.78  c5.956,2.132,11.849,4.253,17.481,6.635c1.264,0.533,2.529,1.087,3.803,1.661c9.812,4.399,19.79,9.749,30.239,14.242  c12.278,5.277,25.172,9.383,39.152,9.383c27.418,0,50.709-15.778,73.206-25.287c22.497-9.519,49.246-14.89,67.208-32.862  s23.353-44.722,32.862-67.218c9.519-22.497,25.297-45.777,25.297-73.195C454.562,283.063,438.784,259.772,429.265,237.275z   M297.911,410.99c-12.905,5.402-27.073,8.391-41.921,8.391c-30.02,0-57.25-12.215-76.967-31.932  c-19.717-19.728-31.932-46.947-31.932-76.978c0-60.04,48.849-108.91,108.899-108.91c30.041,0,57.271,12.215,76.988,31.943  c7.607,7.617,14.106,16.342,19.205,25.924c8.119,15.235,12.727,32.611,12.727,51.043C364.91,355.673,337.22,394.543,297.911,410.99z  "/>
<g>
	<path style="fill:#E6D7D8;" d="M342.573,175.808L342.573,175.808c-3.673,3.673-9.627,3.673-13.299,0l-17.733-17.733   c-3.673-3.673-3.673-9.627,0-13.299c3.673-3.673,9.627-3.673,13.299,0l17.732,17.733   C346.246,166.181,346.246,172.135,342.573,175.808z"/>
	<path style="fill:#E6D7D8;" d="M388.898,379.601c-5.165,0.541-9.791-3.209-10.332-8.375l-2.608-24.942   c-0.539-5.165,3.21-9.791,8.376-10.33c5.165-0.541,9.791,3.209,10.331,8.375l2.608,24.941   C397.814,374.436,394.063,379.062,388.898,379.601L388.898,379.601z"/>
</g>
<path style="fill:#FC81C7;" d="M454.562,310.471c0,27.418-15.778,50.698-25.297,73.195c-9.509,22.497-14.9,49.246-32.862,67.218  s-44.711,23.343-67.208,32.862c-22.497,9.509-45.787,25.287-73.206,25.287c-13.981,0-26.875-4.106-39.152-9.383  c34.701-26.311,61.095-56.728,81.074-88.66c39.309-16.447,66.999-55.317,66.999-100.519c0-18.432-4.608-35.809-12.727-51.043  c7.084-46.31,6.29-86.695,4.451-112.003c14.555,5.392,28.797,11.672,39.769,22.643c17.962,17.972,23.353,44.711,32.862,67.208  C438.784,259.772,454.562,283.063,454.562,310.471z"/>
<path style="fill:#F9EF4A;" d="M250.78,486.301L250.78,486.301c-5.194,0-9.404-4.211-9.404-9.404v-25.078  c0-5.193,4.21-9.404,9.404-9.404c5.193,0,9.404,4.21,9.404,9.404v25.078C260.184,482.09,255.974,486.301,250.78,486.301z"/>
<g>
	<path style="fill:#F9395E;" d="M353.596,225.782L353.596,225.782c-4.618-2.375-6.438-8.045-4.064-12.663l11.467-22.302   c2.375-4.618,8.045-6.439,12.663-4.064c4.619,2.375,6.439,8.045,4.064,12.663l-11.467,22.302   C363.884,226.337,358.214,228.157,353.596,225.782z"/>
	<path style="fill:#F9395E;" d="M377.37,442.257L377.37,442.257c-3.673-3.673-3.673-9.627,0-13.299l17.733-17.733   c3.673-3.673,9.627-3.673,13.299,0s3.673,9.627,0,13.299l-17.732,17.733C386.997,445.929,381.043,445.929,377.37,442.257z"/>
</g>
<path style="fill:#F9EF4A;" d="M116.146,418.225L116.146,418.225c-3.673-3.673-3.673-9.627,0-13.299l17.733-17.733  c3.673-3.673,9.627-3.673,13.299,0s3.673,9.627,0,13.299l-17.732,17.733C125.772,421.896,119.818,421.896,116.146,418.225z"/>
<g>
	<path style="fill:#F9395E;" d="M240.221,193.836L240.221,193.836c-2.195-4.707-0.158-10.302,4.549-12.497l22.729-10.597   c4.707-2.195,10.303-0.158,12.497,4.549c2.194,4.707,0.158,10.302-4.549,12.497l-22.729,10.597   C248.011,200.58,242.415,198.543,240.221,193.836z"/>
	<path style="fill:#F9395E;" d="M125.584,252.123c-5.165,0.54-9.791-3.21-10.331-8.375l-2.607-24.943   c-0.54-5.165,3.21-9.791,8.375-10.33c5.166-0.54,9.791,3.208,10.332,8.375l2.608,24.941   C134.499,246.958,130.75,251.584,125.584,252.123L125.584,252.123z"/>
</g>
<path style="fill:#F9EF4A;" d="M419.746,282.853L419.746,282.853c-4.498,2.597-10.249,1.055-12.846-3.442l-12.539-21.718  c-2.597-4.498-1.055-10.249,3.442-12.846c4.497-2.597,10.249-1.055,12.846,3.442l12.539,21.718  C425.784,274.504,424.243,280.255,419.746,282.853z"/>
<path style="fill:#E6D7D8;" d="M305.145,412.427c3.673-3.672,9.627-3.672,13.299,0l17.733,17.733c3.672,3.673,3.672,9.627,0,13.299  c-3.673,3.673-9.627,3.673-13.299,0l-17.733-17.733C301.473,422.055,301.473,416.1,305.145,412.427L305.145,412.427z"/>
<path style="fill:#F9395E;" d="M155.724,454.223L155.724,454.223c3.673-3.673,9.627-3.673,13.299,0l17.732,17.733  c3.673,3.673,3.673,9.627,0,13.299c-3.673,3.673-9.627,3.673-13.299,0l-17.733-17.733  C152.053,463.85,152.053,457.896,155.724,454.223z"/>
<path style="fill:#F9EF4A;" d="M172.443,147.023c3.673-3.673,9.628-3.673,13.299,0l17.733,17.732c3.673,3.673,3.673,9.627,0,13.301  c-3.673,3.673-9.627,3.673-13.301,0l-17.733-17.733C168.771,156.651,168.771,150.695,172.443,147.023L172.443,147.023z"/>
<path style="fill:#E6D7D8;" d="M84.671,310.027L84.671,310.027c3.673-3.673,9.627-3.673,13.299,0l17.732,17.733  c3.673,3.673,3.673,9.627,0,13.299c-3.673,3.673-9.627,3.673-13.299,0L84.67,323.327C80.999,319.654,80.999,313.7,84.671,310.027z"/>
<g>
</g>
<g>
</g>
<g>
</g>
<g>
</g>
<g>
</g>
<g>
</g>
<g>
</g>
<g>
</g>
<g>
</g>
<g>
</g>
<g>
</g>
<g>
</g>
<g>
</g>
<g>
</g>
<g>
</g>
</svg>
