<?xml version="1.0" encoding="iso-8859-1"?>
<!-- Generator: Adobe Illustrator 19.0.0, SVG Export Plug-In . SVG Version: 6.00 Build 0)  -->
<svg xmlns="http://www.w3.org/2000/svg" xmlns:xlink="http://www.w3.org/1999/xlink" version="1.1" id="Capa_1" x="0px" y="0px" viewBox="0 0 512 512" style="enable-background:new 0 0 512 512;" xml:space="preserve">
<path style="fill:#EAA7F4;" d="M495.982,324.489c-0.31,1.054-0.63,2.118-0.95,3.172c-1.24,3.998-2.562,7.955-3.988,11.901  c-12.242,33.771-31.891,65.445-58.968,92.512c-15.197,15.207-31.86,28.069-49.526,38.585c-2.562,1.529-5.155,3.017-7.769,4.442  c-11.395,6.26-23.172,11.581-35.218,15.94c-3.936,1.436-7.903,2.769-11.911,3.998c-1.054,0.32-2.097,0.641-3.151,0.95  c-4.597,1.343-9.215,2.562-13.864,3.626c-82.315,19.133-172.348-3.388-236.502-67.542c-98.845-98.845-98.845-259.095,0-357.94  s259.095-98.845,357.94,0C499.847,141.903,521.158,238.558,495.982,324.489z"/>
<path style="fill:#FFFFFF;" d="M400.753,248.102l-13.418-5.465c-75.694-30.87-144.461-76.554-202.266-134.359l-18.973-18.973  l-51.472,19.593L89.302,166.1l18.973,18.973c57.805,57.805,103.489,126.571,134.359,202.266l5.465,13.418  c17.113,41.931,42.51,79.745,74.471,111.244c43.246-13.285,83.962-37.037,118.18-71.255s57.962-74.926,71.247-118.171  C480.49,290.62,442.693,265.208,400.753,248.102z"/>
<path style="fill:#F2EEED;" d="M495.982,324.489c-0.31,1.054-0.63,2.118-0.95,3.172c-1.24,3.998-2.562,7.955-3.988,11.901  c-12.242,33.771-31.891,65.445-58.968,92.512c-15.197,15.207-31.86,28.069-49.526,38.585c-13.781,8.223-28.182,15.021-42.986,20.383  c-3.936,1.436-7.903,2.769-11.911,3.998c-1.054,0.32-2.097,0.641-3.151,0.95c-27.49-28.792-49.433-62.594-64.691-100.002  l-5.465-13.42c-23.895-58.606-56.044-112.543-95.869-160.953c-12.955-15.754-26.695-30.93-41.261-45.486l-26.364-26.374  l33.193-30.92l25.372-28.327l26.705,26.715c14.556,14.556,29.722,28.317,45.476,41.261c48.42,39.835,102.357,71.964,160.963,95.869  l13.44,5.465C433.378,275.056,467.19,296.999,495.982,324.489z"/>
<path style="fill:#E6E2E0;" d="M374.783,475.101c-11.395,6.26-23.172,11.581-35.218,15.94c-3.936,1.436-7.903,2.769-11.911,3.998  c-1.054,0.32-2.097,0.641-3.151,0.95c-4.597,1.343-9.215,2.562-13.864,3.626c-26.395-28.854-47.614-62.284-62.542-98.855  l-5.465-13.42c-30.868-75.693-76.551-144.465-134.351-202.266l-18.978-18.978l23.564-53.234l-5.537,35.217l18.967,18.967  c57.801,57.811,108.907,121.159,150.302,186.325l7.335,11.55C308.707,403.943,339.761,441.546,374.783,475.101z"/>
<polygon style="fill:#F9395E;" points="123.686,2.632 152.845,41.092 141.063,52.874 166.099,89.309 89.303,166.104 52.878,141.059   41.085,152.852 2.635,123.682 12.327,113.991 113.995,12.324 "/>
<path style="fill:#665F60;" d="M495.982,324.489c-0.31,1.054-0.63,2.118-0.95,3.172c-1.24,3.998-2.562,7.955-3.988,11.901  c-12.242,33.771-31.891,65.445-58.968,92.512c-15.197,15.207-31.86,28.069-49.526,38.585c-13.781,8.223-28.182,15.021-42.986,20.383  c-3.936,1.436-7.903,2.769-11.911,3.998c-1.054,0.32-2.097,0.641-3.151,0.95c-27.49-28.792-49.433-62.594-64.691-100.002  l-5.465-13.42c-23.895-58.606-56.044-112.543-95.869-160.953l63.121-63.131c48.42,39.835,102.357,71.964,160.963,95.869l13.44,5.465  C433.378,275.056,467.19,296.999,495.982,324.489z"/>
<path style="fill:#4D4848;" d="M374.783,475.101c-11.395,6.26-23.172,11.581-35.218,15.94c-3.936,1.436-7.903,2.769-11.911,3.998  c-1.054,0.32-2.097,0.641-3.151,0.95c-27.49-28.792-49.433-62.594-64.691-100.002l-5.465-13.42  c-23.895-58.606-56.044-112.543-95.869-160.953l10.031-10.041c40.631,45.207,77.067,92.997,108.08,141.81l7.345,11.539  C308.707,403.943,339.771,441.546,374.783,475.101z"/>
<g>
	<polygon style="fill:#D92F52;" points="41.085,152.852 72.635,121.302 31.673,94.644 2.635,123.682  "/>
	<polygon style="fill:#D92F52;" points="89.303,166.104 52.878,141.059 141.063,52.874 150.613,66.772 87.6,129.785 107.327,148.08     "/>
</g>
<ellipse transform="matrix(-0.7071 -0.7071 0.7071 -0.7071 489.58 829.1413)" style="fill:#807878;" cx="416.511" cy="313.175" rx="39.831" ry="18.967"/>
<g>
</g>
<g>
</g>
<g>
</g>
<g>
</g>
<g>
</g>
<g>
</g>
<g>
</g>
<g>
</g>
<g>
</g>
<g>
</g>
<g>
</g>
<g>
</g>
<g>
</g>
<g>
</g>
<g>
</g>
</svg>
