<?xml version="1.0" encoding="iso-8859-1"?>
<!-- Generator: Adobe Illustrator 19.0.0, SVG Export Plug-In . SVG Version: 6.00 Build 0)  -->
<svg xmlns="http://www.w3.org/2000/svg" xmlns:xlink="http://www.w3.org/1999/xlink" version="1.1" id="Capa_1" x="0px" y="0px" viewBox="0 0 512 512" style="enable-background:new 0 0 512 512;" xml:space="preserve">
<path style="fill:#F9395E;" d="M511.955,260.46v0.01c-0.125,6.895-0.522,13.747-1.201,20.558  c-1.045,10.54-2.737,20.987-5.066,31.255c-6.048,26.701-16.328,52.305-30.43,75.757c-10.31,17.153-22.658,33.167-36.896,47.614  c-0.23,0.24-0.46,0.481-0.7,0.721c-22.919,23.107-50.665,42.193-82.536,55.585c-130.318,54.739-280.337-6.518-335.086-136.836  C-10.36,282.742-4.98,204.28,28.145,139.44c6.404-12.536,13.841-24.559,22.271-35.935c1.859-2.518,3.771-4.993,5.735-7.448  c25.813-32.342,59.878-58.854,100.723-76.018C287.192-34.7,437.211,26.557,491.96,156.875  C506.188,190.742,512.58,225.946,511.955,260.46z"/>
<path style="fill:#B16E60;" d="M112.703,61.542c3.013,9.828,6.534,19.587,10.599,29.262l-44.396,22.891l-20.944-7.008l-26.054-8.735  c1.941-12.132,4.598-24.119,7.953-35.887c5.776-20.255,24.123-29.368,41.229-27.272C94.818,36.469,107.749,45.373,112.703,61.542z"/>
<g>
	<path style="fill:#F9EF4A;" d="M123.264,90.806c-0.021-0.018-0.059-0.015-0.081-0.005C122.301,89.451,123.518,90.91,123.264,90.806   z"/>
	<path style="fill:#F9EF4A;" d="M511.955,260.471c-0.125,6.895-0.522,13.747-1.201,20.558c-1.045,10.54-2.737,20.987-5.066,31.255   c-6.048,26.701-16.328,52.305-30.43,75.757c-10.31,17.153-22.658,33.167-36.896,47.614c-11.366,4.074-22.971,7.48-34.723,10.175   c-27.39,6.268-55.585,8.806-83.664,7.417c-27.975-1.379-55.679-6.675-82.265-15.523c-27.244-9.067-53.161-22.125-76.822-38.39   c-23.024-15.847-43.874-34.922-61.717-56.441c-17.884-21.582-32.76-45.609-44.198-71.181   C44.076,247.35,36.304,221.59,32.01,195.244c-2.988-18.438-4.283-37.137-3.865-55.804c0.146-6.748,0.522-13.486,1.118-20.203   c0.564-6.31,1.327-12.619,2.277-18.887c0.052-0.428,0.073-2.131,0.407-2.403c0.052-0.052,0.261,0,0.334-0.021   c0.47-0.157,1.149-0.094,1.651-0.125c0.836-0.073,1.661-0.136,2.507-0.198c4.481-0.355,8.973-0.7,13.444-1.055   c2.089-0.167,4.179-0.324,6.268-0.491c10.613-0.836,21.216-1.671,31.83-2.497c9.381-0.731,18.762-1.462,28.142-2.194   c1.358-0.115,2.716-0.209,4.074-0.324c0.825-0.063,1.776-0.272,2.612-0.198c0.094,0.01,0.251-0.042,0.376-0.042   c0.084,0.104,0.178,0.251,0.292,0.418c0.554,0.815,0.846,1.985,1.243,2.894c1.358,3.155,2.779,6.278,4.252,9.381   c5.871,12.41,12.577,24.423,20.057,35.946c14.249,21.937,31.339,42.005,50.696,59.596c15.805,14.364,33.125,27.066,51.573,37.857   c18.239,10.666,37.586,19.451,57.601,26.178c20.182,6.79,41.075,11.48,62.229,13.967c21.279,2.497,42.84,2.758,64.172,0.763   c21.979-2.058,43.728-6.518,64.746-13.246C504.035,263.27,508.005,261.912,511.955,260.471z"/>
</g>
<path style="fill:#9E5B50;" d="M90.24,93.389l-32.277,13.297l-26.054-8.735c1.941-12.132,4.598-24.119,7.953-35.887  c5.775-20.254,24.122-29.367,41.228-27.271C54.017,65.136,90.24,93.389,90.24,93.389z"/>
<path style="fill:#FFFCA6;" d="M511.955,260.46c-0.125,6.895-0.522,13.758-1.201,20.569c-1.045,10.54-2.737,20.987-5.066,31.255  C279.326,355.01,196.414,195.996,196.414,195.996h0.01C278.814,273.1,400.366,301.284,511.955,260.46z"/>
<path style="fill:#F4D52D;" d="M475.257,388.041c-10.31,17.153-22.658,33.167-36.896,47.614  c-11.366,4.074-22.971,7.48-34.723,10.175c-27.39,6.268-55.585,8.806-83.664,7.417c-27.975-1.379-55.679-6.675-82.265-15.523  c-27.244-9.067-53.161-22.125-76.822-38.39c-23.024-15.847-43.874-34.922-61.717-56.441c-17.884-21.582-32.76-45.609-44.198-71.181  C44.076,247.35,36.304,221.59,32.01,195.244c-2.988-18.438-4.283-37.137-3.865-55.804c0.146-6.748,0.522-13.486,1.118-20.203  c0.564-6.31,1.327-12.619,2.277-18.887c0.052-0.428,0.073-2.131,0.407-2.403c0.052-0.052,0.261,0,0.334-0.021  c0.47-0.157,1.149-0.094,1.651-0.125c0.836-0.073,1.661-0.136,2.507-0.198l13.977,5.902l7.542,3.176  c0,0-10.718,212.384,204.726,284.682C333.438,415.086,407.585,408.119,475.257,388.041z"/>
<g>
</g>
<g>
</g>
<g>
</g>
<g>
</g>
<g>
</g>
<g>
</g>
<g>
</g>
<g>
</g>
<g>
</g>
<g>
</g>
<g>
</g>
<g>
</g>
<g>
</g>
<g>
</g>
<g>
</g>
</svg>
