<?xml version="1.0" encoding="iso-8859-1"?>
<!-- Generator: Adobe Illustrator 19.0.0, SVG Export Plug-In . SVG Version: 6.00 Build 0)  -->
<svg xmlns="http://www.w3.org/2000/svg" xmlns:xlink="http://www.w3.org/1999/xlink" version="1.1" id="Capa_1" x="0px" y="0px" viewBox="0 0 512.001 512.001" style="enable-background:new 0 0 512.001 512.001;" xml:space="preserve">
<path style="fill:#52C8D3;" d="M437.018,74.98c93.804,93.804,99.597,242.283,17.378,342.841  c-5.416,6.613-11.209,13.026-17.378,19.196c-2.276,2.276-4.588,4.499-6.931,6.664c-3.997,3.731-8.091,7.292-12.265,10.713  c-100.557,82.219-249.036,76.427-342.841-17.378c-99.974-99.974-99.974-262.063,0-362.036S337.045-24.994,437.018,74.98z"/>
<path style="fill:#F2EEED;" d="M273.229,132.615L135.07,17.5C118.956,4.073,95.263,5.148,80.431,19.98L19.977,80.435  C5.145,95.266,4.07,118.96,17.497,135.073l115.116,138.159c15.267,18.323,42.971,19.58,59.835,2.717l33.437-33.437L396.172,412.8  l16.623-15.578L242.508,226.933l33.437-34.481C292.808,175.587,291.551,147.882,273.229,132.615z M78.393,92.803  c-3.979-3.979-3.978-10.428,0-14.407c3.978-3.979,10.428-3.979,14.407,0l108.606,108.606c3.978,3.978,3.978,10.428,0,14.407  c-3.978,3.978-10.429,3.978-14.407,0L78.393,92.803z M169.06,219.348c3.978,3.978,3.978,10.428,0,14.407  c-3.978,3.978-10.429,3.978-14.407,0L46.047,125.149c-3.979-3.979-3.978-10.428,0-14.407c3.978-3.978,10.428-3.979,14.407,0  L169.06,219.348z M233.752,154.655c3.978,3.978,3.978,10.428,0,14.407c-3.978,3.979-10.429,3.978-14.407,0L110.739,60.456  c-3.979-3.979-3.978-10.428,0-14.407c3.978-3.978,10.428-3.979,14.407,0L233.752,154.655z"/>
<path style="fill:#F9395E;" d="M406.526,369.951l47.87,47.87c-5.416,6.613-11.209,13.026-17.378,19.196  c-6.169,6.169-12.583,11.962-19.196,17.378l-47.87-47.87c-5.719-5.719-5.719-14.984-0.007-20.695l15.878-15.878  C391.542,364.232,400.807,364.232,406.526,369.951z"/>
<path style="fill:#D92F52;" d="M381.435,374.34c-5.711,5.711-5.711,14.976,0.007,20.695l48.646,48.646  c-3.997,3.731-8.091,7.292-12.265,10.713l-47.87-47.87c-5.719-5.719-5.719-14.984-0.007-20.695L381.435,374.34z"/>
<g>
</g>
<g>
</g>
<g>
</g>
<g>
</g>
<g>
</g>
<g>
</g>
<g>
</g>
<g>
</g>
<g>
</g>
<g>
</g>
<g>
</g>
<g>
</g>
<g>
</g>
<g>
</g>
<g>
</g>
</svg>
