<?xml version="1.0" encoding="iso-8859-1"?>
<!-- Generator: Adobe Illustrator 19.0.0, SVG Export Plug-In . SVG Version: 6.00 Build 0)  -->
<svg xmlns="http://www.w3.org/2000/svg" xmlns:xlink="http://www.w3.org/1999/xlink" version="1.1" id="Capa_1" x="0px" y="0px" viewBox="0 0 512 512" style="enable-background:new 0 0 512 512;" xml:space="preserve">
<path style="fill:#665F60;" d="M501.188,329.814c-0.763,2.539-1.567,5.078-2.414,7.607c-1.536,4.577-3.197,9.112-4.995,13.605  c-0.334,0.857-0.679,1.714-1.034,2.57c-0.428,1.034-0.857,2.069-1.306,3.103c-0.449,1.055-0.899,2.1-1.369,3.145  c-0.188,0.439-0.387,0.878-0.585,1.317c-6.667,14.785-14.806,29.09-24.42,42.653c-4.817,6.802-10.01,13.417-15.58,19.832  c-1.588,1.839-3.208,3.657-4.859,5.454c-0.282,0.293-0.554,0.596-0.836,0.888c-0.47,0.512-0.951,1.024-1.432,1.526  c-1.745,1.86-3.521,3.689-5.339,5.507c-2.602,2.602-5.235,5.141-7.92,7.607c-1.797,1.651-3.615,3.271-5.454,4.859  c-1.87,1.62-3.751,3.208-5.653,4.765c-0.293,0.24-0.585,0.481-0.878,0.721c-4.357,3.542-8.798,6.896-13.312,10.104  c-1.285,0.909-2.57,1.808-3.866,2.675c-12.403,8.464-25.391,15.705-38.798,21.734c-0.428,0.199-0.867,0.387-1.306,0.575  c-2.069,0.93-4.148,1.808-6.238,2.675c-0.857,0.355-1.714,0.7-2.57,1.045c-5.036,2.006-10.115,3.845-15.245,5.517  c-0.272,0.094-0.543,0.188-0.815,0.272c-32.079,10.376-65.809,14.253-99.12,11.64c-6.029-0.47-12.048-1.16-18.046-2.058  c-52.266-7.837-102.568-31.88-142.818-72.13c-17.847-17.847-32.507-37.669-43.98-58.766C17.99,354.338,9.077,328.779,4.26,302.615  c-14.754-80.03,8.819-165.733,70.72-227.634s147.604-85.474,227.634-70.72c26.154,4.807,51.692,13.72,75.599,26.718  c21.118,11.473,40.95,26.144,58.808,44.001c40.25,40.25,64.293,90.573,72.13,142.85c0.909,5.987,1.588,12.006,2.058,18.035  C513.684,267.38,510.341,299.281,501.188,329.814z"/>
<path style="fill:#E59F32;" d="M498.774,337.42c-1.829,5.444-3.835,10.836-6.029,16.175c-0.428,1.034-0.857,2.069-1.306,3.103  c-0.637,1.494-1.285,2.978-1.954,4.462c-6.667,14.785-14.806,29.09-24.42,42.653c-6.196,8.746-13.009,17.189-20.438,25.287  c-0.282,0.293-0.554,0.596-0.836,0.888c-2.205,2.382-4.451,4.723-6.771,7.032c-2.602,2.602-5.235,5.141-7.92,7.607  c-3.918,3.595-7.92,7.043-11.985,10.345c-4.357,3.542-8.798,6.896-13.312,10.104c-13.563,9.613-27.857,17.753-42.664,24.409  c-2.497,1.128-5.016,2.205-7.544,3.25c-6.134,2.529-12.351,4.807-18.631,6.834c-32.079,10.376-65.809,14.253-99.12,11.64  c-6.029-0.47-12.048-1.16-18.046-2.058L96.651,388.005c-22.173,7.774-46.791,4.075-65.652-9.749  c-2.905-2.132-5.674-4.493-8.276-7.095C4.187,352.624-1.968,326.313,4.26,302.615c3.093-11.787,9.247-22.925,18.464-32.141  L270.461,22.735c9.227-9.227,20.365-15.381,32.152-18.474c23.688-6.228,49.999-0.063,68.536,18.474  c2.591,2.591,4.953,5.35,7.064,8.244c13.856,18.871,17.565,43.489,9.77,65.683L509.15,217.83c0.909,5.987,1.588,12.006,2.058,18.035  C513.894,270.013,509.746,304.61,498.774,337.42z"/>
<path style="fill:#CC753D;" d="M371.149,22.736c19.506,19.506,25.82,48.34,16.838,73.927l-13.337,2.645L99.294,374.663L96.65,388  c-25.588,8.982-54.42,2.669-73.927-16.838c-27.761-27.761-27.754-72.936,0-100.69L270.459,22.736  C298.221-5.025,343.388-5.025,371.149,22.736z"/>
<path style="fill:#FFFCA6;" d="M511.209,235.866c2.685,34.148-1.463,68.745-12.434,101.555c-1.829,5.444-3.835,10.836-6.029,16.175  c-0.428,1.034-0.857,2.069-1.306,3.103c-0.637,1.494-1.285,2.978-1.954,4.462c-6.667,14.785-14.806,29.09-24.42,42.653  c-6.196,8.746-13.009,17.189-20.438,25.287c-0.282,0.293-0.554,0.596-0.836,0.888c-2.205,2.382-4.451,4.723-6.771,7.032  c-2.602,2.602-5.235,5.141-7.92,7.607c-3.918,3.595-7.92,7.043-11.985,10.345c-4.357,3.542-8.798,6.896-13.312,10.104  c-13.563,9.613-27.857,17.753-42.664,24.409c-2.497,1.128-5.016,2.205-7.544,3.25c-6.134,2.529-12.351,4.807-18.631,6.834  c-32.079,10.376-65.809,14.253-99.12,11.64L99.294,374.661c-11.16,5.444-23.667,7.21-35.705,5.298  c-12.048-1.912-23.594-7.513-32.873-16.781c-23.396-23.396-23.396-61.326,0-84.711L278.455,30.729  c11.693-11.703,27.011-17.544,42.35-17.555c15.339,0.01,30.658,5.852,42.35,17.555c18.558,18.558,22.382,46.248,11.494,68.577  L511.209,235.866z"/>
<path style="fill:#E2E088;" d="M491.439,356.699c-0.637,1.494-1.285,2.978-1.954,4.462c-6.667,14.785-14.806,29.09-24.42,42.653  c-6.196,8.746-13.009,17.189-20.438,25.287c-0.282,0.293-0.554,0.596-0.836,0.888c-2.205,2.382-4.451,4.723-6.771,7.032  c-2.602,2.602-5.235,5.141-7.92,7.607c-3.918,3.595-7.92,7.043-11.985,10.345c-4.357,3.542-8.798,6.896-13.312,10.104  c-13.563,9.613-27.857,17.753-42.664,24.409c-2.497,1.128-5.016,2.205-7.544,3.25c-6.134,2.529-12.351,4.807-18.631,6.834  c-32.079,10.376-65.809,14.253-99.12,11.64L99.294,374.661c-11.16,5.444-23.667,7.21-35.705,5.298  c-12.048-1.912-23.594-7.513-32.873-16.781c-23.396-23.396-23.396-61.326,0-84.711C30.717,278.467,230.828,492.652,491.439,356.699z  "/>
<g>
	<path style="fill:#F4D52D;" d="M160.295,325.633c5.908,0,10.975,3.6,13.129,8.725c0.713-1.695,1.108-3.557,1.108-5.511   c0-7.863-6.374-14.237-14.237-14.237s-14.237,6.374-14.237,14.237c0,1.954,0.395,3.816,1.108,5.511   C149.32,329.233,154.387,325.633,160.295,325.633z"/>
	<path style="fill:#F4D52D;" d="M131.412,273.662c5.908,0,10.975,3.6,13.129,8.726c0.713-1.695,1.108-3.557,1.108-5.511   c0-7.863-6.374-14.237-14.237-14.237s-14.237,6.374-14.237,14.237c0,1.954,0.395,3.816,1.108,5.511   C120.437,277.262,125.503,273.662,131.412,273.662z"/>
	<path style="fill:#F4D52D;" d="M286.442,153.627c5.909,0,10.975,3.6,13.129,8.726c0.713-1.695,1.108-3.557,1.108-5.511   c0-7.863-6.374-14.237-14.237-14.237s-14.237,6.374-14.237,14.237c0,1.954,0.395,3.816,1.108,5.511   C275.467,157.228,280.533,153.627,286.442,153.627z"/>
	<path style="fill:#F4D52D;" d="M273.004,82.652c5.909,0,10.975,3.6,13.129,8.726c0.713-1.695,1.108-3.557,1.108-5.511   c0-7.863-6.374-14.237-14.237-14.237s-14.237,6.374-14.237,14.237c0,1.954,0.395,3.816,1.108,5.511   C262.03,86.253,267.096,82.652,273.004,82.652z"/>
	<path style="fill:#F4D52D;" d="M232.901,438.916c5.908,0,10.975,3.6,13.129,8.725c0.713-1.695,1.108-3.557,1.108-5.511   c0-7.863-6.374-14.237-14.237-14.237c-7.863,0-14.237,6.374-14.237,14.237c0,1.954,0.395,3.816,1.108,5.511   C221.926,442.515,226.992,438.916,232.901,438.916z"/>
	<path style="fill:#F4D52D;" d="M314.559,303.212c5.909,0,10.975,3.6,13.129,8.726c0.713-1.695,1.108-3.557,1.108-5.511   c0-7.863-6.374-14.237-14.237-14.237s-14.237,6.374-14.237,14.237c0,1.954,0.395,3.816,1.108,5.511   C303.585,306.812,308.651,303.212,314.559,303.212z"/>
	<path style="fill:#F4D52D;" d="M367.952,179.365c5.908,0,10.975,3.6,13.129,8.726c0.713-1.695,1.108-3.557,1.108-5.511   c0-7.863-6.374-14.237-14.237-14.237s-14.237,6.374-14.237,14.237c0,1.954,0.395,3.816,1.108,5.511   C356.978,182.965,362.044,179.365,367.952,179.365z"/>
	<path style="fill:#F4D52D;" d="M197.738,188.156c5.908,0,10.975,3.6,13.129,8.726c0.713-1.695,1.108-3.557,1.108-5.511   c0-7.863-6.374-14.237-14.237-14.237s-14.237,6.374-14.237,14.237c0,1.954,0.395,3.816,1.108,5.511   C186.764,191.756,191.831,188.156,197.738,188.156z"/>
	<path style="fill:#F4D52D;" d="M371.149,375.95c5.909,0,10.975,3.6,13.129,8.726c0.713-1.695,1.108-3.557,1.108-5.511   c0-7.863-6.374-14.237-14.237-14.237c-7.863,0-14.237,6.374-14.237,14.237c0,1.954,0.395,3.816,1.108,5.511   C360.174,379.55,365.241,375.95,371.149,375.95z"/>
	<path style="fill:#F4D52D;" d="M347.929,451.821c5.908,0,10.975,3.6,13.129,8.725c0.713-1.695,1.108-3.557,1.108-5.511   c0-7.863-6.374-14.237-14.237-14.237s-14.237,6.374-14.237,14.237c0,1.954,0.395,3.816,1.108,5.511   C336.954,455.421,342.021,451.821,347.929,451.821z"/>
	<path style="fill:#F4D52D;" d="M426.289,299.867c5.909,0,10.975,3.6,13.129,8.726c0.713-1.695,1.108-3.557,1.108-5.511   c0-7.863-6.374-14.237-14.237-14.237s-14.237,6.374-14.237,14.237c0,1.954,0.395,3.816,1.108,5.511   C415.314,303.467,420.381,299.867,426.289,299.867z"/>
</g>
<g>
	<path style="fill:#8CC371;" d="M472.48,204.694c11.18,22.159-13.09,53.988-11.372,77.315c1.774,24.166,30.135,52.143,22.671,74.806   c-7.464,22.679-46.892,28.337-62.676,46.709c-4.46,5.194-7.56,12.29-10.268,20.002c-6.561,18.691-10.837,41.043-26.515,48.954   c-22.152,11.188-53.99-13.09-77.323-11.363c-24.157,1.766-52.135,30.127-74.806,22.671c-22.663-7.464-28.33-46.901-46.71-62.676   c-17.749-15.239-57.769-14.632-68.957-36.784c-11.18-22.159,13.09-53.99,11.379-77.323c-1.782-24.157-30.143-52.135-22.679-74.815   c7.464-22.663,46.892-28.321,62.683-46.701c0.743-0.871,1.455-1.79,2.125-2.765c13.105-18.827,13.585-55.555,34.65-66.199   c22.152-11.172,53.989,13.09,77.323,11.379c24.157-1.783,52.135-30.144,74.806-22.671c22.671,7.455,28.321,46.892,46.709,62.676   C421.272,183.15,461.3,182.534,472.48,204.694z"/>
	<path style="fill:#8CC371;" d="M501.188,329.814c-0.763,2.539-1.567,5.078-2.414,7.607c-1.536,4.577-3.197,9.112-4.995,13.605   c-0.334,0.857-0.679,1.714-1.034,2.57c-0.428,1.034-0.857,2.069-1.306,3.103c-0.449,1.055-0.899,2.1-1.369,3.145   c-0.188,0.439-0.387,0.878-0.585,1.317c-6.667,14.785-14.806,29.09-24.42,42.653c-6.196,8.746-13.009,17.189-20.438,25.287   c-0.282,0.293-0.554,0.596-0.836,0.888c-0.47,0.512-0.951,1.024-1.432,1.526c-1.745,1.86-3.521,3.689-5.339,5.507   c-2.602,2.602-5.235,5.141-7.92,7.607c-3.636,3.333-7.346,6.541-11.107,9.624c-0.293,0.24-0.585,0.481-0.878,0.721   c-4.357,3.542-8.798,6.896-13.312,10.104c-1.285,0.909-2.57,1.808-3.866,2.675c-12.403,8.464-25.391,15.705-38.798,21.734   c-0.428,0.199-0.867,0.387-1.306,0.575c-2.069,0.93-4.148,1.808-6.238,2.675c-0.857,0.355-1.714,0.7-2.57,1.045   c-5.036,2.006-10.115,3.845-15.245,5.517c2.236-4.932,3.908-9.812,4.514-14.597c0.658-5.162,0.063-10.794-1.149-16.687   c-1.212-5.987-3.051-12.257-4.807-18.526c-1.181-4.211-2.32-8.422-3.218-12.549c-2.288-10.585-2.978-20.71,1.432-29.153   c0,0,0,0,0.01-0.01c0.146-0.303,0.313-0.596,0.481-0.888c0.731-1.275,1.546-2.466,2.466-3.574c3.103-3.793,7.21-6.687,11.933-9.038   c1.16-0.585,2.362-1.128,3.595-1.661c17.063-7.199,40.041-8.955,52.82-18.808c6.907-5.329,12.34-13.803,17.534-22.779   c5.475-9.456,10.7-19.467,17.137-26.854c3.281-3.772,6.865-6.844,10.961-8.85c1.39-0.669,2.821-1.223,4.326-1.63   c6.384-1.735,13.03-0.69,19.832,1.787C482.682,318.779,491.951,324.61,501.188,329.814z"/>
</g>
<path style="fill:#76B25D;" d="M399.936,467.752c-12.403,8.464-25.391,15.705-38.798,21.734c-0.428,0.199-0.867,0.387-1.306,0.575  c-2.069,0.93-4.148,1.808-6.238,2.675c-0.857,0.355-1.714,0.7-2.57,1.045c-5.036,2.006-10.115,3.845-15.245,5.517  c2.236-4.932,3.908-9.812,4.514-14.597c0.658-5.162,0.063-10.794-1.149-16.687c-1.212-5.987-3.051-12.257-4.807-18.526  c-1.181-4.211-2.32-8.422-3.218-12.549c-2.288-10.585-2.978-20.71,1.432-29.153c0,0,0,0,0.01-0.01  c0.146-0.303,0.313-0.596,0.481-0.888c0.731-1.275,1.546-2.466,2.466-3.574l15.517,15.527L399.936,467.752z"/>
<path style="fill:#F9EF4A;" d="M493.779,351.025c-0.334,0.857-0.679,1.714-1.034,2.57c-0.428,1.034-0.857,2.069-1.306,3.103  c-0.449,1.055-0.899,2.1-1.369,3.145c-0.188,0.439-0.387,0.878-0.585,1.317c-6.667,14.785-14.806,29.09-24.42,42.653  c-6.196,8.746-13.009,17.189-20.438,25.287c-0.282,0.293-0.554,0.596-0.836,0.888c-0.47,0.512-0.951,1.024-1.432,1.526  c-1.745,1.86-3.521,3.689-5.339,5.507c-2.602,2.602-5.235,5.141-7.92,7.607c-3.636,3.333-7.346,6.541-11.107,9.624  c-0.293,0.24-0.585,0.481-0.878,0.721c-4.357,3.542-8.798,6.896-13.312,10.104c-1.285,0.909-2.57,1.808-3.866,2.675  c-12.403,8.464-25.391,15.705-38.798,21.734c-0.428,0.199-0.867,0.387-1.306,0.575c-2.069,0.93-4.148,1.808-6.238,2.675  c-0.857,0.355-1.714,0.7-2.57,1.045V471.9l0.01-22.413l-0.01-19.205V418.84l0.01-26.227v-41.587L493.779,351.025L493.779,351.025z"/>
<path style="fill:#76B25D;" d="M170.035,182.727l240.801,240.801c-6.561,18.691-10.837,41.043-26.515,48.954  c-22.152,11.188-53.99-13.09-77.323-11.363c-24.157,1.766-52.135,30.127-74.806,22.671c-22.663-7.464-28.33-46.901-46.71-62.676  c-17.749-15.239-57.769-14.632-68.957-36.784c-11.18-22.159,13.09-53.99,11.379-77.323c-1.782-24.157-30.143-52.135-22.679-74.815  c7.464-22.663,46.892-28.321,62.683-46.701C168.652,184.62,169.364,183.702,170.035,182.727z"/>
<path style="fill:#F9EF4A;" d="M449.486,139.535v284.111c-1.588,1.839-3.208,3.657-4.859,5.454  c-0.282,0.293-0.554,0.596-0.836,0.888c-0.47,0.512-0.951,1.024-1.432,1.526c-1.745,1.86-3.521,3.689-5.339,5.507  c-2.602,2.602-5.235,5.141-7.92,7.607c-1.797,1.651-3.615,3.271-5.454,4.859H139.523v-47.418l0.01-167.06v-95.473L449.486,139.535  L449.486,139.535z"/>
<path style="fill:#DBCF48;" d="M449.486,393.867v29.78c-1.588,1.839-3.208,3.657-4.859,5.454c-0.282,0.293-0.554,0.596-0.836,0.888  c-0.47,0.512-0.951,1.024-1.432,1.526c-1.745,1.86-3.521,3.689-5.339,5.507c-2.602,2.602-5.235,5.141-7.92,7.607  c-1.797,1.651-3.615,3.271-5.454,4.859H139.523v-47.418l0.01-167.06c0,0,106.873,178.084,292.011,159.694  C438.493,394.013,444.46,393.741,449.486,393.867z"/>
<path style="fill:#F9395E;" d="M398.473,190.542c51.129,51.129,56.73,130.553,16.798,187.891  c-4.914,7.041-10.517,13.762-16.798,20.042c-57.425,57.425-150.524,57.425-207.94,0.008  c-37.511-37.511-50.513-90.245-39.013-138.313c6.097-25.517,19.107-49.714,39.021-69.628  C247.958,133.125,341.048,133.116,398.473,190.542z"/>
<path style="fill:#D92F52;" d="M415.271,378.432c-4.914,7.041-10.517,13.762-16.798,20.042  c-57.425,57.425-150.524,57.425-207.94,0.008c-37.511-37.511-50.513-90.245-39.013-138.313  C151.519,260.17,265.714,401.903,415.271,378.432z"/>
<g>
	<circle style="fill:#E6D7D8;" cx="252.91" cy="277.643" r="24.582"/>
	<circle style="fill:#E6D7D8;" cx="343.566" cy="234.488" r="20.876"/>
	<circle style="fill:#E6D7D8;" cx="304.392" cy="382.646" r="18.533"/>
	<circle style="fill:#E6D7D8;" cx="376.753" cy="308.384" r="18.533"/>
	<circle style="fill:#E6D7D8;" cx="207.665" cy="353.431" r="18.576"/>
	<circle style="fill:#E6D7D8;" cx="264.613" cy="204.123" r="14.281"/>
</g>
<path style="fill:#F9395E;" d="M490.07,359.844c-0.188,0.439-0.387,0.878-0.585,1.317c-6.667,14.785-14.806,29.09-24.42,42.653  c-6.196,8.746-13.009,17.189-20.438,25.287c-0.282,0.293-0.554,0.596-0.836,0.888c-0.47,0.512-0.951,1.024-1.432,1.526  c-1.745,1.86-3.521,3.689-5.339,5.507c-2.602,2.602-5.235,5.141-7.92,7.607c-3.636,3.333-7.346,6.541-11.107,9.624  c-0.293,0.24-0.585,0.481-0.878,0.721c-4.357,3.542-8.798,6.896-13.312,10.104c-1.285,0.909-2.57,1.808-3.866,2.675  c-12.403,8.464-25.391,15.705-38.798,21.734c-0.428,0.199-0.867,0.387-1.306,0.575c0.564-5.172,1.39-10.313,2.508-15.412  c1.86-8.558,4.483-16.98,7.889-25.161c1.097-2.654,2.288-5.277,3.563-7.879c6.949-14.294,16.363-27.69,28.244-39.571  c14.033-14.033,30.188-24.629,47.449-31.797c10.501-4.378,21.41-7.482,32.486-9.3C484.668,360.492,487.364,360.126,490.07,359.844z"/>
<path style="fill:#E6D7D8;" d="M442.359,431.515c-1.745,1.86-3.521,3.689-5.339,5.507c-2.602,2.602-5.235,5.141-7.92,7.607  c-3.636,3.333-7.346,6.541-11.107,9.624c-0.167-1.588-0.146-3.187,0.052-4.765c0.543-4.451,2.529-8.756,5.946-12.163  C428.995,432.319,435.891,430.386,442.359,431.515z"/>
<g>
</g>
<g>
</g>
<g>
</g>
<g>
</g>
<g>
</g>
<g>
</g>
<g>
</g>
<g>
</g>
<g>
</g>
<g>
</g>
<g>
</g>
<g>
</g>
<g>
</g>
<g>
</g>
<g>
</g>
</svg>
