<?xml version="1.0" encoding="iso-8859-1"?>
<!-- Generator: Adobe Illustrator 19.0.0, SVG Export Plug-In . SVG Version: 6.00 Build 0)  -->
<svg xmlns="http://www.w3.org/2000/svg" xmlns:xlink="http://www.w3.org/1999/xlink" version="1.1" id="Capa_1" x="0px" y="0px" viewBox="0 0 512.002 512.002" style="enable-background:new 0 0 512.002 512.002;" xml:space="preserve">
<path style="fill:#EAA7F4;" d="M437.018,74.981c60.135,60.135,84.096,142.745,71.898,220.79  c-8.098,51.704-32.051,101.399-71.898,141.246c-18.552,18.552-39.241,33.655-61.265,45.321  c-25.29,13.395-52.354,22.254-79.995,26.577c-78.045,12.198-160.648-11.77-220.776-71.898c-99.974-99.974-99.974-262.062,0-362.035  S337.044-24.993,437.018,74.981z"/>
<path style="fill:#8CC371;" d="M217.173,4.028L508.916,295.77c-8.098,51.704-32.051,101.399-71.898,141.246  c-18.552,18.552-39.241,33.655-61.265,45.321c-25.29,13.396-52.354,22.254-79.995,26.577L4.022,217.179L217.173,4.028z"/>
<path style="fill:#76B25D;" d="M57.308,163.893l318.445,318.445c-25.29,13.396-52.354,22.254-79.995,26.577L4.022,217.179  L57.308,163.893z"/>
<path style="fill:#B7E2A7;" d="M217.174,4.03c8.139,8.139,2.211,24.038-2.663,41.46c-3.206,11.46-1.347,27.615-9.352,41.244  c-6.507,11.078-21.361,17.906-30.642,29.539c-8.287,10.385-11.387,26.396-21.619,36.628c-10.233,10.233-26.244,13.333-36.63,21.621  c-11.633,9.283-18.462,24.137-29.541,30.643c-13.63,8.005-29.784,6.146-41.245,9.351c-17.42,4.872-33.318,10.799-41.456,2.661  c-8.139-8.139-2.211-24.038,2.663-41.46c3.206-11.46,1.347-27.615,9.352-41.244c6.507-11.078,21.361-17.906,30.642-29.539  c8.287-10.385,11.387-26.396,21.619-36.628c10.233-10.233,26.244-13.333,36.63-21.621c11.633-9.283,18.462-24.137,29.541-30.643  c13.63-8.005,29.784-6.146,41.245-9.351C193.14,1.82,209.038-4.108,217.174,4.03z"/>
<g>
	<path style="fill:#D2F9C1;" d="M94.17,120.168l-38.539,10.62c-10.322,16.833-14.966,31.416-12.007,39.925L94.17,120.168z"/>
	<path style="fill:#D2F9C1;" d="M85.772,92.642c-8.326,8.621-15.662,17.351-21.82,25.782l37.318-10.284L85.772,92.642z"/>
	<path style="fill:#D2F9C1;" d="M92.639,85.775l15.498,15.498l10.284-37.318C109.991,70.113,101.261,77.449,92.639,85.775z"/>
	<path style="fill:#D2F9C1;" d="M127.033,101.039l38.538-10.62c10.322-16.833,14.965-31.416,12.007-39.925L127.033,101.039z"/>
	<path style="fill:#D2F9C1;" d="M120.166,94.172l50.545-50.545c-8.51-2.959-23.092,1.684-39.925,12.007L120.166,94.172z"/>
	<path style="fill:#D2F9C1;" d="M101.037,127.035l-50.545,50.545c8.51,2.958,23.092-1.685,39.925-12.007L101.037,127.035z"/>
	<path style="fill:#D2F9C1;" d="M119.933,113.068l15.497,15.497c8.325-8.621,15.662-17.351,21.82-25.781L119.933,113.068z"/>
	<path style="fill:#D2F9C1;" d="M128.563,135.433l-15.497-15.497l-10.284,37.317C111.212,151.095,119.942,143.758,128.563,135.433z"/>
</g>
<g>
	<path style="fill:#76B25D;" d="M286.128,265c-4.768,4.768-12.497,4.768-17.265,0c-1.147-1.147-2.01-2.468-2.606-3.874   c-3.07,4.73-2.535,11.119,1.613,15.267c4.768,4.768,12.497,4.768,17.265,0c3.621-3.621,4.485-8.947,2.606-13.389   C287.282,263.709,286.747,264.381,286.128,265z"/>
	<path style="fill:#76B25D;" d="M318.534,316.876c-4.768,4.768-12.497,4.768-17.265,0c-1.147-1.147-2.01-2.468-2.606-3.874   c-3.07,4.73-2.535,11.119,1.613,15.267c4.768,4.768,12.497,4.768,17.265,0c3.621-3.621,4.485-8.947,2.606-13.389   C319.688,315.584,319.153,316.256,318.534,316.876z"/>
	<path style="fill:#76B25D;" d="M223.222,308.749c-4.768,4.768-12.497,4.768-17.265,0c-1.147-1.147-2.01-2.468-2.606-3.874   c-3.07,4.73-2.535,11.119,1.613,15.267c4.768,4.768,12.497,4.768,17.265,0c3.621-3.621,4.485-8.947,2.606-13.389   C224.377,307.457,223.842,308.129,223.222,308.749z"/>
</g>
<g>
	<path style="fill:#8CC371;" d="M132.225,308.082c4.768-4.768,12.497-4.768,17.265,0c1.147,1.147,2.01,2.468,2.606,3.874   c3.07-4.73,2.535-11.119-1.613-15.267c-4.768-4.768-12.497-4.768-17.265,0c-3.621,3.621-4.485,8.947-2.606,13.389   C131.07,309.374,131.605,308.702,132.225,308.082z"/>
	<path style="fill:#8CC371;" d="M233.042,377.77c4.768-4.768,12.497-4.768,17.265,0c1.147,1.147,2.01,2.468,2.606,3.874   c3.07-4.73,2.535-11.119-1.613-15.267c-4.768-4.768-12.497-4.768-17.265,0c-3.621,3.621-4.485,8.947-2.606,13.389   C231.887,379.061,232.422,378.39,233.042,377.77z"/>
	<path style="fill:#8CC371;" d="M320.237,458.989c4.768-4.768,12.497-4.768,17.265,0c1.147,1.147,2.01,2.468,2.606,3.874   c3.07-4.73,2.535-11.119-1.613-15.267c-4.768-4.768-12.497-4.768-17.265,0c-3.621,3.621-4.485,8.947-2.606,13.389   C319.082,460.281,319.617,459.609,320.237,458.989z"/>
</g>
<g>
	<path style="fill:#76B25D;" d="M302.079,156.289c-6.01,6.01-15.756,6.01-21.766,0c-1.446-1.446-2.535-3.111-3.285-4.885   c-3.87,5.964-3.195,14.018,2.033,19.248c6.01,6.01,15.756,6.01,21.766,0c4.565-4.565,5.654-11.281,3.285-16.881   C303.534,154.661,302.859,155.507,302.079,156.289z"/>
	<path style="fill:#76B25D;" d="M359.522,251.195c-6.01,6.01-15.756,6.01-21.766,0c-1.446-1.446-2.535-3.111-3.285-4.885   c-3.87,5.964-3.195,14.018,2.033,19.248c6.01,6.01,15.756,6.01,21.766,0c4.565-4.565,5.654-11.281,3.285-16.881   C360.977,249.568,360.303,250.415,359.522,251.195z"/>
	<path style="fill:#76B25D;" d="M377.238,388.203c-6.01,6.01-15.756,6.01-21.766,0c-1.446-1.446-2.535-3.111-3.285-4.885   c-3.87,5.964-3.195,14.018,2.033,19.248c6.01,6.01,15.756,6.01,21.766,0c4.565-4.565,5.654-11.281,3.285-16.881   C378.693,386.575,378.018,387.422,377.238,388.203z"/>
	<path style="fill:#76B25D;" d="M443.242,350.587c-6.01,6.01-15.756,6.01-21.766,0c-1.446-1.446-2.535-3.111-3.285-4.886   c-3.87,5.964-3.195,14.018,2.033,19.248c6.01,6.01,15.756,6.01,21.766,0c4.565-4.565,5.654-11.281,3.285-16.881   C444.698,348.959,444.023,349.806,443.242,350.587z"/>
	<path style="fill:#76B25D;" d="M255.162,95.634c-6.01,6.01-15.756,6.01-21.766,0c-1.446-1.446-2.535-3.111-3.285-4.885   c-3.87,5.964-3.195,14.018,2.033,19.248c6.01,6.01,15.756,6.01,21.766,0c4.565-4.565,5.654-11.281,3.285-16.881   C256.618,94.006,255.943,94.853,255.162,95.634z"/>
	<path style="fill:#76B25D;" d="M155.916,242.124c-6.01,6.01-15.756,6.01-21.766,0c-1.446-1.446-2.535-3.111-3.285-4.885   c-3.87,5.964-3.195,14.018,2.033,19.248c6.01,6.01,15.756,6.01,21.766,0c4.565-4.565,5.654-11.281,3.285-16.881   C157.372,240.497,156.697,241.343,155.916,242.124z"/>
	<path style="fill:#76B25D;" d="M206.714,214.485c-6.01,6.01-15.756,6.01-21.766,0c-1.446-1.446-2.535-3.111-3.285-4.885   c-3.87,5.964-3.195,14.018,2.033,19.248c6.01,6.01,15.756,6.01,21.766,0c4.565-4.565,5.654-11.281,3.285-16.881   C208.169,212.857,207.495,213.703,206.714,214.485z"/>
</g>
<g>
</g>
<g>
</g>
<g>
</g>
<g>
</g>
<g>
</g>
<g>
</g>
<g>
</g>
<g>
</g>
<g>
</g>
<g>
</g>
<g>
</g>
<g>
</g>
<g>
</g>
<g>
</g>
<g>
</g>
</svg>
