<?xml version="1.0" encoding="iso-8859-1"?>
<!-- Generator: Adobe Illustrator 19.0.0, SVG Export Plug-In . SVG Version: 6.00 Build 0)  -->
<svg xmlns="http://www.w3.org/2000/svg" xmlns:xlink="http://www.w3.org/1999/xlink" version="1.1" id="Capa_1" x="0px" y="0px" viewBox="0 0 512 512" style="enable-background:new 0 0 512 512;" xml:space="preserve">
<circle style="fill:#52C8D3;" cx="256" cy="256" r="256"/>
<path style="fill:#FCF4D0;" d="M502.077,236.428c0,40.678-8.976,79.161-24.963,113.351  c-27.669,59.277-76.372,105.785-135.889,128.836c-26.551,10.282-55.265,15.903-85.222,15.903  c-97.123,0-181.091-59.016-221.111-144.739C18.905,315.59,9.93,277.106,9.93,236.428L502.077,236.428L502.077,236.428z"/>
<path style="fill:#EAE1B8;" d="M341.225,478.614c-26.551,10.282-55.265,15.903-85.222,15.903  c-97.123,0-181.091-59.016-221.111-144.739C18.905,315.59,9.93,277.106,9.93,236.428h45.85l110.362,51.2  c0,0,17.836,190.986,175.052,190.986H341.225z"/>
<path style="fill:#FCF4D0;" d="M502.077,236.428c0,12.518-8.976,24.357-24.963,34.879c-21.232,13.991-54.826,25.673-96.193,33.562  c-36.624,6.969-79.318,10.971-124.918,10.971c-97.123,0-181.091-18.16-221.111-44.534C18.905,260.785,9.93,248.946,9.93,236.428  c0-43.854,110.164-79.412,246.073-79.412c32.235,0,63.018,2.006,91.23,5.642C437.972,174.351,502.077,202.981,502.077,236.428z"/>
<path style="fill:#EAE1B8;" d="M502.077,236.428c0,12.518-8.976,24.357-24.963,34.879c-21.232,13.991-54.826,25.673-96.193,33.562  c-52.872-11.672-87.103-27.512-66.403-48.588c40.051-40.772,38.003-75.661,32.716-93.623  C437.972,174.351,502.077,202.981,502.077,236.428z"/>
<path style="fill:#F9395E;" d="M477.114,271.307c-40.02,26.373-123.998,44.534-221.111,44.534  c-97.123,0-181.091-18.16-221.111-44.534c40.02-26.373,123.988-44.534,221.111-44.534  C353.116,226.773,437.094,244.933,477.114,271.307z"/>
<path style="fill:#E6E2E0;" d="M499.506,100.584c0,4.58-1.807,9.16-5.394,12.583L349.026,251.025h-42.607L465.054,84.108  c6.73-7.074,17.964-7.214,24.859-0.318l4.504,4.504C497.814,91.691,499.506,96.143,499.506,100.584z"/>
<path style="fill:#CCC9C7;" d="M499.506,100.584c0,4.58-1.807,9.16-5.394,12.583L349.026,251.025h-27.315L494.417,88.294  C497.814,91.691,499.506,96.143,499.506,100.584z"/>
<g>
</g>
<g>
</g>
<g>
</g>
<g>
</g>
<g>
</g>
<g>
</g>
<g>
</g>
<g>
</g>
<g>
</g>
<g>
</g>
<g>
</g>
<g>
</g>
<g>
</g>
<g>
</g>
<g>
</g>
</svg>
