<?xml version="1.0" encoding="iso-8859-1"?>
<!-- Generator: Adobe Illustrator 19.0.0, SVG Export Plug-In . SVG Version: 6.00 Build 0)  -->
<svg xmlns="http://www.w3.org/2000/svg" xmlns:xlink="http://www.w3.org/1999/xlink" version="1.1" id="Capa_1" x="0px" y="0px" viewBox="0 0 512 512" style="enable-background:new 0 0 512 512;" xml:space="preserve">
<path style="fill:#52C8D3;" d="M491.612,352.818c-7.141,17.228-16.249,33.831-27.335,49.466  c-7.11,10.035-15.042,19.674-23.786,28.834c-1.364,1.426-2.748,2.842-4.153,4.247c-1.301,1.301-2.613,2.592-3.935,3.852  c-9.244,8.859-18.987,16.895-29.157,24.088c-8.838,6.267-17.977,11.898-27.377,16.905c-7.224,3.852-14.594,7.328-22.079,10.43  c-11.284,4.684-22.839,8.515-34.57,11.503c-1.145,0.291-2.29,0.573-3.446,0.843c-24.723,5.944-50.164,8.13-75.417,6.589  c-1.738-0.104-3.477-0.229-5.215-0.375c-12.45-1.01-24.858-2.935-37.079-5.777c-44.855-10.42-87.44-33.102-122.395-68.057  c-25.587-25.587-44.605-55.264-57.034-86.92C-8.409,279.649-4.402,201.473,30.668,135.456c2.228-4.216,4.601-8.38,7.089-12.481  c10.42-17.197,23.057-33.425,37.912-48.279s31.072-27.481,48.269-37.901c4.101-2.498,8.265-4.861,12.481-7.089  C202.425-5.364,280.59-9.382,349.387,17.652c0.01,0,0.021,0,0.021,0c31.666,12.439,61.343,31.458,86.93,57.044  c34.955,34.955,57.638,77.53,68.047,122.385c2.852,12.242,4.778,24.639,5.798,37.1c0.135,1.738,0.26,3.466,0.364,5.205  C512.91,277.827,506.592,316.697,491.612,352.818z"/>
<path style="fill:#F9EF4A;" d="M491.612,352.818L353.79,490.64c-11.284,4.684-22.839,8.515-34.57,11.503  c-25.805,6.579-52.433,9.046-78.863,7.432L237.943,512l-2.8-2.8L107.272,381.329l275.03-275.03L510.183,234.18  c0.135,1.738,0.26,3.466,0.364,5.205C512.91,277.827,506.592,316.697,491.612,352.818z"/>
<path style="fill:#DBCF48;" d="M315.775,502.985c-24.723,5.944-50.164,8.13-75.417,6.589c-1.738-0.104-3.477-0.229-5.215-0.375  L107.272,381.329l43.429-43.429L315.775,502.985z"/>
<path style="fill:#F2B54D;" d="M464.277,402.284c-7.11,10.035-15.042,19.674-23.786,28.834c-1.364,1.426-2.748,2.842-4.153,4.247  c-1.301,1.301-2.613,2.592-3.935,3.852c-9.244,8.859-18.987,16.895-29.157,24.088c-8.838,6.267-17.977,11.898-27.377,16.905  c-42.065,22.422-89.106,32.207-135.511,29.365l270.19-270.19C514.034,296.158,498.597,353.869,464.277,402.284z"/>
<path style="fill:#E59F32;" d="M240.358,509.575l63.3-63.3c-6.173,6.173-9.264,14.271-9.264,22.37c0,4.903,1.145,9.795,3.404,14.261  c1.468,2.925,3.425,5.663,5.861,8.109c4.674,4.663,9.941,8.38,15.562,11.128C293.415,508.721,266.787,511.188,240.358,509.575z"/>
<rect x="353.134" y="162.3" transform="matrix(0.7071 0.7071 -0.7071 0.7071 357.0522 -148.4625)" style="fill:#D39F15;" width="9.204" height="388.938"/>
<path style="fill:#E59F32;" d="M451.351,298.581v54.178c-11.421-11.421-42.335-11.845-42.335-11.845L451.351,298.581z"/>
<polygon style="fill:#F9EF4A;" points="466.517,337.595 402.378,337.595 466.517,273.455 "/>
<path style="fill:#B16E60;" d="M492.801,171.667c2.839,2.839,5.035,6.077,6.573,9.551c5.247,11.722,3.058,25.967-6.565,35.59  L217.783,491.834c-6.231,6.231-14.398,9.355-22.574,9.347c-4.442,0-8.892-0.919-13.024-2.774c-3.457-1.537-6.711-3.734-9.551-6.573  c-11.576-11.576-12.398-29.839-2.457-42.367l49.875-49.875l52.56-52.56l177.829-177.829c5.784-4.596,12.788-6.882,19.8-6.882  C478.41,162.32,486.57,165.436,492.801,171.667z"/>
<g>
	<path style="fill:#9E5B50;" d="M248.923,370.722V424.9c-11.421-11.421-42.335-11.845-42.335-11.845L248.923,370.722z"/>
	<path style="fill:#9E5B50;" d="M241.57,439.021c-3.457-1.537-6.711-3.734-9.55-6.573c-11.576-11.576-12.398-29.839-2.457-42.367   l-9.51,9.51l-49.875,49.875c-9.941,12.528-9.119,30.79,2.457,42.367c2.839,2.839,6.093,5.035,9.551,6.573   c4.133,1.855,8.583,2.774,13.024,2.774c8.176,0.008,16.343-3.116,22.574-9.347l59.385-59.385c-6.231,6.231-14.4,9.355-22.574,9.347   C250.153,441.795,245.703,440.876,241.57,439.021z"/>
</g>
<rect x="79.381" y="236.037" transform="matrix(-0.7071 0.7071 -0.7071 -0.7071 663.069 269.5801)" style="fill:#F9395E;" width="392.644" height="72.158"/>
<rect x="128.295" y="354.123" transform="matrix(-0.7071 0.7071 -0.7071 -0.7071 544.9773 554.6675)" style="fill:#D92F52;" width="58.636" height="72.158"/>
<path style="fill:#8CC371;" d="M448.78,107.768c-17.002,17.002,4.149,38.153-12.861,55.163  c-17.002,17.002-38.153-4.149-55.155,12.854c-17.002,17.002,4.149,38.153-12.854,55.155c-17.01,17.01-38.161-4.141-55.163,12.861  s4.149,38.153-12.854,55.155c-17.002,17.002-38.153-4.149-55.155,12.854c-16.994,16.994,4.157,38.145-12.845,55.147  c-17.002,17.002-38.153-4.149-55.155,12.853s4.149,38.153-12.854,55.155c-17.002,17.002-38.153-4.149-55.155,12.854l5.077-25.918  l2.757-14.065l292.231-292.231l14.082-2.757L448.78,107.768z"/>
<path style="fill:#76B25D;" d="M422.881,112.844c-0.855,3.994-2.839,7.785-5.947,10.893l-292.23,292.231  c-3.099,3.099-6.89,5.084-10.893,5.93l2.757-14.065L408.8,115.601L422.881,112.844z"/>
<polygon style="fill:#F9EF4A;" points="273.427,400.413 209.287,400.413 241.662,376.721 273.427,336.274 "/>
<path style="fill:#F2B54D;" d="M409.613,85.291c8.598,8.598,8.598,22.525,0,31.124L117.383,408.646  c-8.591,8.591-22.525,8.598-31.124,0c-1.049-1.049-2.083-2.115-3.116-3.181c-15.985-16.75-28.269-35.72-36.851-55.887  c-9.998-23.469-15.001-48.549-15.001-73.637c0-48.029,18.32-96.057,54.968-132.705l57.953-57.953  c55.782-55.782,137.952-69.098,206.342-39.967c20.166,8.598,39.137,20.883,55.878,36.859  C407.498,83.208,408.564,84.241,409.613,85.291z"/>
<path style="fill:#76B25D;" d="M231.896,366.955c-17.002,17.002-38.153-4.149-55.155,12.853  c-17.002,17.002,4.149,38.153-12.854,55.155c-17.002,17.002-38.153-4.149-55.155,12.854l5.077-25.918l2.757-14.065l74.166-74.166  l18.262-1.993C208.996,331.674,206.401,349.53,231.896,366.955z"/>
<g>
	<path style="fill:#E59F32;" d="M141.166,353.738c-1.049-1.049-2.083-2.115-3.116-3.181c-15.985-16.75-28.269-35.72-36.851-55.887   c-9.998-23.469-15.001-48.549-15.001-73.637c0-48.029,18.32-96.057,54.968-132.705l-54.908,54.907   C49.61,179.883,31.291,227.912,31.291,275.94c0,25.088,5.003,50.168,15.001,73.637c8.583,20.166,20.866,39.137,36.851,55.887   c1.034,1.066,2.066,2.131,3.116,3.181c8.598,8.598,22.534,8.59,31.124,0l54.908-54.908   C163.7,362.328,149.764,362.336,141.166,353.738z"/>
	<path style="fill:#E59F32;" d="M409.613,85.291c8.598,8.598,8.598,22.525,0,31.124L117.383,408.646   c-8.591,8.591-22.525,8.598-31.124,0c-1.049-1.049-2.083-2.115-3.116-3.181l323.29-323.29   C407.498,83.208,408.564,84.241,409.613,85.291z"/>
</g>
<g>
	<path style="fill:#F9CA63;" d="M92.152,300.046c-1.457,1.457-3.471,2.359-5.694,2.359c-4.448,0-8.054-3.606-8.053-8.053v-24.405   c0-4.448,3.606-8.054,8.053-8.053c4.448,0,8.053,3.605,8.053,8.053v24.405C94.511,296.575,93.609,298.589,92.152,300.046z"/>
	<path style="fill:#F9CA63;" d="M157.706,234.492c-1.457,1.457-3.471,2.359-5.694,2.359c-4.448,0-8.054-3.606-8.053-8.053v-24.405   c0-4.448,3.606-8.054,8.053-8.053c4.448,0,8.053,3.605,8.053,8.053v24.405C160.065,231.021,159.164,233.035,157.706,234.492z"/>
	<path style="fill:#F9CA63;" d="M223.261,168.938c-1.457,1.457-3.471,2.359-5.694,2.359c-4.448,0-8.054-3.606-8.053-8.053v-24.405   c0-4.448,3.606-8.054,8.053-8.053c4.448,0,8.053,3.605,8.053,8.053v24.405C225.619,165.467,224.718,167.481,223.261,168.938z"/>
	<path style="fill:#F9CA63;" d="M288.814,103.384c-1.457,1.457-3.471,2.359-5.694,2.359c-4.448,0-8.054-3.606-8.053-8.053V73.285   c0-4.448,3.606-8.054,8.053-8.053c4.448,0,8.053,3.605,8.053,8.053V97.69C291.173,99.914,290.271,101.927,288.814,103.384z"/>
	<path style="fill:#F9CA63;" d="M232.083,87.802c-1.457,1.457-3.471,2.359-5.694,2.359h-24.405c-4.448,0-8.053-3.605-8.053-8.053   c0-4.448,3.606-8.054,8.053-8.053h24.405c4.448,0,8.053,3.605,8.053,8.053C234.442,84.332,233.54,86.345,232.083,87.802z"/>
	<path style="fill:#F9CA63;" d="M166.529,153.356c-1.457,1.457-3.471,2.359-5.694,2.359H136.43c-4.448,0-8.053-3.605-8.053-8.053   c0-4.448,3.606-8.054,8.053-8.053h24.405c4.448,0,8.053,3.605,8.053,8.053C168.888,149.886,167.986,151.899,166.529,153.356z"/>
	<path style="fill:#F9CA63;" d="M100.975,218.909c-1.457,1.457-3.471,2.359-5.694,2.359H70.876c-4.448,0-8.053-3.605-8.053-8.053   s3.606-8.054,8.053-8.053h24.405c4.448,0,8.053,3.605,8.053,8.053C103.334,215.439,102.432,217.452,100.975,218.909z"/>
</g>
<g>
</g>
<g>
</g>
<g>
</g>
<g>
</g>
<g>
</g>
<g>
</g>
<g>
</g>
<g>
</g>
<g>
</g>
<g>
</g>
<g>
</g>
<g>
</g>
<g>
</g>
<g>
</g>
<g>
</g>
</svg>
