<?xml version="1.0" encoding="iso-8859-1"?>
<!-- Generator: Adobe Illustrator 19.0.0, SVG Export Plug-In . SVG Version: 6.00 Build 0)  -->
<svg xmlns="http://www.w3.org/2000/svg" xmlns:xlink="http://www.w3.org/1999/xlink" version="1.1" id="Capa_1" x="0px" y="0px" viewBox="0 0 512 512" style="enable-background:new 0 0 512 512;" xml:space="preserve">
<path style="fill:#B16E60;" d="M504.509,317.609c-3.793,15.381-9.028,30.469-15.715,45.056c-7.387,16.133-16.53,31.65-27.46,46.258  c-3.145,4.232-6.447,8.38-9.895,12.445c-3.574,4.211-7.293,8.328-11.18,12.351c-0.533,0.554-1.066,1.108-1.609,1.661  c-0.543,0.554-1.087,1.097-1.63,1.641c-0.543,0.543-1.076,1.076-1.63,1.62l-0.01,0.01c-0.554,0.543-1.118,1.087-1.682,1.62  c-1.954,1.902-3.939,3.751-5.945,5.569c-0.146,0.125-0.293,0.251-0.428,0.376c-0.93,0.846-1.87,1.672-2.811,2.497  c-2.058,1.808-4.138,3.574-6.238,5.298c-1.285,1.055-2.57,2.1-3.877,3.124c-2.1,1.661-4.232,3.291-6.374,4.88  c-14.346,10.616-29.56,19.54-45.349,26.77c-14.587,6.687-29.675,11.922-45.046,15.726c-84.177,20.793-176.87-1.714-242.646-67.49  C-9.55,352.488-22.611,223.548,35.82,125.296c10.668-17.951,23.719-34.868,39.163-50.312c15.433-15.433,32.36-28.494,50.301-39.163  c98.252-58.431,227.192-45.38,311.735,39.163C502.795,140.76,525.302,233.443,504.509,317.609z"/>
<path style="fill:#F9EF4A;" d="M461.334,408.923c-3.145,4.232-6.447,8.38-9.895,12.445c-3.574,4.211-7.293,8.328-11.18,12.351  c-0.533,0.554-1.066,1.108-1.609,1.661c-0.543,0.554-1.087,1.097-1.63,1.641c-0.543,0.543-1.076,1.076-1.63,1.62l-0.01,0.01  c-0.554,0.543-1.118,1.087-1.682,1.62c-1.954,1.902-3.939,3.751-5.945,5.569c-0.146,0.125-0.293,0.251-0.428,0.376  c-0.93,0.846-1.87,1.672-2.811,2.497c-2.058,1.808-4.138,3.574-6.238,5.298c-1.285,1.055-2.57,2.1-3.877,3.124  c-25.182-7.137-56.79-17.93-90.049-33.865c-84.919-40.709-180.172-109.275-198.29-108.377c-0.512,0.031-1.055,0.031-1.588,0.073  l-0.01-0.01c-7.064-1.066-13.845-4.274-19.289-9.718c-8.882-8.882-11.901-21.358-9.08-32.705c-7.993-0.575-15.83-3.887-21.932-9.989  c-9.373-9.383-12.204-22.81-8.547-34.628c-4.671-1.661-9.07-4.347-12.81-8.088c-10.971-10.971-12.988-27.481-6.102-40.5  c-1.682-1.181-3.291-2.497-4.796-4.002c-12.664-12.664-13.406-32.726-2.247-46.279c-0.752-0.648-1.515-1.317-2.257-2.048  c-0.554-0.554-1.087-1.118-1.578-1.703c-11.849-13.542-11.316-34.147,1.578-47.041c8.558-8.558,20.49-11.661,31.514-9.341  c-2.33-11.024,0.784-22.956,9.341-31.514c0.428-0.428,0.846-0.825,1.296-1.223c0.711-0.648,1.421-1.254,2.173-1.797  c0.575-0.47,1.17-0.878,1.776-1.275c0.428-0.303,0.888-0.575,1.337-0.857c0.408-0.24,0.825-0.47,1.223-0.711  c0.564-0.293,1.108-0.585,1.661-0.836c0.397-0.188,0.773-0.366,1.181-0.522c0.094-0.073,0.188-0.104,0.282-0.146l0.021-0.01  c11.849-5.005,25.945-3.082,36.08,5.799c0.585,0.502,1.149,1.034,1.703,1.588c0.742,0.731,1.421,1.484,2.069,2.247  c13.531-11.16,33.614-10.428,46.279,2.236c1.505,1.505,2.821,3.114,3.992,4.807c13.019-6.896,29.529-4.869,40.5,6.102  c3.741,3.741,6.426,8.14,8.088,12.81c11.828-3.668,25.255-0.836,34.628,8.537c6.113,6.113,9.415,13.949,9.989,21.943  c11.348-2.811,23.834,0.199,32.705,9.07c5.454,5.444,8.673,12.236,9.718,19.299c-1.505,26.906,14.44,57.396,35.871,89.172  c25.799,38.264,59.538,78.367,80.321,116.328C446.883,358.737,456.025,386.165,461.334,408.923z"/>
<g>
	<path style="fill:#DBCF48;" d="M96.564,67.83c0.73,0.73,1.495,1.405,2.26,2.057c-11.163,13.546-10.432,33.611,2.237,46.281   c1.507,1.507,3.114,2.822,4.8,3.99c-6.891,13.029-4.867,29.531,6.104,40.502c3.744,3.744,8.139,6.43,12.815,8.094   c-3.664,11.825-0.832,25.248,8.543,34.623c6.104,6.104,13.939,9.421,21.931,9.993c-2.821,11.342,0.203,23.832,9.072,32.701   c5.441,5.441,12.231,8.656,19.29,9.712l0.011,0.011c0.529-0.033,1.068-0.033,1.597-0.067c-1.001,7.791,1.461,15.94,7.442,21.921   c5.778,5.778,13.568,8.285,21.111,7.555c-0.742,7.532,1.776,15.333,7.555,21.111c3.586,3.586,6.307,12.984,8.757,23.213   c-15.155-4.626-29.697,40.115-45.133,37.535c-19.37-3.237-39.669-53.128-58.894-52.171c-0.529,0.033-1.068,0.033-1.597,0.067   l-0.011-0.011c-7.059-1.056-13.849-4.272-19.29-9.712c-8.869-8.869-11.893-21.359-9.072-32.701   c-7.992-0.573-15.828-3.889-21.931-9.993c-9.375-9.375-12.209-22.798-8.543-34.624c-4.677-1.663-9.072-4.35-12.816-8.094   c-10.971-10.971-12.995-27.473-6.104-40.502c-1.686-1.169-3.294-2.485-4.8-3.99c-12.668-12.668-13.4-32.735-2.237-46.281   c-0.765-0.652-1.529-1.327-2.26-2.057c-13.455-13.455-13.456-35.286,0-48.742c8.555-8.555,20.493-11.657,31.51-9.341   c-2.315-11.016,0.787-22.955,9.341-31.51c0.427-0.427,0.855-0.832,1.293-1.226c0.708-0.641,1.439-1.236,2.181-1.798   c0.574-0.461,1.169-0.877,1.765-1.27c0.439-0.303,0.9-0.585,1.349-0.855c0.404-0.248,0.82-0.484,1.226-0.708   c0.551-0.303,1.101-0.584,1.653-0.843c0.393-0.191,0.775-0.371,1.18-0.529c0.101-0.056,0.191-0.101,0.293-0.135   C83.907,42.582,86.346,57.612,96.564,67.83z"/>
	<path style="fill:#DBCF48;" d="M234.494,120.176c-8.946,8.946-23.45,8.946-32.396,0c-2.152-2.152-3.773-4.63-4.89-7.271   c-5.761,8.876-4.756,20.865,3.027,28.647c8.946,8.946,23.451,8.946,32.396,0c6.794-6.794,8.415-16.788,4.89-25.125   C236.66,117.754,235.656,119.014,234.494,120.176z"/>
</g>
<g>
	<path style="fill:#F9EF4A;" d="M71.671,117.117c8.946-8.946,23.45-8.946,32.396,0c2.152,2.152,3.773,4.631,4.89,7.271   c5.761-8.876,4.756-20.865-3.027-28.647c-8.946-8.946-23.451-8.946-32.396,0c-6.794,6.794-8.415,16.788-4.89,25.125   C69.505,119.54,70.509,118.28,71.671,117.117z"/>
	<path style="fill:#F9EF4A;" d="M96.699,175.97c8.946-8.946,23.45-8.946,32.396,0c2.152,2.152,3.773,4.631,4.89,7.271   c5.761-8.876,4.756-20.865-3.027-28.647c-8.946-8.946-23.451-8.946-32.396,0c-6.794,6.794-8.415,16.788-4.89,25.125   C94.533,178.393,95.537,177.133,96.699,175.97z"/>
	<path style="fill:#F9EF4A;" d="M129.28,241.624c8.946-8.946,23.45-8.946,32.396,0c2.152,2.152,3.773,4.631,4.89,7.271   c5.761-8.876,4.756-20.865-3.027-28.647c-8.946-8.946-23.451-8.946-32.396,0c-6.794,6.794-8.415,16.788-4.89,25.125   C127.112,244.048,128.117,242.787,129.28,241.624z"/>
	<path style="fill:#F9EF4A;" d="M179.455,304.188c8.946-8.946,23.45-8.946,32.396,0c2.152,2.152,3.773,4.63,4.89,7.271   c5.761-8.876,4.756-20.865-3.027-28.647c-8.946-8.946-23.451-8.946-32.396,0c-6.794,6.794-8.415,16.788-4.89,25.125   C177.287,306.611,178.292,305.351,179.455,304.188z"/>
</g>
<g>
	<path style="fill:#DBCF48;" d="M265.72,204.981c-8.946,8.946-23.45,8.946-32.396,0c-2.152-2.152-3.773-4.631-4.89-7.271   c-5.761,8.876-4.756,20.865,3.027,28.647c8.946,8.946,23.451,8.946,32.396,0c6.794-6.794,8.415-16.788,4.89-25.125   C267.887,202.558,266.883,203.818,265.72,204.981z"/>
	<path style="fill:#DBCF48;" d="M192.052,182.21c-8.945,8.946-23.45,8.946-32.396,0c-2.152-2.152-3.773-4.631-4.89-7.271   c-5.761,8.876-4.756,20.865,3.027,28.647c8.946,8.946,23.451,8.946,32.396,0c6.794-6.794,8.415-16.788,4.89-25.125   C194.218,179.787,193.215,181.047,192.052,182.21z"/>
	<path style="fill:#DBCF48;" d="M169.202,82.379c-8.946,8.946-23.45,8.946-32.396,0c-2.152-2.152-3.773-4.631-4.89-7.271   c-5.761,8.876-4.756,20.865,3.027,28.647c8.946,8.946,23.451,8.946,32.396,0c6.794-6.794,8.415-16.788,4.89-25.125   C171.369,79.957,170.365,81.217,169.202,82.379z"/>
	<path style="fill:#DBCF48;" d="M282.143,291.356c-8.946,8.945-23.45,8.945-32.396,0c-2.152-2.152-3.773-4.631-4.89-7.271   c-5.761,8.876-4.756,20.865,3.027,28.647c8.946,8.946,23.451,8.946,32.396,0c6.794-6.794,8.415-16.788,4.89-25.125   C284.31,288.933,283.306,290.193,282.143,291.356z"/>
	<path style="fill:#DBCF48;" d="M304.244,139.331c-8.946,8.946-23.45,8.946-32.396,0c-2.152-2.152-3.773-4.631-4.89-7.271   c-5.761,8.876-4.756,20.865,3.027,28.647c8.946,8.946,23.451,8.946,32.396,0c6.794-6.794,8.415-16.788,4.89-25.125   C306.411,136.908,305.407,138.168,304.244,139.331z"/>
	<path style="fill:#DBCF48;" d="M349.194,229.035c-8.945,8.945-23.45,8.945-32.396,0c-2.152-2.152-3.773-4.631-4.89-7.271   c-5.761,8.876-4.756,20.865,3.027,28.647c8.946,8.946,23.451,8.946,32.396,0c6.794-6.794,8.415-16.788,4.89-25.125   C351.36,226.613,350.356,227.874,349.194,229.035z"/>
	<path style="fill:#DBCF48;" d="M359.909,317.439c-8.946,8.946-23.45,8.946-32.396,0c-2.152-2.152-3.773-4.63-4.89-7.271   c-5.761,8.876-4.756,20.865,3.027,28.647c8.946,8.946,23.451,8.946,32.396,0c6.794-6.794,8.415-16.788,4.89-25.125   C362.076,315.016,361.071,316.276,359.909,317.439z"/>
	<path style="fill:#DBCF48;" d="M461.334,408.923c-3.145,4.232-6.447,8.38-9.895,12.445c-3.574,4.211-7.293,8.328-11.18,12.351   c-0.533,0.554-1.066,1.108-1.609,1.661c-0.543,0.554-1.087,1.097-1.63,1.641c-0.543,0.543-1.076,1.076-1.63,1.62l-0.01,0.01   c-0.554,0.543-1.118,1.087-1.682,1.62c-1.954,1.902-3.939,3.751-5.945,5.569c-0.146,0.125-0.293,0.251-0.428,0.376   c-0.93,0.846-1.87,1.672-2.811,2.497c-2.058,1.808-4.138,3.574-6.238,5.298c-3.354-1.63-6.499-3.824-9.289-6.614   c-8.871-8.871-11.891-21.368-9.07-32.705c-7.993-0.575-15.83-3.897-21.932-10c-9.373-9.373-12.215-22.789-8.547-34.617   c-4.671-1.661-9.07-4.347-12.81-8.098c-10.971-10.971-12.999-27.47-6.102-40.5c-1.693-1.17-3.302-2.476-4.807-3.981   c-12.675-12.675-13.396-32.747-2.226-46.299c-0.773-0.637-1.536-1.327-2.267-2.048c-13.448-13.458-13.458-35.276,0-48.744   c2.873-2.873,6.134-5.13,9.603-6.771c25.799,38.264,59.538,78.367,80.321,116.328C446.883,358.737,456.025,386.165,461.334,408.923   z"/>
	<path style="fill:#DBCF48;" d="M419.598,375.048c-8.946,8.945-23.45,8.945-32.396,0c-2.152-2.152-3.773-4.631-4.89-7.271   c-5.761,8.876-4.756,20.865,3.027,28.647c8.946,8.946,23.451,8.946,32.396,0c6.794-6.794,8.415-16.788,4.89-25.125   C421.764,372.625,420.76,373.885,419.598,375.048z"/>
</g>
<path style="fill:#8CC371;" d="M504.509,317.609c-3.793,15.381-9.028,30.469-15.715,45.056  c-9.519,20.793-21.964,40.563-37.355,58.702c-3.574,4.211-7.293,8.328-11.18,12.351c-46.655-60.918-132.054-189.743-125.304-309.258  c0.742-13.291,2.612-26.467,5.81-39.403C320.763,85.057,467.582,197.572,504.509,317.609z"/>
<path style="fill:#76B25D;" d="M358.422,388.788c-65.797-39.8-152.064-78.43-233.953-73.822l-0.01-0.01  c-11.191,0.637-22.298,2.069-33.27,4.42c-2.048,0.439-4.096,0.899-6.144,1.4c0,0,112.525,146.84,232.584,183.735  c15.37-3.803,30.459-9.038,45.046-15.726c15.788-7.231,31.002-16.154,45.349-26.77c5.642-4.169,11.139-8.6,16.488-13.302  c0.94-0.825,1.881-1.651,2.811-2.497c0.136-0.125,0.282-0.251,0.428-0.376c2.006-1.818,3.992-3.668,5.945-5.569  C414.533,425.579,388.63,407.053,358.422,388.788z"/>
<g>
</g>
<g>
</g>
<g>
</g>
<g>
</g>
<g>
</g>
<g>
</g>
<g>
</g>
<g>
</g>
<g>
</g>
<g>
</g>
<g>
</g>
<g>
</g>
<g>
</g>
<g>
</g>
<g>
</g>
</svg>
