<?xml version="1.0" encoding="iso-8859-1"?>
<!-- Generator: Adobe Illustrator 19.0.0, SVG Export Plug-In . SVG Version: 6.00 Build 0)  -->
<svg xmlns="http://www.w3.org/2000/svg" xmlns:xlink="http://www.w3.org/1999/xlink" version="1.1" id="Capa_1" x="0px" y="0px" viewBox="0 0 512 512" style="enable-background:new 0 0 512 512;" xml:space="preserve">
<path style="fill:#8CC371;" d="M511.479,255.479c0,91.117-47.707,171.098-119.491,216.312c-6.184,3.9-12.555,7.539-19.083,10.907  c-4.922,2.544-9.948,4.922-15.058,7.153c-4.932,2.138-9.958,4.14-15.047,5.975c-4.859,1.752-9.781,3.368-14.766,4.818  c-4.234,1.251-8.509,2.388-12.826,3.41c-5.266,1.251-10.595,2.336-15.986,3.253c-6.893,1.178-13.879,2.075-20.96,2.69  c-1.689,0.146-3.389,0.282-5.099,0.386c-0.229,0.021-0.469,0.042-0.699,0.052c-2.033,0.125-4.077,0.229-6.121,0.302  c-3.431,0.146-6.882,0.219-10.344,0.219c-5.725,0-11.408-0.188-17.039-0.563c-1.199-0.083-2.409-0.177-3.608-0.271  c-7.633-0.605-15.162-1.554-22.586-2.815c-29.271-4.984-56.831-14.953-81.805-28.989c-4.943-2.784-9.802-5.735-14.536-8.843  c-13.306-8.686-25.746-18.582-37.175-29.542c-7.81-7.487-15.151-15.464-21.961-23.89C21.783,372.175,0.521,316.303,0.521,255.479  C0.521,114.381,114.903,0,256,0c8.186,0,16.288,0.386,24.276,1.147c0.01-0.01,0.01-0.01,0.021,0  c6.423,0.594,12.774,1.439,19.041,2.524c24.14,4.119,47.133,11.627,68.458,22.023C452.865,67.154,511.479,154.476,511.479,255.479z"/>
<path style="fill:#E6E2E0;" d="M278.263,160.357v350.683c-1.689,0.146-3.389,0.282-5.099,0.386  c-0.229,0.021-0.469,0.042-0.699,0.052c-2.033,0.125-4.077,0.229-6.121,0.302C262.914,511.927,259.462,512,256,512  c-5.725,0-11.408-0.188-17.039-0.563c-1.199-0.083-2.409-0.177-3.608-0.271c-7.633-0.605-15.162-1.554-22.586-2.815  c-29.271-4.984-56.831-14.953-81.805-28.989c-4.943-2.784-9.802-5.735-14.536-8.843c-13.306-8.686-25.746-18.582-37.175-29.542  c-7.81-7.487-15.151-16.507-21.961-24.933v-256.73L278.263,160.357z"/>
<path style="fill:#CCC9C7;" d="M116.425,160.357v310.161c-13.306-8.686-25.746-18.582-37.175-29.542  c-7.81-7.487-15.151-15.464-21.961-23.89v-256.73L116.425,160.357L116.425,160.357z"/>
<path style="fill:#665F60;" d="M278.263,248.033v261.965c-1.689,0.146-3.389,0.282-5.099,0.386  c-0.229,0.021-0.469,0.042-0.699,0.052c-2.033,0.125-4.077,0.229-6.121,0.302c-3.431,0.146-6.882,0.219-10.344,0.219  c-5.725,0-11.408-0.188-17.039-0.563c-1.199-0.083-2.409-0.177-3.608-0.271c-7.633-0.605-15.162-1.554-22.586-2.815  c-29.271-4.984-56.831-14.953-81.805-28.989c-4.943-2.784-9.802-5.735-14.536-8.843c-13.306-8.686-25.746-18.582-37.175-29.542  c-7.81-7.487-15.151-15.464-21.961-23.89V248.033H278.263z"/>
<path style="fill:#4D4848;" d="M116.425,248.033v221.443c-13.306-8.686-25.746-18.582-37.175-29.542  c-7.81-7.487-15.151-15.464-21.961-23.89V248.033H116.425z"/>
<g>
	<path style="fill:#807878;" d="M137.764,327.391c-7.054,0-10.463-9.1-5.058-13.696c5.523-4.696,14.166,0.398,12.66,7.516   C144.614,324.769,141.408,327.391,137.764,327.391z"/>
	<path style="fill:#807878;" d="M185.998,370.022c-7.013,0-10.368-8.958-5.167-13.595c2.608-2.325,6.584-2.593,9.493-0.66   c2.473,1.643,3.798,4.686,3.372,7.613C193.149,367.143,189.799,370.022,185.998,370.022z"/>
	<path style="fill:#807878;" d="M114.421,433.216c-3.186,0-6.112-2.018-7.259-4.983c-1.222-3.159-0.206-6.85,2.468-8.934   c2.615-2.038,6.345-2.179,9.107-0.337c2.702,1.803,4.029,5.233,3.223,8.382C121.091,430.741,117.942,433.216,114.421,433.216z"/>
	<path style="fill:#807878;" d="M206.23,476.791c-7.24,0-10.503-9.482-4.782-13.918c5.608-4.348,13.868,0.799,12.395,7.732   C213.088,474.152,209.869,476.791,206.23,476.791z"/>
	<path style="fill:#807878;" d="M238.91,392.753c-3.314,0-6.355-2.193-7.383-5.34c-1.042-3.189,0.1-6.761,2.814-8.736   c5.733-4.172,13.856,1.288,12.113,8.188C245.592,390.281,242.438,392.753,238.91,392.753z"/>
</g>
<g>
	<polygon style="fill:#665F60;" points="358.026,52.46 358.026,32.305 358.013,32.305 277.186,32.305 277.186,52.46 358.013,52.46     "/>
	<path style="fill:#665F60;" d="M406.972,324.239c0,5.735-0.094,11.418-0.271,17.049c-0.959,30.449-4.463,59.156-9.969,84.85   c-3.243,15.047-4.87,30.376-4.745,45.652c-6.184,3.9-12.555,7.539-19.083,10.907c-4.922,2.544-9.948,4.922-15.058,7.153   c-4.932,2.138-9.958,4.14-15.047,5.975c-4.859,1.752-9.781,3.368-14.766,4.818c-4.234,1.251-8.509,2.388-12.826,3.41   c-5.266,1.251-10.595,2.336-15.986,3.253c-6.893,1.178-13.879,2.075-20.96,2.69c-1.689,0.146-3.389,0.282-5.099,0.386   c-0.229,0.021-0.469,0.042-0.699,0.052c-2.033,0.125-4.077,0.229-6.121,0.302c-3.431,0.146-6.882,0.219-10.344,0.219   c-5.725,0-11.408-0.188-17.039-0.563c5.996-27.644,5.475-56.435-0.501-84.256c-2.534-11.835-4.651-24.297-6.277-37.289   c-0.261-2.002-0.501-4.015-0.72-6.048c-1.512-13.368-2.523-27.248-2.972-41.513c-0.083-2.815-0.156-5.641-0.198-8.488   c-0.042-2.836-0.063-5.694-0.063-8.561c0-26.799,1.96-52.472,5.558-76.206c0.636-4.307,1.345-8.551,2.096-12.732   c0.323-1.804,0.667-3.608,1.011-5.391c3.17-16.257,7.133-31.429,11.762-45.183c0.928-2.753,1.887-5.443,2.857-8.081   c0.24-0.657,0.49-1.314,0.74-1.96c1.241-3.264,2.523-6.423,3.837-9.5c0.532-1.22,1.064-2.43,1.606-3.629   c0.334-0.751,0.667-1.491,0.991-2.242c0.521-1.168,1.022-2.336,1.512-3.514c2.43-5.787,4.599-11.658,6.517-17.623   c0.48-1.481,0.938-2.961,1.376-4.453c0.751-2.513,1.46-5.037,2.117-7.571c0.01-0.031,0.01-0.063,0.021-0.094   c0.355-1.356,0.688-2.722,1.012-4.077c0.323-1.366,0.636-2.732,0.938-4.109c0.907-4.109,1.689-8.238,2.346-12.399   c0.198-1.241,0.386-2.471,0.553-3.712c0.021-0.146,0.042-0.302,0.063-0.448c0.177-1.283,0.344-2.565,0.501-3.848   c0.01-0.115,0.021-0.219,0.042-0.334c0.146-1.272,0.292-2.555,0.417-3.827c0.72-7.112,1.084-14.255,1.084-21.429V52.462h80.846   v19.416c0,22.607,3.587,45.006,10.49,66.435c2.544,7.894,5.537,15.642,8.968,23.243c8.634,19.124,15.735,42.336,20.803,68.354   C403.865,258.471,406.972,290.464,406.972,324.239z"/>
</g>
<path style="fill:#4D4848;" d="M294.749,32.305v39.573c0,22.566-2.023,44.933-5.913,66.299c-0.01,0.052-0.01,0.083-0.021,0.136  c-1.439,7.904-3.139,15.652-5.068,23.243c-1.981,7.758-3.817,16.184-5.485,25.193c-2.461,13.212-4.578,27.696-6.277,43.16  c-0.647,5.902-1.241,11.94-1.762,18.123c-2.033,23.733-3.139,49.406-3.139,76.206c0,5.735,0.052,11.418,0.156,17.049  c0.532,30.449,2.513,59.156,5.631,84.85c3.379,27.821,3.671,56.602,0.292,84.245c-0.229,0.021-0.469,0.042-0.699,0.052  c-2.033,0.125-4.077,0.229-6.121,0.302c-3.431,0.146-6.882,0.219-10.344,0.219c-5.725,0-11.408-0.188-17.039-0.563  c5.996-27.644,5.475-56.435-0.501-84.256c-2.534-11.835-4.651-24.297-6.277-37.289c-0.261-2.002-0.501-4.015-0.72-6.048  c-1.512-13.368-2.523-27.248-2.972-41.513c-0.083-2.815-0.156-5.641-0.198-8.488c-0.052-2.836-0.073-5.694-0.073-8.561  c0-26.799,1.96-52.472,5.558-76.206c0.636-4.307,1.345-8.551,2.106-12.732c0.323-1.804,0.667-3.608,1.011-5.391  c3.17-16.257,7.133-31.429,11.762-45.183c0.928-2.753,1.877-5.443,2.857-8.081c0.24-0.657,0.49-1.314,0.74-1.96  c1.241-3.264,2.513-6.423,3.837-9.5c0.521-1.22,1.053-2.43,1.595-3.629c0.334-0.751,0.667-1.491,0.991-2.242h0.01  c0.521-1.168,1.022-2.336,1.512-3.514c2.419-5.787,4.588-11.658,6.496-17.623c1.721-5.339,3.233-10.741,4.546-16.194  c0.323-1.366,0.636-2.732,0.938-4.109c0.98-4.463,1.814-8.957,2.503-13.483c0.136-0.876,0.282-1.752,0.396-2.628  c0.021-0.146,0.042-0.302,0.063-0.448c0.177-1.283,0.344-2.565,0.501-3.848c0.01-0.115,0.021-0.219,0.042-0.334  c0.146-1.272,0.292-2.555,0.417-3.827c0.72-7.112,1.085-14.255,1.085-21.429V32.305H294.749z"/>
<polygon style="fill:#CCC9C7;" points="358.026,33.348 358.013,33.348 277.186,33.348 277.186,53.502 358.013,53.502   358.026,53.502 "/>
<path style="fill:#E6E2E0;" d="M368.526,139.355H267.098l-0.382-0.131c6.822-21.204,10.411-43.385,10.459-65.782  c0.011-0.179,0.011-0.346,0.011-0.525V53.501h80.845v19.415C358.031,95.527,361.621,117.924,368.526,139.355z"/>
<path style="fill:#F9395E;" d="M406.974,324.234c0,5.736-0.095,11.425-0.274,17.053H228.494c-0.179-5.629-0.263-11.317-0.263-17.053  c0-33.774,3.113-65.758,8.67-94.321h161.392C403.862,258.476,406.974,290.46,406.974,324.234z"/>
<path style="fill:#F3EEED;" d="M343.205,77.927c4.202,0,7.608,7.654,7.608,17.098v0.557c0,14.779,0.349,29.456,1.028,43.777h-17.273  c0.679-14.317,1.03-28.994,1.03-43.777v-0.557C335.597,85.581,339.002,77.927,343.205,77.927L343.205,77.927z"/>
<g>
	<path style="fill:#AA9F9F;" d="M334.566,138.316h17.273c0.266,5.614,0.583,11.172,0.949,16.661   c0.478,7.181,1.042,14.231,1.687,21.14c1.432,15.316,2.638,33.508,3.558,53.8h-29.661c0.919-20.291,2.126-38.483,3.556-53.8   c0.65-6.944,1.216-14.042,1.697-21.259C333.988,149.41,334.303,143.891,334.566,138.316L334.566,138.316z"/>
	<path style="fill:#AA9F9F;" d="M358.098,416.774c-1.064,24.119-1.21,49.031-0.25,73.077c-4.932,2.138-9.958,4.14-15.047,5.975   c-4.859,1.752-9.781,3.368-14.766,4.818c1.502-27.321,1.502-56.122,0.282-83.87c-1.032-22.889-1.668-48.426-1.877-75.497h33.525   C359.776,368.348,359.12,393.885,358.098,416.774z"/>
</g>
<path style="fill:#F96286;" d="M328.372,229.918h29.661c0.125,2.756,0.244,5.55,0.359,8.381c1.047,25.975,1.633,55.068,1.633,85.783  c0,5.226-0.018,10.393-0.052,15.513c-0.003,0.562-0.007,1.124-0.011,1.686h-33.518c-0.004-0.562-0.008-1.123-0.011-1.686  c-0.034-5.12-0.052-10.287-0.052-15.513c0-30.716,0.587-59.808,1.633-85.783C328.128,235.468,328.248,232.674,328.372,229.918  L328.372,229.918z"/>
<path style="fill:#D92F52;" d="M271.987,229.913c-3.137,28.563-4.902,60.547-4.902,94.321c0,5.736,0.048,11.425,0.155,17.053  h-38.747c-0.179-5.629-0.263-11.317-0.263-17.053c0-33.774,3.113-65.758,8.67-94.321H271.987z"/>
<path style="fill:#CCC9C7;" d="M294.754,33.347v39.57c0,22.575-2.027,44.936-5.916,66.307c-0.011,0.048-0.011,0.083-0.024,0.131  h-21.717l-0.382-0.131c6.822-21.204,10.411-43.385,10.459-65.782c0.011-0.179,0.011-0.346,0.011-0.525v-39.57H294.754z"/>
<path style="fill:#F9395E;" d="M267.388,16.697v15.608h9.784h0.014h80.827h0.014h9.771V16.697c0-8.742-7.088-15.829-15.829-15.829  h-68.75C274.476,0.869,267.388,7.955,267.388,16.697z"/>
<path style="fill:#D92F52;" d="M308.325,0.869h-25.107c-8.742,0-15.829,7.088-15.829,15.829v15.607h9.784h0.014h15.31V16.697  C292.496,7.955,299.583,0.869,308.325,0.869z"/>
<g>
</g>
<g>
</g>
<g>
</g>
<g>
</g>
<g>
</g>
<g>
</g>
<g>
</g>
<g>
</g>
<g>
</g>
<g>
</g>
<g>
</g>
<g>
</g>
<g>
</g>
<g>
</g>
<g>
</g>
</svg>
