<?xml version="1.0" encoding="iso-8859-1"?>
<!-- Generator: Adobe Illustrator 19.0.0, SVG Export Plug-In . SVG Version: 6.00 Build 0)  -->
<svg xmlns="http://www.w3.org/2000/svg" xmlns:xlink="http://www.w3.org/1999/xlink" version="1.1" id="Capa_1" x="0px" y="0px" viewBox="0 0 512 512" style="enable-background:new 0 0 512 512;" xml:space="preserve">
<path style="fill:#F9EF4A;" d="M512,256c0,30.02-5.172,58.838-14.67,85.598c0,0.01,0,0.01,0,0.021  c-3.668,10.334-7.983,20.365-12.894,30.041c-3.406,6.719-7.095,13.27-11.076,19.634c-1.285,2.069-2.612,4.127-3.96,6.154  c-10.533,15.862-22.789,30.48-36.498,43.583c-6.499,6.217-13.322,12.1-20.449,17.607c-17.941,13.876-37.784,25.422-59.058,34.168  h-0.01c-1.463,0.606-2.915,1.191-4.389,1.766c-4.221,1.651-8.505,3.197-12.831,4.618c-11.922,3.929-24.231,7.011-36.854,9.153  C285.236,510.746,270.764,512,256,512s-29.236-1.254-43.321-3.657C91.93,487.769,0,382.621,0,256  c0-34.482,6.823-67.375,19.184-97.405c1.191-2.884,2.424-5.747,3.709-8.579c0.449-0.972,0.899-1.954,1.358-2.926  C65.181,60.165,153.558,0,256,0C397.385,0,512,114.615,512,256z"/>
<path style="fill:#B16E60;" d="M484.874,343.207c2.09,1.526,3.396,4.044,3.25,6.823h0.01c-0.146,2.779-1.703,5.151-3.929,6.457  c2.006,1.63,3.177,4.211,2.905,6.98c-0.282,2.769-1.954,5.057-4.242,6.249c0.616,0.564,1.149,1.223,1.567,1.943  c-4.514,8.913-9.54,17.523-15.036,25.788c-10.533,15.862-22.789,30.48-36.498,43.583c-6.499,6.217-13.322,12.1-20.449,17.607  c-17.941,13.876-37.784,25.422-59.058,34.168h-0.01L158.208,297.618L19.184,158.595l-1.348-1.348  c0.031-1.87,0.731-3.741,2.111-5.235c0.846-0.909,1.86-1.578,2.947-1.996c1.348-0.522,2.811-0.669,4.221-0.428  c-0.272-1.39-0.167-2.832,0.313-4.169c0.376-1.118,1.034-2.173,1.944-3.051c1.985-1.944,4.744-2.623,7.262-2.069  c-0.355-2.56,0.533-5.256,2.612-7.095c2.079-1.849,4.88-2.393,7.367-1.703c-0.24-2.581,0.784-5.235,2.957-6.959  c2.173-1.745,4.995-2.152,7.45-1.337c-0.115-2.591,1.034-5.183,3.291-6.813v-0.01c2.267-1.63,5.099-1.891,7.513-0.951  c0.01-2.602,1.296-5.13,3.636-6.646c2.351-1.526,5.183-1.64,7.555-0.585c0.136-2.591,1.536-5.068,3.95-6.457  c2.424-1.4,5.266-1.39,7.576-0.209c0.261-2.581,1.797-4.984,4.284-6.248c1.442-0.752,3.009-1.003,4.514-0.825  c1.076,0.104,2.121,0.449,3.062,0.993c0.397-2.56,2.038-4.89,4.577-6.04c2.55-1.149,5.371-0.836,7.576,0.564  c0.522-2.55,2.278-4.786,4.869-5.799c2.612-1.034,5.423-0.585,7.534,0.93c0.481-1.849,1.62-3.5,3.239-4.587  c0.585-0.397,1.233-0.721,1.933-0.961h0.01c2.633-0.888,5.402-0.313,7.44,1.296c0.773-2.466,2.759-4.514,5.444-5.256  c2.664-0.763,5.413-0.042,7.367,1.672c0.909-2.435,2.978-4.368,5.695-4.984c2.717-0.616,5.413,0.23,7.283,2.038  c1.024-2.382,3.187-4.211,5.935-4.692c2.738-0.47,5.402,0.512,7.168,2.403c1.139-2.33,3.406-4.044,6.154-4.378  c2.769-0.355,5.381,0.773,7.053,2.748c1.243-2.267,3.594-3.877,6.374-4.075c2.769-0.199,5.308,1.045,6.886,3.093  c1.369-2.194,3.783-3.678,6.562-3.751c2.79-0.063,5.266,1.306,6.74,3.438c1.463-2.132,3.95-3.49,6.74-3.427  c2.769,0.073,5.193,1.557,6.552,3.762c1.578-2.048,4.127-3.291,6.896-3.093v-0.01c2.779,0.219,5.12,1.829,6.363,4.086  c1.672-1.975,4.284-3.093,7.053-2.748c2.759,0.345,5.016,2.069,6.154,4.389c1.766-1.881,4.43-2.873,7.168-2.382  c2.748,0.481,4.911,2.309,5.935,4.692c1.86-1.797,4.566-2.654,7.283-2.038c2.717,0.616,4.786,2.56,5.684,4.995  c1.954-1.714,4.702-2.424,7.377-1.672c2.685,0.752,4.66,2.8,5.433,5.266c2.038-1.599,4.807-2.173,7.45-1.285s4.504,3.03,5.162,5.528  c2.111-1.505,4.911-1.933,7.502-0.909c2.591,1.003,4.336,3.229,4.869,5.747c2.184-1.369,4.995-1.672,7.523-0.522  c2.529,1.139,4.18,3.448,4.577,5.998c2.257-1.264,5.078-1.411,7.544-0.146c2.476,1.275,3.992,3.657,4.263,6.228  c2.32-1.16,5.151-1.17,7.555,0.219c2.403,1.39,3.803,3.856,3.95,6.426c2.361-1.034,5.193-0.899,7.534,0.606  c2.33,1.515,3.605,4.033,3.626,6.625c2.414-0.93,5.235-0.658,7.492,0.972c2.257,1.62,3.406,4.211,3.291,6.802  c2.466-0.805,5.266-0.408,7.44,1.337c2.173,1.735,3.197,4.378,2.947,6.959c2.508-0.69,5.277-0.146,7.367,1.703  c2.09,1.839,2.978,4.524,2.602,7.095c2.539-0.564,5.287,0.125,7.283,2.069c1.996,1.944,2.738,4.681,2.247,7.22  c2.56-0.439,5.266,0.387,7.168,2.424c1.891,2.038,2.508,4.807,1.881,7.325c2.57-0.313,5.256,0.637,7.043,2.769  c1.787,2.132,2.278,4.932,1.515,7.419c2.591-0.188,5.214,0.899,6.896,3.124c1.682,2.215,2.027,5.036,1.149,7.471  c2.602-0.042,5.172,1.17,6.74,3.469s1.766,5.13,0.773,7.534c2.602,0.073,5.099,1.411,6.562,3.793  c1.452,2.372,1.515,5.214,0.387,7.555c2.591,0.209,5.036,1.672,6.374,4.127c1.327,2.445,1.243,5.287,0.01,7.576  c2.581,0.324,4.942,1.912,6.154,4.43c1.212,2.508,0.982,5.339-0.366,7.565c2.56,0.46,4.848,2.163,5.935,4.744  c1.076,2.56,0.711,5.392-0.752,7.544c2.529,0.585,4.733,2.403,5.684,5.016c0.961,2.633,0.439,5.433-1.118,7.513  c2.497,0.711,4.598,2.633,5.423,5.308c0.815,2.654,0.167,5.423-1.484,7.408c2.445,0.846,4.441,2.873,5.13,5.569  c0.679,2.696-0.104,5.423-1.86,7.325c2.414,0.972,4.284,3.082,4.838,5.82c0.554,2.738-0.376,5.413-2.215,7.231  c2.351,1.076,4.127,3.291,4.545,6.05c0.408,2.748-0.648,5.381-2.581,7.105c2.299,1.202,3.96,3.49,4.242,6.269  c0.272,2.769-0.92,5.339-2.936,6.969c2.236,1.306,3.783,3.689,3.929,6.468c0.125,2.769-1.181,5.298-3.271,6.823  c2.163,1.411,3.594,3.856,3.594,6.635c0,0.094,0,0.188-0.01,0.282c0.01,0.104,0.01,0.199,0.01,0.303  C488.479,339.341,487.048,341.797,484.874,343.207z"/>
<path style="fill:#D39F15;" d="M133.259,124.117c0-37.23,30.181-67.411,67.411-67.411s67.411,30.181,67.411,67.411H133.259z"/>
<path style="fill:#E83A25;" d="M133.259,124.117c0-37.23,30.181-67.411,67.411-67.411s67.411,30.181,67.411,67.411H133.259z"/>
<path style="fill:#F9492A;" d="M144.863,124.118c0-30.773,25.035-55.808,55.808-55.808c30.772,0,55.807,25.035,55.807,55.808  H144.863z"/>
<path style="fill:#D39F15;" d="M265.845,159.775c0-29.408,23.839-53.246,53.246-53.246c29.407,0,53.246,23.839,53.246,53.246  H265.845z"/>
<path style="fill:#E83A25;" d="M265.845,159.775c0-29.408,23.839-53.246,53.246-53.246c29.407,0,53.246,23.839,53.246,53.246  H265.845z"/>
<path style="fill:#F9492A;" d="M275.011,159.775c0-24.306,19.775-44.081,44.081-44.081c24.305,0,44.08,19.775,44.08,44.081H275.011z  "/>
<path style="fill:#D39F15;" d="M387.716,281.645c29.408,0,53.246-23.839,53.246-53.246s-23.839-53.246-53.246-53.246V281.645z"/>
<path style="fill:#E83A25;" d="M387.716,281.645c29.408,0,53.246-23.839,53.246-53.246s-23.839-53.246-53.246-53.246V281.645z"/>
<path style="fill:#F9492A;" d="M387.715,272.48c24.306,0,44.081-19.775,44.081-44.081c0-24.305-19.775-44.08-44.081-44.08V272.48z"/>
<path style="fill:#D39F15;" d="M497.33,341.598c0,0.01,0,0.01,0,0.021c-3.668,10.334-7.983,20.365-12.894,30.041  c-3.406,6.719-7.095,13.27-11.076,19.634c-10.846,8.652-24.597,13.814-39.539,13.814V278.089  C468.898,278.089,497.33,306.521,497.33,341.598z"/>
<path style="fill:#E83A25;" d="M497.33,341.598c0,0.01,0,0.01,0,0.021c-3.668,10.334-7.983,20.365-12.894,30.041  c-3.406,6.719-7.095,13.27-11.076,19.634c-10.846,8.652-24.597,13.814-39.539,13.814V278.089  C468.898,278.089,497.33,306.521,497.33,341.598z"/>
<path style="fill:#F9492A;" d="M433.821,289.019c28.992,0,52.578,23.586,52.578,52.578c0,28.991-23.586,52.577-52.578,52.577  V289.019z"/>
<path style="fill:#8CC371;" d="M461.636,358.296c0,12.758,4.409,26.07,7.764,39.152c-10.533,15.862-22.789,30.48-36.498,43.583  c-6.499,6.217-13.322,12.1-20.449,17.607c-17.941,13.876-37.784,25.422-59.058,34.168L158.208,297.618L19.184,158.595l-1.348-1.348  l-4.211-4.211c3.448-2.048,7.022-4.033,10.627-5.945c1.055-0.564,2.111-1.118,3.176-1.672c12.246-6.384,24.743-12.173,34.638-17.91  c13.646-7.899,24.722-22.288,37.272-33.05c6.677-5.747,13.772-10.449,21.88-12.612c2.936-0.784,5.935-1.202,8.976-1.327  c20.804-0.94,43.729,11.421,65.087,11.421c18.181,0,37.491-8.944,55.651-11.045c6.311-0.721,12.476-0.627,18.411,0.951  c23.353,6.217,38.243,33.552,59.152,45.662c20.637,11.964,51.764,11.18,69.078,28.494s16.53,48.441,28.494,69.078  c12.11,20.908,39.445,35.798,45.662,59.141C477.863,307.273,461.636,333.814,461.636,358.296z"/>
<path style="fill:#76B25D;" d="M158.208,297.618L13.625,153.036c16.081-9.561,34.753-17.596,48.441-25.527  c20.908-12.11,35.798-39.445,59.152-45.662c23.04-6.144,49.58,10.094,74.062,10.094c18.181,0,37.491-8.944,55.651-11.045  c2.988,40.354,21.901,97.102,98.064,127.321C444.552,246.126,256,282.237,158.208,297.618z"/>
<path style="fill:#E59F32;" d="M432.901,441.03c-6.499,6.217-13.322,12.1-20.449,17.607c-19.174,14.827-40.511,26.99-63.457,35.934  c-4.221,1.651-8.505,3.197-12.831,4.618L17.408,180.423c98.241-98.241,257.505-98.241,355.746,0  c40.542,40.542,64.355,91.47,71.44,144.217C449.818,363.593,445.921,403.55,432.901,441.03z"/>
<path style="fill:#F2B54D;" d="M412.453,458.637c-19.174,14.827-40.511,26.99-63.457,35.934L154.384,299.959  c-73.822-73.822-4.399-198.51,97.123-174.132c41.42,9.947,80.677,31.044,112.933,63.31  C437.196,261.883,453.193,370.228,412.453,458.637z"/>
<g>
	<path style="fill:#E59F32;" d="M270.629,216.576c-12.119,0-21.943-9.824-21.943-21.943c0-4.177,1.189-8.069,3.215-11.393   c-11.175,1.016-19.934,10.401-19.934,21.842c0,12.119,9.824,21.943,21.943,21.943c7.941,0,14.875-4.233,18.728-10.55   C271.975,216.534,271.307,216.576,270.629,216.576z"/>
	<path style="fill:#E59F32;" d="M342.56,258.954c-7.809,0-14.139-6.33-14.139-14.139c0-2.692,0.766-5.198,2.072-7.34   c-7.201,0.654-12.844,6.702-12.844,14.074c0,7.809,6.33,14.139,14.139,14.139c5.117,0,9.585-2.727,12.068-6.798   C343.428,258.927,342.997,258.954,342.56,258.954z"/>
	<path style="fill:#E59F32;" d="M343.868,369.202c-14.46,0-26.183-11.723-26.183-26.183c0-4.985,1.419-9.628,3.837-13.594   c-13.335,1.212-23.786,12.411-23.786,26.062c0,14.46,11.723,26.183,26.183,26.183c9.475,0,17.75-5.05,22.346-12.589   C345.474,369.152,344.676,369.202,343.868,369.202z"/>
	<path style="fill:#E59F32;" d="M154.11,211.236c-14.46,0-26.183-11.723-26.183-26.183c0-4.985,1.419-9.628,3.837-13.594   c-13.335,1.212-23.786,12.411-23.786,26.062c0,14.46,11.723,26.183,26.183,26.183c9.475,0,17.75-5.05,22.346-12.589   C155.716,211.186,154.919,211.236,154.11,211.236z"/>
</g>
<g>
</g>
<g>
</g>
<g>
</g>
<g>
</g>
<g>
</g>
<g>
</g>
<g>
</g>
<g>
</g>
<g>
</g>
<g>
</g>
<g>
</g>
<g>
</g>
<g>
</g>
<g>
</g>
<g>
</g>
</svg>
