<?xml version="1.0" encoding="iso-8859-1"?>
<!-- Generator: Adobe Illustrator 19.0.0, SVG Export Plug-In . SVG Version: 6.00 Build 0)  -->
<svg xmlns="http://www.w3.org/2000/svg" xmlns:xlink="http://www.w3.org/1999/xlink" version="1.1" id="Capa_1" x="0px" y="0px" viewBox="0 0 512 512" style="enable-background:new 0 0 512 512;" xml:space="preserve">
<path style="fill:#F9EF4A;" d="M512,256c0,60.803-21.201,116.652-56.613,160.569c-4.838,6.008-9.937,11.786-15.318,17.324  c-4.66,4.838-9.529,9.498-14.576,13.96c-4.221,3.73-8.558,7.325-13.019,10.762c-4.305,3.344-8.725,6.541-13.249,9.603  c-3.605,2.435-7.272,4.786-11.003,7.032c-10.877,6.583-22.288,12.372-34.158,17.293c-29.257,12.152-61.252,19.017-94.814,19.435  c-1.076,0.01-2.163,0.021-3.25,0.021c-0.993,0-1.996,0-2.988-0.021c-0.94-0.01-1.87-0.021-2.8-0.042  c-13.981-0.313-27.69-1.745-41.023-4.211c-30.751-5.674-59.58-16.854-85.42-32.486c-3.73-2.247-7.398-4.598-11.003-7.032  c-4.524-3.062-8.944-6.259-13.249-9.603c-4.462-3.438-8.798-7.032-13.019-10.762c-5.047-4.462-9.916-9.112-14.576-13.96  c-5.371-5.548-10.48-11.327-15.318-17.335C21.191,372.642,0,316.803,0,256C0,114.615,114.615,0,256,0S512,114.615,512,256z"/>
<path style="fill:#31DEF9;" d="M408.607,56.332v65.895H103.382V56.332c0-14.226,11.521-25.747,25.733-25.747h253.746  C397.087,30.584,408.607,42.105,408.607,56.332z"/>
<path style="fill:#20C7E2;" d="M200.435,30.584v91.642h-97.053V56.332c0-14.226,11.521-25.747,25.733-25.747  C129.115,30.584,200.435,30.584,200.435,30.584z"/>
<rect x="103.382" y="101.815" style="fill:#D92F52;" width="305.225" height="20.409"/>
<path style="fill:#F9395E;" d="M455.387,163.432v253.137c-9.07,11.254-19.069,21.723-29.895,31.284  c-4.221,3.73-8.558,7.325-13.019,10.762c-4.305,3.344-8.725,6.541-13.249,9.603c-3.605,2.435-7.272,4.786-11.003,7.032  c-10.877,6.583-22.288,12.372-34.158,17.293c-29.257,12.152-61.252,19.017-94.814,19.435c-1.076,0.01-2.163,0.021-3.25,0.021  c-0.993,0-1.996,0-2.988-0.021c-14.952-0.167-29.602-1.62-43.823-4.253c-30.751-5.674-59.58-16.854-85.42-32.486  c-3.73-2.247-7.398-4.598-11.003-7.032c-4.524-3.062-8.944-6.259-13.249-9.603c-4.462-3.438-8.798-7.032-13.019-10.762  c-10.825-9.571-20.825-20.041-29.895-31.295V163.432c0-22.758,18.463-41.211,41.211-41.211h316.385  C436.935,122.222,455.387,140.675,455.387,163.432z"/>
<path style="fill:#D92F52;" d="M440.069,202.93v230.964c-4.66,4.838-9.529,9.498-14.576,13.96  c-4.221,3.73-8.558,7.325-13.019,10.762c-4.305,3.344-8.725,6.541-13.249,9.603c-3.605,2.435-7.272,4.786-11.003,7.032  c-10.877,6.583-22.288,12.372-34.158,17.293c-29.257,12.152-61.252,19.017-94.814,19.435c-1.076,0.01-2.163,0.021-3.25,0.021  c-0.993,0-1.996,0-2.988-0.021c-0.94-0.01-1.87-0.021-2.8-0.042c-13.981-0.313-27.69-1.745-41.023-4.211  c-30.751-5.674-59.58-16.854-85.42-32.486c-3.73-2.247-7.398-4.598-11.003-7.032c-4.524-3.062-8.944-6.259-13.249-9.603  c-4.462-3.438-8.798-7.032-13.019-10.762c-5.047-4.462-9.916-9.112-14.576-13.96V202.93H440.069z"/>
<g>
	<path style="fill:#FF5B6E;" d="M119.498,375.891c0,13.255,10.745,23.999,24.001,23.999c13.255,0,24-10.745,24-23.999   s-10.745-24-24-24C130.243,351.89,119.498,362.636,119.498,375.891L119.498,375.891z"/>
	<path style="fill:#FF5B6E;" d="M306.81,445.1c0,13.857,11.234,25.091,25.091,25.091c13.857,0,25.091-11.234,25.091-25.091   c0-13.857-11.234-25.091-25.091-25.091C318.044,420.009,306.81,431.243,306.81,445.1L306.81,445.1z"/>
	<path style="fill:#FF5B6E;" d="M197.718,469.101c0,6.628,5.373,12.001,12.001,12.001s12.001-5.373,12.001-12.001   c0-6.628-5.373-12-12.001-12S197.718,462.473,197.718,469.101L197.718,469.101z"/>
	<path style="fill:#FF5B6E;" d="M308.992,326.19c0,6.628,5.373,12.001,12.001,12.001c6.627,0,12-5.373,12-12.001   c0-6.627-5.373-12-12-12C314.365,314.19,308.992,319.562,308.992,326.19L308.992,326.19z"/>
	<path style="fill:#FF5B6E;" d="M186.442,248.345c0,6.628,5.373,12.001,12.001,12.001c6.627,0,12-5.373,12-12.001   c0-6.627-5.373-12-12-12C191.815,236.347,186.442,241.718,186.442,248.345L186.442,248.345z"/>
	<path style="fill:#FF5B6E;" d="M313.355,277.099c0,11.448,9.28,20.728,20.728,20.728c11.447,0,20.728-9.28,20.728-20.728   s-9.281-20.728-20.728-20.728C322.635,256.371,313.355,265.651,313.355,277.099L313.355,277.099z"/>
	<path style="fill:#FF5B6E;" d="M227.77,337.617c0,11.448,9.28,20.728,20.728,20.728c11.447,0,20.728-9.28,20.728-20.728   c0-11.448-9.281-20.728-20.728-20.728C237.05,316.889,227.77,326.169,227.77,337.617L227.77,337.617z"/>
	<path style="fill:#FF5B6E;" d="M408.385,369.735h-12.291c-8.656,0-15.672-7.016-15.672-15.672V184.678   c0-8.656,7.016-15.672,15.672-15.672h12.291c8.656,0,15.672,7.016,15.672,15.672v169.384   C424.058,362.719,417.041,369.735,408.385,369.735z"/>
</g>
<g>
</g>
<g>
</g>
<g>
</g>
<g>
</g>
<g>
</g>
<g>
</g>
<g>
</g>
<g>
</g>
<g>
</g>
<g>
</g>
<g>
</g>
<g>
</g>
<g>
</g>
<g>
</g>
<g>
</g>
</svg>
