<?xml version="1.0" encoding="iso-8859-1"?>
<!-- Generator: Adobe Illustrator 19.0.0, SVG Export Plug-In . SVG Version: 6.00 Build 0)  -->
<svg xmlns="http://www.w3.org/2000/svg" xmlns:xlink="http://www.w3.org/1999/xlink" version="1.1" id="Capa_1" x="0px" y="0px" viewBox="0 0 512 512" style="enable-background:new 0 0 512 512;" xml:space="preserve">
<path style="fill:#52C8D3;" d="M505.983,311.318v0.01c-6.875,31.201-19.644,61.357-38.306,88.702c0,0,0,0,0,0.01  c-8.871,13.03-19.101,25.412-30.657,36.979c-20.585,20.585-43.781,36.927-68.546,49.027h-0.01  c-18.348,8.976-37.554,15.621-57.156,19.937c-82.474,18.171-172.189-4.817-236.326-68.964c-99.976-99.976-99.976-262.061,0-362.038  s262.061-99.976,362.038,0C501.166,139.129,524.154,228.844,505.983,311.318z"/>
<path style="fill:#F2B54D;" d="M505.983,311.329c-6.875,31.201-19.644,61.357-38.306,88.702c0,0,0,0,0,0.01  c-8.871,13.03-19.101,25.412-30.657,36.979c-20.585,20.585-43.781,36.927-68.546,49.027h-0.01  c-18.348,8.976-37.554,15.621-57.156,19.937L76.717,271.392c-37.46-37.46-48.807-91.126-34.064-138.408  c6.416-20.574,17.774-39.957,34.074-56.258c17.565-17.565,38.703-29.393,61.085-35.474c46.059-12.539,97.385-0.711,133.57,35.474  L505.983,311.329z"/>
<g>
	<path style="fill:#E59F32;" d="M170.73,288.315c-25.694-25.694-62.518-88.901-15.361-136.057l-30.133-40.354l-61.9,17.519v70.075   l66.572,78.251L170.73,288.315z"/>
	<path style="fill:#E59F32;" d="M368.464,486.047c-18.348,8.976-37.554,15.621-57.156,19.937L76.717,271.392   c-26.875-26.875-40.312-62.099-40.312-97.333c0-35.213,13.437-70.458,40.323-97.333c6.593-6.604,13.699-12.382,21.18-17.356   c-35.579,53.468-29.801,126.318,17.356,173.475L368.464,486.047z"/>
	<path style="fill:#E59F32;" d="M137.802,41.253l23.017,23.017c12.474,12.474,19.35,29.067,19.357,46.72   c-0.007,17.652-6.883,34.246-19.357,46.72c-5.249,5.249-11.274,9.546-17.909,12.754c-24.621,11.929-54.482,7.281-74.307-11.563   c-0.413-0.381-0.841-0.81-1.223-1.191l-24.73-24.73c6.416-20.572,17.777-39.953,34.074-56.25   C94.291,59.162,115.431,47.334,137.802,41.253z"/>
</g>
<path style="fill:#F9395E;" d="M116.436,30.788l38.933,38.933c11.4,11.4,17.091,26.326,17.099,41.268  c-0.007,14.942-5.7,29.87-17.099,41.268c-4.75,4.75-10.107,8.502-15.822,11.274c-21.319,10.325-47.607,6.914-65.632-10.223  c-0.405-0.374-0.763-0.732-1.083-1.051l-38.933-38.933c-11.4-11.4-17.091-26.326-17.099-41.268  c0.007-14.942,5.7-29.87,17.099-41.268c0.358-0.358,0.717-0.701,1.083-1.051c0.327-0.311,0.646-0.615,0.981-0.918  c0.171-0.156,0.334-0.304,0.514-0.451c0.296-0.264,0.584-0.521,0.88-0.771c0.514-0.436,1.035-0.864,1.558-1.277  c0.381-0.304,0.771-0.6,1.16-0.895c2.737-2.066,5.617-3.85,8.599-5.371c0.031-0.016,0.061-0.033,0.092-0.049c0,0,0,0,0,0.001  C70.667,8.886,98.126,12.478,116.436,30.788z"/>
<path style="fill:#D92F52;" d="M59.547,87.677L98.48,126.61c4.516,4.516,19.981,18.532,41.067,36.924  c-21.319,10.325-47.607,6.914-65.632-10.223c-0.405-0.374-0.763-0.732-1.083-1.051l-38.933-38.933  C22.499,101.926,16.807,87,16.8,72.058c0.007-14.942,5.7-29.87,17.099-41.268c0.358-0.358,0.717-0.701,1.083-1.051  c0.327-0.311,0.646-0.615,0.981-0.918c0.171-0.156,0.334-0.304,0.514-0.451c0.296-0.264,0.584-0.521,0.88-0.771  c0.514-0.436,1.035-0.864,1.558-1.277c0.381-0.304,0.771-0.6,1.16-0.895c2.764-2.079,5.676-3.886,8.689-5.42  C37.644,41.915,41.233,69.363,59.547,87.677z"/>
<g>
	<path style="fill:#E59F32;" d="M289.297,94.638c0,0,41.268,75.53,6.23,147.945c0,0,54.506-45.162,45.94-95.775L289.297,94.638z"/>
	<path style="fill:#E59F32;" d="M373.934,179.275c0,0,41.268,75.53,6.23,147.945c0,0,54.506-45.162,45.94-95.775L373.934,179.275z"/>
	<path style="fill:#E59F32;" d="M467.677,400.03c26.781-69.12-10.689-137.697-10.689-137.697l48.995,48.995   C499.108,342.529,486.339,372.685,467.677,400.03z"/>
</g>
<g>
</g>
<g>
</g>
<g>
</g>
<g>
</g>
<g>
</g>
<g>
</g>
<g>
</g>
<g>
</g>
<g>
</g>
<g>
</g>
<g>
</g>
<g>
</g>
<g>
</g>
<g>
</g>
<g>
</g>
</svg>
