<?xml version="1.0" encoding="iso-8859-1"?>
<!-- Generator: Adobe Illustrator 19.0.0, SVG Export Plug-In . SVG Version: 6.00 Build 0)  -->
<svg xmlns="http://www.w3.org/2000/svg" xmlns:xlink="http://www.w3.org/1999/xlink" version="1.1" id="Capa_1" x="0px" y="0px" viewBox="0 0 512 512" style="enable-background:new 0 0 512 512;" xml:space="preserve">
<path style="fill:#8CC371;" d="M512,256c0,5.486-0.167,10.919-0.522,16.311c-0.596,9.634-1.735,19.122-3.385,28.442  c-14.461,82.035-67.992,150.612-140.685,185.793c-5.517,2.675-11.149,5.151-16.886,7.429c-16.311,6.489-33.447,11.348-51.21,14.367  c-3.093,0.533-6.196,1.003-9.331,1.411c-9.665,1.285-19.498,2.038-29.466,2.205h-0.01C258.999,511.99,257.505,512,256,512  c-14.764,0-29.236-1.254-43.321-3.657C91.93,487.769,0,382.621,0,256C0,114.615,114.615,0,256,0S512,114.615,512,256z"/>
<path style="fill:#E6E2E0;" d="M61.674,69.582c-24.754,0-44.102,21.724-40.865,46.27c2.154,16.334,9.503,32.119,22.052,44.682  c20.656,20.641,47.993,25.184,72.895,16.424c11.672-4.114,22.808-11.152,32.475-20.819c9.667-9.667,16.706-20.804,20.819-32.475  c8.761-24.917,4.217-52.254-16.424-72.895c-12.548-12.548-28.332-19.913-44.682-22.066C83.399,25.465,61.674,44.814,61.674,69.582z"/>
<path style="fill:#CCC9C7;" d="M143.02,160.99c-8.384,7.198-17.639,12.582-27.269,15.969c-24.897,8.758-52.239,4.21-72.889-16.429  c-12.545-12.558-19.901-28.345-22.055-44.677c-2.952-22.465,12.993-42.572,34.697-45.815c-6.315,8.239-9.558,18.873-8.081,30.087  c2.154,16.332,9.509,32.12,22.055,44.677c20.651,20.639,47.992,25.187,72.889,16.429C142.586,161.159,142.803,161.074,143.02,160.99  z"/>
<path style="fill:#E6E2E0;" d="M115.755,176.958l35.327,35.327l1.411,0.223c5.747-8.523,13.037-16.958,21.309-25.229  c10.722-10.722,21.724-19.809,32.846-26.001l-37.599-37.613c-4.114,11.672-11.152,22.808-20.819,32.475  C138.564,165.805,127.426,172.844,115.755,176.958z"/>
<path style="fill:#CCBFBF;" d="M112.694,174.276l75.554,74.13l5.509-38.682l-45.528-54.63  C148.23,155.094,130.813,170.325,112.694,174.276z"/>
<path style="fill:#FCF4D0;" d="M273.108,167.848c-1.984,0.92-4.089,1.609-6.291,2.008c-5.287,0.968-10.005,3.496-13.634,7.138  c-3.641,3.629-6.17,8.348-7.138,13.622c-0.968,5.287-3.509,9.993-7.15,13.634c-3.617,3.617-8.324,6.158-13.61,7.126  c-5.275,0.956-9.992,3.496-13.622,7.138c-3.629,3.629-6.17,8.348-7.138,13.622c-0.968,5.287-3.509,10.005-7.138,13.622  c-3.29,3.303-7.476,5.698-12.171,6.836c-0.484,0.121-0.968,0.23-1.464,0.315c-5.275,0.968-9.992,3.496-13.622,7.138  c-3.641,3.629-6.17,8.348-7.138,13.622c-0.907,4.96-3.206,9.424-6.509,12.957l-0.158-0.157c-3.448-3.448-6.327-6.908-8.686-10.417  c-14.275-21.111-9.617-43.128,4.851-64.59c5.747-8.504,13.03-16.949,21.292-25.2c0.013-0.013,0.013-0.024,0.013-0.024  c10.731-10.731,21.728-19.816,32.845-26.011c9.981-5.565,20.046-8.795,30.063-8.795c8.444,0,16.841,2.299,25.091,7.452  C265.595,161.255,269.369,164.232,273.108,167.848z"/>
<path style="fill:#B16E60;" d="M511.478,272.311c-0.596,9.634-1.735,19.122-3.385,28.442  c-14.461,82.035-67.992,150.612-140.685,185.793c-5.517,2.675-11.149,5.151-16.886,7.429c-16.311,6.489-33.447,11.348-51.21,14.367  c-3.093,0.533-6.196,1.003-9.331,1.411c-9.665,1.285-19.498,2.038-29.466,2.205h-0.01c-18.766-25.37-29.78-54.669-33.061-84.658  c-5.559-50.73-28.317-98.022-64.387-134.102l-6.572-6.572c3.302-3.532,5.601-7.993,6.51-12.957c0.972-5.277,3.5-9.989,7.137-13.625  c3.626-3.636,8.349-6.165,13.625-7.137c0.491-0.084,0.982-0.188,1.463-0.313c4.692-1.139,8.882-3.532,12.173-6.834  c3.626-3.615,6.165-8.338,7.137-13.625c0.961-5.277,3.5-9.989,7.137-13.625c3.626-3.636,8.349-6.175,13.615-7.137  c5.287-0.961,10-3.5,13.615-7.126c3.647-3.636,6.186-8.338,7.147-13.625c0.972-5.277,3.5-10,7.137-13.625  c3.636-3.647,8.349-6.175,13.636-7.137c2.205-0.397,4.305-1.087,6.29-2.006c0.313,0.303,0.616,0.585,0.93,0.899  c37.585,37.564,87.218,61.064,140.215,64.972C448.94,236.293,482.994,249.145,511.478,272.311z"/>
<ellipse style="fill:#F2EEED;" cx="137.331" cy="97.917" rx="20.041" ry="30.438"/>
<path style="fill:#9E5B50;" d="M350.521,493.975c-16.311,6.489-33.447,11.348-51.21,14.367c-3.093,0.533-6.196,1.003-9.331,1.411  c-9.665,1.285-19.498,2.038-29.466,2.205c-18.777-25.37-29.79-54.669-33.071-84.658c-5.559-50.73-28.317-98.022-64.387-134.102  l-6.572-6.572c3.302-3.532,5.601-7.993,6.51-12.957c0.972-5.277,3.5-9.989,7.137-13.625c3.626-3.636,8.349-6.165,13.625-7.137  c0.491-0.084,0.982-0.188,1.463-0.313c5.235,9.247,12.403,18.913,22.11,28.62c48.097,48.097,64.084,116.381,88.921,159.692  C309.133,463.37,327.805,481.51,350.521,493.975z"/>
<path style="fill:#EAE1B8;" d="M185.218,252.594c-0.484,0.121-0.968,0.23-1.464,0.315c-5.275,0.968-9.992,3.496-13.622,7.138  c-3.641,3.629-6.17,8.348-7.138,13.622c-0.907,4.96-3.206,9.424-6.509,12.957l-0.158-0.157c-3.448-3.448-6.327-6.908-8.686-10.417  c-14.275-21.111-9.617-43.128,4.851-64.59c5.747-8.504,13.03-16.949,21.292-25.2C173.53,187.12,164.844,216.64,185.218,252.594z"/>
<g>
	<circle style="fill:#9E5B50;" cx="320.752" cy="303.909" r="9.98"/>
	<circle style="fill:#9E5B50;" cx="325.214" cy="471.176" r="9.98"/>
	<circle style="fill:#9E5B50;" cx="251.413" cy="296.061" r="9.98"/>
	<circle style="fill:#9E5B50;" cx="385.703" cy="460.591" r="9.98"/>
	<circle style="fill:#9E5B50;" cx="271.987" cy="378.629" r="9.98"/>
	<circle style="fill:#9E5B50;" cx="334.89" cy="381.649" r="9.98"/>
	<circle style="fill:#9E5B50;" cx="215.124" cy="289.708" r="9.98"/>
</g>
<g>
</g>
<g>
</g>
<g>
</g>
<g>
</g>
<g>
</g>
<g>
</g>
<g>
</g>
<g>
</g>
<g>
</g>
<g>
</g>
<g>
</g>
<g>
</g>
<g>
</g>
<g>
</g>
<g>
</g>
</svg>
