<?xml version="1.0" encoding="iso-8859-1"?>
<!-- Generator: Adobe Illustrator 19.0.0, SVG Export Plug-In . SVG Version: 6.00 Build 0)  -->
<svg xmlns="http://www.w3.org/2000/svg" xmlns:xlink="http://www.w3.org/1999/xlink" version="1.1" id="Capa_1" x="0px" y="0px" viewBox="0 0 512.004 512.004" style="enable-background:new 0 0 512.004 512.004;" xml:space="preserve">
<path style="fill:#665F60;" d="M511.924,262.719c-1.235,49.323-16.749,98.355-46.531,140.372  c-8.198,11.571-17.486,22.612-27.852,32.979c-2.729,2.719-5.49,5.365-8.302,7.939c-7.897,7.233-16.147,13.864-24.687,19.914  c-42.028,29.783-91.06,45.297-140.383,46.521c-7.596,0.187-15.203,0.042-22.788-0.446c-0.135-0.01-0.27-0.021-0.405-0.031  c-59.368-3.891-117.626-28.527-162.984-73.896c-99.289-99.289-99.289-260.26,0-359.549s260.26-99.289,359.549,0  c45.317,45.317,69.963,103.502,73.896,162.808C511.955,247.111,512.121,254.915,511.924,262.719z"/>
<rect x="96.826" y="124.984" transform="matrix(-0.7071 0.7071 -0.7071 -0.7071 395.3237 362.3761)" style="fill:#F9EF4A;" width="51.571" height="276.156"/>
<rect x="100.604" y="134.11" transform="matrix(-0.7071 0.7071 -0.7071 -0.7071 386.2175 384.3987)" style="fill:#DBCF48;" width="25.786" height="276.156"/>
<rect x="90.083" y="208.703" transform="matrix(-0.7071 0.7071 -0.7071 -0.7071 443.0113 510.0594)" style="fill:#F9EF4A;" width="51.571" height="276.156"/>
<rect x="93.869" y="217.831" transform="matrix(-0.7071 0.7071 -0.7071 -0.7071 433.9198 532.082)" style="fill:#DBCF48;" width="25.786" height="276.156"/>
<rect x="165.576" y="220.269" transform="matrix(-0.7071 0.7071 -0.7071 -0.7071 580.0638 476.4224)" style="fill:#F9EF4A;" width="51.571" height="276.156"/>
<rect x="169.362" y="229.387" transform="matrix(-0.7071 0.7071 -0.7071 -0.7071 570.965 498.4272)" style="fill:#DBCF48;" width="25.786" height="276.156"/>
<rect x="180.286" y="-20.727" transform="matrix(-0.7071 0.7071 -0.7071 -0.7071 434.7658 54.6165)" style="fill:#F9EF4A;" width="51.571" height="276.156"/>
<rect x="184.062" y="-11.612" transform="matrix(-0.7071 0.7071 -0.7071 -0.7071 425.6492 76.6228)" style="fill:#DBCF48;" width="25.786" height="276.156"/>
<rect x="204.668" y="94.122" transform="matrix(-0.7071 0.7071 -0.7071 -0.7071 557.5994 233.4337)" style="fill:#F9EF4A;" width="51.571" height="276.156"/>
<rect x="208.454" y="103.24" transform="matrix(-0.7071 0.7071 -0.7071 -0.7071 548.5005 255.4385)" style="fill:#DBCF48;" width="25.786" height="276.156"/>
<rect x="280.161" y="105.688" transform="matrix(-0.7071 0.7071 -0.7071 -0.7071 694.652 199.7966)" style="fill:#F9EF4A;" width="51.571" height="276.156"/>
<rect x="283.94" y="114.798" transform="matrix(-0.7071 0.7071 -0.7071 -0.7071 685.5354 221.7942)" style="fill:#DBCF48;" width="25.786" height="276.156"/>
<rect x="323.551" y="32.066" transform="matrix(-0.7071 0.7071 -0.7071 -0.7071 716.6639 43.4357)" style="fill:#F9EF4A;" width="51.571" height="276.156"/>
<rect x="327.316" y="41.188" transform="matrix(-0.7071 0.7071 -0.7071 -0.7071 707.5329 65.4627)" style="fill:#DBCF48;" width="25.786" height="276.156"/>
<rect x="327.506" y="91.282" transform="matrix(-0.7071 0.7071 -0.7071 -0.7071 765.2888 141.7271)" style="fill:#F9EF4A;" width="51.571" height="276.156"/>
<rect x="331.281" y="100.4" transform="matrix(-0.7071 0.7071 -0.7071 -0.7071 756.1705 163.7386)" style="fill:#DBCF48;" width="25.786" height="276.156"/>
<rect x="326.78" y="-17.998" transform="matrix(-0.7071 0.7071 -0.7071 -0.7071 686.7753 -44.3127)" style="fill:#F9EF4A;" width="51.571" height="276.156"/>
<rect x="330.555" y="-8.884" transform="matrix(-0.7071 0.7071 -0.7071 -0.7071 677.6569 -22.3072)" style="fill:#DBCF48;" width="25.786" height="276.156"/>
<rect x="208.958" y="146.654" transform="matrix(-0.7071 0.7071 -0.7071 -0.7071 602.0685 320.0792)" style="fill:#F9EF4A;" width="51.571" height="276.156"/>
<rect x="212.733" y="155.772" transform="matrix(-0.7071 0.7071 -0.7071 -0.7071 592.9518 342.0914)" style="fill:#DBCF48;" width="25.786" height="276.156"/>
<rect x="212.92" y="205.862" transform="matrix(-0.7071 0.7071 -0.7071 -0.7071 650.699 418.3522)" style="fill:#F9EF4A;" width="51.571" height="276.156"/>
<rect x="216.688" y="214.988" transform="matrix(-0.7071 0.7071 -0.7071 -0.7071 641.5751 440.3821)" style="fill:#DBCF48;" width="25.786" height="276.156"/>
<path style="fill:#F2B54D;" d="M511.924,262.719c-1.235,49.323-16.749,98.355-46.531,140.372  c-8.198,11.571-17.486,22.612-27.852,32.979c-2.729,2.719-5.49,5.365-8.302,7.939c-7.897,7.233-16.147,13.864-24.687,19.914  c-42.028,29.783-91.06,45.297-140.383,46.521c-7.596,0.187-15.203,0.042-22.788-0.446c-0.135-0.01-0.27-0.021-0.405-0.031  l-23.888-22.28l1.411-1.754l268.905-268.905l1.743-1.401l22.29,23.702C511.955,247.111,512.121,254.915,511.924,262.719z"/>
<path style="fill:#DBCF48;" d="M311.123,42.154L468.44,199.472l-26.65,26.65l1.788,1.788l-94.968,94.968l-6.776-6.776  l-19.622,19.622l6.776,6.776l-94.968,94.968l-6.776-6.776l-31.967,31.967L42.949,310.329l9.944-9.944l16.415,14.157  c6.047,5.231,12.36,9.96,18.87,14.212c24.862,16.203,52.837,25.402,81.18,27.693c6.871,0.58,13.756,0.721,20.642,0.47  c20.76-0.761,41.371-5.216,60.805-13.293c10.368-4.298,20.391-9.647,29.936-16.038c9.372-6.267,18.258-13.52,26.516-21.78  c7.843-7.843,14.792-16.251,20.815-25.113c6.816-9.921,12.478-20.431,16.987-31.308c10.776-25.865,15.081-53.824,12.854-81.415  c-2.29-28.422-11.505-56.428-27.763-81.314c-4.228-6.501-8.957-12.784-14.157-18.799l-14.157-16.415L311.123,42.154z"/>
<path style="fill:#F9395E;" d="M348.22,37.997l140.926,177.63l-1.749,1.404L218.494,485.936l-1.404,1.749L39.467,346.75  l29.897-29.897l16.415,14.157c6.047,5.231,12.36,9.96,18.87,14.212c24.862,16.203,52.837,25.402,81.18,27.693  c6.871,0.58,13.756,0.721,20.642,0.47c20.76-0.761,41.371-5.216,60.805-13.293c10.368-4.298,20.391-9.647,29.936-16.038  c9.372-6.267,18.258-13.52,26.516-21.78c7.843-7.843,14.792-16.251,20.815-25.113c6.816-9.921,12.478-20.431,16.987-31.308  c10.776-25.865,15.081-53.824,12.854-81.415c-2.29-28.422-11.505-56.429-27.763-81.314c-4.228-6.501-8.957-12.784-14.157-18.799  L318.308,67.91L348.22,37.997z"/>
<path style="fill:#D92F52;" d="M271.095,433.334l-52.601,52.601l-1.404,1.749L39.467,346.75l29.897-29.897l16.415,14.157  c6.047,5.231,12.36,9.96,18.87,14.212c24.862,16.203,52.837,25.402,81.18,27.693C185.828,372.913,215.756,410.684,271.095,433.334z"/>
<path style="fill:#E59F32;" d="M429.238,444.009c-7.897,7.233-16.147,13.864-24.687,19.914  c-42.028,29.783-91.06,45.297-140.383,46.521c-7.596,0.187-15.203,0.042-22.788-0.446l-24.293-22.311l1.411-1.754L271.1,433.33  C306.818,447.942,369.009,456.254,429.238,444.009z"/>
<g>
</g>
<g>
</g>
<g>
</g>
<g>
</g>
<g>
</g>
<g>
</g>
<g>
</g>
<g>
</g>
<g>
</g>
<g>
</g>
<g>
</g>
<g>
</g>
<g>
</g>
<g>
</g>
<g>
</g>
</svg>
