<?xml version="1.0" encoding="iso-8859-1"?>
<!-- Generator: Adobe Illustrator 19.0.0, SVG Export Plug-In . SVG Version: 6.00 Build 0)  -->
<svg xmlns="http://www.w3.org/2000/svg" xmlns:xlink="http://www.w3.org/1999/xlink" version="1.1" id="Capa_1" x="0px" y="0px" viewBox="0 0 512 512" style="enable-background:new 0 0 512 512;" xml:space="preserve">
<path style="fill:#B16E60;" d="M299.312,508.35C285.237,510.751,270.762,512,256,512c-14.762,0-29.236-1.249-43.32-3.657  c-1.987-0.332-3.96-0.695-5.933-1.087c-1.174-0.229-2.343-0.465-3.503-0.709c-30.803-6.45-59.567-18.441-85.198-34.866  c-2.593-1.662-5.149-3.361-7.677-5.12l-0.007-0.007C43.674,420.359,0.001,343.274,0.001,255.999C0.001,114.611,114.612,0,256,0  c81.57,0,154.222,38.147,201.102,97.573c3.421,4.337,6.709,8.792,9.842,13.343c28.423,41.236,45.055,91.219,45.055,145.082  s-16.632,103.847-45.055,145.067c-3.361,4.898-6.909,9.672-10.603,14.312C417.98,463.553,362.603,497.577,299.312,508.35z"/>
<g>
	<path style="fill:#8CC371;" d="M2.847,196.352v10.194c0,75.48,30.186,147.312,83.02,199.954   c7.703,7.662,15.869,14.916,24.498,21.721V354.77c-9.228-10.874-17.448-22.605-24.498-34.977   c-2.477-4.342-4.791-8.751-6.968-13.228C67.507,283.06,60.185,257.501,57.3,231.493c-0.912-8.288-1.374-16.617-1.374-24.947   v-12.793h54.438v-53.078H58.524C27.779,140.674,2.847,165.608,2.847,196.352z"/>
	<path style="fill:#8CC371;" d="M299.312,508.35C285.237,510.751,270.762,512,256,512c-14.762,0-29.236-1.249-43.32-3.657   c-1.987-0.332-3.96-0.695-5.933-1.087c-32.118-6.258-62.093-18.53-88.7-35.576c-2.593-1.662-5.158-3.369-7.684-5.127V110.408   c0.007-7.337,5.955-13.285,13.285-13.285l330.011-0.007c1.196,0,2.343,0.156,3.443,0.458c5.667,1.515,9.842,6.694,9.842,12.826   v0.517v290.15c-3.361,4.898-6.909,9.672-10.603,14.312C417.98,463.553,362.603,497.577,299.312,508.35z"/>
</g>
<g>
	<path style="fill:#76B25D;" d="M203.246,506.547c-30.803-6.45-59.567-18.441-85.198-34.866c-2.593-1.662-5.149-3.361-7.677-5.12   l-0.007-0.007V110.408c0.007-7.337,5.955-13.285,13.285-13.285h67.31v371.926C190.959,482.261,196.449,495.346,203.246,506.547z"/>
	<path style="fill:#76B25D;" d="M85.866,140.674v36.066c0,0-61.911-19.394-60.209,41.673c0.789,28.621,15.855,25.001,31.643,13.079   c-0.912-8.288-1.374-16.617-1.374-24.947v-12.793h29.942h8.166h16.332v-53.078H85.866z"/>
	<path style="fill:#76B25D;" d="M85.866,406.5c7.703,7.662,15.869,14.916,24.498,21.721V354.77   c-9.228-10.874-17.448-22.605-24.498-34.977V406.5z"/>
	<path style="fill:#76B25D;" d="M160.48,401.024c28.548-21.101,113.328-30.138,113.328-30.138l-9.977-115.293l-23.847-19.777   h-57.633l-23.847,19.777C158.505,255.592,131.932,422.124,160.48,401.024z"/>
</g>
<path style="fill:#514C4C;" d="M252.835,228.909h11.512V104.481c0-3.97,3.218-7.188,7.188-7.188h28.152l0,0  c0-6.357-5.153-11.512-11.512-11.512h-16.64c-10.328,0-18.701,8.373-18.701,18.701v124.427H252.835z"/>
<polygon style="fill:#FFFFFF;" points="205.932,245.619 205.932,370.889 311.252,370.889 311.252,245.619 291.383,229.146   287.411,225.842 229.773,225.842 "/>
<polygon style="fill:#52C8D3;" points="299.74,359.377 299.74,251.029 283.249,237.354 233.926,237.354 217.444,251.027   217.444,359.377 "/>
<path style="fill:#B7E2A7;" d="M418.637,276.604h-1.921c-9.811,0-17.763-7.953-17.763-17.763v-96.64  c0-9.811,7.953-17.763,17.763-17.763h1.921c9.811,0,17.763,7.953,17.763,17.763v96.64  C436.401,268.651,428.448,276.604,418.637,276.604z"/>
<g>
</g>
<g>
</g>
<g>
</g>
<g>
</g>
<g>
</g>
<g>
</g>
<g>
</g>
<g>
</g>
<g>
</g>
<g>
</g>
<g>
</g>
<g>
</g>
<g>
</g>
<g>
</g>
<g>
</g>
</svg>
