<?xml version="1.0" encoding="iso-8859-1"?>
<!-- Generator: Adobe Illustrator 19.0.0, SVG Export Plug-In . SVG Version: 6.00 Build 0)  -->
<svg xmlns="http://www.w3.org/2000/svg" xmlns:xlink="http://www.w3.org/1999/xlink" version="1.1" id="Capa_1" x="0px" y="0px" viewBox="0 0 512 512" style="enable-background:new 0 0 512 512;" xml:space="preserve">
<path style="fill:#94F3FF;" d="M510.698,281.873c-4.336,43.019-19.55,85.149-45.631,121.94  c-8.255,11.651-17.607,22.768-28.045,33.207c-10.439,10.439-21.556,19.79-33.217,28.045c-14.096,9.989-28.986,18.39-44.408,25.182  c-10.334,4.577-20.919,8.422-31.661,11.546c-15.026,4.378-30.386,7.346-45.861,8.903h-0.01c-38.484,3.887-77.678-0.92-114.407-14.43  c-33.74-12.403-65.39-32.162-92.474-59.246c-87.5-87.5-98.42-222.575-32.758-321.956c2.8-4.232,5.747-8.411,8.819-12.508  c7.22-9.613,15.193-18.829,23.939-27.575c12.476-12.476,25.924-23.395,40.093-32.758c99.381-65.662,234.445-54.743,321.945,32.758  c27.073,27.073,46.822,58.713,59.225,92.443C509.768,204.164,514.585,243.379,510.698,281.873z"/>
<path style="fill:#8CC371;" d="M510.698,281.873c-4.336,43.019-19.55,85.149-45.631,121.94  c-8.255,11.651-17.607,22.768-28.045,33.207c-10.439,10.439-21.556,19.79-33.217,28.045c-14.096,9.989-28.986,18.39-44.408,25.182  c-10.334,4.577-20.919,8.422-31.661,11.546c-15.026,4.378-30.386,7.346-45.861,8.903h-0.01c-38.484,3.887-77.678-0.92-114.407-14.43  c-19.676-11.745-38.338-26.185-55.411-43.259C24.504,365.466,6.605,236.566,61.598,142.117c-1.944-1.494-3.803-3.103-5.59-4.89  c-6.447-6.447-11.045-14.054-13.782-22.162c-6.771-20.031-2.173-43.071,13.793-59.048c15.977-15.977,39.017-20.574,59.058-13.793  c8.098,2.738,15.705,7.325,22.162,13.782c1.776,1.787,3.385,3.647,4.88,5.59c94.459-54.993,223.348-37.094,310.89,50.448  c17.074,17.074,31.493,35.715,43.238,55.38C509.768,204.164,514.585,243.379,510.698,281.873z"/>
<g>
	<path style="fill:#76B25D;" d="M327.735,501.794c-15.026,4.378-30.386,7.346-45.861,8.903h-0.01   c-38.484,3.887-77.678-0.92-114.407-14.43c-19.676-11.745-38.338-26.185-55.411-43.259   C24.504,365.466,6.605,236.566,61.598,142.117c-1.944-1.494-3.803-3.103-5.59-4.89c-6.458-6.458-11.055-14.064-13.782-22.162   c-6.666-19.717-2.32-42.34,13.04-58.274c-10.355,11.118-11.4,28.714-4.221,45.767c3.48,8.244,8.871,16.363,16.071,23.563   c1.787,1.787,3.626,3.427,5.496,4.984c-34.545,74-1.463,187.717,86.079,275.259C210.434,458.117,271.31,490.812,327.735,501.794z"/>
	<circle style="fill:#76B25D;" cx="209.827" cy="137.959" r="9.498"/>
	<circle style="fill:#76B25D;" cx="114.5" cy="176.892" r="9.498"/>
	<circle style="fill:#76B25D;" cx="275.604" cy="174.206" r="9.498"/>
	<circle style="fill:#76B25D;" cx="338.705" cy="427.961" r="9.498"/>
	<circle style="fill:#76B25D;" cx="211.112" cy="230.548" r="9.498"/>
	<circle style="fill:#76B25D;" cx="399.132" cy="246.712" r="9.498"/>
	<circle style="fill:#76B25D;" cx="338.705" cy="132.588" r="9.498"/>
	<circle style="fill:#76B25D;" cx="244.727" cy="350.085" r="9.498"/>
</g>
<ellipse transform="matrix(-0.8793 -0.4763 0.4763 -0.8793 514.5156 361.9819)" style="fill:#B7E2A7;" cx="303.129" cy="115.791" rx="61.713" ry="37.972"/>
<g>
</g>
<g>
</g>
<g>
</g>
<g>
</g>
<g>
</g>
<g>
</g>
<g>
</g>
<g>
</g>
<g>
</g>
<g>
</g>
<g>
</g>
<g>
</g>
<g>
</g>
<g>
</g>
<g>
</g>
</svg>
