<?xml version="1.0" encoding="iso-8859-1"?>
<!-- Generator: Adobe Illustrator 19.0.0, SVG Export Plug-In . SVG Version: 6.00 Build 0)  -->
<svg xmlns="http://www.w3.org/2000/svg" xmlns:xlink="http://www.w3.org/1999/xlink" version="1.1" id="Capa_1" x="0px" y="0px" viewBox="0 0 512 512" style="enable-background:new 0 0 512 512;" xml:space="preserve">
<path style="fill:#F2B54D;" d="M512,256c0,141.385-114.615,256-256,256S0,397.385,0,256C0,143.945,71.993,48.713,172.241,14.023  c5.266-1.829,10.606-3.48,16.018-4.963C209.836,3.156,232.552,0,256,0C397.385,0,512,114.615,512,256z"/>
<path style="fill:#B16E60;" d="M419.334,298.414l-11.898-75.372c-0.106-0.672-0.283-1.33-0.529-1.965l-8.956,3.462l-9.424,1.488  l11.898,75.372L419.334,298.414z"/>
<path style="fill:#EAA7F4;" d="M363.495,342.46c14.403,34.904,48.788,53.83,76.8,42.267c12.283-5.075,21.303-15.166,26.335-27.844  c6.452-16.226,6.38-36.693-1.709-56.283c-6.034-14.635-15.592-26.463-26.717-34.406c-2.84-2.031-5.781-3.804-8.798-5.31  c-13.322-6.663-28.018-8.028-41.286-2.551C360.113,269.9,349.086,307.562,363.495,342.46z"/>
<path style="fill:#D27CE2;" d="M387.636,322.329c-9.574-23.188-7.915-47.592,2.489-64.755c-0.671,0.24-1.342,0.485-2.005,0.759  c-28.007,11.568-39.034,49.229-24.625,84.128c14.403,34.904,48.788,53.83,76.8,42.267c9.397-3.883,16.876-10.707,22.129-19.374  C434.797,375.233,401.696,356.402,387.636,322.329z"/>
<path style="fill:#EAA7F4;" d="M59.834,267.714c4.035,61.187,47.114,108.166,96.222,104.923  c21.535-1.43,40.656-12.272,54.983-29.167c18.355-21.617,28.874-53.146,26.6-87.492c-1.684-25.652-10.247-48.817-23.242-66.817  c-3.315-4.601-6.92-8.857-10.779-12.74c-17.039-17.172-38.942-26.903-62.202-25.366C92.314,154.308,55.787,206.531,59.834,267.714z"/>
<path style="fill:#D27CE2;" d="M107.435,249.275c-2.689-40.652,12.538-77.341,37.461-98.347c-1.157,0.021-2.316,0.049-3.48,0.126  c-49.103,3.255-85.629,55.478-81.582,116.66c4.035,61.187,47.114,108.166,96.222,104.922c16.475-1.094,31.528-7.711,44.111-18.319  C152.526,355.171,111.375,309.007,107.435,249.275z"/>
<g>
	<path style="fill:#B16E60;" d="M455.272,246.402c-0.838,3.026-3.042,5.3-5.758,6.352c-1.859,0.72-3.969,0.859-6.037,0.278   c-0.993-0.281-13.136-3.706-33-10.733c-6.143-2.178-13.032-4.694-20.573-7.571c-17.742-6.773-39.061-15.542-62.568-26.457   c-16.059-7.451-31.905-15.343-47.291-23.568c-5.805-3.09-11.53-6.236-17.181-9.423c-0.113-0.059-0.229-0.129-0.346-0.199   c-1.242-0.697-2.474-1.397-3.695-2.102c-37.263-21.179-71.535-44.35-101.898-68.867c-0.848-0.67-1.69-1.355-2.481-2.008   c-13.638-11.116-26.548-22.566-38.674-34.305c-5.298-5.117-10.44-10.294-15.44-15.539c-1.424-1.496-2.849-2.993-4.252-4.498   c-5.011-5.369-9.867-10.798-14.546-16.269c4.856-4.121,9.863-8.083,15.016-11.897c20.243,23.574,43.713,46.256,70.019,67.698   c0.787,0.643,1.568,1.274,2.367,1.912c30.654,24.738,65.406,48.094,103.314,69.381c0.113,0.059,0.229,0.129,0.334,0.203   c20.145,11.323,41.266,22.126,62.802,32.115c64.21,29.803,112.774,43.57,113.261,43.702   C453.725,236.03,456.707,241.314,455.272,246.402z"/>
	<path style="fill:#B16E60;" d="M288.906,240.82l-11.898-75.372c-0.106-0.672-0.283-1.33-0.529-1.965l-8.956,3.462l-9.424,1.488   l11.898,75.372L288.906,240.82z"/>
</g>
<path style="fill:#EAA7F4;" d="M194.412,336.018c4.035,61.187,47.114,108.166,96.221,104.923  c21.534-1.43,40.656-12.272,54.983-29.167c18.355-21.617,28.874-53.146,26.6-87.492c-1.684-25.652-10.247-48.817-23.242-66.817  c-3.315-4.601-6.92-8.857-10.779-12.74c-17.039-17.172-38.942-26.903-62.202-25.366C226.89,222.613,190.365,274.836,194.412,336.018  z"/>
<path style="fill:#D27CE2;" d="M242.013,317.58c-2.689-40.652,12.538-77.341,37.461-98.347c-1.157,0.021-2.315,0.049-3.479,0.126  c-49.103,3.255-85.629,55.478-81.582,116.66c4.035,61.187,47.114,108.166,96.222,104.922c16.475-1.094,31.528-7.711,44.111-18.319  C287.103,423.476,245.951,377.311,242.013,317.58z"/>
<path style="fill:#76B25D;" d="M42.403,412.475c15.854-18.992,28.96-38.261,39.733-57.476l0.024-0.009  c-32.994-94.996-23.675-182.02-9.044-240.311C39.09,175.05,0.007,281.829,42.403,412.475z"/>
<path style="fill:#8CC371;" d="M126.282,445.292c86.519-184.469,10.225-342.631-17.571-390.152  c-5.553-9.496-9.162-14.571-9.162-14.571s-14.868,28.109-26.424,74.095l-0.007,0.017c-14.632,58.291-23.95,145.315,9.044,240.311  C92.397,384.528,106.741,414.842,126.282,445.292z"/>
<path style="fill:#76B25D;" d="M126.282,445.292c86.519-184.469,10.225-342.631-17.571-390.152L99.55,40.568L126.282,445.292z"/>
<g>
	
		<ellipse transform="matrix(-0.3612 -0.9325 0.9325 -0.3612 155.6643 706.4142)" style="fill:#EEC2F7;" cx="319.797" cy="299.888" rx="28.713" ry="16.27"/>
	
		<ellipse transform="matrix(-0.3612 -0.9325 0.9325 -0.3612 316.0146 799.5406)" style="fill:#EEC2F7;" cx="431.871" cy="291.527" rx="21.239" ry="12.035"/>
	
		<ellipse transform="matrix(-0.3612 -0.9325 0.9325 -0.3612 49.9672 470.6458)" style="fill:#EEC2F7;" cx="186.192" cy="218.208" rx="28.713" ry="16.27"/>
</g>
<g>
</g>
<g>
</g>
<g>
</g>
<g>
</g>
<g>
</g>
<g>
</g>
<g>
</g>
<g>
</g>
<g>
</g>
<g>
</g>
<g>
</g>
<g>
</g>
<g>
</g>
<g>
</g>
<g>
</g>
</svg>
