<?xml version="1.0" encoding="iso-8859-1"?>
<!-- Generator: Adobe Illustrator 19.0.0, SVG Export Plug-In . SVG Version: 6.00 Build 0)  -->
<svg xmlns="http://www.w3.org/2000/svg" xmlns:xlink="http://www.w3.org/1999/xlink" version="1.1" id="Capa_1" x="0px" y="0px" viewBox="0 0 512 512" style="enable-background:new 0 0 512 512;" xml:space="preserve">
<path style="fill:#94F3FF;" d="M508.52,300.472c-1.014,6.104-2.255,12.167-3.725,18.188c-7.377,30.407-20.475,59.717-39.263,86.223  c-8.173,11.536-17.433,22.544-27.769,32.879c-6.156,6.156-12.55,11.929-19.161,17.329c-4.48,3.652-9.063,7.139-13.729,10.439  c-6.239,4.428-12.643,8.535-19.171,12.312c-2.276,1.324-4.563,2.607-6.87,3.838c-10.108,5.463-20.506,10.191-31.131,14.174h-0.01  c-9.518,3.58-19.202,6.549-29,8.939c-0.01,0-0.021,0-0.021,0c-6.011,1.469-12.084,2.711-18.178,3.725c-0.01,0-0.01,0-0.021,0  c-78.019,13.026-160.973-10.553-221.176-70.756C24.846,383.312,0.347,310.249,5.799,239.058v-0.01  c0.321-4.128,0.735-8.235,1.252-12.343c6.777-53.892,30.862-106.025,72.246-147.409S172.814,13.827,226.706,7.05  c4.107-0.517,8.225-0.931,12.353-1.252c71.191-5.452,144.254,19.047,198.705,73.498C497.967,139.489,521.556,222.453,508.52,300.472  z"/>
<path style="fill:#F9EF4A;" d="M508.52,300.472c-1.014,6.104-2.255,12.167-3.725,18.188c-7.377,30.407-20.475,59.717-39.263,86.223  c-8.173,11.536-17.433,22.544-27.769,32.879c-10.336,10.336-21.344,19.595-32.89,27.769c-6.239,4.428-12.643,8.535-19.171,12.312  c-21.178,12.312-43.784,21.292-67.011,26.951c-0.01,0-0.021,0-0.021,0c-6.021,1.469-12.094,2.711-18.199,3.725L20.728,252.715  L5.799,239.058l-5.794-5.307L233.752,0.004l5.307,5.794l13.646,14.929L508.52,300.472z"/>
<path style="fill:#DBCF48;" d="M378.833,481.681c-19.171,10.367-39.408,18.064-60.141,23.113c-0.01,0-0.021,0-0.021,0  c-6.011,1.469-12.084,2.711-18.178,3.725L20.728,252.705L5.799,239.058v-0.01l-5.794-5.297l7.046-7.046l51.388-51.399l20.299,19.399  L378.833,481.681z"/>
<polygon style="fill:#F2EEED;" points="233.756,1.034 252.717,21.764 20.73,253.751 0,234.79 "/>
<polygon style="fill:#DBF7FF;" points="78.745,194.701 20.743,252.704 0.011,233.744 58.453,175.302 "/>
<polygon style="fill:#E6E2E0;" points="78.745,195.736 20.734,253.746 0.004,234.785 58.453,176.337 "/>
<path style="fill:#F9CA63;" d="M340.296,283.437c2.013-1.737,3.969-3.547,5.876-5.454c41.688-41.688,41.68-109.276-0.008-150.964  s-109.268-41.688-150.956,0s-41.696,109.276-0.008,150.964c19.237,19.237,44.001,29.602,69.188,31.071L340.296,283.437z"/>
<circle style="fill:#FFBA14;" cx="270.681" cy="202.502" r="75.482"/>
<g>
	<path style="fill:#F7E28C;" d="M328.927,260.745c-32.116,32.116-84.372,32.116-116.488,0s-32.116-84.372,0-116.488   s84.372-32.116,116.488,0S361.043,228.63,328.927,260.745z M222.18,153.998c-26.745,26.745-26.745,70.263,0,97.008   c26.745,26.745,70.264,26.745,97.008,0c26.745-26.745,26.745-70.263,0-97.008S248.924,127.253,222.18,153.998z"/>
	
		<rect x="263.789" y="127.023" transform="matrix(-0.7071 0.7071 -0.7071 -0.7071 605.267 154.3027)" style="fill:#F7E28C;" width="13.774" height="150.967"/>
	<rect x="263.791" y="127.018" style="fill:#F7E28C;" width="13.774" height="150.968"/>
	
		<rect x="195.193" y="195.615" transform="matrix(-0.7071 0.7071 -0.7071 -0.7071 605.2639 154.2952)" style="fill:#F7E28C;" width="150.967" height="13.774"/>
	<rect x="195.197" y="195.611" style="fill:#F7E28C;" width="150.968" height="13.774"/>
</g>
<path style="fill:#F7E9B4;" d="M413.133,271.895c-2.492,2.492-6.361,3.204-9.578,1.781c-3.493-1.545-5.597-5.351-5.032-9.131  c1.167-7.814,11.833-9.955,15.898-3.16C416.419,264.727,415.894,269.134,413.133,271.895z"/>
<path style="fill:#F7E28C;" d="M152.584,313.291c-5.583,5.583-15.457,0.927-14.649-6.928c0.392-3.816,3.323-6.97,7.097-7.638  c3.452-0.611,7.056,1.045,8.854,4.055C155.889,306.131,155.345,310.529,152.584,313.291z"/>
<g>
	<path style="fill:#F7E9B4;" d="M130.067,232.333c-2.55,2.55-6.515,3.218-9.766,1.686c-3.389-1.595-5.386-5.34-4.835-9.041   c0.564-3.785,3.665-6.797,7.456-7.272c3.542-0.444,7.075,1.425,8.705,4.602C133.316,225.597,132.686,229.716,130.067,232.333z"/>
	<path style="fill:#F7E9B4;" d="M472.777,350.026c-2.546,2.546-6.512,3.236-9.769,1.698c-3.492-1.649-5.501-5.581-4.779-9.376   c1.387-7.288,11.224-9.492,15.495-3.359C476.088,342.382,475.707,347.096,472.777,350.026z"/>
</g>
<path style="fill:#F9CA63;" d="M418.603,455.092c-4.48,3.652-9.063,7.139-13.729,10.439c-6.239,4.428-12.643,8.535-19.171,12.312  c-2.276,1.324-4.563,2.607-6.87,3.838c-10.108,5.463-20.516,10.191-31.141,14.174c-31.679,4.076-64.838-6.052-89.172-30.386  c-32.362-32.352-39.615-80.305-21.737-119.641c5.152-11.35,12.394-21.985,21.727-31.317c41.684-41.694,109.284-41.694,150.968,0  C447.872,352.895,450.903,413.233,418.603,455.092z"/>
<path style="fill:#FFBA14;" d="M387.365,336.616c-29.478-29.478-77.271-29.478-106.748-0.001  c-29.479,29.479-29.478,77.271,0,106.749s77.27,29.479,106.749,0C416.843,413.886,416.843,366.093,387.365,336.616L387.365,336.616z  "/>
<g>
	<path style="fill:#F7E28C;" d="M392.235,448.233c-32.116,32.116-84.373,32.116-116.488,0.001s-32.116-84.372,0.001-116.488   c32.116-32.115,84.372-32.115,116.487,0S424.351,416.118,392.235,448.233L392.235,448.233z M285.488,341.485   c-26.745,26.745-26.745,70.263,0,97.008c26.745,26.745,70.263,26.745,97.008,0c26.744-26.744,26.745-70.263,0-97.008   S312.232,314.741,285.488,341.485L285.488,341.485z"/>
	
		<rect x="327.104" y="314.508" transform="matrix(-0.7071 0.7071 -0.7071 -0.7071 845.9237 429.5905)" style="fill:#F7E28C;" width="13.774" height="150.967"/>
	<polygon style="fill:#F7E28C;" points="340.878,465.472 327.104,465.471 327.105,314.506 340.879,314.507  "/>
	<polygon style="fill:#F7E28C;" points="392.235,341.486 285.488,448.234 275.747,438.493 382.494,331.746  "/>
	<polygon style="fill:#F7E28C;" points="409.475,396.876 258.509,396.877 258.508,383.103 409.474,383.102  "/>
</g>
<path style="fill:#EAB856;" d="M378.833,481.681c-10.108,5.463-20.506,10.191-31.131,14.174h-0.01  c-31.679,4.076-64.838-6.052-89.172-30.386c-32.362-32.352-39.615-80.305-21.737-119.641l19.037,18.219  c-9.446,28.627-2.804,61.455,19.926,84.185c23.661,23.661,58.248,29.889,87.661,18.695L378.833,481.681z"/>
<path style="fill:#E59F32;" d="M340.878,445.382v12.828c3.789-0.379,7.548-1.071,11.243-2.076L340.878,445.382L340.878,445.382z   M314.023,419.699l-23.422,23.422c10.701,8.753,23.45,13.782,36.504,15.088v-25.999L314.023,419.699L314.023,419.699z   M265.771,396.877c1.306,13.055,6.336,25.803,15.088,36.504l23.205-23.205l-13.907-13.3L265.771,396.877L265.771,396.877z   M267.109,374.836c-0.615,2.731-1.06,5.492-1.338,8.267h9.983L267.109,374.836L267.109,374.836z"/>
<path style="fill:#EAD580;" d="M352.121,456.132c-3.695,1.006-7.454,1.698-11.243,2.076v-12.828l-13.774-13.172v25.999  c-13.055-1.306-25.803-6.336-36.504-15.088l23.422-23.422l-9.958-9.523l-23.205,23.205c-8.753-10.701-13.782-23.45-15.088-36.504  h24.385l-14.404-13.774h-9.983c0.277-2.776,0.723-5.536,1.338-8.267l-11.285-10.792c-9.453,28.631-2.811,61.457,19.923,84.191  c23.657,23.657,58.245,29.887,87.659,18.691L352.121,456.132z"/>
<g>
</g>
<g>
</g>
<g>
</g>
<g>
</g>
<g>
</g>
<g>
</g>
<g>
</g>
<g>
</g>
<g>
</g>
<g>
</g>
<g>
</g>
<g>
</g>
<g>
</g>
<g>
</g>
<g>
</g>
</svg>
