<?xml version="1.0" encoding="iso-8859-1"?>
<!-- Generator: Adobe Illustrator 19.0.0, SVG Export Plug-In . SVG Version: 6.00 Build 0)  -->
<svg xmlns="http://www.w3.org/2000/svg" xmlns:xlink="http://www.w3.org/1999/xlink" version="1.1" id="Capa_1" x="0px" y="0px" viewBox="0 0 511.999 511.999" style="enable-background:new 0 0 511.999 511.999;" xml:space="preserve">
<path style="fill:#EAA7F4;" d="M510.829,280.45c-4.141,43.289-19.329,85.714-45.556,122.718c-8.219,11.6-17.53,22.669-27.923,33.062  c-10.393,10.393-21.462,19.704-33.072,27.923c-10.663,7.563-21.774,14.201-33.228,19.912c-9.977,4.994-20.224,9.29-30.659,12.879  c-23.512,8.115-47.97,12.682-72.553,13.712h-0.01c-23.657,0.988-47.419-1.3-70.566-6.877h-0.01  c-44.11-10.601-85.922-33.114-120.357-67.549c-99.54-99.54-99.54-260.917,0-360.457s260.917-99.54,360.457,0  c38.555,38.545,62.171,86.359,70.858,136.274C512.14,234.644,513.014,257.667,510.829,280.45z"/>
<path style="fill:#76B25D;" d="M85.132,236.12l-24.087,6.1l6.1,24.087c13.964,55.141,69.985,88.521,125.126,74.558l24.087-6.1  l-6.1-24.087C196.295,255.536,140.273,222.156,85.132,236.12z"/>
<path style="fill:#8CC371;" d="M48.782,305.022l-18.892,16.14l16.14,18.892c36.949,43.248,101.961,48.354,145.207,11.405  l18.892-16.14l-16.14-18.892C157.041,273.179,92.029,268.073,48.782,305.022z"/>
<path style="fill:#B16E60;" d="M508.207,212.048c-0.791-0.811-1.592-1.633-2.403-2.445c-17.987-17.987-38.378-32.063-60.152-42.29  c-7.896-28.1-22.877-54.618-44.932-76.673c-67.872-67.872-177.763-68.673-246.644-2.445l-34.394-34.394l-71.211,71.211  l99.633,99.633c13.805,13.805,18.154,34.633,10.549,52.61C127.1,351.89,139.948,440.829,197.25,503.78h0.01  c23.148,5.576,46.909,7.865,70.566,6.877h0.01c24.583-1.03,49.042-5.597,72.553-13.712c10.435-3.589,20.682-7.886,30.659-12.879  c11.454-5.711,22.565-12.349,33.228-19.912c11.61-8.219,22.679-17.53,33.072-27.923c10.393-10.393,19.704-21.462,27.923-33.062  c26.227-37.005,41.416-79.43,45.556-122.718C513.014,257.667,512.14,234.644,508.207,212.048z M271.936,163.974  c-17.977,7.605-38.815,3.267-52.62-10.539l-36.62-36.62c53.172-50.519,137.231-49.739,189.404,2.434  c9.644,9.644,17.53,20.38,23.668,31.814l0.062,0.031C354.487,143.073,311.229,147.37,271.936,163.974z"/>
<path style="fill:#9E5B50;" d="M340.39,496.945c-23.512,8.115-47.97,12.682-72.553,13.712h-0.01  c-23.657,0.988-47.419-1.3-70.566-6.877c-57.312-62.941-70.171-151.879-38.617-226.513c7.605-17.987,3.256-38.805-10.549-52.61  L48.45,125.013l15.241-15.241l99.644,99.644c13.805,13.805,21.67,31.096,19.558,43.611c-9.176,53.952,22.679,130.355,85.911,193.586  C295.114,472.924,318.793,488.903,340.39,496.945z"/>
<rect x="10.012" y="57.992" transform="matrix(-0.7071 0.7071 -0.7071 -0.7071 175.3295 80.1562)" style="fill:#B16E60;" width="122.103" height="36.796"/>
<rect x="24.197" y="92.239" transform="matrix(-0.7071 0.7071 -0.7071 -0.7071 141.0924 162.8325)" style="fill:#9E5B50;" width="25.252" height="36.796"/>
<path style="fill:#B16E60;" d="M113.27,21.86l-96.738,96.738c-3.782,3.782-9.914,3.782-13.696,0c-3.782-3.782-3.782-9.914,0-13.696  L99.574,8.164c3.782-3.782,9.914-3.782,13.696,0C117.053,11.947,117.053,18.079,113.27,21.86z"/>
<path style="fill:#9E5B50;" d="M29.942,91.493c-3.782-3.782-3.782-9.914,0-13.696L2.836,104.902c-3.782,3.782-3.782,9.914,0,13.696  c3.782,3.782,9.914,3.782,13.696,0l27.106-27.106C39.857,95.275,33.724,95.275,29.942,91.493z"/>
<g>
</g>
<g>
</g>
<g>
</g>
<g>
</g>
<g>
</g>
<g>
</g>
<g>
</g>
<g>
</g>
<g>
</g>
<g>
</g>
<g>
</g>
<g>
</g>
<g>
</g>
<g>
</g>
<g>
</g>
</svg>
