<?xml version="1.0" encoding="iso-8859-1"?>
<!-- Generator: Adobe Illustrator 19.0.0, SVG Export Plug-In . SVG Version: 6.00 Build 0)  -->
<svg xmlns="http://www.w3.org/2000/svg" xmlns:xlink="http://www.w3.org/1999/xlink" version="1.1" id="Capa_1" x="0px" y="0px" viewBox="0 0 512 512" style="enable-background:new 0 0 512 512;" xml:space="preserve">
<path style="fill:#F9395E;" d="M0,256c0,138.219,109.547,250.859,246.554,255.822c3.135,0.125,6.28,0.178,9.446,0.178  c23.312,0,45.892-3.114,67.354-8.955C432.065,473.475,512,374.073,512,256C512,114.615,397.385,0,256,0S0,114.615,0,256z"/>
<path style="fill:#F2EEED;" d="M95.876,1.669L95.876,1.669l330.05,330.049L309.561,448.081L146.654,285.174  C69.41,207.931,48.745,92.543,95.876,1.669z"/>
<path style="fill:#FFFFFF;" d="M95.876,0.624L95.876,0.624l6.846,6.846c-32.149,86.358-8.767,188.497,61.664,258.927  l162.908,162.908l-17.732,17.732L146.654,284.129C69.41,206.886,48.745,91.499,95.876,0.624z"/>
<path style="fill:#665F60;" d="M371.623,384.982l58.592,58.592c2.305-2.128,4.566-4.315,6.804-6.554  c16.484-16.484,30.249-34.652,41.294-53.959l-52.385-52.385L371.623,384.982z"/>
<path style="fill:#CCC9C7;" d="M321.752,258.575L321.752,258.575l46.546,46.546l0,0c-8.569,8.569-22.461,8.569-31.03,0  l-15.516-15.516C313.183,281.036,313.183,267.144,321.752,258.575z"/>
<circle style="fill:#F2E3E3;" cx="432.577" cy="386.09" r="10.97"/>
<g>
</g>
<g>
</g>
<g>
</g>
<g>
</g>
<g>
</g>
<g>
</g>
<g>
</g>
<g>
</g>
<g>
</g>
<g>
</g>
<g>
</g>
<g>
</g>
<g>
</g>
<g>
</g>
<g>
</g>
</svg>
