<?xml version="1.0" encoding="iso-8859-1"?>
<!-- Generator: Adobe Illustrator 19.0.0, SVG Export Plug-In . SVG Version: 6.00 Build 0)  -->
<svg xmlns="http://www.w3.org/2000/svg" xmlns:xlink="http://www.w3.org/1999/xlink" version="1.1" id="Capa_1" x="0px" y="0px" viewBox="0 0 512 512" style="enable-background:new 0 0 512 512;" xml:space="preserve">
<path style="fill:#F9EF4A;" d="M512,256c0,35.892-7.387,70.05-20.71,101.051c-2.497,5.799-5.193,11.483-8.098,17.053  c-13.866,26.603-32.256,50.468-54.157,70.551c-1.714,1.588-3.459,3.145-5.224,4.671c-21.974,19.101-47.24,34.502-74.825,45.265  c-6.248,2.435-12.612,4.639-19.08,6.583c-23.406,7.043-48.211,10.825-73.905,10.825C114.617,511.998,0.003,397.384,0.003,256  S114.617,0.002,256.002,0.002S512,114.616,512,256z"/>
<g>
	<path style="fill:#3EB4BF;" d="M367.976,276.413c41.786-57.972,36.604-139.309-15.561-191.473   C313.114,45.638,257.241,33,207.288,47.037L367.976,276.413z"/>
	<path style="fill:#3EB4BF;" d="M491.29,357.052c-2.497,5.799-5.193,11.483-8.098,17.053   c-13.866,26.603-32.256,50.468-54.157,70.551c-1.714,1.588-3.459,3.145-5.224,4.671c-21.974,19.101-47.24,34.502-74.825,45.265   c-6.248,2.435-12.612,4.639-19.08,6.583c-3.793-13.207-5.935-28.243-5.935-44.209c0-30.02,7.575-56.779,19.393-74.166v-0.01   c1.223-1.808,2.508-3.521,3.824-5.12c0.073-0.105,0.167-0.199,0.24-0.303c1.066-1.296,2.184-2.56,3.417-3.783   c1.233-1.243,2.497-2.361,3.783-3.417c1.682-1.411,3.5-2.769,5.433-4.065h0.01c17.387-11.818,44.147-19.383,74.166-19.383   C455.66,346.718,475.418,350.563,491.29,357.052z"/>
	<path style="fill:#3EB4BF;" d="M244.189,389.821l-9.524,35.098c-5.607,20.664-34.255,22.727-42.579,3   c-6.105-14.47-10.713-32.175-10.713-52.658L244.189,389.821z"/>
</g>
<path style="fill:#52C8D3;" d="M356.38,379.11c-94.3,29.317-201.276,6.651-275.95-68.035C17.051,247.695-8.875,161.05,2.667,78.63  l31.351,40.31c9.572-53.912-21.622-83.815-21.622-83.815c94.3-29.317,201.276-6.638,275.95,68.036  C363.032,177.834,385.697,284.81,356.38,379.11z"/>
<g>
	<path style="fill:#3EB4BF;" d="M356.38,379.11c-94.3,29.317-201.276,6.651-275.95-68.035C17.051,247.695-8.875,161.05,2.667,78.63   l8.268,10.629C87.421,346.534,356.38,379.11,356.38,379.11z"/>
	<path style="fill:#3EB4BF;" d="M208.742,47.697c-2.256,35.563-14.124,70.63-35.629,100.965c-6.351,8.999-13.55,17.553-21.596,25.6   c-8.033,8.047-16.601,15.245-25.6,21.596c-14.945,10.603-31.037,18.845-47.783,24.765c-17.227,6.091-35.132,9.703-53.168,10.85   C2.888,183.35-4.545,130.155,2.667,78.63l31.351,40.31c9.572-53.912-21.622-83.815-21.622-83.815   C76.701,15.133,146.914,19.319,208.742,47.697z"/>
</g>
<path style="fill:#2C9CAA;" d="M78.135,220.622c-17.227,6.091-35.132,9.703-53.168,10.85C2.888,183.35-4.545,130.155,2.667,78.63  l8.255,10.603v0.013C26.571,141.905,50.305,185.15,78.135,220.622z"/>
<path style="fill:#3EB4BF;" d="M188.799,164.336c-6.354,8.991-13.555,17.557-21.597,25.599  c-8.041,8.041-16.608,15.243-25.599,21.597c1.863,26.669,12.993,52.811,33.391,73.209c31.252,31.252,76.022,40.74,115.49,28.475  c12.273-39.477,2.785-84.248-28.467-115.499C241.62,177.32,215.477,166.19,188.799,164.336z"/>
<circle style="fill:#FFFFFF;" cx="106.767" cy="88.765" r="27.949"/>
<path style="fill:#4D4848;" d="M97.8,97.743c3.755,3.755,9.616,4.757,14.414,2.498c4.798-2.259,7.74-7.456,7.213-12.733  c-0.527-5.279-4.407-9.775-9.551-11.066c-5.14-1.29-10.717,0.843-13.657,5.262C92.908,86.683,93.567,93.51,97.8,97.743z"/>
<g>
</g>
<g>
</g>
<g>
</g>
<g>
</g>
<g>
</g>
<g>
</g>
<g>
</g>
<g>
</g>
<g>
</g>
<g>
</g>
<g>
</g>
<g>
</g>
<g>
</g>
<g>
</g>
<g>
</g>
</svg>
