<?xml version="1.0" encoding="iso-8859-1"?>
<!-- Generator: Adobe Illustrator 19.0.0, SVG Export Plug-In . SVG Version: 6.00 Build 0)  -->
<svg xmlns="http://www.w3.org/2000/svg" xmlns:xlink="http://www.w3.org/1999/xlink" version="1.1" id="Capa_1" x="0px" y="0px" viewBox="0 0 512 512" style="enable-background:new 0 0 512 512;" xml:space="preserve">
<path style="fill:#F9EF4A;" d="M511.178,276.533c-2.915,36.478-13.615,72.444-32.11,105.201c-1.546,2.748-3.156,5.475-4.817,8.182  c-4.159,6.792-8.683,13.427-13.552,19.874c-0.826,1.097-1.661,2.184-2.508,3.271c-4.953,6.363-10.251,12.549-15.893,18.526  c-0.794,0.857-1.609,1.703-2.435,2.55c-0.94,0.961-1.881,1.923-2.842,2.884c-0.961,0.961-1.923,1.912-2.884,2.842  c-6.771,6.562-13.814,12.675-21.086,18.338c-1.087,0.846-2.173,1.682-3.271,2.508c-6.447,4.859-13.082,9.383-19.874,13.542  c-2.706,1.661-5.434,3.271-8.192,4.827c-32.747,18.484-68.713,29.184-105.181,32.1c-13.093,1.045-26.259,1.097-39.351,0.136  c-59.11-4.326-117.009-29.101-162.201-74.293c-13.229-13.229-24.712-27.544-34.44-42.664c-14.702-22.852-25.412-47.533-32.11-73.05  c-22.382-85.15-0.199-179.578,66.55-246.327s161.177-88.932,246.327-66.55c25.517,6.698,50.208,17.408,73.07,32.12  c15.109,9.728,29.425,21.212,42.643,34.43c45.192,45.192,69.967,103.091,74.293,162.201  C512.275,250.275,512.223,263.441,511.178,276.533z"/>
<path style="fill:#8CC371;" d="M118.216,26.341l-6.054-6.054l-91.88,91.88l6.054,6.054c17.698,17.698,28.637,40.804,31.295,65.341  c1.363,12.574,7.159,24.254,16.103,33.198l87.28,87.28l143.022-143.022l-87.28-87.28c-8.943-8.943-20.623-14.741-33.198-16.103  C159.02,54.978,135.914,44.038,118.216,26.341z"/>
<path style="fill:#76B25D;" d="M183.743,116.589c-11.852,11.852-23.178,19.902-33.567,25.283  c-24.552,12.714-54.835,1.541-65.6-23.926c-5.412-12.804-13.281-24.592-23.327-34.638l-6.054-6.054l-34.914,34.914l6.054,6.054  c17.698,17.698,28.637,40.804,31.295,65.341c1.363,12.574,7.159,24.254,16.103,33.198l87.28,87.28l34.915-34.915l-61.627-61.627  L183.743,116.589z"/>
<path style="fill:#D92F52;" d="M409.78,460.709c-6.447,4.859-13.082,9.383-19.874,13.542c-34.9,21.462-73.844,33.771-113.373,36.927  c-13.093,1.045-26.259,1.097-39.351,0.136L65.901,413.907c-9.592-5.454-18.066-12.058-25.36-19.55  c-19.456-19.937-30.543-46.08-32.11-73.05c-1.484-25.339,5.444-51.41,21.745-73.739c10.972-15.026,24.869-26.541,40.281-34.377  c10.804-5.496,22.34-9.195,34.158-11.034c7.628-1.191,15.36-1.62,23.092-1.254c25.673,1.202,51.18,11.034,71.785,29.999  l18.046,16.625l164.584,151.491C400,415.475,409.404,437.94,409.78,460.709z"/>
<path style="fill:#FF5B6E;" d="M511.178,276.533c-2.915,36.478-13.615,72.444-32.11,105.201c-1.546,2.748-3.156,5.475-4.817,8.182  c-4.159,6.792-8.683,13.427-13.552,19.874c-21.64-0.355-42.998-8.882-59.194-25.078c-0.846-0.846-1.672-1.703-2.487-2.591  L247.527,217.538l-16.624-18.046c-24.66-26.791-33.918-61.88-28.745-94.867c1.829-11.828,5.528-23.375,11.034-34.169  c7.837-15.412,19.352-29.31,34.377-40.281c22.33-16.301,48.39-23.228,73.739-21.745c26.969,1.567,53.123,12.664,73.07,32.12  c7.482,7.293,14.085,15.768,19.54,25.349l97.396,171.281C512.275,250.275,512.223,263.441,511.178,276.533z"/>
<path style="fill:#F9395E;" d="M479.068,381.735c-1.546,2.748-3.156,5.475-4.817,8.182c-4.159,6.792-8.683,13.427-13.552,19.874  c-0.826,1.097-1.661,2.184-2.508,3.271c-4.953,6.363-10.251,12.549-15.893,18.526c-0.794,0.857-1.609,1.703-2.435,2.55  c-0.94,0.961-1.881,1.923-2.842,2.884c-0.961,0.961-1.923,1.912-2.884,2.842c-6.771,6.562-13.814,12.675-21.086,18.338  c-1.087,0.846-2.173,1.682-3.271,2.508c-6.447,4.859-13.082,9.383-19.874,13.542c-2.706,1.661-5.434,3.271-8.192,4.827  c-14.503-2.132-28.63-8.025-40.835-17.732L146.62,306.825c-18.61-14.785-31.253-34.085-37.805-54.994  c-5.036-16.039-6.458-33.05-4.201-49.675c0.899-6.708,2.403-13.343,4.514-19.832c5.35-16.53,14.608-32.12,27.847-45.349  c18.422-18.432,41.42-29.143,65.181-32.35c16.635-2.267,33.636-0.836,49.696,4.211c20.898,6.541,40.187,19.195,54.973,37.784  l154.521,194.259C471.053,353.094,476.957,367.221,479.068,381.735z"/>
<ellipse transform="matrix(-0.7071 -0.7071 0.7071 -0.7071 299.2402 444.4146)" style="fill:#FF5B6E;" cx="241.661" cy="160.233" rx="37.394" ry="24.336"/>
<g>
</g>
<g>
</g>
<g>
</g>
<g>
</g>
<g>
</g>
<g>
</g>
<g>
</g>
<g>
</g>
<g>
</g>
<g>
</g>
<g>
</g>
<g>
</g>
<g>
</g>
<g>
</g>
<g>
</g>
</svg>
