<?xml version="1.0" encoding="iso-8859-1"?>
<!-- Generator: Adobe Illustrator 19.0.0, SVG Export Plug-In . SVG Version: 6.00 Build 0)  -->
<svg xmlns="http://www.w3.org/2000/svg" xmlns:xlink="http://www.w3.org/1999/xlink" version="1.1" id="Capa_1" x="0px" y="0px" viewBox="0 0 511.999 511.999" style="enable-background:new 0 0 511.999 511.999;" xml:space="preserve">
<path style="fill:#94F3FF;" d="M437.021,74.981c16.122,16.122,29.643,33.855,40.563,52.681  c21.789,37.571,33.234,79.502,34.327,121.646c0.695,26.717-2.771,53.53-10.396,79.376c-6.45,21.877-15.893,43.068-28.313,62.921  c-2.586,4.123-5.298,8.194-8.142,12.206c-4.109,5.808-8.497,11.481-13.158,17.002c-4.677,5.563-9.642,10.971-14.88,16.211  c-2.623,2.623-5.298,5.18-8.002,7.677c-2.704,2.468-5.438,4.877-8.209,7.204c-5.526,4.67-11.194,9.051-17.009,13.167  c-4.012,2.844-8.083,5.556-12.221,8.127c-19.853,12.435-41.044,21.863-62.928,28.32c-25.831,7.625-52.636,11.083-79.346,10.396  c-42.16-1.094-84.097-12.546-121.682-34.349c-18.811-10.92-36.536-24.434-52.643-40.541c-99.975-99.975-99.975-262.066,0-362.041  S337.047-24.994,437.021,74.981z"/>
<path style="fill:#B16E60;" d="M167.147,194.139c-0.858-0.157-1.707-0.43-2.531-0.831c-0.897-0.436-22.165-10.982-41.722-37.766  C105.163,131.259,85.3,88.214,91.377,21.055c0.488-5.391,5.253-9.364,10.642-8.876c5.395,0.488,9.364,5.253,8.876,10.642  c-4.393,48.542,4.751,89.006,27.177,120.266c16.688,23.263,34.972,32.525,35.155,32.615c4.832,2.402,6.832,8.267,4.45,13.109  C175.701,192.833,171.346,194.905,167.147,194.139z"/>
<path style="fill:#8CC371;" d="M471.341,121.196c2.127,2.127,4.211,4.285,6.243,6.465c21.789,37.571,33.234,79.502,34.327,121.646  c0.695,26.717-2.771,53.53-10.396,79.376c-6.45,21.877-15.893,43.068-28.313,62.921c-2.586,4.123-5.298,8.194-8.142,12.206  c-4.109,5.808-8.497,11.481-13.158,17.002c-4.677,5.563-9.642,10.971-14.88,16.211c-2.623,2.623-5.298,5.18-8.002,7.677  c-2.704,2.468-5.438,4.877-8.209,7.204c-5.526,4.67-11.194,9.051-17.009,13.167c-4.012,2.844-8.083,5.556-12.221,8.127  c-19.853,12.435-41.044,21.863-62.928,28.32c-25.831,7.625-52.636,11.083-79.346,10.396c-42.16-1.094-84.097-12.546-121.682-34.349  c-2.172-2.025-4.314-4.094-6.436-6.214c-96.044-96.044-96.687-251.375-1.921-348.209c0.628-0.657,1.271-1.301,1.921-1.951  c0.65-0.65,1.293-1.293,1.951-1.921C219.967,24.509,375.298,25.152,471.341,121.196z"/>
<path style="fill:#76B25D;" d="M429.019,444.699c-2.704,2.468-5.438,4.877-8.209,7.204c-5.526,4.67-11.194,9.051-17.009,13.167  c-4.012,2.844-8.083,5.556-12.221,8.127c-19.853,12.435-41.044,21.863-62.928,28.32c-25.831,7.625-52.636,11.083-79.346,10.396  c-42.16-1.094-84.097-12.546-121.682-34.349c-2.172-2.025-4.314-4.094-6.436-6.214c-96.044-96.044-96.687-251.375-1.921-348.209  c0.628-0.657,1.271-1.301,1.921-1.951c0.111-0.111,0.229-0.214,0.347-0.318c1.359-1.241,2.69-1.699,3.989-1.537  c5.526,0.679,10.573,12.39,15.951,22.144c4.093,7.448,8.379,13.757,13.211,13.211c0.902-0.089,1.818-0.428,2.749-1.034  c-0.503,0.768-0.991,1.537-1.485,2.298c-4.463,6.975-8.512,13.788-12.147,20.452c-7.773,14.216-13.676,27.759-17.748,40.83  c-19.913,64.022,4.071,116.762,68.278,180.969c66.549,66.549,106.95,87.282,168.408,62.204c12.487-5.083,25.83-12.058,40.452-20.932  c4.396-2.682,8.918-5.519,13.565-8.541C413.732,435.603,419.843,440.207,429.019,444.699z"/>
<path style="fill:#0D842B;" d="M446.072,146.465c30.574,30.574,52.614,66.032,65.84,102.842c0.694,26.717-2.77,53.53-10.396,79.376  c-6.45,21.877-15.892,43.068-28.313,62.921c-2.586,4.123-5.298,8.193-8.142,12.206c-4.108,5.808-8.497,11.482-13.16,17.002  c-4.677,5.563-9.642,10.971-14.88,16.211c-2.623,2.623-5.298,5.18-8.002,7.677c-2.704,2.468-5.438,4.877-8.209,7.204  c-5.526,4.669-11.194,9.051-17.009,13.167c-4.011,2.844-8.082,5.556-12.221,8.127c-19.853,12.435-41.043,21.863-62.928,28.321  c-25.83,7.625-52.636,11.082-79.346,10.396c-36.81-13.225-72.268-35.267-102.842-65.84  C50.525,350.132,38.637,206.195,119.268,123.14c0.141-0.141,0.265-0.281,0.414-0.414c0.503-0.517,0.999-1.028,1.508-1.537  c0.51-0.51,1.02-1.005,1.537-1.508c0.133-0.147,0.273-0.273,0.414-0.414C206.187,38.644,350.131,50.525,446.072,146.465"/>
<path style="fill:#8CC371;" d="M413.946,178.592c45.868,45.868,75.764,99.48,87.57,150.091  c-6.45,21.877-15.892,43.068-28.313,62.921c-2.586,4.123-5.298,8.193-8.142,12.206c-4.108,5.808-8.497,11.482-13.16,17.002  c-4.677,5.563-9.642,10.971-14.88,16.211c-2.623,2.623-5.298,5.18-8.002,7.677c-2.704,2.468-5.438,4.877-8.209,7.204  c-5.526,4.669-11.194,9.051-17.009,13.167c-4.011,2.844-8.082,5.556-12.221,8.127c-19.853,12.435-41.043,21.863-62.928,28.321  c-50.605-11.815-104.208-41.701-150.07-87.562C82.642,318.015,56.598,188.233,119.68,122.727c0.503-0.517,0.999-1.028,1.508-1.537  c0.51-0.51,1.02-1.005,1.537-1.508C188.225,56.604,318.005,82.651,413.946,178.592"/>
<path style="fill:#76B25D;" d="M121.188,121.189l315.833,315.833c-2.623,2.623-5.298,5.18-8.002,7.677  c-2.704,2.468-5.438,4.877-8.209,7.204c-5.526,4.67-11.194,9.051-17.009,13.167c-4.012,2.844-8.083,5.556-12.221,8.127  c-19.853,12.435-41.044,21.863-62.928,28.32c-50.605-11.815-104.208-41.701-150.07-87.562  c-95.941-95.941-121.985-225.721-58.902-291.228C120.184,122.209,120.679,121.699,121.188,121.189z"/>
<path style="fill:#52AA69;" d="M284.192,96.685c37.43,12.122,75.694,33.748,110.607,64.057c4.215-19.184-13.124-44.557-42.089-59.69  C326.648,87.435,299.16,86.278,284.192,96.685"/>
<path style="fill:#B7E2A7;" d="M280.375,99.865c-1.805,1.805-3.324,3.849-4.515,6.127c-10.22,19.564,7.614,49.07,39.836,65.904  c28.468,14.874,58.64,14.88,72.334,1.188c1.805-1.805,3.325-3.849,4.515-6.128c1.033-1.977,1.779-4.056,2.254-6.214  c-34.913-30.31-73.178-51.936-110.607-64.057C282.81,97.646,281.533,98.707,280.375,99.865"/>
<path style="fill:#0D842B;" d="M361.156,231.382c54.979,54.979,94.647,113.43,112.048,160.221  c-2.586,4.123-5.298,8.194-8.142,12.206c-4.109,5.808-8.497,11.481-13.158,17.002c-4.677,5.563-9.642,10.971-14.88,16.211  c-2.623,2.623-5.298,5.18-8.002,7.677c-2.704,2.468-5.438,4.877-8.209,7.204c-5.526,4.67-11.194,9.051-17.009,13.167  c-4.012,2.844-8.083,5.556-12.221,8.127c-9.207-3.414-18.855-7.699-28.837-12.79c-40.807-20.799-87.208-55.082-131.37-99.244  C182.611,312.398,145.89,260.9,126.059,217.233c-19.477-42.928-22.639-78.275-4.869-96.044  C157.023,85.355,264.461,134.688,361.156,231.382z"/>
<path style="fill:#8CC371;" d="M322.195,270.343c57.284,57.284,104.076,112.217,129.707,150.468  c-4.677,5.563-9.642,10.971-14.88,16.211c-2.623,2.623-5.298,5.18-8.002,7.677c-2.704,2.468-5.438,4.877-8.209,7.204  c-5.541-3.709-11.423-7.862-17.615-12.428c-36.588-26.968-83.861-68.286-132.854-117.279  c-54.993-54.993-100.315-107.822-126.537-145.791c-19.882-28.793-28.793-49.038-22.616-55.215c0.111-0.111,0.229-0.214,0.347-0.318  c1.02-0.857,2.35-1.359,3.989-1.537C148.704,116.8,232.572,180.719,322.195,270.343z"/>
<g>
</g>
<g>
</g>
<g>
</g>
<g>
</g>
<g>
</g>
<g>
</g>
<g>
</g>
<g>
</g>
<g>
</g>
<g>
</g>
<g>
</g>
<g>
</g>
<g>
</g>
<g>
</g>
<g>
</g>
</svg>
