<?xml version="1.0" encoding="iso-8859-1"?>
<!-- Generator: Adobe Illustrator 19.0.0, SVG Export Plug-In . SVG Version: 6.00 Build 0)  -->
<svg xmlns="http://www.w3.org/2000/svg" xmlns:xlink="http://www.w3.org/1999/xlink" version="1.1" id="Capa_1" x="0px" y="0px" viewBox="0 0 512 512" style="enable-background:new 0 0 512 512;" xml:space="preserve">
<path style="fill:#B16E60;" d="M503.959,247.959c0,39.673-9.321,77.181-25.889,110.438c-22.033,44.218-56.889,80.926-99.69,105.256  c-9.534,5.425-19.452,10.232-29.715,14.372c-28.632,11.538-59.905,17.894-92.666,17.894c-136.944,0-247.959-111.015-247.959-247.959  S119.056,0,256,0S503.959,111.015,503.959,247.959z"/>
<path style="fill:#F9EF4A;" d="M374.514,339.188l-40.169,40.169L63.751,108.763L14.756,59.768c-7.682-7.682-7.682-20.13,0-27.812  l12.368-12.357c7.672-7.682,20.12-7.682,27.802,0l48.995,48.995L374.514,339.188z"/>
<g>
	<path style="fill:#DBCF48;" d="M25.987,48.534c-7.678-7.678-7.678-20.126,0-27.805L14.756,31.961   c-7.678,7.678-7.678,20.126,0,27.805l319.593,319.593l11.232-11.232L25.987,48.534z"/>
	
		<rect x="190.724" y="32.643" transform="matrix(-0.7071 0.7071 -0.7071 -0.7071 532.4517 227.411)" style="fill:#DBCF48;" width="56.807" height="382.673"/>
</g>
<path style="fill:#F9EF4A;" d="M478.07,358.397c-26.941,54.065-73.042,96.896-129.404,119.628L53.843,183.201  c-9.868-9.878-9.868-25.879,0-35.757l24.3-24.29l40.169-40.169l24.29-24.3c9.878-9.878,25.889-9.878,35.757,0L478.07,358.397z"/>
<g>
	<path style="fill:#DBCF48;" d="M75.886,161.158L378.38,463.653c-9.534,5.425-19.452,10.232-29.715,14.372L53.843,183.201   c-9.868-9.878-9.868-25.879,0-35.757l21.871-21.861C66.018,135.482,66.079,151.341,75.886,161.158z"/>
	<path style="fill:#DBCF48;" d="M426.727,512l-4.716-4.716C432.365,507.942,436.342,508.124,426.727,512z"/>
</g>
<g>
</g>
<g>
</g>
<g>
</g>
<g>
</g>
<g>
</g>
<g>
</g>
<g>
</g>
<g>
</g>
<g>
</g>
<g>
</g>
<g>
</g>
<g>
</g>
<g>
</g>
<g>
</g>
<g>
</g>
</svg>
