<?xml version="1.0" encoding="iso-8859-1"?>
<!-- Generator: Adobe Illustrator 19.0.0, SVG Export Plug-In . SVG Version: 6.00 Build 0)  -->
<svg xmlns="http://www.w3.org/2000/svg" xmlns:xlink="http://www.w3.org/1999/xlink" version="1.1" id="Capa_1" x="0px" y="0px" viewBox="0 0 512 512" style="enable-background:new 0 0 512 512;" xml:space="preserve">
<path style="fill:#52C8D3;" d="M454.061,418.222c-0.888,1.076-1.787,2.152-2.696,3.229c-4.524,5.339-9.31,10.533-14.346,15.569  c-0.993,1.003-2.006,1.985-3.02,2.968c-0.199,0.188-0.397,0.387-0.596,0.575c-3.897,3.751-7.889,7.356-11.954,10.804  c-1.076,0.909-2.152,1.808-3.229,2.685C317.66,536.63,168.898,530.946,74.982,437.02c-99.976-99.976-99.976-262.061,0-362.037  s262.061-99.976,362.037,0C530.945,168.898,536.629,317.661,454.061,418.222z"/>
<path style="fill:#F9EF4A;" d="M454.061,418.222c-0.888,1.076-1.787,2.152-2.696,3.229c-4.524,5.339-9.31,10.533-14.346,15.569  c-0.993,1.003-2.006,1.985-3.02,2.968c-4.086,3.96-8.276,7.753-12.549,11.379c-1.076,0.909-2.152,1.808-3.229,2.685L251.904,287.735  l35.84-35.83L454.061,418.222z"/>
<g>
	<path style="fill:#DBCF48;" d="M433.404,440.562c-3.897,3.751-7.889,7.356-11.954,10.804c-1.076,0.909-2.152,1.808-3.229,2.685   L251.905,287.735l14.336-14.326L433.404,440.562z"/>
	<path style="fill:#DBCF48;" d="M287.74,251.905l101.087,101.087c-5.149,6.601-10.75,12.944-16.82,19.014   c-6.07,6.07-12.413,11.671-19.014,16.82L251.907,287.739L287.74,251.905z"/>
</g>
<path style="fill:#FCF4D0;" d="M353.426,63.357c61.67,61.67,75.862,152.82,42.585,228.071  c-9.945,22.491-24.137,43.567-42.576,62.005c-80.1,80.1-209.977,80.108-290.086,0c-80.099-80.099-80.091-209.977,0.009-290.077  c1.336-1.336,2.69-2.654,4.052-3.947C147.784-16.715,274.662-15.406,353.426,63.357z"/>
<path style="fill:#FFFAE5;" d="M353.426,63.357c61.67,61.67,75.862,152.82,42.585,228.071  C315.752,110.091,131.708,68.534,67.411,59.411C147.784-16.715,274.662-15.406,353.426,63.357z"/>
<path style="fill:#F9395E;" d="M329.484,87.3c44.106,44.106,59.121,106.281,45.053,162.694  c-7.255,29.127-22.27,56.723-45.045,79.498c-66.881,66.881-175.321,66.881-242.202,0C20.418,262.62,20.418,154.181,87.299,87.3  c7.344-7.344,15.182-13.873,23.42-19.598C177.487,21.233,269.956,27.771,329.484,87.3z"/>
<path style="fill:#F4385E;" d="M329.484,87.3c44.106,44.106,59.121,106.281,45.053,162.694  C303.321,131.318,184.618,85.326,110.721,67.702C177.487,21.233,269.956,27.771,329.484,87.3z"/>
<path style="fill:#FCF4D0;" d="M294.013,122.77c18.483,18.483,29.738,41.434,33.772,65.377c6.3,37.337-4.946,77.056-33.764,105.873  c-47.292,47.292-123.967,47.292-171.259,0s-47.283-123.959,0.009-171.25c16.794-16.794,37.285-27.623,58.864-32.481  C220.797,81.442,263.514,92.272,294.013,122.77z"/>
<path style="fill:#FFFAE5;" d="M327.785,188.148c-45.089-47.973-98.184-78.49-146.149-97.857  c39.161-8.848,81.878,1.982,112.377,32.481C312.496,141.254,323.751,164.206,327.785,188.148z"/>
<circle style="fill:#F9395E;" cx="208.395" cy="208.395" r="77.458"/>
<circle style="fill:#FCF4D0;" cx="208.395" cy="208.395" r="27.429"/>
<g>
</g>
<g>
</g>
<g>
</g>
<g>
</g>
<g>
</g>
<g>
</g>
<g>
</g>
<g>
</g>
<g>
</g>
<g>
</g>
<g>
</g>
<g>
</g>
<g>
</g>
<g>
</g>
<g>
</g>
</svg>
