<?xml version="1.0" encoding="iso-8859-1"?>
<!-- Generator: Adobe Illustrator 19.0.0, SVG Export Plug-In . SVG Version: 6.00 Build 0)  -->
<svg xmlns="http://www.w3.org/2000/svg" xmlns:xlink="http://www.w3.org/1999/xlink" version="1.1" id="Capa_1" x="0px" y="0px" viewBox="0 0 512 512" style="enable-background:new 0 0 512 512;" xml:space="preserve">
<path style="fill:#52C8D3;" d="M390.488,473.86c-3.265,2.025-6.576,3.975-9.938,5.844c-24.819,13.853-52.2,23.695-81.237,28.646  c-6.458,1.094-13.004,1.965-19.632,2.564C271.886,511.631,263.98,512,256,512c-14.762,0-29.236-1.249-43.32-3.657  c-13.056-2.224-25.779-5.445-38.081-9.561c-2.372-0.79-4.722-1.618-7.049-2.483c-12.524-4.617-24.59-10.182-36.115-16.595  c-1.67-0.931-3.325-1.877-4.958-2.844c-1.611-0.946-3.214-1.913-4.802-2.896c-0.022-0.007-0.045-0.029-0.06-0.044  C48.625,428.827,0.001,348.091,0.001,255.999c0-94.618,51.336-177.252,127.682-221.562c6.051-3.524,12.265-6.797,18.634-9.812  C179.558,8.837,216.752,0,256,0s76.442,8.837,109.684,24.626c7.425,3.524,14.644,7.389,21.648,11.585l0.007,0.007  c74.676,44.723,124.66,126.404,124.66,219.781C512.001,348.047,463.412,428.76,390.488,473.86z"/>
<path style="fill:#B16E60;" d="M390.488,473.86c-3.265,2.025-6.576,3.975-9.938,5.844c-24.819,13.853-52.2,23.695-81.237,28.646  c-6.458,1.094-13.004,1.965-19.632,2.564C271.886,511.631,263.98,512,256,512c-14.762,0-29.236-1.249-43.32-3.657  c-13.056-2.224-25.779-5.445-38.081-9.561c-2.372-0.79-4.722-1.618-7.049-2.483c-12.524-4.617-24.59-10.182-36.115-16.595  c-1.67-0.931-3.325-1.877-4.958-2.844c-1.611-0.946-3.214-1.913-4.802-2.896c-0.022-0.007-0.045-0.029-0.06-0.044l-0.318-33.566  l-0.007-0.007l-2.062-42.271l-8.697-178.441l-3.96-80.919l-0.037-0.657h29.51l0.007,0.007h19.269l250.126-0.007l-0.037,0.657  l-0.975,20.26l-2.97,60.66l-0.007,0.007l-10.758,220.712L390.488,473.86z"/>
<g>
	<path style="fill:#9E5B50;" d="M279.681,510.913c-7.795,0.717-15.701,1.086-23.681,1.086c-14.762,0-29.236-1.249-43.32-3.657   c-13.056-2.224-25.779-5.445-38.081-9.561c-2.372-0.79-4.722-1.618-7.049-2.483c-12.524-4.617-24.59-10.182-36.115-16.595   c-1.67-0.931-3.325-1.877-4.958-2.844c-0.503-2.645-1.648-4.662-3.679-5.793l-1.5-30.714l-0.007-0.007l-2.062-42.271l0.007-0.022   l30.167-130.416c0,0,1.722,7.16,5.29,19.225c0.015,0.074,0.037,0.14,0.059,0.222c1.891,6.339,4.278,14.031,7.196,22.742   c7.773,23.215,19.276,53.678,34.852,85.228c0,0.015,0.015,0.029,0.022,0.037c7.425,15.065,15.775,30.36,25.099,45.255   C238.179,466.323,257.367,491.024,279.681,510.913z"/>
	<path style="fill:#9E5B50;" d="M166.983,440.345l0.568,55.954c-12.524-4.617-24.59-10.182-36.115-16.595   c-1.67-0.931-3.325-1.877-4.958-2.844c-1.611-0.946-3.214-1.913-4.802-2.896l-0.377-33.61l-0.007-0.007l-2.062-42.271l0.007-0.022   l-8.704-178.42l-3.96-80.919l-0.037-0.657h29.51l0.007,0.007h19.269l0.029,0.65l3.118,80.919l3.48,90.193l0.156,4.263   c0,0-0.007,0.007,0,0.015l4.056,105.132L166.983,440.345z"/>
</g>
<polygon style="fill:#F2EEED;" points="402.788,440.347 414.529,219.634 97.468,219.634 109.209,440.347 "/>
<path style="fill:#E6E2E0;" d="M97.468,219.634l11.741,220.713c0,0,246.624,0,153.331,0S141.716,219.634,141.716,219.634H97.468z"/>
<g>
	<path style="fill:#B16E60;" d="M246.318,266.179c-31.049,4.671-54.856,31.459-54.856,63.811s23.806,59.141,54.856,63.811V266.179z"/>
	<path style="fill:#B16E60;" d="M265.679,266.179v127.622c31.049-4.672,54.855-31.46,54.855-63.811S296.728,270.851,265.679,266.179   z"/>
</g>
<rect x="127.677" y="24.622" style="fill:#F2EEED;" width="259.659" height="45.286"/>
<rect x="127.677" y="24.622" style="fill:#E6E2E0;" width="36.676" height="45.286"/>
<polygon style="fill:#F2EEED;" points="76.353,138.71 435.641,138.71 412.082,69.265 99.913,69.265 "/>
<polygon style="fill:#E6E2E0;" points="144.996,69.265 135.961,138.71 76.353,138.71 99.913,69.265 "/>
<g>
</g>
<g>
</g>
<g>
</g>
<g>
</g>
<g>
</g>
<g>
</g>
<g>
</g>
<g>
</g>
<g>
</g>
<g>
</g>
<g>
</g>
<g>
</g>
<g>
</g>
<g>
</g>
<g>
</g>
</svg>
