<?xml version="1.0" encoding="iso-8859-1"?>
<!-- Generator: Adobe Illustrator 19.0.0, SVG Export Plug-In . SVG Version: 6.00 Build 0)  -->
<svg xmlns="http://www.w3.org/2000/svg" xmlns:xlink="http://www.w3.org/1999/xlink" version="1.1" id="Capa_1" x="0px" y="0px" viewBox="0 0 512 512" style="enable-background:new 0 0 512 512;" xml:space="preserve">
<path style="fill:#52C8D3;" d="M510.267,285.876c-6.457,55.233-30.866,108.763-73.247,151.144s-95.921,66.79-151.165,73.247  c-15.37,1.797-30.866,2.194-46.289,1.202c-59.935-3.824-118.773-28.641-164.582-74.449c-91-91-99.171-233.44-24.524-333.677  c7.367-9.895,15.548-19.383,24.524-28.358s18.463-17.157,28.358-24.524C203.58-24.186,346.02-16.015,437.02,74.985  c45.808,45.808,70.625,104.667,74.449,164.602C512.462,255.01,512.064,270.516,510.267,285.876z"/>
<path style="fill:#B16E60;" d="M510.267,285.876c-6.457,55.233-30.866,108.763-73.247,151.144s-95.921,66.79-151.165,73.247  c-15.37,1.797-30.866,2.194-46.289,1.202l-6.269-13.531L50.461,103.343L4.799,4.799l98.544,45.662l394.584,182.846l13.542,6.28  C512.462,255.01,512.064,270.516,510.267,285.876z"/>
<path style="fill:#F2B54D;" d="M497.932,233.31c-27.709,57.893-64.927,110.195-109.676,154.944  c-44.759,44.759-97.06,81.977-154.954,109.686l-17.22-37.162L197.59,420.86l-5.197-11.204l-12.635-27.285l-3.258-7.024  l-6.129-13.228l-15.789-34.073l-9.057-19.546l-45.465-98.115L43.426,88.148L4.796,4.796L143.255,68.95l31.701,14.698l5.564,2.57  l5.423,2.523l8.031,3.719l7.683,3.559l52.151,24.168l9.038,4.181l0.988,0.462l5.179,2.411l13.426,6.214l32.171,14.904  L497.932,233.31z"/>
<circle style="fill:#D37B7D;" cx="280.763" cy="261.934" r="69.904"/>
<g transform="matrix(-0.9251 -0.3798 0.3798 -0.9251 226.43 390.96)">
	
		<ellipse transform="matrix(2.553554e-006 1 -1 2.553554e-006 311.0617 26.012)" style="fill:#8CC371;" cx="142.525" cy="168.537" rx="42.608" ry="70.238"/>
	
		<ellipse transform="matrix(2.553554e-006 1 -1 2.553554e-006 311.0617 26.012)" style="fill:#B7E2A7;" cx="142.525" cy="168.537" rx="24.825" ry="40.918"/>
</g>
<ellipse transform="matrix(-0.3798 0.9251 -0.9251 -0.3798 386.1816 102.9168)" style="fill:none;stroke:#F2E3E3;stroke-width:4;stroke-linecap:round;stroke-linejoin:round;stroke-dasharray:0,12.7154;" cx="158.591" cy="180.915" rx="17.31" ry="28.535"/>
<path style="fill:#E58FF4;" d="M278.251,367.086c-15.721-1.673-30.548,16.533-33.115,40.664  c-2.567,24.131,8.097,45.049,23.818,46.721s30.548-16.533,33.115-40.664C304.636,389.677,293.973,368.759,278.251,367.086z   M287.711,412.28c-1.273,11.959-8.62,20.983-16.412,20.153c-7.792-0.829-13.077-11.196-11.804-23.155  c1.273-11.959,8.62-20.983,16.412-20.153C283.697,389.954,288.982,400.321,287.711,412.28z"/>
<circle style="fill:#E59497;" cx="279.635" cy="297.576" r="12.316"/>
<path style="fill:#D37B7D;" d="M138.123,91.989c27.295,27.295,27.295,71.565,0,98.859c-10.752,10.752-24.131,17.258-38.066,19.536  L43.426,88.148C70.88,64.76,112.176,66.041,138.123,91.989z"/>
<path style="fill:#F9395E;" d="M314.705,371.722c-0.414,7.231-1.676,14.537-3.85,21.777c-2.165,7.249-5.141,14.048-8.784,20.309  c-17.616,30.401-50.945,48.573-85.989,46.972l-18.492-39.92l-5.197-11.204l-12.635-27.285l-3.258-7.024l-6.129-13.228  l-15.789-34.073l-9.057-19.546c23.227-30.082,63.401-44.308,101.976-32.718C290.253,288.615,317.189,329.015,314.705,371.722z"/>
<path style="fill:#F23C85;" d="M292.173,387.606l-0.16,0.537c-3.012,10.017-12.635,16.231-22.682,15.356  c-1.469-0.132-2.947-0.405-4.406-0.847l-3.756-1.12l-41.559,4.915l-8.36,0.979l-18.858,2.232l-12.635-27.285l-3.258-7.024  l-6.129-13.228l-15.789-34.073l21.184,2.9l5.809,0.8l13.595-9.811l0.009-0.009l4.303-3.097l10.329-7.447l24.818,18.642l5.715,4.284  l0.009,0.009l33.462,25.138l3.747,1.111c1.479,0.443,2.862,1.017,4.143,1.732C290.574,367.1,295.178,377.597,292.173,387.606z"/>
<g>
	<path style="fill:#D92F52;" d="M176.499,375.347l-6.129-13.228c0.706-0.631,1.46-1.233,2.251-1.817   c2.965-2.156,7.137-1.488,9.292,1.479c2.165,2.975,1.507,7.137-1.469,9.302C178.75,372.306,177.422,373.746,176.499,375.347z"/>
	<path style="fill:#D92F52;" d="M272.204,396.672c-0.725,2.401-1.685,4.679-2.871,6.826c-10.517,19.028-38.272,27.671-65.99,19.348   c-1.958-0.584-3.879-1.242-5.752-1.986l-5.197-11.204l-12.635-27.285c17.182,7.674,75.444,24.621,79.69,10.47   c1.054-3.521,4.764-5.517,8.294-4.453C271.263,389.442,273.259,393.151,272.204,396.672z"/>
	<path style="fill:#D92F52;" d="M280.338,369.573c-1.057,3.521-4.77,5.519-8.291,4.462c-3.521-1.057-5.519-4.77-4.462-8.291   c5.004-16.665-76.339-38.618-77.868-35.251c-1.353,2.984-1.374,6.408-0.056,9.899c1.298,3.442-0.441,7.282-3.88,8.579   c-3.44,1.298-7.282-0.439-8.579-3.88c-2.556-6.777-2.418-13.918,0.391-20.104c2.979-6.564,8.854-11.762,16.545-14.638   c12.944-4.827,28.264-5.024,43.145-0.556C268.139,319.06,287.453,345.876,280.338,369.573z"/>
</g>
<g>
	<circle style="fill:#FF5B6E;" cx="199.408" cy="323.259" r="4.439"/>
	<circle style="fill:#FF5B6E;" cx="217.568" cy="324.544" r="4.439"/>
	<circle style="fill:#FF5B6E;" cx="258.799" cy="341.555" r="4.439"/>
	<circle style="fill:#FF5B6E;" cx="239.072" cy="330.072" r="4.439"/>
	<circle style="fill:#FF5B6E;" cx="194.591" cy="401.052" r="4.439"/>
	<circle style="fill:#FF5B6E;" cx="238.372" cy="409.568" r="4.439"/>
	<circle style="fill:#FF5B6E;" cx="215.593" cy="408.293" r="4.439"/>
</g>
<path style="fill:#F9395E;" d="M314.609,148.357c-13.916,34.723-47.245,57.903-84.341,59.184c-7.24,0.254-14.632-0.32-22.041-1.817  c-7.419-1.488-14.461-3.822-21.034-6.873c-38.847-17.926-61.783-60.708-52.961-104.48c1.826-9.095,4.915-17.606,9.02-25.421  l31.701,14.698l5.564,2.57l5.423,2.523l8.031,3.719l7.683,3.559l52.151,24.168l9.038,4.181l0.988,0.462l5.178,2.411l13.426,6.214  L314.609,148.357z"/>
<path style="fill:#F23C85;" d="M263.834,124.829l-3.211,5.207l-21.919,35.646l-0.772,3.841c-0.301,1.507-0.753,2.937-1.336,4.293  c-3.954,9.265-13.991,14.82-24.234,12.767l-0.545-0.113c-10.244-2.071-17.324-11.092-17.381-21.165  c-0.028-1.46,0.113-2.956,0.423-4.453l0.772-3.841l-8.737-40.937l-1.77-8.247l-4.604-21.607l5.423,2.523l8.031,3.719l7.683,3.559  l52.151,24.168l9.038,4.181L263.834,124.829z"/>
<g>
	<path style="fill:#D92F52;" d="M193.974,92.46l7.683,3.559c-4.867,24.187-8.078,56.34,2.458,58.459   c3.606,0.725,5.941,4.246,5.216,7.852c-0.735,3.597-4.237,5.932-7.843,5.207c-2.458-0.499-4.82-1.242-7.052-2.231   c-19.931-8.69-31.108-35.533-25.384-63.91c1.261-6.289,3.258-12.259,5.904-17.748l5.564,2.57l5.423,2.523L193.974,92.46z"/>
	<path style="fill:#D92F52;" d="M282.438,133.454c-7.805,23.736-26.41,40.08-45.842,40.362c-2.458,0.028-4.915-0.188-7.372-0.688   c-3.597-0.735-5.941-4.246-5.207-7.843c0.725-3.606,4.228-5.941,7.834-5.216c8.7,1.751,16.693-18.971,21.956-39.883l9.038,4.181   l0.988,0.462l5.178,2.411L282.438,133.454z"/>
</g>
<g>
	<circle style="fill:#FF5B6E;" cx="255.132" cy="149.075" r="4.439"/>
	<path style="fill:#FF5B6E;" d="M269.012,127.24c0.179,0.631,0.216,1.328,0.075,2.015c-0.481,2.401-2.824,3.954-5.226,3.474   c-1.516-0.31-2.702-1.365-3.239-2.693c-0.32-0.772-0.415-1.657-0.235-2.533c0.282-1.432,1.224-2.561,2.458-3.136l0.988,0.462   L269.012,127.24z"/>
	<path style="fill:#FF5B6E;" d="M193.974,92.46c-0.81,1.864-2.843,2.975-4.925,2.552c-2.401-0.48-3.954-2.824-3.474-5.226   c0.075-0.376,0.197-0.725,0.367-1.045L193.974,92.46z"/>
	<circle style="fill:#FF5B6E;" cx="185.511" cy="135.053" r="4.439"/>
	<circle style="fill:#FF5B6E;" cx="184.675" cy="112.242" r="4.439"/>
</g>
<g transform="matrix(0.1861 -0.9825 0.9825 0.1861 47.721 591.85)">
	
		<ellipse transform="matrix(2.532291e-006 1 -1 2.532291e-006 658.6727 -86.3491)" style="fill:#8CC371;" cx="372.511" cy="286.163" rx="42.608" ry="70.238"/>
	
		<ellipse transform="matrix(2.532291e-006 1 -1 2.532291e-006 658.6727 -86.3491)" style="fill:#B7E2A7;" cx="372.511" cy="286.163" rx="24.825" ry="40.918"/>
</g>
<ellipse transform="matrix(-0.9825 -0.1861 0.1861 -0.9825 737.499 627.4567)" style="fill:none;stroke:#F2E3E3;stroke-width:4;stroke-linecap:round;stroke-linejoin:round;stroke-dasharray:0,12.7154;" cx="398.2" cy="279.113" rx="17.309" ry="28.533"/>
<g>
	<path style="fill:#E58FF4;" d="M324.484,165.044c-15.721-1.673-30.547,16.533-33.115,40.664s8.097,45.049,23.818,46.721   c15.721,1.673,30.548-16.533,33.115-40.664C350.869,187.635,340.205,166.717,324.484,165.044z M333.943,210.238   c-1.273,11.959-8.62,20.983-16.412,20.153c-7.792-0.829-13.077-11.196-11.804-23.155c1.273-11.959,8.62-20.983,16.412-20.153   C329.931,187.912,335.216,198.278,333.943,210.238z"/>
	<path style="fill:#E58FF4;" d="M145.012,261.066c-5.321,14.889,8.892,33.578,31.744,41.744s45.69,2.717,51.01-12.172   c5.321-14.889-8.892-33.578-31.744-41.744C173.171,240.727,150.333,246.177,145.012,261.066z M191.164,262.491   c11.326,4.047,18.369,13.31,15.732,20.688c-2.636,7.379-13.955,10.079-25.28,6.032c-11.326-4.047-18.369-13.31-15.732-20.688   C168.521,261.144,179.839,258.444,191.164,262.491z"/>
</g>
<g>
	<circle style="fill:#E59497;" cx="88.22" cy="115.994" r="12.316"/>
	<circle style="fill:#E59497;" cx="286.176" cy="214.621" r="12.316"/>
	<circle style="fill:#E59497;" cx="112.033" cy="165.375" r="6.159"/>
	<circle style="fill:#E59497;" cx="310.888" cy="263.815" r="6.159"/>
	<circle style="fill:#E59497;" cx="120.121" cy="116.349" r="6.159"/>
</g>
<g>
</g>
<g>
</g>
<g>
</g>
<g>
</g>
<g>
</g>
<g>
</g>
<g>
</g>
<g>
</g>
<g>
</g>
<g>
</g>
<g>
</g>
<g>
</g>
<g>
</g>
<g>
</g>
<g>
</g>
</svg>
