<?xml version="1.0" encoding="iso-8859-1"?>
<!-- Generator: Adobe Illustrator 19.0.0, SVG Export Plug-In . SVG Version: 6.00 Build 0)  -->
<svg xmlns="http://www.w3.org/2000/svg" xmlns:xlink="http://www.w3.org/1999/xlink" version="1.1" id="Capa_1" x="0px" y="0px" viewBox="0 0 512.003 512.003" style="enable-background:new 0 0 512.003 512.003;" xml:space="preserve">
<path style="fill:#76B25D;" d="M511.681,268.876c-2.372,47.501-17.91,94.448-46.613,134.938  c-8.255,11.651-17.607,22.768-28.045,33.207c-5.538,5.538-11.274,10.773-17.178,15.705c-4.389,3.668-8.882,7.168-13.458,10.491  c-0.857,0.616-1.714,1.243-2.581,1.849c-1.63,1.16-3.271,2.288-4.921,3.406c-1.463,0.993-2.947,1.964-4.43,2.915  c-38.285,24.66-81.701,38.087-125.576,40.291c-8.547,0.428-17.105,0.428-25.652,0c-61.2-3.03-121.511-27.92-168.239-74.658  c-99.976-99.976-99.976-262.061,0-362.037s262.061-99.976,362.037,0c46.738,46.728,71.628,107.04,74.658,168.239  C512.11,251.771,512.11,260.328,511.681,268.876z"/>
<g>
	
		<rect x="38.056" y="3.894" transform="matrix(0.7071 0.7071 -0.7071 0.7071 71.6061 -29.6567)" style="fill:#E6E2E0;" width="67.092" height="135.428"/>
	<path style="fill:#E6E2E0;" d="M132.71,71.046l0.008,0.008l34.4,50.723l19.214,28.315l39.588,58.361l52.152,76.889l90.172,132.929   l27.016,39.824c-0.948,0.686-1.895,1.372-2.852,2.05c-1.797,1.275-3.611,2.533-5.441,3.757   c-43.509,29.327-93.349,45.249-143.745,47.774L33.985,302.438L132.71,71.046z"/>
</g>
<path style="fill:#D8D4D3;" d="M419.845,452.726c-4.389,3.668-8.882,7.168-13.458,10.491c-0.857,0.616-1.714,1.243-2.581,1.849  c-1.63,1.16-3.271,2.288-4.921,3.406c-1.463,0.993-2.947,1.964-4.43,2.915c-38.285,24.66-81.701,38.087-125.576,40.291  c-8.547,0.428-17.105,0.428-25.652,0l-206.19-206.19C59.689,327.641,205.202,462.12,359.408,420.48  c3.009-0.815,5.956-1.557,8.84-2.215L419.845,452.726z"/>
<polygon style="fill:#CCC9C7;" points="33.981,302.438 129.743,206.677 133.448,37.686 37.686,133.448 "/>
<path style="fill:#F2EEED;" d="M511.681,268.876c-2.372,47.501-17.91,94.448-46.613,134.938  c-8.255,11.651-17.607,22.768-28.045,33.207c-9.665,9.665-19.916,18.401-30.636,26.196c-0.857,0.616-1.714,1.243-2.581,1.849  c-1.63,1.16-3.271,2.288-4.921,3.406c-1.463,0.993-2.947,1.964-4.43,2.915L129.739,206.683l37.376-84.909l2.706-6.134L302.44,33.982  l209.241,209.241C512.11,251.771,512.11,260.328,511.681,268.876z"/>
<rect x="249.533" y="145.569" transform="matrix(0.7071 -0.7071 0.7071 0.7071 -65.8275 294.3417)" style="fill:#69D6E2;" width="145.71" height="162.125"/>
<polygon style="fill:#D8D4D3;" points="129.743,206.677 302.439,33.981 133.448,37.686 "/>
<g>
	
		<rect x="389.422" y="280.266" transform="matrix(-0.7071 0.7071 -0.7071 -0.7071 940.8552 191.3403)" style="fill:#69D6E2;" width="82.755" height="20.524"/>
	
		<rect x="350.82" y="339.037" transform="matrix(-0.7071 0.7071 -0.7071 -0.7071 882.0959 333.222)" style="fill:#69D6E2;" width="42.431" height="20.524"/>
	
		<rect x="452.123" y="295.073" transform="matrix(-0.7071 0.7071 -0.7071 -0.7071 1024.4976 186.3087)" style="fill:#69D6E2;" width="43.081" height="20.524"/>
	
		<rect x="373.843" y="353.844" transform="matrix(-0.7071 0.7071 -0.7071 -0.7071 965.7336 328.1908)" style="fill:#69D6E2;" width="82.107" height="20.524"/>
</g>
<polygon style="fill:#E6E2E0;" points="302.439,33.981 169.822,115.641 129.743,206.677 "/>
<g>
</g>
<g>
</g>
<g>
</g>
<g>
</g>
<g>
</g>
<g>
</g>
<g>
</g>
<g>
</g>
<g>
</g>
<g>
</g>
<g>
</g>
<g>
</g>
<g>
</g>
<g>
</g>
<g>
</g>
</svg>
