<?xml version="1.0" encoding="iso-8859-1"?>
<!-- Generator: Adobe Illustrator 19.0.0, SVG Export Plug-In . SVG Version: 6.00 Build 0)  -->
<svg xmlns="http://www.w3.org/2000/svg" xmlns:xlink="http://www.w3.org/1999/xlink" version="1.1" id="Capa_1" x="0px" y="0px" viewBox="0 0 512 512" style="enable-background:new 0 0 512 512;" xml:space="preserve">
<path style="fill:#52C8D3;" d="M512,256c0,2.738-0.042,5.465-0.136,8.182c-0.345,10.846-1.348,21.504-2.999,31.963  c-3.103,19.738-8.474,38.724-15.82,56.686c0,0.021,0,0.031-0.021,0.042C454.844,446.234,363.102,512,256,512  c-107.133,0-198.896-65.808-237.066-159.201c-0.01-0.01-0.01-0.021-0.01-0.031c-7.335-17.951-12.685-36.916-15.788-56.623  c-1.651-10.459-2.654-21.128-2.999-31.963C0.042,261.465,0,258.738,0,256C0,114.615,114.615,0,256,0S512,114.615,512,256z"/>
<g>
	<circle style="fill:#FCF4D0;" cx="180.517" cy="233.232" r="90.488"/>
	<circle style="fill:#FCF4D0;" cx="180.517" cy="233.232" r="90.488"/>
</g>
<path style="fill:#EAE1B8;" d="M180.52,308.475c-41.487,0-75.239-33.752-75.239-75.239s33.752-75.239,75.239-75.239  s75.239,33.752,75.239,75.239S222.006,308.475,180.52,308.475z"/>
<path style="fill:#FCF4D0;" d="M180.52,293.223c-33.077,0-59.988-26.91-59.988-59.988s26.91-59.988,59.988-59.988  s59.988,26.91,59.988,59.988S213.597,293.223,180.52,293.223z"/>
<path style="fill:#EAE1B8;" d="M180.52,277.972c-24.668,0-44.737-20.068-44.737-44.737s20.068-44.737,44.737-44.737  s44.737,20.068,44.737,44.737S205.188,277.972,180.52,277.972z"/>
<path style="fill:#FCF4D0;" d="M180.52,262.721c-16.259,0-29.486-13.227-29.486-29.486s13.227-29.486,29.486-29.486  s29.486,13.227,29.486,29.486S196.777,262.721,180.52,262.721z"/>
<path style="fill:#EAE1B8;" d="M180.52,247.469c-7.849,0-14.235-6.385-14.235-14.235S172.67,219,180.52,219  c7.849,0,14.235,6.385,14.235,14.235C194.753,241.084,188.368,247.469,180.52,247.469z"/>
<g>
	<circle style="fill:#FCF4D0;" cx="331.473" cy="233.232" r="90.488"/>
	<circle style="fill:#FCF4D0;" cx="331.473" cy="233.232" r="90.488"/>
</g>
<path style="fill:#EAE1B8;" d="M331.474,308.475c-41.487,0-75.239-33.752-75.239-75.239s33.752-75.239,75.239-75.239  s75.239,33.752,75.239,75.239S372.961,308.475,331.474,308.475z"/>
<path style="fill:#FCF4D0;" d="M331.474,293.223c-33.077,0-59.988-26.91-59.988-59.988s26.91-59.988,59.988-59.988  s59.988,26.91,59.988,59.988S364.551,293.223,331.474,293.223z"/>
<path style="fill:#EAE1B8;" d="M331.474,277.972c-24.668,0-44.737-20.068-44.737-44.737s20.068-44.737,44.737-44.737  s44.737,20.068,44.737,44.737S356.142,277.972,331.474,277.972z"/>
<path style="fill:#FCF4D0;" d="M331.474,262.721c-16.259,0-29.486-13.227-29.486-29.486s13.227-29.486,29.486-29.486  s29.486,13.227,29.486,29.486S347.733,262.721,331.474,262.721z"/>
<path style="fill:#EAE1B8;" d="M331.474,247.469c-7.849,0-14.235-6.385-14.235-14.235S323.625,219,331.474,219  s14.235,6.385,14.235,14.235C345.709,241.084,339.323,247.469,331.474,247.469z"/>
<g>
	<circle style="fill:#FCF4D0;" cx="104.208" cy="284.515" r="90.488"/>
	<circle style="fill:#FCF4D0;" cx="104.208" cy="284.515" r="90.488"/>
</g>
<path style="fill:#EAE1B8;" d="M104.212,359.758c-41.487,0-75.239-33.752-75.239-75.239s33.752-75.239,75.239-75.239  s75.239,33.752,75.239,75.239S145.698,359.758,104.212,359.758z"/>
<path style="fill:#FCF4D0;" d="M104.212,344.507c-33.077,0-59.988-26.91-59.988-59.988s26.91-59.988,59.988-59.988  s59.988,26.91,59.988,59.988C164.199,317.596,137.289,344.507,104.212,344.507z"/>
<path style="fill:#EAE1B8;" d="M104.212,329.256c-24.668,0-44.737-20.069-44.737-44.737c0-24.668,20.068-44.737,44.737-44.737  s44.737,20.068,44.737,44.737C148.948,309.186,128.88,329.256,104.212,329.256z"/>
<path style="fill:#FCF4D0;" d="M104.212,314.004c-16.259,0-29.486-13.227-29.486-29.486c0-16.259,13.227-29.486,29.486-29.486  s29.486,13.227,29.486,29.486C133.698,300.777,120.47,314.004,104.212,314.004z"/>
<path style="fill:#EAE1B8;" d="M104.212,298.753c-7.849,0-14.235-6.385-14.235-14.235c0-7.849,6.385-14.235,14.235-14.235  s14.235,6.385,14.235,14.235C118.446,292.368,112.061,298.753,104.212,298.753z"/>
<g>
	<circle style="fill:#FCF4D0;" cx="407.782" cy="284.515" r="90.488"/>
	<circle style="fill:#FCF4D0;" cx="407.782" cy="284.515" r="90.488"/>
</g>
<path style="fill:#EAE1B8;" d="M407.782,359.758c-41.487,0-75.239-33.752-75.239-75.239s33.752-75.239,75.239-75.239  s75.239,33.752,75.239,75.239S449.268,359.758,407.782,359.758z"/>
<path style="fill:#FCF4D0;" d="M407.782,344.507c-33.077,0-59.988-26.91-59.988-59.988s26.91-59.988,59.988-59.988  s59.988,26.91,59.988,59.988C467.769,317.596,440.859,344.507,407.782,344.507z"/>
<path style="fill:#EAE1B8;" d="M407.782,329.256c-24.668,0-44.737-20.069-44.737-44.737c0-24.668,20.068-44.737,44.737-44.737  s44.737,20.068,44.737,44.737C452.518,309.186,432.45,329.256,407.782,329.256z"/>
<path style="fill:#FCF4D0;" d="M407.782,314.004c-16.259,0-29.486-13.227-29.486-29.486c0-16.259,13.227-29.486,29.486-29.486  s29.486,13.227,29.486,29.486C437.267,300.777,424.04,314.004,407.782,314.004z"/>
<path style="fill:#EAE1B8;" d="M407.782,298.753c-7.849,0-14.235-6.385-14.235-14.235c0-7.849,6.385-14.235,14.235-14.235  c7.849,0,14.235,6.385,14.235,14.235C422.017,292.368,415.631,298.753,407.782,298.753z"/>
<g>
	<circle style="fill:#FCF4D0;" cx="256" cy="284.515" r="90.488"/>
	<circle style="fill:#FCF4D0;" cx="256" cy="284.515" r="90.488"/>
</g>
<path style="fill:#EAE1B8;" d="M256.002,359.758c-41.487,0-75.239-33.752-75.239-75.239s33.752-75.239,75.239-75.239  s75.239,33.752,75.239,75.239S297.489,359.758,256.002,359.758z"/>
<path style="fill:#FCF4D0;" d="M256.002,344.507c-33.077,0-59.988-26.91-59.988-59.988s26.91-59.988,59.988-59.988  s59.988,26.91,59.988,59.988C315.99,317.596,289.079,344.507,256.002,344.507z"/>
<path style="fill:#EAE1B8;" d="M256.002,329.256c-24.668,0-44.737-20.069-44.737-44.737c0-24.668,20.068-44.737,44.737-44.737  c24.668,0,44.737,20.068,44.737,44.737C300.738,309.186,280.67,329.256,256.002,329.256z"/>
<path style="fill:#FCF4D0;" d="M256.002,314.004c-16.259,0-29.486-13.227-29.486-29.486c0-16.259,13.227-29.486,29.486-29.486  c16.259,0,29.486,13.227,29.486,29.486C285.487,300.777,272.261,314.004,256.002,314.004z"/>
<path style="fill:#EAE1B8;" d="M256.002,298.753c-7.849,0-14.235-6.385-14.235-14.235c0-7.849,6.385-14.235,14.235-14.235  s14.235,6.385,14.235,14.235C270.236,292.368,263.85,298.753,256.002,298.753z"/>
<path style="fill:#F9EF4A;" d="M362.93,472.84H149.074c-8.946,0-16.198-7.253-16.198-16.199v-28.917h246.253v28.917  C379.128,465.588,371.875,472.84,362.93,472.84z"/>
<path style="fill:#DBCF48;" d="M379.125,427.727v28.917c0,8.947-7.249,16.197-16.197,16.197H149.076  c-8.947,0-16.197-7.25-16.197-16.197v-28.917H379.125z"/>
<g>
	<path style="fill:#F9EF4A;" d="M511.864,264.182c-0.972,31.295-7.576,61.168-18.819,88.649   c-26.446,47.825-74.47,81.314-130.048,88.482c-0.01,0.01-0.01,0.01-0.021,0.01c-7.356,0.951-14.838,1.442-22.434,1.442H171.468   c-64.94,0-122.587-35.788-152.534-89.966c-0.01-0.01-0.01-0.021-0.01-0.031c-11.222-27.47-17.816-57.323-18.787-88.586H511.864z"/>
	<path style="fill:#F9EF4A;" d="M169.481,448.439v8.206c0,8.947,7.25,16.197,16.197,16.197h177.249   c8.947,0,16.197-7.249,16.197-16.197v-8.206H169.481z"/>
</g>
<path style="fill:#DBCF48;" d="M508.865,296.145c-3.103,19.738-8.474,38.724-15.82,56.686c0,0.021,0,0.031-0.021,0.042  c-26.457,47.804-74.47,81.272-130.027,88.44c85.535-20.365,111.992-100.216,118.397-126.067H110.592  c2.717,26.728,17.084,120.048,85.849,127.519h-24.973c-64.94,0-122.587-35.788-152.534-89.966c-0.01-0.01-0.01-0.021-0.01-0.031  c-7.335-17.951-12.685-36.916-15.788-56.623H508.865z"/>
<g>
</g>
<g>
</g>
<g>
</g>
<g>
</g>
<g>
</g>
<g>
</g>
<g>
</g>
<g>
</g>
<g>
</g>
<g>
</g>
<g>
</g>
<g>
</g>
<g>
</g>
<g>
</g>
<g>
</g>
</svg>
