<?xml version="1.0" encoding="iso-8859-1"?>
<!-- Generator: Adobe Illustrator 19.0.0, SVG Export Plug-In . SVG Version: 6.00 Build 0)  -->
<svg xmlns="http://www.w3.org/2000/svg" xmlns:xlink="http://www.w3.org/1999/xlink" version="1.1" id="Capa_1" x="0px" y="0px" viewBox="0 0 512 512" style="enable-background:new 0 0 512 512;" xml:space="preserve">
<path style="fill:#F2B54D;" d="M512,256c0,2.894-0.052,5.778-0.146,8.641c-0.899,27.261-6.071,53.436-14.858,77.887  c-4.169,11.651-9.174,22.904-14.942,33.698c-4.065,7.659-8.526,15.078-13.343,22.246c-18.641,27.794-42.6,51.733-70.416,70.363  c-25.694,17.22-54.7,29.905-85.849,36.906c-4.336,0.982-8.714,1.849-13.134,2.602c-8.474,1.442-17.084,2.476-25.83,3.062  c-0.01,0-0.01,0-0.021,0C267.692,511.801,261.862,512,256,512c-14.764,0-29.236-1.254-43.321-3.657C91.93,487.769,0,382.621,0,256  C0,114.615,114.615,0,256,0c132.096,0,240.828,100.059,254.537,228.519v0.031c0.23,2.058,0.418,4.127,0.585,6.207  C511.707,241.758,512,248.842,512,256z"/>
<circle style="fill:#EAA7F4;" cx="119.118" cy="101.554" r="87.928"/>
<g>
	<path style="fill:#D27CE2;" d="M78.821,101.555c0-40.303,27.127-74.247,64.111-84.634c-7.577-2.127-15.556-3.29-23.812-3.29   c-48.558,0-87.924,39.364-87.924,87.924c0,48.558,39.364,87.923,87.924,87.923c8.256,0,16.237-1.163,23.812-3.29   C105.947,175.801,78.821,141.856,78.821,101.555z"/>
	<circle style="fill:#D27CE2;" cx="175.167" cy="215.155" r="87.928"/>
</g>
<path style="fill:#BF5AD6;" d="M134.87,215.153c0-40.303,27.127-74.247,64.111-84.634c-7.577-2.127-15.556-3.29-23.812-3.29  c-48.559,0-87.924,39.364-87.924,87.924c0,48.558,39.364,87.923,87.924,87.923c8.256,0,16.237-1.163,23.812-3.29  C161.998,289.4,134.87,255.456,134.87,215.153z"/>
<polygon style="fill:#A14DAF;" points="147.501,231.826 153.851,200.153 125.577,184.529 156.182,174.191 155.576,141.893   179.831,163.23 207.5,146.555 201.149,178.229 229.423,193.854 198.818,204.191 199.424,236.49 175.169,215.153 "/>
<circle style="fill:#EAA7F4;" cx="125.43" cy="340.375" r="87.928"/>
<path style="fill:#D27CE2;" d="M85.129,340.372c0-40.303,27.127-74.247,64.111-84.634c-7.577-2.127-15.556-3.29-23.812-3.29  c-48.558,0-87.924,39.364-87.924,87.924c0,48.558,39.364,87.924,87.924,87.924c8.256,0,16.237-1.163,23.812-3.29  C112.255,414.62,85.129,380.675,85.129,340.372z"/>
<polygon style="fill:#A14DAF;" points="122.41,372.535 100.698,348.616 71.336,362.083 81.196,331.321 54.85,312.627   86.421,305.784 89.438,273.621 111.15,297.541 140.513,284.073 130.653,314.835 156.998,333.529 125.426,340.372 "/>
<circle style="fill:#EAA7F4;" cx="324.43" cy="176.786" r="87.928"/>
<path style="fill:#D27CE2;" d="M284.133,176.783c0-40.303,27.127-74.247,64.111-84.634c-7.577-2.127-15.556-3.29-23.812-3.29  c-48.559,0-87.924,39.364-87.924,87.924c0,48.558,39.364,87.923,87.924,87.923c8.256,0,16.237-1.163,23.812-3.29  C311.259,251.03,284.133,217.086,284.133,176.783z"/>
<path style="fill:#EAA7F4;" d="M398.294,468.835c-29.278,19.623-62.84,33.353-98.983,39.508c-8.474,1.442-17.084,2.476-25.83,3.062  c-41.775-23.855-56.665-76.978-33.196-119.118c23.636-42.423,77.176-57.657,119.599-34.032  C399.35,380.228,415.284,428.116,398.294,468.835z"/>
<path style="fill:#D27CE2;" d="M312.445,505.741c-4.336,0.982-8.714,1.849-13.134,2.602c-8.474,1.442-17.084,2.476-25.83,3.062  c-0.01,0-0.01,0-0.021,0c-26.457-15.151-44.283-43.656-44.283-76.33c0-48.567,39.372-87.928,87.928-87.928  c8.255,0,16.238,1.16,23.813,3.291c-36.989,10.386-64.115,44.325-64.115,84.637C276.804,464.05,290.826,489.733,312.445,505.741z"/>
<polygon style="fill:#A14DAF;" points="290.472,416.785 321.934,409.455 324.453,377.249 346.532,400.83 375.683,386.91   366.3,417.821 392.932,436.106 361.47,443.436 358.951,475.642 336.872,452.059 307.721,465.981 317.104,435.069 "/>
<path style="fill:#D27CE2;" d="M512,256c0,52.736-15.945,101.752-43.29,142.472c-4.566-1.62-9.049-3.636-13.417-6.071  c-42.423-23.625-57.657-77.176-34.032-119.599c18.233-32.737,54.272-49.288,89.276-44.283C511.509,237.547,512,246.711,512,256z"/>
<path style="fill:#BF5AD6;" d="M457.77,315.58c0,23.521,9.237,44.868,24.283,60.646c-4.065,7.659-8.526,15.078-13.343,22.246  c-34.126-12.079-58.567-44.628-58.567-82.892c0-48.556,39.372-87.918,87.928-87.918c4.232,0,8.391,0.303,12.466,0.888  c0.23,2.058,0.418,4.127,0.585,6.207C479.754,248.184,457.77,279.301,457.77,315.58z"/>
<g>
</g>
<g>
</g>
<g>
</g>
<g>
</g>
<g>
</g>
<g>
</g>
<g>
</g>
<g>
</g>
<g>
</g>
<g>
</g>
<g>
</g>
<g>
</g>
<g>
</g>
<g>
</g>
<g>
</g>
</svg>
