<?xml version="1.0" encoding="iso-8859-1"?>
<!-- Generator: Adobe Illustrator 19.0.0, SVG Export Plug-In . SVG Version: 6.00 Build 0)  -->
<svg xmlns="http://www.w3.org/2000/svg" xmlns:xlink="http://www.w3.org/1999/xlink" version="1.1" id="Capa_1" x="0px" y="0px" viewBox="0 0 512 512" style="enable-background:new 0 0 512 512;" xml:space="preserve">
<path id="SVGCleanerId_0" style="fill:#665F60;" d="M511.594,270.551c-1.473,26.228-6.97,52.257-16.489,77.105  c-4.911,12.853-10.899,25.381-17.973,37.46c-4.754,8.129-10,16.06-15.726,23.741c-7.325,9.833-15.454,19.247-24.378,28.171  s-18.338,17.053-28.171,24.378c-7.68,5.737-15.611,10.982-23.741,15.726c-12.079,7.074-24.618,13.072-37.471,17.983  c-24.869,9.519-50.909,15.005-77.126,16.478c-9.53,0.533-19.07,0.543-28.599,0.021c-34.106-1.86-67.909-10.512-99.215-25.966  c-24.451-12.058-47.377-28.265-67.721-48.62c-99.978-99.978-99.978-262.066,0-362.044c10.564-10.564,21.818-20.01,33.626-28.338  c0.846-0.606,1.693-1.191,2.55-1.776c99.717-68.578,237.208-58.547,325.869,30.115c20.345,20.355,36.562,43.281,48.641,67.732  c15.433,31.306,24.085,65.099,25.945,99.205C512.137,251.46,512.126,261.021,511.594,270.551z"/>
<path id="SVGCleanerId_1" style="fill:#D8CDA1;" d="M511.594,270.551c-1.473,26.228-6.97,52.257-16.489,77.105  c-4.911,12.853-10.899,25.381-17.973,37.46c-4.754,8.129-10,16.06-15.726,23.741c-7.325,9.833-15.454,19.247-24.378,28.171  s-18.338,17.053-28.171,24.378c-7.68,5.737-15.611,10.982-23.741,15.726c-12.079,7.074-24.618,13.072-37.471,17.983  c-24.869,9.519-50.909,15.005-77.126,16.478c-9.53,0.533-19.07,0.543-28.599,0.021c-34.106-1.86-67.909-10.512-99.215-25.966  c-67.084-79.602-80.407-207.709-22.34-298.994L24.629,90.908l32.037-9.362l24.869-24.869l-4.096-41.201l-0.481-4.807  l109.696,109.696c91.284-58.066,219.413-44.744,299.015,22.351c15.433,31.306,24.085,65.099,25.945,99.205  C512.137,251.46,512.126,261.021,511.594,270.551z"/>
<path id="SVGCleanerId_2" style="fill:#EAE1B8;" d="M511.594,270.551c-1.473,26.228-6.97,52.257-16.489,77.105  c-4.911,12.853-10.899,25.381-17.973,37.46c-4.754,8.129-10,16.06-15.726,23.741c-7.325,9.833-15.454,19.247-24.378,28.171  s-18.338,17.053-28.171,24.378c-7.68,5.737-15.611,10.982-23.741,15.726c-12.079,7.074-24.618,13.072-37.471,17.983  c-24.869,9.519-50.909,15.005-77.126,16.478c-26.207-10.731-51.87-27.774-75.694-51.598  c-77.878-77.888-117.857-194.732-74.461-273.341l66.29-66.29c78.599-43.385,195.453-3.417,273.331,74.472  C483.819,218.671,500.862,244.334,511.594,270.551z"/>
<path id="SVGCleanerId_3" style="fill:#FCF4D0;" d="M477.132,385.116c-4.754,8.129-10,16.06-15.726,23.741  c-7.325,9.833-15.454,19.247-24.378,28.171s-18.338,17.053-28.171,24.378c-7.68,5.737-15.611,10.982-23.741,15.726  c-36.06-13.114-78.515-41.421-122.266-85.172c-77.868-77.867-133.854-178.702-121.786-226.006v-0.01L56.666,81.545l24.869-24.869  l84.398,84.398h0.01c47.314-12.079,148.139,43.918,226.006,121.786C435.701,306.611,464.008,349.066,477.132,385.116z"/>
<g>
	<path id="SVGCleanerId_0_1_" style="fill:#665F60;" d="M511.594,270.551c-1.473,26.228-6.97,52.257-16.489,77.105   c-4.911,12.853-10.899,25.381-17.973,37.46c-4.754,8.129-10,16.06-15.726,23.741c-7.325,9.833-15.454,19.247-24.378,28.171   s-18.338,17.053-28.171,24.378c-7.68,5.737-15.611,10.982-23.741,15.726c-12.079,7.074-24.618,13.072-37.471,17.983   c-24.869,9.519-50.909,15.005-77.126,16.478c-9.53,0.533-19.07,0.543-28.599,0.021c-34.106-1.86-67.909-10.512-99.215-25.966   c-24.451-12.058-47.377-28.265-67.721-48.62c-99.978-99.978-99.978-262.066,0-362.044c10.564-10.564,21.818-20.01,33.626-28.338   c0.846-0.606,1.693-1.191,2.55-1.776c99.717-68.578,237.208-58.547,325.869,30.115c20.345,20.355,36.562,43.281,48.641,67.732   c15.433,31.306,24.085,65.099,25.945,99.205C512.137,251.46,512.126,261.021,511.594,270.551z"/>
</g>
<g>
	<path id="SVGCleanerId_1_1_" style="fill:#D8CDA1;" d="M511.594,270.551c-1.473,26.228-6.97,52.257-16.489,77.105   c-4.911,12.853-10.899,25.381-17.973,37.46c-4.754,8.129-10,16.06-15.726,23.741c-7.325,9.833-15.454,19.247-24.378,28.171   s-18.338,17.053-28.171,24.378c-7.68,5.737-15.611,10.982-23.741,15.726c-12.079,7.074-24.618,13.072-37.471,17.983   c-24.869,9.519-50.909,15.005-77.126,16.478c-9.53,0.533-19.07,0.543-28.599,0.021c-34.106-1.86-67.909-10.512-99.215-25.966   c-67.084-79.602-80.407-207.709-22.34-298.994L24.629,90.908l32.037-9.362l24.869-24.869l-4.096-41.201l-0.481-4.807   l109.696,109.696c91.284-58.066,219.413-44.744,299.015,22.351c15.433,31.306,24.085,65.099,25.945,99.205   C512.137,251.46,512.126,261.021,511.594,270.551z"/>
</g>
<g>
	<path id="SVGCleanerId_2_1_" style="fill:#EAE1B8;" d="M511.594,270.551c-1.473,26.228-6.97,52.257-16.489,77.105   c-4.911,12.853-10.899,25.381-17.973,37.46c-4.754,8.129-10,16.06-15.726,23.741c-7.325,9.833-15.454,19.247-24.378,28.171   s-18.338,17.053-28.171,24.378c-7.68,5.737-15.611,10.982-23.741,15.726c-12.079,7.074-24.618,13.072-37.471,17.983   c-24.869,9.519-50.909,15.005-77.126,16.478c-26.207-10.731-51.87-27.774-75.694-51.598   c-77.878-77.888-117.857-194.732-74.461-273.341l66.29-66.29c78.599-43.385,195.453-3.417,273.331,74.472   C483.819,218.671,500.862,244.334,511.594,270.551z"/>
</g>
<g>
	<path id="SVGCleanerId_3_1_" style="fill:#FCF4D0;" d="M477.132,385.116c-4.754,8.129-10,16.06-15.726,23.741   c-7.325,9.833-15.454,19.247-24.378,28.171s-18.338,17.053-28.171,24.378c-7.68,5.737-15.611,10.982-23.741,15.726   c-36.06-13.114-78.515-41.421-122.266-85.172c-77.868-77.867-133.854-178.702-121.786-226.006v-0.01L56.666,81.545l24.869-24.869   l84.398,84.398h0.01c47.314-12.079,148.139,43.918,226.006,121.786C435.701,306.611,464.008,349.066,477.132,385.116z"/>
</g>
<g>
</g>
<g>
</g>
<g>
</g>
<g>
</g>
<g>
</g>
<g>
</g>
<g>
</g>
<g>
</g>
<g>
</g>
<g>
</g>
<g>
</g>
<g>
</g>
<g>
</g>
<g>
</g>
<g>
</g>
</svg>
