<?xml version="1.0" encoding="iso-8859-1"?>
<!-- Generator: Adobe Illustrator 19.0.0, SVG Export Plug-In . SVG Version: 6.00 Build 0)  -->
<svg xmlns="http://www.w3.org/2000/svg" xmlns:xlink="http://www.w3.org/1999/xlink" version="1.1" id="Capa_1" x="0px" y="0px" viewBox="0 0 512.001 512.001" style="enable-background:new 0 0 512.001 512.001;" xml:space="preserve">
<path style="fill:#52C8D3;" d="M437.019,74.983c78.348,78.348,95.297,194.835,50.848,289.688  c-12.265,26.185-29.214,50.715-50.848,72.348c-21.626,21.626-46.149,38.568-72.334,50.833  c-94.853,44.464-211.356,27.515-289.704-50.833c-99.974-99.974-99.974-262.063,0-362.037S337.045-24.991,437.019,74.983z"/>
<g>
	<path style="fill:#FCF4D0;" d="M487.866,364.671c-12.265,26.185-29.214,50.715-50.848,72.348   c-21.626,21.626-46.149,38.568-72.334,50.833c-5.046-6.953-10.256-13.802-15.626-20.532   c-13.595-17.053-28.165-33.337-43.637-48.809l-32.058-32.058l0.007-0.007l-19.158-113.347l132.232,0.274l0.007-0.007l32.058,32.058   C440.071,326.983,463.256,346.784,487.866,364.671z"/>
	<path style="fill:#FCF4D0;" d="M419.612,104.757c37.41,37.41,37.41,98.044,0.008,135.446L240.189,419.635   c-7.283,7.283-15.448,13.15-24.149,17.582c-13.642,6.989-28.598,10.472-43.579,10.472c-24.503,0-49.022-9.349-67.727-28.053   c-71.451-71.451-71.443-187.302,0.008-258.753l56.124-56.124c35.726-35.726,82.553-53.593,129.372-53.584   C337.067,51.173,383.886,69.032,419.612,104.757z"/>
</g>
<g>
	<path style="fill:#D8CDA1;" d="M180.808,293.898l92.556,92.556l-33.174,33.174c-7.285,7.285-15.45,13.159-24.145,17.585   l-35.229-35.229c-14.925-14.925-22.395-34.483-22.395-54.047C158.421,328.386,165.882,308.822,180.808,293.898z"/>
	<path style="fill:#D8CDA1;" d="M401.982,180.816l35.229,35.229c-4.434,8.704-10.299,16.86-17.585,24.145l-33.174,33.174   l-92.556-92.556c14.917-14.917,34.483-22.38,54.04-22.387C367.493,158.428,387.058,165.891,401.982,180.816z"/>
</g>
<g>
	<path style="fill:#EAE1B8;" d="M200.757,313.846l72.607,72.607l-33.174,33.174c-7.285,7.285-15.45,13.159-24.145,17.585   l-15.279-15.279c-14.925-14.925-22.395-34.483-22.395-54.047C178.369,348.336,185.831,328.771,200.757,313.846z"/>
	<path style="fill:#EAE1B8;" d="M421.931,200.765l15.279,15.279c-4.434,8.704-10.299,16.86-17.585,24.145l-33.174,33.174   l-72.607-72.607c14.917-14.917,34.483-22.38,54.04-22.387C387.442,178.377,407.007,185.84,421.931,200.765z"/>
</g>
<g>
</g>
<g>
</g>
<g>
</g>
<g>
</g>
<g>
</g>
<g>
</g>
<g>
</g>
<g>
</g>
<g>
</g>
<g>
</g>
<g>
</g>
<g>
</g>
<g>
</g>
<g>
</g>
<g>
</g>
</svg>
