<?xml version="1.0" encoding="iso-8859-1"?>
<!-- Generator: Adobe Illustrator 19.0.0, SVG Export Plug-In . SVG Version: 6.00 Build 0)  -->
<svg xmlns="http://www.w3.org/2000/svg" xmlns:xlink="http://www.w3.org/1999/xlink" version="1.1" id="Capa_1" x="0px" y="0px" viewBox="0 0 512 512" style="enable-background:new 0 0 512 512;" xml:space="preserve">
<path style="fill:#F9CF2A;" d="M506.308,309.796c-1.996,9.362-4.524,18.62-7.586,27.753c-0.303,0.899-0.606,1.797-0.92,2.696  c-2.414,6.959-5.141,13.845-8.171,20.605c-8.526,18.996-19.487,37.178-32.883,54.053c-0.7,0.878-1.411,1.755-2.121,2.633  c-2.017,2.476-4.096,4.932-6.228,7.356c-0.449,0.512-0.909,1.034-1.369,1.546c-3.208,3.594-6.552,7.126-10.01,10.585  c-3.459,3.459-6.99,6.802-10.585,10.01c-0.512,0.46-1.024,0.92-1.546,1.369c-2.414,2.132-4.869,4.201-7.335,6.228l-0.01,0.01  c-0.878,0.711-1.745,1.411-2.633,2.111c-16.875,13.396-35.067,24.357-54.074,32.883c-6.75,3.041-13.615,5.757-20.553,8.171  c-0.909,0.313-1.829,0.627-2.738,0.93l-0.01-0.01c-9.132,3.062-18.401,5.59-27.763,7.586c-82.035,17.554-171.04-5.538-234.79-69.288  c-99.976-99.976-99.976-262.062,0-362.038s262.062-99.976,362.038,0C500.781,138.736,523.873,227.75,506.308,309.796z"/>
<path style="fill:#665F60;" d="M506.308,309.796c-1.996,9.362-4.524,18.62-7.586,27.753c-0.303,0.899-0.606,1.797-0.92,2.696  c-2.414,6.959-5.141,13.845-8.171,20.605c-8.526,18.996-19.487,37.178-32.883,54.053c-0.7,0.878-1.411,1.755-2.121,2.633  c-2.017,2.476-4.096,4.932-6.228,7.356c-0.136-0.167-0.272-0.345-0.408-0.512L326.271,267.279  c-11.881-14.817-31.525-19.258-48.024-12.831c-5.225,2.027-10.125,5.162-14.388,9.415c-17.659,17.669-16.081,46.759,3.417,62.412  l157.101,121.721c0.167,0.136,0.345,0.272,0.512,0.408c-2.414,2.132-4.869,4.201-7.335,6.228l-0.01,0.01  c-0.878,0.711-1.745,1.411-2.633,2.111c-16.875,13.396-35.067,24.357-54.074,32.883c-6.75,3.041-13.615,5.757-20.553,8.171  c-0.909,0.313-1.829,0.627-2.738,0.93l-0.01-0.01c-9.132,3.062-18.401,5.59-27.763,7.586  c-59.81-10.115-126.757-32.497-184.112-89.862c-63.164-63.154-83.394-124.291-84.042-176.025  C40.271,130.772,130.759,40.284,240.412,41.621c2.048,0.021,4.106,0.084,6.154,0.199c50.417,2.132,109.224,23.186,169.891,83.843  C473.812,183.029,496.183,249.996,506.308,309.796z"/>
<path style="fill:#F9395E;" d="M497.803,340.244c-2.414,6.959-5.141,13.845-8.171,20.605c-8.526,18.996-19.487,37.178-32.883,54.053  l-35.809-46.227l-81.147-104.72l-3.594-4.629c-15.026-18.746-40.166-25.454-62.569-16.718c-7.032,2.727-13.354,6.855-18.756,12.267  c-10.982,10.982-16.792,26.154-15.935,41.65c0.836,15.486,8.265,29.947,20.376,39.665l4.639,3.594l104.731,81.158l46.227,35.809  c-16.875,13.396-35.067,24.357-54.074,32.883c-6.75,3.041-13.615,5.757-20.553,8.171c-0.178-0.021-0.345-0.042-0.522-0.063  c-23.28-2.759-48.201-6.97-73.394-14.179c-17.554-5.016-34.064-11.17-49.612-18.453c-3.866-1.808-7.67-3.689-11.41-5.653  c-1.881-0.972-3.741-1.975-5.58-2.988c-1.379-0.752-2.759-1.526-4.117-2.309c-1.202-0.679-2.393-1.379-3.584-2.079  c-0.596-0.345-1.181-0.7-1.766-1.045c-1.954-1.17-3.887-2.372-5.81-3.594c-0.554-0.345-1.097-0.69-1.641-1.045  c-1.63-1.034-3.25-2.1-4.848-3.187c-0.711-0.47-1.411-0.951-2.111-1.421c-1.473-1.003-2.926-2.027-4.368-3.062  c-0.794-0.564-1.588-1.139-2.382-1.724c-3.918-2.832-7.753-5.789-11.515-8.84c-1.139-0.92-2.267-1.849-3.385-2.79  c-1.097-0.92-2.205-1.849-3.291-2.779c-0.021-0.021-0.042-0.031-0.052-0.042c-1.076-0.93-2.142-1.86-3.197-2.8  c-0.512-0.449-1.024-0.909-1.536-1.369c-0.648-0.585-1.296-1.17-1.933-1.745c-1.076-0.982-2.132-1.975-3.187-2.978  c-1.076-1.014-2.153-2.038-3.208-3.062c-1.066-1.034-2.121-2.079-3.176-3.135c-1.003-1.003-1.996-2.006-2.988-3.02  c-1.975-2.006-3.908-4.033-5.799-6.05c-1.891-2.027-3.751-4.054-5.569-6.081c-1.829-2.038-3.615-4.075-5.36-6.123  c-0.878-1.024-1.735-2.048-2.591-3.072v-0.01c-37.92-45.443-57.397-93.383-58.024-142.849  c-0.596-49.581,18.599-96.403,54.063-131.867h0.01c0.815-0.815,1.64-1.63,2.466-2.435c1.661-1.599,3.344-3.166,5.057-4.702  c3.406-3.062,6.907-5.977,10.501-8.756c0.449-0.345,0.899-0.7,1.348-1.034c1.055-0.815,2.121-1.599,3.197-2.382  c1.829-1.317,3.678-2.612,5.538-3.866c1.954-1.317,3.929-2.591,5.925-3.824c0.711-0.439,1.432-0.878,2.152-1.306  c1.442-0.857,2.894-1.703,4.357-2.529c1.463-0.815,2.936-1.62,4.42-2.403c0.742-0.387,1.484-0.773,2.236-1.16  c0.899-0.46,1.808-0.92,2.727-1.358c0.408-0.199,0.805-0.397,1.212-0.585c0.324-0.157,0.637-0.313,0.961-0.46  c0.397-0.188,0.794-0.376,1.191-0.554c2.759-1.285,5.559-2.487,8.38-3.626c2.069-0.825,4.148-1.62,6.238-2.372  c0.7-0.261,1.4-0.512,2.111-0.752c1.181-0.408,2.372-0.805,3.563-1.191c1.129-0.366,2.257-0.721,3.396-1.055  c0.679-0.209,1.358-0.418,2.048-0.606c0.585-0.167,1.181-0.334,1.766-0.502c2.393-0.658,4.807-1.275,7.231-1.839  c0.188-0.052,0.366-0.094,0.554-0.136c1.055-0.24,2.132-0.47,3.197-0.7c1.223-0.261,2.466-0.512,3.699-0.742  c0.596-0.115,1.181-0.219,1.766-0.324c0.69-0.136,1.39-0.261,2.09-0.366c1.202-0.199,2.403-0.387,3.605-0.564  c1.254-0.178,2.508-0.355,3.762-0.512c0.836-0.104,1.682-0.199,2.518-0.303c0.104-0.01,0.209-0.021,0.313-0.031  c1.891-0.199,3.793-0.376,5.695-0.533c5.496-0.428,11.045-0.616,16.635-0.543c0.94,0.01,1.891,0.031,2.832,0.052  c0.94,0.042,1.881,0.084,2.811,0.125h0.136c47.428,2.027,93.404,21.441,137.06,57.846h0.01c8.203,6.834,16.321,14.263,24.357,22.298  c26.06,26.06,44.44,54.241,57.564,82.129c8.422,17.899,14.681,35.683,19.414,52.705c0.324,1.139,0.627,2.267,0.93,3.396  c0.313,1.17,0.616,2.341,0.93,3.511c0.303,1.191,0.596,2.382,0.888,3.574c0.408,1.651,0.805,3.302,1.191,4.953  c0.773,3.302,1.494,6.593,2.184,9.874c0.293,1.452,0.596,2.905,0.878,4.357c0.303,1.546,0.606,3.082,0.888,4.618  c1.191,6.29,2.194,12.372,3.051,18.234c0.888,5.998,1.672,11.922,2.361,17.742C497.761,339.922,497.782,340.077,497.803,340.244z"/>
<g>
	<path style="fill:#D92F52;" d="M186.427,186.425l68.445,68.445c-10.979,10.979-16.787,26.157-15.934,41.65   c0.836,15.493,8.263,29.952,20.376,39.672l4.639,3.597l-47.198,125.319c-30.913-14.495-58.033-33.575-82.104-57.646   c-8.03-8.03-15.466-16.149-22.299-24.349L186.427,186.425z"/>
	<path style="fill:#D92F52;" d="M414.911,456.751c-16.875,13.396-35.067,24.357-54.074,32.883   c-6.75,3.041-13.615,5.757-20.553,8.171c-0.178-0.021-0.345-0.042-0.522-0.063l28.923-76.8L414.911,456.751z"/>
	<path style="fill:#D92F52;" d="M108.387,108.385l78.04,78.04l196.688-74.074c-45.453-37.919-93.389-57.404-142.853-58.025   C190.689,53.723,143.85,72.921,108.387,108.385z"/>
	<path style="fill:#D92F52;" d="M420.942,368.68l76.799-28.927c-2.761-23.279-6.96-48.196-14.171-73.391   c-5.018-17.552-11.168-34.061-18.46-49.608l-125.319,47.198L420.942,368.68z"/>
</g>
<circle style="fill:#F2E3E3;" cx="214.028" cy="214.039" r="32.423"/>
<g>
</g>
<g>
</g>
<g>
</g>
<g>
</g>
<g>
</g>
<g>
</g>
<g>
</g>
<g>
</g>
<g>
</g>
<g>
</g>
<g>
</g>
<g>
</g>
<g>
</g>
<g>
</g>
<g>
</g>
</svg>
