<?xml version="1.0" encoding="iso-8859-1"?>
<!-- Generator: Adobe Illustrator 19.0.0, SVG Export Plug-In . SVG Version: 6.00 Build 0)  -->
<svg xmlns="http://www.w3.org/2000/svg" xmlns:xlink="http://www.w3.org/1999/xlink" version="1.1" id="Capa_1" x="0px" y="0px" viewBox="0 0 511.999 511.999" style="enable-background:new 0 0 511.999 511.999;" xml:space="preserve">
<path style="fill:#EAA7F4;" d="M437.018,74.981c18.035,18.035,32.82,38.095,44.347,59.449c11.512,21.323,19.786,43.933,24.804,67.11  c0.591,2.733,1.138,5.468,1.648,8.209c3.982,21.819,5.12,44.058,3.414,66.113c-0.214,2.83-0.481,5.667-0.798,8.497  c-2.409,21.708-7.581,43.164-15.538,63.801c-0.303,0.775-0.606,1.552-0.916,2.32c-1.101,2.8-2.261,5.586-3.465,8.356  c-6.842,15.619-15.332,30.699-25.454,44.975c-4.625,6.532-9.59,12.886-14.91,19.062c-4.16,4.84-8.541,9.561-13.129,14.149  c-1.212,1.212-2.446,2.416-3.672,3.599c-9.361,9.007-19.247,17.149-29.547,24.449c-10.011,7.1-20.422,13.388-31.135,18.87  c-88.124,45.137-196.942,35.828-276.524-27.958l-0.007-0.007c-7.322-5.859-14.371-12.169-21.153-18.951  c-99.975-99.975-99.975-262.065,0-362.039S337.043-24.994,437.018,74.981z"/>
<path style="fill:#F2B54D;" d="M431.44,179.965c42.75,42.75,64.051,98.837,63.897,154.879c-0.007,4.441-0.163,8.881-0.443,13.314  c-7.477,19.447-17.43,38.147-29.835,55.65c-8.253,11.652-17.599,22.772-28.04,33.211c-10.441,10.44-21.559,19.786-33.219,28.047  c-41.908,29.702-90.746,45.307-139.932,46.806c0,0-0.015,0-0.007-0.007c-59.22,1.825-118.963-16.809-167.72-55.888  C38.945,371.15,47.87,255.017,122.931,179.957C208.12,94.767,346.25,94.774,431.44,179.965z"/>
<g>
	<circle style="fill:#E59F32;" cx="322.349" cy="286.71" r="9.796"/>
	<path style="fill:#E59F32;" d="M495.336,334.844c-0.007,4.441-0.163,8.881-0.443,13.314c-0.303,0.775-0.606,1.552-0.916,2.32   c-1.101,2.8-2.261,5.586-3.465,8.356c-6.842,15.619-15.332,30.699-25.454,44.975c-4.625,6.532-9.59,12.886-14.91,19.062   c-4.16,4.84-8.541,9.561-13.129,14.149c-1.212,1.212-2.446,2.416-3.672,3.599c-9.361,9.007-19.247,17.149-29.547,24.449   c-10.011,7.1-20.422,13.388-31.135,18.87c-88.124,45.137-196.942,35.828-276.524-27.958l-0.007-0.007   c-57.18-84.828-48.255-200.961,26.799-276.015c11.416-11.416,23.791-21.279,36.854-29.643   c-54.011,84.422-44.132,197.887,29.643,271.663c4.174,4.174,8.482,8.156,12.908,11.918c25.505,21.752,59.316-14.955,35.517-38.561   c-5.349-5.305-9.198-8.194-9.198-8.194L495.336,334.844z"/>
</g>
<path style="fill:#F2B54D;" d="M481.364,134.429c11.512,21.323,19.786,43.933,24.804,67.11c0.591,2.733,1.138,5.468,1.648,8.209  c3.982,21.819,5.12,44.058,3.414,66.113c-0.214,2.83-0.481,5.667-0.798,8.497c-2.408,21.708-7.581,43.164-15.538,63.801  c-0.303,0.775-0.606,1.552-0.916,2.32c-1.101,2.8-2.261,5.586-3.465,8.356c-6.842,15.619-15.332,30.699-25.454,44.975  c-4.625,6.532-9.59,12.886-14.91,19.062c-4.16,4.84-8.541,9.561-13.129,14.149c-1.212,1.212-2.446,2.416-3.672,3.599  c-70.494,19.69-149.353,1.862-204.693-53.478L481.364,134.429z"/>
<g>
	<path style="fill:#F9EF4A;" d="M376.695,239.104L376.695,239.104L376.695,239.104z"/>
	<path style="fill:#F9EF4A;" d="M507.816,209.748c3.982,21.819,5.12,44.058,3.414,66.113l-36.655-11.209L392.14,239.45   l67.842-17.423L507.816,209.748z"/>
	<path style="fill:#F9EF4A;" d="M385.594,253.917l104.917,104.917c-0.074,0.178-0.156,0.347-0.229,0.525   c-6.804,15.435-15.213,30.33-25.225,44.45c-4.625,6.532-9.59,12.886-14.91,19.062c-3.835,1.53-7.713,2.94-11.615,4.227   L385.594,253.917z"/>
	<path style="fill:#F9EF4A;" d="M510.431,284.358c-2.408,21.708-7.581,43.164-15.538,63.801c-0.303,0.775-0.606,1.552-0.916,2.32   L391.505,248.006l85.745,26.207L510.431,284.358z"/>
	<path style="fill:#F9EF4A;" d="M481.364,134.429c11.512,21.323,19.786,43.933,24.804,67.11l-49.326,12.664l-74.344,19.092   L481.364,134.429z"/>
	<path style="fill:#F9EF4A;" d="M377.045,254.546l-45.508,177.218c32.585,7.605,66.717,6.86,98.997-2.235L377.045,254.546z"/>
	<path style="fill:#F9EF4A;" d="M370.89,244.911L236.782,379.019c24.955,24.955,54.922,41.839,86.658,50.676L370.89,244.911z"/>
</g>
<g>
	<circle style="fill:#E59F32;" cx="216.783" cy="218.279" r="9.796"/>
	<circle style="fill:#E59F32;" cx="131.602" cy="235.97" r="9.796"/>
	<circle style="fill:#E59F32;" cx="212.666" cy="292.77" r="9.796"/>
	<circle style="fill:#E59F32;" cx="316.8" cy="465.691" r="9.796"/>
	<circle style="fill:#E59F32;" cx="201.548" cy="360.961" r="9.796"/>
	<circle style="fill:#E59F32;" cx="133.462" cy="301.485" r="9.796"/>
	<circle style="fill:#E59F32;" cx="244.89" cy="163.015" r="9.796"/>
	<circle style="fill:#E59F32;" cx="269.153" cy="233.514" r="9.796"/>
</g>
<g>
	<path style="fill:#FFEC4A;" d="M477.249,274.213l33.182,10.145c-2.408,21.708-7.581,43.164-15.538,63.801   c-0.303,0.775-0.606,1.552-0.916,2.32l-4.307-4.307C487.992,321.308,483.367,296.955,477.249,274.213z"/>
	<path style="fill:#FFEC4A;" d="M459.982,222.028l47.833-12.28c3.982,21.819,5.12,44.058,3.414,66.113l-36.655-11.209   C470.148,249.528,465.131,235.202,459.982,222.028z"/>
	<path style="fill:#FFEC4A;" d="M481.364,134.429c11.512,21.323,19.786,43.933,24.804,67.11l-49.326,12.664   c-5.896-14.437-11.866-27.278-17.216-38.036L481.364,134.429z"/>
</g>
<ellipse transform="matrix(-0.9188 -0.3948 0.3948 -0.9188 545.3102 453.42)" style="fill:#FCC54B;" cx="319.301" cy="170.611" rx="36.048" ry="21.943"/>
<ellipse transform="matrix(-0.7071 -0.7071 0.7071 -0.7071 120.6539 435.0556)" style="fill:#665F60;" cx="150.43" cy="192.54" rx="10.813" ry="29.779"/>
<path style="fill:#B16E60;" d="M134.461,193.864c-0.709-0.507-1.362-1.118-1.935-1.831c-0.625-0.776-15.367-19.384-21.64-51.949  c-5.687-29.526-5.303-76.931,28.827-135.089c2.74-4.668,8.744-6.232,13.411-3.492c4.672,2.741,6.231,8.744,3.492,13.411  c-24.668,42.037-33.648,82.537-26.69,120.375c5.177,28.157,17.769,44.33,17.895,44.49c3.347,4.233,2.655,10.39-1.563,13.755  C142.757,196.329,137.933,196.346,134.461,193.864z"/>
<path style="fill:#8CC371;" d="M123.721,156.476C59.451,156.095,7.652,103.68,8.033,39.41c32.135,0.19,61.156,13.392,82.095,34.581  C111.052,95.166,123.911,124.341,123.721,156.476z"/>
<path style="fill:#76B25D;" d="M123.721,156.476C59.451,156.095,7.652,103.68,8.033,39.41L123.721,156.476z"/>
<g>
</g>
<g>
</g>
<g>
</g>
<g>
</g>
<g>
</g>
<g>
</g>
<g>
</g>
<g>
</g>
<g>
</g>
<g>
</g>
<g>
</g>
<g>
</g>
<g>
</g>
<g>
</g>
<g>
</g>
</svg>
