<?xml version="1.0" encoding="iso-8859-1"?>
<!-- Generator: Adobe Illustrator 19.0.0, SVG Export Plug-In . SVG Version: 6.00 Build 0)  -->
<svg xmlns="http://www.w3.org/2000/svg" xmlns:xlink="http://www.w3.org/1999/xlink" version="1.1" id="Capa_1" x="0px" y="0px" viewBox="0 0 512.002 512.002" style="enable-background:new 0 0 512.002 512.002;" xml:space="preserve">
<path style="fill:#F9EF4A;" d="M437.02,74.983c44.116,44.116,68.757,100.321,73.951,157.944c1.869,20.873,1.197,41.922-2.032,62.648  c-8.053,51.779-32.029,101.555-71.92,141.446c-15.612,15.612-32.731,28.786-50.9,39.521c-4.507,2.66-9.073,5.172-13.699,7.536  c-24.383,12.457-50.36,20.747-76.862,24.862c-20.739,3.229-41.804,3.902-62.677,2.017c-57.608-5.194-113.798-29.835-157.9-73.937  c-99.974-99.974-99.974-262.064,0-362.037S337.046-24.992,437.02,74.983z"/>
<path style="fill:#B16E60;" d="M401.548,62.415c52.06,52.06,89.031,111.611,109.423,170.512c1.869,20.873,1.197,41.922-2.032,62.648  c-8.053,51.779-32.029,101.555-71.92,141.446c-15.612,15.612-32.731,28.786-50.9,39.521c-28.254,16.698-59.034,27.5-90.561,32.399  c-20.739,3.229-41.804,3.902-62.677,2.017C173.995,490.565,114.465,453.6,62.413,401.549L401.548,62.415z"/>
<path style="fill:#9E5B50;" d="M372.422,484.077c-24.383,12.457-50.36,20.747-76.862,24.862  c-20.739,3.229-41.804,3.902-62.677,2.017c-58.886-20.392-118.416-57.357-170.468-109.409l42.986-42.986l65.011,2.653  c0,0,8.896,9.65,24.626,23.68c3.036,2.711,6.332,5.579,9.871,8.586C241.032,424.119,302.179,467.845,372.422,484.077z"/>
<ellipse transform="matrix(-0.7071 -0.7071 0.7071 -0.7071 231.982 560.0587)" style="fill:#76B25D;" cx="231.983" cy="231.984" rx="114.331" ry="239.801"/>
<path style="fill:#8CC371;" d="M392.963,71.001c17.836,17.836,19.527,52.177,4.637,94.195  c-16.155,45.628-49.314,95.011-93.354,139.05c-0.849,0.849-1.699,1.699-2.565,2.531c-43.378,42.782-91.741,74.974-136.493,90.832  c-42.018,14.89-76.349,13.191-94.187-4.646c-17.836-17.836-19.535-52.168-4.646-94.187c16.172-45.628,49.323-95.02,93.362-139.059  c29.856-29.856,62.157-54.699,94.094-72.638c15.161-8.536,30.255-15.509,44.958-20.716  C340.786,51.474,375.126,53.163,392.963,71.001z"/>
<g>
	<path style="fill:#B7E2A7;" d="M392.963,71.001c17.836,17.836,19.527,52.177,4.637,94.195   c-16.155,45.628-49.314,95.011-93.354,139.05c-0.849,0.849-1.699,1.699-2.565,2.531c35.087-98.587-17.667-182.41-47.871-219.698   c15.161-8.536,30.255-15.509,44.958-20.716C340.786,51.474,375.126,53.163,392.963,71.001z"/>
	<path style="fill:#B7E2A7;" d="M244.095,244.099c-36.531,36.531-70.872,59.769-97.978,73.749   c13.98-27.106,37.218-61.447,73.749-97.978s70.872-59.769,97.978-73.749C303.864,173.227,280.625,207.568,244.095,244.099z"/>
</g>
<g>
	<path style="fill:#665F60;" d="M275.101,139.141l-2.308-1.468c-4.261-2.709-9.912-1.451-12.621,2.81l-1.468,2.308   c-2.709,4.261-1.451,9.912,2.81,12.621l10.024,6.374l6.374-10.024C280.619,147.501,279.362,141.851,275.101,139.141z"/>
	<path style="fill:#665F60;" d="M139.136,275.105l-1.468-2.308c-2.709-4.261-1.451-9.912,2.81-12.621l2.308-1.468   c4.261-2.709,9.912-1.451,12.621,2.81l6.374,10.024l-10.024,6.374C147.496,280.624,141.846,279.366,139.136,275.105z"/>
	<path style="fill:#665F60;" d="M202.787,190.913h-2.736c-5.049,0-9.143,4.093-9.143,9.143v2.736c0,5.049,4.094,9.143,9.143,9.143   h11.878v-11.878C211.93,195.007,207.836,190.913,202.787,190.913z"/>
	<path style="fill:#665F60;" d="M188.205,324.174l2.308,1.468c4.261,2.709,9.912,1.451,12.621-2.81l1.468-2.308   c2.709-4.261,1.451-9.912-2.81-12.621l-10.024-6.374l-6.374,10.024C182.687,315.815,183.944,321.465,188.205,324.174z"/>
	<path style="fill:#665F60;" d="M324.17,188.211l1.468,2.308c2.709,4.261,1.451,9.912-2.81,12.621l-2.308,1.468   c-4.261,2.709-9.912,1.451-12.621-2.81l-6.374-10.024l10.024-6.374C315.81,182.691,321.461,183.949,324.17,188.211z"/>
	<path style="fill:#665F60;" d="M260.519,272.403h2.736c5.049,0,9.143-4.094,9.143-9.143v-2.736c0-5.049-4.093-9.143-9.143-9.143   h-11.878v11.878C251.377,268.309,255.471,272.403,260.519,272.403z"/>
</g>
<g>
</g>
<g>
</g>
<g>
</g>
<g>
</g>
<g>
</g>
<g>
</g>
<g>
</g>
<g>
</g>
<g>
</g>
<g>
</g>
<g>
</g>
<g>
</g>
<g>
</g>
<g>
</g>
<g>
</g>
</svg>
