<?xml version="1.0" encoding="iso-8859-1"?>
<!-- Generator: Adobe Illustrator 19.0.0, SVG Export Plug-In . SVG Version: 6.00 Build 0)  -->
<svg xmlns="http://www.w3.org/2000/svg" xmlns:xlink="http://www.w3.org/1999/xlink" version="1.1" id="Capa_1" x="0px" y="0px" viewBox="0 0 512 512" style="enable-background:new 0 0 512 512;" xml:space="preserve">
<path style="fill:#94F3FF;" d="M492.234,354.787c-2.132,5.13-4.451,10.209-6.938,15.214c-12.037,24.19-28.118,46.864-48.275,67.02  c-8.411,8.422-17.272,16.123-26.499,23.124c-1.285,0.972-2.581,1.933-3.877,2.884c-11.703,8.537-23.97,15.966-36.655,22.267  c-4.598,2.288-9.258,4.43-13.96,6.416h-0.01c-93.195,39.529-205.052,21.295-281.037-54.69c-99.976-99.976-99.976-262.062,0-362.038  s262.062-99.976,362.038,0C512.673,150.633,531.073,261.832,492.234,354.787z"/>
<path style="fill:#FF6ABB;" d="M353.689,81.449L353.689,81.449c-5.062,5.062-13.404,4.331-17.618-1.457  c-6.188-8.499-13.196-16.587-21.03-24.151c-71.419-68.96-185.845-68.171-256.343,1.73c-72.155,71.541-72.344,188.033-0.566,259.809  c6.9,6.899,14.215,13.131,21.863,18.699c5.786,4.212,6.512,12.553,1.452,17.614l-0.001,0.001c-6.652,6.652-6.652,17.437,0,24.089  l0,0c6.652,6.652,17.437,6.652,24.089,0l18.211-18.211c65.137,24.221,141.277,10.163,193.631-42.191s66.412-128.494,42.191-193.631  l18.211-18.211c6.652-6.652,6.652-17.437,0-24.089l0,0C371.127,74.796,360.342,74.796,353.689,81.449z"/>
<path style="fill:#ED50A7;" d="M179.483,303.834l-18.211,18.211c-6.652,6.652-17.437,6.652-24.089,0  c-6.652-6.652-6.652-17.437,0-24.089l0.001-0.001c5.06-5.06,4.333-13.402-1.452-17.614c-7.648-5.567-14.962-11.799-21.863-18.699  C51.874,199.648,43.576,104.3,88.957,33.365c-10.725,6.849-20.882,14.911-30.258,24.206  c-72.155,71.541-72.344,188.033-0.566,259.809c6.9,6.9,14.215,13.131,21.863,18.699c5.786,4.212,6.512,12.553,1.452,17.614  l-0.001,0.001c-6.652,6.652-6.652,17.437,0,24.089s17.437,6.652,24.089,0l18.211-18.211  c65.137,24.221,141.277,10.163,193.631-42.191c9.568-9.568,17.844-19.939,24.854-30.884  C293.29,317.843,232.714,323.629,179.483,303.834z"/>
<path style="fill:#F2B54D;" d="M492.234,354.787c-2.132,5.13-4.451,10.209-6.938,15.214c-12.037,24.19-28.118,46.864-48.275,67.02  c-8.411,8.422-17.272,16.123-26.499,23.124c-1.285,0.972-2.581,1.933-3.877,2.884c-11.703,8.537-23.97,15.966-36.655,22.267  c-4.598,2.288-9.258,4.43-13.96,6.416h-0.01L104.46,378.872l274.402-274.413l12.873,28.547l9.216,20.438L492.234,354.787z"/>
<ellipse transform="matrix(-0.7071 -0.7071 0.7071 -0.7071 298.964 245.9005)" style="fill:#FC81C7;" cx="200.41" cy="61.033" rx="38.496" ry="25.664"/>
<path style="fill:#E59F32;" d="M406.646,463.028c-11.703,8.537-23.97,15.966-36.655,22.267c-4.598,2.288-9.258,4.43-13.96,6.416  L104.46,378.872l75.024-75.035L406.646,463.028z"/>
<path style="fill:#F2B54D;" d="M407.158,117.572l-289.59,289.591c-4.889,4.889-12.815,4.889-17.703,0l-3.003-3.003  c-4.889-4.889-4.889-12.815,0-17.703L386.451,96.866c4.889-4.889,12.815-4.889,17.703,0l3.003,3.003  C412.046,104.758,412.046,112.684,407.158,117.572z"/>
<g>
	<path style="fill:#E59F32;" d="M146.324,357.7c-5.718-5.718-5.718-14.988,0-20.707l-47.96,47.96   c-5.718,5.718-5.718,14.988,0,20.707c5.718,5.719,14.988,5.718,20.706,0l47.96-47.96   C161.312,363.419,152.042,363.419,146.324,357.7z"/>
	<polygon style="fill:#E59F32;" points="391.73,133.007 400.951,153.445 213.378,341.018 198.548,326.189  "/>
</g>
<g>
</g>
<g>
</g>
<g>
</g>
<g>
</g>
<g>
</g>
<g>
</g>
<g>
</g>
<g>
</g>
<g>
</g>
<g>
</g>
<g>
</g>
<g>
</g>
<g>
</g>
<g>
</g>
<g>
</g>
</svg>
