<?xml version="1.0" encoding="iso-8859-1"?>
<!-- Generator: Adobe Illustrator 19.0.0, SVG Export Plug-In . SVG Version: 6.00 Build 0)  -->
<svg xmlns="http://www.w3.org/2000/svg" xmlns:xlink="http://www.w3.org/1999/xlink" version="1.1" id="Capa_1" x="0px" y="0px" viewBox="0 0 512 512" style="enable-background:new 0 0 512 512;" xml:space="preserve">
<path style="fill:#EAA7F4;" d="M505.51,313.395c-4.618,20.187-11.713,39.925-21.295,58.733c0,0-0.01,0.01,0,0.021  c-1.473,2.894-3.009,5.757-4.598,8.61c-0.449,0.805-0.909,1.609-1.369,2.414c-11.024,19.257-24.774,37.397-41.232,53.843  c-16.457,16.457-34.586,30.208-53.854,41.231c-0.794,0.47-1.599,0.92-2.403,1.369c-2.769,1.546-5.559,3.03-8.38,4.462  c-18.787,9.603-38.515,16.729-58.702,21.368c-39.8,9.174-81.376,8.714-121.009-1.369c-42.057-10.689-81.899-32.204-115.137-64.554  c-0.857-0.825-1.703-1.661-2.55-2.508c-99.975-99.975-99.975-262.059,0-362.035s262.059-99.975,362.035,0  c0.846,0.846,1.682,1.703,2.508,2.56c32.35,33.228,53.864,73.08,64.554,115.126C514.141,232.207,514.611,273.679,505.51,313.395z"/>
<g>
	<path style="fill:#CCBFBF;" d="M383.163,478.248c-0.794,0.47-1.599,0.919-2.403,1.369c-2.769,1.546-5.559,3.03-8.38,4.462   c-55.85,28.536-119.985,35.192-179.711,19.999c-42.057-10.689-81.899-32.204-115.137-64.554   c-1.087-18.683,1.233-37.104,6.551-54.491c12.1-39.664,19.623-80.342,22.476-121.26c2.215-31.953,1.557-64.042-2.048-95.879   c0-0.021,0-0.021-0.01-0.031c-1.724-15.527-4.159-30.992-7.304-46.341l33.322,8.997l71.157,19.247   c7.931,14.587,16.53,28.797,25.788,42.59c29.497,43.98,65.536,83.644,106.725,117.916c22.267,18.526,39.654,43.374,49.037,72.954   c0.23,0.721,0.449,1.442,0.679,2.163C393.424,416.913,392.514,449.095,383.163,478.248z"/>
	<path style="fill:#CCBFBF;" d="M484.214,372.128c0,0-0.01,0.01,0,0.021c-1.473,2.894-3.009,5.757-4.598,8.61   c-0.449,0.805-0.909,1.609-1.369,2.414c-29.153,9.352-61.346,10.261-92.87,0.742c-0.721-0.23-1.442-0.449-2.152-0.69   c-29.591-9.373-54.449-26.749-72.975-49.016c-34.252-41.221-73.916-77.249-117.906-106.736   c-13.782-9.258-28.003-17.857-42.6-25.778l-19.226-71.178l-8.997-33.322c15.433,3.166,30.95,5.622,46.54,7.346   c31.796,3.574,63.812,4.221,95.702,2.006c40.908-2.821,81.596-10.355,121.26-22.455c17.377-5.308,35.809-7.628,54.502-6.551   c32.35,33.228,53.864,73.08,64.554,115.126C519.25,252.3,512.626,316.342,484.214,372.128z"/>
</g>
<path style="fill:#E6D7D8;" d="M505.51,313.395c-4.618,20.187-11.713,39.925-21.295,58.733c0,0-0.01,0.01,0,0.021  c-1.473,2.894-3.009,5.757-4.598,8.61c-0.449,0.805-0.909,1.609-1.369,2.414c-11.024,19.257-24.774,37.397-41.232,53.843  c-16.457,16.457-34.586,30.208-53.854,41.231c-0.794,0.47-1.599,0.92-2.403,1.369c-2.769,1.546-5.559,3.03-8.38,4.462  c-18.787,9.603-38.515,16.729-58.702,21.368c-25.955-6.907-50.427-20.543-70.551-40.814c-22.507-22.674-36.644-50.489-42.444-79.673  c-9.362-47.135-24.806-92.598-45.902-135.188c-6.875-13.908-14.357-27.502-22.434-40.751l75.337-77.719  c13.699,8.38,27.784,16.123,42.193,23.228c42.82,21.128,88.544,36.655,135.878,46.31c29.059,5.914,56.748,20.156,79.297,42.715  C485.134,263.627,498.614,287.806,505.51,313.395z"/>
<path style="fill:#C4B5C8;" d="M263.753,106.547c-2.433,16.431-7.049,32.589-13.887,47.99  c-5.845,13.266-13.316,25.974-22.413,37.826c-4.977,6.515-10.436,12.77-16.381,18.714c-5.957,5.957-12.212,11.418-18.727,16.393  c-11.777,9.047-24.398,16.481-37.566,22.301c-15.476,6.888-31.708,11.553-48.226,13.998c2.221-31.956,1.563-64.036-2.035-95.88  c-14.793-19.757-31.012-38.534-48.623-56.143L19.236,75.087l55.845-55.845l36.659,36.659c17.66,17.66,36.486,33.88,56.317,48.648  C199.853,108.123,231.872,108.768,263.753,106.547z"/>
<path style="fill:#B3A8A8;" d="M162.77,242.088c-8.106-25.349-18.597-51.693-31.411-78.757  c-18.184-20.689-37.227-41.021-57.041-60.835L33.073,61.251L19.237,75.086l36.659,36.659c17.61,17.61,33.831,36.386,48.623,56.143  c3.599,31.844,4.257,63.924,2.035,95.88c16.518-2.445,32.75-7.112,48.226-13.998c4.47-1.976,8.87-4.152,13.202-6.5  C166.262,242.911,164.527,242.522,162.77,242.088z"/>
<g>
</g>
<g>
</g>
<g>
</g>
<g>
</g>
<g>
</g>
<g>
</g>
<g>
</g>
<g>
</g>
<g>
</g>
<g>
</g>
<g>
</g>
<g>
</g>
<g>
</g>
<g>
</g>
<g>
</g>
</svg>
