<?xml version="1.0" encoding="iso-8859-1"?>
<!-- Generator: Adobe Illustrator 19.0.0, SVG Export Plug-In . SVG Version: 6.00 Build 0)  -->
<svg xmlns="http://www.w3.org/2000/svg" xmlns:xlink="http://www.w3.org/1999/xlink" version="1.1" id="Capa_1" x="0px" y="0px" viewBox="0 0 512 512" style="enable-background:new 0 0 512 512;" xml:space="preserve">
<path style="fill:#52C8D3;" d="M512,256c0,62.84-22.643,120.414-60.228,164.958c-9.112,10.804-19.111,20.846-29.874,30.02  C377.219,489.033,319.3,512,256,512s-121.219-22.967-165.898-61.022c-10.762-9.174-20.762-19.216-29.874-30.02  C22.643,376.414,0,318.84,0,256C0,114.615,114.615,0,256,0S512,114.615,512,256z"/>
<path style="fill:#F2EEED;" d="M466.296,384.449c-1.39,4.848-6.165,7.805-11.024,7.074c3.427,3.511,3.803,9.101,0.679,13.061  c-3.114,3.95-8.641,4.901-12.863,2.393c1.849,4.556,0.073,9.885-4.326,12.372c-4.389,2.476-9.874,1.243-12.81-2.696  c-0.031,4.901-3.668,9.143-8.662,9.791c-4.754,0.616-9.164-2.247-10.658-6.625c-1.212,4.117-5.016,7.126-9.529,7.126  c-4.441,0-8.192-2.915-9.467-6.928c-1.264,4.012-5.026,6.928-9.467,6.928s-8.192-2.915-9.467-6.928  c-1.264,4.012-5.026,6.928-9.467,6.928c-4.441,0-8.192-2.915-9.467-6.928c-1.264,4.012-5.026,6.928-9.467,6.928  c-0.94,0-1.849-0.136-2.717-0.387c-3.208-0.899-5.747-3.385-6.75-6.541c-1.264,4.012-5.026,6.928-9.467,6.928  c-4.441,0-8.192-2.915-9.467-6.928c-1.264,4.012-5.026,6.928-9.467,6.928c-4.441,0-8.192-2.915-9.467-6.928  c-1.264,4.012-5.026,6.928-9.467,6.928s-8.192-2.915-9.467-6.928c-1.264,4.012-5.026,6.928-9.467,6.928  c-4.441,0-8.192-2.915-9.467-6.928c-1.264,4.012-5.026,6.928-9.467,6.928c-4.441,0-8.192-2.915-9.467-6.928  c-1.264,4.012-5.026,6.928-9.467,6.928c-4.441,0-8.192-2.915-9.467-6.928c-1.264,4.012-5.026,6.928-9.467,6.928  c-4.441,0-8.192-2.915-9.467-6.928c-1.264,4.012-5.026,6.928-9.467,6.928s-8.192-2.915-9.467-6.928  c-0.805,2.55-2.612,4.65-4.963,5.851c-1.358,0.69-2.884,1.076-4.504,1.076c-4.441,0-8.192-2.915-9.467-6.928  c-1.264,4.012-5.026,6.928-9.467,6.928c-4.441,0-8.192-2.915-9.467-6.928c-1.264,4.012-5.026,6.928-9.467,6.928  c-4.441,0-8.192-2.915-9.467-6.928c-1.264,4.012-5.026,6.928-9.467,6.928c-4.545,0-8.38-3.051-9.55-7.231  c-1.567,4.389-6.071,7.199-10.856,6.468c-5.016-0.773-8.579-5.172-8.422-10.125c-3.093,3.803-8.61,4.817-12.904,2.173  c-4.284-2.644-5.851-8.014-3.856-12.497c-4.305,2.372-9.801,1.233-12.779-2.842c-2.988-4.075-2.403-9.676,1.181-13.061  c-4.88,0.522-9.519-2.633-10.71-7.523c-1.17-4.817,1.39-9.676,5.831-11.515c-4.357-1.045-7.596-4.974-7.596-9.655  c0-4.441,2.915-8.192,6.928-9.467c-4.044-1.275-6.959-5.078-6.928-9.55c0.042-4.598,3.208-8.443,7.471-9.529  c-4.138-1.578-6.844-5.799-6.322-10.397c0.533-4.65,4.18-8.171,8.62-8.735c-3.95-2.111-6.092-6.719-4.911-11.243  c1.17-4.524,5.277-7.492,9.738-7.429c-3.605-2.633-5.099-7.471-3.323-11.786c1.776-4.315,6.238-6.719,10.658-6.05  c-3.229-3.093-4.044-8.098-1.703-12.131c2.341-4.044,7.084-5.81,11.379-4.545c-2.769-3.5-2.915-8.568-0.052-12.246  c2.853-3.688,7.795-4.807,11.87-2.988c-2.288-3.835-1.755-8.871,1.567-12.142s8.359-3.73,12.163-1.39  c-1.755-4.106-0.564-9.028,3.156-11.828h0.01c3.72-2.8,8.788-2.591,12.246,0.24c-1.191-4.305,0.658-9.028,4.723-11.295  c4.075-2.278,9.059-1.379,12.11,1.881c-0.606-4.42,1.86-8.85,6.207-10.553c4.336-1.714,9.164-0.146,11.734,3.5  c0-4.462,3.03-8.505,7.565-9.624c2.163-0.533,4.336-0.303,6.248,0.502c0.731-4.754,4.848-8.391,9.812-8.391  c1.902,0,3.678,0.533,5.183,1.452c1.223-3.908,4.796-6.802,9.122-6.969c4.535-0.167,8.474,2.748,9.801,6.855  c1.254-4.054,5.026-7.001,9.488-7.001c4.441,0,8.202,2.915,9.467,6.938c1.275-4.023,5.026-6.938,9.467-6.938  s8.202,2.915,9.467,6.938c1.275-4.023,5.026-6.938,9.467-6.938s8.202,2.915,9.467,6.938c1.275-4.023,5.026-6.938,9.467-6.938  c4.441,0,8.202,2.915,9.467,6.938c1.275-4.023,5.026-6.938,9.467-6.938c4.441,0,8.202,2.915,9.467,6.938  c1.275-4.023,5.026-6.938,9.467-6.938c4.451,0,8.213,2.926,9.477,6.959c1.306-4.106,5.204-7.022,9.728-6.896  c4.274,0.115,7.837,2.905,9.132,6.729c1.776-1.567,4.106-2.508,6.666-2.487c5.13,0.042,9.31,3.96,9.801,8.955  c1.494-0.387,3.103-0.428,4.712-0.052c4.545,1.066,7.628,5.089,7.68,9.55c2.539-3.668,7.335-5.287,11.692-3.626  c4.368,1.661,6.886,6.071,6.322,10.512c3.02-3.302,8.004-4.242,12.1-1.996c4.075,2.247,5.966,6.938,4.817,11.243  c3.427-2.853,8.485-3.124,12.236-0.366s5.005,7.67,3.291,11.797c3.783-2.382,8.829-1.985,12.184,1.254  c3.354,3.239,3.939,8.276,1.693,12.131c4.065-1.849,9.017-0.773,11.912,2.884c2.884,3.657,2.79,8.714,0.042,12.246  c4.274-1.296,9.038,0.428,11.41,4.441c2.382,4.012,1.609,9.007-1.567,12.142c4.347-0.711,8.777,1.567,10.647,5.757  c0.021,0.052,0.042,0.104,0.063,0.157c0.01,0.01,0.021,0.031,0.021,0.052c0.01,0.01,0.01,0.021,0.021,0.031  c0.219,0.522,0.397,1.066,0.522,1.599c0.282,0.47,0.533,0.972,0.742,1.505c1.724,4.336,0.167,9.164-3.469,11.745  c4.462,0,8.526,3.03,9.644,7.555c1.108,4.535-1.076,9.101-5.036,11.17c4.43,0.596,8.046,4.138,8.547,8.777  c0.502,4.618-2.267,8.84-6.437,10.376c4.232,1.128,7.356,4.995,7.356,9.582c0,4.441-2.905,8.192-6.917,9.467  c3.992,1.264,6.907,4.984,6.938,9.404c0.031,4.775-3.323,8.798-7.816,9.77C465.262,374.627,467.686,379.632,466.296,384.449z"/>
<path style="fill:#E6E2E0;" d="M132.336,416.057c-3.093,3.803-8.61,4.817-12.904,2.173c-4.284-2.644-5.851-8.014-3.856-12.497  c-4.305,2.372-9.801,1.233-12.779-2.842c-2.988-4.075-2.403-9.676,1.181-13.061c-4.88,0.522-9.519-2.633-10.71-7.523  c-1.17-4.817,1.39-9.676,5.831-11.515c-4.357-1.045-7.596-4.974-7.596-9.655c0-4.441,2.915-8.192,6.928-9.467  c-4.044-1.275-6.959-5.078-6.928-9.55c0.042-4.598,3.208-8.443,7.471-9.529c-4.138-1.578-6.844-5.799-6.322-10.397  c0.533-4.65,4.18-8.171,8.62-8.735c-3.95-2.111-6.092-6.719-4.911-11.243c1.17-4.524,5.277-7.492,9.738-7.429  c-3.605-2.633-5.099-7.471-3.323-11.786s6.238-6.719,10.658-6.05c-3.229-3.093-4.044-8.098-1.703-12.131  c2.341-4.044,7.084-5.81,11.379-4.545c-2.769-3.5-2.915-8.568-0.052-12.246c2.853-3.688,7.795-4.807,11.87-2.988  c-2.288-3.835-1.755-8.871,1.567-12.142c3.323-3.271,8.359-3.73,12.163-1.39c-1.755-4.106-0.564-9.028,3.156-11.828h0.01  c3.72-2.8,8.788-2.591,12.246,0.24c-1.191-4.305,0.658-9.028,4.723-11.295c4.075-2.278,9.059-1.379,12.11,1.881  c-0.606-4.42,1.86-8.85,6.207-10.553c4.336-1.714,9.164-0.146,11.734,3.5c0-4.462,3.03-8.505,7.565-9.624  c2.163-0.533,4.336-0.303,6.248,0.502c0.731-4.754,4.848-8.391,9.812-8.391c1.902,0,3.678,0.533,5.183,1.452  c0.746-2.384,2.371-4.388,4.505-5.628c-1.518-0.941-3.307-1.487-5.226-1.487c-4.441,0-8.192,2.915-9.467,6.938  c-1.264-4.023-5.026-6.938-9.467-6.938c-4.462,0-8.234,2.947-9.488,7.001c-1.327-4.106-5.266-7.022-9.801-6.855  c-4.326,0.167-7.899,3.062-9.122,6.969c-1.505-0.92-3.281-1.452-5.183-1.452c-4.963,0-9.08,3.636-9.812,8.391  c-1.912-0.805-4.086-1.034-6.248-0.502c-4.535,1.118-7.565,5.162-7.565,9.624c-2.57-3.647-7.398-5.214-11.734-3.5  c-4.347,1.703-6.813,6.134-6.207,10.553c-3.051-3.26-8.035-4.159-12.11-1.881c-4.065,2.267-5.914,6.99-4.723,11.295  c-3.459-2.832-8.526-3.041-12.246-0.24h-0.01c-3.72,2.8-4.911,7.722-3.156,11.828c-3.803-2.341-8.84-1.881-12.163,1.39  s-3.856,8.307-1.567,12.142c-4.075-1.818-9.017-0.7-11.87,2.988c-2.863,3.678-2.717,8.746,0.052,12.246  c-4.295-1.264-9.038,0.502-11.379,4.545c-2.341,4.033-1.526,9.038,1.703,12.131c-4.42-0.669-8.882,1.735-10.658,6.05  c-1.776,4.315-0.282,9.153,3.323,11.786c-4.462-0.063-8.568,2.905-9.738,7.429c-1.181,4.524,0.961,9.132,4.911,11.243  c-4.441,0.564-8.088,4.086-8.62,8.735c-0.522,4.598,2.184,8.819,6.322,10.397c-4.263,1.087-7.429,4.932-7.471,9.529  c-0.031,4.472,2.884,8.276,6.928,9.55c-4.012,1.275-6.928,5.026-6.928,9.467c0,4.681,3.239,8.61,7.596,9.655  c-4.441,1.839-7.001,6.698-5.831,11.515c1.191,4.89,5.831,8.046,10.71,7.523c-3.584,3.385-4.169,8.986-1.181,13.061  c2.978,4.075,8.474,5.214,12.779,2.842c-1.996,4.483-0.428,9.853,3.856,12.497c4.295,2.644,9.812,1.63,12.904-2.173  c-0.157,4.953,3.406,9.352,8.422,10.125c4.786,0.731,9.289-2.079,10.856-6.468c1.17,4.18,5.005,7.231,9.55,7.231  c4.441,0,8.202-2.915,9.467-6.928c1.275,4.012,5.026,6.928,9.467,6.928c2.103,0,4.05-0.66,5.656-1.775  C134.36,423.439,132.214,419.92,132.336,416.057z"/>
<g>
	<path style="fill:#E6D7D8;" d="M265.529,187.214c0.739-2.332,2.314-4.287,4.37-5.522c-1.491-0.895-3.234-1.416-5.1-1.416   c-1.569,0-3.048,0.37-4.367,1.018C262.846,182.481,264.711,184.613,265.529,187.214z"/>
	<path style="fill:#E6D7D8;" d="M303.397,187.214c0.739-2.332,2.314-4.287,4.37-5.522c-1.491-0.895-3.234-1.416-5.101-1.416   c-1.569,0-3.048,0.37-4.367,1.018C300.713,182.481,302.578,184.613,303.397,187.214z"/>
	<path style="fill:#E6D7D8;" d="M341.947,185.593c-0.553-0.271-1.135-0.49-1.74-0.655c0.442,0.705,0.801,1.467,1.056,2.276   C341.442,186.649,341.675,186.109,341.947,185.593z"/>
	<path style="fill:#E6D7D8;" d="M322.33,187.214c0.734-2.314,2.289-4.258,4.323-5.495c-1.404-0.832-3.032-1.333-4.781-1.38   c-1.643-0.046-3.201,0.315-4.583,0.982C319.675,182.512,321.518,184.632,322.33,187.214z"/>
	<path style="fill:#E6D7D8;" d="M284.463,187.214c0.739-2.332,2.313-4.287,4.37-5.522c-1.491-0.895-3.234-1.416-5.1-1.416   c-1.569,0-3.049,0.37-4.367,1.018C281.78,182.481,283.645,184.613,284.463,187.214z"/>
	<path style="fill:#E6D7D8;" d="M246.575,187.277c0.729-2.359,2.315-4.338,4.391-5.585c-1.491-0.895-3.235-1.416-5.101-1.416   c-1.626,0-3.157,0.394-4.51,1.087C243.81,182.521,245.727,184.653,246.575,187.277z"/>
</g>
<path style="fill:#333030;" d="M337.586,191.77v234.789c-3.208-0.899-5.747-3.385-6.75-6.541c-1.264,4.012-5.026,6.928-9.467,6.928  c-4.441,0-8.192-2.915-9.467-6.928c-1.264,4.012-5.026,6.928-9.467,6.928c-4.441,0-8.192-2.915-9.467-6.928  c-1.264,4.012-5.026,6.928-9.467,6.928s-8.192-2.915-9.467-6.928c-1.264,4.012-5.026,6.928-9.467,6.928  c-4.441,0-8.192-2.915-9.467-6.928c-1.264,4.012-5.026,6.928-9.467,6.928c-4.441,0-8.192-2.915-9.467-6.928  c-1.264,4.012-5.026,6.928-9.467,6.928c-4.441,0-8.192-2.915-9.467-6.928c-1.264,4.012-5.026,6.928-9.467,6.928  c-4.441,0-8.192-2.915-9.467-6.928c-1.264,4.012-5.026,6.928-9.467,6.928s-8.192-2.915-9.467-6.928  c-0.805,2.55-2.612,4.65-4.963,5.851V191.77c0.554-0.094,1.108-0.188,1.661-0.261c0.199-0.031,0.397-0.052,0.596-0.084  c0.888-0.125,1.787-0.24,2.696-0.334c0.251-0.042,0.522-0.084,0.784-0.105c0.909-0.104,1.818-0.199,2.738-0.272  c0.303-0.031,0.616-0.052,0.94-0.084c0.93-0.073,1.881-0.146,2.821-0.188c0.282-0.031,0.575-0.042,0.878-0.052  c0.857-0.052,1.714-0.094,2.581-0.104c0.24-0.021,0.481-0.031,0.731-0.031c1.118-0.042,2.257-0.052,3.385-0.052h123.559  c1.128,0,2.267,0.01,3.385,0.052c0.251,0,0.502,0.01,0.742,0.031c0.857,0.01,1.703,0.052,2.539,0.104  c0.324,0.01,0.627,0.021,0.94,0.052c0.857,0.031,1.703,0.094,2.55,0.167c0.481,0.031,0.961,0.073,1.432,0.125  c0.805,0.063,1.599,0.146,2.403,0.251c0.334,0.021,0.658,0.063,0.993,0.115c0.794,0.084,1.599,0.188,2.393,0.313  c0.293,0.021,0.585,0.063,0.857,0.115C336.541,191.592,337.063,191.676,337.586,191.77z"/>
<path style="fill:#F9395E;" d="M497.957,288.444c-2.173,5.799-5.329,10.93-10.48,14.514c-3.971,2.748-8.662,4.357-13.479,4.65  c-9.634,0.596-19.195-4.075-24.472-12.184c-1.682-2.591-2.759-5.486-4.054-8.276c-1.505-3.239-3.156-6.405-4.901-9.529  c-3.49-6.228-7.492-12.184-11.912-17.795c-8.662-11.013-18.902-20.72-30.396-28.745c-11.536-8.056-24.325-14.399-37.742-18.651  c-13.145-4.159-26.843-6.353-40.626-6.583c-2.591-0.042-5.183-0.021-7.774-0.021H210.484c-5.987,0-11.985-0.063-17.972,0.01  c-13.678,0.188-27.303,2.309-40.364,6.384c-13.145,4.106-25.673,10.167-37.063,17.92c-11.922,8.108-22.549,18.045-31.504,29.351  c-4.514,5.705-8.568,11.776-12.142,18.108c-1.829,3.25-3.542,6.572-5.11,9.958c-1.212,2.612-2.226,5.329-3.783,7.764  c-5.089,7.993-14.315,12.737-23.751,12.466c-4.681-0.136-9.3-1.505-13.26-3.992c-5.162-3.25-8.453-8.056-10.804-13.605  c-5.172-12.236-4.608-26.248,1.484-38.045c6.468-12.539,14.681-24.336,23.771-35.119c7.91-9.404,16.666-18.077,26.143-25.893  c9.456-7.805,19.623-14.754,30.333-20.71c7.837-4.357,15.956-8.202,24.294-11.473c3.135-1.233,6.29-2.382,9.477-3.448  c2.706-0.909,5.433-1.766,8.182-2.55c9.728-2.811,19.665-4.88,29.717-6.186c8.098-1.055,16.248-1.578,24.419-1.661  c0.909-0.021,1.808-0.021,2.717-0.021h121.219c8.056,0,16.102,0.387,24.106,1.296c4.295,0.491,8.579,1.118,12.831,1.87  c7.555,1.358,15.036,3.145,22.392,5.36c0.899,0.261,1.787,0.533,2.675,0.815c12.069,3.824,23.771,8.798,34.91,14.827  c11.013,5.956,21.473,12.946,31.19,20.846c10.177,8.265,19.56,17.512,27.961,27.575c8.516,10.198,16.018,21.222,22.371,32.883  l0.449,0.836C501.499,262.771,502.491,276.334,497.957,288.444z"/>
<g>
	<path style="fill:#D92F52;" d="M223.577,164.3c-3.271,3.26-8.558,3.26-11.828,0l-19.195-19.195   c0.909-0.021,1.808-0.021,2.717-0.021h20.919l7.387,7.387C226.837,155.742,226.837,161.029,223.577,164.3z"/>
	<path style="fill:#D92F52;" d="M375.954,170.548c-4.002,2.309-9.112,0.94-11.421-3.051l-11.107-19.247   c7.555,1.358,15.036,3.145,22.392,5.36l3.187,5.527C381.315,163.129,379.946,168.239,375.954,170.548z"/>
	<path style="fill:#D92F52;" d="M303.114,164.3c-3.271,3.26-8.558,3.26-11.828,0l-19.216-19.216h23.656l7.387,7.387   C306.375,155.742,306.375,161.029,303.114,164.3z"/>
	<path style="fill:#D92F52;" d="M149.17,175.532c-3.271,3.26-8.558,3.26-11.828,0l-16.583-16.583   c3.135-1.233,6.29-2.382,9.477-3.448c2.706-0.909,5.433-1.766,8.182-2.55l10.752,10.752   C152.43,166.975,152.43,172.262,149.17,175.532z"/>
</g>
<path style="fill:#F2B54D;" d="M451.772,420.958c-9.112,10.804-19.111,20.846-29.874,30.02H90.102  c-10.762-9.174-20.762-19.216-29.874-30.02H451.772z"/>
<g>
</g>
<g>
</g>
<g>
</g>
<g>
</g>
<g>
</g>
<g>
</g>
<g>
</g>
<g>
</g>
<g>
</g>
<g>
</g>
<g>
</g>
<g>
</g>
<g>
</g>
<g>
</g>
<g>
</g>
</svg>
