<?xml version="1.0" encoding="iso-8859-1"?>
<!-- Generator: Adobe Illustrator 19.0.0, SVG Export Plug-In . SVG Version: 6.00 Build 0)  -->
<svg xmlns="http://www.w3.org/2000/svg" xmlns:xlink="http://www.w3.org/1999/xlink" version="1.1" id="Capa_1" x="0px" y="0px" viewBox="0 0 512 512" style="enable-background:new 0 0 512 512;" xml:space="preserve">
<path style="fill:#94F3FF;" d="M467.644,400.082c-0.836,1.254-1.703,2.497-2.581,3.73c-8.255,11.651-17.607,22.768-28.045,33.207  c-10.439,10.439-21.556,19.79-33.217,28.045c-1.233,0.878-2.476,1.745-3.73,2.591c-99.652,68.002-236.659,57.793-325.089-30.636  c-99.976-99.976-99.976-262.06,0-362.036s262.06-99.976,362.036,0C525.448,163.413,535.667,300.43,467.644,400.082z"/>
<path style="fill:#F9395E;" d="M248.275,57.611l195.676,195.676c13.166,13.166,13.166,34.513,0,47.68L300.958,443.96  c-10.336,10.336-25.702,12.554-38.211,6.675c-3.424-1.616-6.638-3.844-9.468-6.675L57.602,248.284  C4.956,195.636,4.956,110.266,57.612,57.611c30.323-30.323,71.51-43.188,111.045-38.567  C197.755,22.431,225.951,35.287,248.275,57.611z"/>
<path style="fill:#B16E60;" d="M467.644,400.082c-0.836,1.254-1.703,2.497-2.581,3.73c-8.255,11.651-17.607,22.768-28.045,33.207  c-10.439,10.439-21.556,19.79-33.217,28.045c-1.233,0.878-2.476,1.745-3.73,2.591l-78.754-78.754l67.574-67.574L467.644,400.082z"/>
<rect x="326.042" y="347.359" transform="matrix(-0.7071 0.7071 -0.7071 -0.7071 902.4866 373.8354)" style="fill:#9E5B50;" width="95.555" height="52.94"/>
<path style="fill:#D92F52;" d="M279.181,434.199c-3.424-1.616-6.638-3.844-9.468-6.675L74.037,231.848  c-49.887-49.887-52.493-129.15-7.829-182.126c-2.95,2.484-5.82,5.112-8.596,7.888C4.956,110.266,4.956,195.636,57.602,248.284  L253.278,443.96c2.831,2.831,6.045,5.058,9.468,6.675c12.508,5.88,27.876,3.661,38.211-6.675l16.435-16.435  C307.057,437.861,291.691,440.079,279.181,434.199z"/>
<path style="fill:#FF5B6E;" d="M248.275,57.611l195.676,195.676c13.166,13.166,13.166,34.513,0,47.68L300.958,443.96  c-10.336,10.336-25.702,12.554-38.211,6.675c2.347-6.912,5.415-14.691,9.277-23.392c95.87-216.394-103.367-408.199-103.367-408.199  C197.755,22.431,225.951,35.287,248.275,57.611z"/>
<path style="fill:#FCF4D0;" d="M440.398,249.735l3.552,3.552c13.166,13.166,13.166,34.513,0,47.68L300.958,443.96  c-13.166,13.166-34.513,13.166-47.68,0l-21.813-21.813c19.064-19.064,37.326-0.804,56.399-19.877  c19.064-19.064,0.804-37.326,19.868-56.39c19.064-19.064,37.326-0.804,56.39-19.868c19.074-19.074,0.813-37.334,19.877-56.399  C403.074,250.539,421.334,268.8,440.398,249.735z"/>
<path style="fill:#EAE1B8;" d="M269.577,427.66l-15.267-15.267c-7.555,0.439-15.134,2.042-22.845,9.753l21.813,21.813  c13.166,13.166,34.513,13.166,47.68,0l16.299-16.299C304.09,440.827,282.743,440.827,269.577,427.66z"/>
<path style="fill:#9E5B50;" d="M426.325,358.767c0,0-62.758,48.64-30.131,105.001l-47.479-47.479"/>
<g>
</g>
<g>
</g>
<g>
</g>
<g>
</g>
<g>
</g>
<g>
</g>
<g>
</g>
<g>
</g>
<g>
</g>
<g>
</g>
<g>
</g>
<g>
</g>
<g>
</g>
<g>
</g>
<g>
</g>
</svg>
